<?xml version="1.0" encoding="UTF-8"?>
<svg xmlns="http://www.w3.org/2000/svg" xmlns:xlink="http://www.w3.org/1999/xlink" version="1.2" >
<font id="Madelin Bold">
<font-face  font-family="Madelin" units-per-em="1024" ascent="975" descent="-300" font-style="normal" font-weight="700" font-stretch="normal" cap-height="930" x-height="488" underline-position="-125" underline-thickness="50" />
<missing-glyph  horiz-adv-x="100" d="" />
<glyph glyph-name="NULL" d="" />
<glyph glyph-name="CR" unicode="&#xd;" horiz-adv-x="256" d="" />
<glyph glyph-name="space" unicode="&#x20;" horiz-adv-x="248" d="" />
<glyph glyph-name="exclam" unicode="&#x21;" horiz-adv-x="283" d="M149 -10 C197 -10 229 22 229 70 C229 118 197 150 149 150 C101 150 69 118 69 70 C69 22 101 -10 149 -10 L149 -10 Z M80 660 L135 230 L163 230 L218 660 L80 660 L80 660 Z " />
<glyph glyph-name="quotedbl" unicode="&#x22;" horiz-adv-x="528" d="M319 740 L369 490 L398 490 L448 740 L319 740 L319 740 Z M80 740 L130 490 L159 490 L209 740 L80 740 L80 740 Z " />
<glyph glyph-name="numbersign" unicode="&#x23;" horiz-adv-x="498" d="M144 382 L108 259 L0 259 L0 191 L89 191 L33 0 L105 0 L161 191 L257 191 L201 0 L273 0 L329 191 L440 191 L440 259 L348 259 L384 382 L498 382 L498 450 L404 450 L465 660 L393 660 L332 450 L236 450 L297 660 L225 660 L164 450 L58 450 L58 382 L144 382 L144 382 Z M216 382 L312 382 L276 259 L180 259 L216 382 L216 382 Z " />
<glyph glyph-name="dollar" unicode="&#x24;" horiz-adv-x="508" d="M284 740 L284 670 C271 671 258 671 246 670 L246 741 L188 741 L188 660 C104 636 51 572 51 485 C51 398 97 341 188 296 L188 72 C165 86 152 110 152 140 L152 167 C151 167 147 171 147 171 L87 171 C64 171 48 159 48 140 C48 65 102 11 188 -5 L188 -80 L246 -80 L246 -10 C259 -10 272 -9 284 -7 L284 -80 L342 -80 L342 8 C415 38 460 102 460 186 C460 254 420 321 342 370 L342 515 C342 515 346 511 347 511 L406 511 C429 511 445 523 445 541 C445 598 406 641 342 659 L342 739 L284 740 L284 740 Z M246 421 L246 599 C259 600 273 599 284 597 L284 400 C270 407 257 414 246 421 L246 421 Z M188 484 C177 508 175 542 188 565 L188 484 Z M246 264 C260 256 273 248 284 239 L284 62 C273 59 260 57 246 57 L246 264 L246 264 Z M342 170 C349 152 349 132 343 114 L342 170 Z " />
<glyph glyph-name="percent" unicode="&#x25;" horiz-adv-x="806" d="M143 574 C143 665 154 726 171 726 C208 726 233 647 233 528 C233 446 219 392 197 392 C165 392 143 465 143 574 L143 574 Z M31 552 C31 434 93 355 187 355 C279 355 341 440 341 567 C341 683 279 760 187 760 C93 760 31 677 31 552 L31 552 Z M574 213 C574 302 588 361 610 361 C656 361 686 283 686 167 C686 83 666 27 636 27 C599 27 574 101 574 213 L574 213 Z M461 191 C461 70 527 -10 626 -10 C727 -10 794 76 794 206 C794 319 727 395 626 395 C527 395 461 313 461 191 L461 191 Z M212 -16 L677 734 L626 766 L161 16 L212 -16 L212 -16 Z " />
<glyph glyph-name="ampersand" unicode="&#x26;" horiz-adv-x="685" d="M504 457 L540 423 C512 351 486 288 460 236 L297 393 C381 440 433 496 433 545 C433 621 367 671 268 671 C154 671 78 606 78 509 C78 447 107 398 155 347 C44 295 21 239 21 171 C21 62 97 -10 211 -10 C307 -10 377 25 435 87 L529 0 L747 0 L747 13 L667 38 L508 190 C547 259 582 343 620 439 L675 457 L675 470 L505 470 L504 457 L504 457 Z M191 310 C197 305 203 300 209 294 L391 127 C359 91 324 72 283 72 C205 72 153 126 153 206 C153 249 160 284 191 310 L191 310 Z M257 431 C224 464 203 492 203 532 C203 580 225 612 257 612 C288 612 309 582 309 537 C309 499 290 461 257 431 L257 431 Z " />
<glyph glyph-name="quotesingle" unicode="&#x27;" horiz-adv-x="289" d="M80 740 L130 490 L159 490 L209 740 L80 740 L80 740 Z " />
<glyph glyph-name="parenleft" unicode="&#x28;" horiz-adv-x="303" d="M262 740 C137 625 53 493 53 295 C53 97 137 -35 262 -150 L298 -150 C209 -68 149 54 149 295 C149 536 209 658 298 740 L262 740 L262 740 Z " />
<glyph glyph-name="parenright" unicode="&#x29;" horiz-adv-x="303" d="M55 -150 C180 -35 264 97 264 295 C264 493 180 625 55 740 L19 740 C108 658 168 536 168 295 C168 54 108 -68 19 -150 L55 -150 L55 -150 Z " />
<glyph glyph-name="asterisk" unicode="&#x2a;" horiz-adv-x="420" d="M236 585 L362 603 L335 684 L223 625 L245 750 L159 750 L181 625 L69 684 L42 603 L168 585 L77 497 L146 446 L202 560 L258 446 L327 497 L236 585 L236 585 Z " />
<glyph glyph-name="plus" unicode="&#x2b;" horiz-adv-x="510" d="M218 482 L218 308 L40 308 L40 236 L218 236 L218 52 L292 52 L292 236 L470 236 L470 308 L292 308 L292 482 L218 482 L218 482 Z " />
<glyph glyph-name="comma" unicode="&#x2c;" horiz-adv-x="269" d="M90 0 C124 -16 147 -52 147 -90 C147 -124 112 -161 60 -181 L60 -210 C155 -173 219 -101 219 -30 C219 35 189 92 143 113 C110 130 101 129 81 97 L44 35 L48 22 L90 0 L90 0 Z " />
<glyph glyph-name="hyphen" unicode="&#x2d;" horiz-adv-x="375" d="M50 202 L325 202 L325 302 L50 302 L50 202 L50 202 Z " />
<glyph glyph-name="period" unicode="&#x2e;" horiz-adv-x="290" d="M145 -10 C193 -10 225 22 225 70 C225 118 193 150 145 150 C97 150 65 118 65 70 C65 22 97 -10 145 -10 L145 -10 Z " />
<glyph glyph-name="slash" unicode="&#x2f;" horiz-adv-x="272" d="M0 -120 L72 -120 L272 750 L200 750 L0 -120 L0 -120 Z " />
<glyph glyph-name="zero" unicode="0" horiz-adv-x="536" d="M170 371 C170 510 199 602 243 602 C322 602 375 478 375 292 C375 153 341 60 291 60 C218 60 170 184 170 371 L170 371 Z M33 327 C33 125 127 -10 268 -10 C409 -10 503 130 503 339 C503 538 409 670 268 670 C127 670 33 533 33 327 L33 327 Z " />
<glyph glyph-name="one" unicode="1" horiz-adv-x="523" d="M421 0 L421 13 L366 38 L366 660 L337 660 L70 518 L70 468 L244 533 L244 38 L189 13 L189 0 L421 0 L421 0 Z " />
<glyph glyph-name="two" unicode="2" horiz-adv-x="480" d="M463 59 C463 64 464 104 466 173 L453 173 L423 118 L220 118 C390 304 459 382 459 487 C459 597 387 670 278 670 C136 670 41 601 41 497 C44 501 48 505 52 508 C48 505 44 501 40 497 C40 461 63 437 98 437 L165 437 C165 437 169 442 170 442 L170 520 C170 569 195 602 233 602 C284 602 318 555 318 484 C318 302 243 250 49 36 L49 0 L462 0 L463 59 L463 59 Z " />
<glyph glyph-name="three" unicode="3" horiz-adv-x="509" d="M162 120 L162 159 L151 170 L83 170 C83 170 32 150 32 120 C32 42 118 -10 246 -10 C390 -10 486 64 486 175 C486 277 429 340 318 363 C409 391 455 445 455 515 C455 609 381 671 269 671 C139 671 53 612 53 524 C53 494 110 474 110 474 L170 474 L181 485 L181 540 C181 580 204 606 239 606 C285 606 316 565 316 503 C316 432 271 382 183 373 C173 373 162 372 151 371 L151 308 C281 317 348 272 348 176 C348 104 307 56 246 56 C196 56 162 82 162 121 L162 120 L162 120 Z " />
<glyph glyph-name="four" unicode="4" horiz-adv-x="501" d="M434 13 L379 38 L379 186 L488 186 L488 282 L378 282 L378 538 L379 660 L350 660 L256 538 C173 431 89 324 8 215 L8 186 L256 186 L256 38 L201 13 L201 0 L434 0 L434 13 L434 13 Z M256 438 L256 282 L146 282 L256 438 L256 438 Z " />
<glyph glyph-name="five" unicode="5" horiz-adv-x="504" d="M409 660 L86 660 L86 327 C106 333 141 337 174 337 C283 337 356 274 356 180 C356 108 314 60 251 60 C204 60 157 94 139 136 L124 136 C109 136 73 98 73 98 C58 87 48 83 48 60 C48 51 52 40 59 32 C77 7 130 -10 192 -10 C352 -10 459 90 459 239 C459 366 353 451 194 451 C178 451 163 450 155 449 L155 549 L409 549 L409 660 L409 660 Z " />
<glyph glyph-name="six" unicode="6" horiz-adv-x="512" d="M432 670 C196 607 38 431 38 231 C38 86 128 -10 263 -10 C394 -10 482 76 482 204 C482 314 417 388 319 388 C265 388 217 368 182 334 C209 479 302 592 432 626 L432 670 Z M174 234 C182 268 217 290 263 290 C315 290 350 243 350 172 C350 102 315 55 263 55 C212 55 177 126 175 234 L174 234 Z " />
<glyph glyph-name="seven" unicode="7" horiz-adv-x="500" d="M50 660 L50 549 L354 549 C190 243 84 28 84 -1 L245 -1 C245 141 331 393 460 630 L460 659 L50 660 L50 660 Z " />
<glyph glyph-name="eight" unicode="8" horiz-adv-x="502" d="M287 393 C285 394 283 395 281 396 C203 433 172 484 172 541 C172 579 198 604 238 604 C293 604 329 560 329 493 C329 451 314 416 287 393 L287 393 Z M348 358 C414 384 454 436 454 503 C454 604 373 671 252 671 C127 671 44 602 44 498 C44 434 74 373 147 321 C81 290 41 226 41 142 C41 51 125 -10 252 -10 C379 -10 463 64 463 174 C463 240 424 306 349 358 L348 358 Z M208 284 C214 281 220 278 226 275 C304 239 344 184 344 131 C344 83 311 51 261 51 C208 51 172 101 172 177 C172 222 185 259 208 284 L208 284 Z " />
<glyph glyph-name="nine" unicode="9" horiz-adv-x="509" d="M80 -10 C316 -10 474 91 474 429 C474 574 384 670 249 670 C118 670 30 600 30 465 C30 347 98 269 199 269 C251 269 299 292 334 331 C315 115 218 33 79 33 L80 -10 Z M337 425 C326 389 292 365 253 365 C201 365 166 405 166 465 C166 557 199 604 248 604 C299 604 334 533 336 425 L337 425 Z " />
<glyph glyph-name="colon" unicode="&#x3a;" horiz-adv-x="290" d="M145 290 C193 290 225 322 225 370 C225 418 193 450 145 450 C97 450 65 418 65 370 C65 322 97 290 145 290 L145 290 Z M145 -10 C193 -10 225 22 225 70 C225 118 193 150 145 150 C97 150 65 118 65 70 C65 22 97 -10 145 -10 L145 -10 Z " />
<glyph glyph-name="semicolon" unicode="&#x3b;" horiz-adv-x="269" d="M133 290 C181 290 213 322 213 370 C213 418 181 450 133 450 C85 450 53 418 53 370 C53 322 85 290 133 290 L133 290 Z M90 0 C124 -16 147 -52 147 -90 C147 -124 112 -161 60 -181 L60 -210 C155 -173 219 -101 219 -30 C219 35 189 92 143 113 C110 130 101 129 81 97 L44 35 L48 22 L90 0 L90 0 Z " />
<glyph glyph-name="equal" unicode="&#x3d;" horiz-adv-x="500" d="M40 195 L40 123 L460 123 L460 195 L40 195 L40 195 Z M40 421 L40 349 L460 349 L460 421 L40 421 L40 421 Z " />
<glyph glyph-name="question" unicode="&#x3f;" horiz-adv-x="488" d="M232 -5 C280 -5 312 27 312 75 C312 123 280 155 232 155 C184 155 152 123 152 75 C152 27 184 -5 232 -5 L232 -5 Z M166 520 C166 572 182 606 207 606 C263 606 301 558 301 485 C301 443 253 387 180 345 C180 311 217 230 217 230 L246 230 C246 230 248 235 250 244 C360 310 433 406 433 485 C433 596 361 670 252 670 C125 670 40 605 40 507 C40 473 62 450 95 450 L155 450 C155 450 163 462 166 464 L166 520 L166 520 Z " />
<glyph glyph-name="A" unicode="A" horiz-adv-x="743" d="M445 0 L710 0 L710 12 L657 34 C572 244 486 454 402 665 L337 665 C326 639 315 613 305 587 C231 404 158 221 84 39 L20 14 L20 1 L251 1 L251 14 L182 39 L239 188 L462 188 L462 190 L522 39 L446 14 L445 0 L445 0 Z M432 267 L269 267 L349 476 L432 267 L432 267 Z " />
<glyph glyph-name="B" unicode="B" horiz-adv-x="654" d="M443 364 C509 396 547 445 547 505 C547 599 475 661 335 661 L65 661 L65 646 L132 619 L132 43 L65 16 L65 1 L331 1 C495 1 604 81 604 202 C604 279 549 338 442 365 L443 364 L443 364 Z M260 381 L260 582 L302 582 C374 582 411 537 411 469 C411 417 351 382 260 381 L260 381 Z M260 80 L260 301 L338 301 C424 301 468 257 468 190 C468 124 413 80 330 80 L260 80 L260 80 Z " />
<glyph glyph-name="C" unicode="C" horiz-adv-x="721" d="M628 203 C614 181 595 153 581 131 C577 124 571 117 566 113 C521 82 458 61 404 61 C284 61 204 177 204 350 C204 498 288 597 415 597 C457 597 505 579 540 552 L540 552 C547 547 554 538 559 531 C576 506 597 471 614 446 L627 446 L620 625 C592 651 510 669 415 669 C208 669 70 524 70 306 C70 116 204 -11 404 -11 C503 -11 594 8 631 36 L641 202 L628 203 L628 203 Z " />
<glyph glyph-name="D" unicode="D" horiz-adv-x="773" d="M368 0 C569 0 703 131 703 363 C703 559 559 660 344 660 L65 660 L65 645 L132 618 L132 42 L65 15 L65 0 L368 0 L368 0 Z M261 79 L261 581 L307 581 C464 581 568 490 568 314 C568 164 487 79 366 79 L261 79 L261 79 Z " />
<glyph glyph-name="E" unicode="E" horiz-adv-x="646" d="M576 184 L563 184 L519 79 L261 79 L261 300 L416 300 L449 233 L466 233 L466 447 L449 447 L416 380 L261 380 L261 581 L494 581 L538 484 L551 484 L551 660 L65 660 L65 645 L132 618 L132 42 L65 15 L65 0 L576 0 L576 184 L576 184 Z " />
<glyph glyph-name="F" unicode="F" horiz-adv-x="611" d="M416 300 L449 233 L466 233 L466 447 L449 447 L416 380 L261 380 L261 581 L484 581 L528 484 L541 484 L541 660 L65 660 L65 645 L132 618 L132 42 L65 15 L65 0 L341 0 L341 15 L261 42 L261 300 L416 300 L416 300 Z " />
<glyph glyph-name="G" unicode="G" horiz-adv-x="767" d="M647 447 L640 626 L606 585 L640 626 C609 652 523 670 425 670 C212 670 70 525 70 307 C70 117 204 -10 405 -10 C500 -10 602 36 659 104 L659 248 L722 275 L722 290 L459 290 L459 275 L530 248 L530 92 C506 82 476 76 445 76 C300 76 204 186 204 352 C204 500 292 599 425 599 C471 599 523 581 561 554 C561 554 578 536 580 534 C597 509 618 474 635 449 L647 447 L647 447 Z " />
<glyph glyph-name="H" unicode="H" horiz-adv-x="794" d="M729 0 L729 15 L662 42 L662 618 L729 645 L729 660 L466 660 L466 645 L533 618 L533 380 L261 380 L261 618 L328 645 L328 660 L65 660 L65 645 L132 618 L132 42 L65 15 L65 0 L328 0 L328 15 L261 42 L261 300 L533 300 L533 42 L466 15 L466 0 L729 0 L729 0 Z " />
<glyph glyph-name="I" unicode="I" horiz-adv-x="404" d="M334 0 L334 15 L267 42 L267 618 L334 645 L334 660 L70 660 L70 645 L137 618 L137 42 L70 15 L70 0 L334 0 L334 0 Z " />
<glyph glyph-name="J" unicode="J" horiz-adv-x="404" d="M137 618 L137 50 C137 -21 117 -69 86 -69 C86 -69 39 -64 10 -56 L4 -56 C4 -56 -10 -132 -10 -137 C-10 -159 9 -173 37 -173 C174 -173 266 -13 266 228 L267 618 L334 645 L334 660 L70 660 L70 645 L137 618 L137 618 Z " />
<glyph glyph-name="K" unicode="K" horiz-adv-x="762" d="M735 11 L685 30 L389 368 L650 630 L703 649 L703 660 L444 660 L444 647 L512 622 C454 556 396 490 338 425 L262 338 L542 0 L734 0 L735 11 L735 11 Z M328 0 L328 15 L261 42 L261 618 L328 645 L328 660 L65 660 L65 645 L132 618 L132 42 L65 15 L65 0 L328 0 L328 0 Z " />
<glyph glyph-name="L" unicode="L" horiz-adv-x="630" d="M560 218 L546 218 L499 79 L261 79 L261 618 L332 645 L332 660 L65 660 L65 645 L132 618 L132 42 L65 15 L65 0 L560 0 L560 218 L560 218 Z " />
<glyph glyph-name="M" unicode="M" horiz-adv-x="948" d="M285 15 L215 42 L226 478 L423 -5 C439 10 455 27 470 41 L423 -6 L488 -6 L689 471 C694 328 700 184 704 41 L639 14 L639 -1 L887 -1 L887 14 L827 41 C820 233 812 426 806 617 L879 644 L879 659 L681 659 L485 173 L287 659 L74 659 L74 644 L148 617 L127 41 L58 14 L58 -1 L283 -1 L285 15 L285 15 Z " />
<glyph glyph-name="N" unicode="N" horiz-adv-x="786" d="M66 645 L129 618 L129 42 L62 15 L62 0 L313 0 L313 15 L229 42 L229 453 C356 300 483 147 610 -6 L660 -6 L660 617 L723 644 L723 659 L476 659 L476 644 L560 617 L560 258 L230 659 L67 659 L66 645 L66 645 Z " />
<glyph glyph-name="O" unicode="O" horiz-adv-x="817" d="M208 375 C208 510 278 600 383 600 C519 600 610 471 610 277 C610 148 541 62 438 62 C300 62 208 187 208 375 L208 375 Z M70 324 C70 124 206 -10 409 -10 C612 -10 747 125 747 328 C747 533 612 670 409 670 C206 670 70 532 70 324 L70 324 Z " />
<glyph glyph-name="P" unicode="P" horiz-adv-x="631" d="M341 0 L341 15 L261 42 L261 277 L315 277 C463 277 561 356 561 475 C561 586 473 660 340 660 L65 660 L65 645 L132 618 L132 42 L65 15 L65 0 L341 0 L341 0 Z M261 356 L261 581 L309 581 C377 581 423 534 423 463 C423 398 391 355 344 355 L261 356 L261 356 Z " />
<glyph glyph-name="Q" unicode="Q" horiz-adv-x="817" d="M845 -119 L845 -97 C831 -105 799 -110 763 -110 C705 -110 622 -16 552 16 C673 64 747 177 747 328 C747 533 612 670 409 670 C206 670 70 532 70 324 C70 118 215 -21 433 -9 C517 -62 609 -157 673 -157 C735 -157 803 -141 844 -118 L845 -119 L845 -119 Z M207 376 C207 511 277 601 382 601 C518 601 609 472 609 278 C609 149 540 63 437 63 C299 63 207 188 207 376 L207 376 Z " />
<glyph glyph-name="R" unicode="R" horiz-adv-x="690" d="M680 13 L620 38 L429 295 C512 325 562 390 562 475 C562 586 474 660 341 660 L65 660 L65 645 L132 618 L132 42 L65 15 L65 0 L324 0 L324 15 L261 42 L261 277 L281 277 L487 0 L680 0 L680 13 L680 13 Z M261 356 L261 581 L309 581 C377 581 422 534 422 463 C422 398 391 355 345 355 L261 356 L261 356 Z " />
<glyph glyph-name="S" unicode="S" horiz-adv-x="546" d="M466 472 L457 629 C435 654 368 670 289 670 C165 670 83 596 83 484 C83 402 134 343 234 292 C322 247 367 206 367 159 C367 98 333 58 282 58 C239 58 184 79 141 112 L141 112 C134 117 126 126 122 133 C108 156 89 188 75 211 L59 211 L67 33 C97 7 183 -10 281 -10 C406 -10 490 71 490 192 C490 280 434 343 325 399 C249 438 210 478 210 531 C210 573 236 601 275 601 C311 601 349 587 378 565 C388 557 403 540 415 522 L449 471 L466 472 L466 472 Z " />
<glyph glyph-name="T" unicode="T" horiz-adv-x="684" d="M491 0 L491 15 L407 42 L407 581 L578 581 L625 459 L639 459 L639 660 L45 660 L45 459 L59 459 L106 581 L277 581 L277 42 L193 15 L193 0 L491 0 L491 0 Z " />
<glyph glyph-name="U" unicode="U" horiz-adv-x="782" d="M122 618 L122 234 C122 88 228 -10 386 -10 C544 -10 650 88 650 234 L650 618 L717 645 L717 660 L466 660 L466 645 L550 618 L550 203 C550 125 500 73 425 73 C321 73 251 147 251 257 L251 618 L318 645 L318 660 L55 660 L55 645 L122 618 L122 618 Z " />
<glyph glyph-name="V" unicode="V" horiz-adv-x="729" d="M298 660 L32 660 L32 647 L87 622 C164 413 243 205 318 -5 L382 -5 L649 630 L695 649 L695 660 L481 660 L481 645 L548 618 L368 171 L219 618 L297 645 L298 660 L298 660 Z " />
<glyph glyph-name="W" unicode="W" horiz-adv-x="969" d="M285 660 L16 660 L16 647 L69 622 C125 413 182 205 237 -5 L294 -5 C355 146 419 296 481 446 C532 296 584 146 634 -5 L689 -5 L696 15 L897 630 L950 649 L950 660 L725 660 L725 645 L796 618 L671 206 C624 359 576 511 530 665 L469 665 C408 512 350 358 290 204 L200 618 L283 645 L285 660 L285 660 Z " />
<glyph glyph-name="X" unicode="X" horiz-adv-x="743" d="M15 0 L252 0 L252 15 L174 42 L336 260 L488 42 L425 15 L425 0 L708 0 L708 12 L659 34 L437 343 L657 627 L707 649 L707 661 L489 661 L489 646 L557 619 L390 408 L238 619 L309 646 L309 661 L33 661 L33 648 L83 623 L289 327 L71 39 L14 14 L15 0 L15 0 Z " />
<glyph glyph-name="Y" unicode="Y" horiz-adv-x="716" d="M683 660 L463 660 L463 645 L533 618 L387 393 L220 618 L281 645 L281 660 L30 660 L30 647 L81 622 L302 311 L302 42 L226 15 L226 0 L507 0 L507 15 L431 42 L431 316 L637 630 L683 649 L683 660 L683 660 Z " />
<glyph glyph-name="Z" unicode="Z" horiz-adv-x="646" d="M95 660 L95 476 L109 476 L156 581 L396 581 C292 399 189 217 84 36 L84 0 L557 0 L557 193 L543 193 L496 79 L239 79 C340 255 440 431 541 607 L541 660 L95 660 L95 660 Z " />
<glyph glyph-name="bracketleft" unicode="&#x5b;" horiz-adv-x="277" d="M156 707 L272 707 L272 740 L67 740 L67 -150 L272 -150 L272 -117 L156 -117 L156 707 L156 707 Z " />
<glyph glyph-name="backslash" unicode="&#x5c;" horiz-adv-x="294" d="M222 -120 L294 -120 L72 750 L0 750 L222 -120 L222 -120 Z " />
<glyph glyph-name="bracketright" unicode="&#x5d;" horiz-adv-x="272" d="M118 707 L118 -117 L5 -117 L5 -150 L207 -150 L207 740 L5 740 L5 707 L118 707 L118 707 Z " />
<glyph glyph-name="asciicircum" unicode="&#x5e;" horiz-adv-x="340" d="M328 530 L185 705 L155 705 L17 530 L34 530 L170 610 L311 530 L328 530 L328 530 Z " />
<glyph glyph-name="underscore" unicode="&#x5f;" horiz-adv-x="500" d="M25 -86 L25 -157 L475 -157 L475 -86 L25 -86 L25 -86 Z " />
<glyph glyph-name="grave" unicode="&#x60;" horiz-adv-x="340" d="M177 530 L90 707 L-25 707 C-25 707 -9 634 16 619 L160 530 L177 530 L177 530 Z " />
<glyph glyph-name="a" unicode="a" horiz-adv-x="497" d="M169 339 C169 370 183 393 201 393 C250 393 275 365 275 322 L275 259 C119 220 39 158 39 93 C39 31 81 -10 144 -10 C198 -10 250 10 285 49 C301 13 335 -9 380 -9 C428 -9 473 22 491 69 L486 77 C485 74 474 72 458 72 C417 72 389 80 389 91 C389 251 390 354 390 354 C390 418 338 461 237 461 C130 461 49 406 49 332 C49 307 61 291 79 292 L163 292 L168 297 L169 339 L169 339 Z M274 207 L274 101 C274 97 274 93 274 89 C257 81 234 77 209 77 C174 77 150 95 150 123 C150 155 192 186 274 209 L274 207 L274 207 Z " />
<glyph glyph-name="b" unicode="b" horiz-adv-x="560" d="M90 -10 L99 -10 L133 23 C156 3 214 -10 284 -10 C420 -10 511 96 511 255 C511 378 443 460 342 460 C291 460 241 444 205 418 L205 750 L182 750 L35 690 L35 685 L49 675 C74 657 90 645 90 645 L90 -10 L90 -10 Z M205 115 L205 353 C209 359 231 363 260 363 C341 363 395 307 395 224 C395 125 365 59 321 59 C271 59 224 81 205 115 L205 115 Z " />
<glyph glyph-name="c" unicode="c" horiz-adv-x="477" d="M429 139 C397 114 354 97 322 97 C227 97 164 164 164 265 C164 342 195 393 241 393 C267 393 296 376 313 351 L347 302 L354 302 L420 336 C427 343 432 361 432 381 C432 390 427 403 420 413 C400 441 345 460 281 460 C142 460 50 356 50 200 C50 74 134 -10 261 -10 C332 -10 401 44 433 126 L433 139 L429 139 L429 139 Z " />
<glyph glyph-name="d" unicode="d" horiz-adv-x="571" d="M295 703 L319 686 C338 673 350 664 350 664 L350 456 C330 459 309 460 287 460 C144 460 48 352 48 191 C48 70 113 -10 211 -10 C266 -10 320 13 353 50 L365 0 L525 0 L525 13 L466 38 L466 752 L443 752 L296 707 L295 703 L295 703 Z M351 338 L351 102 C337 93 316 88 293 88 C215 88 163 144 163 229 C163 327 205 392 269 392 C269 392 301 371 351 338 L351 338 Z " />
<glyph glyph-name="e" unicode="e" horiz-adv-x="483" d="M167 307 C176 361 204 395 243 395 C282 395 311 362 323 307 L167 307 Z M381 240 L432 247 C432 375 363 460 260 460 C133 460 49 356 49 200 C49 74 133 -10 260 -10 C331 -10 400 44 432 126 L432 139 L428 139 C396 114 353 97 321 97 C234 97 174 153 164 240 L381 240 L381 240 Z " />
<glyph glyph-name="f" unicode="f" horiz-adv-x="393" d="M281 0 L281 13 L226 38 L227 382 L358 382 L358 450 L227 450 L227 611 C227 621 243 631 268 631 C294 631 320 627 333 621 C347 614 360 610 360 610 L367 610 L400 694 C407 716 402 727 376 739 C376 739 352 749 341 749 C231 749 111 614 111 489 L111 449 L40 449 L40 381 L111 381 L111 37 L56 12 L56 -1 L281 0 L281 0 Z " />
<glyph glyph-name="g" unicode="g" horiz-adv-x="554" d="M504 450 C460 444 416 438 373 432 C343 450 305 460 261 460 C140 460 78 396 78 300 C78 241 104 194 148 166 C95 144 62 107 62 70 C62 27 90 -5 135 -18 C84 -38 52 -91 52 -124 C52 -193 127 -239 240 -239 C379 -239 472 -163 472 -48 C472 26 436 76 344 76 L218 76 C185 76 163 92 163 117 C163 133 171 146 183 149 L183 149 C206 141 232 137 260 137 C381 137 444 203 444 303 C444 331 438 356 426 378 L504 373 L504 450 L504 450 Z M197 305 C197 364 216 404 252 404 C297 404 327 362 327 299 C327 237 310 195 278 195 C229 195 197 239 197 305 L197 305 Z M183 -24 L287 -24 C345 -24 368 -46 368 -79 C368 -150 323 -198 256 -198 C196 -198 156 -162 156 -108 C156 -63 167 -24 183 -24 L183 -24 Z " />
<glyph glyph-name="h" unicode="h" horiz-adv-x="578" d="M539 0 L539 13 L484 38 L484 343 C484 413 433 460 357 460 C310 460 265 431 221 386 L221 750 L198 750 L51 690 L51 685 L65 675 C90 657 106 645 106 645 L106 38 L51 13 L51 0 L276 0 L276 13 L221 38 L221 341 C237 352 260 359 295 359 C340 359 370 326 370 277 L370 38 L315 13 L315 0 L539 0 L539 0 Z " />
<glyph glyph-name="i" unicode="i" horiz-adv-x="331" d="M160 610 C208 610 240 642 240 690 C240 738 208 770 160 770 C112 770 80 738 80 690 C80 642 112 610 160 610 L160 610 Z M283 0 L283 13 L224 38 L224 460 L201 460 L54 400 L54 395 L68 385 C93 367 109 355 109 355 L109 38 L54 13 L54 0 L283 0 L283 0 Z " />
<glyph glyph-name="j" unicode="j" horiz-adv-x="331" d="M166 610 C214 610 246 642 246 690 C246 738 214 770 166 770 C118 770 86 738 86 690 C86 642 118 610 166 610 L166 610 Z M46 -211 L46 -236 C209 -134 224 -74 224 2 L224 460 L201 460 L54 400 L54 395 L68 385 C93 367 109 355 109 355 L109 -14 C109 -109 116 -167 46 -211 L46 -211 Z " />
<glyph glyph-name="k" unicode="k" horiz-adv-x="569" d="M544 13 L496 38 L316 284 C370 327 423 370 477 413 L528 438 L528 451 L331 451 L331 435 L385 405 L220 256 L220 761 L197 761 L50 701 L50 696 L64 686 C89 668 105 656 105 656 L105 39 L50 14 L50 1 L279 1 L279 14 L220 39 L220 234 L378 1 L544 1 L544 13 L544 13 Z " />
<glyph glyph-name="l" unicode="l" horiz-adv-x="312" d="M269 0 L269 13 L214 38 L214 760 L191 760 L44 700 L44 695 L58 685 C83 667 99 655 99 655 L99 38 L44 13 L44 0 L269 0 L269 0 Z " />
<glyph glyph-name="m" unicode="m" horiz-adv-x="825" d="M786 0 L786 13 L731 38 L731 343 C731 413 682 460 608 460 C561 460 513 427 464 376 C451 427 407 459 346 459 C302 459 257 429 212 383 L211 383 C209 414 207 459 207 459 L184 459 L43 399 L43 394 L57 384 C82 366 98 354 98 354 L98 37 L43 12 L43 -1 L268 -1 L268 12 L213 37 L213 340 C229 351 251 358 283 358 C325 358 353 325 353 276 L353 37 L294 12 L294 -1 L527 -1 L527 12 L468 37 L468 335 C486 349 510 358 544 358 C587 358 615 325 615 276 L615 37 L556 12 L556 -1 L786 0 L786 0 Z " />
<glyph glyph-name="n" unicode="n" horiz-adv-x="578" d="M539 0 L539 13 L484 38 L484 343 C484 413 433 460 357 460 C309 460 263 430 218 384 L217 384 C215 415 213 460 213 460 L190 460 L49 400 L49 395 L63 385 C88 367 104 355 104 355 L104 38 L49 13 L49 0 L278 0 L278 13 L219 38 L219 341 C235 352 258 359 293 359 C338 359 368 326 368 277 L368 38 L309 13 L309 0 L539 0 L539 0 Z " />
<glyph glyph-name="o" unicode="o" horiz-adv-x="548" d="M182 225 C182 330 206 400 254 400 C321 400 366 330 366 225 C366 120 342 50 294 50 C227 50 182 120 182 225 L182 225 Z M50 225 C50 84 140 -10 274 -10 C422 -10 498 84 498 225 C498 366 408 460 274 460 C126 460 50 366 50 225 L50 225 Z " />
<glyph glyph-name="p" unicode="p" horiz-adv-x="571" d="M217 398 C216 427 215 460 215 460 L192 460 L51 400 L51 395 L65 385 C90 367 106 355 106 355 L106 -192 L51 -217 L51 -230 L280 -230 L280 -217 L221 -192 L221 -8 C239 -9 260 -10 284 -10 C427 -10 522 96 522 254 C522 378 459 460 365 460 C321 460 263 435 218 397 L217 398 L217 398 Z M221 100 L221 350 C237 358 260 362 284 362 C360 362 411 298 411 201 C411 115 376 58 323 58 C292 58 252 75 222 100 L221 100 L221 100 Z " />
<glyph glyph-name="q" unicode="q" horiz-adv-x="578" d="M539 -230 L539 -217 L484 -192 L484 460 L475 460 L435 441 C405 453 355 460 299 460 C150 460 50 352 50 191 C50 70 118 -10 221 -10 C261 -10 318 15 369 54 L369 -192 L310 -217 L310 -230 L539 -230 L539 -230 Z M369 345 L369 105 C350 94 325 87 303 87 C220 87 164 143 164 228 C164 326 211 391 281 391 C297 391 330 374 369 346 L369 345 L369 345 Z " />
<glyph glyph-name="r" unicode="r" horiz-adv-x="409" d="M325 460 C297 460 261 425 220 372 L220 378 L219 378 C219 394 219 420 219 460 L191 460 L50 400 L50 395 L64 385 C89 367 105 355 105 355 L105 38 L50 13 L50 0 L279 0 L279 13 L220 38 L220 323 C233 338 244 347 254 347 C278 347 306 342 324 334 C336 328 362 313 362 313 L369 313 C393 362 409 400 409 409 C409 422 399 438 383 448 C371 456 343 459 325 459 L325 460 L325 460 Z " />
<glyph glyph-name="s" unicode="s" horiz-adv-x="443" d="M358 310 L358 427 C324 447 266 460 214 460 C131 460 75 407 75 327 C75 244 110 202 179 183 C240 166 271 139 271 91 C271 61 246 41 209 41 C199 41 184 44 166 49 C133 59 101 84 86 113 C81 122 76 136 71 145 L59 145 L59 18 C95 1 158 -10 216 -10 C310 -10 372 45 372 128 C372 216 333 261 257 282 C204 297 176 323 176 370 C176 390 194 404 220 404 C220 404 246 402 246 400 C287 390 323 360 337 326 C339 321 342 315 344 310 L358 310 L358 310 Z " />
<glyph glyph-name="t" unicode="t" horiz-adv-x="393" d="M363 82 L359 96 C357 92 330 90 292 90 C248 90 219 112 219 144 L219 382 L351 382 L351 450 L219 450 L219 573 L210 573 L104 450 L18 391 L18 382 L104 382 L104 120 C104 42 154 -10 230 -10 C284 -10 337 27 363 82 L363 82 Z " />
<glyph glyph-name="u" unicode="u" horiz-adv-x="540" d="M345 412 L345 107 C328 99 301 95 270 95 C225 95 195 127 195 176 L195 450 L25 450 L25 437 L80 412 L80 107 C80 37 130 -10 204 -10 C245 -10 296 13 344 57 L344 -1 L518 -1 L518 12 L459 37 L459 449 L285 449 L285 436 L345 412 L345 412 Z " />
<glyph glyph-name="v" unicode="v" horiz-adv-x="536" d="M296 435 L364 408 L270 165 L160 412 L235 437 L235 450 L-23 450 L-23 437 L34 412 C96 275 156 136 220 0 L250 0 L435 407 L498 435 L498 450 L298 450 L296 435 L296 435 Z " />
<glyph glyph-name="w" unicode="w" horiz-adv-x="807" d="M247 450 L-9 450 L-9 437 L46 412 C94 275 141 137 190 0 L225 0 L365 280 C412 187 460 95 504 0 L534 0 L712 407 L775 435 L775 450 L575 450 L575 435 L643 408 L553 166 L408 450 L383 450 L379 438 L252 161 C224 245 195 329 167 412 L246 437 L247 450 L247 450 Z " />
<glyph glyph-name="x" unicode="x" horiz-adv-x="531" d="M481 450 L316 450 L316 437 L369 412 L286 295 L202 412 L267 437 L267 450 L34 450 L34 437 L76 412 L209 221 C165 160 121 98 76 37 L29 12 L29 -1 L208 -1 L208 12 L144 37 L236 181 C269 133 304 84 336 36 L283 11 L283 -2 L513 -2 L513 11 L470 36 L312 257 L437 411 L482 436 L481 450 L481 450 Z " />
<glyph glyph-name="y" unicode="y" horiz-adv-x="512" d="M277 450 L19 450 L19 437 L75 412 L249 14 L222 -51 C203 -101 180 -120 140 -120 L74 -120 L70 -124 L70 -198 C70 -228 84 -240 119 -240 C185 -240 229 -193 276 -71 L475 407 L537 435 L537 450 L347 450 L347 435 L414 408 L311 161 C275 244 237 328 202 411 L277 436 L277 450 L277 450 Z " />
<glyph glyph-name="z" unicode="z" horiz-adv-x="489" d="M80 300 C91 328 102 356 113 384 L259 384 C195 264 132 144 68 25 L68 -1 L415 -1 L415 152 L402 152 L377 64 L219 64 C282 182 344 300 408 417 L408 449 L79 449 L79 439 C76 401 73 334 70 299 L80 300 L80 300 Z " />
<glyph glyph-name="braceleft" unicode="&#x7b;" horiz-adv-x="259" d="M122 298 C176 324 209 376 209 443 C209 503 145 583 145 643 C145 703 177 721 226 719 L255 718 L255 751 L236 751 C123 751 47 724 47 597 C47 542 123 468 123 413 C123 355 93 315 40 315 L15 315 L15 281 L40 281 C90 281 124 245 124 191 C124 136 47 64 47 9 C47 -131 123 -155 236 -155 L255 -155 L255 -122 L225 -124 C177 -127 145 -107 145 -37 C145 23 209 102 209 162 C209 226 176 275 122 299 L122 298 L122 298 Z " />
<glyph glyph-name="bar" unicode="&#x7c;" horiz-adv-x="236" d="M64 -260 L136 -260 L136 760 L64 760 L64 -260 L64 -260 Z " />
<glyph glyph-name="braceright" unicode="&#x7d;" horiz-adv-x="260" d="M255 314 L230 314 C177 314 146 354 146 412 C146 467 223 541 223 596 C223 723 147 750 34 750 L15 750 L15 717 L44 718 C93 720 125 702 125 642 C125 582 61 502 61 442 C61 375 94 323 148 297 C94 273 61 224 61 160 C61 100 125 21 125 -39 C125 -109 93 -129 45 -126 L15 -124 L15 -157 L34 -157 C147 -157 223 -133 223 7 C223 62 146 134 146 189 C146 243 180 279 230 279 L255 279 L255 314 L255 314 Z " />
<glyph glyph-name="asciitilde" unicode="&#x7e;" horiz-adv-x="340" d="M35 225 C45 255 54 275 79 275 C123 275 183 214 227 214 C275 214 297 268 324 350 L305 350 C295 319 285 298 261 298 C217 298 157 359 113 359 C65 359 42 305 16 225 L35 225 L35 225 Z " />
<glyph glyph-name="exclamdown" unicode="&#xa1;" horiz-adv-x="283" d="M149 460 C101 460 69 428 69 380 C69 332 101 300 149 300 C197 300 229 332 229 380 C229 428 197 460 149 460 L149 460 Z M80 -210 L218 -210 L163 220 L135 220 L80 -210 L80 -210 Z " />
<glyph glyph-name="cent" unicode="&#xa2;" horiz-adv-x="477" d="M206 520 L206 449 C110 418 50 326 50 200 C50 93 110 16 206 -5 L206 -81 L264 -81 L264 -11 C334 -10 402 44 434 125 L434 138 L430 138 C381 100 326 84 265 106 L265 388 C284 382 302 368 314 350 L348 301 L355 301 L421 335 C428 342 433 360 433 380 C433 389 428 402 421 412 C399 442 334 463 265 459 L265 520 L206 520 L206 520 Z M207 145 C180 174 165 215 165 265 C165 320 181 362 207 381 L207 145 Z " />
<glyph glyph-name="guillemotleft" unicode="&#xab;" horiz-adv-x="432" d="M396 425 L196 248 L396 70 L412 70 L340 248 L412 425 L396 425 L396 425 Z M213 425 L13 248 L213 70 L229 70 L157 248 L229 425 L213 425 L213 425 Z " />
<glyph glyph-name="acute" unicode="&#xb4;" horiz-adv-x="340" d="M169 530 L186 530 L330 619 C355 634 371 707 371 707 L256 707 L169 530 L169 530 Z " />
<glyph glyph-name="periodcentered" unicode="&#xb7;" horiz-adv-x="290" d="M145 210 C193 210 225 242 225 290 C225 338 193 370 145 370 C97 370 65 338 65 290 C65 242 97 210 145 210 L145 210 Z " />
<glyph glyph-name="guillemotright" unicode="&#xbb;" horiz-adv-x="452" d="M211 425 L288 248 L211 70 L227 70 L432 248 L227 425 L211 425 L211 425 Z M20 425 L97 248 L20 70 L36 70 L241 248 L36 425 L20 425 L20 425 Z " />
<glyph glyph-name="questiondown" unicode="&#xbf;" horiz-adv-x="488" d="M256 455 C208 455 176 423 176 375 C176 327 208 295 256 295 C304 295 336 327 336 375 C336 423 304 455 256 455 L256 455 Z M322 -70 C322 -122 306 -156 281 -156 C225 -156 187 -108 187 -35 C187 7 235 63 308 105 C308 139 271 220 271 220 L242 220 C242 220 240 215 238 206 C128 140 55 44 55 -35 C55 -146 127 -220 236 -220 C363 -220 448 -155 448 -57 C448 -23 426 0 393 0 L333 0 C333 0 325 -12 322 -14 L322 -70 L322 -70 Z " />
<glyph glyph-name="Agrave" unicode="&#xc0;" horiz-adv-x="743" d="M373 705 L286 864 L171 864 C171 864 187 799 212 785 L356 705 L373 705 L373 705 Z M445 0 L710 0 L710 12 L657 34 C572 244 486 454 402 665 L337 665 C326 639 315 613 305 587 C231 404 158 221 84 39 L20 14 L20 1 L251 1 L251 14 L182 39 L239 188 L462 188 L462 190 L522 39 L446 14 L445 0 L445 0 Z M432 267 L269 267 L349 476 L432 267 L432 267 Z " />
<glyph glyph-name="Aacute" unicode="&#xc1;" horiz-adv-x="743" d="M364 705 L381 705 L525 785 C550 799 566 864 566 864 L451 864 L364 705 L364 705 Z M445 0 L710 0 L710 12 L657 34 C572 244 486 454 402 665 L337 665 C326 639 315 613 305 587 C231 404 158 221 84 39 L20 14 L20 1 L251 1 L251 14 L182 39 L239 188 L462 188 L462 190 L522 39 L446 14 L445 0 L445 0 Z M432 267 L269 267 L349 476 L432 267 L432 267 Z " />
<glyph glyph-name="Acircumflex" unicode="&#xc2;" horiz-adv-x="743" d="M529 705 L386 863 L356 863 L217 705 L235 705 L370 777 L511 705 L529 705 L529 705 Z M445 0 L710 0 L710 12 L657 34 C572 244 486 454 402 665 L337 665 C326 639 315 613 305 587 C231 404 158 221 84 39 L20 14 L20 1 L251 1 L251 14 L182 39 L239 188 L462 188 L462 190 L522 39 L446 14 L445 0 L445 0 Z M432 267 L269 267 L349 476 L432 267 L432 267 Z " />
<glyph glyph-name="Atilde" unicode="&#xc3;" horiz-adv-x="743" d="M241 728 C251 755 260 773 284 773 C329 773 388 718 433 718 C480 718 502 766 529 840 L510 840 C500 812 490 793 467 793 C422 793 363 848 318 848 C271 848 248 800 222 728 L241 728 L241 728 Z M445 0 L710 0 L710 12 L657 34 C572 244 486 454 402 665 L337 665 C326 639 315 613 305 587 C231 404 158 221 84 39 L20 14 L20 1 L251 1 L251 14 L182 39 L239 188 L462 188 L462 190 L522 39 L446 14 L445 0 L445 0 Z M432 267 L269 267 L349 476 L432 267 L432 267 Z " />
<glyph glyph-name="Adieresis" unicode="&#xc4;" horiz-adv-x="743" d="M478 735 C521 735 550 764 550 807 C550 850 521 879 478 879 C435 879 406 850 406 807 C406 764 435 735 478 735 L478 735 Z M263 735 C306 735 335 764 335 807 C335 850 306 879 263 879 C220 879 191 850 191 807 C191 764 220 735 263 735 L263 735 Z M445 0 L710 0 L710 12 L657 34 C572 244 486 454 402 665 L337 665 C326 639 315 613 305 587 C231 404 158 221 84 39 L20 14 L20 1 L251 1 L251 14 L182 39 L239 188 L462 188 L462 190 L522 39 L446 14 L445 0 L445 0 Z M432 267 L269 267 L349 476 L432 267 L432 267 Z " />
<glyph glyph-name="Aring" unicode="&#xc5;" horiz-adv-x="743" d="M351 809 C351 835 357 853 367 853 C381 853 390 828 390 790 C390 765 384 744 376 744 C363 744 351 774 351 809 L351 809 Z M280 799 C280 751 322 710 371 710 C420 710 461 752 461 802 C461 853 425 887 371 887 C316 887 280 852 280 799 L280 799 Z M445 0 L710 0 L710 12 L657 34 C572 244 486 454 402 665 L337 665 C326 639 315 613 305 587 C231 404 158 221 84 39 L20 14 L20 1 L251 1 L251 14 L182 39 L239 188 L462 188 L462 190 L522 39 L446 14 L445 0 L445 0 Z M432 267 L269 267 L349 476 L432 267 L432 267 Z " />
<glyph glyph-name="Ccedilla" unicode="&#xc7;" horiz-adv-x="721" d="M628 203 C614 181 595 153 581 131 C577 124 571 117 566 113 C521 82 458 61 404 61 C284 61 204 177 204 350 C204 498 288 597 415 597 C457 597 505 579 540 552 L540 552 C547 547 554 538 559 531 C576 506 597 471 614 446 L627 446 L620 625 C592 651 510 669 415 669 C208 669 70 524 70 306 C70 121 197 -4 388 -10 C381 -25 361 -68 334 -127 L376 -146 C399 -148 415 -159 415 -174 C415 -190 400 -200 378 -200 C350 -200 325 -192 314 -180 L314 -195 C338 -222 372 -240 398 -240 C460 -240 502 -204 502 -151 C502 -105 470 -69 418 -56 C429 -33 437 -17 441 -9 C526 -5 600 13 633 38 L643 204 L628 203 L628 203 Z " />
<glyph glyph-name="Egrave" unicode="&#xc8;" horiz-adv-x="646" d="M334 705 L247 864 L132 864 C132 864 148 799 173 785 L317 705 L334 705 L334 705 Z M576 184 L563 184 L519 79 L261 79 L261 300 L416 300 L449 233 L466 233 L466 447 L449 447 L416 380 L261 380 L261 581 L494 581 L538 484 L551 484 L551 660 L65 660 L65 645 L132 618 L132 42 L65 15 L65 0 L576 0 L576 184 L576 184 Z " />
<glyph glyph-name="Eacute" unicode="&#xc9;" horiz-adv-x="646" d="M325 705 L342 705 L486 785 C511 799 527 864 527 864 L412 864 L325 705 L325 705 Z M576 184 L563 184 L519 79 L261 79 L261 300 L416 300 L449 233 L466 233 L466 447 L449 447 L416 380 L261 380 L261 581 L494 581 L538 484 L551 484 L551 660 L65 660 L65 645 L132 618 L132 42 L65 15 L65 0 L576 0 L576 184 L576 184 Z " />
<glyph glyph-name="Ecircumflex" unicode="&#xca;" horiz-adv-x="646" d="M485 705 L342 863 L312 863 L173 705 L191 705 L326 777 L467 705 L485 705 L485 705 Z M576 184 L563 184 L519 79 L261 79 L261 300 L416 300 L449 233 L466 233 L466 447 L449 447 L416 380 L261 380 L261 581 L494 581 L538 484 L551 484 L551 660 L65 660 L65 645 L132 618 L132 42 L65 15 L65 0 L576 0 L576 184 L576 184 Z " />
<glyph glyph-name="Edieresis" unicode="&#xcb;" horiz-adv-x="646" d="M434 735 C477 735 506 764 506 807 C506 850 477 879 434 879 C391 879 362 850 362 807 C362 764 391 735 434 735 L434 735 Z M219 735 C262 735 291 764 291 807 C291 850 262 879 219 879 C176 879 147 850 147 807 C147 764 176 735 219 735 L219 735 Z M576 184 L563 184 L519 79 L261 79 L261 300 L416 300 L449 233 L466 233 L466 447 L449 447 L416 380 L261 380 L261 581 L494 581 L538 484 L551 484 L551 660 L65 660 L65 645 L132 618 L132 42 L65 15 L65 0 L576 0 L576 184 L576 184 Z " />
<glyph glyph-name="Igrave" unicode="&#xcc;" horiz-adv-x="404" d="M209 705 L122 864 L7 864 C7 864 23 799 48 785 L192 705 L209 705 L209 705 Z M334 0 L334 15 L267 42 L267 618 L334 645 L334 660 L70 660 L70 645 L137 618 L137 42 L70 15 L70 0 L334 0 L334 0 Z " />
<glyph glyph-name="Iacute" unicode="&#xcd;" horiz-adv-x="404" d="M201 705 L218 705 L362 785 C387 799 403 864 403 864 L288 864 L201 705 L201 705 Z M334 0 L334 15 L267 42 L267 618 L334 645 L334 660 L70 660 L70 645 L137 618 L137 42 L70 15 L70 0 L334 0 L334 0 Z " />
<glyph glyph-name="Icircumflex" unicode="&#xce;" horiz-adv-x="404" d="M360 705 L217 863 L187 863 L49 705 L66 705 L202 777 L343 705 L360 705 L360 705 Z M334 0 L334 15 L267 42 L267 618 L334 645 L334 660 L70 660 L70 645 L137 618 L137 42 L70 15 L70 0 L334 0 L334 0 Z " />
<glyph glyph-name="Idieresis" unicode="&#xcf;" horiz-adv-x="404" d="M310 735 C353 735 381 764 381 807 C381 850 353 879 310 879 C267 879 238 850 238 807 C238 764 267 735 310 735 L310 735 Z M95 735 C138 735 166 764 166 807 C166 850 138 879 95 879 C52 879 23 850 23 807 C23 764 52 735 95 735 L95 735 Z M334 0 L334 15 L267 42 L267 618 L334 645 L334 660 L70 660 L70 645 L137 618 L137 42 L70 15 L70 0 L334 0 L334 0 Z " />
<glyph glyph-name="Ntilde" unicode="&#xd1;" horiz-adv-x="786" d="M274 728 C284 755 293 773 318 773 C362 773 422 718 466 718 C514 718 536 766 563 840 L544 840 C534 812 524 793 500 793 C456 793 396 848 352 848 C304 848 281 800 255 728 L274 728 L274 728 Z M66 645 L129 618 L129 42 L62 15 L62 0 L313 0 L313 15 L229 42 L229 453 C356 300 483 147 610 -6 L660 -6 L660 617 L723 644 L723 659 L476 659 L476 644 L560 617 L560 258 L230 659 L67 659 L66 645 L66 645 Z " />
<glyph glyph-name="Ograve" unicode="&#xd2;" horiz-adv-x="817" d="M401 705 L314 864 L199 864 C199 864 215 799 240 785 L384 705 L401 705 L401 705 Z M208 375 C208 510 278 600 383 600 C519 600 610 471 610 277 C610 148 541 62 438 62 C300 62 208 187 208 375 L208 375 Z M70 324 C70 124 206 -10 409 -10 C612 -10 747 125 747 328 C747 533 612 670 409 670 C206 670 70 532 70 324 L70 324 Z " />
<glyph glyph-name="Oacute" unicode="&#xd3;" horiz-adv-x="817" d="M392 705 L409 705 L553 785 C578 799 594 864 594 864 L479 864 L392 705 L392 705 Z M208 375 C208 510 278 600 383 600 C519 600 610 471 610 277 C610 148 541 62 438 62 C300 62 208 187 208 375 L208 375 Z M70 324 C70 124 206 -10 409 -10 C612 -10 747 125 747 328 C747 533 612 670 409 670 C206 670 70 532 70 324 L70 324 Z " />
<glyph glyph-name="Ocircumflex" unicode="&#xd4;" horiz-adv-x="817" d="M552 705 L409 863 L379 863 L240 705 L258 705 L393 777 L534 705 L552 705 L552 705 Z M208 375 C208 510 278 600 383 600 C519 600 610 471 610 277 C610 148 541 62 438 62 C300 62 208 187 208 375 L208 375 Z M70 324 C70 124 206 -10 409 -10 C612 -10 747 125 747 328 C747 533 612 670 409 670 C206 670 70 532 70 324 L70 324 Z " />
<glyph glyph-name="Otilde" unicode="&#xd5;" horiz-adv-x="817" d="M259 728 C269 755 278 773 302 773 C347 773 406 718 451 718 C498 718 520 766 547 840 L528 840 C518 812 508 793 485 793 C440 793 381 848 336 848 C289 848 266 800 240 728 L259 728 L259 728 Z M208 375 C208 510 278 600 383 600 C519 600 610 471 610 277 C610 148 541 62 438 62 C300 62 208 187 208 375 L208 375 Z M70 324 C70 124 206 -10 409 -10 C612 -10 747 125 747 328 C747 533 612 670 409 670 C206 670 70 532 70 324 L70 324 Z " />
<glyph glyph-name="Odieresis" unicode="&#xd6;" horiz-adv-x="817" d="M501 735 C544 735 573 764 573 807 C573 850 544 879 501 879 C458 879 429 850 429 807 C429 764 458 735 501 735 L501 735 Z M286 735 C329 735 358 764 358 807 C358 850 329 879 286 879 C243 879 214 850 214 807 C214 764 243 735 286 735 L286 735 Z M208 375 C208 510 278 600 383 600 C519 600 610 471 610 277 C610 148 541 62 438 62 C300 62 208 187 208 375 L208 375 Z M70 324 C70 124 206 -10 409 -10 C612 -10 747 125 747 328 C747 533 612 670 409 670 C206 670 70 532 70 324 L70 324 Z " />
<glyph glyph-name="Oslash" unicode="&#xd8;" horiz-adv-x="817" d="M70 324 C70 229 101 149 155 91 L70 -9 L169 -9 L213 43 C266 9 332 -10 408 -10 C611 -10 746 125 746 328 C746 426 715 509 660 568 L746 669 L647 669 L602 616 C549 650 483 669 408 669 C205 669 69 531 69 323 L70 324 L70 324 Z M530 531 L243 193 C220 242 207 303 207 373 C207 508 277 598 382 598 C441 598 492 574 530 531 L530 531 Z M572 465 C596 414 609 350 609 277 C609 148 540 62 437 62 C377 62 325 86 286 129 L572 465 Z " />
<glyph glyph-name="Ugrave" unicode="&#xd9;" horiz-adv-x="782" d="M403 705 L316 864 L201 864 C201 864 217 799 242 785 L386 705 L403 705 L403 705 Z M122 618 L122 234 C122 88 228 -10 386 -10 C544 -10 650 88 650 234 L650 618 L717 645 L717 660 L466 660 L466 645 L550 618 L550 203 C550 125 500 73 425 73 C321 73 251 147 251 257 L251 618 L318 645 L318 660 L55 660 L55 645 L122 618 L122 618 Z " />
<glyph glyph-name="Uacute" unicode="&#xda;" horiz-adv-x="782" d="M385 705 L402 705 L546 785 C571 799 587 864 587 864 L472 864 L385 705 L385 705 Z M122 618 L122 234 C122 88 228 -10 386 -10 C544 -10 650 88 650 234 L650 618 L717 645 L717 660 L466 660 L466 645 L550 618 L550 203 C550 125 500 73 425 73 C321 73 251 147 251 257 L251 618 L318 645 L318 660 L55 660 L55 645 L122 618 L122 618 Z " />
<glyph glyph-name="Ucircumflex" unicode="&#xdb;" horiz-adv-x="782" d="M554 705 L411 863 L381 863 L243 705 L260 705 L396 777 L537 705 L554 705 L554 705 Z M122 618 L122 234 C122 88 228 -10 386 -10 C544 -10 650 88 650 234 L650 618 L717 645 L717 660 L466 660 L466 645 L550 618 L550 203 C550 125 500 73 425 73 C321 73 251 147 251 257 L251 618 L318 645 L318 660 L55 660 L55 645 L122 618 L122 618 Z " />
<glyph glyph-name="Udieresis" unicode="&#xdc;" horiz-adv-x="782" d="M504 735 C547 735 575 764 575 807 C575 850 547 879 504 879 C461 879 432 850 432 807 C432 764 461 735 504 735 L504 735 Z M289 735 C332 735 360 764 360 807 C360 850 332 879 289 879 C246 879 217 850 217 807 C217 764 246 735 289 735 L289 735 Z M122 618 L122 234 C122 88 228 -10 386 -10 C544 -10 650 88 650 234 L650 618 L717 645 L717 660 L466 660 L466 645 L550 618 L550 203 C550 125 500 73 425 73 C321 73 251 147 251 257 L251 618 L318 645 L318 660 L55 660 L55 645 L122 618 L122 618 Z " />
<glyph glyph-name="Yacute" unicode="&#xdd;" horiz-adv-x="716" d="M354 705 L371 705 L515 785 C540 799 556 864 556 864 L441 864 L354 705 L354 705 Z M683 660 L463 660 L463 645 L533 618 L387 393 L220 618 L281 645 L281 660 L30 660 L30 647 L81 622 L302 311 L302 42 L226 15 L226 0 L507 0 L507 15 L431 42 L431 316 L637 630 L683 649 L683 660 L683 660 Z " />
<glyph glyph-name="agrave" unicode="&#xe0;" horiz-adv-x="497" d="M245 530 L158 707 L43 707 C43 707 59 634 84 619 L228 530 L245 530 L245 530 Z M169 339 C169 370 183 393 201 393 C250 393 275 365 275 322 L275 259 C119 220 39 158 39 93 C39 31 81 -10 144 -10 C198 -10 250 10 285 49 C301 13 335 -9 380 -9 C428 -9 473 22 491 69 L486 77 C485 74 474 72 458 72 C417 72 389 80 389 91 C389 251 390 354 390 354 C390 418 338 461 237 461 C130 461 49 406 49 332 C49 307 61 291 79 292 L163 292 L168 297 L169 339 L169 339 Z M274 207 L274 101 C274 97 274 93 274 89 C257 81 234 77 209 77 C174 77 150 95 150 123 C150 155 192 186 274 209 L274 207 L274 207 Z " />
<glyph glyph-name="aacute" unicode="&#xe1;" horiz-adv-x="497" d="M237 530 L254 530 L398 619 C423 634 439 707 439 707 L324 707 L237 530 L237 530 Z M169 339 C169 370 183 393 201 393 C250 393 275 365 275 322 L275 259 C119 220 39 158 39 93 C39 31 81 -10 144 -10 C198 -10 250 10 285 49 C301 13 335 -9 380 -9 C428 -9 473 22 491 69 L486 77 C485 74 474 72 458 72 C417 72 389 80 389 91 C389 251 390 354 390 354 C390 418 338 461 237 461 C130 461 49 406 49 332 C49 307 61 291 79 292 L163 292 L168 297 L169 339 L169 339 Z M274 207 L274 101 C274 97 274 93 274 89 C257 81 234 77 209 77 C174 77 150 95 150 123 C150 155 192 186 274 209 L274 207 L274 207 Z " />
<glyph glyph-name="acircumflex" unicode="&#xe2;" horiz-adv-x="497" d="M396 530 L253 705 L223 705 L85 530 L102 530 L238 610 L379 530 L396 530 L396 530 Z M169 339 C169 370 183 393 201 393 C250 393 275 365 275 322 L275 259 C119 220 39 158 39 93 C39 31 81 -10 144 -10 C198 -10 250 10 285 49 C301 13 335 -9 380 -9 C428 -9 473 22 491 69 L486 77 C485 74 474 72 458 72 C417 72 389 80 389 91 C389 251 390 354 390 354 C390 418 338 461 237 461 C130 461 49 406 49 332 C49 307 61 291 79 292 L163 292 L168 297 L169 339 L169 339 Z M274 207 L274 101 C274 97 274 93 274 89 C257 81 234 77 209 77 C174 77 150 95 150 123 C150 155 192 186 274 209 L274 207 L274 207 Z " />
<glyph glyph-name="atilde" unicode="&#xe3;" horiz-adv-x="497" d="M88 555 C98 585 107 605 132 605 C176 605 236 544 280 544 C328 544 350 598 377 680 L358 680 C348 649 338 628 314 628 C270 628 210 689 166 689 C118 689 95 635 69 555 L88 555 L88 555 Z M169 339 C169 370 183 393 201 393 C250 393 275 365 275 322 L275 259 C119 220 39 158 39 93 C39 31 81 -10 144 -10 C198 -10 250 10 285 49 C301 13 335 -9 380 -9 C428 -9 473 22 491 69 L486 77 C485 74 474 72 458 72 C417 72 389 80 389 91 C389 251 390 354 390 354 C390 418 338 461 237 461 C130 461 49 406 49 332 C49 307 61 291 79 292 L163 292 L168 297 L169 339 L169 339 Z M274 207 L274 101 C274 97 274 93 274 89 C257 81 234 77 209 77 C174 77 150 95 150 123 C150 155 192 186 274 209 L274 207 L274 207 Z " />
<glyph glyph-name="adieresis" unicode="&#xe4;" horiz-adv-x="497" d="M331 570 C374 570 402 599 402 642 C402 685 374 714 331 714 C288 714 259 685 259 642 C259 599 288 570 331 570 L331 570 Z M116 570 C159 570 187 599 187 642 C187 685 159 714 116 714 C73 714 44 685 44 642 C44 599 73 570 116 570 L116 570 Z M169 339 C169 370 183 393 201 393 C250 393 275 365 275 322 L275 259 C119 220 39 158 39 93 C39 31 81 -10 144 -10 C198 -10 250 10 285 49 C301 13 335 -9 380 -9 C428 -9 473 22 491 69 L486 77 C485 74 474 72 458 72 C417 72 389 80 389 91 C389 251 390 354 390 354 C390 418 338 461 237 461 C130 461 49 406 49 332 C49 307 61 291 79 292 L163 292 L168 297 L169 339 L169 339 Z M274 207 L274 101 C274 97 274 93 274 89 C257 81 234 77 209 77 C174 77 150 95 150 123 C150 155 192 186 274 209 L274 207 L274 207 Z " />
<glyph glyph-name="aring" unicode="&#xe5;" horiz-adv-x="497" d="M208 634 C208 660 215 678 225 678 C239 678 248 653 248 615 C248 590 242 569 234 569 C220 569 208 599 208 634 L208 634 Z M137 624 C137 576 179 535 228 535 C277 535 319 577 319 627 C319 678 283 712 228 712 C173 712 137 677 137 624 L137 624 Z M169 339 C169 370 183 393 201 393 C250 393 275 365 275 322 L275 259 C119 220 39 158 39 93 C39 31 81 -10 144 -10 C198 -10 250 10 285 49 C301 13 335 -9 380 -9 C428 -9 473 22 491 69 L486 77 C485 74 474 72 458 72 C417 72 389 80 389 91 C389 251 390 354 390 354 C390 418 338 461 237 461 C130 461 49 406 49 332 C49 307 61 291 79 292 L163 292 L168 297 L169 339 L169 339 Z M274 207 L274 101 C274 97 274 93 274 89 C257 81 234 77 209 77 C174 77 150 95 150 123 C150 155 192 186 274 209 L274 207 L274 207 Z " />
<glyph glyph-name="ccedilla" unicode="&#xe7;" horiz-adv-x="477" d="M275 -57 C288 -28 296 -10 298 -6 C355 9 406 57 432 124 L432 137 L428 137 C396 112 353 95 321 95 C226 95 163 162 163 263 C163 340 194 391 240 391 C266 391 295 374 312 349 L346 300 L353 300 L419 334 C426 341 431 359 431 379 C431 388 426 401 419 411 C399 439 344 458 280 458 C141 458 49 354 49 198 C49 77 126 -5 244 -12 C237 -27 217 -70 190 -129 L232 -148 C255 -150 271 -161 271 -176 C271 -192 256 -202 234 -202 C206 -202 181 -194 170 -182 L170 -197 C194 -224 228 -242 254 -242 C316 -242 358 -206 358 -153 C358 -107 326 -71 274 -58 L275 -57 L275 -57 Z " />
<glyph glyph-name="egrave" unicode="&#xe8;" horiz-adv-x="483" d="M259 530 L172 707 L57 707 C57 707 73 634 98 619 L242 530 L259 530 L259 530 Z M167 307 C176 361 204 395 243 395 C282 395 311 362 323 307 L167 307 Z M381 240 L432 247 C432 375 363 460 260 460 C133 460 49 356 49 200 C49 74 133 -10 260 -10 C331 -10 400 44 432 126 L432 139 L428 139 C396 114 353 97 321 97 C234 97 174 153 164 240 L381 240 L381 240 Z " />
<glyph glyph-name="eacute" unicode="&#xe9;" horiz-adv-x="483" d="M250 530 L267 530 L411 619 C436 634 452 707 452 707 L337 707 L250 530 L250 530 Z M167 307 C176 361 204 395 243 395 C282 395 311 362 323 307 L167 307 Z M381 240 L432 247 C432 375 363 460 260 460 C133 460 49 356 49 200 C49 74 133 -10 260 -10 C331 -10 400 44 432 126 L432 139 L428 139 C396 114 353 97 321 97 C234 97 174 153 164 240 L381 240 L381 240 Z " />
<glyph glyph-name="ecircumflex" unicode="&#xea;" horiz-adv-x="483" d="M410 530 L267 705 L237 705 L98 530 L116 530 L252 610 L392 530 L410 530 L410 530 Z M167 307 C176 361 204 395 243 395 C282 395 311 362 323 307 L167 307 Z M381 240 L432 247 C432 375 363 460 260 460 C133 460 49 356 49 200 C49 74 133 -10 260 -10 C331 -10 400 44 432 126 L432 139 L428 139 C396 114 353 97 321 97 C234 97 174 153 164 240 L381 240 L381 240 Z " />
<glyph glyph-name="edieresis" unicode="&#xeb;" horiz-adv-x="483" d="M359 570 C402 570 431 599 431 642 C431 685 402 714 359 714 C316 714 287 685 287 642 C287 599 316 570 359 570 L359 570 Z M144 570 C187 570 216 599 216 642 C216 685 187 714 144 714 C101 714 72 685 72 642 C72 599 101 570 144 570 L144 570 Z M167 307 C176 361 204 395 243 395 C282 395 311 362 323 307 L167 307 Z M381 240 L432 247 C432 375 363 460 260 460 C133 460 49 356 49 200 C49 74 133 -10 260 -10 C331 -10 400 44 432 126 L432 139 L428 139 C396 114 353 97 321 97 C234 97 174 153 164 240 L381 240 L381 240 Z " />
<glyph glyph-name="igrave" unicode="&#xec;" horiz-adv-x="331" d="M168 530 L81 707 L-34 707 C-34 707 -18 634 7 619 L151 530 L168 530 L168 530 Z M279 0 L279 13 L224 38 L224 460 L201 460 L54 400 L54 395 L68 385 C93 367 109 355 109 355 L109 38 L54 13 L54 0 L279 0 L279 0 Z " />
<glyph glyph-name="iacute" unicode="&#xed;" horiz-adv-x="331" d="M160 530 L177 530 L321 619 C346 634 362 707 362 707 L247 707 L160 530 L160 530 Z M279 0 L279 13 L224 38 L224 460 L201 460 L54 400 L54 395 L68 385 C93 367 109 355 109 355 L109 38 L54 13 L54 0 L279 0 L279 0 Z " />
<glyph glyph-name="icircumflex" unicode="&#xee;" horiz-adv-x="331" d="M319 530 L176 705 L146 705 L8 530 L25 530 L161 610 L302 530 L319 530 L319 530 Z M279 0 L279 13 L224 38 L224 460 L201 460 L54 400 L54 395 L68 385 C93 367 109 355 109 355 L109 38 L54 13 L54 0 L279 0 L279 0 Z " />
<glyph glyph-name="idieresis" unicode="&#xef;" horiz-adv-x="331" d="M269 570 C312 570 340 599 340 642 C340 685 312 714 269 714 C226 714 197 685 197 642 C197 599 226 570 269 570 L269 570 Z M54 570 C97 570 125 599 125 642 C125 685 97 714 54 714 C11 714 -18 685 -18 642 C-18 599 11 570 54 570 L54 570 Z M279 0 L279 13 L224 38 L224 460 L201 460 L54 400 L54 395 L68 385 C93 367 109 355 109 355 L109 38 L54 13 L54 0 L279 0 L279 0 Z " />
<glyph glyph-name="ntilde" unicode="&#xf1;" horiz-adv-x="578" d="M160 555 C170 585 179 605 203 605 C248 605 307 544 352 544 C399 544 421 598 448 680 L429 680 C419 649 409 628 386 628 C341 628 282 689 237 689 C190 689 167 635 141 555 L160 555 L160 555 Z M539 0 L539 13 L484 38 L484 343 C484 413 433 460 357 460 C309 460 263 430 218 384 L217 384 C215 415 213 460 213 460 L190 460 L49 400 L49 395 L63 385 C88 367 104 355 104 355 L104 38 L49 13 L49 0 L278 0 L278 13 L219 38 L219 341 C235 352 258 359 293 359 C338 359 368 326 368 277 L368 38 L309 13 L309 0 L539 0 L539 0 Z " />
<glyph glyph-name="ograve" unicode="&#xf2;" horiz-adv-x="548" d="M281 530 L194 707 L79 707 C79 707 95 634 120 619 L264 530 L281 530 L281 530 Z M182 225 C182 330 206 400 254 400 C321 400 366 330 366 225 C366 120 342 50 294 50 C227 50 182 120 182 225 L182 225 Z M50 225 C50 84 140 -10 274 -10 C422 -10 498 84 498 225 C498 366 408 460 274 460 C126 460 50 366 50 225 L50 225 Z " />
<glyph glyph-name="oacute" unicode="&#xf3;" horiz-adv-x="548" d="M273 530 L290 530 L434 619 C459 634 475 707 475 707 L360 707 L273 530 L273 530 Z M182 225 C182 330 206 400 254 400 C321 400 366 330 366 225 C366 120 342 50 294 50 C227 50 182 120 182 225 L182 225 Z M50 225 C50 84 140 -10 274 -10 C422 -10 498 84 498 225 C498 366 408 460 274 460 C126 460 50 366 50 225 L50 225 Z " />
<glyph glyph-name="ocircumflex" unicode="&#xf4;" horiz-adv-x="548" d="M432 530 L289 705 L259 705 L121 530 L138 530 L274 610 L415 530 L432 530 L432 530 Z M182 225 C182 330 206 400 254 400 C321 400 366 330 366 225 C366 120 342 50 294 50 C227 50 182 120 182 225 L182 225 Z M50 225 C50 84 140 -10 274 -10 C422 -10 498 84 498 225 C498 366 408 460 274 460 C126 460 50 366 50 225 L50 225 Z " />
<glyph glyph-name="otilde" unicode="&#xf5;" horiz-adv-x="548" d="M139 555 C149 585 158 605 183 605 C227 605 287 544 331 544 C379 544 401 598 428 680 L409 680 C399 649 389 628 365 628 C321 628 261 689 217 689 C169 689 146 635 120 555 L139 555 L139 555 Z M182 225 C182 330 206 400 254 400 C321 400 366 330 366 225 C366 120 342 50 294 50 C227 50 182 120 182 225 L182 225 Z M50 225 C50 84 140 -10 274 -10 C422 -10 498 84 498 225 C498 366 408 460 274 460 C126 460 50 366 50 225 L50 225 Z " />
<glyph glyph-name="odieresis" unicode="&#xf6;" horiz-adv-x="548" d="M382 570 C425 570 453 599 453 642 C453 685 425 714 382 714 C339 714 310 685 310 642 C310 599 339 570 382 570 L382 570 Z M167 570 C210 570 238 599 238 642 C238 685 210 714 167 714 C124 714 95 685 95 642 C95 599 124 570 167 570 L167 570 Z M182 225 C182 330 206 400 254 400 C321 400 366 330 366 225 C366 120 342 50 294 50 C227 50 182 120 182 225 L182 225 Z M50 225 C50 84 140 -10 274 -10 C422 -10 498 84 498 225 C498 366 408 460 274 460 C126 460 50 366 50 225 L50 225 Z " />
<glyph glyph-name="oslash" unicode="&#xf8;" horiz-adv-x="548" d="M50 225 C50 159 70 103 105 62 L50 -11 L145 -11 L164 14 C196 -2 233 -11 274 -11 C422 -11 498 83 498 224 C498 290 478 346 443 387 L498 460 L403 460 L384 435 C352 451 315 460 274 460 C126 460 50 366 50 225 L50 225 Z M329 361 L187 171 C184 188 183 206 183 225 C183 330 207 400 255 400 C285 400 311 386 330 361 L329 361 L329 361 Z M363 278 C366 261 367 243 367 224 C367 119 343 49 295 49 C265 49 239 63 220 88 L363 278 Z " />
<glyph glyph-name="ugrave" unicode="&#xf9;" horiz-adv-x="540" d="M273 530 L186 707 L71 707 C71 707 87 634 112 619 L256 530 L273 530 L273 530 Z M345 412 L345 107 C328 99 301 95 270 95 C225 95 195 127 195 176 L195 450 L25 450 L25 437 L80 412 L80 107 C80 37 130 -10 204 -10 C245 -10 296 13 344 57 L344 -1 L518 -1 L518 12 L459 37 L459 449 L285 449 L285 436 L345 412 L345 412 Z " />
<glyph glyph-name="uacute" unicode="&#xfa;" horiz-adv-x="540" d="M264 530 L281 530 L425 619 C450 634 466 707 466 707 L351 707 L264 530 L264 530 Z M345 412 L345 107 C328 99 301 95 270 95 C225 95 195 127 195 176 L195 450 L25 450 L25 437 L80 412 L80 107 C80 37 130 -10 204 -10 C245 -10 296 13 344 57 L344 -1 L518 -1 L518 12 L459 37 L459 449 L285 449 L285 436 L345 412 L345 412 Z " />
<glyph glyph-name="ucircumflex" unicode="&#xfb;" horiz-adv-x="540" d="M424 530 L281 705 L251 705 L112 530 L130 530 L266 610 L406 530 L424 530 L424 530 Z M345 412 L345 107 C328 99 301 95 270 95 C225 95 195 127 195 176 L195 450 L25 450 L25 437 L80 412 L80 107 C80 37 130 -10 204 -10 C245 -10 296 13 344 57 L344 -1 L518 -1 L518 12 L459 37 L459 449 L285 449 L285 436 L345 412 L345 412 Z " />
<glyph glyph-name="udieresis" unicode="&#xfc;" horiz-adv-x="540" d="M373 570 C416 570 445 599 445 642 C445 685 416 714 373 714 C330 714 301 685 301 642 C301 599 330 570 373 570 L373 570 Z M158 570 C201 570 230 599 230 642 C230 685 201 714 158 714 C115 714 86 685 86 642 C86 599 115 570 158 570 L158 570 Z M345 412 L345 107 C328 99 301 95 270 95 C225 95 195 127 195 176 L195 450 L25 450 L25 437 L80 412 L80 107 C80 37 130 -10 204 -10 C245 -10 296 13 344 57 L344 -1 L518 -1 L518 12 L459 37 L459 449 L285 449 L285 436 L345 412 L345 412 Z " />
<glyph glyph-name="yacute" unicode="&#xfd;" horiz-adv-x="468" d="M279 530 L296 530 L440 619 C465 634 481 707 481 707 L366 707 L279 530 L279 530 Z M233 450 L-25 450 L-25 437 L31 412 L205 14 L178 -51 C159 -101 136 -120 96 -120 L30 -120 L26 -124 L26 -198 C26 -228 40 -240 75 -240 C141 -240 185 -193 232 -71 L431 407 L493 435 L493 450 L303 450 L303 435 L370 408 L267 161 C231 244 193 328 158 411 L233 436 L233 450 L233 450 Z " />
<glyph glyph-name="ydieresis" unicode="&#xff;" horiz-adv-x="468" d="M388 570 C431 570 459 599 459 642 C459 685 431 714 388 714 C345 714 316 685 316 642 C316 599 345 570 388 570 L388 570 Z M173 570 C216 570 244 599 244 642 C244 685 216 714 173 714 C130 714 101 685 101 642 C101 599 130 570 173 570 L173 570 Z M233 450 L-25 450 L-25 437 L31 412 L205 14 L178 -51 C159 -101 136 -120 96 -120 L30 -120 L26 -124 L26 -198 C26 -228 40 -240 75 -240 C141 -240 185 -193 232 -71 L431 407 L493 435 L493 450 L303 450 L303 435 L370 408 L267 161 C231 244 193 328 158 411 L233 436 L233 450 L233 450 Z " />
<glyph glyph-name="Amacron" unicode="&#x100;" horiz-adv-x="743" d="M238 763 L504 763 L504 835 L238 835 L238 763 L238 763 Z M445 0 L710 0 L710 12 L657 34 C572 244 486 454 402 665 L337 665 C326 639 315 613 305 587 C231 404 158 221 84 39 L20 14 L20 1 L251 1 L251 14 L182 39 L239 188 L462 188 L462 190 L522 39 L446 14 L445 0 L445 0 Z M432 267 L269 267 L349 476 L432 267 L432 267 Z " />
<glyph glyph-name="amacron" unicode="&#x101;" horiz-adv-x="497" d="M95 593 L361 593 L361 665 L95 665 L95 593 L95 593 Z M169 339 C169 370 183 393 201 393 C250 393 275 365 275 322 L275 259 C119 220 39 158 39 93 C39 31 81 -10 144 -10 C198 -10 250 10 285 49 C301 13 335 -9 380 -9 C428 -9 473 22 491 69 L486 77 C485 74 474 72 458 72 C417 72 389 80 389 91 C389 251 390 354 390 354 C390 418 338 461 237 461 C130 461 49 406 49 332 C49 307 61 291 79 292 L163 292 L168 297 L169 339 L169 339 Z M274 207 L274 101 C274 97 274 93 274 89 C257 81 234 77 209 77 C174 77 150 95 150 123 C150 155 192 186 274 209 L274 207 L274 207 Z " />
<glyph glyph-name="Abreve" unicode="&#x102;" horiz-adv-x="743" d="M231 868 L211 868 C251 757 296 714 371 714 C445 714 490 757 530 868 L510 868 C492 819 454 800 371 800 C288 800 249 819 231 868 L231 868 Z M445 0 L710 0 L710 12 L657 34 C572 244 486 454 402 665 L337 665 C326 639 315 613 305 587 C231 404 158 221 84 39 L20 14 L20 1 L251 1 L251 14 L182 39 L239 188 L462 188 L462 190 L522 39 L446 14 L445 0 L445 0 Z M432 267 L269 267 L349 476 L432 267 L432 267 Z " />
<glyph glyph-name="abreve" unicode="&#x103;" horiz-adv-x="497" d="M88 711 L68 711 C108 588 153 540 228 540 C303 540 348 588 388 711 L368 711 C350 657 311 636 228 636 C145 636 106 657 88 711 L88 711 Z M169 339 C169 370 183 393 201 393 C250 393 275 365 275 322 L275 259 C119 220 39 158 39 93 C39 31 81 -10 144 -10 C198 -10 250 10 285 49 C301 13 335 -9 380 -9 C428 -9 473 22 491 69 L486 77 C485 74 474 72 458 72 C417 72 389 80 389 91 C389 251 390 354 390 354 C390 418 338 461 237 461 C130 461 49 406 49 332 C49 307 61 291 79 292 L163 292 L168 297 L169 339 L169 339 Z M274 207 L274 101 C274 97 274 93 274 89 C257 81 234 77 209 77 C174 77 150 95 150 123 C150 155 192 186 274 209 L274 207 L274 207 Z " />
<glyph glyph-name="Cacute" unicode="&#x106;" horiz-adv-x="721" d="M369 705 L386 705 L530 785 C555 799 571 864 571 864 L456 864 L369 705 L369 705 Z M628 203 C614 181 595 153 581 131 C577 124 571 117 566 113 C521 82 458 61 404 61 C284 61 204 177 204 350 C204 498 288 597 415 597 C457 597 505 579 540 552 L540 552 C547 547 554 538 559 531 C576 506 597 471 614 446 L627 446 L620 625 C592 651 510 669 415 669 C208 669 70 524 70 306 C70 116 204 -11 404 -11 C503 -11 594 8 631 36 L641 202 L628 203 L628 203 Z " />
<glyph glyph-name="cacute" unicode="&#x107;" horiz-adv-x="477" d="M259 530 L276 530 L420 619 C445 634 461 707 461 707 L346 707 L259 530 L259 530 Z M429 139 C397 114 354 97 322 97 C227 97 164 164 164 265 C164 342 195 393 241 393 C267 393 296 376 313 351 L347 302 L354 302 L420 336 C427 343 432 361 432 381 C432 390 427 403 420 413 C400 441 345 460 281 460 C142 460 50 356 50 200 C50 74 134 -10 261 -10 C332 -10 401 44 433 126 L433 139 L429 139 L429 139 Z " />
<glyph glyph-name="Ccaron" unicode="&#x10c;" horiz-adv-x="721" d="M405 710 L548 867 L531 867 L390 795 L254 867 L237 867 L375 710 L405 710 L405 710 Z M628 203 C614 181 595 153 581 131 C577 124 571 117 566 113 C521 82 458 61 404 61 C284 61 204 177 204 350 C204 498 288 597 415 597 C457 597 505 579 540 552 L540 552 C547 547 554 538 559 531 C576 506 597 471 614 446 L627 446 L620 625 C592 651 510 669 415 669 C208 669 70 524 70 306 C70 116 204 -11 404 -11 C503 -11 594 8 631 36 L641 202 L628 203 L628 203 Z " />
<glyph glyph-name="ccaron" unicode="&#x10d;" horiz-adv-x="477" d="M275 535 L418 710 L401 710 L260 630 L124 710 L107 710 L245 535 L275 535 L275 535 Z M429 139 C397 114 354 97 322 97 C227 97 164 164 164 265 C164 342 195 393 241 393 C267 393 296 376 313 351 L347 302 L354 302 L420 336 C427 343 432 361 432 381 C432 390 427 403 420 413 C400 441 345 460 281 460 C142 460 50 356 50 200 C50 74 134 -10 261 -10 C332 -10 401 44 433 126 L433 139 L429 139 L429 139 Z " />
<glyph glyph-name="Dcaron" unicode="&#x10e;" horiz-adv-x="773" d="M443 710 L586 867 L568 867 L427 795 L292 867 L274 867 L413 710 L443 710 L443 710 Z M368 0 C569 0 703 131 703 363 C703 559 559 660 344 660 L65 660 L65 645 L132 618 L132 42 L65 15 L65 0 L368 0 L368 0 Z M261 79 L261 581 L307 581 C464 581 568 490 568 314 C568 164 487 79 366 79 L261 79 L261 79 Z " />
<glyph glyph-name="dcaron" unicode="&#x10f;" horiz-adv-x="571" d="M663 750 L555 750 L530 563 L547 563 L680 755 C676 753 677 750 663 750 L663 750 Z M295 703 L319 686 C338 673 350 664 350 664 L350 456 C330 459 309 460 287 460 C144 460 48 352 48 191 C48 70 113 -10 211 -10 C266 -10 320 13 353 50 L365 0 L525 0 L525 13 L466 38 L466 752 L443 752 L296 707 L295 703 L295 703 Z M351 338 L351 102 C337 93 316 88 293 88 C215 88 163 144 163 229 C163 327 205 392 269 392 C269 392 301 371 351 338 L351 338 Z " />
<glyph glyph-name="Emacron" unicode="&#x112;" horiz-adv-x="646" d="M194 763 L460 763 L460 835 L194 835 L194 763 L194 763 Z M576 184 L563 184 L519 79 L261 79 L261 300 L416 300 L449 233 L466 233 L466 447 L449 447 L416 380 L261 380 L261 581 L494 581 L538 484 L551 484 L551 660 L65 660 L65 645 L132 618 L132 42 L65 15 L65 0 L576 0 L576 184 L576 184 Z " />
<glyph glyph-name="emacron" unicode="&#x113;" horiz-adv-x="483" d="M124 593 L390 593 L390 665 L124 665 L124 593 L124 593 Z M167 307 C176 361 204 395 243 395 C282 395 311 362 323 307 L167 307 Z M381 240 L432 247 C432 375 363 460 260 460 C133 460 49 356 49 200 C49 74 133 -10 260 -10 C331 -10 400 44 432 126 L432 139 L428 139 C396 114 353 97 321 97 C234 97 174 153 164 240 L381 240 L381 240 Z " />
<glyph glyph-name="Edot" unicode="&#x116;" horiz-adv-x="646" d="M332 725 C380 725 412 757 412 805 C412 853 380 885 332 885 C284 885 252 853 252 805 C252 757 284 725 332 725 L332 725 Z M576 184 L563 184 L519 79 L261 79 L261 300 L416 300 L449 233 L466 233 L466 447 L449 447 L416 380 L261 380 L261 581 L494 581 L538 484 L551 484 L551 660 L65 660 L65 645 L132 618 L132 42 L65 15 L65 0 L576 0 L576 184 L576 184 Z " />
<glyph glyph-name="edot" unicode="&#x117;" horiz-adv-x="483" d="M262 583 C310 583 342 615 342 663 C342 711 310 743 262 743 C214 743 182 711 182 663 C182 615 214 583 262 583 L262 583 Z M167 307 C176 361 204 395 243 395 C282 395 311 362 323 307 L167 307 Z M381 240 L432 247 C432 375 363 460 260 460 C133 460 49 356 49 200 C49 74 133 -10 260 -10 C331 -10 400 44 432 126 L432 139 L428 139 C396 114 353 97 321 97 C234 97 174 153 164 240 L381 240 L381 240 Z " />
<glyph glyph-name="Ecaron" unicode="&#x11a;" horiz-adv-x="646" d="M342 710 L485 867 L467 867 L326 795 L191 867 L173 867 L312 710 L342 710 L342 710 Z M576 184 L563 184 L519 79 L261 79 L261 300 L416 300 L449 233 L466 233 L466 447 L449 447 L416 380 L261 380 L261 581 L494 581 L538 484 L551 484 L551 660 L65 660 L65 645 L132 618 L132 42 L65 15 L65 0 L576 0 L576 184 L576 184 Z " />
<glyph glyph-name="ecaron" unicode="&#x11b;" horiz-adv-x="483" d="M267 535 L410 710 L392 710 L252 630 L116 710 L98 710 L237 535 L267 535 L267 535 Z M167 307 C176 361 204 395 243 395 C282 395 311 362 323 307 L167 307 Z M381 240 L432 247 C432 375 363 460 260 460 C133 460 49 356 49 200 C49 74 133 -10 260 -10 C331 -10 400 44 432 126 L432 139 L428 139 C396 114 353 97 321 97 C234 97 174 153 164 240 L381 240 L381 240 Z " />
<glyph glyph-name="Gbreve" unicode="&#x11e;" horiz-adv-x="767" d="M260 868 L240 868 C280 757 325 714 400 714 C475 714 520 757 560 868 L540 868 C522 819 483 800 400 800 C317 800 278 819 260 868 L260 868 Z M647 447 L640 626 L606 585 L640 626 C609 652 523 670 425 670 C212 670 70 525 70 307 C70 117 204 -10 405 -10 C500 -10 602 36 659 104 L659 248 L722 275 L722 290 L459 290 L459 275 L530 248 L530 92 C506 82 476 76 445 76 C300 76 204 186 204 352 C204 500 292 599 425 599 C471 599 523 581 561 554 C561 554 578 536 580 534 C597 509 618 474 635 449 L647 447 L647 447 Z " />
<glyph glyph-name="gbreve" unicode="&#x11f;" horiz-adv-x="554" d="M127 711 L107 711 C147 588 192 540 267 540 C342 540 387 588 427 711 L407 711 C389 657 350 636 267 636 C184 636 145 657 127 711 L127 711 Z M504 450 C460 444 416 438 373 432 C343 450 305 460 261 460 C140 460 78 396 78 300 C78 241 104 194 148 166 C95 144 62 107 62 70 C62 27 90 -5 135 -18 C84 -38 52 -91 52 -124 C52 -193 127 -239 240 -239 C379 -239 472 -163 472 -48 C472 26 436 76 344 76 L218 76 C185 76 163 92 163 117 C163 133 171 146 183 149 L183 149 C206 141 232 137 260 137 C381 137 444 203 444 303 C444 331 438 356 426 378 L504 373 L504 450 L504 450 Z M197 305 C197 364 216 404 252 404 C297 404 327 362 327 299 C327 237 310 195 278 195 C229 195 197 239 197 305 L197 305 Z M183 -24 L287 -24 C345 -24 368 -46 368 -79 C368 -150 323 -198 256 -198 C196 -198 156 -162 156 -108 C156 -63 167 -24 183 -24 L183 -24 Z " />
<glyph glyph-name="Itilde" unicode="&#x128;" horiz-adv-x="404" d="M67 705 C77 735 86 755 111 755 C155 755 215 694 259 694 C307 694 329 748 356 830 L337 830 C327 799 317 778 293 778 C249 778 189 839 145 839 C97 839 74 785 48 705 L67 705 L67 705 Z M334 0 L334 15 L267 42 L267 618 L334 645 L334 660 L70 660 L70 645 L137 618 L137 42 L70 15 L70 0 L334 0 L334 0 Z " />
<glyph glyph-name="itilde" unicode="&#x129;" horiz-adv-x="331" d="M31 530 C41 560 50 580 75 580 C119 580 179 519 223 519 C271 519 293 573 320 655 L301 655 C291 624 281 603 257 603 C213 603 153 664 109 664 C61 664 38 610 12 530 L31 530 L31 530 Z M279 0 L279 13 L224 38 L224 460 L201 460 L54 400 L54 395 L68 385 C93 367 109 355 109 355 L109 38 L54 13 L54 0 L279 0 L279 0 Z " />
<glyph glyph-name="Imacron" unicode="&#x12a;" horiz-adv-x="404" d="M69 763 L335 763 L335 835 L69 835 L69 763 L69 763 Z M334 0 L334 15 L267 42 L267 618 L334 645 L334 660 L70 660 L70 645 L137 618 L137 42 L70 15 L70 0 L334 0 L334 0 Z " />
<glyph glyph-name="imacron" unicode="&#x12b;" horiz-adv-x="331" d="M28 593 L294 593 L294 665 L28 665 L28 593 L28 593 Z M279 0 L279 13 L224 38 L224 460 L201 460 L54 400 L54 395 L68 385 C93 367 109 355 109 355 L109 38 L54 13 L54 0 L279 0 L279 0 Z " />
<glyph glyph-name="Idot" unicode="&#x130;" horiz-adv-x="404" d="M202 725 C250 725 282 757 282 805 C282 853 250 885 202 885 C154 885 122 853 122 805 C122 757 154 725 202 725 L202 725 Z M334 0 L334 15 L267 42 L267 618 L334 645 L334 660 L70 660 L70 645 L137 618 L137 42 L70 15 L70 0 L334 0 L334 0 Z " />
<glyph glyph-name="dotlessi" unicode="&#x131;" horiz-adv-x="331" d="M279 0 L279 13 L224 38 L224 460 L201 460 L54 400 L54 395 L68 385 C93 367 109 355 109 355 L109 38 L54 13 L54 0 L279 0 L279 0 Z " />
<glyph glyph-name="Lacute" unicode="&#x139;" horiz-adv-x="630" d="M180 705 L197 705 L341 785 C366 799 382 864 382 864 L267 864 L262 854 L180 705 L180 705 Z M560 218 L546 218 L499 79 L261 79 L261 618 L332 645 L332 660 L65 660 L65 645 L132 618 L132 42 L65 15 L65 0 L560 0 L560 218 L560 218 Z " />
<glyph glyph-name="lacute" unicode="&#x13a;" horiz-adv-x="312" d="M139 765 L157 765 L308 845 C335 859 351 924 351 924 L231 924 C200 872 170 818 139 765 L139 765 Z M269 0 L269 13 L214 38 L214 760 L191 760 L44 700 L44 695 L58 685 C83 667 99 655 99 655 L99 38 L44 13 L44 0 L269 0 L269 0 Z " />
<glyph glyph-name="Lcaron" unicode="&#x13d;" horiz-adv-x="630" d="M508 660 L400 660 L375 473 L392 473 L525 665 C521 663 522 660 508 660 L508 660 Z M560 218 L546 218 L499 79 L261 79 L261 618 L332 645 L332 660 L65 660 L65 645 L132 618 L132 42 L65 15 L65 0 L560 0 L560 218 L560 218 Z " />
<glyph glyph-name="lcaron" unicode="&#x13e;" horiz-adv-x="312" d="M412 750 L304 750 L279 563 L296 563 L429 755 C425 753 426 750 412 750 L412 750 Z M269 0 L269 13 L214 38 L214 760 L191 760 L44 700 L44 695 L58 685 C83 667 99 655 99 655 L99 38 L44 13 L44 0 L269 0 L269 0 Z " />
<glyph glyph-name="Nacute" unicode="&#x143;" horiz-adv-x="786" d="M403 705 L420 705 L564 785 C589 799 605 864 605 864 L490 864 L403 705 L403 705 Z M66 645 L129 618 L129 42 L62 15 L62 0 L313 0 L313 15 L229 42 L229 453 C356 300 483 147 610 -6 L660 -6 L660 617 L723 644 L723 659 L476 659 L476 644 L560 617 L560 258 L230 659 L67 659 L66 645 L66 645 Z " />
<glyph glyph-name="nacute" unicode="&#x144;" horiz-adv-x="578" d="M293 530 L310 530 L454 619 C479 634 495 707 495 707 L380 707 L293 530 L293 530 Z M539 0 L539 13 L484 38 L484 343 C484 413 433 460 357 460 C309 460 263 430 218 384 L217 384 C215 415 213 460 213 460 L190 460 L49 400 L49 395 L63 385 C88 367 104 355 104 355 L104 38 L49 13 L49 0 L278 0 L278 13 L219 38 L219 341 C235 352 258 359 293 359 C338 359 368 326 368 277 L368 38 L309 13 L309 0 L539 0 L539 0 Z " />
<glyph glyph-name="Ncaron" unicode="&#x147;" horiz-adv-x="786" d="M419 710 L562 867 L545 867 L404 795 L268 867 L251 867 L389 710 L419 710 L419 710 Z M66 645 L129 618 L129 42 L62 15 L62 0 L313 0 L313 15 L229 42 L229 453 C356 300 483 147 610 -6 L660 -6 L660 617 L723 644 L723 659 L476 659 L476 644 L560 617 L560 258 L230 659 L67 659 L66 645 L66 645 Z " />
<glyph glyph-name="ncaron" unicode="&#x148;" horiz-adv-x="578" d="M310 535 L453 710 L435 710 L295 630 L159 710 L141 710 L280 535 L310 535 L310 535 Z M539 0 L539 13 L484 38 L484 343 C484 413 433 460 357 460 C309 460 263 430 218 384 L217 384 C215 415 213 460 213 460 L190 460 L49 400 L49 395 L63 385 C88 367 104 355 104 355 L104 38 L49 13 L49 0 L278 0 L278 13 L219 38 L219 341 C235 352 258 359 293 359 C338 359 368 326 368 277 L368 38 L309 13 L309 0 L539 0 L539 0 Z " />
<glyph glyph-name="Omacron" unicode="&#x14c;" horiz-adv-x="817" d="M261 763 L527 763 L527 835 L261 835 L261 763 L261 763 Z M208 375 C208 510 278 600 383 600 C519 600 610 471 610 277 C610 148 541 62 438 62 C300 62 208 187 208 375 L208 375 Z M70 324 C70 124 206 -10 409 -10 C612 -10 747 125 747 328 C747 533 612 670 409 670 C206 670 70 532 70 324 L70 324 Z " />
<glyph glyph-name="omacron" unicode="&#x14d;" horiz-adv-x="548" d="M141 593 L407 593 L407 665 L141 665 L141 593 L141 593 Z M182 225 C182 330 206 400 254 400 C321 400 366 330 366 225 C366 120 342 50 294 50 C227 50 182 120 182 225 L182 225 Z M50 225 C50 84 140 -10 274 -10 C422 -10 498 84 498 225 C498 366 408 460 274 460 C126 460 50 366 50 225 L50 225 Z " />
<glyph glyph-name="Racute" unicode="&#x154;" horiz-adv-x="690" d="M281 705 L298 705 L442 785 C467 799 483 864 483 864 L368 864 L281 705 L281 705 Z M680 13 L620 38 L429 295 C512 325 562 390 562 475 C562 586 474 660 341 660 L65 660 L65 645 L132 618 L132 42 L65 15 L65 0 L324 0 L324 15 L261 42 L261 277 L281 277 L487 0 L680 0 L680 13 L680 13 Z M261 356 L261 581 L309 581 C377 581 422 534 422 463 C422 398 391 355 345 355 L261 356 L261 356 Z " />
<glyph glyph-name="racute" unicode="&#x155;" horiz-adv-x="409" d="M251 530 L268 530 L412 619 C437 634 453 707 453 707 L338 707 L251 530 L251 530 Z M325 460 C297 460 261 425 220 372 L220 378 L219 378 C219 394 219 420 219 460 L191 460 L50 400 L50 395 L64 385 C89 367 105 355 105 355 L105 38 L50 13 L50 0 L279 0 L279 13 L220 38 L220 323 C233 338 244 347 254 347 C278 347 306 342 324 334 C336 328 362 313 362 313 L369 313 C393 362 409 400 409 409 C409 422 399 438 383 448 C371 456 343 459 325 459 L325 460 L325 460 Z " />
<glyph glyph-name="Rcaron" unicode="&#x158;" horiz-adv-x="690" d="M680 13 L620 38 L429 295 C512 325 562 390 562 475 C562 586 474 660 341 660 L65 660 L65 645 L132 618 L132 42 L65 15 L65 0 L324 0 L324 15 L261 42 L261 277 L281 277 L487 0 L680 0 L680 13 L680 13 Z M307 710 L450 867 L433 867 L292 795 L156 867 L139 867 L277 710 L307 710 L307 710 Z M261 356 L261 581 L309 581 C377 581 422 534 422 463 C422 398 391 355 345 355 L261 356 L261 356 Z " />
<glyph glyph-name="rcaron" unicode="&#x159;" horiz-adv-x="409" d="M267 535 L410 710 L393 710 L252 630 L116 710 L99 710 L237 535 L267 535 L267 535 Z M325 460 C297 460 261 425 220 372 L220 378 L219 378 C219 394 219 420 219 460 L191 460 L50 400 L50 395 L64 385 C89 367 105 355 105 355 L105 38 L50 13 L50 0 L279 0 L279 13 L220 38 L220 323 C233 338 244 347 254 347 C278 347 306 342 324 334 C336 328 362 313 362 313 L369 313 C393 362 409 400 409 409 C409 422 399 438 383 448 C371 456 343 459 325 459 L325 460 L325 460 Z " />
<glyph glyph-name="Sacute" unicode="&#x15a;" horiz-adv-x="546" d="M232 705 L249 705 L393 785 C418 799 434 864 434 864 L319 864 L232 705 L232 705 Z M466 472 L457 629 C435 654 368 670 289 670 C165 670 83 596 83 484 C83 402 134 343 234 292 C322 247 367 206 367 159 C367 98 333 58 282 58 C239 58 184 79 141 112 L141 112 C134 117 126 126 122 133 C108 156 89 188 75 211 L59 211 L67 33 C97 7 183 -10 281 -10 C406 -10 490 71 490 192 C490 280 434 343 325 399 C249 438 210 478 210 531 C210 573 236 601 275 601 C311 601 349 587 378 565 C388 557 403 540 415 522 L449 471 L466 472 L466 472 Z " />
<glyph glyph-name="sacute" unicode="&#x15b;" horiz-adv-x="443" d="M215 530 L232 530 L376 619 C401 634 417 707 417 707 L302 707 L215 530 L215 530 Z M358 310 L358 427 C324 447 266 460 214 460 C131 460 75 407 75 327 C75 244 110 202 179 183 C240 166 271 139 271 91 C271 61 246 41 209 41 C199 41 184 44 166 49 C133 59 101 84 86 113 C81 122 76 136 71 145 L59 145 L59 18 C95 1 158 -10 216 -10 C310 -10 372 45 372 128 C372 216 333 261 257 282 C204 297 176 323 176 370 C176 390 194 404 220 404 C220 404 246 402 246 400 C287 390 323 360 337 326 C339 321 342 315 344 310 L358 310 L358 310 Z " />
<glyph glyph-name="Scedilla" unicode="&#x15e;" horiz-adv-x="546" d="M466 472 L457 629 C435 654 368 670 289 670 C165 670 83 596 83 484 C83 402 134 343 234 292 C322 247 367 206 367 159 C367 98 333 58 282 58 C239 58 184 79 141 112 L141 112 C134 117 126 126 122 133 C108 156 89 188 75 211 L59 211 L67 33 C95 8 174 -9 265 -11 C258 -26 238 -69 211 -128 L253 -147 C276 -149 292 -160 292 -175 C292 -191 277 -201 255 -201 C227 -201 202 -193 191 -181 L191 -196 C215 -223 249 -241 275 -241 C337 -241 379 -205 379 -152 C379 -106 347 -70 295 -57 C307 -32 315 -15 318 -8 C423 6 491 82 491 191 C491 279 435 342 326 398 C250 437 211 477 211 530 C211 572 237 600 276 600 C312 600 350 586 379 564 C389 556 404 539 416 521 L450 470 L466 472 L466 472 Z " />
<glyph glyph-name="scedilla" unicode="&#x15f;" horiz-adv-x="443" d="M358 310 L358 427 C324 447 266 460 214 460 C131 460 75 407 75 327 C75 244 110 202 179 183 C240 166 271 139 271 91 C271 61 246 41 209 41 C199 41 184 44 166 49 C133 59 101 84 86 113 C81 122 76 136 71 145 L59 145 L59 18 C92 3 147 -8 200 -10 C193 -25 173 -68 146 -127 L188 -146 C211 -148 227 -159 227 -174 C227 -190 212 -200 190 -200 C162 -200 137 -192 126 -180 L126 -195 C150 -222 184 -240 210 -240 C272 -240 314 -204 314 -151 C314 -105 282 -69 230 -56 C242 -30 250 -13 253 -6 C326 7 372 58 372 130 C372 218 333 263 257 284 C204 299 176 325 176 372 C176 392 194 406 220 406 C220 406 246 404 246 402 C287 392 323 362 337 328 C339 323 342 317 344 312 L358 310 L358 310 Z " />
<glyph glyph-name="Scaron" unicode="&#x160;" horiz-adv-x="546" d="M264 710 L407 867 L389 867 L248 795 L113 867 L95 867 L234 710 L264 710 L264 710 Z M466 472 L457 629 C435 654 368 670 289 670 C165 670 83 596 83 484 C83 402 134 343 234 292 C322 247 367 206 367 159 C367 98 333 58 282 58 C239 58 184 79 141 112 L141 112 C134 117 126 126 122 133 C108 156 89 188 75 211 L59 211 L67 33 C97 7 183 -10 281 -10 C406 -10 490 71 490 192 C490 280 434 343 325 399 C249 438 210 478 210 531 C210 573 236 601 275 601 C311 601 349 587 378 565 C388 557 403 540 415 522 L449 471 L466 472 L466 472 Z " />
<glyph glyph-name="scaron" unicode="&#x161;" horiz-adv-x="443" d="M231 535 L374 710 L357 710 L216 630 L80 710 L63 710 L201 535 L231 535 L231 535 Z M358 310 L358 427 C324 447 266 460 214 460 C131 460 75 407 75 327 C75 244 110 202 179 183 C240 166 271 139 271 91 C271 61 246 41 209 41 C199 41 184 44 166 49 C133 59 101 84 86 113 C81 122 76 136 71 145 L59 145 L59 18 C95 1 158 -10 216 -10 C310 -10 372 45 372 128 C372 216 333 261 257 282 C204 297 176 323 176 370 C176 390 194 404 220 404 C220 404 246 402 246 400 C287 390 323 360 337 326 C339 321 342 315 344 310 L358 310 L358 310 Z " />
<glyph glyph-name="Tcaron" unicode="&#x164;" horiz-adv-x="684" d="M357 710 L500 867 L483 867 L342 795 L206 867 L189 867 L327 710 L357 710 L357 710 Z M491 0 L491 15 L407 42 L407 581 L578 581 L625 459 L639 459 L639 660 L45 660 L45 459 L59 459 L106 581 L277 581 L277 42 L193 15 L193 0 L491 0 L491 0 Z " />
<glyph glyph-name="tcaron" unicode="&#x165;" horiz-adv-x="393" d="M417 750 L309 750 L284 563 L301 563 L434 755 C430 753 431 750 417 750 L417 750 Z M363 82 L359 96 C357 92 330 90 292 90 C248 90 219 112 219 144 L219 382 L351 382 L351 450 L219 450 L219 573 L210 573 L104 450 L18 391 L18 382 L104 382 L104 120 C104 42 154 -10 230 -10 C284 -10 337 27 363 82 L363 82 Z " />
<glyph glyph-name="Utilde" unicode="&#x168;" horiz-adv-x="782" d="M251 705 C261 735 270 755 295 755 C339 755 399 694 443 694 C491 694 513 748 540 830 L521 830 C511 799 501 778 477 778 C433 778 373 839 329 839 C281 839 258 785 232 705 L251 705 L251 705 Z M122 618 L122 234 C122 88 228 -10 386 -10 C544 -10 650 88 650 234 L650 618 L717 645 L717 660 L466 660 L466 645 L550 618 L550 203 C550 125 500 73 425 73 C321 73 251 147 251 257 L251 618 L318 645 L318 660 L55 660 L55 645 L122 618 L122 618 Z " />
<glyph glyph-name="utilde" unicode="&#x169;" horiz-adv-x="540" d="M131 535 C141 565 150 585 174 585 C219 585 278 524 323 524 C370 524 392 578 419 660 L400 660 C390 629 380 608 357 608 C312 608 253 669 208 669 C161 669 138 615 112 535 L131 535 L131 535 Z M345 412 L345 107 C328 99 301 95 270 95 C225 95 195 127 195 176 L195 450 L25 450 L25 437 L80 412 L80 107 C80 37 130 -10 204 -10 C245 -10 296 13 344 57 L344 -1 L518 -1 L518 12 L459 37 L459 449 L285 449 L285 436 L345 412 L345 412 Z " />
<glyph glyph-name="Umacron" unicode="&#x16a;" horiz-adv-x="782" d="M263 763 L529 763 L529 835 L263 835 L263 763 L263 763 Z M122 618 L122 234 C122 88 228 -10 386 -10 C544 -10 650 88 650 234 L650 618 L717 645 L717 660 L466 660 L466 645 L550 618 L550 203 C550 125 500 73 425 73 C321 73 251 147 251 257 L251 618 L318 645 L318 660 L55 660 L55 645 L122 618 L122 618 Z " />
<glyph glyph-name="umacron" unicode="&#x16b;" horiz-adv-x="540" d="M133 593 L399 593 L399 665 L133 665 L133 593 L133 593 Z M345 412 L345 107 C328 99 301 95 270 95 C225 95 195 127 195 176 L195 450 L25 450 L25 437 L80 412 L80 107 C80 37 130 -10 204 -10 C245 -10 296 13 344 57 L344 -1 L518 -1 L518 12 L459 37 L459 449 L285 449 L285 436 L345 412 L345 412 Z " />
<glyph glyph-name="Uring" unicode="&#x16e;" horiz-adv-x="782" d="M371 809 C371 835 378 853 388 853 C402 853 411 828 411 790 C411 765 405 744 397 744 C383 744 371 774 371 809 L371 809 Z M300 799 C300 751 342 710 391 710 C440 710 482 752 482 802 C482 853 446 887 391 887 C336 887 300 852 300 799 L300 799 Z M122 618 L122 234 C122 88 228 -10 386 -10 C544 -10 650 88 650 234 L650 618 L717 645 L717 660 L466 660 L466 645 L550 618 L550 203 C550 125 500 73 425 73 C321 73 251 147 251 257 L251 618 L318 645 L318 660 L55 660 L55 645 L122 618 L122 618 Z " />
<glyph glyph-name="uring" unicode="&#x16f;" horiz-adv-x="540" d="M246 634 C246 660 252 678 262 678 C276 678 285 653 285 615 C285 590 279 569 271 569 C258 569 246 599 246 634 L246 634 Z M175 624 C175 576 217 535 266 535 C315 535 356 577 356 627 C356 678 320 712 266 712 C211 712 175 677 175 624 L175 624 Z M345 412 L345 107 C328 99 301 95 270 95 C225 95 195 127 195 176 L195 450 L25 450 L25 437 L80 412 L80 107 C80 37 130 -10 204 -10 C245 -10 296 13 344 57 L344 -1 L518 -1 L518 12 L459 37 L459 449 L285 449 L285 436 L345 412 L345 412 Z " />
<glyph glyph-name="Ydieresis" unicode="&#x178;" horiz-adv-x="716" d="M473 735 C516 735 544 764 544 807 C544 850 516 879 473 879 C430 879 401 850 401 807 C401 764 430 735 473 735 L473 735 Z M258 735 C301 735 329 764 329 807 C329 850 301 879 258 879 C215 879 186 850 186 807 C186 764 215 735 258 735 L258 735 Z M683 660 L463 660 L463 645 L533 618 L387 393 L220 618 L281 645 L281 660 L30 660 L30 647 L81 622 L302 311 L302 42 L226 15 L226 0 L507 0 L507 15 L431 42 L431 316 L637 630 L683 649 L683 660 L683 660 Z " />
<glyph glyph-name="Zacute" unicode="&#x179;" horiz-adv-x="646" d="M318 705 L335 705 L479 785 C504 799 520 864 520 864 L405 864 L318 705 L318 705 Z M95 476 L109 476 L156 581 L396 581 C292 399 189 217 84 36 L84 0 L557 0 L557 193 L543 193 L496 79 L239 79 C340 255 440 431 541 607 L541 660 L95 660 L95 476 L95 476 Z " />
<glyph glyph-name="zacute" unicode="&#x17a;" horiz-adv-x="489" d="M240 530 L257 530 L401 619 C426 634 442 707 442 707 L327 707 L240 530 L240 530 Z M80 300 C91 328 102 356 113 384 L259 384 C195 264 132 144 68 25 L68 -1 L415 -1 L415 152 L402 152 L377 64 L219 64 C282 182 344 300 408 417 L408 449 L79 449 L79 439 C76 401 73 334 70 299 L80 300 L80 300 Z " />
<glyph glyph-name="Zdot" unicode="&#x17b;" horiz-adv-x="646" d="M330 725 C378 725 410 757 410 805 C410 853 378 885 330 885 C282 885 250 853 250 805 C250 757 282 725 330 725 L330 725 Z M95 476 L109 476 L156 581 L396 581 C292 399 189 217 84 36 L84 0 L557 0 L557 193 L543 193 L496 79 L239 79 C340 255 440 431 541 607 L541 660 L95 660 L95 476 L95 476 Z " />
<glyph glyph-name="zdot" unicode="&#x17c;" horiz-adv-x="489" d="M247 583 C295 583 327 615 327 663 C327 711 295 743 247 743 C199 743 167 711 167 663 C167 615 199 583 247 583 L247 583 Z M80 300 C91 328 102 356 113 384 L259 384 C195 264 132 144 68 25 L68 -1 L415 -1 L415 152 L402 152 L377 64 L219 64 C282 182 344 300 408 417 L408 449 L79 449 L79 439 C76 401 73 334 70 299 L80 300 L80 300 Z " />
<glyph glyph-name="Zcaron" unicode="&#x17d;" horiz-adv-x="646" d="M350 710 L493 867 L475 867 L334 795 L199 867 L181 867 L320 710 L350 710 L350 710 Z M95 476 L109 476 L156 581 L396 581 C292 399 189 217 84 36 L84 0 L557 0 L557 193 L543 193 L496 79 L239 79 C340 255 440 431 541 607 L541 660 L95 660 L95 476 L95 476 Z " />
<glyph glyph-name="zcaron" unicode="&#x17e;" horiz-adv-x="489" d="M80 300 C91 328 102 356 113 384 L259 384 C195 264 132 144 68 25 L68 -1 L415 -1 L415 152 L402 152 L377 64 L219 64 C282 182 344 300 408 417 L408 449 L79 449 L79 439 C76 401 73 334 70 299 L80 300 L80 300 Z M260 534 L403 709 L385 709 L245 629 L109 709 L91 709 L230 534 L260 534 L260 534 Z " />
<glyph glyph-name="oogonek" unicode="&#x1eb;" horiz-adv-x="754" d="M772 -120 L772 -100 C760 -107 729 -112 695 -112 C651 -112 572 -18 508 13 C617 55 684 152 684 280 C684 457 561 575 377 575 C193 575 70 456 70 278 C70 100 201 -18 397 -9 C476 -60 563 -154 617 -154 C674 -154 737 -140 773 -119 L772 -120 L772 -120 Z M195 324 C195 437 259 513 355 513 C479 513 561 402 561 236 C561 128 498 56 404 56 C279 56 195 163 195 324 L195 324 Z " />
<glyph glyph-name="G_sc" unicode="&#x262;" horiz-adv-x="705" d="M586 359 L579 530 C550 557 473 575 387 575 C197 575 70 451 70 264 C70 100 190 -10 370 -10 C454 -10 545 32 597 94 L597 206 L660 233 L660 248 L410 248 L410 233 L481 206 L481 82 C459 72 432 66 405 66 C276 66 190 161 190 303 C190 427 269 510 387 510 C426 510 473 492 507 465 L507 465 C513 461 519 453 523 446 C538 420 558 386 573 360 L586 359 L586 359 Z " />
<glyph glyph-name="I_sc" unicode="&#x26a;" horiz-adv-x="391" d="M321 0 L321 15 L254 42 L254 523 L321 550 L321 565 L70 565 L70 550 L137 523 L137 42 L70 15 L70 0 L321 0 L321 0 Z " />
<glyph glyph-name="N_sc" unicode="&#x274;" horiz-adv-x="724" d="M66 550 L129 523 L129 42 L62 15 L62 0 L304 0 L304 15 L220 42 L220 381 C331 252 442 123 553 -6 L597 -6 L597 522 L660 549 L660 564 L422 564 L422 549 L506 522 L506 229 L220 564 L66 564 L66 550 L66 550 Z " />
<glyph glyph-name="R_sc" unicode="&#x280;" horiz-adv-x="619" d="M609 13 L550 38 L391 259 C456 286 495 339 495 407 C495 502 421 565 310 565 L65 565 L65 550 L132 523 L132 42 L65 15 L65 0 L311 0 L311 15 L248 42 L248 240 L262 240 L434 0 L609 0 L609 13 L609 13 Z M248 311 L248 494 L282 494 C334 494 369 455 369 396 C369 345 346 311 311 311 L248 311 L248 311 Z " />
<glyph glyph-name="Y_sc" unicode="&#x28f;" horiz-adv-x="654" d="M270 565 L29 565 L29 552 L82 527 L276 269 L276 41 L200 14 L200 -1 L469 -1 L469 14 L393 41 L393 273 L573 534 L620 553 L620 564 L410 564 L410 549 L478 522 L355 343 C307 402 258 462 211 521 L269 548 L270 565 L270 565 Z " />
<glyph glyph-name="B_sc" unicode="&#x299;" horiz-adv-x="590" d="M400 317 C453 344 483 384 483 432 C483 512 423 565 306 565 L65 565 L65 550 L132 523 L132 42 L65 15 L65 0 L306 0 C446 0 540 70 540 175 C540 243 493 294 400 317 L400 317 Z M248 331 L248 494 L277 494 C333 494 362 456 362 400 C362 361 317 334 248 331 L248 331 Z M248 71 L248 259 L312 259 C383 259 419 221 419 165 C419 109 374 71 306 71 L248 71 L248 71 Z " />
<glyph glyph-name="H_sc" unicode="&#x29c;" horiz-adv-x="731" d="M666 0 L666 15 L599 42 L599 523 L666 550 L666 565 L416 565 L416 550 L483 523 L483 327 L248 327 L248 523 L315 550 L315 565 L65 565 L65 550 L132 523 L132 42 L65 15 L65 0 L315 0 L315 15 L248 42 L248 255 L483 255 L483 42 L416 15 L416 0 L666 0 L666 0 Z " />
<glyph glyph-name="L_sc" unicode="&#x29f;" horiz-adv-x="566" d="M496 210 L482 210 L435 71 L248 71 L248 523 L319 550 L319 565 L65 565 L65 550 L132 523 L132 42 L65 15 L65 0 L496 0 L496 210 L496 210 Z " />
<glyph glyph-name="circumflex" unicode="&#x2c6;" horiz-adv-x="340" d="M328 530 L185 705 L155 705 L17 530 L34 530 L170 610 L311 530 L328 530 L328 530 Z " />
<glyph glyph-name="caron" unicode="&#x2c7;" horiz-adv-x="340" d="M185 535 L328 710 L311 710 L170 630 L34 710 L17 710 L155 535 L185 535 L185 535 Z " />
<glyph glyph-name="firsttonechinese" unicode="&#x2c9;" horiz-adv-x="340" d="M37 528 L303 528 L303 600 L37 600 L37 528 L37 528 Z " />
<glyph glyph-name="breve" unicode="&#x2d8;" horiz-adv-x="340" d="M30 731 L10 731 C50 608 95 560 170 560 C245 560 290 608 330 731 L310 731 C292 677 253 656 170 656 C87 656 48 677 30 731 L30 731 Z " />
<glyph glyph-name="dotaccent" unicode="&#x2d9;" horiz-adv-x="340" d="M170 610 C213 610 242 639 242 682 C242 725 213 754 170 754 C127 754 98 725 98 682 C98 639 127 610 170 610 L170 610 Z " />
<glyph glyph-name="ring" unicode="&#x2da;" horiz-adv-x="340" d="M150 629 C150 655 157 673 167 673 C181 673 190 648 190 610 C190 585 184 564 176 564 C162 564 150 594 150 629 L150 629 Z M79 619 C79 571 121 530 170 530 C219 530 261 572 261 622 C261 673 225 707 170 707 C115 707 79 672 79 619 L79 619 Z " />
<glyph glyph-name="A_sc" unicode="&#x1d00;" horiz-adv-x="679" d="M19 0 L240 0 L240 13 L171 38 L218 156 L420 156 L420 158 L470 38 L395 13 L395 0 L646 0 L646 12 L593 34 C517 213 441 392 364 570 L308 570 C298 546 287 522 278 498 L85 37 L20 12 L19 0 L19 0 Z M392 226 L248 226 L318 402 L392 226 L392 226 Z " />
<glyph glyph-name="C_sc" unicode="&#x1d04;" horiz-adv-x="659" d="M566 196 C553 174 536 145 523 123 C520 116 515 110 510 106 C469 75 413 54 368 54 C262 54 191 153 191 302 C191 426 266 509 378 509 C413 509 456 491 488 464 C493 459 500 452 504 444 C519 418 539 384 554 358 L567 358 L560 529 C533 556 460 574 378 574 C194 574 71 450 71 263 C71 99 190 -11 368 -11 C454 -11 535 8 570 37 L579 195 L566 196 L566 196 Z " />
<glyph glyph-name="D_sc" unicode="&#x1d05;" horiz-adv-x="709" d="M343 0 C521 0 639 112 639 310 C639 478 512 565 321 565 L65 565 L65 550 L132 523 L132 42 L65 15 L65 0 L343 0 L343 0 Z M248 71 L248 493 C263 493 277 493 287 493 C426 493 518 416 518 266 C518 141 447 71 340 71 L248 71 L248 71 Z " />
<glyph glyph-name="E_sc" unicode="&#x1d07;" horiz-adv-x="583" d="M513 176 L500 176 L456 71 L248 71 L248 255 L353 255 L386 188 L403 188 L403 394 L386 394 L353 327 L248 327 L248 494 L431 494 L475 397 L488 397 L488 565 L65 565 L65 550 L132 523 L132 42 L65 15 L65 0 L513 0 L513 176 L513 176 Z " />
<glyph glyph-name="J_sc" unicode="&#x1d0a;" horiz-adv-x="391" d="M137 523 L137 50 C137 -27 121 -79 96 -79 C96 -79 55 -74 28 -67 L22 -67 C22 -67 9 -136 9 -140 C9 -160 26 -173 52 -173 C173 -173 253 -10 253 234 L254 523 L321 550 L321 565 L70 565 L70 550 L137 523 L137 523 Z " />
<glyph glyph-name="K_sc" unicode="&#x1d0b;" horiz-adv-x="704" d="M677 11 L626 30 L358 323 L573 535 L626 554 L626 565 L383 565 L383 552 L452 527 L250 289 L500 0 L677 0 L677 11 L677 11 Z M316 0 L316 15 L249 42 L249 523 L316 550 L316 565 L66 565 L66 550 L133 523 L133 42 L66 15 L66 0 L316 0 L316 0 Z " />
<glyph glyph-name="M_sc" unicode="&#x1d0d;" horiz-adv-x="884" d="M276 15 L206 42 L215 411 L397 -5 L455 -5 L438 36 L455 -5 L639 406 C644 285 650 163 655 42 L590 15 L590 0 L824 0 L824 15 L764 42 C757 202 750 363 743 523 L816 550 L816 565 L632 565 L453 152 L271 565 L72 565 L72 550 L146 523 L128 42 L59 15 L59 0 L275 0 L276 15 L276 15 Z " />
<glyph glyph-name="O_sc" unicode="&#x1d0f;" horiz-adv-x="754" d="M194 323 C194 436 258 512 354 512 C478 512 560 401 560 235 C560 127 497 55 403 55 C278 55 194 162 194 323 L194 323 Z M70 278 C70 105 193 -10 377 -10 C561 -10 684 106 684 280 C684 457 561 575 377 575 C193 575 70 456 70 278 L70 278 Z " />
<glyph glyph-name="P_sc" unicode="&#x1d18;" horiz-adv-x="565" d="M328 0 L328 15 L248 42 L248 240 L285 240 C411 240 495 307 495 407 C495 502 421 565 310 565 L65 565 L65 550 L132 523 L132 42 L65 15 L65 0 L328 0 L328 0 Z M248 311 L248 494 L282 494 C334 494 369 455 369 396 C369 345 346 311 311 311 L248 311 L248 311 Z " />
<glyph glyph-name="T_sc" unicode="&#x1d1b;" horiz-adv-x="621" d="M453 0 L453 15 L369 42 L369 494 L515 494 L562 372 L576 372 L576 565 L45 565 L45 372 L59 372 L106 494 L252 494 L252 42 L168 15 L168 0 L453 0 L453 0 Z " />
<glyph glyph-name="U_sc" unicode="&#x1d1c;" horiz-adv-x="723" d="M416 550 C444 541 472 532 500 523 L501 172 C501 108 458 65 393 65 C302 65 241 127 241 221 L242 523 L309 550 L309 565 L58 565 L58 550 L125 523 L125 200 C125 74 218 -10 358 -10 C498 -10 591 74 591 200 L591 523 L658 550 L658 565 L416 565 L416 550 L416 550 Z " />
<glyph glyph-name="V_sc" unicode="&#x1d20;" horiz-adv-x="666" d="M285 565 L32 565 L32 552 L88 527 C157 350 226 173 294 -5 L350 -5 C429 175 508 355 587 535 L633 554 L633 565 L430 565 L430 550 L496 523 L342 158 L208 523 L285 550 L285 565 L285 565 Z " />
<glyph glyph-name="W_sc" unicode="&#x1d21;" horiz-adv-x="906" d="M272 565 L18 565 L18 552 L71 527 C123 350 174 172 228 -4 L276 -4 C333 125 391 254 449 383 C498 254 547 125 597 -4 L643 -4 L649 14 L833 536 L886 555 L886 566 L672 566 L672 551 L742 524 L633 192 C586 318 539 444 492 570 L441 570 C389 442 335 315 282 188 L191 523 L272 550 L272 565 L272 565 Z " />
<glyph glyph-name="Z_sc" unicode="&#x1d22;" horiz-adv-x="586" d="M98 389 L112 389 L159 494 L349 494 C261 340 173 186 86 32 L86 0 L496 0 L496 185 L482 185 L435 71 L225 71 C310 221 395 371 481 520 L481 565 L98 565 L98 389 L98 389 Z " />
<glyph glyph-name="Etilde" unicode="&#x1ebc;" horiz-adv-x="646" d="M207 705 C217 735 226 755 250 755 C295 755 354 694 399 694 C446 694 468 748 495 830 L476 830 C466 799 456 778 433 778 C388 778 329 839 284 839 C237 839 214 785 188 705 L207 705 L207 705 Z M576 184 L563 184 L519 79 L261 79 L261 300 L416 300 L449 233 L466 233 L466 447 L449 447 L416 380 L261 380 L261 581 L494 581 L538 484 L551 484 L551 660 L65 660 L65 645 L132 618 L132 42 L65 15 L65 0 L576 0 L576 184 L576 184 Z " />
<glyph glyph-name="endash" unicode="&#x2013;" horiz-adv-x="500" d="M50 231 L450 231 L450 303 L50 303 L50 231 L50 231 Z " />
<glyph glyph-name="emdash" unicode="&#x2014;" horiz-adv-x="1000" d="M50 231 L950 231 L950 303 L50 303 L50 231 L50 231 Z " />
<glyph glyph-name="quoteleft" unicode="&#x2018;" horiz-adv-x="263" d="M174 607 C143 618 122 646 122 677 C122 702 158 720 211 721 L211 750 C113 748 47 696 47 621 C47 561 81 508 131 490 C165 479 183 475 197 509 L220 568 L220 583 L174 607 L174 607 Z " />
<glyph glyph-name="quoteright" unicode="&#x2019;" horiz-adv-x="263" d="M84 633 C115 622 136 594 136 563 C136 538 100 520 47 519 L47 490 C145 492 211 544 211 619 C211 679 177 732 127 750 C93 761 75 765 61 731 L38 672 L38 657 L84 633 L84 633 Z " />
<glyph glyph-name="quotedblleft" unicode="&#x201c;" horiz-adv-x="472" d="M174 607 C143 618 122 646 122 677 C122 702 158 721 211 721 L211 750 C113 750 47 696 47 621 C47 561 81 508 131 490 C165 479 183 475 197 509 L220 568 L220 583 L174 607 L174 607 Z M383 607 C352 618 331 646 331 677 C331 702 367 721 420 721 L420 750 C322 750 256 696 256 621 C256 561 290 508 340 490 C374 479 392 475 406 509 L429 568 L429 583 L383 607 L383 607 Z " />
<glyph glyph-name="quotedblright" unicode="&#x201d;" horiz-adv-x="472" d="M293 633 C324 622 345 594 345 563 C345 538 309 520 256 519 L256 490 C354 492 420 544 420 619 C420 679 386 732 336 750 C302 761 284 765 270 731 L247 672 L247 657 L293 633 L293 633 Z M84 633 C115 622 136 594 136 563 C136 538 100 520 47 519 L47 490 C145 492 211 544 211 619 C211 679 177 732 127 750 C93 761 75 765 61 731 L38 672 L38 657 L84 633 L84 633 Z " />
<glyph glyph-name="bullet" unicode="&#x2022;" horiz-adv-x="580" d="M290 128 C386 128 450 192 450 288 C450 384 386 448 290 448 C194 448 130 384 130 288 C130 192 194 128 290 128 L290 128 Z " />
<glyph glyph-name="ellipsis" unicode="&#x2026;" horiz-adv-x="730" d="M585 -10 C633 -10 665 22 665 70 C665 118 633 150 585 150 C537 150 505 118 505 70 C505 22 537 -10 585 -10 L585 -10 Z M365 -10 C413 -10 445 22 445 70 C445 118 413 150 365 150 C317 150 285 118 285 70 C285 22 317 -10 365 -10 L365 -10 Z M145 -10 C193 -10 225 22 225 70 C225 118 193 150 145 150 C97 150 65 118 65 70 C65 22 97 -10 145 -10 L145 -10 Z " />
<glyph glyph-name="perthousand" unicode="&#x2030;" horiz-adv-x="1152" d="M942 213 C942 302 953 361 970 361 C1007 361 1032 284 1032 168 C1032 83 1018 27 996 27 C964 27 942 101 942 213 L942 213 Z M830 192 C830 71 892 -10 986 -10 C1078 -10 1140 77 1140 207 C1140 320 1078 395 986 395 C892 395 830 314 830 192 L830 192 Z M143 574 C143 665 154 726 171 726 C208 726 233 647 233 528 C233 446 219 392 197 392 C165 392 143 465 143 574 L143 574 Z M31 552 C31 434 93 355 187 355 C279 355 341 440 341 567 C341 683 279 760 187 760 C93 760 31 677 31 552 L31 552 Z M574 213 C574 302 588 361 610 361 C656 361 686 283 686 167 C686 83 666 27 636 27 C599 27 574 101 574 213 L574 213 Z M461 191 C461 70 527 -10 626 -10 C727 -10 794 76 794 206 C794 319 727 395 626 395 C527 395 461 313 461 191 L461 191 Z M212 -16 L677 734 L626 766 L161 16 L212 -16 L212 -16 Z " />
<glyph glyph-name="guilsinglleft" unicode="&#x2039;" horiz-adv-x="249" d="M213 425 L13 248 L213 70 L229 70 L157 248 L229 425 L213 425 L213 425 Z " />
<glyph glyph-name="guilsinglright" unicode="&#x203a;" horiz-adv-x="261" d="M20 425 L97 248 L20 70 L36 70 L241 248 L36 425 L20 425 L20 425 Z " />
<glyph glyph-name="fraction" unicode="&#x2044;" horiz-adv-x="481" d="M56 -16 L521 734 L469 766 L4 16 L56 -16 L56 -16 Z " />
<glyph glyph-name="Euro" unicode="&#x20ac;" horiz-adv-x="521" d="M498 108 C486 92 443 82 392 82 C308 82 259 136 237 225 L375 225 L375 288 L226 288 C223 316 222 347 222 379 L375 379 L375 442 L226 442 C237 545 270 610 316 610 C335 610 360 592 378 565 C387 552 409 520 409 520 L416 520 C439 520 492 553 492 553 C497 555 501 565 501 578 C501 586 496 598 489 609 C465 645 409 669 349 669 C225 669 133 582 99 442 L11 442 L11 379 L88 379 C85 350 84 318 85 287 L10 287 L10 224 L90 224 C109 80 180 -11 324 -11 C391 -11 462 22 500 71 L500 107 L498 108 L498 108 Z " />
<glyph glyph-name="F_sc" unicode="&#xa730;" horiz-adv-x="548" d="M353 255 L386 188 L403 188 L403 394 L386 394 L353 327 L248 327 L248 494 L421 494 L465 397 L478 397 L478 565 L65 565 L65 550 L132 523 L132 42 L65 15 L65 0 L328 0 L328 15 L248 42 L248 255 L353 255 L353 255 Z " />
<glyph glyph-name="S_sc" unicode="&#xa731;" horiz-adv-x="480" d="M399 384 L390 533 C371 558 316 575 252 575 C151 575 83 511 83 414 C83 346 125 295 207 248 C277 208 313 173 313 136 C313 85 288 51 250 51 C216 51 171 72 135 104 L135 104 C128 110 121 118 118 125 C106 149 89 180 77 204 L60 204 L68 34 C95 8 168 -10 250 -10 C355 -10 425 60 425 166 C425 238 379 293 290 344 C230 378 199 413 199 456 C199 490 216 513 241 513 C268 513 299 499 322 477 C343 455 365 414 382 385 L399 384 L399 384 Z " />
<glyph glyph-name="X_sc" unicode="&#xf078;" horiz-adv-x="678" d="M378 0 L643 0 L643 12 L593 34 L392 303 C453 379 513 455 574 531 L625 553 L625 565 L429 565 L429 550 L496 523 L357 351 L229 523 L299 550 L299 565 L38 565 L38 552 L89 527 L272 274 C209 195 147 116 84 37 L27 12 L27 -1 L239 -1 L239 14 L163 41 L307 225 L440 41 L378 14 L378 0 L378 0 Z " />
</font>
</svg>
