<?xml version="1.0" encoding="UTF-8"?>
<svg xmlns="http://www.w3.org/2000/svg" xmlns:xlink="http://www.w3.org/1999/xlink" version="1.2" >
<font id="Aara Bold Italic">
<font-face  font-family="Aara" units-per-em="1024" ascent="936" descent="-280" font-style="italic" font-weight="700" font-stretch="normal" cap-height="660" x-height="500" underline-position="0" underline-thickness="0" />
<missing-glyph  horiz-adv-x="472" d="M0 700 C0 700 432 700 432 700 C432 700 432 0 432 0 C432 0 0 0 0 0 C0 0 0 700 0 700 L0 700 Z M50 50 C50 50 382 50 382 50 C382 50 382 650 382 650 C382 650 50 650 50 650 C50 650 50 50 50 50 L50 50 Z " />
<glyph glyph-name="NULL" d="" />
<glyph glyph-name="CR" unicode="&#xd;" horiz-adv-x="256" d="" />
<glyph glyph-name="space" unicode="&#x20;" horiz-adv-x="250" d="" />
<glyph glyph-name="exclam" unicode="&#x21;" horiz-adv-x="265" d="M142 -5 C176 -5 230 41 236 75 C242 109 205 155 170 155 C136 155 82 109 76 75 C70 41 108 -5 142 -5 L142 -5 Z M309 583 C320 618 288 665 253 665 C216 665 167 618 168 583 C168 583 176 230 176 230 C176 230 191 230 191 230 C191 230 309 583 309 583 L309 583 Z " />
<glyph glyph-name="quotedbl" unicode="&#x22;" horiz-adv-x="403" d="M333 660 C333 660 351 400 351 400 C351 400 370 400 370 400 C370 400 480 660 480 660 C480 660 333 660 333 660 L333 660 Z M156 660 C156 660 174 400 174 400 C174 400 193 400 193 400 C193 400 303 660 303 660 C303 660 156 660 156 660 L156 660 Z " />
<glyph glyph-name="numbersign" unicode="&#x23;" horiz-adv-x="553" d="M506 656 C506 656 456 504 456 504 C456 504 325 504 325 504 C325 504 375 656 375 656 C375 656 331 656 331 656 C331 656 281 504 281 504 C281 504 160 504 160 504 C160 504 132 416 132 416 C132 416 252 416 252 416 C252 416 195 244 195 244 C195 244 71 244 71 244 C71 244 43 156 43 156 C43 156 166 156 166 156 C166 156 115 0 115 0 C115 0 159 0 159 0 C159 0 210 156 210 156 C210 156 341 156 341 156 C341 156 290 0 290 0 C290 0 334 0 334 0 C334 0 386 156 386 156 C386 156 501 156 501 156 C501 156 529 244 529 244 C529 244 415 244 415 244 C415 244 472 416 472 416 C472 416 595 416 595 416 C595 416 623 504 623 504 C623 504 501 504 501 504 C501 504 551 656 551 656 C551 656 506 656 506 656 L506 656 Z M296 416 C296 416 427 416 427 416 C427 416 370 244 370 244 C370 244 239 244 239 244 C239 244 296 416 296 416 L296 416 Z " />
<glyph glyph-name="dollar" unicode="&#x24;" horiz-adv-x="514" d="M405 735 C405 735 392 664 392 664 C387 665 381 665 377 665 C368 665 360 664 350 662 C350 662 363 735 363 735 C363 735 325 735 325 735 C325 735 310 650 310 650 C225 616 132 529 120 460 C110 408 181 309 245 282 C245 282 202 39 202 39 C157 64 103 125 95 168 C94 176 90 196 88 204 C88 204 75 204 75 204 C75 204 47 40 47 40 C47 40 61 60 61 60 C61 60 61 60 62 60 C62 60 47 40 47 40 C70 26 139 7 195 -1 C195 -1 182 -75 182 -75 C182 -75 221 -75 221 -75 C221 -75 233 -5 233 -5 C237 -5 241 -5 244 -5 C254 -5 264 -4 275 -2 C275 -2 262 -75 262 -75 C262 -75 301 -75 301 -75 C301 -75 316 11 316 11 C401 44 491 125 502 189 C512 244 444 343 380 375 C380 375 422 614 422 614 C447 596 473 562 477 540 C480 522 489 474 492 456 C492 456 505 456 505 456 C505 456 534 620 534 620 C534 620 520 600 520 600 C520 600 520 600 519 600 C519 600 534 620 534 620 C514 633 469 648 429 657 C429 657 443 735 443 735 C443 735 405 735 405 735 L405 735 Z M306 411 C306 411 345 631 345 631 C352 633 359 634 366 634 C371 634 378 633 387 631 C387 631 344 390 344 390 C331 396 319 403 306 411 C306 411 306 411 306 411 L306 411 Z M272 436 C238 464 214 494 217 511 C224 546 262 588 303 613 C303 613 272 436 272 436 L272 436 Z M281 267 C294 260 306 253 318 244 C318 244 281 32 281 32 C270 29 260 27 250 27 C247 27 243 27 239 28 C239 28 281 267 281 267 L281 267 Z M352 216 C384 187 406 156 402 137 C397 108 362 73 323 51 C323 51 352 216 352 216 L352 216 Z " />
<glyph glyph-name="ampersand" unicode="&#x26;" horiz-adv-x="729" d="M389 388 C467 423 553 499 562 549 C571 598 493 665 427 665 C361 665 255 569 243 497 C239 472 254 417 279 357 C189 309 87 211 77 155 C65 86 166 -5 253 -5 C318 -5 400 30 468 79 C558 14 665 -11 730 0 C730 0 733 19 733 19 C700 13 625 56 545 146 C574 177 594 210 599 240 C599 240 604 270 604 270 C614 327 669 365 706 365 C706 365 721 365 721 365 C721 365 721 369 722 373 C722 376 723 380 723 380 C723 380 508 380 508 380 C508 380 507 376 507 373 C507 373 505 365 505 365 C505 365 520 365 520 365 C552 365 589 327 578 270 C578 270 573 240 573 240 C569 215 553 188 531 162 C508 188 485 218 463 252 C438 289 412 339 389 388 L389 388 Z M378 413 C353 472 336 525 340 548 C347 588 390 640 416 640 C447 640 479 584 472 542 C464 502 421 446 378 413 C378 413 378 413 378 413 L378 413 Z M451 92 C409 65 363 46 326 46 C258 46 182 133 194 199 C200 238 245 297 289 332 C312 278 341 223 367 183 C391 148 420 117 451 92 C451 92 451 92 451 92 L451 92 Z " />
<glyph glyph-name="quotesingle" unicode="&#x27;" horiz-adv-x="226" d="M39 660 C39 660 103 400 103 400 C103 400 122 400 122 400 C122 400 186 660 186 660 C186 660 39 660 39 660 L39 660 Z " />
<glyph glyph-name="parenleft" unicode="&#x28;" horiz-adv-x="278" d="M379 690 C283 628 134 423 107 270 C80 117 157 -88 231 -150 C231 -150 245 -135 245 -135 C200 -97 165 94 196 270 C228 446 330 637 387 675 C387 675 379 690 379 690 L379 690 Z " />
<glyph glyph-name="parenright" unicode="&#x29;" horiz-adv-x="278" d="M-16 -150 C79 -88 229 117 255 270 C283 423 206 628 132 690 C132 690 118 675 118 675 C162 637 197 446 166 270 C135 94 33 -97 -25 -135 C-25 -135 -16 -150 -16 -150 L-16 -150 Z " />
<glyph glyph-name="asterisk" unicode="&#x2a;" horiz-adv-x="300" d="M137 540 C137 540 29 510 29 510 C14 506 6 479 16 462 C25 446 53 439 64 450 C64 450 144 529 144 529 C144 529 115 420 115 420 C111 405 131 385 150 385 C169 385 189 405 185 420 C185 420 156 529 156 529 C156 529 236 450 236 450 C247 439 275 446 284 462 C294 479 286 506 271 510 C271 510 163 540 163 540 C163 540 271 570 271 570 C286 574 294 601 284 617 C275 634 247 641 236 630 C236 630 156 551 156 551 C156 551 185 660 185 660 C189 675 169 695 150 695 C131 695 111 675 115 660 C115 660 144 551 144 551 C144 551 64 630 64 630 C53 641 25 634 16 617 C6 601 14 574 29 570 C29 570 137 540 137 540 L137 540 Z " />
<glyph glyph-name="plus" unicode="&#x2b;" horiz-adv-x="555" d="M326 450 C326 450 296 276 296 276 C296 276 124 276 124 276 C124 276 115 224 115 224 C115 224 286 224 286 224 C286 224 256 50 256 50 C256 50 312 50 312 50 C312 50 342 224 342 224 C342 224 515 224 515 224 C515 224 524 276 524 276 C524 276 352 276 352 276 C352 276 382 450 382 450 C382 450 326 450 326 450 L326 450 Z " />
<glyph glyph-name="comma" unicode="&#x2c;" horiz-adv-x="282" d="M139 -5 C147 -5 156 -3 165 2 C166 -5 166 -11 165 -15 C156 -62 94 -143 55 -157 C55 -157 59 -174 59 -174 C124 -151 228 -28 240 40 C242 52 238 74 231 94 C229 103 225 112 220 120 C218 123 216 126 214 128 C214 128 214 128 214 128 C201 143 184 154 167 154 C133 154 79 108 73 74 C67 40 105 -5 139 -5 C139 -5 139 -5 139 -5 L139 -5 Z " />
<glyph glyph-name="hyphen" unicode="&#x2d;" horiz-adv-x="280" d="M54 190 C54 190 294 190 294 190 C294 190 309 280 309 280 C309 280 69 280 69 280 C69 280 54 190 54 190 L54 190 Z " />
<glyph glyph-name="period" unicode="&#x2e;" horiz-adv-x="265" d="M124 -5 C158 -5 212 41 218 75 C224 109 187 155 152 155 C118 155 64 109 58 75 C52 41 90 -5 124 -5 L124 -5 Z " />
<glyph glyph-name="slash" unicode="&#x2f;" horiz-adv-x="361" d="M-26 -145 C-26 -145 26 -145 26 -145 C26 -145 486 710 486 710 C486 710 435 710 435 710 C435 710 -26 -145 -26 -145 L-26 -145 Z " />
<glyph glyph-name="zero" unicode="0" horiz-adv-x="616" d="M312 21 C256 21 205 152 222 250 C239 348 337 479 393 479 C449 479 500 348 483 250 C466 152 368 21 312 21 L312 21 Z M94 250 C75 141 197 -5 308 -5 C418 -5 592 141 611 250 C630 359 508 505 398 505 C287 505 113 359 94 250 L94 250 Z " />
<glyph glyph-name="one" unicode="1" horiz-adv-x="375" d="M188 0 C188 0 245 0 245 0 C245 0 320 0 320 0 C320 0 321 4 321 8 C322 11 323 15 323 15 C323 15 311 15 311 15 C285 15 256 50 259 78 C259 78 319 420 319 420 C319 420 319 420 319 420 C324 448 367 485 394 485 C394 485 406 485 406 485 C406 485 406 489 407 493 C407 496 408 500 408 500 C408 500 333 500 333 500 C333 500 276 500 276 500 C276 500 218 500 218 500 C218 500 143 500 143 500 C143 500 142 496 142 493 C141 489 141 485 141 485 C141 485 152 485 152 485 C178 485 207 450 204 422 C204 422 144 80 144 80 C144 80 144 80 144 80 C139 52 96 15 69 15 C69 15 58 15 58 15 C58 15 57 11 56 8 C56 4 55 0 55 0 C55 0 130 0 130 0 C130 0 188 0 188 0 L188 0 Z " />
<glyph glyph-name="two" unicode="2" horiz-adv-x="487" d="M462 64 C471 96 488 164 495 190 C495 190 480 190 480 190 C480 190 477 179 477 179 C470 151 423 115 395 115 C395 115 217 115 217 115 C363 206 495 300 505 355 C516 419 435 505 363 505 C301 505 169 422 133 359 C133 359 145 350 145 350 C163 380 246 420 291 420 C333 420 377 360 369 316 C353 219 167 106 30 26 C30 26 25 0 25 0 C25 0 445 0 445 0 C445 0 462 64 462 64 L462 64 Z " />
<glyph glyph-name="three" unicode="3" horiz-adv-x="470" d="M-14 -215 C157 -206 410 -59 428 41 C439 103 359 181 275 204 C367 258 450 327 456 367 C467 426 393 505 328 505 C268 505 123 427 74 369 C74 369 86 359 86 359 C108 386 205 421 254 421 C295 421 341 369 334 330 C326 282 225 194 148 163 C142 160 136 158 130 156 C130 156 127 137 127 137 C129 138 131 138 134 139 C151 144 182 149 193 149 C250 149 315 84 306 35 C290 -57 108 -190 -12 -196 C-12 -196 -14 -215 -14 -215 L-14 -215 Z " />
<glyph glyph-name="four" unicode="4" horiz-adv-x="490" d="M78 51 C78 51 310 310 310 310 C310 310 264 51 264 51 C264 51 78 51 78 51 L78 51 Z M255 0 C255 0 229 -150 229 -150 C229 -150 344 -150 344 -150 C353 -100 362 -50 370 0 C370 0 480 0 480 0 C480 0 490 51 490 51 C490 51 379 51 379 51 C406 203 433 354 460 505 C460 505 440 505 440 505 C440 505 7 20 7 20 C7 20 4 0 4 0 C4 0 29 0 29 0 C29 0 32 0 32 0 C32 0 255 0 255 0 L255 0 Z " />
<glyph glyph-name="five" unicode="5" horiz-adv-x="456" d="M94 173 C94 173 123 173 123 173 C123 173 138 173 138 173 C216 173 309 101 300 48 C285 -37 114 -156 2 -160 C2 -160 -1 -182 -1 -182 C161 -176 403 -24 422 85 C437 171 319 286 216 286 C216 286 152 286 152 286 C152 286 123 173 123 173 C123 173 206 500 206 500 C206 500 176 379 176 379 C176 379 421 379 421 379 C421 379 451 439 451 439 C451 439 452 439 452 439 C466 468 505 546 520 575 C520 575 505 575 505 575 C505 575 499 564 499 564 C486 536 430 500 402 500 C402 500 206 500 206 500 C206 500 172 500 172 500 C172 500 94 173 94 173 L94 173 Z " />
<glyph glyph-name="six" unicode="6" horiz-adv-x="568" d="M615 715 C427 709 135 467 104 293 C82 166 180 -5 276 -5 C384 -5 545 122 557 217 C573 309 480 432 394 432 C340 432 281 375 240 306 C242 316 244 325 245 332 C271 483 481 691 612 696 C612 696 615 715 615 715 L615 715 Z M216 183 C234 276 308 400 369 400 C412 400 449 291 435 210 C425 132 345 27 295 27 C249 27 205 116 216 183 L216 183 Z " />
<glyph glyph-name="seven" unicode="7" horiz-adv-x="443" d="M87 382 C79 353 71 323 67 307 C67 307 82 307 82 307 C82 307 85 319 85 319 C92 346 139 382 167 382 C167 382 449 382 449 382 C449 382 88 -140 88 -140 C88 -140 216 -140 216 -140 C317 70 418 280 520 489 C520 489 513 500 513 500 C513 500 118 500 118 500 C118 500 87 382 87 382 C87 382 87 382 87 382 L87 382 Z " />
<glyph glyph-name="eight" unicode="8" horiz-adv-x="539" d="M385 373 C374 380 363 386 352 390 C308 407 259 489 267 534 C275 579 336 640 374 640 C417 640 460 560 450 501 C443 459 413 405 385 373 C385 373 385 373 385 373 L385 373 Z M403 361 C469 398 539 470 548 520 C559 582 466 665 385 665 C303 665 176 564 163 489 C155 443 191 367 237 318 C167 292 87 218 77 160 C65 90 174 -5 269 -5 C363 -5 508 101 522 180 C530 226 470 312 403 361 C403 361 403 361 403 361 L403 361 Z M253 303 C266 292 279 283 292 278 C347 257 413 178 407 141 C398 89 325 20 279 20 C228 20 177 111 189 179 C197 221 226 274 253 303 C253 303 253 303 253 303 L253 303 Z " />
<glyph glyph-name="nine" unicode="9" horiz-adv-x="568" d="M42 -215 C230 -209 522 33 553 207 C575 334 477 505 381 505 C273 505 112 378 100 283 C84 191 177 68 263 68 C317 68 376 125 417 194 C415 184 413 175 412 168 C386 17 176 -191 45 -196 C45 -196 42 -215 42 -215 L42 -215 Z M441 317 C423 224 349 100 288 100 C245 100 208 209 222 290 C232 368 312 473 362 473 C408 473 452 384 441 317 L441 317 Z " />
<glyph glyph-name="colon" unicode="&#x3a;" horiz-adv-x="265" d="M197 408 C231 408 285 454 291 488 C297 522 259 568 225 568 C191 568 137 522 131 488 C125 454 163 408 197 408 L197 408 Z M124 -5 C158 -5 212 41 218 75 C224 109 187 155 152 155 C118 155 64 109 58 75 C52 41 90 -5 124 -5 L124 -5 Z " />
<glyph glyph-name="semicolon" unicode="&#x3b;" horiz-adv-x="282" d="M212 411 C246 411 299 456 305 490 C311 524 274 569 240 569 C206 569 152 524 146 490 C140 456 178 411 212 411 L212 411 Z M139 -5 C147 -5 156 -3 165 2 C166 -5 166 -11 165 -15 C156 -62 94 -143 55 -157 C55 -157 59 -174 59 -174 C124 -151 228 -28 240 40 C242 52 238 74 231 94 C229 103 225 112 220 120 C218 123 216 126 214 128 C214 128 214 128 214 128 C201 143 184 154 167 154 C133 154 79 108 73 74 C67 40 105 -5 139 -5 C139 -5 139 -5 139 -5 L139 -5 Z " />
<glyph glyph-name="less" unicode="&#x3c;" horiz-adv-x="540" d="M553 500 C553 500 104 309 104 309 C104 309 94 304 94 304 C94 304 83 246 83 246 C83 246 93 241 93 241 C93 241 96 258 96 258 C96 258 96 258 96 258 C96 258 93 241 93 241 C93 241 474 50 474 50 C474 50 484 108 484 108 C484 108 137 275 137 275 C137 275 543 443 543 443 C543 443 553 500 553 500 L553 500 Z " />
<glyph glyph-name="equal" unicode="&#x3d;" horiz-adv-x="537" d="M128 226 C128 226 119 174 119 174 C119 174 499 174 499 174 C499 174 508 226 508 226 C508 226 128 226 128 226 L128 226 Z M145 326 C145 326 136 274 136 274 C136 274 516 274 516 274 C516 274 525 326 525 326 C525 326 145 326 145 326 L145 326 Z " />
<glyph glyph-name="greater" unicode="&#x3e;" horiz-adv-x="530" d="M489 275 C489 275 94 108 94 108 C94 108 84 50 84 50 C84 50 520 241 520 241 C520 241 534 247 534 247 C534 247 543 303 543 303 C543 303 532 309 532 309 C532 309 163 500 163 500 C163 500 153 443 153 443 C153 443 489 275 489 275 L489 275 Z " />
<glyph glyph-name="question" unicode="&#x3f;" horiz-adv-x="372" d="M138 -5 C172 -5 226 41 232 75 C238 109 200 155 166 155 C132 155 78 109 72 75 C66 41 104 -5 138 -5 L138 -5 Z M169 360 C169 360 173 235 173 235 C173 235 188 235 188 235 C188 235 209 290 209 290 C209 290 244 290 244 290 C330 290 405 384 411 416 C429 522 329 665 235 665 C200 665 146 623 140 592 C136 571 160 542 181 542 C199 542 238 575 256 575 C323 575 398 491 387 429 C384 416 314 377 220 377 C220 377 185 377 185 377 C178 377 169 367 169 360 L169 360 Z " />
<glyph glyph-name="at" unicode="&#x40;" horiz-adv-x="1177" d="M1039 0 C975 -100 706 -234 570 -234 C371 -234 154 48 191 259 C228 470 532 752 722 752 C912 752 1124 518 1094 343 C1069 201 935 10 861 10 C808 10 783 119 818 200 C818 200 937 480 937 480 C937 480 828 480 828 480 C828 480 796 404 796 404 C778 448 727 490 681 490 C547 490 338 317 315 188 C301 109 386 4 464 4 C530 4 640 65 697 126 C702 46 761 -30 833 -30 C955 -30 1155 184 1183 343 C1217 532 956 784 727 784 C499 784 141 483 101 259 C62 35 327 -266 564 -266 C710 -266 1004 -114 1077 0 C1077 0 1039 0 1039 0 L1039 0 Z M775 356 C775 356 709 200 709 200 C685 144 585 68 534 68 C485 68 434 149 445 210 C463 316 594 458 672 458 C724 458 783 399 775 356 L775 356 Z " />
<glyph glyph-name="A" unicode="A" horiz-adv-x="708" d="M447 232 C447 232 484 80 484 80 C484 80 484 80 484 80 C491 52 463 15 435 15 C435 15 403 15 403 15 C403 15 402 11 401 8 C401 4 400 0 400 0 C400 0 504 0 504 0 C504 0 573 0 573 0 C573 0 643 0 643 0 C643 0 703 0 703 0 C703 0 704 4 704 7 C704 7 706 15 706 15 C706 15 696 15 696 15 C672 15 631 50 622 78 C622 78 466 675 466 675 C466 675 434 675 434 675 C434 675 107 75 107 75 C88 47 36 15 11 15 C11 15 0 15 0 15 C0 15 -1 11 -2 8 C-2 4 -3 0 -3 0 C-3 0 66 0 66 0 C66 0 88 0 88 0 C88 0 109 0 109 0 C109 0 219 0 219 0 C219 0 220 4 220 8 C221 11 221 15 221 15 C221 15 197 15 197 15 C164 15 143 57 157 91 C157 91 232 232 232 232 C232 232 447 232 447 232 L447 232 Z M439 264 C439 264 249 264 249 264 C249 264 378 509 378 509 C378 509 439 264 439 264 L439 264 Z " />
<glyph glyph-name="B" unicode="B" horiz-adv-x="672" d="M299 355 C299 355 298 355 298 355 C298 355 352 660 352 660 C352 660 288 660 288 660 C288 660 224 660 224 660 C224 660 149 660 149 660 C149 660 149 656 148 653 C148 649 147 645 147 645 C147 645 158 645 158 645 C184 645 214 610 210 582 C210 582 122 80 122 80 C122 80 122 80 122 80 C117 52 74 15 47 15 C47 15 36 15 36 15 C36 15 35 11 34 8 C34 4 33 0 33 0 C33 0 108 0 108 0 C108 0 172 0 172 0 C172 0 236 0 236 0 C236 0 377 0 377 0 C495 0 671 105 685 184 C696 251 583 336 470 357 C470 357 470 357 470 357 C570 383 676 450 685 502 C697 570 573 660 469 660 C469 660 352 660 352 660 C352 660 347 628 347 628 C347 628 463 628 463 628 C513 628 567 556 557 502 C547 443 453 364 393 364 C393 364 300 364 300 364 C300 364 299 355 299 355 L299 355 Z M242 32 C242 32 295 336 295 336 C295 336 380 336 380 336 C464 336 562 249 551 184 C539 119 436 32 370 32 C370 32 242 32 242 32 L242 32 Z " />
<glyph glyph-name="C" unicode="C" horiz-adv-x="703" d="M724 453 C724 453 751 607 751 607 C712 632 573 665 508 665 C347 665 97 473 72 330 C47 187 229 -5 390 -5 C455 -5 606 28 653 53 C653 53 680 207 680 207 C680 207 667 207 667 207 C663 199 652 178 648 170 C620 118 499 42 430 29 C416 28 405 27 395 27 C294 27 190 200 213 330 C235 460 401 633 502 633 C520 633 545 630 571 626 C621 612 695 538 704 490 C705 482 709 461 711 453 C711 453 724 453 724 453 L724 453 Z " />
<glyph glyph-name="D" unicode="D" horiz-adv-x="766" d="M172 0 C172 0 236 0 236 0 C236 0 377 0 377 0 C522 0 750 189 775 330 C800 471 619 660 458 660 C458 660 352 660 352 660 C352 660 347 628 347 628 C347 628 452 628 452 628 C558 628 670 457 647 330 C625 203 473 32 383 32 C383 32 242 32 242 32 C242 32 352 660 352 660 C352 660 288 660 288 660 C288 660 224 660 224 660 C224 660 149 660 149 660 C149 660 149 656 148 653 C148 649 147 645 147 645 C147 645 158 645 158 645 C184 645 214 610 210 582 C210 582 122 80 122 80 C122 80 122 80 122 80 C117 52 74 15 47 15 C47 15 36 15 36 15 C36 15 35 11 34 8 C34 4 33 0 33 0 C33 0 108 0 108 0 C108 0 172 0 172 0 L172 0 Z " />
<glyph glyph-name="E" unicode="E" horiz-adv-x="652" d="M517 251 C521 271 530 323 534 347 C534 347 535 352 535 352 C535 352 538 368 538 368 C538 368 538 368 538 368 C542 392 549 428 551 443 C551 443 539 443 539 443 C539 443 533 432 533 432 C520 404 454 368 418 368 C418 368 308 368 308 368 C308 368 303 341 303 341 C303 341 359 660 359 660 C359 660 354 628 354 628 C354 628 499 628 499 628 C542 628 608 571 614 528 C614 528 619 493 619 493 C619 493 630 493 630 493 C636 526 651 612 657 644 C657 647 659 657 660 660 C660 660 644 660 644 660 C644 660 580 660 580 660 C580 660 359 660 359 660 C359 660 295 660 295 660 C295 660 231 660 231 660 C231 660 156 660 156 660 C156 659 154 645 154 645 C154 645 165 645 165 645 C191 645 221 610 217 582 C217 582 129 80 129 80 C129 80 129 80 129 80 C124 52 81 15 54 15 C54 15 43 15 43 15 C43 15 42 11 41 8 C41 4 40 0 40 0 C40 0 115 0 115 0 C115 0 179 0 179 0 C179 0 243 0 243 0 C243 0 462 0 462 0 C462 0 538 0 538 0 C538 0 542 0 542 0 C544 3 547 13 548 16 C559 48 590 135 601 167 C601 167 590 167 590 167 C590 167 566 132 566 132 C537 89 441 32 399 32 C399 32 249 32 249 32 C249 32 302 336 302 336 C302 336 412 336 412 336 C448 336 501 295 504 264 C504 264 505 251 505 251 C505 251 517 251 517 251 L517 251 Z " />
<glyph glyph-name="F" unicode="F" horiz-adv-x="567" d="M506 246 C510 266 519 318 523 342 C523 342 524 347 524 347 C528 367 537 419 540 438 C540 438 528 438 528 438 C528 438 522 427 522 427 C509 399 443 363 407 363 C407 363 307 363 307 363 C307 363 304 346 304 346 C304 346 359 660 359 660 C359 660 354 628 354 628 C354 628 529 628 529 628 C572 628 638 571 644 528 C644 528 649 493 649 493 C649 493 660 493 660 493 C666 526 681 612 687 644 C687 647 689 657 690 660 C690 660 674 660 674 660 C674 660 610 660 610 660 C610 660 359 660 359 660 C359 660 295 660 295 660 C295 660 231 660 231 660 C231 660 156 660 156 660 C156 659 154 645 154 645 C154 645 165 645 165 645 C191 645 221 610 217 582 C217 582 129 80 129 80 C129 80 129 80 129 80 C124 52 81 15 54 15 C54 15 43 15 43 15 C43 15 42 11 41 8 C41 4 40 0 40 0 C40 0 115 0 115 0 C115 0 179 0 179 0 C179 0 243 0 243 0 C243 0 328 0 328 0 C328 0 330 14 330 15 C330 15 310 15 310 15 C284 15 254 50 257 78 C257 78 301 331 301 331 C301 331 401 331 401 331 C438 331 490 290 493 259 C493 259 494 246 494 246 C494 246 506 246 506 246 L506 246 Z " />
<glyph glyph-name="G" unicode="G" horiz-adv-x="827" d="M732 453 C732 453 759 607 759 607 C720 632 587 665 526 665 C369 665 125 473 100 330 C75 187 251 -5 408 -5 C471 -5 619 28 667 53 C666 53 681 140 698 230 C698 230 698 230 698 230 C703 258 746 295 773 295 C773 295 784 295 784 295 C784 295 786 303 786 303 C786 306 787 310 787 310 C787 310 712 310 712 310 C712 310 654 310 654 310 C654 310 597 310 597 310 C597 310 522 310 522 310 C522 310 521 306 521 303 C521 303 519 295 519 295 C519 295 530 295 530 295 C556 295 585 262 584 235 C570 160 557 84 551 48 C500 36 445 27 413 27 C317 27 218 200 241 330 C263 460 423 633 520 633 C536 633 557 631 580 626 C630 613 703 539 712 490 C713 482 717 461 719 453 C719 453 732 453 732 453 L732 453 Z " />
<glyph glyph-name="H" unicode="H" horiz-adv-x="786" d="M863 660 C863 660 788 660 788 660 C788 660 724 660 724 660 C724 660 661 660 661 660 C661 660 586 660 586 660 C585 660 585 656 584 653 C584 649 583 645 583 645 C583 645 594 645 594 645 C621 645 651 608 646 580 C646 580 647 580 647 580 C647 580 608 363 608 363 C608 363 307 363 307 363 C307 363 345 580 345 580 C345 580 345 580 345 580 C350 608 393 645 420 645 C420 645 432 645 432 645 C431 645 432 649 433 653 C433 656 434 660 434 660 C434 660 359 660 359 660 C359 660 295 660 295 660 C295 660 231 660 231 660 C231 660 156 660 156 660 C156 659 154 645 154 645 C154 645 165 645 165 645 C191 645 221 610 217 582 C217 582 129 80 129 80 C129 80 129 80 129 80 C124 52 81 15 54 15 C54 15 43 15 43 15 C43 15 42 11 41 8 C41 4 40 0 40 0 C40 0 115 0 115 0 C115 0 179 0 179 0 C179 0 243 0 243 0 C243 0 318 0 318 0 C318 0 320 14 320 15 C320 15 309 15 309 15 C283 15 253 50 257 78 C257 78 301 331 301 331 C301 331 603 331 603 331 C603 331 558 80 558 80 C558 80 558 80 558 80 C553 52 510 15 483 15 C483 15 472 15 472 15 C472 15 471 11 470 8 C470 4 469 0 469 0 C469 0 544 0 544 0 C544 0 608 0 608 0 C608 0 672 0 672 0 C672 0 747 0 747 0 C747 0 748 4 748 8 C749 11 750 15 750 15 C750 15 738 15 738 15 C712 15 682 50 686 78 C686 78 774 580 774 580 C774 580 774 580 774 580 C779 608 822 645 849 645 C849 645 861 645 861 645 C861 645 863 659 863 660 C863 660 863 660 863 660 L863 660 Z " />
<glyph glyph-name="I" unicode="I" horiz-adv-x="357" d="M154 645 C154 645 165 645 165 645 C191 645 221 610 217 582 C217 582 129 80 129 80 C129 80 129 80 129 80 C124 52 81 15 54 15 C54 15 43 15 43 15 C43 15 42 11 41 8 C41 4 40 0 40 0 C40 0 115 0 115 0 C115 0 179 0 179 0 C179 0 243 0 243 0 C243 0 318 0 318 0 C318 0 320 14 320 15 C320 15 309 15 309 15 C283 15 253 50 257 78 C257 78 345 580 345 580 C345 580 345 580 345 580 C350 608 393 645 420 645 C420 645 432 645 432 645 C431 645 432 649 433 653 C433 656 434 660 434 660 C434 660 359 660 359 660 C359 660 295 660 295 660 C295 660 231 660 231 660 C231 660 156 660 156 660 C156 659 154 645 154 645 L154 645 Z " />
<glyph glyph-name="J" unicode="J" horiz-adv-x="444" d="M304 582 C304 582 237 200 237 200 C220 106 184 16 162 16 C145 16 121 43 120 64 C118 86 90 115 71 115 C44 115 9 86 11 64 C13 32 79 -10 126 -10 C230 -10 355 145 384 308 C384 308 433 588 433 588 C444 614 482 645 507 645 C507 645 518 645 518 645 C518 645 519 649 519 653 C520 656 521 660 521 660 C521 660 446 660 446 660 C446 660 382 660 382 660 C382 660 318 660 318 660 C318 660 243 660 243 660 C243 660 242 656 241 653 C241 649 240 645 240 645 C240 645 251 645 251 645 C278 645 307 609 304 582 C304 582 304 582 304 582 L304 582 Z " />
<glyph glyph-name="K" unicode="K" horiz-adv-x="686" d="M675 -5 C675 -5 680 20 680 20 C680 20 675 20 675 20 C641 20 564 113 516 210 C516 210 414 422 414 422 C414 422 587 584 587 584 C620 611 690 645 717 645 C717 645 728 645 728 645 C728 645 729 649 729 653 C730 656 730 660 730 660 C730 660 669 660 669 660 C669 660 646 660 646 660 C646 660 623 660 623 660 C623 660 548 660 548 660 C548 660 547 656 547 653 C547 653 545 645 545 645 C545 645 554 645 554 645 C576 645 568 611 541 583 C541 583 298 355 298 355 C298 355 338 580 338 580 C338 580 338 580 338 580 C343 608 386 645 413 645 C413 645 425 645 425 645 C424 645 425 649 426 653 C426 656 427 660 427 660 C427 660 352 660 352 660 C352 660 288 660 288 660 C288 660 224 660 224 660 C224 660 149 660 149 660 C149 660 149 656 148 653 C148 649 147 645 147 645 C147 645 158 645 158 645 C184 645 214 610 210 582 C210 582 122 80 122 80 C122 80 122 80 122 80 C117 52 74 15 47 15 C47 15 36 15 36 15 C36 15 35 11 34 8 C34 4 33 0 33 0 C33 0 108 0 108 0 C108 0 172 0 172 0 C172 0 236 0 236 0 C236 0 311 0 311 0 C311 0 312 4 312 8 C313 11 313 15 313 15 C313 15 302 15 302 15 C276 15 246 50 250 78 C250 78 298 354 298 354 C298 354 414 115 414 115 C444 53 550 -5 632 -5 C632 -5 675 -5 675 -5 L675 -5 Z " />
<glyph glyph-name="L" unicode="L" horiz-adv-x="652" d="M587 182 C587 182 552 122 552 122 C529 83 447 32 409 32 C409 32 249 32 249 32 C249 32 345 580 345 580 C345 580 345 580 345 580 C350 608 393 645 420 645 C420 645 432 645 432 645 C431 645 432 649 433 653 C433 656 434 660 434 660 C434 660 359 660 359 660 C359 660 295 660 295 660 C295 660 231 660 231 660 C231 660 156 660 156 660 C156 659 154 645 154 645 C154 645 165 645 165 645 C191 645 221 610 217 582 C217 582 129 80 129 80 C129 80 129 80 129 80 C124 52 81 15 54 15 C54 15 43 15 43 15 C43 15 42 11 41 8 C41 4 40 0 40 0 C40 0 115 0 115 0 C115 0 179 0 179 0 C179 0 243 0 243 0 C243 0 462 0 462 0 C462 0 538 0 538 0 C538 0 542 0 542 0 C544 3 547 13 548 16 C560 50 592 140 604 174 C604 176 587 182 587 182 L587 182 Z " />
<glyph glyph-name="M" unicode="M" horiz-adv-x="896" d="M488 146 C488 146 488 146 488 146 C488 146 488 144 488 144 C488 144 488 145 488 145 C488 146 488 146 488 146 C488 146 348 660 348 660 C348 660 287 660 287 660 C287 660 268 660 268 660 C268 660 249 660 249 660 C249 660 174 660 174 660 C174 660 173 656 172 653 C172 649 171 645 171 645 C171 645 182 645 182 645 C208 645 235 611 233 584 C233 584 123 73 123 73 C111 46 72 15 47 15 C47 15 36 15 36 15 C36 15 35 11 34 8 C34 4 33 0 33 0 C33 0 107 0 107 0 C107 0 127 0 127 0 C127 0 146 0 146 0 C146 0 256 0 256 0 C256 0 257 4 257 8 C258 11 259 15 258 15 C258 15 229 15 229 15 C196 15 162 57 165 90 C165 90 253 502 253 502 C253 502 385 51 385 51 C385 51 401 -5 401 -5 C401 -5 433 -5 433 -5 C433 -5 768 559 768 559 C768 559 696 80 696 80 C691 52 650 15 623 15 C623 15 611 15 611 15 C612 15 611 11 610 8 C610 4 609 0 609 0 C609 0 684 0 684 0 C684 0 748 0 748 0 C748 0 812 0 812 0 C812 0 886 0 886 0 C886 0 887 4 887 8 C888 11 889 15 889 15 C889 15 877 15 877 15 C852 15 822 47 822 74 C822 74 888 586 888 586 C897 613 934 645 959 645 C959 645 970 645 970 645 C970 645 971 649 971 653 C972 656 972 660 972 660 C972 660 898 660 898 660 C898 660 840 660 840 660 C840 660 828 660 828 660 C828 660 783 660 783 660 C783 660 488 146 488 146 L488 146 Z " />
<glyph glyph-name="N" unicode="N" horiz-adv-x="723" d="M609 645 C609 645 620 645 620 645 C646 645 675 610 672 583 C672 583 602 184 602 184 C602 184 343 660 343 660 C343 660 267 660 267 660 C267 660 258 607 258 607 C258 607 343 660 343 660 C343 660 258 607 258 607 C258 607 267 660 267 660 C267 660 248 660 248 660 C248 660 229 660 229 660 C229 660 154 660 154 660 C154 660 153 656 152 653 C152 649 151 645 151 645 C151 645 162 645 162 645 C188 645 217 610 215 583 C215 583 125 74 125 74 C115 47 76 15 51 15 C51 15 40 15 40 15 C40 15 39 11 39 8 C39 8 37 0 37 0 C37 0 112 0 112 0 C112 0 132 0 132 0 C132 0 151 0 151 0 C151 0 226 0 226 0 C226 0 227 4 227 8 C228 11 229 15 228 15 C228 15 217 15 217 15 C191 15 161 50 165 78 C165 78 247 548 247 548 C247 548 521 51 521 51 C521 51 560 -20 560 -20 C560 -20 605 -20 605 -20 C605 -20 626 98 626 98 C626 98 711 580 711 580 C711 580 711 580 711 580 C716 608 759 645 786 645 C786 645 797 645 797 645 C797 645 798 649 798 653 C799 656 800 660 800 660 C800 660 725 660 725 660 C725 660 706 660 706 660 C706 660 686 660 686 660 C686 660 611 660 611 660 C611 659 609 645 609 645 L609 645 Z " />
<glyph glyph-name="O" unicode="O" horiz-adv-x="759" d="M380 27 C289 27 220 213 241 330 C261 447 396 633 487 633 C578 633 647 447 627 330 C606 213 471 27 380 27 L380 27 Z M100 330 C77 201 218 -5 375 -5 C531 -5 744 201 767 330 C790 459 650 665 493 665 C336 665 123 459 100 330 L100 330 Z " />
<glyph glyph-name="P" unicode="P" horiz-adv-x="608" d="M172 0 C172 0 236 0 236 0 C236 0 311 0 311 0 C311 0 312 4 312 8 C313 11 313 15 313 15 C313 15 302 15 302 15 C276 15 246 50 250 78 C250 78 287 293 287 293 C287 293 375 293 375 293 C489 293 659 399 673 478 C687 556 566 660 462 660 C462 660 352 660 352 660 C352 660 347 628 347 628 C347 628 456 628 456 628 C503 628 550 542 539 478 C527 412 437 325 381 325 C381 325 293 325 293 325 C293 325 352 660 352 660 C352 660 288 660 288 660 C288 660 224 660 224 660 C224 660 149 660 149 660 C149 660 149 656 148 653 C148 649 147 645 147 645 C147 645 158 645 158 645 C184 645 214 610 210 582 C210 582 122 80 122 80 C122 80 122 80 122 80 C117 52 74 15 47 15 C47 15 36 15 36 15 C36 15 35 11 34 8 C34 4 33 0 33 0 C33 0 108 0 108 0 C108 0 172 0 172 0 L172 0 Z " />
<glyph glyph-name="Q" unicode="Q" horiz-adv-x="759" d="M798 -28 C798 -28 787 -20 787 -20 C774 -36 682 -57 625 -57 C543 -57 443 -29 399 -3 C552 16 745 208 767 330 C790 459 650 665 493 665 C336 665 123 459 100 330 C78 208 203 18 348 -3 C408 -66 532 -140 597 -140 C645 -140 760 -76 798 -28 L798 -28 Z M380 27 C289 27 220 213 241 330 C261 447 396 633 487 633 C578 633 647 447 627 330 C606 213 471 27 380 27 L380 27 Z " />
<glyph glyph-name="R" unicode="R" horiz-adv-x="713" d="M713 0 C713 0 718 25 718 25 C718 25 713 25 713 25 C683 25 660 43 638 81 C638 81 498 336 498 336 C591 371 679 437 689 490 C701 562 575 660 468 660 C468 660 352 660 352 660 C352 660 347 628 347 628 C347 628 463 628 463 628 C512 628 565 549 555 490 C544 427 449 344 389 344 C389 344 341 344 341 344 C341 344 296 344 296 344 C296 344 352 660 352 660 C352 660 288 660 288 660 C288 660 224 660 224 660 C224 660 149 660 149 660 C149 660 149 656 148 653 C148 649 147 645 147 645 C147 645 158 645 158 645 C184 645 214 610 210 582 C210 582 122 80 122 80 C122 80 122 80 122 80 C117 52 74 15 47 15 C47 15 36 15 36 15 C36 15 35 11 34 8 C34 4 33 0 33 0 C33 0 108 0 108 0 C108 0 172 0 172 0 C172 0 236 0 236 0 C236 0 311 0 311 0 C311 0 312 4 312 8 C313 11 313 15 313 15 C313 15 302 15 302 15 C276 15 246 50 250 78 C250 78 292 320 292 320 C292 320 291 312 291 312 C291 312 358 312 358 312 C358 312 468 106 468 106 C506 33 570 0 670 0 C670 0 713 0 713 0 L713 0 Z " />
<glyph glyph-name="S" unicode="S" horiz-adv-x="514" d="M75 204 C75 204 47 40 47 40 C47 40 61 60 61 60 C61 60 61 60 62 60 C62 60 47 40 47 40 C77 21 190 -5 244 -5 C340 -5 488 106 502 189 C513 247 435 356 368 380 C298 404 212 479 217 511 C227 564 312 634 366 634 C373 634 385 631 399 627 C399 627 399 627 399 627 C428 618 472 569 477 540 C480 522 489 474 492 456 C492 456 505 456 505 456 C505 456 534 620 534 620 C534 620 520 600 520 600 C520 600 520 600 519 600 C519 600 534 620 534 620 C504 639 415 665 377 665 C283 665 135 548 120 460 C110 406 185 303 251 280 C322 256 409 173 402 137 C394 90 307 27 250 27 C243 27 235 28 226 29 C177 42 105 117 95 168 C94 176 90 196 88 204 C88 204 75 204 75 204 L75 204 Z " />
<glyph glyph-name="T" unicode="T" horiz-adv-x="653" d="M726 644 C726 647 727 657 727 660 C727 660 696 660 696 660 C696 660 647 660 647 660 C647 660 206 660 206 660 C206 660 156 660 156 660 C156 660 126 660 126 660 C125 657 122 647 121 644 C112 609 87 514 78 478 C78 478 90 478 90 478 C90 478 130 548 130 548 C150 582 223 628 257 628 C257 628 357 628 357 628 C357 628 260 80 260 80 C260 80 260 80 260 80 C255 52 212 15 185 15 C185 15 174 15 174 15 C174 15 173 11 172 8 C172 4 171 0 171 0 C171 0 246 0 246 0 C246 0 310 0 310 0 C310 0 374 0 374 0 C374 0 449 0 449 0 C449 0 450 4 450 8 C451 11 451 15 452 15 C452 15 440 15 440 15 C414 15 385 49 388 77 C388 77 485 628 485 628 C485 628 584 628 584 628 C619 628 675 582 683 548 C683 548 699 478 699 478 C699 478 711 478 711 478 C714 514 723 609 726 644 L726 644 Z " />
<glyph glyph-name="U" unicode="U" horiz-adv-x="735" d="M233 580 C233 580 233 580 233 580 C233 580 170 219 170 219 C153 123 254 -5 385 -5 C510 -5 649 106 664 189 C664 189 732 573 732 573 C740 605 787 645 816 645 C816 645 829 645 829 645 C829 645 830 649 830 653 C831 656 832 660 832 660 C832 660 747 660 747 660 C747 660 728 660 728 660 C728 660 708 660 708 660 C708 660 618 660 618 660 C618 660 618 656 617 653 C617 649 616 645 616 645 C616 645 631 645 631 645 C660 645 692 609 693 578 C693 578 627 202 627 202 C615 133 508 40 412 40 C337 40 282 128 293 194 C293 194 361 580 361 580 C361 580 361 580 361 580 C366 608 409 645 436 645 C436 645 448 645 448 645 C447 645 448 649 449 653 C449 656 450 660 450 660 C450 660 375 660 375 660 C375 660 311 660 311 660 C311 660 247 660 247 660 C247 660 172 660 172 660 C172 660 172 656 171 653 C171 649 170 645 170 645 C170 645 181 645 181 645 C208 645 238 608 233 580 C233 580 233 580 233 580 L233 580 Z " />
<glyph glyph-name="V" unicode="V" horiz-adv-x="751" d="M703 553 C703 553 490 152 490 152 C490 152 380 580 380 580 C380 580 380 580 380 580 C372 608 400 645 428 645 C428 645 456 645 456 645 C456 645 457 649 457 653 C458 656 459 660 459 660 C459 660 359 660 359 660 C359 660 289 660 289 660 C289 660 218 660 218 660 C218 660 165 660 165 660 C165 660 164 656 164 653 C164 653 162 645 162 645 C162 645 171 645 171 645 C192 645 228 612 238 585 C238 585 402 -15 402 -15 C402 -15 434 -15 434 -15 C434 -15 754 580 754 580 C754 580 754 580 754 580 C769 608 826 645 853 645 C853 645 864 645 864 645 C864 645 866 653 866 653 C866 656 867 660 867 660 C867 660 797 660 797 660 C797 660 778 660 778 660 C778 660 759 660 759 660 C759 660 639 660 639 660 C639 660 638 656 638 653 C638 653 636 645 636 645 C636 645 656 645 656 645 C696 645 721 594 703 553 L703 553 Z " />
<glyph glyph-name="W" unicode="W" horiz-adv-x="1079" d="M1158 660 C1158 660 1088 660 1088 660 C1088 660 1069 660 1069 660 C1069 660 1050 660 1050 660 C1050 660 945 660 945 660 C945 660 944 656 943 653 C943 649 942 645 942 645 C942 645 977 645 977 645 C1005 645 1024 609 1013 581 C1013 581 729 -15 729 -15 C729 -15 820 177 820 177 C820 177 712 670 712 670 C712 670 680 670 680 670 C680 670 342 -15 342 -15 C342 -15 430 164 430 164 C430 164 358 580 358 580 C358 580 358 580 358 580 C353 608 384 645 412 645 C412 645 432 645 432 645 C432 645 432 649 433 653 C433 656 434 660 434 660 C434 660 344 660 344 660 C344 660 274 660 274 660 C274 660 204 660 204 660 C204 660 149 660 149 660 C149 659 147 645 147 645 C147 645 156 645 156 645 C177 645 214 608 220 580 C220 580 220 580 220 580 C220 580 342 -15 342 -15 C342 -15 374 -15 374 -15 C374 -15 611 466 611 466 C611 466 729 -15 729 -15 C729 -15 761 -15 761 -15 C761 -15 1051 584 1051 584 C1068 611 1118 645 1144 645 C1144 645 1156 645 1156 645 C1156 645 1158 659 1158 660 L1158 660 Z " />
<glyph glyph-name="X" unicode="X" horiz-adv-x="736" d="M219 95 C219 95 219 95 219 95 C219 95 371 281 371 281 C371 281 468 75 468 75 C476 47 457 15 431 15 C431 15 406 15 406 15 C406 15 405 11 405 8 C405 8 403 0 403 0 C403 0 503 0 503 0 C503 0 576 0 576 0 C576 0 649 0 649 0 C649 0 694 0 694 0 C694 0 696 8 696 8 C696 11 697 15 697 15 C697 15 689 15 689 15 C669 15 624 52 612 80 C612 80 612 80 612 80 C612 80 473 375 473 375 C473 375 653 584 653 584 C679 611 742 645 769 645 C769 645 780 645 780 645 C780 645 781 649 781 653 C782 656 782 660 783 660 C783 660 718 660 718 660 C718 660 693 660 693 660 C693 660 668 660 668 660 C668 660 558 660 558 660 C558 660 557 656 557 653 C557 653 555 645 555 645 C555 645 591 645 591 645 C618 645 624 612 606 584 C606 584 459 405 459 405 C459 405 375 585 375 585 C367 613 386 645 412 645 C412 645 437 645 437 645 C437 645 438 649 438 653 C439 656 440 660 440 660 C440 660 340 660 340 660 C340 660 267 660 267 660 C267 660 194 660 194 660 C194 660 149 660 149 660 C149 660 148 656 147 653 C147 649 146 645 146 645 C146 645 154 645 154 645 C174 645 218 608 231 580 C231 580 231 580 231 580 C231 580 358 311 358 311 C358 311 160 78 160 78 C135 50 69 15 43 15 C43 15 31 15 31 15 C32 15 31 11 30 8 C30 4 29 0 29 0 C29 0 94 0 94 0 C94 0 117 0 117 0 C117 0 141 0 141 0 C141 0 251 0 251 0 C251 0 252 4 252 8 C253 11 254 15 254 15 C254 15 233 15 233 15 C199 15 191 61 219 95 C219 95 219 95 219 95 L219 95 Z " />
<glyph glyph-name="Y" unicode="Y" horiz-adv-x="682" d="M421 80 C421 80 421 80 421 80 C436 166 456 279 465 330 C465 330 464 330 464 330 C464 330 680 584 680 584 C706 611 764 645 787 645 C787 645 796 645 796 645 C796 645 798 653 798 653 C798 656 799 660 799 660 C799 660 744 660 744 660 C744 660 725 660 725 660 C725 660 706 660 706 660 C706 660 596 660 596 660 C596 660 595 656 594 653 C594 649 593 645 593 645 C593 645 608 645 608 645 C645 645 653 596 622 560 C622 560 623 560 623 560 C623 560 452 356 452 356 C452 356 360 580 360 580 C360 580 360 580 360 580 C349 608 371 645 399 645 C399 645 415 645 415 645 C415 645 417 659 417 660 C417 660 327 660 327 660 C327 660 251 660 251 660 C251 660 174 660 174 660 C174 660 128 660 128 660 C128 660 127 656 127 653 C127 653 125 645 125 645 C125 645 134 645 134 645 C152 645 190 613 205 586 C205 586 330 288 330 288 C319 230 304 145 292 78 C286 50 244 15 218 15 C218 15 206 15 206 15 C206 15 206 11 205 8 C205 4 204 0 204 0 C204 0 279 0 279 0 C279 0 343 0 343 0 C343 0 407 0 407 0 C407 0 482 0 482 0 C481 0 482 4 483 8 C483 11 484 15 484 15 C484 15 473 15 473 15 C445 15 416 52 421 80 C421 80 421 80 421 80 L421 80 Z " />
<glyph glyph-name="Z" unicode="Z" horiz-adv-x="625" d="M576 183 C576 183 540 123 540 123 C518 85 436 33 397 33 C397 33 232 33 232 33 C232 33 679 660 679 660 C679 660 606 660 606 660 C606 660 533 660 533 660 C533 660 311 660 311 660 C311 660 262 660 262 660 C262 660 231 660 231 660 C229 657 225 647 224 644 C211 615 176 537 163 508 C163 508 175 508 175 508 C175 508 209 548 209 548 C238 582 322 628 357 628 C357 628 510 628 510 628 C510 628 65 0 65 0 C65 0 137 0 137 0 C137 0 208 0 208 0 C208 0 451 0 451 0 C451 0 526 0 526 0 C526 0 531 0 531 0 C532 3 535 13 536 17 C548 51 580 142 592 176 C588 178 576 183 576 183 L576 183 Z " />
<glyph glyph-name="bracketleft" unicode="&#x5b;" horiz-adv-x="269" d="M138 -94 C138 -94 270 660 270 660 C270 660 266 634 266 634 C266 634 371 634 371 634 C371 634 375 660 375 660 C375 660 270 660 270 660 C270 660 181 660 181 660 C181 660 43 -120 43 -120 C43 -120 133 -120 133 -120 C133 -120 238 -120 238 -120 C238 -120 242 -94 242 -94 C242 -94 138 -94 138 -94 L138 -94 Z " />
<glyph glyph-name="backslash" unicode="&#x5c;" horiz-adv-x="270" d="M204 -145 C204 -145 244 -145 244 -145 C244 -145 105 710 105 710 C105 710 65 710 65 710 C65 710 204 -145 204 -145 L204 -145 Z " />
<glyph glyph-name="bracketright" unicode="&#x5d;" horiz-adv-x="268" d="M93 -94 C93 -94 -12 -94 -12 -94 C-12 -94 -17 -120 -17 -120 C-17 -120 88 -120 88 -120 C88 -120 178 -120 178 -120 C178 -120 315 660 315 660 C315 660 226 660 226 660 C226 660 121 660 121 660 C121 660 116 634 116 634 C116 634 221 634 221 634 C221 634 226 660 226 660 C226 660 93 -94 93 -94 L93 -94 Z " />
<glyph glyph-name="underscore" unicode="&#x5f;" horiz-adv-x="455" d="M-4 -50 C-4 -50 -15 -114 -15 -114 C-15 -114 430 -114 430 -114 C430 -114 441 -50 441 -50 C441 -50 -4 -50 -4 -50 L-4 -50 Z " />
<glyph glyph-name="a" unicode="a" horiz-adv-x="511" d="M501 64 C494 56 471 45 453 45 C431 45 420 84 425 112 C425 112 467 352 467 352 C478 417 413 505 352 505 C270 505 136 438 118 388 C118 388 233 388 233 388 C246 424 296 473 320 473 C340 473 358 419 350 378 C350 378 330 262 330 262 C330 262 261 252 261 252 C182 240 64 156 55 105 C46 58 103 -5 153 -5 C192 -5 256 20 304 49 C313 17 334 -10 364 -10 C419 -10 490 23 512 48 C512 48 501 64 501 64 L501 64 Z M324 232 C324 232 301 100 301 100 C300 95 300 90 300 84 C274 77 246 72 225 72 C198 72 170 110 175 138 C179 164 225 209 255 216 C255 216 324 232 324 232 L324 232 Z " />
<glyph glyph-name="b" unicode="b" horiz-adv-x="569" d="M166 579 C166 579 166 579 166 579 C132 386 98 193 64 0 C64 0 77 0 77 0 C77 0 77 1 78 1 C89 15 125 32 143 32 C175 32 234 -5 277 -5 C381 -5 547 141 566 249 C585 359 503 505 423 505 C372 505 279 478 260 458 C260 458 257 439 257 439 C263 445 302 454 325 454 C391 454 453 312 434 207 C421 130 334 27 282 27 C245 27 208 95 208 155 C208 162 209 170 210 177 C210 177 287 610 287 610 C287 610 287 610 287 610 C287 610 294 651 294 651 C294 651 301 690 301 690 C301 690 301 690 301 690 C301 690 306 720 306 720 C306 720 283 720 283 720 C283 720 107 669 107 669 C107 669 107 668 107 668 C106 665 106 660 106 660 C106 660 116 658 116 658 C153 650 173 618 166 579 C166 579 166 579 166 579 L166 579 Z " />
<glyph glyph-name="c" unicode="c" horiz-adv-x="472" d="M452 79 C452 79 444 91 444 91 C428 80 366 65 335 65 C256 65 171 184 187 273 C202 359 292 473 343 473 C371 473 404 434 402 404 C399 380 426 348 449 348 C471 348 505 377 509 399 C513 444 429 505 362 505 C252 505 78 347 58 229 C40 129 137 -5 227 -5 C274 -5 403 43 452 79 L452 79 Z " />
<glyph glyph-name="d" unicode="d" horiz-adv-x="594" d="M510 141 C510 141 510 141 510 141 C510 141 593 610 593 610 C593 610 593 610 593 610 C593 610 600 650 600 650 C600 650 607 690 607 690 C607 690 607 690 607 690 C607 690 612 720 612 720 C612 720 589 720 589 720 C589 720 413 669 413 669 C413 669 413 668 413 668 C412 665 411 660 412 660 C412 660 422 658 422 658 C459 650 479 618 472 579 C472 579 472 579 472 579 C472 579 451 458 451 458 C424 483 388 505 361 505 C261 505 98 341 77 219 C60 123 145 -5 226 -5 C255 -5 334 31 381 62 C381 62 375 30 375 30 C375 30 375 30 375 30 C375 30 370 0 370 0 C370 0 393 0 393 0 C393 0 569 51 569 51 C569 51 569 52 569 52 C570 55 571 60 571 60 C571 60 560 62 560 62 C523 71 503 102 510 141 C510 141 510 141 510 141 L510 141 Z M384 81 C366 73 325 65 302 65 C245 65 190 178 205 263 C221 353 304 474 350 474 C379 474 422 444 443 415 C443 415 384 81 384 81 L384 81 Z " />
<glyph glyph-name="e" unicode="e" horiz-adv-x="502" d="M466 79 C466 79 458 91 458 91 C442 80 379 65 346 65 C266 65 179 184 195 273 C197 282 199 291 202 300 C202 300 506 300 506 300 C521 387 432 505 349 505 C249 505 86 347 66 229 C48 129 147 -5 238 -5 C287 -5 418 43 466 79 L466 79 Z M209 322 C238 397 300 473 337 473 C377 473 421 429 415 396 C415 396 415 396 415 395 C411 374 377 342 354 337 C354 337 209 322 209 322 L209 322 Z " />
<glyph glyph-name="f" unicode="f" horiz-adv-x="466" d="M171 0 C171 0 228 0 228 0 C228 0 303 0 303 0 C303 0 305 8 305 8 C305 11 306 15 306 15 C306 15 295 15 295 15 C268 15 239 50 242 78 C264 204 286 330 308 455 C308 455 444 455 444 455 C444 455 451 500 451 500 C451 500 316 500 316 500 C318 511 320 522 322 533 C334 602 406 694 448 694 C468 694 493 666 491 645 C489 623 517 594 539 594 C561 594 596 623 599 645 C602 677 536 720 485 720 C390 720 238 627 218 558 C218 558 201 500 201 500 C201 500 133 500 133 500 C133 500 125 455 125 455 C125 455 193 455 193 455 C193 455 127 80 127 80 C127 80 127 80 127 80 C122 52 79 15 52 15 C52 15 41 15 41 15 C41 15 40 11 40 8 C40 8 38 0 38 0 C38 0 113 0 113 0 C113 0 171 0 171 0 L171 0 Z " />
<glyph glyph-name="g" unicode="g" horiz-adv-x="478" d="M567 500 C567 500 414 460 414 460 C387 487 351 505 318 505 C243 505 127 414 115 346 C106 297 148 235 200 205 C143 198 64 136 56 89 C50 53 91 10 139 -9 C77 -29 0 -92 -8 -134 C-16 -181 63 -243 130 -243 C252 -243 438 -120 454 -28 C463 24 372 94 295 94 C295 94 205 90 205 90 C175 89 138 114 142 134 C146 157 183 187 206 187 C206 187 261 187 261 187 C336 187 452 278 464 346 C468 370 461 396 446 421 C446 421 556 436 556 436 C556 436 567 500 567 500 L567 500 Z M223 346 C233 403 285 479 313 479 C341 479 366 403 356 346 C346 289 294 212 266 212 C237 212 213 289 223 346 L223 346 Z M165 -16 C174 -18 183 -18 192 -18 C192 -18 244 -15 244 -15 C299 -15 366 -56 361 -86 C351 -140 230 -211 149 -211 C109 -211 65 -159 71 -120 C78 -83 129 -28 165 -16 L165 -16 Z " />
<glyph glyph-name="h" unicode="h" horiz-adv-x="636" d="M221 579 C221 579 221 579 221 579 C221 579 133 80 133 80 C133 80 133 80 133 80 C128 52 85 15 58 15 C58 15 47 15 47 15 C47 15 46 11 46 8 C46 8 44 0 44 0 C44 0 119 0 119 0 C119 0 177 0 177 0 C177 0 234 0 234 0 C234 0 309 0 309 0 C310 0 310 4 311 8 C311 11 312 15 312 15 C312 15 301 15 301 15 C275 15 246 50 248 78 C248 78 307 414 307 414 C329 421 370 428 397 428 C440 428 471 370 463 326 C463 326 420 79 420 79 C414 51 372 15 345 15 C345 15 334 15 334 15 C334 15 333 11 332 8 C332 4 331 0 331 0 C331 0 406 0 406 0 C406 0 464 0 464 0 C464 0 521 0 521 0 C521 0 596 0 596 0 C596 0 597 4 597 7 C597 7 599 15 599 15 C599 15 588 15 588 15 C561 15 533 49 535 76 C535 76 581 338 581 338 C593 409 556 505 499 505 C454 505 356 466 310 432 C310 432 342 610 342 610 C342 610 342 610 342 610 C342 610 348 645 348 645 C348 645 356 690 356 690 C356 690 356 690 356 690 C356 690 361 720 361 720 C361 720 338 720 338 720 C338 720 162 669 162 669 C162 669 162 668 162 668 C161 665 161 660 161 660 C161 660 172 658 172 658 C208 650 228 618 221 579 C221 579 221 579 221 579 L221 579 Z " />
<glyph glyph-name="i" unicode="i" horiz-adv-x="355" d="M183 359 C183 359 183 359 183 359 C183 359 134 80 134 80 C134 80 134 80 134 80 C129 52 86 15 59 15 C59 15 48 15 48 15 C48 15 47 11 46 8 C46 4 45 0 45 0 C45 0 120 0 120 0 C120 0 178 0 178 0 C178 0 235 0 235 0 C235 0 310 0 310 0 C310 0 311 4 311 8 C312 11 313 15 313 15 C313 15 301 15 301 15 C275 15 246 49 249 77 C249 77 304 390 304 390 C304 390 304 390 304 390 C304 390 310 423 310 423 C310 423 318 470 318 470 C318 470 318 470 318 470 C318 470 323 500 323 500 C323 500 300 500 300 500 C300 500 124 449 124 449 C124 449 124 448 124 448 C123 445 123 440 123 440 C123 440 133 438 133 438 C170 430 190 398 183 359 C183 359 183 359 183 359 L183 359 Z M272 570 C304 570 356 614 362 647 C368 679 332 723 299 723 C266 723 214 679 208 647 C202 614 239 570 272 570 L272 570 Z " />
<glyph glyph-name="j" unicode="j" horiz-adv-x="313" d="M183 359 C183 359 183 359 183 359 C183 359 119 -1 119 -1 C103 -92 35 -186 -30 -223 C-30 -223 -22 -239 -22 -239 C106 -167 227 -50 241 31 C241 31 304 390 304 390 C304 390 304 390 304 390 C304 390 306 402 306 402 C306 402 318 470 318 470 C318 470 318 470 318 470 C318 470 323 500 323 500 C323 500 300 500 300 500 C300 500 124 449 124 449 C124 449 124 448 124 448 C123 445 123 440 123 440 C123 440 133 438 133 438 C170 430 190 398 183 359 C183 359 183 359 183 359 L183 359 Z M272 570 C304 570 356 614 362 647 C368 679 332 723 299 723 C266 723 214 679 208 647 C202 614 239 570 272 570 L272 570 Z " />
<glyph glyph-name="k" unicode="k" horiz-adv-x="608" d="M444 420 C444 420 444 420 444 420 C444 420 276 275 276 275 C276 275 380 80 380 80 C380 80 380 80 380 80 C395 52 383 15 360 15 C360 15 350 15 350 15 C350 15 350 11 349 8 C349 4 348 0 348 0 C348 0 423 0 423 0 C423 0 494 0 494 0 C494 0 566 0 566 0 C566 0 630 0 630 0 C630 0 631 4 631 8 C632 11 633 15 633 15 C633 15 621 15 621 15 C596 15 545 47 526 74 C526 74 383 337 383 337 C383 337 487 420 487 420 C522 448 605 485 633 485 C633 485 644 485 644 485 C644 485 645 489 645 493 C646 496 646 500 646 500 C646 500 588 500 588 500 C588 500 562 500 562 500 C562 500 537 500 537 500 C537 500 462 500 462 500 C462 500 461 496 460 493 C460 489 459 485 459 485 C459 485 468 485 468 485 C490 485 476 448 444 420 C444 420 444 420 444 420 L444 420 Z M214 579 C214 579 214 579 214 579 C214 579 126 80 126 80 C126 80 126 80 126 80 C121 52 78 15 51 15 C51 15 40 15 40 15 C40 15 39 11 39 8 C39 8 37 0 37 0 C37 0 112 0 112 0 C112 0 170 0 170 0 C170 0 227 0 227 0 C227 0 302 0 302 0 C302 0 304 8 304 8 C304 11 305 15 305 15 C305 15 294 15 294 15 C267 15 239 50 241 78 C241 78 335 610 335 610 C335 610 335 610 335 610 C335 610 341 645 341 645 C341 645 349 690 349 690 C349 690 349 690 349 690 C349 690 354 720 354 720 C354 720 331 720 331 720 C331 720 155 669 155 669 C155 669 155 668 155 668 C154 665 154 660 154 660 C154 660 164 658 164 658 C201 650 221 618 214 579 C214 579 214 579 214 579 L214 579 Z " />
<glyph glyph-name="l" unicode="l" horiz-adv-x="355" d="M222 579 C222 579 222 579 222 579 C222 579 134 80 134 80 C134 80 134 80 134 80 C129 52 86 15 59 15 C59 15 48 15 48 15 C48 15 47 11 46 8 C46 4 45 0 45 0 C45 0 120 0 120 0 C120 0 178 0 178 0 C178 0 235 0 235 0 C235 0 310 0 310 0 C310 0 311 4 311 8 C312 11 313 15 313 15 C313 15 301 15 301 15 C275 15 246 49 249 77 C249 77 343 610 343 610 C343 610 343 610 343 610 C343 610 349 645 349 645 C349 645 357 690 357 690 C357 690 357 690 357 690 C357 690 362 720 362 720 C362 720 339 720 339 720 C339 720 163 669 163 669 C163 669 163 668 163 668 C162 665 161 660 161 660 C161 660 172 658 172 658 C209 650 229 618 222 579 L222 579 Z " />
<glyph glyph-name="m" unicode="m" horiz-adv-x="942" d="M905 15 C905 15 894 15 894 15 C867 15 837 52 842 80 C842 80 842 80 842 80 C842 80 887 338 887 338 C900 409 846 505 797 505 C737 505 624 458 582 420 C566 466 535 505 506 505 C453 505 356 466 311 432 C311 432 323 500 323 500 C323 500 300 500 300 500 C300 500 124 449 124 449 C123 449 123 449 123 448 C123 445 122 440 122 440 C122 440 133 438 133 438 C167 431 186 402 184 367 C184 367 133 80 133 80 C133 80 133 80 133 80 C128 52 85 15 58 15 C58 15 47 15 47 15 C47 15 46 11 46 8 C46 8 44 0 44 0 C44 0 119 0 119 0 C119 0 177 0 177 0 C177 0 234 0 234 0 C234 0 309 0 309 0 C310 0 310 4 311 8 C311 11 312 15 312 15 C312 15 301 15 301 15 C275 15 246 50 248 78 C248 78 303 390 303 390 C303 390 308 415 308 415 C331 425 374 435 404 435 C440 435 482 373 473 326 C473 326 430 79 430 79 C424 51 382 15 355 15 C355 15 344 15 344 15 C344 15 343 11 342 8 C342 4 341 0 341 0 C341 0 416 0 416 0 C416 0 474 0 474 0 C474 0 531 0 531 0 C531 0 606 0 606 0 C606 0 607 4 607 7 C607 7 609 15 609 15 C609 15 598 15 598 15 C571 15 543 49 545 76 C545 76 591 338 591 338 C595 359 593 382 587 404 C608 415 659 428 695 428 C733 428 778 370 770 326 C770 326 727 79 727 79 C721 51 679 15 652 15 C652 15 640 15 640 15 C641 15 640 11 639 8 C639 4 638 0 638 0 C638 0 713 0 713 0 C713 0 770 0 770 0 C770 0 828 0 828 0 C828 0 903 0 903 0 C903 1 905 15 905 15 C905 15 905 15 905 15 L905 15 Z " />
<glyph glyph-name="n" unicode="n" horiz-adv-x="619" d="M307 414 C329 421 370 428 397 428 C440 428 471 370 463 326 C463 326 420 79 420 79 C414 51 372 15 345 15 C345 15 334 15 334 15 C334 15 333 11 332 8 C332 4 331 0 331 0 C331 0 406 0 406 0 C406 0 464 0 464 0 C464 0 521 0 521 0 C521 0 596 0 596 0 C596 0 597 4 597 7 C597 7 599 15 599 15 C599 15 588 15 588 15 C561 15 533 49 535 76 C535 76 581 338 581 338 C593 409 556 505 499 505 C454 505 356 466 311 432 C311 432 323 500 323 500 C323 500 300 500 300 500 C300 500 124 449 124 449 C123 449 123 449 123 448 C123 445 122 440 122 440 C122 440 133 438 133 438 C167 431 186 402 184 367 C184 367 133 80 133 80 C133 80 133 80 133 80 C128 52 85 15 58 15 C58 15 47 15 47 15 C47 15 46 11 46 8 C46 8 44 0 44 0 C44 0 119 0 119 0 C119 0 177 0 177 0 C177 0 234 0 234 0 C234 0 309 0 309 0 C310 0 310 4 311 8 C311 11 312 15 312 15 C312 15 301 15 301 15 C275 15 246 50 248 78 C248 78 303 390 303 390 C303 390 307 414 307 414 L307 414 Z " />
<glyph glyph-name="o" unicode="o" horiz-adv-x="573" d="M282 21 C228 21 180 152 197 250 C214 348 309 479 363 479 C417 479 465 348 448 250 C431 152 336 21 282 21 L282 21 Z M69 250 C50 141 169 -5 278 -5 C386 -5 557 141 576 250 C595 359 476 505 368 505 C259 505 88 359 69 250 L69 250 Z " />
<glyph glyph-name="p" unicode="p" horiz-adv-x="608" d="M-21 -230 C-21 -230 54 -230 54 -230 C54 -230 111 -230 111 -230 C111 -230 169 -230 169 -230 C169 -230 244 -230 244 -230 C244 -230 245 -226 245 -222 C246 -219 247 -215 246 -215 C246 -215 235 -215 235 -215 C209 -215 180 -180 183 -152 C183 -152 214 27 214 27 C244 8 279 -5 310 -5 C421 -5 597 151 618 268 C635 369 552 505 472 505 C413 505 314 465 279 429 C279 429 282 500 282 500 C282 500 259 500 259 500 C259 500 99 449 99 449 C98 449 98 449 98 448 C98 445 97 440 97 440 C97 440 108 438 108 438 C142 431 161 402 159 366 C159 366 68 -150 68 -150 C68 -150 68 -150 68 -150 C63 -178 20 -215 -7 -215 C-7 -215 -19 -215 -19 -215 C-19 -216 -21 -230 -21 -230 C-21 -230 -21 -230 -21 -230 L-21 -230 Z M279 407 C299 418 341 428 370 428 C437 428 502 290 484 187 C472 119 376 27 316 27 C276 27 230 88 233 133 C233 133 278 390 278 390 C278 390 279 407 279 407 L279 407 Z " />
<glyph glyph-name="q" unicode="q" horiz-adv-x="579" d="M362 -230 C362 -230 419 -230 419 -230 C419 -230 494 -230 494 -230 C494 -230 495 -226 495 -222 C496 -219 497 -215 497 -215 C497 -215 486 -215 486 -215 C459 -215 430 -181 433 -153 C471 64 510 282 548 500 C548 500 535 500 535 500 C535 500 535 500 534 499 C524 485 481 468 458 468 C428 468 375 505 335 505 C236 505 74 341 53 219 C36 123 113 -5 188 -5 C220 -5 307 34 357 69 C357 69 318 -150 318 -150 C318 -150 318 -150 318 -150 C313 -178 270 -215 243 -215 C243 -215 232 -215 232 -215 C232 -215 231 -219 230 -222 C230 -226 229 -230 229 -230 C229 -230 304 -230 304 -230 C304 -230 362 -230 362 -230 L362 -230 Z M361 89 C341 78 290 65 264 65 C213 65 165 178 180 263 C196 353 281 473 329 473 C372 473 413 387 402 323 C402 323 361 89 361 89 L361 89 Z " />
<glyph glyph-name="r" unicode="r" horiz-adv-x="437" d="M304 411 C314 416 329 420 339 420 C365 420 412 376 439 376 C463 376 500 408 504 431 C509 463 482 505 445 505 C410 505 337 465 304 430 C304 430 307 500 307 500 C307 500 284 500 284 500 C284 500 124 449 124 449 C123 449 123 449 123 448 C123 445 122 440 122 440 C122 440 133 438 133 438 C167 431 186 402 184 367 C184 367 133 80 133 80 C133 80 133 80 133 80 C128 52 85 15 58 15 C58 15 47 15 47 15 C47 15 46 11 46 8 C46 8 44 0 44 0 C44 0 119 0 119 0 C119 0 177 0 177 0 C177 0 234 0 234 0 C234 0 309 0 309 0 C310 0 310 4 311 8 C311 11 312 15 312 15 C312 15 301 15 301 15 C275 15 246 50 248 78 C248 78 303 390 303 390 C303 390 304 411 304 411 L304 411 Z " />
<glyph glyph-name="s" unicode="s" horiz-adv-x="420" d="M71 150 C71 150 50 29 50 29 C50 29 63 47 63 47 C63 47 63 47 63 47 C63 47 50 29 50 29 C73 15 149 -5 184 -5 C264 -5 386 86 398 153 C404 191 359 269 318 291 C268 317 205 380 209 402 C215 435 276 479 316 479 C317 479 322 477 328 474 C355 459 392 407 396 380 C397 375 399 361 400 355 C400 355 412 355 412 355 C412 355 431 466 431 466 C431 466 418 448 418 448 C418 448 418 448 418 448 C418 448 431 466 431 466 C405 483 342 505 320 505 C243 505 124 423 114 362 C107 325 170 237 223 209 C258 191 299 135 294 111 C288 72 231 21 195 21 C193 21 191 21 188 22 C154 29 100 85 89 124 C87 130 83 144 82 150 C82 150 71 150 71 150 L71 150 Z " />
<glyph glyph-name="t" unicode="t" horiz-adv-x="370" d="M426 500 C426 500 292 500 292 500 C300 547 308 593 316 640 C316 640 297 640 297 640 C250 572 142 474 108 468 C108 468 105 455 105 455 C105 455 169 455 169 455 C169 455 110 125 110 125 C97 53 135 -5 195 -5 C241 -5 325 29 360 55 C360 55 353 65 353 65 C343 57 299 46 261 46 C233 46 216 72 221 105 C242 222 263 338 284 455 C284 455 419 455 419 455 C419 455 426 500 426 500 L426 500 Z " />
<glyph glyph-name="u" unicode="u" horiz-adv-x="601" d="M516 141 C516 141 516 141 516 141 C516 141 579 500 579 500 C579 500 522 500 522 500 C522 500 464 500 464 500 C464 500 389 500 389 500 C389 500 388 496 388 493 C387 489 387 485 387 485 C387 485 398 485 398 485 C424 485 453 451 450 423 C450 423 392 92 392 92 C375 82 343 71 324 71 C273 71 226 125 233 166 C233 166 293 500 293 500 C293 500 235 500 235 500 C235 500 178 500 178 500 C178 500 103 500 103 500 C102 500 100 486 100 485 C100 485 111 485 111 485 C138 485 168 448 163 420 C163 420 164 420 164 420 C164 420 117 154 117 154 C105 86 159 -5 220 -5 C255 -5 338 36 389 74 C389 74 381 30 381 30 C381 30 381 30 381 30 C381 30 376 0 376 0 C376 0 399 0 399 0 C399 0 575 51 575 51 C575 51 575 52 575 52 C576 55 577 60 577 60 C577 60 566 62 566 62 C529 71 509 102 516 141 C516 141 516 141 516 141 L516 141 Z " />
<glyph glyph-name="v" unicode="v" horiz-adv-x="616" d="M527 420 C527 420 527 420 527 420 C527 420 365 137 365 137 C365 137 292 425 292 425 C289 452 312 485 335 485 C335 485 345 485 345 485 C345 485 347 493 347 493 C347 496 348 500 348 500 C348 500 273 500 273 500 C273 500 207 500 207 500 C207 500 141 500 141 500 C141 500 73 500 73 500 C73 500 72 496 72 493 C71 489 71 485 70 485 C70 485 82 485 82 485 C108 485 153 450 162 423 C162 423 281 -10 281 -10 C281 -10 301 -10 301 -10 C301 -10 562 420 562 420 C562 420 563 420 563 420 C580 448 639 485 666 485 C666 485 677 485 677 485 C677 485 679 493 679 493 C679 496 680 500 680 500 C680 500 611 500 611 500 C611 500 592 500 592 500 C592 500 573 500 573 500 C573 500 498 500 498 500 C498 500 497 496 497 493 C497 493 495 485 495 485 C495 485 506 485 506 485 C531 485 543 448 527 420 C527 420 527 420 527 420 L527 420 Z " />
<glyph glyph-name="w" unicode="w" horiz-adv-x="960" d="M727 500 C727 500 632 500 632 500 C632 500 501 500 501 500 C501 500 453 500 453 500 C452 500 452 496 451 493 C451 489 450 485 450 485 C450 485 468 485 468 485 C484 485 513 454 526 408 C526 408 526 408 526 408 C526 408 535 377 535 377 C535 377 396 135 396 135 C396 135 325 419 325 419 C319 459 346 485 372 485 C372 485 389 485 389 485 C389 485 391 493 391 493 C391 496 392 500 392 500 C392 500 305 500 305 500 C305 500 173 500 173 500 C173 500 120 500 120 500 C120 500 119 496 119 493 C119 493 117 485 117 485 C117 485 136 485 136 485 C152 485 180 460 195 421 C195 421 313 -10 313 -10 C313 -10 333 -10 333 -10 C333 -10 543 348 543 348 C543 348 641 -10 641 -10 C641 -10 660 -10 660 -10 C660 -10 912 404 912 404 C912 404 913 404 913 404 C940 453 984 485 1003 485 C1003 485 1022 485 1022 485 C1022 485 1023 489 1023 493 C1024 496 1024 500 1025 500 C1025 500 971 500 971 500 C971 500 933 500 933 500 C933 500 828 500 828 500 C828 500 827 496 826 493 C826 489 825 485 825 485 C825 485 843 485 843 485 C878 485 904 449 873 396 C873 396 874 396 874 396 C874 396 725 137 725 137 C725 137 655 411 655 411 C655 411 655 411 655 411 C643 455 676 485 707 485 C707 485 725 485 725 485 C725 485 727 499 727 500 C727 500 727 500 727 500 L727 500 Z " />
<glyph glyph-name="x" unicode="x" horiz-adv-x="612" d="M467 420 C467 420 467 420 467 420 C467 420 385 331 385 331 C385 331 345 421 345 421 C335 449 354 485 382 485 C382 485 398 485 398 485 C398 485 399 489 399 493 C400 496 401 500 401 500 C401 500 311 500 311 500 C311 500 240 500 240 500 C240 500 170 500 170 500 C170 500 119 500 119 500 C119 500 118 496 118 493 C117 489 116 485 117 485 C117 485 126 485 126 485 C147 485 193 448 205 420 C205 420 205 420 205 420 C205 420 288 231 288 231 C288 231 152 75 152 75 C125 48 61 15 35 15 C35 15 15 15 15 15 C15 15 15 11 14 8 C14 4 13 0 13 0 C13 0 87 0 87 0 C87 0 106 0 106 0 C106 0 126 0 126 0 C126 0 246 0 246 0 C246 0 247 4 247 8 C248 11 248 15 248 15 C248 15 203 15 203 15 C178 15 171 48 189 75 C189 75 300 206 300 206 C300 206 356 76 356 76 C366 49 350 15 327 15 C327 15 317 15 317 15 C317 15 317 11 316 8 C316 4 315 0 315 0 C315 0 390 0 390 0 C390 0 460 0 460 0 C460 0 530 0 530 0 C530 0 571 0 571 0 C571 0 572 4 572 8 C573 11 574 15 574 15 C574 15 566 15 566 15 C548 15 507 52 495 80 C495 80 495 80 495 80 C495 80 393 312 393 312 C393 312 503 423 503 423 C533 450 602 485 628 485 C628 485 639 485 639 485 C639 485 641 493 641 493 C641 496 642 500 642 500 C642 500 579 500 579 500 C579 500 560 500 560 500 C560 500 541 500 541 500 C541 500 441 500 441 500 C441 500 440 496 439 493 C439 489 438 485 438 485 C438 485 462 485 462 485 C490 485 493 448 467 420 C467 420 467 420 467 420 L467 420 Z " />
<glyph glyph-name="y" unicode="y" horiz-adv-x="635" d="M551 420 C551 420 551 420 551 420 C551 420 389 137 389 137 C389 137 316 425 316 425 C313 452 336 485 359 485 C359 485 369 485 369 485 C369 485 371 493 371 493 C371 496 372 500 372 500 C372 500 297 500 297 500 C297 500 231 500 231 500 C231 500 165 500 165 500 C165 500 97 500 97 500 C97 500 96 496 96 493 C95 489 95 485 94 485 C94 485 106 485 106 485 C132 485 177 450 186 423 C186 423 301 6 301 6 C301 6 258 -62 258 -62 C229 -109 178 -154 154 -154 C133 -154 91 -129 70 -129 C45 -129 7 -157 4 -178 C0 -200 38 -230 70 -230 C132 -230 237 -153 287 -72 C287 -72 325 -10 325 -10 C325 -10 586 420 586 420 C586 420 587 420 587 420 C604 448 663 485 690 485 C690 485 701 485 701 485 C701 485 703 493 703 493 C703 496 704 500 704 500 C704 500 635 500 635 500 C635 500 616 500 616 500 C616 500 597 500 597 500 C597 500 522 500 522 500 C522 500 521 496 521 493 C521 493 519 485 519 485 C519 485 530 485 530 485 C555 485 567 448 551 420 C551 420 551 420 551 420 L551 420 Z " />
<glyph glyph-name="z" unicode="z" horiz-adv-x="491" d="M457 176 C457 176 421 116 421 116 C398 77 316 26 278 26 C278 26 199 26 199 26 C199 26 530 500 530 500 C530 500 463 500 463 500 C463 500 397 500 397 500 C397 500 246 500 246 500 C246 500 197 500 197 500 C197 500 166 500 166 500 C165 497 162 489 160 487 C151 465 124 405 114 383 C114 383 126 383 126 383 C126 383 140 397 140 397 C172 429 260 473 294 473 C294 473 294 473 294 473 C294 473 378 474 378 474 C378 474 45 0 45 0 C45 0 113 0 113 0 C113 0 181 0 181 0 C181 0 334 0 334 0 C334 0 408 0 408 0 C408 0 414 0 414 0 C415 3 417 10 418 13 C430 46 461 135 473 168 C473 170 457 176 457 176 C457 176 457 176 457 176 L457 176 Z " />
<glyph glyph-name="braceleft" unicode="&#x7b;" horiz-adv-x="254" d="M218 -120 C218 -120 222 -101 222 -101 C222 -101 207 -101 207 -101 C175 -101 143 -34 152 16 C152 16 174 139 174 139 C183 189 143 255 100 270 C148 285 211 351 220 402 C220 402 242 524 242 524 C251 574 306 641 338 641 C338 641 352 641 352 641 C352 641 356 660 356 660 C356 660 316 660 316 660 C256 660 163 582 152 524 C152 524 120 338 120 338 C115 313 81 280 59 280 C59 280 54 280 54 280 C54 280 51 260 51 260 C51 260 56 260 56 260 C77 260 100 227 96 203 C96 203 63 16 63 16 C53 -42 119 -120 178 -120 C178 -120 218 -120 218 -120 L218 -120 Z " />
<glyph glyph-name="bar" unicode="&#x7c;" horiz-adv-x="209" d="M196 770 C196 770 19 -234 19 -234 C19 -234 108 -234 108 -234 C108 -234 285 770 285 770 C285 770 196 770 196 770 L196 770 Z " />
<glyph glyph-name="braceright" unicode="&#x7d;" horiz-adv-x="254" d="M121 660 C121 660 118 641 118 641 C118 641 132 641 132 641 C165 641 196 574 187 524 C187 524 166 401 166 401 C157 351 196 285 239 270 C191 255 128 189 119 138 C119 138 98 16 98 16 C89 -34 34 -101 2 -101 C2 -101 -13 -101 -13 -101 C-13 -101 -16 -120 -16 -120 C-16 -120 24 -120 24 -120 C83 -120 177 -42 187 16 C187 16 220 202 220 202 C224 227 259 260 280 260 C280 260 285 260 285 260 C285 260 289 280 289 280 C289 280 284 280 284 280 C262 280 239 313 244 337 C244 337 277 524 277 524 C287 582 221 660 161 660 C161 660 121 660 121 660 L121 660 Z " />
<glyph glyph-name="[namenotfound]" unicode="&#xa0;" horiz-adv-x="220" d="" />
<glyph glyph-name="exclamdown" unicode="&#xa1;" horiz-adv-x="265" d="M212 505 C177 505 124 459 118 425 C112 391 149 345 183 345 C218 345 272 391 278 425 C284 459 246 505 212 505 L212 505 Z M45 -83 C34 -118 66 -165 101 -165 C138 -165 187 -118 186 -83 C186 -83 178 270 178 270 C178 270 163 270 163 270 C163 270 45 -83 45 -83 L45 -83 Z " />
<glyph glyph-name="cent" unicode="&#xa2;" horiz-adv-x="521" d="M373 575 C373 575 360 500 360 500 C251 473 109 335 91 229 C73 129 170 -5 260 -5 C263 -5 267 -5 270 -4 C270 -4 258 -75 258 -75 C258 -75 297 -75 297 -75 C297 -75 311 4 311 4 C369 19 449 52 485 79 C485 79 477 91 477 91 C461 80 399 65 368 65 C353 65 338 69 324 77 C324 77 392 469 392 469 C415 458 437 428 435 404 C432 380 459 348 482 348 C504 348 538 377 542 399 C546 443 465 503 399 505 C399 505 411 575 411 575 C411 575 373 575 373 575 L373 575 Z M289 101 C243 143 209 214 220 273 C233 348 302 443 354 467 C354 467 289 101 289 101 L289 101 Z " />
<glyph glyph-name="guillemotleft" unicode="&#xab;" horiz-adv-x="460" d="M342 250 C342 250 493 454 493 454 C493 454 482 466 482 466 C482 466 230 256 230 256 C230 256 227 244 227 244 C227 244 409 34 409 34 C409 34 424 46 424 46 C424 46 342 250 342 250 L342 250 Z M177 250 C177 250 328 454 328 454 C328 454 318 466 318 466 C318 466 65 256 65 256 C65 256 63 244 63 244 C63 244 245 34 245 34 C245 34 260 46 260 46 C260 46 177 250 177 250 L177 250 Z " />
<glyph glyph-name="guillemotright" unicode="&#xbb;" horiz-adv-x="460" d="M207 251 C207 251 128 454 128 454 C128 454 143 466 143 466 C143 466 322 256 322 256 C322 256 319 244 319 244 C319 244 64 34 64 34 C64 34 53 46 53 46 C53 46 207 251 207 251 L207 251 Z M372 251 C372 251 293 454 293 454 C293 454 307 466 307 466 C307 466 486 256 486 256 C486 256 484 244 484 244 C484 244 228 34 228 34 C228 34 218 46 218 46 C218 46 372 251 372 251 L372 251 Z " />
<glyph glyph-name="questiondown" unicode="&#xbf;" horiz-adv-x="372" d="M323 505 C288 505 234 459 228 425 C222 391 260 345 294 345 C329 345 382 391 388 425 C394 459 357 505 323 505 L323 505 Z M275 123 C282 123 292 133 291 140 C291 140 288 265 288 265 C288 265 273 265 273 265 C273 265 252 210 252 210 C252 210 217 210 217 210 C130 210 56 116 50 84 C31 -22 132 -165 225 -165 C260 -165 315 -123 321 -92 C324 -71 301 -42 280 -42 C261 -42 223 -75 205 -75 C138 -75 63 9 74 71 C76 84 146 123 240 123 C240 123 275 123 275 123 L275 123 Z " />
<glyph glyph-name="Agrave" unicode="&#xc0;" horiz-adv-x="708" d="M493 859 C488 881 477 909 473 909 C459 909 400 871 398 861 C398 856 414 830 427 814 C427 814 524 690 524 690 C524 690 539 699 539 699 C539 699 493 859 493 859 L493 859 Z M447 232 C447 232 484 80 484 80 C484 80 484 80 484 80 C491 52 463 15 435 15 C435 15 403 15 403 15 C403 15 402 11 401 8 C401 4 400 0 400 0 C400 0 504 0 504 0 C504 0 573 0 573 0 C573 0 643 0 643 0 C643 0 703 0 703 0 C703 0 704 4 704 7 C704 7 706 15 706 15 C706 15 696 15 696 15 C672 15 631 50 622 78 C622 78 466 675 466 675 C466 675 434 675 434 675 C434 675 107 75 107 75 C88 47 36 15 11 15 C11 15 0 15 0 15 C0 15 -1 11 -2 8 C-2 4 -3 0 -3 0 C-3 0 66 0 66 0 C66 0 88 0 88 0 C88 0 109 0 109 0 C109 0 219 0 219 0 C219 0 220 4 220 8 C221 11 221 15 221 15 C221 15 197 15 197 15 C164 15 143 57 157 91 C157 91 232 232 232 232 C232 232 447 232 447 232 L447 232 Z M439 264 C439 264 249 264 249 264 C249 264 378 509 378 509 C378 509 439 264 439 264 L439 264 Z " />
<glyph glyph-name="Aacute" unicode="&#xc1;" horiz-adv-x="708" d="M392 690 C392 690 530 814 530 814 C548 830 573 856 574 861 C576 871 531 909 517 909 C514 909 493 881 480 859 C480 859 381 699 381 699 C381 699 392 690 392 690 L392 690 Z M447 232 C447 232 484 80 484 80 C484 80 484 80 484 80 C491 52 463 15 435 15 C435 15 403 15 403 15 C403 15 402 11 401 8 C401 4 400 0 400 0 C400 0 504 0 504 0 C504 0 573 0 573 0 C573 0 643 0 643 0 C643 0 703 0 703 0 C703 0 704 4 704 7 C704 7 706 15 706 15 C706 15 696 15 696 15 C672 15 631 50 622 78 C622 78 466 675 466 675 C466 675 434 675 434 675 C434 675 107 75 107 75 C88 47 36 15 11 15 C11 15 0 15 0 15 C0 15 -1 11 -2 8 C-2 4 -3 0 -3 0 C-3 0 66 0 66 0 C66 0 88 0 88 0 C88 0 109 0 109 0 C109 0 219 0 219 0 C219 0 220 4 220 8 C221 11 221 15 221 15 C221 15 197 15 197 15 C164 15 143 57 157 91 C157 91 232 232 232 232 C232 232 447 232 447 232 L447 232 Z M439 264 C439 264 249 264 249 264 C249 264 378 509 378 509 C378 509 439 264 439 264 L439 264 Z " />
<glyph glyph-name="Acircumflex" unicode="&#xc2;" horiz-adv-x="708" d="M472 799 C472 799 563 691 563 691 C563 691 576 701 576 701 C576 701 521 872 521 872 C519 879 503 904 490 904 C477 904 453 879 448 872 C448 872 332 701 332 701 C332 701 342 691 342 691 C342 691 472 799 472 799 L472 799 Z M447 232 C447 232 484 80 484 80 C484 80 484 80 484 80 C491 52 463 15 435 15 C435 15 403 15 403 15 C403 15 402 11 401 8 C401 4 400 0 400 0 C400 0 504 0 504 0 C504 0 573 0 573 0 C573 0 643 0 643 0 C643 0 703 0 703 0 C703 0 704 4 704 7 C704 7 706 15 706 15 C706 15 696 15 696 15 C672 15 631 50 622 78 C622 78 466 675 466 675 C466 675 434 675 434 675 C434 675 107 75 107 75 C88 47 36 15 11 15 C11 15 0 15 0 15 C0 15 -1 11 -2 8 C-2 4 -3 0 -3 0 C-3 0 66 0 66 0 C66 0 88 0 88 0 C88 0 109 0 109 0 C109 0 219 0 219 0 C219 0 220 4 220 8 C221 11 221 15 221 15 C221 15 197 15 197 15 C164 15 143 57 157 91 C157 91 232 232 232 232 C232 232 447 232 447 232 L447 232 Z M439 264 C439 264 249 264 249 264 C249 264 378 509 378 509 C378 509 439 264 439 264 L439 264 Z " />
<glyph glyph-name="Atilde" unicode="&#xc3;" horiz-adv-x="708" d="M325 755 C329 779 357 811 374 811 C415 811 491 748 532 748 C570 748 635 826 645 885 C645 885 626 885 626 885 C622 859 590 825 570 825 C529 825 453 887 412 887 C376 887 315 811 306 755 C306 755 325 755 325 755 L325 755 Z M447 232 C447 232 484 80 484 80 C484 80 484 80 484 80 C491 52 463 15 435 15 C435 15 403 15 403 15 C403 15 402 11 401 8 C401 4 400 0 400 0 C400 0 504 0 504 0 C504 0 573 0 573 0 C573 0 643 0 643 0 C643 0 703 0 703 0 C703 0 704 4 704 7 C704 7 706 15 706 15 C706 15 696 15 696 15 C672 15 631 50 622 78 C622 78 466 675 466 675 C466 675 434 675 434 675 C434 675 107 75 107 75 C88 47 36 15 11 15 C11 15 0 15 0 15 C0 15 -1 11 -2 8 C-2 4 -3 0 -3 0 C-3 0 66 0 66 0 C66 0 88 0 88 0 C88 0 109 0 109 0 C109 0 219 0 219 0 C219 0 220 4 220 8 C221 11 221 15 221 15 C221 15 197 15 197 15 C164 15 143 57 157 91 C157 91 232 232 232 232 C232 232 447 232 447 232 L447 232 Z M439 264 C439 264 249 264 249 264 C249 264 378 509 378 509 C378 509 439 264 439 264 L439 264 Z " />
<glyph glyph-name="Adieresis" unicode="&#xc4;" horiz-adv-x="708" d="M560 730 C590 730 637 770 642 800 C648 831 615 871 585 871 C555 871 507 831 502 800 C497 770 530 730 560 730 L560 730 Z M359 730 C389 730 437 770 442 800 C447 831 414 871 384 871 C354 871 307 831 301 800 C296 770 329 730 359 730 L359 730 Z M447 232 C447 232 484 80 484 80 C484 80 484 80 484 80 C491 52 463 15 435 15 C435 15 403 15 403 15 C403 15 402 11 401 8 C401 4 400 0 400 0 C400 0 504 0 504 0 C504 0 573 0 573 0 C573 0 643 0 643 0 C643 0 703 0 703 0 C703 0 704 4 704 7 C704 7 706 15 706 15 C706 15 696 15 696 15 C672 15 631 50 622 78 C622 78 466 675 466 675 C466 675 434 675 434 675 C434 675 107 75 107 75 C88 47 36 15 11 15 C11 15 0 15 0 15 C0 15 -1 11 -2 8 C-2 4 -3 0 -3 0 C-3 0 66 0 66 0 C66 0 88 0 88 0 C88 0 109 0 109 0 C109 0 219 0 219 0 C219 0 220 4 220 8 C221 11 221 15 221 15 C221 15 197 15 197 15 C164 15 143 57 157 91 C157 91 232 232 232 232 C232 232 447 232 447 232 L447 232 Z M439 264 C439 264 249 264 249 264 C249 264 378 509 378 509 C378 509 439 264 439 264 L439 264 Z " />
<glyph glyph-name="Aring" unicode="&#xc5;" horiz-adv-x="708" d="M458 721 C433 721 401 762 406 788 C411 816 454 854 481 854 C509 854 539 816 534 788 C529 762 483 721 458 721 L458 721 Z M374 788 C367 752 416 695 453 695 C490 695 559 752 566 788 C573 827 527 880 486 880 C445 880 381 827 374 788 L374 788 Z M447 232 C447 232 484 80 484 80 C484 80 484 80 484 80 C491 52 463 15 435 15 C435 15 403 15 403 15 C403 15 402 11 401 8 C401 4 400 0 400 0 C400 0 504 0 504 0 C504 0 573 0 573 0 C573 0 643 0 643 0 C643 0 703 0 703 0 C703 0 704 4 704 7 C704 7 706 15 706 15 C706 15 696 15 696 15 C672 15 631 50 622 78 C622 78 466 675 466 675 C466 675 434 675 434 675 C434 675 107 75 107 75 C88 47 36 15 11 15 C11 15 0 15 0 15 C0 15 -1 11 -2 8 C-2 4 -3 0 -3 0 C-3 0 66 0 66 0 C66 0 88 0 88 0 C88 0 109 0 109 0 C109 0 219 0 219 0 C219 0 220 4 220 8 C221 11 221 15 221 15 C221 15 197 15 197 15 C164 15 143 57 157 91 C157 91 232 232 232 232 C232 232 447 232 447 232 L447 232 Z M439 264 C439 264 249 264 249 264 C249 264 378 509 378 509 C378 509 439 264 439 264 L439 264 Z " />
<glyph glyph-name="Ccedilla" unicode="&#xc7;" horiz-adv-x="731" d="M752 453 C752 453 779 607 779 607 C740 632 601 665 536 665 C375 665 125 473 100 330 C75 187 257 -5 418 -5 C483 -5 634 28 681 53 C681 53 708 207 708 207 C708 207 695 207 695 207 C691 199 680 178 676 170 C648 118 527 42 458 29 C444 28 433 27 423 27 C322 27 218 200 241 330 C263 460 429 633 530 633 C548 633 573 630 599 626 C649 612 723 538 732 490 C733 482 737 461 739 453 C739 453 752 453 752 453 L752 453 Z " />
<glyph glyph-name="Egrave" unicode="&#xc8;" horiz-adv-x="652" d="M517 251 C521 271 530 323 534 347 C534 347 535 352 535 352 C535 352 538 368 538 368 C538 368 538 368 538 368 C542 392 549 428 551 443 C551 443 539 443 539 443 C539 443 533 432 533 432 C520 404 454 368 418 368 C418 368 308 368 308 368 C308 368 303 341 303 341 C303 341 359 660 359 660 C359 660 354 628 354 628 C354 628 499 628 499 628 C542 628 608 571 614 528 C614 528 619 493 619 493 C619 493 630 493 630 493 C636 526 651 612 657 644 C657 647 659 657 660 660 C660 660 644 660 644 660 C644 660 580 660 580 660 C580 660 359 660 359 660 C359 660 295 660 295 660 C295 660 231 660 231 660 C231 660 156 660 156 660 C156 659 154 645 154 645 C154 645 165 645 165 645 C191 645 221 610 217 582 C217 582 129 80 129 80 C129 80 129 80 129 80 C124 52 81 15 54 15 C54 15 43 15 43 15 C43 15 42 11 41 8 C41 4 40 0 40 0 C40 0 115 0 115 0 C115 0 179 0 179 0 C179 0 243 0 243 0 C243 0 462 0 462 0 C462 0 538 0 538 0 C538 0 542 0 542 0 C544 3 547 13 548 16 C559 48 590 135 601 167 C601 167 590 167 590 167 C590 167 566 132 566 132 C537 89 441 32 399 32 C399 32 249 32 249 32 C249 32 302 336 302 336 C302 336 412 336 412 336 C448 336 501 295 504 264 C504 264 505 251 505 251 C505 251 517 251 517 251 L517 251 Z M468 859 C462 881 451 909 448 909 C433 909 375 871 373 861 C372 856 389 830 402 814 C402 814 499 690 499 690 C499 690 514 699 514 699 C514 699 468 859 468 859 L468 859 Z " />
<glyph glyph-name="Eacute" unicode="&#xc9;" horiz-adv-x="652" d="M517 251 C521 271 530 323 534 347 C534 347 535 352 535 352 C535 352 538 368 538 368 C538 368 538 368 538 368 C542 392 549 428 551 443 C551 443 539 443 539 443 C539 443 533 432 533 432 C520 404 454 368 418 368 C418 368 308 368 308 368 C308 368 303 341 303 341 C303 341 359 660 359 660 C359 660 354 628 354 628 C354 628 499 628 499 628 C542 628 608 571 614 528 C614 528 619 493 619 493 C619 493 630 493 630 493 C636 526 651 612 657 644 C657 647 659 657 660 660 C660 660 644 660 644 660 C644 660 580 660 580 660 C580 660 359 660 359 660 C359 660 295 660 295 660 C295 660 231 660 231 660 C231 660 156 660 156 660 C156 659 154 645 154 645 C154 645 165 645 165 645 C191 645 221 610 217 582 C217 582 129 80 129 80 C129 80 129 80 129 80 C124 52 81 15 54 15 C54 15 43 15 43 15 C43 15 42 11 41 8 C41 4 40 0 40 0 C40 0 115 0 115 0 C115 0 179 0 179 0 C179 0 243 0 243 0 C243 0 462 0 462 0 C462 0 538 0 538 0 C538 0 542 0 542 0 C544 3 547 13 548 16 C559 48 590 135 601 167 C601 167 590 167 590 167 C590 167 566 132 566 132 C537 89 441 32 399 32 C399 32 249 32 249 32 C249 32 302 336 302 336 C302 336 412 336 412 336 C448 336 501 295 504 264 C504 264 505 251 505 251 C505 251 517 251 517 251 L517 251 Z M413 690 C413 690 551 814 551 814 C569 830 594 856 595 861 C597 871 552 909 538 909 C535 909 514 881 501 859 C501 859 402 699 402 699 C402 699 413 690 413 690 L413 690 Z " />
<glyph glyph-name="Ecircumflex" unicode="&#xca;" horiz-adv-x="652" d="M517 251 C521 271 530 323 534 347 C534 347 535 352 535 352 C535 352 538 368 538 368 C538 368 538 368 538 368 C542 392 549 428 551 443 C551 443 539 443 539 443 C539 443 533 432 533 432 C520 404 454 368 418 368 C418 368 308 368 308 368 C308 368 303 341 303 341 C303 341 359 660 359 660 C359 660 354 628 354 628 C354 628 499 628 499 628 C542 628 608 571 614 528 C614 528 619 493 619 493 C619 493 630 493 630 493 C636 526 651 612 657 644 C657 647 659 657 660 660 C660 660 644 660 644 660 C644 660 580 660 580 660 C580 660 359 660 359 660 C359 660 295 660 295 660 C295 660 231 660 231 660 C231 660 156 660 156 660 C156 659 154 645 154 645 C154 645 165 645 165 645 C191 645 221 610 217 582 C217 582 129 80 129 80 C129 80 129 80 129 80 C124 52 81 15 54 15 C54 15 43 15 43 15 C43 15 42 11 41 8 C41 4 40 0 40 0 C40 0 115 0 115 0 C115 0 179 0 179 0 C179 0 243 0 243 0 C243 0 462 0 462 0 C462 0 538 0 538 0 C538 0 542 0 542 0 C544 3 547 13 548 16 C559 48 590 135 601 167 C601 167 590 167 590 167 C590 167 566 132 566 132 C537 89 441 32 399 32 C399 32 249 32 249 32 C249 32 302 336 302 336 C302 336 412 336 412 336 C448 336 501 295 504 264 C504 264 505 251 505 251 C505 251 517 251 517 251 L517 251 Z M463 800 C463 800 554 691 554 691 C554 691 567 701 567 701 C567 701 512 872 512 872 C510 879 494 904 481 904 C468 904 443 879 439 872 C439 872 323 701 323 701 C323 701 333 691 333 691 C333 691 463 800 463 800 L463 800 Z " />
<glyph glyph-name="Edieresis" unicode="&#xcb;" horiz-adv-x="652" d="M517 251 C521 271 530 323 534 347 C534 347 535 352 535 352 C535 352 538 368 538 368 C538 368 538 368 538 368 C542 392 549 428 551 443 C551 443 539 443 539 443 C539 443 533 432 533 432 C520 404 454 368 418 368 C418 368 308 368 308 368 C308 368 303 341 303 341 C303 341 359 660 359 660 C359 660 354 628 354 628 C354 628 499 628 499 628 C542 628 608 571 614 528 C614 528 619 493 619 493 C619 493 630 493 630 493 C636 526 651 612 657 644 C657 647 659 657 660 660 C660 660 644 660 644 660 C644 660 580 660 580 660 C580 660 359 660 359 660 C359 660 295 660 295 660 C295 660 231 660 231 660 C231 660 156 660 156 660 C156 659 154 645 154 645 C154 645 165 645 165 645 C191 645 221 610 217 582 C217 582 129 80 129 80 C129 80 129 80 129 80 C124 52 81 15 54 15 C54 15 43 15 43 15 C43 15 42 11 41 8 C41 4 40 0 40 0 C40 0 115 0 115 0 C115 0 179 0 179 0 C179 0 243 0 243 0 C243 0 462 0 462 0 C462 0 538 0 538 0 C538 0 542 0 542 0 C544 3 547 13 548 16 C559 48 590 135 601 167 C601 167 590 167 590 167 C590 167 566 132 566 132 C537 89 441 32 399 32 C399 32 249 32 249 32 C249 32 302 336 302 336 C302 336 412 336 412 336 C448 336 501 295 504 264 C504 264 505 251 505 251 C505 251 517 251 517 251 L517 251 Z M550 730 C580 730 628 770 633 800 C638 831 605 871 575 871 C545 871 498 831 493 800 C487 770 520 730 550 730 L550 730 Z M350 730 C380 730 427 770 432 800 C438 831 405 871 375 871 C345 871 297 831 292 800 C287 770 320 730 350 730 L350 730 Z " />
<glyph glyph-name="Igrave" unicode="&#xcc;" horiz-adv-x="357" d="M154 645 C154 645 165 645 165 645 C191 645 221 610 217 582 C217 582 129 80 129 80 C129 80 129 80 129 80 C124 52 81 15 54 15 C54 15 43 15 43 15 C43 15 42 11 41 8 C41 4 40 0 40 0 C40 0 115 0 115 0 C115 0 179 0 179 0 C179 0 243 0 243 0 C243 0 318 0 318 0 C318 0 320 14 320 15 C320 15 309 15 309 15 C283 15 253 50 257 78 C257 78 345 580 345 580 C345 580 345 580 345 580 C350 608 393 645 420 645 C420 645 432 645 432 645 C431 645 432 649 433 653 C433 656 434 660 434 660 C434 660 359 660 359 660 C359 660 295 660 295 660 C295 660 231 660 231 660 C231 660 156 660 156 660 C156 659 154 645 154 645 L154 645 Z M341 859 C336 881 325 909 321 909 C307 909 248 871 247 861 C246 856 262 830 275 814 C275 814 372 690 372 690 C372 690 387 699 387 699 C387 699 341 859 341 859 L341 859 Z " />
<glyph glyph-name="Iacute" unicode="&#xcd;" horiz-adv-x="357" d="M240 690 C240 690 378 814 378 814 C396 830 421 856 422 861 C424 871 379 909 365 909 C362 909 341 881 328 859 C328 859 229 699 229 699 C229 699 240 690 240 690 L240 690 Z M154 645 C154 645 165 645 165 645 C191 645 221 610 217 582 C217 582 129 80 129 80 C129 80 129 80 129 80 C124 52 81 15 54 15 C54 15 43 15 43 15 C43 15 42 11 41 8 C41 4 40 0 40 0 C40 0 115 0 115 0 C115 0 179 0 179 0 C179 0 243 0 243 0 C243 0 318 0 318 0 C318 0 320 14 320 15 C320 15 309 15 309 15 C283 15 253 50 257 78 C257 78 345 580 345 580 C345 580 345 580 345 580 C350 608 393 645 420 645 C420 645 432 645 432 645 C431 645 432 649 433 653 C433 656 434 660 434 660 C434 660 359 660 359 660 C359 660 295 660 295 660 C295 660 231 660 231 660 C231 660 156 660 156 660 C156 659 154 645 154 645 L154 645 Z " />
<glyph glyph-name="Icircumflex" unicode="&#xce;" horiz-adv-x="357" d="M154 645 C154 645 165 645 165 645 C191 645 221 610 217 582 C217 582 129 80 129 80 C129 80 129 80 129 80 C124 52 81 15 54 15 C54 15 43 15 43 15 C43 15 42 11 41 8 C41 4 40 0 40 0 C40 0 115 0 115 0 C115 0 179 0 179 0 C179 0 243 0 243 0 C243 0 318 0 318 0 C318 0 320 14 320 15 C320 15 309 15 309 15 C283 15 253 50 257 78 C257 78 345 580 345 580 C345 580 345 580 345 580 C350 608 393 645 420 645 C420 645 432 645 432 645 C431 645 432 649 433 653 C433 656 434 660 434 660 C434 660 359 660 359 660 C359 660 295 660 295 660 C295 660 231 660 231 660 C231 660 156 660 156 660 C156 659 154 645 154 645 L154 645 Z M320 800 C320 800 411 691 411 691 C411 691 425 701 425 701 C425 701 369 872 369 872 C367 879 351 904 338 904 C325 904 301 879 296 872 C296 872 180 701 180 701 C180 701 190 691 190 691 C190 691 320 800 320 800 L320 800 Z " />
<glyph glyph-name="Idieresis" unicode="&#xcf;" horiz-adv-x="357" d="M408 730 C438 730 485 770 491 800 C496 831 463 871 433 871 C403 871 355 831 350 800 C345 770 378 730 408 730 L408 730 Z M207 730 C237 730 285 770 290 800 C295 831 262 871 232 871 C202 871 155 831 149 800 C144 770 177 730 207 730 L207 730 Z M154 645 C154 645 165 645 165 645 C191 645 221 610 217 582 C217 582 129 80 129 80 C129 80 129 80 129 80 C124 52 81 15 54 15 C54 15 43 15 43 15 C43 15 42 11 41 8 C41 4 40 0 40 0 C40 0 115 0 115 0 C115 0 179 0 179 0 C179 0 243 0 243 0 C243 0 318 0 318 0 C318 0 320 14 320 15 C320 15 309 15 309 15 C283 15 253 50 257 78 C257 78 345 580 345 580 C345 580 345 580 345 580 C350 608 393 645 420 645 C420 645 432 645 432 645 C431 645 432 649 433 653 C433 656 434 660 434 660 C434 660 359 660 359 660 C359 660 295 660 295 660 C295 660 231 660 231 660 C231 660 156 660 156 660 C156 659 154 645 154 645 L154 645 Z " />
<glyph glyph-name="Ntilde" unicode="&#xd1;" horiz-adv-x="723" d="M354 755 C358 779 386 811 403 811 C444 811 520 748 561 748 C600 748 665 826 675 885 C675 885 656 885 656 885 C651 859 619 825 600 825 C559 825 483 887 442 887 C406 887 345 811 335 755 C335 755 354 755 354 755 L354 755 Z M609 645 C609 645 620 645 620 645 C646 645 675 610 672 583 C672 583 602 184 602 184 C602 184 343 660 343 660 C343 660 267 660 267 660 C267 660 258 607 258 607 C258 607 343 660 343 660 C343 660 258 607 258 607 C258 607 267 660 267 660 C267 660 248 660 248 660 C248 660 229 660 229 660 C229 660 154 660 154 660 C154 660 153 656 152 653 C152 649 151 645 151 645 C151 645 162 645 162 645 C188 645 217 610 215 583 C215 583 125 74 125 74 C115 47 76 15 51 15 C51 15 40 15 40 15 C40 15 39 11 39 8 C39 8 37 0 37 0 C37 0 112 0 112 0 C112 0 132 0 132 0 C132 0 151 0 151 0 C151 0 226 0 226 0 C226 0 227 4 227 8 C228 11 229 15 228 15 C228 15 217 15 217 15 C191 15 161 50 165 78 C165 78 247 548 247 548 C247 548 521 51 521 51 C521 51 560 -20 560 -20 C560 -20 605 -20 605 -20 C605 -20 626 98 626 98 C626 98 711 580 711 580 C711 580 711 580 711 580 C716 608 759 645 786 645 C786 645 797 645 797 645 C797 645 798 649 798 653 C799 656 800 660 800 660 C800 660 725 660 725 660 C725 660 706 660 706 660 C706 660 686 660 686 660 C686 660 611 660 611 660 C611 659 609 645 609 645 L609 645 Z " />
<glyph glyph-name="Ograve" unicode="&#xd2;" horiz-adv-x="759" d="M380 27 C289 27 220 213 241 330 C261 447 396 633 487 633 C578 633 647 447 627 330 C606 213 471 27 380 27 L380 27 Z M100 330 C77 201 218 -5 375 -5 C531 -5 744 201 767 330 C790 459 650 665 493 665 C336 665 123 459 100 330 L100 330 Z M538 859 C532 881 521 909 517 909 C503 909 445 871 443 861 C442 856 458 830 471 814 C471 814 569 690 569 690 C569 690 583 699 583 699 C583 699 538 859 538 859 L538 859 Z " />
<glyph glyph-name="Oacute" unicode="&#xd3;" horiz-adv-x="759" d="M474 690 C474 690 613 814 613 814 C631 830 656 856 657 861 C659 871 614 909 599 909 C596 909 576 881 562 859 C562 859 463 699 463 699 C463 699 474 690 474 690 L474 690 Z M380 27 C289 27 220 213 241 330 C261 447 396 633 487 633 C578 633 647 447 627 330 C606 213 471 27 380 27 L380 27 Z M100 330 C77 201 218 -5 375 -5 C531 -5 744 201 767 330 C790 459 650 665 493 665 C336 665 123 459 100 330 L100 330 Z " />
<glyph glyph-name="Ocircumflex" unicode="&#xd4;" horiz-adv-x="759" d="M380 27 C289 27 220 213 241 330 C261 447 396 633 487 633 C578 633 647 447 627 330 C606 213 471 27 380 27 L380 27 Z M100 330 C77 201 218 -5 375 -5 C531 -5 744 201 767 330 C790 459 650 665 493 665 C336 665 123 459 100 330 L100 330 Z M517 800 C517 800 608 691 608 691 C608 691 621 701 621 701 C621 701 566 872 566 872 C564 879 548 904 535 904 C522 904 497 879 493 872 C493 872 377 701 377 701 C377 701 387 691 387 691 C387 691 517 800 517 800 L517 800 Z " />
<glyph glyph-name="Otilde" unicode="&#xd5;" horiz-adv-x="759" d="M369 755 C373 779 401 811 418 811 C459 811 535 748 577 748 C615 748 680 826 690 885 C690 885 671 885 671 885 C666 859 634 825 615 825 C574 825 498 887 457 887 C421 887 360 811 350 755 C350 755 369 755 369 755 L369 755 Z M380 27 C289 27 220 213 241 330 C261 447 396 633 487 633 C578 633 647 447 627 330 C606 213 471 27 380 27 L380 27 Z M100 330 C77 201 218 -5 375 -5 C531 -5 744 201 767 330 C790 459 650 665 493 665 C336 665 123 459 100 330 L100 330 Z " />
<glyph glyph-name="Odieresis" unicode="&#xd6;" horiz-adv-x="759" d="M604 730 C634 730 682 770 687 800 C692 831 659 871 629 871 C599 871 552 831 547 800 C541 770 574 730 604 730 L604 730 Z M404 730 C434 730 481 770 487 800 C492 831 459 871 429 871 C399 871 351 831 346 800 C341 770 374 730 404 730 L404 730 Z M380 27 C289 27 220 213 241 330 C261 447 396 633 487 633 C578 633 647 447 627 330 C606 213 471 27 380 27 L380 27 Z M100 330 C77 201 218 -5 375 -5 C531 -5 744 201 767 330 C790 459 650 665 493 665 C336 665 123 459 100 330 L100 330 Z " />
<glyph glyph-name="Oslash" unicode="&#xd8;" horiz-adv-x="759" d="M58 -25 C58 -25 191 89 191 89 C241 34 307 -5 375 -5 C531 -5 744 201 767 330 C778 390 753 466 709 530 C709 530 843 645 843 645 C843 645 809 685 809 685 C809 685 676 572 676 572 C626 626 561 665 493 665 C336 665 123 459 100 330 C89 270 114 194 159 130 C159 130 24 15 24 15 C24 15 58 -25 58 -25 L58 -25 Z M380 27 C331 27 288 81 263 150 C263 150 621 456 621 456 C631 412 633 368 627 330 C606 213 471 27 380 27 C380 27 380 27 380 27 L380 27 Z M246 205 C237 248 234 293 241 330 C261 447 396 633 487 633 C536 633 579 579 605 511 C605 511 246 205 246 205 L246 205 Z " />
<glyph glyph-name="Ugrave" unicode="&#xd9;" horiz-adv-x="702" d="M200 580 C200 580 200 580 200 580 C200 580 137 219 137 219 C120 123 221 -5 352 -5 C477 -5 616 106 631 189 C631 189 699 573 699 573 C707 605 754 645 783 645 C783 645 796 645 796 645 C796 645 797 649 797 653 C798 656 799 660 799 660 C799 660 714 660 714 660 C714 660 695 660 695 660 C695 660 675 660 675 660 C675 660 585 660 585 660 C585 660 585 656 584 653 C584 649 583 645 583 645 C583 645 598 645 598 645 C627 645 659 609 660 578 C660 578 594 202 594 202 C582 133 475 40 379 40 C304 40 249 128 260 194 C260 194 328 580 328 580 C328 580 328 580 328 580 C333 608 376 645 403 645 C403 645 415 645 415 645 C414 645 415 649 416 653 C416 656 417 660 417 660 C417 660 342 660 342 660 C342 660 278 660 278 660 C278 660 214 660 214 660 C214 660 139 660 139 660 C139 660 139 656 138 653 C138 649 137 645 137 645 C137 645 148 645 148 645 C175 645 205 608 200 580 C200 580 200 580 200 580 L200 580 Z M510 859 C505 881 493 909 489 909 C476 909 417 871 415 861 C415 856 431 830 444 814 C444 814 541 690 541 690 C541 690 556 699 556 699 C556 699 510 859 510 859 L510 859 Z " />
<glyph glyph-name="Uacute" unicode="&#xda;" horiz-adv-x="702" d="M470 690 C470 690 608 814 608 814 C626 830 651 856 652 861 C654 871 609 909 594 909 C591 909 571 881 557 859 C557 859 458 699 458 699 C458 699 470 690 470 690 L470 690 Z M200 580 C200 580 200 580 200 580 C200 580 137 219 137 219 C120 123 221 -5 352 -5 C477 -5 616 106 631 189 C631 189 699 573 699 573 C707 605 754 645 783 645 C783 645 796 645 796 645 C796 645 797 649 797 653 C798 656 799 660 799 660 C799 660 714 660 714 660 C714 660 695 660 695 660 C695 660 675 660 675 660 C675 660 585 660 585 660 C585 660 585 656 584 653 C584 649 583 645 583 645 C583 645 598 645 598 645 C627 645 659 609 660 578 C660 578 594 202 594 202 C582 133 475 40 379 40 C304 40 249 128 260 194 C260 194 328 580 328 580 C328 580 328 580 328 580 C333 608 376 645 403 645 C403 645 415 645 415 645 C414 645 415 649 416 653 C416 656 417 660 417 660 C417 660 342 660 342 660 C342 660 278 660 278 660 C278 660 214 660 214 660 C214 660 139 660 139 660 C139 660 139 656 138 653 C138 649 137 645 137 645 C137 645 148 645 148 645 C175 645 205 608 200 580 C200 580 200 580 200 580 L200 580 Z " />
<glyph glyph-name="Ucircumflex" unicode="&#xdb;" horiz-adv-x="702" d="M200 580 C200 580 200 580 200 580 C200 580 137 219 137 219 C120 123 221 -5 352 -5 C477 -5 616 106 631 189 C631 189 699 573 699 573 C707 605 754 645 783 645 C783 645 796 645 796 645 C796 645 797 649 797 653 C798 656 799 660 799 660 C799 660 714 660 714 660 C714 660 695 660 695 660 C695 660 675 660 675 660 C675 660 585 660 585 660 C585 660 585 656 584 653 C584 649 583 645 583 645 C583 645 598 645 598 645 C627 645 659 609 660 578 C660 578 594 202 594 202 C582 133 475 40 379 40 C304 40 249 128 260 194 C260 194 328 580 328 580 C328 580 328 580 328 580 C333 608 376 645 403 645 C403 645 415 645 415 645 C414 645 415 649 416 653 C416 656 417 660 417 660 C417 660 342 660 342 660 C342 660 278 660 278 660 C278 660 214 660 214 660 C214 660 139 660 139 660 C139 660 139 656 138 653 C138 649 137 645 137 645 C137 645 148 645 148 645 C175 645 205 608 200 580 C200 580 200 580 200 580 L200 580 Z M489 800 C489 800 580 691 580 691 C580 691 593 701 593 701 C593 701 538 872 538 872 C536 879 520 904 507 904 C494 904 470 879 465 872 C465 872 349 701 349 701 C349 701 359 691 359 691 C359 691 489 800 489 800 L489 800 Z " />
<glyph glyph-name="Udieresis" unicode="&#xdc;" horiz-adv-x="702" d="M577 730 C607 730 654 770 659 800 C665 831 631 871 602 871 C572 871 524 831 519 800 C514 770 547 730 577 730 L577 730 Z M376 730 C406 730 454 770 459 800 C464 831 431 871 401 871 C371 871 324 831 318 800 C313 770 346 730 376 730 L376 730 Z M200 580 C200 580 200 580 200 580 C200 580 137 219 137 219 C120 123 221 -5 352 -5 C477 -5 616 106 631 189 C631 189 699 573 699 573 C707 605 754 645 783 645 C783 645 796 645 796 645 C796 645 797 649 797 653 C798 656 799 660 799 660 C799 660 714 660 714 660 C714 660 695 660 695 660 C695 660 675 660 675 660 C675 660 585 660 585 660 C585 660 585 656 584 653 C584 649 583 645 583 645 C583 645 598 645 598 645 C627 645 659 609 660 578 C660 578 594 202 594 202 C582 133 475 40 379 40 C304 40 249 128 260 194 C260 194 328 580 328 580 C328 580 328 580 328 580 C333 608 376 645 403 645 C403 645 415 645 415 645 C414 645 415 649 416 653 C416 656 417 660 417 660 C417 660 342 660 342 660 C342 660 278 660 278 660 C278 660 214 660 214 660 C214 660 139 660 139 660 C139 660 139 656 138 653 C138 649 137 645 137 645 C137 645 148 645 148 645 C175 645 205 608 200 580 C200 580 200 580 200 580 L200 580 Z " />
<glyph glyph-name="Yacute" unicode="&#xdd;" horiz-adv-x="671" d="M453 690 C453 690 592 814 592 814 C610 830 635 856 636 861 C637 871 592 909 578 909 C575 909 554 881 541 859 C541 859 442 699 442 699 C442 699 453 690 453 690 L453 690 Z M410 80 C410 80 410 80 410 80 C425 166 445 279 454 330 C454 330 453 330 453 330 C453 330 669 584 669 584 C695 611 753 645 776 645 C776 645 785 645 785 645 C785 645 787 653 787 653 C787 656 788 660 788 660 C788 660 733 660 733 660 C733 660 714 660 714 660 C714 660 695 660 695 660 C695 660 585 660 585 660 C585 660 584 656 583 653 C583 649 582 645 582 645 C582 645 597 645 597 645 C634 645 642 596 611 560 C611 560 612 560 612 560 C612 560 441 356 441 356 C441 356 349 580 349 580 C349 580 349 580 349 580 C338 608 360 645 388 645 C388 645 404 645 404 645 C404 645 406 659 406 660 C406 660 316 660 316 660 C316 660 240 660 240 660 C240 660 163 660 163 660 C163 660 117 660 117 660 C117 660 116 656 116 653 C116 653 114 645 114 645 C114 645 123 645 123 645 C141 645 179 613 194 586 C194 586 319 288 319 288 C308 230 293 145 281 78 C275 50 233 15 207 15 C207 15 195 15 195 15 C195 15 195 11 194 8 C194 4 193 0 193 0 C193 0 268 0 268 0 C268 0 332 0 332 0 C332 0 396 0 396 0 C396 0 471 0 471 0 C470 0 471 4 472 8 C472 11 473 15 473 15 C473 15 462 15 462 15 C434 15 405 52 410 80 C410 80 410 80 410 80 L410 80 Z " />
<glyph glyph-name="agrave" unicode="&#xe0;" horiz-adv-x="589" d="M504 141 C504 141 504 141 504 141 C525 260 547 380 567 500 C567 500 535 500 535 500 C535 500 461 426 461 426 C444 461 392 505 358 505 C266 505 114 341 93 219 C76 123 151 -5 223 -5 C254 -5 333 49 381 99 C375 64 369 30 363 -5 C363 -5 382 -5 382 -5 C382 -5 449 18 449 18 C449 18 563 51 563 51 C563 51 563 52 563 52 C564 55 565 60 565 60 C565 60 554 62 554 62 C517 71 497 102 504 141 C504 141 504 141 504 141 L504 141 Z M359 699 C353 721 342 749 338 749 C324 749 265 711 264 701 C263 696 279 670 292 654 C292 654 389 530 389 530 C389 530 404 539 404 539 C404 539 359 699 359 699 L359 699 Z M385 121 C361 94 316 65 299 65 C250 65 206 178 221 263 C237 353 309 474 347 474 C379 474 429 428 435 400 C418 307 402 214 385 121 C385 121 385 121 385 121 L385 121 Z " />
<glyph glyph-name="aacute" unicode="&#xe1;" horiz-adv-x="511" d="M290 530 C290 530 429 654 429 654 C447 670 472 696 472 701 C474 711 429 749 415 749 C412 749 392 721 378 699 C378 699 279 539 279 539 C279 539 290 530 290 530 L290 530 Z M501 64 C494 56 471 45 453 45 C431 45 420 84 425 112 C425 112 467 352 467 352 C478 417 413 505 352 505 C270 505 136 438 118 388 C118 388 233 388 233 388 C246 424 296 473 320 473 C340 473 358 419 350 378 C350 378 330 262 330 262 C330 262 261 252 261 252 C182 240 64 156 55 105 C46 58 103 -5 153 -5 C192 -5 256 20 304 49 C313 17 334 -10 364 -10 C419 -10 490 23 512 48 C512 48 501 64 501 64 L501 64 Z M324 232 C324 232 301 100 301 100 C300 95 300 90 300 84 C274 77 246 72 225 72 C198 72 170 110 175 138 C179 164 225 209 255 216 C255 216 324 232 324 232 L324 232 Z " />
<glyph glyph-name="acircumflex" unicode="&#xe2;" horiz-adv-x="589" d="M504 141 C504 141 504 141 504 141 C525 260 547 380 567 500 C567 500 535 500 535 500 C535 500 461 426 461 426 C444 461 392 505 358 505 C266 505 114 341 93 219 C76 123 151 -5 223 -5 C254 -5 333 49 381 99 C375 64 369 30 363 -5 C363 -5 382 -5 382 -5 C382 -5 449 18 449 18 C449 18 563 51 563 51 C563 51 563 52 563 52 C564 55 565 60 565 60 C565 60 554 62 554 62 C517 71 497 102 504 141 C504 141 504 141 504 141 L504 141 Z M338 639 C338 639 428 531 428 531 C428 531 442 541 442 541 C442 541 387 712 387 712 C384 719 369 744 356 744 C342 744 318 719 313 712 C313 712 198 541 198 541 C198 541 208 531 208 531 C208 531 338 639 338 639 L338 639 Z M385 121 C361 94 316 65 299 65 C250 65 206 178 221 263 C237 353 309 474 347 474 C379 474 429 428 435 400 C418 307 402 214 385 121 C385 121 385 121 385 121 L385 121 Z " />
<glyph glyph-name="atilde" unicode="&#xe3;" horiz-adv-x="589" d="M190 595 C194 619 222 651 239 651 C280 651 356 588 397 588 C435 588 500 666 510 725 C510 725 491 725 491 725 C487 699 455 665 435 665 C394 665 318 727 277 727 C242 727 181 651 171 595 C171 595 190 595 190 595 L190 595 Z M504 141 C504 141 504 141 504 141 C525 260 547 380 567 500 C567 500 535 500 535 500 C535 500 461 426 461 426 C444 461 392 505 358 505 C266 505 114 341 93 219 C76 123 151 -5 223 -5 C254 -5 333 49 381 99 C375 64 369 30 363 -5 C363 -5 382 -5 382 -5 C382 -5 449 18 449 18 C449 18 563 51 563 51 C563 51 563 52 563 52 C564 55 565 60 565 60 C565 60 554 62 554 62 C517 71 497 102 504 141 C504 141 504 141 504 141 L504 141 Z M385 121 C361 94 316 65 299 65 C250 65 206 178 221 263 C237 353 309 474 347 474 C379 474 429 428 435 400 C418 307 402 214 385 121 C385 121 385 121 385 121 L385 121 Z " />
<glyph glyph-name="adieresis" unicode="&#xe4;" horiz-adv-x="589" d="M425 570 C455 570 503 610 508 640 C513 671 480 711 450 711 C420 711 372 671 367 640 C362 610 395 570 425 570 L425 570 Z M224 570 C254 570 302 610 307 640 C312 671 279 711 249 711 C219 711 172 671 167 640 C161 610 195 570 224 570 L224 570 Z M504 141 C504 141 504 141 504 141 C525 260 547 380 567 500 C567 500 535 500 535 500 C535 500 461 426 461 426 C444 461 392 505 358 505 C266 505 114 341 93 219 C76 123 151 -5 223 -5 C254 -5 333 49 381 99 C375 64 369 30 363 -5 C363 -5 382 -5 382 -5 C382 -5 449 18 449 18 C449 18 563 51 563 51 C563 51 563 52 563 52 C564 55 565 60 565 60 C565 60 554 62 554 62 C517 71 497 102 504 141 C504 141 504 141 504 141 L504 141 Z M385 121 C361 94 316 65 299 65 C250 65 206 178 221 263 C237 353 309 474 347 474 C379 474 429 428 435 400 C418 307 402 214 385 121 C385 121 385 121 385 121 L385 121 Z " />
<glyph glyph-name="aring" unicode="&#xe5;" horiz-adv-x="589" d="M323 561 C298 561 266 602 271 628 C276 656 319 694 347 694 C374 694 404 656 399 628 C394 602 348 561 323 561 L323 561 Z M239 628 C233 592 282 535 319 535 C355 535 425 592 431 628 C438 667 392 720 351 720 C310 720 246 667 239 628 L239 628 Z M504 141 C504 141 504 141 504 141 C525 260 547 380 567 500 C567 500 535 500 535 500 C535 500 461 426 461 426 C444 461 392 505 358 505 C266 505 114 341 93 219 C76 123 151 -5 223 -5 C254 -5 333 49 381 99 C375 64 369 30 363 -5 C363 -5 382 -5 382 -5 C382 -5 449 18 449 18 C449 18 563 51 563 51 C563 51 563 52 563 52 C564 55 565 60 565 60 C565 60 554 62 554 62 C517 71 497 102 504 141 C504 141 504 141 504 141 L504 141 Z M385 121 C361 94 316 65 299 65 C250 65 206 178 221 263 C237 353 309 474 347 474 C379 474 429 428 435 400 C418 307 402 214 385 121 C385 121 385 121 385 121 L385 121 Z " />
<glyph glyph-name="ccedilla" unicode="&#xe7;" horiz-adv-x="521" d="M485 79 C485 79 477 91 477 91 C461 80 399 65 368 65 C289 65 204 184 220 273 C235 359 325 473 376 473 C404 473 437 434 435 404 C432 380 459 348 482 348 C504 348 538 377 542 399 C546 444 462 505 395 505 C285 505 111 347 91 229 C73 129 170 -5 260 -5 C307 -5 436 43 485 79 L485 79 Z " />
<glyph glyph-name="egrave" unicode="&#xe8;" horiz-adv-x="527" d="M491 79 C491 79 483 91 483 91 C467 80 404 65 371 65 C291 65 204 184 220 273 C222 282 224 291 227 300 C227 300 531 300 531 300 C546 387 457 505 374 505 C274 505 111 347 91 229 C73 129 172 -5 263 -5 C312 -5 443 43 491 79 L491 79 Z M419 699 C414 721 402 749 399 749 C385 749 326 711 324 701 C324 696 340 670 353 654 C353 654 450 530 450 530 C450 530 465 539 465 539 C465 539 419 699 419 699 L419 699 Z M234 322 C263 397 325 473 362 473 C402 473 446 429 440 396 C440 396 440 396 440 395 C436 374 402 342 379 337 C379 337 234 322 234 322 L234 322 Z " />
<glyph glyph-name="eacute" unicode="&#xe9;" horiz-adv-x="527" d="M348 530 C348 530 486 654 486 654 C505 670 529 696 530 701 C532 711 487 749 473 749 C470 749 449 721 436 699 C436 699 337 539 337 539 C337 539 348 530 348 530 L348 530 Z M491 79 C491 79 483 91 483 91 C467 80 404 65 371 65 C291 65 204 184 220 273 C222 282 224 291 227 300 C227 300 531 300 531 300 C546 387 457 505 374 505 C274 505 111 347 91 229 C73 129 172 -5 263 -5 C312 -5 443 43 491 79 L491 79 Z M234 322 C263 397 325 473 362 473 C402 473 446 429 440 396 C440 396 440 396 440 395 C436 374 402 342 379 337 C379 337 234 322 234 322 L234 322 Z " />
<glyph glyph-name="ecircumflex" unicode="&#xea;" horiz-adv-x="527" d="M491 79 C491 79 483 91 483 91 C467 80 404 65 371 65 C291 65 204 184 220 273 C222 282 224 291 227 300 C227 300 531 300 531 300 C546 387 457 505 374 505 C274 505 111 347 91 229 C73 129 172 -5 263 -5 C312 -5 443 43 491 79 L491 79 Z M398 639 C398 639 489 531 489 531 C489 531 502 541 502 541 C502 541 447 712 447 712 C445 719 429 744 416 744 C403 744 379 719 374 712 C374 712 258 541 258 541 C258 541 268 531 268 531 C268 531 398 639 398 639 L398 639 Z M234 322 C263 397 325 473 362 473 C402 473 446 429 440 396 C440 396 440 396 440 395 C436 374 402 342 379 337 C379 337 234 322 234 322 L234 322 Z " />
<glyph glyph-name="edieresis" unicode="&#xeb;" horiz-adv-x="527" d="M486 570 C516 570 563 610 568 640 C574 671 541 711 511 711 C481 711 433 671 428 640 C423 610 456 570 486 570 L486 570 Z M285 570 C315 570 363 610 368 640 C373 671 340 711 310 711 C280 711 232 671 227 640 C222 610 255 570 285 570 L285 570 Z M491 79 C491 79 483 91 483 91 C467 80 404 65 371 65 C291 65 204 184 220 273 C222 282 224 291 227 300 C227 300 531 300 531 300 C546 387 457 505 374 505 C274 505 111 347 91 229 C73 129 172 -5 263 -5 C312 -5 443 43 491 79 L491 79 Z M234 322 C263 397 325 473 362 473 C402 473 446 429 440 396 C440 396 440 396 440 395 C436 374 402 342 379 337 C379 337 234 322 234 322 L234 322 Z " />
<glyph glyph-name="igrave" unicode="&#xec;" horiz-adv-x="355" d="M235 0 C235 0 309 420 309 420 C309 420 324 505 324 505 C324 505 318 505 318 505 C318 505 137 453 137 453 C137 453 136 450 136 448 C136 445 135 443 135 443 C135 443 177 430 177 430 C185 428 192 410 188 387 C188 387 188 387 188 387 C188 387 120 0 120 0 C121 9 88 15 63 15 C63 15 48 15 48 15 C48 15 47 11 46 8 C46 4 45 0 45 0 C45 0 120 0 120 0 C120 0 235 0 235 0 C235 0 310 0 310 0 C310 0 311 4 311 8 C312 11 313 15 313 15 C313 15 298 15 298 15 C272 15 237 9 235 0 L235 0 Z M312 699 C306 721 295 749 291 749 C277 749 219 711 217 701 C216 696 232 670 245 654 C245 654 343 530 343 530 C343 530 357 539 357 539 C357 539 312 699 312 699 L312 699 Z " />
<glyph glyph-name="iacute" unicode="&#xed;" horiz-adv-x="355" d="M235 0 C235 0 309 420 309 420 C309 420 324 505 324 505 C324 505 318 505 318 505 C318 505 137 453 137 453 C137 453 136 450 136 448 C136 445 135 443 135 443 C135 443 177 430 177 430 C185 428 192 410 188 387 C188 387 188 387 188 387 C188 387 120 0 120 0 C121 9 88 15 63 15 C63 15 48 15 48 15 C48 15 47 11 46 8 C46 4 45 0 45 0 C45 0 120 0 120 0 C120 0 235 0 235 0 C235 0 310 0 310 0 C310 0 311 4 311 8 C312 11 313 15 313 15 C313 15 298 15 298 15 C272 15 237 9 235 0 L235 0 Z M195 530 C195 530 333 654 333 654 C352 670 377 696 377 701 C379 711 334 749 320 749 C317 749 296 721 283 699 C283 699 184 539 184 539 C184 539 195 530 195 530 L195 530 Z " />
<glyph glyph-name="icircumflex" unicode="&#xee;" horiz-adv-x="355" d="M235 0 C235 0 309 420 309 420 C309 420 324 505 324 505 C324 505 318 505 318 505 C318 505 137 453 137 453 C137 453 136 450 136 448 C136 445 135 443 135 443 C135 443 177 430 177 430 C185 428 192 410 188 387 C188 387 188 387 188 387 C188 387 120 0 120 0 C121 9 88 15 63 15 C63 15 48 15 48 15 C48 15 47 11 46 8 C46 4 45 0 45 0 C45 0 120 0 120 0 C120 0 235 0 235 0 C235 0 310 0 310 0 C310 0 311 4 311 8 C312 11 313 15 313 15 C313 15 298 15 298 15 C272 15 237 9 235 0 L235 0 Z M291 639 C291 639 381 531 381 531 C381 531 395 541 395 541 C395 541 340 712 340 712 C338 719 322 744 309 744 C296 744 271 719 267 712 C267 712 151 541 151 541 C151 541 161 531 161 531 C161 531 291 639 291 639 L291 639 Z " />
<glyph glyph-name="idieresis" unicode="&#xef;" horiz-adv-x="355" d="M235 0 C235 0 309 420 309 420 C309 420 324 505 324 505 C324 505 318 505 318 505 C318 505 137 453 137 453 C137 453 136 450 136 448 C136 445 135 443 135 443 C135 443 177 430 177 430 C185 428 192 410 188 387 C188 387 188 387 188 387 C188 387 120 0 120 0 C121 9 88 15 63 15 C63 15 48 15 48 15 C48 15 47 11 46 8 C46 4 45 0 45 0 C45 0 120 0 120 0 C120 0 235 0 235 0 C235 0 310 0 310 0 C310 0 311 4 311 8 C312 11 313 15 313 15 C313 15 298 15 298 15 C272 15 237 9 235 0 L235 0 Z M378 570 C408 570 456 610 461 640 C466 671 433 711 403 711 C373 711 326 671 320 640 C315 610 348 570 378 570 L378 570 Z M178 570 C208 570 255 610 260 640 C266 671 232 711 202 711 C173 711 125 671 120 640 C115 610 148 570 178 570 L178 570 Z " />
<glyph glyph-name="ntilde" unicode="&#xf1;" horiz-adv-x="636" d="M286 595 C290 619 318 651 335 651 C376 651 452 588 493 588 C531 588 596 666 606 725 C606 725 587 725 587 725 C583 699 551 665 531 665 C490 665 414 727 373 727 C338 727 277 651 267 595 C267 595 286 595 286 595 L286 595 Z M307 414 C329 421 370 428 397 428 C440 428 471 370 463 326 C463 326 420 79 420 79 C414 51 372 15 345 15 C345 15 334 15 334 15 C334 15 333 11 332 8 C332 4 331 0 331 0 C331 0 406 0 406 0 C406 0 464 0 464 0 C464 0 521 0 521 0 C521 0 596 0 596 0 C596 0 597 4 597 7 C597 7 599 15 599 15 C599 15 588 15 588 15 C561 15 533 49 535 76 C535 76 581 338 581 338 C593 409 556 505 499 505 C454 505 356 466 311 432 C311 432 323 500 323 500 C323 500 300 500 300 500 C300 500 124 449 124 449 C123 449 123 449 123 448 C123 445 122 440 122 440 C122 440 133 438 133 438 C167 431 186 402 184 367 C184 367 133 80 133 80 C133 80 133 80 133 80 C128 52 85 15 58 15 C58 15 47 15 47 15 C47 15 46 11 46 8 C46 8 44 0 44 0 C44 0 119 0 119 0 C119 0 177 0 177 0 C177 0 234 0 234 0 C234 0 309 0 309 0 C310 0 310 4 311 8 C311 11 312 15 312 15 C312 15 301 15 301 15 C275 15 246 50 248 78 C248 78 303 390 303 390 C303 390 307 414 307 414 L307 414 Z " />
<glyph glyph-name="ograve" unicode="&#xf2;" horiz-adv-x="606" d="M307 21 C253 21 205 152 222 250 C239 348 334 479 388 479 C442 479 490 348 473 250 C456 152 361 21 307 21 L307 21 Z M94 250 C75 141 194 -5 303 -5 C411 -5 582 141 601 250 C620 359 501 505 393 505 C284 505 113 359 94 250 L94 250 Z M438 699 C432 721 421 749 417 749 C403 749 345 711 343 701 C342 696 358 670 371 654 C371 654 469 530 469 530 C469 530 483 539 483 539 C483 539 438 699 438 699 L438 699 Z " />
<glyph glyph-name="oacute" unicode="&#xf3;" horiz-adv-x="606" d="M367 530 C367 530 505 654 505 654 C523 670 548 696 549 701 C551 711 506 749 492 749 C489 749 468 721 454 699 C454 699 356 539 356 539 C356 539 367 530 367 530 L367 530 Z M307 21 C253 21 205 152 222 250 C239 348 334 479 388 479 C442 479 490 348 473 250 C456 152 361 21 307 21 L307 21 Z M94 250 C75 141 194 -5 303 -5 C411 -5 582 141 601 250 C620 359 501 505 393 505 C284 505 113 359 94 250 L94 250 Z " />
<glyph glyph-name="ocircumflex" unicode="&#xf4;" horiz-adv-x="606" d="M307 21 C253 21 205 152 222 250 C239 348 334 479 388 479 C442 479 490 348 473 250 C456 152 361 21 307 21 L307 21 Z M94 250 C75 141 194 -5 303 -5 C411 -5 582 141 601 250 C620 359 501 505 393 505 C284 505 113 359 94 250 L94 250 Z M417 639 C417 639 507 531 507 531 C507 531 521 541 521 541 C521 541 466 712 466 712 C463 719 448 744 435 744 C422 744 397 719 393 712 C393 712 277 541 277 541 C277 541 287 531 287 531 C287 531 417 639 417 639 L417 639 Z " />
<glyph glyph-name="otilde" unicode="&#xf5;" horiz-adv-x="606" d="M269 595 C273 619 301 651 318 651 C359 651 435 588 476 588 C515 588 579 666 590 725 C590 725 571 725 571 725 C566 699 534 665 515 665 C473 665 397 727 356 727 C321 727 260 651 250 595 C250 595 269 595 269 595 L269 595 Z M307 21 C253 21 205 152 222 250 C239 348 334 479 388 479 C442 479 490 348 473 250 C456 152 361 21 307 21 L307 21 Z M94 250 C75 141 194 -5 303 -5 C411 -5 582 141 601 250 C620 359 501 505 393 505 C284 505 113 359 94 250 L94 250 Z " />
<glyph glyph-name="odieresis" unicode="&#xf6;" horiz-adv-x="606" d="M504 570 C534 570 582 610 587 640 C592 671 559 711 529 711 C499 711 452 671 446 640 C441 610 474 570 504 570 L504 570 Z M304 570 C334 570 381 610 386 640 C391 671 358 711 328 711 C298 711 251 671 246 640 C241 610 274 570 304 570 L304 570 Z M307 21 C253 21 205 152 222 250 C239 348 334 479 388 479 C442 479 490 348 473 250 C456 152 361 21 307 21 L307 21 Z M94 250 C75 141 194 -5 303 -5 C411 -5 582 141 601 250 C620 359 501 505 393 505 C284 505 113 359 94 250 L94 250 Z " />
<glyph glyph-name="oslash" unicode="&#xf8;" horiz-adv-x="606" d="M60 -19 C60 -19 162 68 162 68 C202 25 253 -5 303 -5 C411 -5 582 141 601 250 C610 300 590 357 555 404 C555 404 657 491 657 491 C657 491 635 519 635 519 C635 519 533 432 533 432 C493 475 442 505 393 505 C284 505 113 359 94 250 C85 201 105 143 140 96 C140 96 38 9 38 9 C38 9 60 -19 60 -19 L60 -19 Z M307 21 C275 21 245 67 229 126 C229 126 474 334 474 334 C477 306 478 277 473 250 C456 152 361 21 307 21 C307 21 307 21 307 21 L307 21 Z M221 166 C218 194 217 223 222 250 C239 348 334 479 388 479 C420 479 450 433 466 374 C466 374 221 166 221 166 L221 166 Z " />
<glyph glyph-name="ugrave" unicode="&#xf9;" horiz-adv-x="601" d="M516 141 C516 141 516 141 516 141 C516 141 579 500 579 500 C579 500 522 500 522 500 C522 500 464 500 464 500 C464 500 389 500 389 500 C389 500 388 496 388 493 C387 489 387 485 387 485 C387 485 398 485 398 485 C424 485 453 451 450 423 C450 423 392 92 392 92 C375 82 343 71 324 71 C273 71 226 125 233 166 C233 166 293 500 293 500 C293 500 235 500 235 500 C235 500 178 500 178 500 C178 500 103 500 103 500 C102 500 100 486 100 485 C100 485 111 485 111 485 C138 485 168 448 163 420 C163 420 164 420 164 420 C164 420 117 154 117 154 C105 86 159 -5 220 -5 C255 -5 338 36 389 74 C389 74 381 30 381 30 C381 30 381 30 381 30 C381 30 376 0 376 0 C376 0 399 0 399 0 C399 0 575 51 575 51 C575 51 575 52 575 52 C576 55 577 60 577 60 C577 60 566 62 566 62 C529 71 509 102 516 141 C516 141 516 141 516 141 L516 141 Z M425 699 C419 721 408 749 404 749 C390 749 331 711 330 701 C329 696 345 670 358 654 C358 654 455 530 455 530 C455 530 470 539 470 539 C470 539 425 699 425 699 L425 699 Z " />
<glyph glyph-name="uacute" unicode="&#xfa;" horiz-adv-x="601" d="M353 530 C353 530 492 654 492 654 C510 670 535 696 536 701 C537 711 492 749 478 749 C475 749 455 721 441 699 C441 699 342 539 342 539 C342 539 353 530 353 530 L353 530 Z M516 141 C516 141 516 141 516 141 C516 141 579 500 579 500 C579 500 522 500 522 500 C522 500 464 500 464 500 C464 500 389 500 389 500 C389 500 388 496 388 493 C387 489 387 485 387 485 C387 485 398 485 398 485 C424 485 453 451 450 423 C450 423 392 92 392 92 C375 82 343 71 324 71 C273 71 226 125 233 166 C233 166 293 500 293 500 C293 500 235 500 235 500 C235 500 178 500 178 500 C178 500 103 500 103 500 C102 500 100 486 100 485 C100 485 111 485 111 485 C138 485 168 448 163 420 C163 420 164 420 164 420 C164 420 117 154 117 154 C105 86 159 -5 220 -5 C255 -5 338 36 389 74 C389 74 381 30 381 30 C381 30 381 30 381 30 C381 30 376 0 376 0 C376 0 399 0 399 0 C399 0 575 51 575 51 C575 51 575 52 575 52 C576 55 577 60 577 60 C577 60 566 62 566 62 C529 71 509 102 516 141 C516 141 516 141 516 141 L516 141 Z " />
<glyph glyph-name="ucircumflex" unicode="&#xfb;" horiz-adv-x="601" d="M516 141 C516 141 516 141 516 141 C516 141 579 500 579 500 C579 500 522 500 522 500 C522 500 464 500 464 500 C464 500 389 500 389 500 C389 500 388 496 388 493 C387 489 387 485 387 485 C387 485 398 485 398 485 C424 485 453 451 450 423 C450 423 392 92 392 92 C375 82 343 71 324 71 C273 71 226 125 233 166 C233 166 293 500 293 500 C293 500 235 500 235 500 C235 500 178 500 178 500 C178 500 103 500 103 500 C102 500 100 486 100 485 C100 485 111 485 111 485 C138 485 168 448 163 420 C163 420 164 420 164 420 C164 420 117 154 117 154 C105 86 159 -5 220 -5 C255 -5 338 36 389 74 C389 74 381 30 381 30 C381 30 381 30 381 30 C381 30 376 0 376 0 C376 0 399 0 399 0 C399 0 575 51 575 51 C575 51 575 52 575 52 C576 55 577 60 577 60 C577 60 566 62 566 62 C529 71 509 102 516 141 C516 141 516 141 516 141 L516 141 Z M404 639 C404 639 494 531 494 531 C494 531 508 541 508 541 C508 541 452 712 452 712 C450 719 435 744 421 744 C408 744 384 719 379 712 C379 712 264 541 264 541 C264 541 274 531 274 531 C274 531 404 639 404 639 L404 639 Z " />
<glyph glyph-name="udieresis" unicode="&#xfc;" horiz-adv-x="601" d="M491 570 C521 570 568 610 574 640 C579 671 546 711 516 711 C486 711 438 671 433 640 C428 610 461 570 491 570 L491 570 Z M290 570 C320 570 368 610 373 640 C378 671 345 711 315 711 C285 711 238 671 233 640 C227 610 261 570 290 570 L290 570 Z M516 141 C516 141 516 141 516 141 C516 141 579 500 579 500 C579 500 522 500 522 500 C522 500 464 500 464 500 C464 500 389 500 389 500 C389 500 388 496 388 493 C387 489 387 485 387 485 C387 485 398 485 398 485 C424 485 453 451 450 423 C450 423 392 92 392 92 C375 82 343 71 324 71 C273 71 226 125 233 166 C233 166 293 500 293 500 C293 500 235 500 235 500 C235 500 178 500 178 500 C178 500 103 500 103 500 C102 500 100 486 100 485 C100 485 111 485 111 485 C138 485 168 448 163 420 C163 420 164 420 164 420 C164 420 117 154 117 154 C105 86 159 -5 220 -5 C255 -5 338 36 389 74 C389 74 381 30 381 30 C381 30 381 30 381 30 C381 30 376 0 376 0 C376 0 399 0 399 0 C399 0 575 51 575 51 C575 51 575 52 575 52 C576 55 577 60 577 60 C577 60 566 62 566 62 C529 71 509 102 516 141 C516 141 516 141 516 141 L516 141 Z " />
<glyph glyph-name="ydieresis" unicode="&#xff;" horiz-adv-x="536" d="M489 570 C519 570 566 610 572 640 C577 671 544 711 514 711 C484 711 436 671 431 640 C426 610 459 570 489 570 L489 570 Z M288 570 C318 570 366 610 371 640 C376 671 343 711 313 711 C283 711 236 671 231 640 C225 610 259 570 288 570 L288 570 Z M527 420 C527 420 527 420 527 420 C527 420 365 137 365 137 C365 137 292 425 292 425 C289 452 312 485 335 485 C335 485 345 485 345 485 C345 485 347 493 347 493 C347 496 348 500 348 500 C348 500 273 500 273 500 C273 500 207 500 207 500 C207 500 141 500 141 500 C141 500 73 500 73 500 C73 500 72 496 72 493 C71 489 71 485 70 485 C70 485 82 485 82 485 C108 485 153 450 162 423 C162 423 277 6 277 6 C277 6 234 -62 234 -62 C205 -109 154 -154 130 -154 C109 -154 67 -129 46 -129 C21 -129 -17 -157 -20 -178 C-24 -200 14 -230 46 -230 C108 -230 213 -153 263 -72 C263 -72 301 -10 301 -10 C301 -10 562 420 562 420 C562 420 563 420 563 420 C580 448 639 485 666 485 C666 485 677 485 677 485 C677 485 679 493 679 493 C679 496 680 500 680 500 C680 500 611 500 611 500 C611 500 592 500 592 500 C592 500 573 500 573 500 C573 500 498 500 498 500 C498 500 497 496 497 493 C497 493 495 485 495 485 C495 485 506 485 506 485 C531 485 543 448 527 420 C527 420 527 420 527 420 L527 420 Z " />
<glyph glyph-name="Amacron" unicode="&#x100;" horiz-adv-x="708" d="M315 761 C315 761 615 761 615 761 C615 761 626 825 626 825 C626 825 326 825 326 825 C326 825 315 761 315 761 L315 761 Z M447 232 C447 232 484 80 484 80 C484 80 484 80 484 80 C491 52 463 15 435 15 C435 15 403 15 403 15 C403 15 402 11 401 8 C401 4 400 0 400 0 C400 0 504 0 504 0 C504 0 573 0 573 0 C573 0 643 0 643 0 C643 0 703 0 703 0 C703 0 704 4 704 7 C704 7 706 15 706 15 C706 15 696 15 696 15 C672 15 631 50 622 78 C622 78 466 675 466 675 C466 675 434 675 434 675 C434 675 107 75 107 75 C88 47 36 15 11 15 C11 15 0 15 0 15 C0 15 -1 11 -2 8 C-2 4 -3 0 -3 0 C-3 0 66 0 66 0 C66 0 88 0 88 0 C88 0 109 0 109 0 C109 0 219 0 219 0 C219 0 220 4 220 8 C221 11 221 15 221 15 C221 15 197 15 197 15 C164 15 143 57 157 91 C157 91 232 232 232 232 C232 232 447 232 447 232 L447 232 Z M439 264 C439 264 249 264 249 264 C249 264 378 509 378 509 C378 509 439 264 439 264 L439 264 Z " />
<glyph glyph-name="amacron" unicode="&#x101;" horiz-adv-x="589" d="M180 601 C180 601 480 601 480 601 C480 601 491 665 491 665 C491 665 191 665 191 665 C191 665 180 601 180 601 L180 601 Z M504 141 C504 141 504 141 504 141 C525 260 547 380 567 500 C567 500 535 500 535 500 C535 500 461 426 461 426 C444 461 392 505 358 505 C266 505 114 341 93 219 C76 123 151 -5 223 -5 C254 -5 333 49 381 99 C375 64 369 30 363 -5 C363 -5 382 -5 382 -5 C382 -5 449 18 449 18 C449 18 563 51 563 51 C563 51 563 52 563 52 C564 55 565 60 565 60 C565 60 554 62 554 62 C517 71 497 102 504 141 C504 141 504 141 504 141 L504 141 Z M385 121 C361 94 316 65 299 65 C250 65 206 178 221 263 C237 353 309 474 347 474 C379 474 429 428 435 400 C418 307 402 214 385 121 C385 121 385 121 385 121 L385 121 Z " />
<glyph glyph-name="Abreve" unicode="&#x102;" horiz-adv-x="708" d="M352 870 C366 813 429 736 461 736 C493 736 582 813 616 870 C616 870 599 878 599 878 C582 850 510 812 474 812 C437 812 379 850 372 878 C372 878 352 870 352 870 L352 870 Z M447 232 C447 232 484 80 484 80 C484 80 484 80 484 80 C491 52 463 15 435 15 C435 15 403 15 403 15 C403 15 402 11 401 8 C401 4 400 0 400 0 C400 0 504 0 504 0 C504 0 573 0 573 0 C573 0 643 0 643 0 C643 0 703 0 703 0 C703 0 704 4 704 7 C704 7 706 15 706 15 C706 15 696 15 696 15 C672 15 631 50 622 78 C622 78 466 675 466 675 C466 675 434 675 434 675 C434 675 107 75 107 75 C88 47 36 15 11 15 C11 15 0 15 0 15 C0 15 -1 11 -2 8 C-2 4 -3 0 -3 0 C-3 0 66 0 66 0 C66 0 88 0 88 0 C88 0 109 0 109 0 C109 0 219 0 219 0 C219 0 220 4 220 8 C221 11 221 15 221 15 C221 15 197 15 197 15 C164 15 143 57 157 91 C157 91 232 232 232 232 C232 232 447 232 447 232 L447 232 Z M439 264 C439 264 249 264 249 264 C249 264 378 509 378 509 C378 509 439 264 439 264 L439 264 Z " />
<glyph glyph-name="abreve" unicode="&#x103;" horiz-adv-x="589" d="M212 680 C226 623 288 546 320 546 C352 546 442 623 476 680 C476 680 459 688 459 688 C442 660 371 622 334 622 C297 622 239 660 232 688 C232 688 212 680 212 680 L212 680 Z M504 141 C504 141 504 141 504 141 C525 260 547 380 567 500 C567 500 535 500 535 500 C535 500 461 426 461 426 C444 461 392 505 358 505 C266 505 114 341 93 219 C76 123 151 -5 223 -5 C254 -5 333 49 381 99 C375 64 369 30 363 -5 C363 -5 382 -5 382 -5 C382 -5 449 18 449 18 C449 18 563 51 563 51 C563 51 563 52 563 52 C564 55 565 60 565 60 C565 60 554 62 554 62 C517 71 497 102 504 141 C504 141 504 141 504 141 L504 141 Z M385 121 C361 94 316 65 299 65 C250 65 206 178 221 263 C237 353 309 474 347 474 C379 474 429 428 435 400 C418 307 402 214 385 121 C385 121 385 121 385 121 L385 121 Z " />
<glyph glyph-name="Aogonek" unicode="&#x104;" horiz-adv-x="708" d="M462 0 C402 -41 311 -116 304 -155 C298 -189 369 -236 428 -236 C454 -236 506 -219 519 -206 C519 -206 513 -196 513 -196 C509 -199 478 -204 458 -204 C419 -204 372 -169 376 -142 C384 -97 480 -8 504 0 C504 0 573 0 573 0 C573 0 643 0 643 0 C643 0 703 0 703 0 C703 0 704 4 704 7 C704 7 706 15 706 15 C706 15 696 15 696 15 C672 15 631 50 622 78 C622 78 466 675 466 675 C466 675 434 675 434 675 C434 675 107 75 107 75 C88 47 36 15 11 15 C11 15 0 15 0 15 C0 15 -1 11 -2 8 C-2 4 -3 0 -3 0 C-3 0 66 0 66 0 C66 0 88 0 88 0 C88 0 109 0 109 0 C109 0 219 0 219 0 C219 0 220 4 220 8 C221 11 221 15 221 15 C221 15 197 15 197 15 C164 15 143 57 157 91 C157 91 232 232 232 232 C232 232 447 232 447 232 C447 232 484 80 484 80 C484 80 484 80 484 80 C491 52 463 15 435 15 C435 15 403 15 403 15 C403 15 402 11 401 8 C401 4 400 0 400 0 C400 0 462 0 462 0 L462 0 Z M439 264 C439 264 249 264 249 264 C249 264 378 509 378 509 C378 509 439 264 439 264 L439 264 Z " />
<glyph glyph-name="aogonek" unicode="&#x105;" horiz-adv-x="511" d="M501 64 C494 56 471 45 453 45 C431 45 420 84 425 112 C425 112 467 352 467 352 C478 417 413 505 352 505 C270 505 136 438 118 388 C118 388 233 388 233 388 C246 424 296 473 320 473 C340 473 358 419 350 378 C350 378 330 262 330 262 C330 262 261 252 261 252 C182 240 64 156 55 105 C46 58 103 -5 153 -5 C192 -5 256 20 304 49 C313 17 334 -10 364 -10 C374 -10 385 -9 396 -7 C341 -50 279 -107 273 -140 C266 -181 335 -236 395 -236 C421 -236 473 -219 486 -206 C486 -206 480 -196 480 -196 C476 -199 445 -204 425 -204 C385 -204 340 -160 346 -128 C353 -85 433 -5 465 16 C486 26 503 38 512 48 C512 48 501 64 501 64 L501 64 Z M324 232 C324 232 301 100 301 100 C300 95 300 90 300 84 C274 77 246 72 225 72 C198 72 170 110 175 138 C179 164 225 209 255 216 C255 216 324 232 324 232 L324 232 Z " />
<glyph glyph-name="Cacute" unicode="&#x106;" horiz-adv-x="731" d="M495 690 C495 690 633 814 633 814 C651 830 676 856 677 861 C679 871 634 909 620 909 C617 909 596 881 583 859 C583 859 484 699 484 699 C484 699 495 690 495 690 L495 690 Z M752 453 C752 453 779 607 779 607 C740 632 601 665 536 665 C375 665 125 473 100 330 C75 187 257 -5 418 -5 C483 -5 634 28 681 53 C681 53 708 207 708 207 C708 207 695 207 695 207 C691 199 680 178 676 170 C648 118 527 42 458 29 C444 28 433 27 423 27 C322 27 218 200 241 330 C263 460 429 633 530 633 C548 633 573 630 599 626 C649 612 723 538 732 490 C733 482 737 461 739 453 C739 453 752 453 752 453 L752 453 Z " />
<glyph glyph-name="cacute" unicode="&#x107;" horiz-adv-x="521" d="M323 530 C323 530 462 654 462 654 C480 670 505 696 506 701 C507 711 462 749 448 749 C445 749 424 721 411 699 C411 699 312 539 312 539 C312 539 323 530 323 530 L323 530 Z M485 79 C485 79 477 91 477 91 C461 80 399 65 368 65 C289 65 204 184 220 273 C235 359 325 473 376 473 C404 473 437 434 435 404 C432 380 459 348 482 348 C504 348 538 377 542 399 C546 444 462 505 395 505 C285 505 111 347 91 229 C73 129 170 -5 260 -5 C307 -5 436 43 485 79 L485 79 Z " />
<glyph glyph-name="Ccircumflex" unicode="&#x108;" horiz-adv-x="731" d="M752 453 C752 453 779 607 779 607 C740 632 601 665 536 665 C375 665 125 473 100 330 C75 187 257 -5 418 -5 C483 -5 634 28 681 53 C681 53 708 207 708 207 C708 207 695 207 695 207 C691 199 680 178 676 170 C648 118 527 42 458 29 C444 28 433 27 423 27 C322 27 218 200 241 330 C263 460 429 633 530 633 C548 633 573 630 599 626 C649 612 723 538 732 490 C733 482 737 461 739 453 C739 453 752 453 752 453 L752 453 Z M560 800 C560 800 651 691 651 691 C651 691 664 701 664 701 C664 701 609 872 609 872 C607 879 591 904 578 904 C565 904 541 879 536 872 C536 872 420 701 420 701 C420 701 430 691 430 691 C430 691 560 800 560 800 L560 800 Z " />
<glyph glyph-name="Cdotaccent" unicode="&#x10a;" horiz-adv-x="731" d="M547 730 C577 730 625 770 630 800 C635 831 602 871 572 871 C542 871 495 831 490 800 C484 770 517 730 547 730 L547 730 Z M752 453 C752 453 779 607 779 607 C740 632 601 665 536 665 C375 665 125 473 100 330 C75 187 257 -5 418 -5 C483 -5 634 28 681 53 C681 53 708 207 708 207 C708 207 695 207 695 207 C691 199 680 178 676 170 C648 118 527 42 458 29 C444 28 433 27 423 27 C322 27 218 200 241 330 C263 460 429 633 530 633 C548 633 573 630 599 626 C649 612 723 538 732 490 C733 482 737 461 739 453 C739 453 752 453 752 453 L752 453 Z " />
<glyph glyph-name="cdotaccent" unicode="&#x10b;" horiz-adv-x="521" d="M406 570 C436 570 484 610 489 640 C494 671 461 711 431 711 C401 711 353 671 348 640 C343 610 376 570 406 570 L406 570 Z M485 79 C485 79 477 91 477 91 C461 80 399 65 368 65 C289 65 204 184 220 273 C235 359 325 473 376 473 C404 473 437 434 435 404 C432 380 459 348 482 348 C504 348 538 377 542 399 C546 444 462 505 395 505 C285 505 111 347 91 229 C73 129 170 -5 260 -5 C307 -5 436 43 485 79 L485 79 Z " />
<glyph glyph-name="Ccaron" unicode="&#x10c;" horiz-adv-x="731" d="M752 453 C752 453 779 607 779 607 C740 632 601 665 536 665 C375 665 125 473 100 330 C75 187 257 -5 418 -5 C483 -5 634 28 681 53 C681 53 708 207 708 207 C708 207 695 207 695 207 C691 199 680 178 676 170 C648 118 527 42 458 29 C444 28 433 27 423 27 C322 27 218 200 241 330 C263 460 429 633 530 633 C548 633 573 630 599 626 C649 612 723 538 732 490 C733 482 737 461 739 453 C739 453 752 453 752 453 L752 453 Z M563 820 C563 820 693 929 693 929 C693 929 703 919 703 919 C703 919 587 748 587 748 C583 741 558 716 545 716 C532 716 516 741 514 748 C514 748 459 919 459 919 C459 919 472 929 472 929 C472 929 563 820 563 820 L563 820 Z " />
<glyph glyph-name="ccaron" unicode="&#x10d;" horiz-adv-x="521" d="M485 79 C485 79 477 91 477 91 C461 80 399 65 368 65 C289 65 204 184 220 273 C235 359 325 473 376 473 C404 473 437 434 435 404 C432 380 459 348 482 348 C504 348 538 377 542 399 C546 444 462 505 395 505 C285 505 111 347 91 229 C73 129 170 -5 260 -5 C307 -5 436 43 485 79 L485 79 Z M422 660 C422 660 552 769 552 769 C552 769 562 759 562 759 C562 759 446 588 446 588 C441 581 417 556 404 556 C390 556 375 581 373 588 C373 588 318 759 318 759 C318 759 331 769 331 769 C331 769 422 660 422 660 L422 660 Z " />
<glyph glyph-name="Dcaron" unicode="&#x10e;" horiz-adv-x="766" d="M493 820 C493 820 623 929 623 929 C623 929 633 919 633 919 C633 919 517 748 517 748 C512 741 488 716 475 716 C462 716 446 741 444 748 C444 748 388 919 388 919 C388 919 402 929 402 929 C402 929 493 820 493 820 L493 820 Z M172 0 C172 0 236 0 236 0 C236 0 377 0 377 0 C522 0 750 189 775 330 C800 471 619 660 458 660 C458 660 352 660 352 660 C352 660 347 628 347 628 C347 628 452 628 452 628 C558 628 670 457 647 330 C625 203 473 32 383 32 C383 32 242 32 242 32 C242 32 352 660 352 660 C352 660 288 660 288 660 C288 660 224 660 224 660 C224 660 149 660 149 660 C149 660 149 656 148 653 C148 649 147 645 147 645 C147 645 158 645 158 645 C184 645 214 610 210 582 C210 582 122 80 122 80 C122 80 122 80 122 80 C117 52 74 15 47 15 C47 15 36 15 36 15 C36 15 35 11 34 8 C34 4 33 0 33 0 C33 0 108 0 108 0 C108 0 172 0 172 0 L172 0 Z " />
<glyph glyph-name="dcaron" unicode="&#x10f;" horiz-adv-x="611" d="M526 141 C526 141 526 141 526 141 C526 141 609 610 609 610 C609 610 609 610 609 610 C609 610 616 650 616 650 C616 650 623 690 623 690 C623 690 623 690 623 690 C623 690 628 720 628 720 C628 720 605 720 605 720 C605 720 429 669 429 669 C429 669 429 668 429 668 C428 665 427 660 428 660 C428 660 438 658 438 658 C475 650 495 618 488 579 C488 579 488 579 488 579 C488 579 467 458 467 458 C440 483 404 505 377 505 C277 505 114 341 93 219 C76 123 161 -5 242 -5 C271 -5 350 31 397 62 C397 62 391 30 391 30 C391 30 391 30 391 30 C391 30 386 0 386 0 C386 0 409 0 409 0 C409 0 585 51 585 51 C585 51 585 52 585 52 C586 55 587 60 587 60 C587 60 576 62 576 62 C539 71 519 102 526 141 C526 141 526 141 526 141 L526 141 Z M754 616 C780 650 818 719 819 725 C822 738 768 751 752 751 C735 751 697 675 686 643 C686 643 632 477 632 477 C632 477 645 472 645 472 C645 472 754 616 754 616 L754 616 Z M400 81 C382 73 341 65 318 65 C261 65 206 178 221 263 C237 353 320 474 366 474 C395 474 438 444 459 415 C459 415 400 81 400 81 L400 81 Z " />
<glyph glyph-name="Emacron" unicode="&#x112;" horiz-adv-x="652" d="M517 251 C521 271 530 323 534 347 C534 347 535 352 535 352 C535 352 538 368 538 368 C538 368 538 368 538 368 C542 392 549 428 551 443 C551 443 539 443 539 443 C539 443 533 432 533 432 C520 404 454 368 418 368 C418 368 308 368 308 368 C308 368 303 341 303 341 C303 341 359 660 359 660 C359 660 354 628 354 628 C354 628 499 628 499 628 C542 628 608 571 614 528 C614 528 619 493 619 493 C619 493 630 493 630 493 C636 526 651 612 657 644 C657 647 659 657 660 660 C660 660 644 660 644 660 C644 660 580 660 580 660 C580 660 359 660 359 660 C359 660 295 660 295 660 C295 660 231 660 231 660 C231 660 156 660 156 660 C156 659 154 645 154 645 C154 645 165 645 165 645 C191 645 221 610 217 582 C217 582 129 80 129 80 C129 80 129 80 129 80 C124 52 81 15 54 15 C54 15 43 15 43 15 C43 15 42 11 41 8 C41 4 40 0 40 0 C40 0 115 0 115 0 C115 0 179 0 179 0 C179 0 243 0 243 0 C243 0 462 0 462 0 C462 0 538 0 538 0 C538 0 542 0 542 0 C544 3 547 13 548 16 C559 48 590 135 601 167 C601 167 590 167 590 167 C590 167 566 132 566 132 C537 89 441 32 399 32 C399 32 249 32 249 32 C249 32 302 336 302 336 C302 336 412 336 412 336 C448 336 501 295 504 264 C504 264 505 251 505 251 C505 251 517 251 517 251 L517 251 Z M306 761 C306 761 606 761 606 761 C606 761 617 825 617 825 C617 825 317 825 317 825 C317 825 306 761 306 761 L306 761 Z " />
<glyph glyph-name="emacron" unicode="&#x113;" horiz-adv-x="527" d="M241 601 C241 601 541 601 541 601 C541 601 552 665 552 665 C552 665 252 665 252 665 C252 665 241 601 241 601 L241 601 Z M491 79 C491 79 483 91 483 91 C467 80 404 65 371 65 C291 65 204 184 220 273 C222 282 224 291 227 300 C227 300 531 300 531 300 C546 387 457 505 374 505 C274 505 111 347 91 229 C73 129 172 -5 263 -5 C312 -5 443 43 491 79 L491 79 Z M234 322 C263 397 325 473 362 473 C402 473 446 429 440 396 C440 396 440 396 440 395 C436 374 402 342 379 337 C379 337 234 322 234 322 L234 322 Z " />
<glyph glyph-name="Ebreve" unicode="&#x114;" horiz-adv-x="652" d="M517 251 C521 271 530 323 534 347 C534 347 535 352 535 352 C535 352 538 368 538 368 C538 368 538 368 538 368 C542 392 549 428 551 443 C551 443 539 443 539 443 C539 443 533 432 533 432 C520 404 454 368 418 368 C418 368 308 368 308 368 C308 368 303 341 303 341 C303 341 359 660 359 660 C359 660 354 628 354 628 C354 628 499 628 499 628 C542 628 608 571 614 528 C614 528 619 493 619 493 C619 493 630 493 630 493 C636 526 651 612 657 644 C657 647 659 657 660 660 C660 660 644 660 644 660 C644 660 580 660 580 660 C580 660 359 660 359 660 C359 660 295 660 295 660 C295 660 231 660 231 660 C231 660 156 660 156 660 C156 659 154 645 154 645 C154 645 165 645 165 645 C191 645 221 610 217 582 C217 582 129 80 129 80 C129 80 129 80 129 80 C124 52 81 15 54 15 C54 15 43 15 43 15 C43 15 42 11 41 8 C41 4 40 0 40 0 C40 0 115 0 115 0 C115 0 179 0 179 0 C179 0 243 0 243 0 C243 0 462 0 462 0 C462 0 538 0 538 0 C538 0 542 0 542 0 C544 3 547 13 548 16 C559 48 590 135 601 167 C601 167 590 167 590 167 C590 167 566 132 566 132 C537 89 441 32 399 32 C399 32 249 32 249 32 C249 32 302 336 302 336 C302 336 412 336 412 336 C448 336 501 295 504 264 C504 264 505 251 505 251 C505 251 517 251 517 251 L517 251 Z M343 870 C357 813 419 736 451 736 C483 736 573 813 607 870 C607 870 590 878 590 878 C573 850 501 812 465 812 C428 812 370 850 363 878 C363 878 343 870 343 870 L343 870 Z " />
<glyph glyph-name="ebreve" unicode="&#x115;" horiz-adv-x="527" d="M278 710 C292 653 354 576 386 576 C419 576 508 653 542 710 C542 710 525 718 525 718 C508 690 436 652 400 652 C363 652 305 690 298 718 C298 718 278 710 278 710 L278 710 Z M491 79 C491 79 483 91 483 91 C467 80 404 65 371 65 C291 65 204 184 220 273 C222 282 224 291 227 300 C227 300 531 300 531 300 C546 387 457 505 374 505 C274 505 111 347 91 229 C73 129 172 -5 263 -5 C312 -5 443 43 491 79 L491 79 Z M234 322 C263 397 325 473 362 473 C402 473 446 429 440 396 C440 396 440 396 440 395 C436 374 402 342 379 337 C379 337 234 322 234 322 L234 322 Z " />
<glyph glyph-name="Edotaccent" unicode="&#x116;" horiz-adv-x="652" d="M517 251 C521 271 530 323 534 347 C534 347 535 352 535 352 C535 352 538 368 538 368 C538 368 538 368 538 368 C542 392 549 428 551 443 C551 443 539 443 539 443 C539 443 533 432 533 432 C520 404 454 368 418 368 C418 368 308 368 308 368 C308 368 303 341 303 341 C303 341 359 660 359 660 C359 660 354 628 354 628 C354 628 499 628 499 628 C542 628 608 571 614 528 C614 528 619 493 619 493 C619 493 630 493 630 493 C636 526 651 612 657 644 C657 647 659 657 660 660 C660 660 644 660 644 660 C644 660 580 660 580 660 C580 660 359 660 359 660 C359 660 295 660 295 660 C295 660 231 660 231 660 C231 660 156 660 156 660 C156 659 154 645 154 645 C154 645 165 645 165 645 C191 645 221 610 217 582 C217 582 129 80 129 80 C129 80 129 80 129 80 C124 52 81 15 54 15 C54 15 43 15 43 15 C43 15 42 11 41 8 C41 4 40 0 40 0 C40 0 115 0 115 0 C115 0 179 0 179 0 C179 0 243 0 243 0 C243 0 462 0 462 0 C462 0 538 0 538 0 C538 0 542 0 542 0 C544 3 547 13 548 16 C559 48 590 135 601 167 C601 167 590 167 590 167 C590 167 566 132 566 132 C537 89 441 32 399 32 C399 32 249 32 249 32 C249 32 302 336 302 336 C302 336 412 336 412 336 C448 336 501 295 504 264 C504 264 505 251 505 251 C505 251 517 251 517 251 L517 251 Z M450 730 C480 730 528 770 533 800 C538 831 505 871 475 871 C445 871 398 831 392 800 C387 770 420 730 450 730 L450 730 Z " />
<glyph glyph-name="edotaccent" unicode="&#x117;" horiz-adv-x="527" d="M386 570 C415 570 463 610 468 640 C473 671 440 711 410 711 C380 711 333 671 328 640 C322 610 356 570 386 570 L386 570 Z M491 79 C491 79 483 91 483 91 C467 80 404 65 371 65 C291 65 204 184 220 273 C222 282 224 291 227 300 C227 300 531 300 531 300 C546 387 457 505 374 505 C274 505 111 347 91 229 C73 129 172 -5 263 -5 C312 -5 443 43 491 79 L491 79 Z M234 322 C263 397 325 473 362 473 C402 473 446 429 440 396 C440 396 440 396 440 395 C436 374 402 342 379 337 C379 337 234 322 234 322 L234 322 Z " />
<glyph glyph-name="Eogonek" unicode="&#x118;" horiz-adv-x="652" d="M517 251 C521 271 530 323 534 347 C534 347 535 352 535 352 C535 352 538 368 538 368 C538 368 538 368 538 368 C542 392 549 428 551 443 C551 443 539 443 539 443 C539 443 533 432 533 432 C520 404 454 368 418 368 C418 368 308 368 308 368 C308 368 303 341 303 341 C303 341 359 660 359 660 C359 660 354 628 354 628 C354 628 499 628 499 628 C542 628 608 571 614 528 C614 528 619 493 619 493 C619 493 630 493 630 493 C636 526 651 612 657 644 C657 647 659 657 660 660 C660 660 644 660 644 660 C644 660 580 660 580 660 C580 660 359 660 359 660 C359 660 295 660 295 660 C295 660 231 660 231 660 C231 660 156 660 156 660 C156 659 154 645 154 645 C154 645 165 645 165 645 C191 645 221 610 217 582 C217 582 129 80 129 80 C129 80 129 80 129 80 C124 52 81 15 54 15 C54 15 43 15 43 15 C43 15 42 11 41 8 C41 4 40 0 40 0 C40 0 115 0 115 0 C115 0 179 0 179 0 C179 0 243 0 243 0 C243 0 462 0 462 0 C462 0 496 0 496 0 C436 -41 345 -116 338 -155 C332 -189 402 -236 462 -236 C488 -236 540 -219 553 -206 C553 -206 547 -196 547 -196 C543 -199 512 -204 492 -204 C453 -204 406 -169 410 -142 C418 -97 514 -8 538 0 C538 0 542 0 542 0 C544 3 547 13 548 16 C559 48 590 135 601 167 C601 167 590 167 590 167 C590 167 566 132 566 132 C537 89 441 32 399 32 C399 32 249 32 249 32 C249 32 302 336 302 336 C302 336 412 336 412 336 C448 336 501 295 504 264 C504 264 505 251 505 251 C505 251 517 251 517 251 L517 251 Z " />
<glyph glyph-name="eogonek" unicode="&#x119;" horiz-adv-x="527" d="M396 30 C396 30 396 31 396 31 C434 46 470 64 491 79 C491 79 483 91 483 91 C467 80 404 65 371 65 C291 65 204 184 220 273 C222 282 224 291 227 300 C227 300 531 300 531 300 C546 387 457 505 374 505 C274 505 111 347 91 229 C73 129 172 -5 263 -5 C277 -5 298 -1 321 5 C264 -39 200 -100 194 -134 C186 -177 255 -236 314 -236 C340 -236 392 -219 406 -206 C406 -206 399 -196 399 -196 C396 -199 365 -204 345 -204 C305 -204 260 -157 266 -121 C275 -72 372 22 396 30 C396 30 396 30 396 30 L396 30 Z M234 322 C263 397 325 473 362 473 C402 473 446 429 440 396 C440 396 440 396 440 395 C436 374 402 342 379 337 C379 337 234 322 234 322 L234 322 Z " />
<glyph glyph-name="Ecaron" unicode="&#x11a;" horiz-adv-x="652" d="M517 251 C521 271 530 323 534 347 C534 347 535 352 535 352 C535 352 538 368 538 368 C538 368 538 368 538 368 C542 392 549 428 551 443 C551 443 539 443 539 443 C539 443 533 432 533 432 C520 404 454 368 418 368 C418 368 308 368 308 368 C308 368 303 341 303 341 C303 341 359 660 359 660 C359 660 354 628 354 628 C354 628 499 628 499 628 C542 628 608 571 614 528 C614 528 619 493 619 493 C619 493 630 493 630 493 C636 526 651 612 657 644 C657 647 659 657 660 660 C660 660 644 660 644 660 C644 660 580 660 580 660 C580 660 359 660 359 660 C359 660 295 660 295 660 C295 660 231 660 231 660 C231 660 156 660 156 660 C156 659 154 645 154 645 C154 645 165 645 165 645 C191 645 221 610 217 582 C217 582 129 80 129 80 C129 80 129 80 129 80 C124 52 81 15 54 15 C54 15 43 15 43 15 C43 15 42 11 41 8 C41 4 40 0 40 0 C40 0 115 0 115 0 C115 0 179 0 179 0 C179 0 243 0 243 0 C243 0 462 0 462 0 C462 0 538 0 538 0 C538 0 542 0 542 0 C544 3 547 13 548 16 C559 48 590 135 601 167 C601 167 590 167 590 167 C590 167 566 132 566 132 C537 89 441 32 399 32 C399 32 249 32 249 32 C249 32 302 336 302 336 C302 336 412 336 412 336 C448 336 501 295 504 264 C504 264 505 251 505 251 C505 251 517 251 517 251 L517 251 Z M466 820 C466 820 595 929 595 929 C595 929 605 919 605 919 C605 919 490 748 490 748 C485 741 461 716 448 716 C435 716 419 741 417 748 C417 748 361 919 361 919 C361 919 375 929 375 929 C375 929 466 820 466 820 L466 820 Z " />
<glyph glyph-name="ecaron" unicode="&#x11b;" horiz-adv-x="527" d="M491 79 C491 79 483 91 483 91 C467 80 404 65 371 65 C291 65 204 184 220 273 C222 282 224 291 227 300 C227 300 531 300 531 300 C546 387 457 505 374 505 C274 505 111 347 91 229 C73 129 172 -5 263 -5 C312 -5 443 43 491 79 L491 79 Z M402 661 C402 661 531 769 531 769 C531 769 541 759 541 759 C541 759 425 588 425 588 C421 581 396 556 383 556 C370 556 354 581 352 588 C352 588 297 759 297 759 C297 759 310 769 310 769 C310 769 402 661 402 661 L402 661 Z M234 322 C263 397 325 473 362 473 C402 473 446 429 440 396 C440 396 440 396 440 395 C436 374 402 342 379 337 C379 337 234 322 234 322 L234 322 Z " />
<glyph glyph-name="Gcircumflex" unicode="&#x11c;" horiz-adv-x="827" d="M732 453 C732 453 759 607 759 607 C720 632 587 665 526 665 C369 665 125 473 100 330 C75 187 251 -5 408 -5 C471 -5 619 28 667 53 C666 53 681 140 698 230 C698 230 698 230 698 230 C703 258 746 295 773 295 C773 295 784 295 784 295 C784 295 786 303 786 303 C786 306 787 310 787 310 C787 310 712 310 712 310 C712 310 654 310 654 310 C654 310 597 310 597 310 C597 310 522 310 522 310 C522 310 521 306 521 303 C521 303 519 295 519 295 C519 295 530 295 530 295 C556 295 585 262 584 235 C570 160 557 84 551 48 C500 36 445 27 413 27 C317 27 218 200 241 330 C263 460 423 633 520 633 C536 633 557 631 580 626 C630 613 703 539 712 490 C713 482 717 461 719 453 C719 453 732 453 732 453 L732 453 Z M550 800 C550 800 641 691 641 691 C641 691 654 701 654 701 C654 701 599 872 599 872 C597 879 581 904 568 904 C555 904 531 879 526 872 C526 872 410 701 410 701 C410 701 420 691 420 691 C420 691 550 800 550 800 L550 800 Z " />
<glyph glyph-name="Gbreve" unicode="&#x11e;" horiz-adv-x="827" d="M430 870 C444 813 506 736 538 736 C571 736 660 813 694 870 C694 870 677 878 677 878 C660 850 588 812 552 812 C515 812 457 850 450 878 C450 878 430 870 430 870 L430 870 Z M732 453 C732 453 759 607 759 607 C720 632 587 665 526 665 C369 665 125 473 100 330 C75 187 251 -5 408 -5 C471 -5 619 28 667 53 C666 53 681 140 698 230 C698 230 698 230 698 230 C703 258 746 295 773 295 C773 295 784 295 784 295 C784 295 786 303 786 303 C786 306 787 310 787 310 C787 310 712 310 712 310 C712 310 654 310 654 310 C654 310 597 310 597 310 C597 310 522 310 522 310 C522 310 521 306 521 303 C521 303 519 295 519 295 C519 295 530 295 530 295 C556 295 585 262 584 235 C570 160 557 84 551 48 C500 36 445 27 413 27 C317 27 218 200 241 330 C263 460 423 633 520 633 C536 633 557 631 580 626 C630 613 703 539 712 490 C713 482 717 461 719 453 C719 453 732 453 732 453 L732 453 Z " />
<glyph glyph-name="gbreve" unicode="&#x11f;" horiz-adv-x="478" d="M221 710 C236 653 298 576 330 576 C362 576 452 653 486 710 C486 710 469 718 469 718 C452 690 380 652 343 652 C307 652 249 690 242 718 C242 718 221 710 221 710 L221 710 Z M567 500 C567 500 414 460 414 460 C387 487 351 505 318 505 C243 505 127 414 115 346 C106 297 148 235 200 205 C143 198 64 136 56 89 C50 53 91 10 139 -9 C77 -29 0 -92 -8 -134 C-16 -181 63 -243 130 -243 C252 -243 438 -120 454 -28 C463 24 372 94 295 94 C295 94 205 90 205 90 C175 89 138 114 142 134 C146 157 183 187 206 187 C206 187 261 187 261 187 C336 187 452 278 464 346 C468 370 461 396 446 421 C446 421 556 436 556 436 C556 436 567 500 567 500 L567 500 Z M223 346 C233 403 285 479 313 479 C341 479 366 403 356 346 C346 289 294 212 266 212 C237 212 213 289 223 346 L223 346 Z M165 -16 C174 -18 183 -18 192 -18 C192 -18 244 -15 244 -15 C299 -15 366 -56 361 -86 C351 -140 230 -211 149 -211 C109 -211 65 -159 71 -120 C78 -83 129 -28 165 -16 L165 -16 Z " />
<glyph glyph-name="Gdotaccent" unicode="&#x120;" horiz-adv-x="827" d="M537 730 C567 730 615 770 620 800 C625 831 592 871 562 871 C532 871 485 831 480 800 C474 770 507 730 537 730 L537 730 Z M732 453 C732 453 759 607 759 607 C720 632 587 665 526 665 C369 665 125 473 100 330 C75 187 251 -5 408 -5 C471 -5 619 28 667 53 C666 53 681 140 698 230 C698 230 698 230 698 230 C703 258 746 295 773 295 C773 295 784 295 784 295 C784 295 786 303 786 303 C786 306 787 310 787 310 C787 310 712 310 712 310 C712 310 654 310 654 310 C654 310 597 310 597 310 C597 310 522 310 522 310 C522 310 521 306 521 303 C521 303 519 295 519 295 C519 295 530 295 530 295 C556 295 585 262 584 235 C570 160 557 84 551 48 C500 36 445 27 413 27 C317 27 218 200 241 330 C263 460 423 633 520 633 C536 633 557 631 580 626 C630 613 703 539 712 490 C713 482 717 461 719 453 C719 453 732 453 732 453 L732 453 Z " />
<glyph glyph-name="gdotaccent" unicode="&#x121;" horiz-adv-x="478" d="M329 570 C359 570 406 610 412 640 C417 671 384 711 354 711 C324 711 276 671 271 640 C266 610 299 570 329 570 L329 570 Z M567 500 C567 500 414 460 414 460 C387 487 351 505 318 505 C243 505 127 414 115 346 C106 297 148 235 200 205 C143 198 64 136 56 89 C50 53 91 10 139 -9 C77 -29 0 -92 -8 -134 C-16 -181 63 -243 130 -243 C252 -243 438 -120 454 -28 C463 24 372 94 295 94 C295 94 205 90 205 90 C175 89 138 114 142 134 C146 157 183 187 206 187 C206 187 261 187 261 187 C336 187 452 278 464 346 C468 370 461 396 446 421 C446 421 556 436 556 436 C556 436 567 500 567 500 L567 500 Z M223 346 C233 403 285 479 313 479 C341 479 366 403 356 346 C346 289 294 212 266 212 C237 212 213 289 223 346 L223 346 Z M165 -16 C174 -18 183 -18 192 -18 C192 -18 244 -15 244 -15 C299 -15 366 -56 361 -86 C351 -140 230 -211 149 -211 C109 -211 65 -159 71 -120 C78 -83 129 -28 165 -16 L165 -16 Z " />
<glyph glyph-name="Hcircumflex" unicode="&#x124;" horiz-adv-x="786" d="M863 660 C863 660 788 660 788 660 C788 660 724 660 724 660 C724 660 661 660 661 660 C661 660 586 660 586 660 C585 660 585 656 584 653 C584 649 583 645 583 645 C583 645 594 645 594 645 C621 645 651 608 646 580 C646 580 647 580 647 580 C647 580 608 363 608 363 C608 363 307 363 307 363 C307 363 345 580 345 580 C345 580 345 580 345 580 C350 608 393 645 420 645 C420 645 432 645 432 645 C431 645 432 649 433 653 C433 656 434 660 434 660 C434 660 359 660 359 660 C359 660 295 660 295 660 C295 660 231 660 231 660 C231 660 156 660 156 660 C156 659 154 645 154 645 C154 645 165 645 165 645 C191 645 221 610 217 582 C217 582 129 80 129 80 C129 80 129 80 129 80 C124 52 81 15 54 15 C54 15 43 15 43 15 C43 15 42 11 41 8 C41 4 40 0 40 0 C40 0 115 0 115 0 C115 0 179 0 179 0 C179 0 243 0 243 0 C243 0 318 0 318 0 C318 0 320 14 320 15 C320 15 309 15 309 15 C283 15 253 50 257 78 C257 78 301 331 301 331 C301 331 603 331 603 331 C603 331 558 80 558 80 C558 80 558 80 558 80 C553 52 510 15 483 15 C483 15 472 15 472 15 C472 15 471 11 470 8 C470 4 469 0 469 0 C469 0 544 0 544 0 C544 0 608 0 608 0 C608 0 672 0 672 0 C672 0 747 0 747 0 C747 0 748 4 748 8 C749 11 750 15 750 15 C750 15 738 15 738 15 C712 15 682 50 686 78 C686 78 774 580 774 580 C774 580 774 580 774 580 C779 608 822 645 849 645 C849 645 861 645 861 645 C861 645 863 659 863 660 C863 660 863 660 863 660 L863 660 Z M535 800 C535 800 626 691 626 691 C626 691 639 701 639 701 C639 701 584 872 584 872 C582 879 566 904 553 904 C540 904 515 879 511 872 C511 872 395 701 395 701 C395 701 405 691 405 691 C405 691 535 800 535 800 L535 800 Z " />
<glyph glyph-name="Itilde" unicode="&#x128;" horiz-adv-x="357" d="M173 755 C177 779 205 811 222 811 C263 811 339 748 380 748 C418 748 483 826 493 885 C493 885 474 885 474 885 C470 859 438 825 418 825 C377 825 301 887 260 887 C225 887 164 811 154 755 C154 755 173 755 173 755 L173 755 Z M154 645 C154 645 165 645 165 645 C191 645 221 610 217 582 C217 582 129 80 129 80 C129 80 129 80 129 80 C124 52 81 15 54 15 C54 15 43 15 43 15 C43 15 42 11 41 8 C41 4 40 0 40 0 C40 0 115 0 115 0 C115 0 179 0 179 0 C179 0 243 0 243 0 C243 0 318 0 318 0 C318 0 320 14 320 15 C320 15 309 15 309 15 C283 15 253 50 257 78 C257 78 345 580 345 580 C345 580 345 580 345 580 C350 608 393 645 420 645 C420 645 432 645 432 645 C431 645 432 649 433 653 C433 656 434 660 434 660 C434 660 359 660 359 660 C359 660 295 660 295 660 C295 660 231 660 231 660 C231 660 156 660 156 660 C156 659 154 645 154 645 L154 645 Z " />
<glyph glyph-name="itilde" unicode="&#x129;" horiz-adv-x="355" d="M235 0 C235 0 309 420 309 420 C309 420 324 505 324 505 C324 505 318 505 318 505 C318 505 137 453 137 453 C137 453 136 450 136 448 C136 445 135 443 135 443 C135 443 177 430 177 430 C185 428 192 410 188 387 C188 387 188 387 188 387 C188 387 120 0 120 0 C121 9 88 15 63 15 C63 15 48 15 48 15 C48 15 47 11 46 8 C46 4 45 0 45 0 C45 0 120 0 120 0 C120 0 235 0 235 0 C235 0 310 0 310 0 C310 0 311 4 311 8 C312 11 313 15 313 15 C313 15 298 15 298 15 C272 15 237 9 235 0 L235 0 Z M143 595 C147 619 175 651 192 651 C233 651 309 588 350 588 C389 588 453 666 464 725 C464 725 445 725 445 725 C440 699 408 665 389 665 C347 665 271 727 230 727 C195 727 134 651 124 595 C124 595 143 595 143 595 L143 595 Z " />
<glyph glyph-name="Imacron" unicode="&#x12a;" horiz-adv-x="357" d="M163 761 C163 761 463 761 463 761 C463 761 474 825 474 825 C474 825 174 825 174 825 C174 825 163 761 163 761 L163 761 Z M154 645 C154 645 165 645 165 645 C191 645 221 610 217 582 C217 582 129 80 129 80 C129 80 129 80 129 80 C124 52 81 15 54 15 C54 15 43 15 43 15 C43 15 42 11 41 8 C41 4 40 0 40 0 C40 0 115 0 115 0 C115 0 179 0 179 0 C179 0 243 0 243 0 C243 0 318 0 318 0 C318 0 320 14 320 15 C320 15 309 15 309 15 C283 15 253 50 257 78 C257 78 345 580 345 580 C345 580 345 580 345 580 C350 608 393 645 420 645 C420 645 432 645 432 645 C431 645 432 649 433 653 C433 656 434 660 434 660 C434 660 359 660 359 660 C359 660 295 660 295 660 C295 660 231 660 231 660 C231 660 156 660 156 660 C156 659 154 645 154 645 L154 645 Z " />
<glyph glyph-name="imacron" unicode="&#x12b;" horiz-adv-x="355" d="M235 0 C235 0 309 420 309 420 C309 420 324 505 324 505 C324 505 318 505 318 505 C318 505 137 453 137 453 C137 453 136 450 136 448 C136 445 135 443 135 443 C135 443 177 430 177 430 C185 428 192 410 188 387 C188 387 188 387 188 387 C188 387 120 0 120 0 C121 9 88 15 63 15 C63 15 48 15 48 15 C48 15 47 11 46 8 C46 4 45 0 45 0 C45 0 120 0 120 0 C120 0 235 0 235 0 C235 0 310 0 310 0 C310 0 311 4 311 8 C312 11 313 15 313 15 C313 15 298 15 298 15 C272 15 237 9 235 0 L235 0 Z M133 601 C133 601 433 601 433 601 C433 601 445 665 445 665 C445 665 145 665 145 665 C145 665 133 601 133 601 L133 601 Z " />
<glyph glyph-name="Ibreve" unicode="&#x12c;" horiz-adv-x="357" d="M200 870 C214 813 277 736 309 736 C341 736 430 813 465 870 C465 870 447 878 447 878 C430 850 358 812 322 812 C285 812 227 850 220 878 C220 878 200 870 200 870 L200 870 Z M154 645 C154 645 165 645 165 645 C191 645 221 610 217 582 C217 582 129 80 129 80 C129 80 129 80 129 80 C124 52 81 15 54 15 C54 15 43 15 43 15 C43 15 42 11 41 8 C41 4 40 0 40 0 C40 0 115 0 115 0 C115 0 179 0 179 0 C179 0 243 0 243 0 C243 0 318 0 318 0 C318 0 320 14 320 15 C320 15 309 15 309 15 C283 15 253 50 257 78 C257 78 345 580 345 580 C345 580 345 580 345 580 C350 608 393 645 420 645 C420 645 432 645 432 645 C431 645 432 649 433 653 C433 656 434 660 434 660 C434 660 359 660 359 660 C359 660 295 660 295 660 C295 660 231 660 231 660 C231 660 156 660 156 660 C156 659 154 645 154 645 L154 645 Z " />
<glyph glyph-name="ibreve" unicode="&#x12d;" horiz-adv-x="355" d="M235 0 C235 0 309 420 309 420 C309 420 324 505 324 505 C324 505 318 505 318 505 C318 505 137 453 137 453 C137 453 136 450 136 448 C136 445 135 443 135 443 C135 443 177 430 177 430 C185 428 192 410 188 387 C188 387 188 387 188 387 C188 387 120 0 120 0 C121 9 88 15 63 15 C63 15 48 15 48 15 C48 15 47 11 46 8 C46 4 45 0 45 0 C45 0 120 0 120 0 C120 0 235 0 235 0 C235 0 310 0 310 0 C310 0 311 4 311 8 C312 11 313 15 313 15 C313 15 298 15 298 15 C272 15 237 9 235 0 L235 0 Z M170 710 C185 653 247 576 279 576 C311 576 401 653 435 710 C435 710 418 718 418 718 C401 690 329 652 292 652 C256 652 198 690 191 718 C191 718 170 710 170 710 L170 710 Z " />
<glyph glyph-name="Idotaccent" unicode="&#x130;" horiz-adv-x="357" d="M308 730 C338 730 385 770 390 800 C396 831 362 871 332 871 C303 871 255 831 250 800 C245 770 278 730 308 730 L308 730 Z M154 645 C154 645 165 645 165 645 C191 645 221 610 217 582 C217 582 129 80 129 80 C129 80 129 80 129 80 C124 52 81 15 54 15 C54 15 43 15 43 15 C43 15 42 11 41 8 C41 4 40 0 40 0 C40 0 115 0 115 0 C115 0 179 0 179 0 C179 0 243 0 243 0 C243 0 318 0 318 0 C318 0 320 14 320 15 C320 15 309 15 309 15 C283 15 253 50 257 78 C257 78 345 580 345 580 C345 580 345 580 345 580 C350 608 393 645 420 645 C420 645 432 645 432 645 C431 645 432 649 433 653 C433 656 434 660 434 660 C434 660 359 660 359 660 C359 660 295 660 295 660 C295 660 231 660 231 660 C231 660 156 660 156 660 C156 659 154 645 154 645 L154 645 Z " />
<glyph glyph-name="dotlessi" unicode="&#x131;" horiz-adv-x="355" d="M235 0 C235 0 309 420 309 420 C309 420 324 505 324 505 C324 505 318 505 318 505 C318 505 137 453 137 453 C137 453 136 450 136 448 C136 445 135 443 135 443 C135 443 177 430 177 430 C185 428 192 410 188 387 C188 387 188 387 188 387 C188 387 120 0 120 0 C121 9 88 15 63 15 C63 15 48 15 48 15 C48 15 47 11 46 8 C46 4 45 0 45 0 C45 0 120 0 120 0 C120 0 235 0 235 0 C235 0 310 0 310 0 C310 0 311 4 311 8 C312 11 313 15 313 15 C313 15 298 15 298 15 C272 15 237 9 235 0 L235 0 Z " />
<glyph glyph-name="Jcircumflex" unicode="&#x134;" horiz-adv-x="444" d="M407 799 C407 799 497 691 497 691 C497 691 511 701 511 701 C511 701 456 872 456 872 C454 879 438 904 425 904 C412 904 387 879 383 872 C383 872 267 701 267 701 C267 701 277 691 277 691 C277 691 407 799 407 799 L407 799 Z M304 582 C304 582 237 200 237 200 C220 106 184 16 162 16 C145 16 121 43 120 64 C118 86 90 115 71 115 C44 115 9 86 11 64 C13 32 79 -10 126 -10 C230 -10 355 145 384 308 C384 308 433 588 433 588 C444 614 482 645 507 645 C507 645 518 645 518 645 C518 645 519 649 519 653 C520 656 521 660 521 660 C521 660 446 660 446 660 C446 660 382 660 382 660 C382 660 318 660 318 660 C318 660 243 660 243 660 C243 660 242 656 241 653 C241 649 240 645 240 645 C240 645 251 645 251 645 C278 645 307 609 304 582 C304 582 304 582 304 582 L304 582 Z " />
<glyph glyph-name="Lacute" unicode="&#x139;" horiz-adv-x="652" d="M278 690 C278 690 416 814 416 814 C434 830 459 856 460 861 C462 871 417 909 403 909 C400 909 379 881 366 859 C366 859 267 699 267 699 C267 699 278 690 278 690 L278 690 Z M587 182 C587 182 552 122 552 122 C529 83 447 32 409 32 C409 32 249 32 249 32 C249 32 345 580 345 580 C345 580 345 580 345 580 C350 608 393 645 420 645 C420 645 432 645 432 645 C431 645 432 649 433 653 C433 656 434 660 434 660 C434 660 359 660 359 660 C359 660 295 660 295 660 C295 660 231 660 231 660 C231 660 156 660 156 660 C156 659 154 645 154 645 C154 645 165 645 165 645 C191 645 221 610 217 582 C217 582 129 80 129 80 C129 80 129 80 129 80 C124 52 81 15 54 15 C54 15 43 15 43 15 C43 15 42 11 41 8 C41 4 40 0 40 0 C40 0 115 0 115 0 C115 0 179 0 179 0 C179 0 243 0 243 0 C243 0 462 0 462 0 C462 0 538 0 538 0 C538 0 542 0 542 0 C544 3 547 13 548 16 C560 50 592 140 604 174 C604 176 587 182 587 182 L587 182 Z " />
<glyph glyph-name="Lcaron" unicode="&#x13d;" horiz-adv-x="652" d="M587 182 C587 182 552 122 552 122 C529 83 447 32 409 32 C409 32 249 32 249 32 C249 32 345 580 345 580 C345 580 345 580 345 580 C350 608 393 645 420 645 C420 645 432 645 432 645 C431 645 432 649 433 653 C433 656 434 660 434 660 C434 660 359 660 359 660 C359 660 295 660 295 660 C295 660 231 660 231 660 C231 660 156 660 156 660 C156 659 154 645 154 645 C154 645 165 645 165 645 C191 645 221 610 217 582 C217 582 129 80 129 80 C129 80 129 80 129 80 C124 52 81 15 54 15 C54 15 43 15 43 15 C43 15 42 11 41 8 C41 4 40 0 40 0 C40 0 115 0 115 0 C115 0 179 0 179 0 C179 0 243 0 243 0 C243 0 462 0 462 0 C462 0 538 0 538 0 C538 0 542 0 542 0 C544 3 547 13 548 16 C560 50 592 140 604 174 C604 176 587 182 587 182 L587 182 Z M560 556 C586 590 624 659 626 665 C628 678 573 691 558 691 C541 691 503 615 492 583 C492 583 438 417 438 417 C438 417 451 412 451 412 C451 412 560 556 560 556 L560 556 Z " />
<glyph glyph-name="lcaron" unicode="&#x13e;" horiz-adv-x="355" d="M222 579 C222 579 222 579 222 579 C222 579 134 80 134 80 C134 80 134 80 134 80 C129 52 86 15 59 15 C59 15 48 15 48 15 C48 15 47 11 46 8 C46 4 45 0 45 0 C45 0 120 0 120 0 C120 0 178 0 178 0 C178 0 235 0 235 0 C235 0 310 0 310 0 C310 0 311 4 311 8 C312 11 313 15 313 15 C313 15 301 15 301 15 C275 15 246 49 249 77 C249 77 343 610 343 610 C343 610 343 610 343 610 C343 610 349 645 349 645 C349 645 357 690 357 690 C357 690 357 690 357 690 C357 690 362 720 362 720 C362 720 339 720 339 720 C339 720 163 669 163 669 C163 669 163 668 163 668 C162 665 161 660 161 660 C161 660 172 658 172 658 C209 650 229 618 222 579 L222 579 Z M482 586 C508 620 547 689 548 695 C550 708 496 721 481 721 C464 721 426 645 415 613 C415 613 360 447 360 447 C360 447 374 442 374 442 C374 442 482 586 482 586 L482 586 Z " />
<glyph glyph-name="Lslash" unicode="&#x141;" horiz-adv-x="652" d="M111 261 C111 261 164 276 164 276 C164 276 129 80 129 80 C129 80 129 80 129 80 C124 52 81 15 54 15 C54 15 43 15 43 15 C43 15 42 11 41 8 C41 4 40 0 40 0 C40 0 115 0 115 0 C115 0 179 0 179 0 C179 0 243 0 243 0 C243 0 462 0 462 0 C462 0 538 0 538 0 C538 0 542 0 542 0 C544 3 547 13 548 16 C560 50 592 140 604 174 C604 176 587 182 587 182 C587 182 552 122 552 122 C529 83 447 32 409 32 C409 32 249 32 249 32 C249 32 298 316 298 316 C298 316 454 361 454 361 C454 361 461 399 461 399 C461 399 305 354 305 354 C305 354 345 580 345 580 C345 580 345 580 345 580 C350 608 393 645 420 645 C420 645 432 645 432 645 C431 645 432 649 433 653 C433 656 434 660 434 660 C434 660 359 660 359 660 C359 660 295 660 295 660 C295 660 231 660 231 660 C231 660 156 660 156 660 C156 659 154 645 154 645 C154 645 165 645 165 645 C191 645 221 610 217 582 C217 582 170 314 170 314 C170 314 118 299 118 299 C118 299 111 261 111 261 L111 261 Z " />
<glyph glyph-name="lslash" unicode="&#x142;" horiz-adv-x="355" d="M71 291 C71 291 177 323 177 323 C177 323 134 80 134 80 C134 80 134 80 134 80 C129 52 86 15 59 15 C59 15 48 15 48 15 C48 15 47 11 46 8 C46 4 45 0 45 0 C45 0 120 0 120 0 C120 0 178 0 178 0 C178 0 235 0 235 0 C235 0 310 0 310 0 C310 0 311 4 311 8 C312 11 313 15 313 15 C313 15 301 15 301 15 C275 15 246 49 249 77 C249 77 299 359 299 359 C299 359 404 391 404 391 C404 391 411 429 411 429 C411 429 305 397 305 397 C305 397 343 610 343 610 C343 610 343 610 343 610 C343 610 349 645 349 645 C349 645 357 690 357 690 C357 690 357 690 357 690 C357 690 362 720 362 720 C362 720 339 720 339 720 C339 720 163 669 163 669 C163 669 163 668 163 668 C162 665 161 660 161 660 C161 660 172 658 172 658 C209 650 229 618 222 579 C222 579 222 579 222 579 C222 579 184 361 184 361 C184 361 78 329 78 329 C78 329 71 291 71 291 L71 291 Z " />
<glyph glyph-name="Nacute" unicode="&#x143;" horiz-adv-x="723" d="M452 690 C452 690 590 814 590 814 C608 830 633 856 634 861 C636 871 591 909 577 909 C574 909 553 881 540 859 C540 859 441 699 441 699 C441 699 452 690 452 690 L452 690 Z M609 645 C609 645 620 645 620 645 C646 645 675 610 672 583 C672 583 602 184 602 184 C602 184 343 660 343 660 C343 660 267 660 267 660 C267 660 258 607 258 607 C258 607 343 660 343 660 C343 660 258 607 258 607 C258 607 267 660 267 660 C267 660 248 660 248 660 C248 660 229 660 229 660 C229 660 154 660 154 660 C154 660 153 656 152 653 C152 649 151 645 151 645 C151 645 162 645 162 645 C188 645 217 610 215 583 C215 583 125 74 125 74 C115 47 76 15 51 15 C51 15 40 15 40 15 C40 15 39 11 39 8 C39 8 37 0 37 0 C37 0 112 0 112 0 C112 0 132 0 132 0 C132 0 151 0 151 0 C151 0 226 0 226 0 C226 0 227 4 227 8 C228 11 229 15 228 15 C228 15 217 15 217 15 C191 15 161 50 165 78 C165 78 247 548 247 548 C247 548 521 51 521 51 C521 51 560 -20 560 -20 C560 -20 605 -20 605 -20 C605 -20 626 98 626 98 C626 98 711 580 711 580 C711 580 711 580 711 580 C716 608 759 645 786 645 C786 645 797 645 797 645 C797 645 798 649 798 653 C799 656 800 660 800 660 C800 660 725 660 725 660 C725 660 706 660 706 660 C706 660 686 660 686 660 C686 660 611 660 611 660 C611 659 609 645 609 645 L609 645 Z " />
<glyph glyph-name="nacute" unicode="&#x144;" horiz-adv-x="636" d="M338 530 C338 530 476 654 476 654 C494 670 519 696 520 701 C522 711 477 749 463 749 C460 749 439 721 426 699 C426 699 327 539 327 539 C327 539 338 530 338 530 L338 530 Z M307 414 C329 421 370 428 397 428 C440 428 471 370 463 326 C463 326 420 79 420 79 C414 51 372 15 345 15 C345 15 334 15 334 15 C334 15 333 11 332 8 C332 4 331 0 331 0 C331 0 406 0 406 0 C406 0 464 0 464 0 C464 0 521 0 521 0 C521 0 596 0 596 0 C596 0 597 4 597 7 C597 7 599 15 599 15 C599 15 588 15 588 15 C561 15 533 49 535 76 C535 76 581 338 581 338 C593 409 556 505 499 505 C454 505 356 466 311 432 C311 432 323 500 323 500 C323 500 300 500 300 500 C300 500 124 449 124 449 C123 449 123 449 123 448 C123 445 122 440 122 440 C122 440 133 438 133 438 C167 431 186 402 184 367 C184 367 133 80 133 80 C133 80 133 80 133 80 C128 52 85 15 58 15 C58 15 47 15 47 15 C47 15 46 11 46 8 C46 8 44 0 44 0 C44 0 119 0 119 0 C119 0 177 0 177 0 C177 0 234 0 234 0 C234 0 309 0 309 0 C310 0 310 4 311 8 C311 11 312 15 312 15 C312 15 301 15 301 15 C275 15 246 50 248 78 C248 78 303 390 303 390 C303 390 307 414 307 414 L307 414 Z " />
<glyph glyph-name="Ncaron" unicode="&#x147;" horiz-adv-x="723" d="M609 645 C609 645 620 645 620 645 C646 645 675 610 672 583 C672 583 602 184 602 184 C602 184 343 660 343 660 C343 660 267 660 267 660 C267 660 258 607 258 607 C258 607 343 660 343 660 C343 660 258 607 258 607 C258 607 267 660 267 660 C267 660 248 660 248 660 C248 660 229 660 229 660 C229 660 154 660 154 660 C154 660 153 656 152 653 C152 649 151 645 151 645 C151 645 162 645 162 645 C188 645 217 610 215 583 C215 583 125 74 125 74 C115 47 76 15 51 15 C51 15 40 15 40 15 C40 15 39 11 39 8 C39 8 37 0 37 0 C37 0 112 0 112 0 C112 0 132 0 132 0 C132 0 151 0 151 0 C151 0 226 0 226 0 C226 0 227 4 227 8 C228 11 229 15 228 15 C228 15 217 15 217 15 C191 15 161 50 165 78 C165 78 247 548 247 548 C247 548 521 51 521 51 C521 51 560 -20 560 -20 C560 -20 605 -20 605 -20 C605 -20 626 98 626 98 C626 98 711 580 711 580 C711 580 711 580 711 580 C716 608 759 645 786 645 C786 645 797 645 797 645 C797 645 798 649 798 653 C799 656 800 660 800 660 C800 660 725 660 725 660 C725 660 706 660 706 660 C706 660 686 660 686 660 C686 660 611 660 611 660 C611 659 609 645 609 645 L609 645 Z M505 820 C505 820 634 929 634 929 C634 929 644 919 644 919 C644 919 529 748 529 748 C524 741 500 716 487 716 C474 716 458 741 456 748 C456 748 400 919 400 919 C400 919 414 929 414 929 C414 929 505 820 505 820 L505 820 Z " />
<glyph glyph-name="ncaron" unicode="&#x148;" horiz-adv-x="636" d="M437 660 C437 660 566 769 566 769 C566 769 576 759 576 759 C576 759 461 588 461 588 C456 581 432 556 418 556 C405 556 390 581 387 588 C387 588 332 759 332 759 C332 759 346 769 346 769 C346 769 437 660 437 660 L437 660 Z M307 414 C329 421 370 428 397 428 C440 428 471 370 463 326 C463 326 420 79 420 79 C414 51 372 15 345 15 C345 15 334 15 334 15 C334 15 333 11 332 8 C332 4 331 0 331 0 C331 0 406 0 406 0 C406 0 464 0 464 0 C464 0 521 0 521 0 C521 0 596 0 596 0 C596 0 597 4 597 7 C597 7 599 15 599 15 C599 15 588 15 588 15 C561 15 533 49 535 76 C535 76 581 338 581 338 C593 409 556 505 499 505 C454 505 356 466 311 432 C311 432 323 500 323 500 C323 500 300 500 300 500 C300 500 124 449 124 449 C123 449 123 449 123 448 C123 445 122 440 122 440 C122 440 133 438 133 438 C167 431 186 402 184 367 C184 367 133 80 133 80 C133 80 133 80 133 80 C128 52 85 15 58 15 C58 15 47 15 47 15 C47 15 46 11 46 8 C46 8 44 0 44 0 C44 0 119 0 119 0 C119 0 177 0 177 0 C177 0 234 0 234 0 C234 0 309 0 309 0 C310 0 310 4 311 8 C311 11 312 15 312 15 C312 15 301 15 301 15 C275 15 246 50 248 78 C248 78 303 390 303 390 C303 390 307 414 307 414 L307 414 Z " />
<glyph glyph-name="Omacron" unicode="&#x14c;" horiz-adv-x="759" d="M360 761 C360 761 660 761 660 761 C660 761 671 825 671 825 C671 825 371 825 371 825 C371 825 360 761 360 761 L360 761 Z M380 27 C289 27 220 213 241 330 C261 447 396 633 487 633 C578 633 647 447 627 330 C606 213 471 27 380 27 L380 27 Z M100 330 C77 201 218 -5 375 -5 C531 -5 744 201 767 330 C790 459 650 665 493 665 C336 665 123 459 100 330 L100 330 Z " />
<glyph glyph-name="omacron" unicode="&#x14d;" horiz-adv-x="606" d="M259 601 C259 601 559 601 559 601 C559 601 571 665 571 665 C571 665 271 665 271 665 C271 665 259 601 259 601 L259 601 Z M307 21 C253 21 205 152 222 250 C239 348 334 479 388 479 C442 479 490 348 473 250 C456 152 361 21 307 21 L307 21 Z M94 250 C75 141 194 -5 303 -5 C411 -5 582 141 601 250 C620 359 501 505 393 505 C284 505 113 359 94 250 L94 250 Z " />
<glyph glyph-name="Obreve" unicode="&#x14e;" horiz-adv-x="759" d="M397 870 C411 813 473 736 505 736 C537 736 627 813 661 870 C661 870 644 878 644 878 C627 850 555 812 519 812 C482 812 424 850 417 878 C417 878 397 870 397 870 L397 870 Z M380 27 C289 27 220 213 241 330 C261 447 396 633 487 633 C578 633 647 447 627 330 C606 213 471 27 380 27 L380 27 Z M100 330 C77 201 218 -5 375 -5 C531 -5 744 201 767 330 C790 459 650 665 493 665 C336 665 123 459 100 330 L100 330 Z " />
<glyph glyph-name="obreve" unicode="&#x14f;" horiz-adv-x="606" d="M296 710 C311 653 373 576 405 576 C437 576 527 653 561 710 C561 710 544 718 544 718 C527 690 455 652 418 652 C382 652 324 690 317 718 C317 718 296 710 296 710 L296 710 Z M307 21 C253 21 205 152 222 250 C239 348 334 479 388 479 C442 479 490 348 473 250 C456 152 361 21 307 21 L307 21 Z M94 250 C75 141 194 -5 303 -5 C411 -5 582 141 601 250 C620 359 501 505 393 505 C284 505 113 359 94 250 L94 250 Z " />
<glyph glyph-name="Racute" unicode="&#x154;" horiz-adv-x="713" d="M401 690 C401 690 539 814 539 814 C557 830 582 856 583 861 C585 871 540 909 526 909 C523 909 502 881 489 859 C489 859 390 699 390 699 C390 699 401 690 401 690 L401 690 Z M713 0 C713 0 718 25 718 25 C718 25 713 25 713 25 C683 25 660 43 638 81 C638 81 498 336 498 336 C591 371 679 437 689 490 C701 562 575 660 468 660 C468 660 352 660 352 660 C352 660 347 628 347 628 C347 628 463 628 463 628 C512 628 565 549 555 490 C544 427 449 344 389 344 C389 344 341 344 341 344 C341 344 296 344 296 344 C296 344 352 660 352 660 C352 660 288 660 288 660 C288 660 224 660 224 660 C224 660 149 660 149 660 C149 660 149 656 148 653 C148 649 147 645 147 645 C147 645 158 645 158 645 C184 645 214 610 210 582 C210 582 122 80 122 80 C122 80 122 80 122 80 C117 52 74 15 47 15 C47 15 36 15 36 15 C36 15 35 11 34 8 C34 4 33 0 33 0 C33 0 108 0 108 0 C108 0 172 0 172 0 C172 0 236 0 236 0 C236 0 311 0 311 0 C311 0 312 4 312 8 C313 11 313 15 313 15 C313 15 302 15 302 15 C276 15 246 50 250 78 C250 78 292 320 292 320 C292 320 291 312 291 312 C291 312 358 312 358 312 C358 312 468 106 468 106 C506 33 570 0 670 0 C670 0 713 0 713 0 L713 0 Z " />
<glyph glyph-name="Rcaron" unicode="&#x158;" horiz-adv-x="637" d="M500 820 C500 820 629 929 629 929 C629 929 639 919 639 919 C639 919 524 748 524 748 C519 741 495 716 481 716 C468 716 453 741 451 748 C451 748 395 919 395 919 C395 919 409 929 409 929 C409 929 500 820 500 820 L500 820 Z M384 312 C400 224 541 19 629 -46 C629 -46 645 -27 645 -27 C613 -4 536 207 511 341 C599 377 680 439 689 490 C701 562 575 660 468 660 C468 660 352 660 352 660 C352 660 347 628 347 628 C347 628 463 628 463 628 C512 628 565 549 555 490 C544 427 449 344 389 344 C389 344 296 344 296 344 C296 344 352 660 352 660 C352 660 288 660 288 660 C288 660 224 660 224 660 C224 660 149 660 149 660 C149 660 149 656 148 653 C148 649 147 645 147 645 C147 645 158 645 158 645 C184 645 214 610 210 582 C210 582 122 80 122 80 C122 80 122 80 122 80 C117 52 74 15 47 15 C47 15 36 15 36 15 C36 15 35 11 34 8 C34 4 33 0 33 0 C33 0 108 0 108 0 C108 0 172 0 172 0 C172 0 236 0 236 0 C236 0 311 0 311 0 C311 0 312 4 312 8 C313 11 313 15 313 15 C313 15 302 15 302 15 C276 15 246 50 250 78 C250 78 292 320 292 320 C292 320 291 312 291 312 C291 312 384 312 384 312 L384 312 Z " />
<glyph glyph-name="rcaron" unicode="&#x159;" horiz-adv-x="437" d="M354 660 C354 660 484 769 484 769 C484 769 494 759 494 759 C494 759 378 588 378 588 C373 581 349 556 336 556 C322 556 307 581 305 588 C305 588 250 759 250 759 C250 759 263 769 263 769 C263 769 354 660 354 660 L354 660 Z M304 411 C314 416 329 420 339 420 C365 420 412 376 439 376 C463 376 500 408 504 431 C509 463 482 505 445 505 C410 505 337 465 304 430 C304 430 307 500 307 500 C307 500 284 500 284 500 C284 500 124 449 124 449 C123 449 123 449 123 448 C123 445 122 440 122 440 C122 440 133 438 133 438 C167 431 186 402 184 367 C184 367 133 80 133 80 C133 80 133 80 133 80 C128 52 85 15 58 15 C58 15 47 15 47 15 C47 15 46 11 46 8 C46 8 44 0 44 0 C44 0 119 0 119 0 C119 0 177 0 177 0 C177 0 234 0 234 0 C234 0 309 0 309 0 C310 0 310 4 311 8 C311 11 312 15 312 15 C312 15 301 15 301 15 C275 15 246 50 248 78 C248 78 303 390 303 390 C303 390 304 411 304 411 L304 411 Z " />
<glyph glyph-name="Sacute" unicode="&#x15a;" horiz-adv-x="514" d="M331 690 C331 690 469 814 469 814 C487 830 512 856 513 861 C515 871 470 909 456 909 C453 909 432 881 419 859 C419 859 320 699 320 699 C320 699 331 690 331 690 L331 690 Z M75 204 C75 204 47 40 47 40 C47 40 61 60 61 60 C61 60 61 60 62 60 C62 60 47 40 47 40 C77 21 190 -5 244 -5 C340 -5 488 106 502 189 C513 247 435 356 368 380 C298 404 212 479 217 511 C227 564 312 634 366 634 C373 634 385 631 399 627 C399 627 399 627 399 627 C428 618 472 569 477 540 C480 522 489 474 492 456 C492 456 505 456 505 456 C505 456 534 620 534 620 C534 620 520 600 520 600 C520 600 520 600 519 600 C519 600 534 620 534 620 C504 639 415 665 377 665 C283 665 135 548 120 460 C110 406 185 303 251 280 C322 256 409 173 402 137 C394 90 307 27 250 27 C243 27 235 28 226 29 C177 42 105 117 95 168 C94 176 90 196 88 204 C88 204 75 204 75 204 L75 204 Z " />
<glyph glyph-name="sacute" unicode="&#x15b;" horiz-adv-x="420" d="M249 530 C249 530 387 654 387 654 C405 670 430 696 431 701 C433 711 388 749 374 749 C371 749 350 721 337 699 C337 699 238 539 238 539 C238 539 249 530 249 530 L249 530 Z M71 150 C71 150 50 29 50 29 C50 29 63 47 63 47 C63 47 63 47 63 47 C63 47 50 29 50 29 C73 15 149 -5 184 -5 C264 -5 386 86 398 153 C404 191 359 269 318 291 C268 317 205 380 209 402 C215 435 276 479 316 479 C317 479 322 477 328 474 C355 459 392 407 396 380 C397 375 399 361 400 355 C400 355 412 355 412 355 C412 355 431 466 431 466 C431 466 418 448 418 448 C418 448 418 448 418 448 C418 448 431 466 431 466 C405 483 342 505 320 505 C243 505 124 423 114 362 C107 325 170 237 223 209 C258 191 299 135 294 111 C288 72 231 21 195 21 C193 21 191 21 188 22 C154 29 100 85 89 124 C87 130 83 144 82 150 C82 150 71 150 71 150 L71 150 Z " />
<glyph glyph-name="Scircumflex" unicode="&#x15c;" horiz-adv-x="514" d="M75 204 C75 204 47 40 47 40 C47 40 61 60 61 60 C61 60 61 60 62 60 C62 60 47 40 47 40 C77 21 190 -5 244 -5 C340 -5 488 106 502 189 C513 247 435 356 368 380 C298 404 212 479 217 511 C227 564 312 634 366 634 C373 634 385 631 399 627 C399 627 399 627 399 627 C428 618 472 569 477 540 C480 522 489 474 492 456 C492 456 505 456 505 456 C505 456 534 620 534 620 C534 620 520 600 520 600 C520 600 520 600 519 600 C519 600 534 620 534 620 C504 639 415 665 377 665 C283 665 135 548 120 460 C110 406 185 303 251 280 C322 256 409 173 402 137 C394 90 307 27 250 27 C243 27 235 28 226 29 C177 42 105 117 95 168 C94 176 90 196 88 204 C88 204 75 204 75 204 L75 204 Z M396 800 C396 800 487 691 487 691 C487 691 500 701 500 701 C500 701 445 872 445 872 C443 879 427 904 414 904 C401 904 377 879 372 872 C372 872 256 701 256 701 C256 701 266 691 266 691 C266 691 396 800 396 800 L396 800 Z " />
<glyph glyph-name="Scedilla" unicode="&#x15e;" horiz-adv-x="514" d="M75 204 C75 204 47 40 47 40 C47 40 61 60 61 60 C61 60 61 60 62 60 C62 60 47 40 47 40 C77 21 190 -5 244 -5 C340 -5 488 106 502 189 C513 247 435 356 368 380 C298 404 212 479 217 511 C227 564 312 634 366 634 C373 634 385 631 399 627 C399 627 399 627 399 627 C428 618 472 569 477 540 C480 522 489 474 492 456 C492 456 505 456 505 456 C505 456 534 620 534 620 C534 620 520 600 520 600 C520 600 520 600 519 600 C519 600 534 620 534 620 C504 639 415 665 377 665 C283 665 135 548 120 460 C110 406 185 303 251 280 C322 256 409 173 402 137 C394 90 307 27 250 27 C243 27 235 28 226 29 C177 42 105 117 95 168 C94 176 90 196 88 204 C88 204 75 204 75 204 L75 204 Z " />
<glyph glyph-name="scedilla" unicode="&#x15f;" horiz-adv-x="420" d="M71 150 C71 150 50 29 50 29 C50 29 63 47 63 47 C63 47 63 47 63 47 C63 47 50 29 50 29 C73 15 149 -5 184 -5 C264 -5 386 86 398 153 C404 191 359 269 318 291 C268 317 205 380 209 402 C215 435 276 479 316 479 C317 479 322 477 328 474 C355 459 392 407 396 380 C397 375 399 361 400 355 C400 355 412 355 412 355 C412 355 431 466 431 466 C431 466 418 448 418 448 C418 448 418 448 418 448 C418 448 431 466 431 466 C405 483 342 505 320 505 C243 505 124 423 114 362 C107 325 170 237 223 209 C258 191 299 135 294 111 C288 72 231 21 195 21 C193 21 191 21 188 22 C154 29 100 85 89 124 C87 130 83 144 82 150 C82 150 71 150 71 150 L71 150 Z " />
<glyph glyph-name="Scaron" unicode="&#x160;" horiz-adv-x="514" d="M75 204 C75 204 47 40 47 40 C47 40 61 60 61 60 C61 60 61 60 62 60 C62 60 47 40 47 40 C77 21 190 -5 244 -5 C340 -5 488 106 502 189 C513 247 435 356 368 380 C298 404 212 479 217 511 C227 564 312 634 366 634 C373 634 385 631 399 627 C399 627 399 627 399 627 C428 618 472 569 477 540 C480 522 489 474 492 456 C492 456 505 456 505 456 C505 456 534 620 534 620 C534 620 520 600 520 600 C520 600 520 600 519 600 C519 600 534 620 534 620 C504 639 415 665 377 665 C283 665 135 548 120 460 C110 406 185 303 251 280 C322 256 409 173 402 137 C394 90 307 27 250 27 C243 27 235 28 226 29 C177 42 105 117 95 168 C94 176 90 196 88 204 C88 204 75 204 75 204 L75 204 Z M399 820 C399 820 529 929 529 929 C529 929 539 919 539 919 C539 919 423 748 423 748 C419 741 394 716 381 716 C368 716 352 741 350 748 C350 748 295 919 295 919 C295 919 308 929 308 929 C308 929 399 820 399 820 L399 820 Z " />
<glyph glyph-name="scaron" unicode="&#x161;" horiz-adv-x="420" d="M71 150 C71 150 50 29 50 29 C50 29 63 47 63 47 C63 47 63 47 63 47 C63 47 50 29 50 29 C73 15 149 -5 184 -5 C264 -5 386 86 398 153 C404 191 359 269 318 291 C268 317 205 380 209 402 C215 435 276 479 316 479 C317 479 322 477 328 474 C355 459 392 407 396 380 C397 375 399 361 400 355 C400 355 412 355 412 355 C412 355 431 466 431 466 C431 466 418 448 418 448 C418 448 418 448 418 448 C418 448 431 466 431 466 C405 483 342 505 320 505 C243 505 124 423 114 362 C107 325 170 237 223 209 C258 191 299 135 294 111 C288 72 231 21 195 21 C193 21 191 21 188 22 C154 29 100 85 89 124 C87 130 83 144 82 150 C82 150 71 150 71 150 L71 150 Z M348 661 C348 661 477 769 477 769 C477 769 487 759 487 759 C487 759 372 588 372 588 C367 581 343 556 329 556 C316 556 301 581 298 588 C298 588 243 759 243 759 C243 759 256 769 256 769 C256 769 348 661 348 661 L348 661 Z " />
<glyph glyph-name="Tcaron" unicode="&#x164;" horiz-adv-x="620" d="M455 821 C455 821 584 929 584 929 C584 929 594 919 594 919 C594 919 479 748 479 748 C474 741 449 716 436 716 C423 716 408 741 405 748 C405 748 350 919 350 919 C350 919 363 929 363 929 C363 929 455 821 455 821 L455 821 Z M726 644 C726 647 727 657 727 660 C727 660 696 660 696 660 C696 660 647 660 647 660 C647 660 206 660 206 660 C206 660 156 660 156 660 C156 660 126 660 126 660 C125 657 122 647 121 644 C112 609 87 514 78 478 C78 478 90 478 90 478 C90 478 130 548 130 548 C150 582 223 628 257 628 C257 628 357 628 357 628 C357 628 260 80 260 80 C260 80 260 80 260 80 C255 52 212 15 185 15 C185 15 174 15 174 15 C174 15 173 11 172 8 C172 4 171 0 171 0 C171 0 246 0 246 0 C246 0 310 0 310 0 C310 0 374 0 374 0 C374 0 449 0 449 0 C449 0 450 4 450 8 C451 11 451 15 452 15 C452 15 440 15 440 15 C414 15 385 49 388 77 C388 77 485 628 485 628 C485 628 584 628 584 628 C619 628 675 582 683 548 C683 548 699 478 699 478 C699 478 711 478 711 478 C714 514 723 609 726 644 L726 644 Z " />
<glyph glyph-name="tcaron" unicode="&#x165;" horiz-adv-x="370" d="M426 500 C426 500 292 500 292 500 C300 547 308 593 316 640 C316 640 297 640 297 640 C250 572 142 474 108 468 C108 468 105 455 105 455 C105 455 169 455 169 455 C169 455 110 125 110 125 C97 53 135 -5 195 -5 C241 -5 325 29 360 55 C360 55 353 65 353 65 C343 57 299 46 261 46 C233 46 216 72 221 105 C242 222 263 338 284 455 C284 455 419 455 419 455 C419 455 426 500 426 500 L426 500 Z M586 586 C612 620 650 689 651 695 C654 708 599 721 584 721 C567 721 529 645 518 613 C518 613 463 447 463 447 C463 447 477 442 477 442 C477 442 586 586 586 586 L586 586 Z " />
<glyph glyph-name="Utilde" unicode="&#x168;" horiz-adv-x="702" d="M342 755 C346 779 374 811 390 811 C432 811 508 748 549 748 C587 748 652 826 662 885 C662 885 643 885 643 885 C638 859 607 825 587 825 C546 825 470 887 429 887 C393 887 332 811 322 755 C322 755 342 755 342 755 L342 755 Z M200 580 C200 580 200 580 200 580 C200 580 137 219 137 219 C120 123 221 -5 352 -5 C477 -5 616 106 631 189 C631 189 699 573 699 573 C707 605 754 645 783 645 C783 645 796 645 796 645 C796 645 797 649 797 653 C798 656 799 660 799 660 C799 660 714 660 714 660 C714 660 695 660 695 660 C695 660 675 660 675 660 C675 660 585 660 585 660 C585 660 585 656 584 653 C584 649 583 645 583 645 C583 645 598 645 598 645 C627 645 659 609 660 578 C660 578 594 202 594 202 C582 133 475 40 379 40 C304 40 249 128 260 194 C260 194 328 580 328 580 C328 580 328 580 328 580 C333 608 376 645 403 645 C403 645 415 645 415 645 C414 645 415 649 416 653 C416 656 417 660 417 660 C417 660 342 660 342 660 C342 660 278 660 278 660 C278 660 214 660 214 660 C214 660 139 660 139 660 C139 660 139 656 138 653 C138 649 137 645 137 645 C137 645 148 645 148 645 C175 645 205 608 200 580 C200 580 200 580 200 580 L200 580 Z " />
<glyph glyph-name="utilde" unicode="&#x169;" horiz-adv-x="601" d="M256 595 C260 619 288 651 305 651 C346 651 422 588 463 588 C501 588 566 666 576 725 C576 725 557 725 557 725 C553 699 521 665 501 665 C460 665 384 727 343 727 C308 727 247 651 237 595 C237 595 256 595 256 595 L256 595 Z M516 141 C516 141 516 141 516 141 C516 141 579 500 579 500 C579 500 522 500 522 500 C522 500 464 500 464 500 C464 500 389 500 389 500 C389 500 388 496 388 493 C387 489 387 485 387 485 C387 485 398 485 398 485 C424 485 453 451 450 423 C450 423 392 92 392 92 C375 82 343 71 324 71 C273 71 226 125 233 166 C233 166 293 500 293 500 C293 500 235 500 235 500 C235 500 178 500 178 500 C178 500 103 500 103 500 C102 500 100 486 100 485 C100 485 111 485 111 485 C138 485 168 448 163 420 C163 420 164 420 164 420 C164 420 117 154 117 154 C105 86 159 -5 220 -5 C255 -5 338 36 389 74 C389 74 381 30 381 30 C381 30 381 30 381 30 C381 30 376 0 376 0 C376 0 399 0 399 0 C399 0 575 51 575 51 C575 51 575 52 575 52 C576 55 577 60 577 60 C577 60 566 62 566 62 C529 71 509 102 516 141 C516 141 516 141 516 141 L516 141 Z " />
<glyph glyph-name="Umacron" unicode="&#x16a;" horiz-adv-x="702" d="M332 761 C332 761 632 761 632 761 C632 761 643 825 643 825 C643 825 343 825 343 825 C343 825 332 761 332 761 L332 761 Z M200 580 C200 580 200 580 200 580 C200 580 137 219 137 219 C120 123 221 -5 352 -5 C477 -5 616 106 631 189 C631 189 699 573 699 573 C707 605 754 645 783 645 C783 645 796 645 796 645 C796 645 797 649 797 653 C798 656 799 660 799 660 C799 660 714 660 714 660 C714 660 695 660 695 660 C695 660 675 660 675 660 C675 660 585 660 585 660 C585 660 585 656 584 653 C584 649 583 645 583 645 C583 645 598 645 598 645 C627 645 659 609 660 578 C660 578 594 202 594 202 C582 133 475 40 379 40 C304 40 249 128 260 194 C260 194 328 580 328 580 C328 580 328 580 328 580 C333 608 376 645 403 645 C403 645 415 645 415 645 C414 645 415 649 416 653 C416 656 417 660 417 660 C417 660 342 660 342 660 C342 660 278 660 278 660 C278 660 214 660 214 660 C214 660 139 660 139 660 C139 660 139 656 138 653 C138 649 137 645 137 645 C137 645 148 645 148 645 C175 645 205 608 200 580 C200 580 200 580 200 580 L200 580 Z " />
<glyph glyph-name="umacron" unicode="&#x16b;" horiz-adv-x="601" d="M246 601 C246 601 546 601 546 601 C546 601 557 665 557 665 C557 665 257 665 257 665 C257 665 246 601 246 601 L246 601 Z M516 141 C516 141 516 141 516 141 C516 141 579 500 579 500 C579 500 522 500 522 500 C522 500 464 500 464 500 C464 500 389 500 389 500 C389 500 388 496 388 493 C387 489 387 485 387 485 C387 485 398 485 398 485 C424 485 453 451 450 423 C450 423 392 92 392 92 C375 82 343 71 324 71 C273 71 226 125 233 166 C233 166 293 500 293 500 C293 500 235 500 235 500 C235 500 178 500 178 500 C178 500 103 500 103 500 C102 500 100 486 100 485 C100 485 111 485 111 485 C138 485 168 448 163 420 C163 420 164 420 164 420 C164 420 117 154 117 154 C105 86 159 -5 220 -5 C255 -5 338 36 389 74 C389 74 381 30 381 30 C381 30 381 30 381 30 C381 30 376 0 376 0 C376 0 399 0 399 0 C399 0 575 51 575 51 C575 51 575 52 575 52 C576 55 577 60 577 60 C577 60 566 62 566 62 C529 71 509 102 516 141 C516 141 516 141 516 141 L516 141 Z " />
<glyph glyph-name="Ubreve" unicode="&#x16c;" horiz-adv-x="702" d="M369 870 C383 813 446 736 477 736 C510 736 599 813 633 870 C633 870 616 878 616 878 C599 850 527 812 491 812 C454 812 396 850 389 878 C389 878 369 870 369 870 L369 870 Z M200 580 C200 580 200 580 200 580 C200 580 137 219 137 219 C120 123 221 -5 352 -5 C477 -5 616 106 631 189 C631 189 699 573 699 573 C707 605 754 645 783 645 C783 645 796 645 796 645 C796 645 797 649 797 653 C798 656 799 660 799 660 C799 660 714 660 714 660 C714 660 695 660 695 660 C695 660 675 660 675 660 C675 660 585 660 585 660 C585 660 585 656 584 653 C584 649 583 645 583 645 C583 645 598 645 598 645 C627 645 659 609 660 578 C660 578 594 202 594 202 C582 133 475 40 379 40 C304 40 249 128 260 194 C260 194 328 580 328 580 C328 580 328 580 328 580 C333 608 376 645 403 645 C403 645 415 645 415 645 C414 645 415 649 416 653 C416 656 417 660 417 660 C417 660 342 660 342 660 C342 660 278 660 278 660 C278 660 214 660 214 660 C214 660 139 660 139 660 C139 660 139 656 138 653 C138 649 137 645 137 645 C137 645 148 645 148 645 C175 645 205 608 200 580 C200 580 200 580 200 580 L200 580 Z " />
<glyph glyph-name="ubreve" unicode="&#x16d;" horiz-adv-x="601" d="M283 710 C297 653 360 576 392 576 C424 576 513 653 548 710 C548 710 530 718 530 718 C513 690 442 652 405 652 C369 652 310 690 303 718 C303 718 283 710 283 710 L283 710 Z M516 141 C516 141 516 141 516 141 C516 141 579 500 579 500 C579 500 522 500 522 500 C522 500 464 500 464 500 C464 500 389 500 389 500 C389 500 388 496 388 493 C387 489 387 485 387 485 C387 485 398 485 398 485 C424 485 453 451 450 423 C450 423 392 92 392 92 C375 82 343 71 324 71 C273 71 226 125 233 166 C233 166 293 500 293 500 C293 500 235 500 235 500 C235 500 178 500 178 500 C178 500 103 500 103 500 C102 500 100 486 100 485 C100 485 111 485 111 485 C138 485 168 448 163 420 C163 420 164 420 164 420 C164 420 117 154 117 154 C105 86 159 -5 220 -5 C255 -5 338 36 389 74 C389 74 381 30 381 30 C381 30 381 30 381 30 C381 30 376 0 376 0 C376 0 399 0 399 0 C399 0 575 51 575 51 C575 51 575 52 575 52 C576 55 577 60 577 60 C577 60 566 62 566 62 C529 71 509 102 516 141 C516 141 516 141 516 141 L516 141 Z " />
<glyph glyph-name="Uring" unicode="&#x16e;" horiz-adv-x="702" d="M475 721 C450 721 418 762 423 788 C428 816 471 854 498 854 C526 854 556 816 551 788 C546 762 500 721 475 721 L475 721 Z M391 788 C384 752 433 695 470 695 C507 695 576 752 583 788 C590 827 544 880 503 880 C462 880 398 827 391 788 L391 788 Z M200 580 C200 580 200 580 200 580 C200 580 137 219 137 219 C120 123 221 -5 352 -5 C477 -5 616 106 631 189 C631 189 699 573 699 573 C707 605 754 645 783 645 C783 645 796 645 796 645 C796 645 797 649 797 653 C798 656 799 660 799 660 C799 660 714 660 714 660 C714 660 695 660 695 660 C695 660 675 660 675 660 C675 660 585 660 585 660 C585 660 585 656 584 653 C584 649 583 645 583 645 C583 645 598 645 598 645 C627 645 659 609 660 578 C660 578 594 202 594 202 C582 133 475 40 379 40 C304 40 249 128 260 194 C260 194 328 580 328 580 C328 580 328 580 328 580 C333 608 376 645 403 645 C403 645 415 645 415 645 C414 645 415 649 416 653 C416 656 417 660 417 660 C417 660 342 660 342 660 C342 660 278 660 278 660 C278 660 214 660 214 660 C214 660 139 660 139 660 C139 660 139 656 138 653 C138 649 137 645 137 645 C137 645 148 645 148 645 C175 645 205 608 200 580 C200 580 200 580 200 580 L200 580 Z " />
<glyph glyph-name="uring" unicode="&#x16f;" horiz-adv-x="601" d="M389 561 C364 561 332 602 337 628 C342 656 385 694 413 694 C440 694 470 656 465 628 C460 602 414 561 389 561 L389 561 Z M305 628 C299 592 348 535 385 535 C421 535 490 592 497 628 C504 667 458 720 417 720 C376 720 312 667 305 628 L305 628 Z M516 141 C516 141 516 141 516 141 C516 141 579 500 579 500 C579 500 522 500 522 500 C522 500 464 500 464 500 C464 500 389 500 389 500 C389 500 388 496 388 493 C387 489 387 485 387 485 C387 485 398 485 398 485 C424 485 453 451 450 423 C450 423 392 92 392 92 C375 82 343 71 324 71 C273 71 226 125 233 166 C233 166 293 500 293 500 C293 500 235 500 235 500 C235 500 178 500 178 500 C178 500 103 500 103 500 C102 500 100 486 100 485 C100 485 111 485 111 485 C138 485 168 448 163 420 C163 420 164 420 164 420 C164 420 117 154 117 154 C105 86 159 -5 220 -5 C255 -5 338 36 389 74 C389 74 381 30 381 30 C381 30 381 30 381 30 C381 30 376 0 376 0 C376 0 399 0 399 0 C399 0 575 51 575 51 C575 51 575 52 575 52 C576 55 577 60 577 60 C577 60 566 62 566 62 C529 71 509 102 516 141 C516 141 516 141 516 141 L516 141 Z " />
<glyph glyph-name="Wcircumflex" unicode="&#x174;" horiz-adv-x="1013" d="M1125 660 C1125 660 1055 660 1055 660 C1055 660 1036 660 1036 660 C1036 660 1017 660 1017 660 C1017 660 912 660 912 660 C912 660 911 656 910 653 C910 649 909 645 909 645 C909 645 944 645 944 645 C972 645 991 609 980 581 C980 581 696 -15 696 -15 C696 -15 787 177 787 177 C787 177 679 670 679 670 C679 670 647 670 647 670 C647 670 309 -15 309 -15 C309 -15 397 164 397 164 C397 164 325 580 325 580 C325 580 325 580 325 580 C320 608 351 645 379 645 C379 645 399 645 399 645 C399 645 399 649 400 653 C400 656 401 660 401 660 C401 660 311 660 311 660 C311 660 241 660 241 660 C241 660 171 660 171 660 C171 660 116 660 116 660 C116 659 114 645 114 645 C114 645 123 645 123 645 C144 645 181 608 187 580 C187 580 187 580 187 580 C187 580 309 -15 309 -15 C309 -15 341 -15 341 -15 C341 -15 578 466 578 466 C578 466 696 -15 696 -15 C696 -15 728 -15 728 -15 C728 -15 1018 584 1018 584 C1035 611 1085 645 1111 645 C1111 645 1123 645 1123 645 C1123 645 1125 659 1125 660 L1125 660 Z M686 800 C686 800 777 691 777 691 C777 691 791 701 791 701 C791 701 735 872 735 872 C733 879 717 904 704 904 C691 904 667 879 662 872 C662 872 546 701 546 701 C546 701 556 691 556 691 C556 691 686 800 686 800 L686 800 Z " />
<glyph glyph-name="Ycircumflex" unicode="&#x176;" horiz-adv-x="671" d="M410 80 C410 80 410 80 410 80 C425 166 445 279 454 330 C454 330 453 330 453 330 C453 330 669 584 669 584 C695 611 753 645 776 645 C776 645 785 645 785 645 C785 645 787 653 787 653 C787 656 788 660 788 660 C788 660 733 660 733 660 C733 660 714 660 714 660 C714 660 695 660 695 660 C695 660 585 660 585 660 C585 660 584 656 583 653 C583 649 582 645 582 645 C582 645 597 645 597 645 C634 645 642 596 611 560 C611 560 612 560 612 560 C612 560 441 356 441 356 C441 356 349 580 349 580 C349 580 349 580 349 580 C338 608 360 645 388 645 C388 645 404 645 404 645 C404 645 406 659 406 660 C406 660 316 660 316 660 C316 660 240 660 240 660 C240 660 163 660 163 660 C163 660 117 660 117 660 C117 660 116 656 116 653 C116 653 114 645 114 645 C114 645 123 645 123 645 C141 645 179 613 194 586 C194 586 319 288 319 288 C308 230 293 145 281 78 C275 50 233 15 207 15 C207 15 195 15 195 15 C195 15 195 11 194 8 C194 4 193 0 193 0 C193 0 268 0 268 0 C268 0 332 0 332 0 C332 0 396 0 396 0 C396 0 471 0 471 0 C470 0 471 4 472 8 C472 11 473 15 473 15 C473 15 462 15 462 15 C434 15 405 52 410 80 C410 80 410 80 410 80 L410 80 Z M473 800 C473 800 564 691 564 691 C564 691 577 701 577 701 C577 701 522 872 522 872 C520 879 504 904 491 904 C478 904 454 879 449 872 C449 872 333 701 333 701 C333 701 343 691 343 691 C343 691 473 800 473 800 L473 800 Z " />
<glyph glyph-name="Ydieresis" unicode="&#x178;" horiz-adv-x="671" d="M561 730 C591 730 638 770 643 800 C649 831 615 871 585 871 C556 871 508 831 503 800 C498 770 531 730 561 730 L561 730 Z M360 730 C390 730 438 770 443 800 C448 831 415 871 385 871 C355 871 307 831 302 800 C297 770 330 730 360 730 L360 730 Z M410 80 C410 80 410 80 410 80 C425 166 445 279 454 330 C454 330 453 330 453 330 C453 330 669 584 669 584 C695 611 753 645 776 645 C776 645 785 645 785 645 C785 645 787 653 787 653 C787 656 788 660 788 660 C788 660 733 660 733 660 C733 660 714 660 714 660 C714 660 695 660 695 660 C695 660 585 660 585 660 C585 660 584 656 583 653 C583 649 582 645 582 645 C582 645 597 645 597 645 C634 645 642 596 611 560 C611 560 612 560 612 560 C612 560 441 356 441 356 C441 356 349 580 349 580 C349 580 349 580 349 580 C338 608 360 645 388 645 C388 645 404 645 404 645 C404 645 406 659 406 660 C406 660 316 660 316 660 C316 660 240 660 240 660 C240 660 163 660 163 660 C163 660 117 660 117 660 C117 660 116 656 116 653 C116 653 114 645 114 645 C114 645 123 645 123 645 C141 645 179 613 194 586 C194 586 319 288 319 288 C308 230 293 145 281 78 C275 50 233 15 207 15 C207 15 195 15 195 15 C195 15 195 11 194 8 C194 4 193 0 193 0 C193 0 268 0 268 0 C268 0 332 0 332 0 C332 0 396 0 396 0 C396 0 471 0 471 0 C470 0 471 4 472 8 C472 11 473 15 473 15 C473 15 462 15 462 15 C434 15 405 52 410 80 C410 80 410 80 410 80 L410 80 Z " />
<glyph glyph-name="Zacute" unicode="&#x179;" horiz-adv-x="592" d="M443 690 C443 690 581 814 581 814 C599 830 624 856 625 861 C627 871 582 909 568 909 C564 909 544 881 530 859 C530 859 432 699 432 699 C432 699 443 690 443 690 L443 690 Z M543 183 C543 183 507 123 507 123 C485 85 403 33 364 33 C364 33 199 33 199 33 C199 33 646 660 646 660 C646 660 573 660 573 660 C573 660 500 660 500 660 C500 660 278 660 278 660 C278 660 229 660 229 660 C229 660 198 660 198 660 C196 657 192 647 191 644 C178 615 143 537 130 508 C130 508 142 508 142 508 C142 508 176 548 176 548 C205 582 289 628 324 628 C324 628 477 628 477 628 C477 628 32 0 32 0 C32 0 104 0 104 0 C104 0 175 0 175 0 C175 0 418 0 418 0 C418 0 493 0 493 0 C493 0 498 0 498 0 C499 3 502 13 503 17 C515 51 547 142 559 176 C555 178 543 183 543 183 L543 183 Z " />
<glyph glyph-name="zacute" unicode="&#x17a;" horiz-adv-x="483" d="M285 530 C285 530 423 654 423 654 C441 670 466 696 467 701 C469 711 424 749 410 749 C407 749 386 721 373 699 C373 699 274 539 274 539 C274 539 285 530 285 530 L285 530 Z M449 176 C449 176 413 116 413 116 C390 77 308 26 270 26 C270 26 191 26 191 26 C191 26 522 500 522 500 C522 500 455 500 455 500 C455 500 389 500 389 500 C389 500 238 500 238 500 C238 500 189 500 189 500 C189 500 158 500 158 500 C157 497 154 489 152 487 C143 465 116 405 106 383 C106 383 118 383 118 383 C118 383 132 397 132 397 C164 429 252 473 286 473 C286 473 286 473 286 473 C286 473 370 474 370 474 C370 474 37 0 37 0 C37 0 105 0 105 0 C105 0 173 0 173 0 C173 0 326 0 326 0 C326 0 400 0 400 0 C400 0 406 0 406 0 C407 3 409 10 410 13 C422 46 453 135 465 168 C465 170 449 176 449 176 C449 176 449 176 449 176 L449 176 Z " />
<glyph glyph-name="Zdotaccent" unicode="&#x17b;" horiz-adv-x="592" d="M450 730 C480 730 527 770 532 800 C538 831 504 871 474 871 C445 871 397 831 392 800 C387 770 420 730 450 730 L450 730 Z M543 183 C543 183 507 123 507 123 C485 85 403 33 364 33 C364 33 199 33 199 33 C199 33 646 660 646 660 C646 660 573 660 573 660 C573 660 500 660 500 660 C500 660 278 660 278 660 C278 660 229 660 229 660 C229 660 198 660 198 660 C196 657 192 647 191 644 C178 615 143 537 130 508 C130 508 142 508 142 508 C142 508 176 548 176 548 C205 582 289 628 324 628 C324 628 477 628 477 628 C477 628 32 0 32 0 C32 0 104 0 104 0 C104 0 175 0 175 0 C175 0 418 0 418 0 C418 0 493 0 493 0 C493 0 498 0 498 0 C499 3 502 13 503 17 C515 51 547 142 559 176 C555 178 543 183 543 183 L543 183 Z " />
<glyph glyph-name="zdotaccent" unicode="&#x17c;" horiz-adv-x="483" d="M368 570 C398 570 445 610 450 640 C456 671 422 711 392 711 C363 711 315 671 310 640 C305 610 338 570 368 570 L368 570 Z M449 176 C449 176 413 116 413 116 C390 77 308 26 270 26 C270 26 191 26 191 26 C191 26 522 500 522 500 C522 500 455 500 455 500 C455 500 389 500 389 500 C389 500 238 500 238 500 C238 500 189 500 189 500 C189 500 158 500 158 500 C157 497 154 489 152 487 C143 465 116 405 106 383 C106 383 118 383 118 383 C118 383 132 397 132 397 C164 429 252 473 286 473 C286 473 286 473 286 473 C286 473 370 474 370 474 C370 474 37 0 37 0 C37 0 105 0 105 0 C105 0 173 0 173 0 C173 0 326 0 326 0 C326 0 400 0 400 0 C400 0 406 0 406 0 C407 3 409 10 410 13 C422 46 453 135 465 168 C465 170 449 176 449 176 C449 176 449 176 449 176 L449 176 Z " />
<glyph glyph-name="Zcaron" unicode="&#x17d;" horiz-adv-x="592" d="M543 183 C543 183 507 123 507 123 C485 85 403 33 364 33 C364 33 199 33 199 33 C199 33 646 660 646 660 C646 660 573 660 573 660 C573 660 500 660 500 660 C500 660 278 660 278 660 C278 660 229 660 229 660 C229 660 198 660 198 660 C196 657 192 647 191 644 C178 615 143 537 130 508 C130 508 142 508 142 508 C142 508 176 548 176 548 C205 582 289 628 324 628 C324 628 477 628 477 628 C477 628 32 0 32 0 C32 0 104 0 104 0 C104 0 175 0 175 0 C175 0 418 0 418 0 C418 0 493 0 493 0 C493 0 498 0 498 0 C499 3 502 13 503 17 C515 51 547 142 559 176 C555 178 543 183 543 183 L543 183 Z M466 821 C466 821 595 929 595 929 C595 929 605 919 605 919 C605 919 490 748 490 748 C485 741 460 716 447 716 C434 716 418 741 416 748 C416 748 361 919 361 919 C361 919 374 929 374 929 C374 929 466 821 466 821 L466 821 Z " />
<glyph glyph-name="zcaron" unicode="&#x17e;" horiz-adv-x="483" d="M449 176 C449 176 413 116 413 116 C390 77 308 26 270 26 C270 26 191 26 191 26 C191 26 522 500 522 500 C522 500 455 500 455 500 C455 500 389 500 389 500 C389 500 238 500 238 500 C238 500 189 500 189 500 C189 500 158 500 158 500 C157 497 154 489 152 487 C143 465 116 405 106 383 C106 383 118 383 118 383 C118 383 132 397 132 397 C164 429 252 473 286 473 C286 473 286 473 286 473 C286 473 370 474 370 474 C370 474 37 0 37 0 C37 0 105 0 105 0 C105 0 173 0 173 0 C173 0 326 0 326 0 C326 0 400 0 400 0 C400 0 406 0 406 0 C407 3 409 10 410 13 C422 46 453 135 465 168 C465 170 449 176 449 176 C449 176 449 176 449 176 L449 176 Z M384 661 C384 661 513 769 513 769 C513 769 523 759 523 759 C523 759 408 588 408 588 C403 581 379 556 365 556 C352 556 337 581 334 588 C334 588 279 759 279 759 C279 759 292 769 292 769 C292 769 384 661 384 661 L384 661 Z " />
<glyph glyph-name="SmallLetterOwithogon" unicode="&#x1eb;" horiz-adv-x="699" d="M708 -39 C708 -39 699 -31 699 -31 C686 -45 606 -63 559 -63 C493 -63 405 -32 366 -4 C505 11 680 173 698 277 C717 385 588 558 446 558 C303 558 113 385 94 277 C76 174 190 14 323 -3 C378 -65 485 -138 534 -138 C571 -138 671 -81 708 -39 L708 -39 Z M351 24 C269 24 204 179 221 277 C238 374 358 530 441 530 C523 530 589 374 571 277 C554 179 434 24 351 24 L351 24 Z " />
<glyph glyph-name="CapitalLetterAwithdo" unicode="&#x226;" horiz-adv-x="708" d="M460 730 C490 730 537 770 542 800 C547 831 514 871 484 871 C454 871 407 831 402 800 C397 770 430 730 460 730 L460 730 Z M447 232 C447 232 484 80 484 80 C484 80 484 80 484 80 C491 52 463 15 435 15 C435 15 403 15 403 15 C403 15 402 11 401 8 C401 4 400 0 400 0 C400 0 504 0 504 0 C504 0 573 0 573 0 C573 0 643 0 643 0 C643 0 703 0 703 0 C703 0 704 4 704 7 C704 7 706 15 706 15 C706 15 696 15 696 15 C672 15 631 50 622 78 C622 78 466 675 466 675 C466 675 434 675 434 675 C434 675 107 75 107 75 C88 47 36 15 11 15 C11 15 0 15 0 15 C0 15 -1 11 -2 8 C-2 4 -3 0 -3 0 C-3 0 66 0 66 0 C66 0 88 0 88 0 C88 0 109 0 109 0 C109 0 219 0 219 0 C219 0 220 4 220 8 C221 11 221 15 221 15 C221 15 197 15 197 15 C164 15 143 57 157 91 C157 91 232 232 232 232 C232 232 447 232 447 232 L447 232 Z M439 264 C439 264 249 264 249 264 C249 264 378 509 378 509 C378 509 439 264 439 264 L439 264 Z " />
<glyph glyph-name="LETTERSMALLCAPITALG" unicode="&#x262;" horiz-adv-x="756" d="M514 180 C514 180 514 180 514 180 C505 125 495 73 491 46 C445 33 398 24 373 24 C289 24 202 169 221 277 C240 385 378 530 462 530 C468 530 476 529 485 528 C485 528 485 528 485 528 C534 521 613 439 623 386 C624 378 628 357 629 349 C629 349 642 349 642 349 C642 349 669 500 669 500 C630 525 514 558 467 558 C329 558 115 397 94 277 C73 156 229 -5 368 -5 C417 -5 548 29 596 54 C596 54 606 114 618 180 C618 180 618 180 618 180 C623 208 666 245 693 245 C693 245 704 245 704 245 C704 245 705 249 706 252 C706 256 707 260 707 260 C707 260 632 260 632 260 C632 260 580 260 580 260 C580 260 528 260 528 260 C528 260 453 260 453 260 C454 260 453 256 452 252 C452 249 451 245 451 245 C451 245 462 245 462 245 C489 245 519 208 514 180 L514 180 Z " />
<glyph glyph-name="LETTERSMALLCAPITALI" unicode="&#x26a;" horiz-adv-x="351" d="M179 0 C179 0 236 0 236 0 C236 0 311 0 311 0 C312 0 312 4 313 8 C313 11 314 15 314 15 C314 15 303 15 303 15 C277 15 248 50 250 77 C250 77 320 473 320 473 C320 473 320 473 320 473 C325 501 368 538 395 538 C395 538 406 538 406 538 C407 538 407 543 408 546 C408 549 409 553 409 553 C409 553 334 553 334 553 C334 553 276 553 276 553 C276 553 219 553 219 553 C219 553 144 553 144 553 C144 553 143 549 143 546 C142 543 141 538 141 538 C141 538 153 538 153 538 C179 538 208 504 205 476 C205 476 135 80 135 80 C135 80 135 80 135 80 C130 52 87 15 60 15 C60 15 49 15 49 15 C49 15 48 11 48 8 C48 8 46 0 46 0 C46 0 121 0 121 0 C121 0 179 0 179 0 L179 0 Z " />
<glyph glyph-name="LETTERSMALLCAPITALN" unicode="&#x274;" horiz-adv-x="659" d="M593 473 C593 473 594 473 594 473 C594 473 539 165 539 165 C539 165 314 553 314 553 C314 553 245 553 245 553 C245 553 237 506 237 506 C237 506 314 553 314 553 C314 553 237 506 237 506 C237 506 245 553 245 553 C245 553 228 553 228 553 C228 553 211 553 211 553 C211 553 136 553 136 553 C136 553 135 549 135 546 C134 543 133 538 133 538 C133 538 145 538 145 538 C171 538 200 504 197 476 C197 476 127 80 127 80 C127 80 127 80 127 80 C122 52 79 15 52 15 C52 15 41 15 41 15 C41 15 40 11 40 8 C40 8 38 0 38 0 C38 0 113 0 113 0 C113 0 131 0 131 0 C131 0 148 0 148 0 C148 0 223 0 223 0 C223 0 224 4 224 8 C225 11 226 15 226 15 C226 15 214 15 214 15 C188 15 158 51 162 78 C162 78 228 454 228 454 C228 454 466 46 466 46 C466 46 504 -20 504 -20 C504 -20 541 -20 541 -20 C541 -20 560 88 560 88 C560 88 628 473 628 473 C628 473 628 473 628 473 C633 501 676 538 703 538 C703 538 714 538 714 538 C714 538 715 543 716 546 C716 549 717 553 717 553 C717 553 642 553 642 553 C642 553 625 553 625 553 C625 553 608 553 608 553 C608 553 533 553 533 553 C533 553 532 549 531 546 C531 543 530 538 530 538 C530 538 541 538 541 538 C568 538 598 501 593 473 L593 473 Z " />
<glyph glyph-name="LETTERSMALLCAPITALR" unicode="&#x280;" horiz-adv-x="636" d="M637 0 C637 0 641 23 641 23 C641 23 636 23 636 23 C608 23 583 42 557 84 C557 84 434 283 434 283 C513 313 588 368 596 412 C606 472 493 553 397 553 C397 553 324 553 324 553 C324 553 266 553 266 553 C266 553 209 553 209 553 C209 553 134 553 134 553 C134 553 133 549 132 546 C132 543 131 538 131 538 C131 538 142 538 142 538 C169 538 198 504 195 476 C195 476 125 80 125 80 C125 80 125 80 125 80 C120 52 77 15 50 15 C50 15 39 15 39 15 C39 15 38 11 38 8 C38 8 36 0 36 0 C36 0 111 0 111 0 C111 0 169 0 169 0 C169 0 226 0 226 0 C226 0 301 0 301 0 C301 0 303 8 303 8 C303 11 304 15 304 15 C304 15 293 15 293 15 C266 15 238 50 240 77 C240 77 272 261 272 261 C272 261 310 261 310 261 C310 261 404 106 404 106 C448 33 509 0 597 0 C597 0 637 0 637 0 L637 0 Z M336 290 C336 290 292 290 292 290 C292 290 277 290 277 290 C277 290 319 525 319 525 C319 525 392 525 392 525 C436 525 483 461 475 412 C466 360 386 290 336 290 L336 290 Z " />
<glyph glyph-name="LETTERSMALLCAPITALY" unicode="&#x28f;" horiz-adv-x="599" d="M432 15 C432 15 421 15 421 15 C394 15 364 52 369 80 C369 80 369 80 369 80 C381 150 397 238 404 280 C404 280 577 479 577 479 C604 506 662 538 684 538 C684 538 694 538 694 538 C693 538 694 543 695 546 C695 549 696 553 696 553 C696 553 642 553 642 553 C642 553 624 553 624 553 C624 553 607 553 607 553 C607 553 497 553 497 553 C497 553 496 549 496 546 C495 543 494 538 495 538 C495 538 510 538 510 538 C544 538 552 494 526 458 C526 458 387 295 387 295 C387 295 316 477 316 477 C308 504 330 538 357 538 C357 538 373 538 373 538 C373 538 374 543 375 546 C375 549 376 553 376 553 C376 553 286 553 286 553 C286 553 217 553 217 553 C217 553 148 553 148 553 C148 553 102 553 102 553 C102 553 102 549 101 546 C101 543 100 538 100 538 C100 538 108 538 108 538 C127 538 167 505 181 477 C181 477 283 244 283 244 C275 197 263 132 253 77 C246 50 205 15 179 15 C179 15 167 15 167 15 C168 15 167 11 166 8 C166 4 165 0 165 0 C165 0 240 0 240 0 C240 0 297 0 297 0 C297 0 355 0 355 0 C355 0 430 0 430 0 C430 0 432 14 432 15 C432 15 432 15 432 15 L432 15 Z " />
<glyph glyph-name="LETTERSMALLCAPITALB" unicode="&#x299;" horiz-adv-x="592" d="M277 289 C277 289 276 281 276 281 C276 281 333 281 333 281 C405 281 489 209 479 155 C470 101 375 29 314 29 C314 29 231 29 231 29 C231 29 277 289 277 289 C277 289 277 289 277 289 L277 289 Z M412 300 C497 323 584 377 591 420 C602 477 491 553 398 553 C398 553 324 553 324 553 C324 553 266 553 266 553 C266 553 209 553 209 553 C209 553 134 553 134 553 C134 553 133 549 132 546 C132 543 131 538 131 538 C131 538 142 538 142 538 C169 538 198 504 195 476 C195 476 125 80 125 80 C125 80 125 80 125 80 C120 52 77 15 50 15 C50 15 39 15 39 15 C39 15 38 11 38 8 C38 8 36 0 36 0 C36 0 111 0 111 0 C111 0 169 0 169 0 C169 0 226 0 226 0 C226 0 321 0 321 0 C429 0 589 89 600 155 C610 211 510 283 412 300 C412 300 412 300 412 300 L412 300 Z M280 306 C280 306 319 525 319 525 C319 525 392 525 392 525 C437 525 485 465 476 420 C468 371 390 306 339 306 C339 306 280 306 280 306 L280 306 Z " />
<glyph glyph-name="LETTERSMALLCAPITALH" unicode="&#x29c;" horiz-adv-x="726" d="M580 473 C580 473 581 473 581 473 C581 473 551 307 551 307 C551 307 287 307 287 307 C287 307 317 473 317 473 C317 473 317 473 317 473 C322 501 365 538 392 538 C392 538 403 538 403 538 C403 538 404 543 404 546 C405 549 406 553 406 553 C406 553 331 553 331 553 C331 553 273 553 273 553 C273 553 216 553 216 553 C216 553 141 553 141 553 C141 553 140 549 139 546 C139 543 138 538 138 538 C138 538 149 538 149 538 C176 538 204 503 202 476 C202 476 132 80 132 80 C132 80 132 80 132 80 C127 52 84 15 57 15 C57 15 46 15 46 15 C46 15 45 11 45 8 C45 8 43 0 43 0 C43 0 118 0 118 0 C118 0 176 0 176 0 C176 0 233 0 233 0 C233 0 308 0 308 0 C308 0 310 8 310 8 C310 11 311 15 311 15 C311 15 300 15 300 15 C273 15 244 49 247 77 C247 77 282 278 282 278 C282 278 546 278 546 278 C546 278 511 80 511 80 C511 80 511 80 511 80 C506 52 463 15 436 15 C436 15 425 15 425 15 C425 15 424 11 423 8 C423 4 422 0 422 0 C422 0 497 0 497 0 C497 0 554 0 554 0 C554 0 612 0 612 0 C612 0 687 0 687 0 C687 0 688 4 688 8 C689 11 690 15 690 15 C690 15 678 15 678 15 C652 15 623 49 626 77 C626 77 697 481 697 481 C707 507 745 538 771 538 C771 538 782 538 782 538 C782 538 783 543 783 546 C784 549 785 553 785 553 C785 553 710 553 710 553 C710 553 652 553 652 553 C652 553 595 553 595 553 C595 553 520 553 520 553 C520 553 519 549 518 546 C518 543 517 538 517 538 C517 538 528 538 528 538 C555 538 585 501 580 473 C580 473 580 473 580 473 L580 473 Z " />
<glyph glyph-name="LETTERSMALLCAPITALL" unicode="&#x29f;" horiz-adv-x="598" d="M531 179 C531 179 496 119 496 119 C473 80 391 29 352 29 C352 29 238 29 238 29 C238 29 317 473 317 473 C317 473 317 473 317 473 C322 501 365 538 392 538 C392 538 403 538 403 538 C403 538 404 543 404 546 C405 549 406 553 406 553 C406 553 331 553 331 553 C331 553 273 553 273 553 C273 553 216 553 216 553 C216 553 141 553 141 553 C141 553 140 549 139 546 C139 543 138 538 138 538 C138 538 149 538 149 538 C176 538 204 503 202 476 C202 476 132 80 132 80 C132 80 132 80 132 80 C127 52 84 15 57 15 C57 15 46 15 46 15 C46 15 45 11 45 8 C45 8 43 0 43 0 C43 0 118 0 118 0 C118 0 176 0 176 0 C176 0 233 0 233 0 C233 0 407 0 407 0 C407 0 483 0 483 0 C483 0 487 0 487 0 C488 3 491 11 492 14 C504 48 536 138 548 171 C544 172 531 179 531 179 L531 179 Z " />
<glyph glyph-name="LETTERSMALLCAPITALA" unicode="&#x1d00;" horiz-adv-x="634" d="M547 80 C547 80 547 80 547 80 C547 80 411 566 411 566 C411 566 382 566 382 566 C382 566 112 80 112 80 C112 80 112 80 112 80 C96 52 39 15 12 15 C12 15 1 15 1 15 C1 15 0 11 0 8 C0 8 -2 0 -2 0 C-2 0 68 0 68 0 C68 0 86 0 86 0 C86 0 105 0 105 0 C105 0 215 0 215 0 C215 0 217 8 217 8 C217 11 218 15 218 15 C218 15 194 15 194 15 C159 15 138 61 157 95 C157 95 156 95 156 95 C156 95 210 194 210 194 C210 194 392 194 392 194 C392 194 424 76 424 76 C427 48 402 15 375 15 C375 15 343 15 343 15 C344 15 343 11 342 8 C342 4 341 0 341 0 C341 0 444 0 444 0 C444 0 507 0 507 0 C507 0 569 0 569 0 C569 0 629 0 629 0 C629 0 630 4 631 7 C631 11 632 15 632 15 C632 15 622 15 622 15 C598 15 555 52 547 80 L547 80 Z M385 222 C385 222 226 223 226 223 C226 223 332 420 332 420 C332 420 385 222 385 222 L385 222 Z " />
<glyph glyph-name="LETTERSMALLCAPITALC" unicode="&#x1d04;" horiz-adv-x="660" d="M662 349 C662 349 689 500 689 500 C650 525 529 558 477 558 C334 558 115 397 94 277 C73 156 235 -5 378 -5 C429 -5 562 29 610 54 C610 54 637 204 637 204 C637 204 624 204 624 204 C619 197 608 176 604 168 C573 108 451 27 388 24 C386 24 385 24 383 24 C295 24 202 169 221 277 C240 385 384 530 472 530 C481 530 493 529 506 527 C556 517 633 437 643 385 C644 378 648 357 649 349 C649 349 662 349 662 349 L662 349 Z " />
<glyph glyph-name="LETTERSMALLCAPITALD" unicode="&#x1d05;" horiz-adv-x="687" d="M169 0 C169 0 226 0 226 0 C226 0 325 0 325 0 C459 0 666 158 686 277 C707 395 542 553 398 553 C398 553 324 553 324 553 C324 553 266 553 266 553 C266 553 209 553 209 553 C209 553 134 553 134 553 C134 553 133 549 132 546 C132 543 131 538 131 538 C131 538 142 538 142 538 C169 538 198 504 195 476 C195 476 125 80 125 80 C125 80 125 80 125 80 C120 52 77 15 50 15 C50 15 39 15 39 15 C39 15 38 11 38 8 C38 8 36 0 36 0 C36 0 111 0 111 0 C111 0 169 0 169 0 L169 0 Z M231 29 C231 29 319 525 319 525 C319 525 393 525 393 525 C488 525 590 383 571 277 C553 171 415 29 330 29 C330 29 231 29 231 29 L231 29 Z " />
</font>
</svg>
