<?xml version="1.0" encoding="UTF-8"?>
<svg xmlns="http://www.w3.org/2000/svg" xmlns:xlink="http://www.w3.org/1999/xlink" version="1.2" >
<font id="Aara Book Italic">
<font-face  font-family="Aara" units-per-em="1024" ascent="936" descent="-280" font-style="italic" font-weight="450" font-stretch="normal" cap-height="660" x-height="500" underline-position="0" underline-thickness="0" />
<missing-glyph  horiz-adv-x="472" d="M0 700 C0 700 432 700 432 700 C432 700 432 0 432 0 C432 0 0 0 0 0 C0 0 0 700 0 700 L0 700 Z M50 50 C50 50 382 50 382 50 C382 50 382 650 382 650 C382 650 50 650 50 650 C50 650 50 50 50 50 L50 50 Z " />
<glyph glyph-name="NULL" d="" />
<glyph glyph-name="CR" unicode="&#xd;" horiz-adv-x="256" d="" />
<glyph glyph-name="space" unicode="&#x20;" horiz-adv-x="250" d="" />
<glyph glyph-name="exclam" unicode="&#x21;" horiz-adv-x="208" d="M110 -5 C131 -5 165 24 169 46 C173 67 149 96 128 96 C106 96 72 67 68 46 C64 24 88 -5 110 -5 L110 -5 Z M257 613 C263 635 243 665 223 665 C203 665 173 635 171 613 C171 613 136 171 136 171 C136 171 145 171 145 171 C145 171 257 613 257 613 L257 613 Z " />
<glyph glyph-name="quotedbl" unicode="&#x22;" horiz-adv-x="288" d="M275 660 C275 660 275 436 275 436 C275 436 286 436 286 436 C286 436 365 660 365 660 C365 660 275 660 275 660 L275 660 Z M156 660 C156 660 155 436 155 436 C155 436 167 436 167 436 C167 436 245 660 245 660 C245 660 156 660 156 660 L156 660 Z " />
<glyph glyph-name="numbersign" unicode="&#x23;" horiz-adv-x="540" d="M509 673 C509 673 449 487 449 487 C449 487 307 487 307 487 C307 487 367 673 367 673 C367 673 340 673 340 673 C340 673 280 487 280 487 C280 487 152 487 152 487 C152 487 135 433 135 433 C135 433 263 433 263 433 C263 433 196 227 196 227 C196 227 66 227 66 227 C66 227 49 173 49 173 C49 173 179 173 179 173 C179 173 123 0 123 0 C123 0 151 0 151 0 C151 0 207 173 207 173 C207 173 348 173 348 173 C348 173 292 0 292 0 C292 0 319 0 319 0 C319 0 375 173 375 173 C375 173 497 173 497 173 C497 173 514 227 514 227 C514 227 392 227 392 227 C392 227 459 433 459 433 C459 433 589 433 589 433 C589 433 606 487 606 487 C606 487 476 487 476 487 C476 487 536 673 536 673 C536 673 509 673 509 673 L509 673 Z M290 433 C290 433 432 433 432 433 C432 433 365 227 365 227 C365 227 224 227 224 227 C224 227 290 433 290 433 L290 433 Z " />
<glyph glyph-name="dollar" unicode="&#x24;" horiz-adv-x="507" d="M401 735 C401 735 388 663 388 663 C379 664 371 665 364 665 C354 665 342 663 331 660 C331 660 344 735 344 735 C344 735 321 735 321 735 C321 735 306 652 306 652 C229 621 143 539 131 475 C123 430 184 349 246 313 C246 313 197 32 197 32 C152 58 102 115 95 156 C94 164 90 185 89 193 C89 193 76 193 76 193 C76 193 49 44 49 44 C71 30 135 12 192 2 C192 2 178 -75 178 -75 C178 -75 201 -75 201 -75 C201 -75 214 -1 214 -1 C232 -4 248 -5 261 -5 C264 -5 267 -5 270 -5 C270 -5 258 -75 258 -75 C258 -75 281 -75 281 -75 C281 -75 294 -1 294 -1 C377 20 481 107 493 175 C502 227 427 326 357 356 C357 356 407 636 407 636 C435 625 474 581 479 554 C483 536 491 486 494 467 C494 467 507 467 507 467 C507 467 534 616 534 616 C511 631 455 649 411 659 C411 659 424 735 424 735 C424 735 401 735 401 735 L401 735 Z M218 21 C218 21 268 303 268 303 C270 302 273 301 275 300 C290 295 305 288 320 278 C320 278 274 14 274 14 C271 14 268 14 265 14 C256 14 246 15 234 17 C234 17 234 17 234 17 C229 18 224 19 218 21 C218 21 218 21 218 21 L218 21 Z M283 392 C283 392 327 641 327 641 C338 644 348 646 357 646 C364 646 373 645 385 642 C385 642 335 364 335 364 C318 371 300 380 283 392 C283 392 283 392 283 392 L283 392 Z M263 406 C220 440 187 482 191 506 C198 550 251 604 303 631 C303 631 263 406 263 406 L263 406 Z M341 265 C394 227 438 174 432 143 C424 97 356 38 298 20 C298 20 341 265 341 265 L341 265 Z " />
<glyph glyph-name="ampersand" unicode="&#x26;" horiz-adv-x="712" d="M358 375 C441 406 543 492 553 546 C562 597 490 665 427 665 C365 665 265 572 252 502 C247 476 264 420 289 359 C200 318 88 214 77 156 C65 87 168 -5 257 -5 C322 -5 406 33 474 84 C559 17 655 -10 712 0 C712 0 714 12 714 12 C677 5 600 43 521 123 C561 161 590 203 596 240 C596 240 601 270 601 270 C612 327 667 365 703 365 C703 365 718 365 718 365 C718 365 720 373 720 373 C720 376 721 380 721 380 C721 380 515 380 515 380 C515 380 514 376 514 373 C513 369 513 365 513 365 C513 365 528 365 528 365 C560 365 596 327 586 270 C586 270 581 240 581 240 C575 206 548 168 512 133 C486 161 459 194 434 232 C408 271 380 324 358 375 C358 375 358 375 358 375 L358 375 Z M352 387 C325 450 307 508 311 533 C320 583 382 650 420 650 C461 650 506 589 498 543 C489 492 415 416 352 387 C352 387 352 387 352 387 L352 387 Z M464 92 C411 53 350 26 301 26 C224 26 137 116 148 183 C156 231 231 312 294 347 C318 291 348 232 376 189 C402 151 432 118 464 92 L464 92 Z " />
<glyph glyph-name="quotesingle" unicode="&#x27;" horiz-adv-x="169" d="M40 660 C40 660 79 436 79 436 C79 436 90 436 90 436 C90 436 129 660 129 660 C129 660 40 660 40 660 L40 660 Z " />
<glyph glyph-name="parenleft" unicode="&#x28;" horiz-adv-x="226" d="M329 690 C253 615 131 406 107 270 C84 134 131 -75 181 -150 C181 -150 191 -143 191 -143 C157 -91 133 108 162 270 C190 432 284 631 337 683 C337 683 329 690 329 690 L329 690 Z " />
<glyph glyph-name="parenright" unicode="&#x29;" horiz-adv-x="226" d="M-16 -150 C60 -75 181 134 205 270 C229 406 181 615 132 690 C132 690 121 683 121 683 C156 631 179 432 151 270 C122 108 29 -91 -24 -143 C-24 -143 -16 -150 -16 -150 L-16 -150 Z " />
<glyph glyph-name="asterisk" unicode="&#x2a;" horiz-adv-x="284" d="M144 540 C144 540 35 499 35 499 C24 494 17 476 23 466 C28 457 48 454 57 461 C57 461 147 535 147 535 C147 535 129 420 129 420 C127 408 139 393 150 393 C161 393 173 408 171 420 C171 420 153 535 153 535 C153 535 243 461 243 461 C252 454 272 457 277 466 C283 476 276 494 265 499 C265 499 156 540 156 540 C156 540 265 581 265 581 C276 586 283 604 277 614 C272 623 252 626 243 619 C243 619 153 545 153 545 C153 545 171 660 171 660 C173 672 161 687 150 687 C139 687 127 672 129 660 C129 660 147 545 147 545 C147 545 57 619 57 619 C48 626 28 623 23 614 C17 604 24 586 35 581 C35 581 144 540 144 540 L144 540 Z " />
<glyph glyph-name="plus" unicode="&#x2b;" horiz-adv-x="555" d="M337 450 C337 450 305 266 305 266 C305 266 122 266 122 266 C122 266 116 234 116 234 C116 234 299 234 299 234 C299 234 267 50 267 50 C267 50 301 50 301 50 C301 50 333 234 333 234 C333 234 516 234 516 234 C516 234 522 266 522 266 C522 266 339 266 339 266 C339 266 371 450 371 450 C371 450 337 450 337 450 L337 450 Z " />
<glyph glyph-name="comma" unicode="&#x2c;" horiz-adv-x="219" d="M110 -5 C115 -5 120 -4 125 -1 C126 -7 126 -13 125 -17 C120 -46 79 -101 54 -113 C54 -113 57 -123 57 -123 C100 -104 166 -23 173 18 C175 26 173 39 169 52 C169 72 147 96 128 96 C106 96 72 67 68 46 C64 24 88 -5 110 -5 L110 -5 Z " />
<glyph glyph-name="hyphen" unicode="&#x2d;" horiz-adv-x="280" d="M57 208 C57 208 297 208 297 208 C297 208 306 262 306 262 C306 262 66 262 66 262 C66 262 57 208 57 208 L57 208 Z " />
<glyph glyph-name="period" unicode="&#x2e;" horiz-adv-x="235" d="M124 -5 C146 -5 180 24 184 46 C188 67 164 96 142 96 C120 96 86 67 82 46 C78 24 102 -5 124 -5 L124 -5 Z " />
<glyph glyph-name="slash" unicode="&#x2f;" horiz-adv-x="341" d="M-26 -145 C-26 -145 6 -145 6 -145 C6 -145 466 710 466 710 C466 710 435 710 435 710 C435 710 -26 -145 -26 -145 L-26 -145 Z " />
<glyph glyph-name="zero" unicode="0" horiz-adv-x="604" d="M304 11 C230 11 154 148 172 250 C190 352 314 489 389 489 C463 489 539 352 521 250 C503 148 379 11 304 11 L304 11 Z M94 250 C75 141 194 -5 301 -5 C409 -5 579 141 599 250 C618 359 499 505 391 505 C283 505 113 359 94 250 L94 250 Z " />
<glyph glyph-name="one" unicode="1" horiz-adv-x="330" d="M165 0 C165 0 200 0 200 0 C200 0 275 0 275 0 C275 0 276 4 276 8 C277 11 278 15 278 15 C278 15 266 15 266 15 C240 15 211 50 214 78 C214 78 274 420 274 420 C274 420 274 420 274 420 C279 448 322 485 349 485 C349 485 361 485 361 485 C361 485 361 489 362 493 C362 496 363 500 363 500 C363 500 288 500 288 500 C288 500 253 500 253 500 C253 500 218 500 218 500 C218 500 143 500 143 500 C143 500 142 496 142 493 C141 489 141 485 141 485 C141 485 152 485 152 485 C178 485 207 450 204 422 C204 422 144 80 144 80 C144 80 144 80 144 80 C139 52 96 15 69 15 C69 15 58 15 58 15 C58 15 57 11 56 8 C56 4 55 0 55 0 C55 0 130 0 130 0 C130 0 165 0 165 0 L165 0 Z " />
<glyph glyph-name="two" unicode="2" horiz-adv-x="483" d="M458 49 C465 77 478 125 483 145 C483 145 468 145 468 145 C468 145 465 134 465 134 C458 106 411 70 383 70 C383 70 144 70 144 70 C310 170 480 284 491 351 C503 417 426 505 357 505 C298 505 170 421 134 358 C134 358 142 353 142 353 C167 396 265 453 313 453 C364 453 418 381 409 327 C392 234 183 106 28 16 C28 16 25 0 25 0 C25 0 445 0 445 0 C445 0 454 35 454 35 C454 35 458 49 458 49 L458 49 Z " />
<glyph glyph-name="three" unicode="3" horiz-adv-x="460" d="M-13 -215 C154 -206 400 -60 418 41 C430 109 335 200 245 209 C339 260 429 333 436 373 C446 429 377 505 315 505 C260 505 123 431 76 376 C76 376 84 371 84 371 C114 406 221 454 271 454 C317 454 370 395 362 350 C354 305 246 216 160 181 C152 178 143 175 135 172 C135 172 133 161 133 161 C135 161 136 162 138 163 C156 167 193 173 209 173 C277 173 354 95 343 37 C327 -59 123 -196 -12 -203 C-12 -203 -13 -215 -13 -215 L-13 -215 Z " />
<glyph glyph-name="four" unicode="4" horiz-adv-x="490" d="M59 31 C59 31 368 383 368 383 C368 383 306 31 306 31 C306 31 59 31 59 31 L59 31 Z M300 0 C300 0 274 -150 274 -150 C274 -150 344 -150 344 -150 C353 -100 362 -50 370 0 C370 0 480 0 480 0 C480 0 486 31 486 31 C486 31 376 31 376 31 C402 182 429 332 455 483 C455 483 456 484 456 484 C456 484 456 485 456 485 C457 492 458 498 459 505 C459 505 448 505 448 505 C448 505 17 12 17 12 C17 12 15 0 15 0 C15 0 29 0 29 0 C29 0 32 0 32 0 C32 0 300 0 300 0 L300 0 Z " />
<glyph glyph-name="five" unicode="5" horiz-adv-x="445" d="M103 206 C103 206 121 206 121 206 C121 206 161 206 161 206 C247 206 346 118 335 52 C319 -38 127 -164 1 -169 C1 -169 -1 -182 -1 -182 C156 -176 391 -29 409 75 C424 161 309 275 208 275 C208 275 139 275 139 275 C139 275 177 426 177 426 C177 426 439 426 439 426 C439 426 467 482 467 482 C482 512 504 556 514 575 C514 575 499 575 499 575 C499 575 493 564 493 564 C479 536 424 500 396 500 C396 500 196 500 196 500 C196 500 175 500 175 500 C175 500 103 206 103 206 L103 206 Z " />
<glyph glyph-name="six" unicode="6" horiz-adv-x="570" d="M628 715 C440 709 149 469 118 297 C95 168 195 -5 291 -5 C394 -5 547 121 558 216 C574 307 481 429 396 429 C333 429 239 350 193 270 C197 290 202 310 204 321 C232 479 473 698 626 703 C626 703 628 715 628 715 L628 715 Z M183 207 C202 295 313 409 381 409 C439 409 498 296 484 212 C473 127 370 14 303 14 C242 14 180 118 183 207 C183 207 183 207 183 207 L183 207 Z " />
<glyph glyph-name="seven" unicode="7" horiz-adv-x="440" d="M99 428 C92 401 84 369 79 353 C79 353 94 353 94 353 C94 353 97 365 97 365 C104 392 151 428 179 428 C179 428 471 428 471 428 C471 428 101 -140 101 -140 C101 -140 179 -140 179 -140 C292 71 405 281 517 493 C517 493 513 500 513 500 C513 500 118 500 118 500 C118 500 99 428 99 428 C99 428 99 428 99 428 L99 428 Z " />
<glyph glyph-name="eight" unicode="8" horiz-adv-x="539" d="M375 356 C364 362 353 366 343 369 C289 385 228 472 237 520 C246 576 330 650 383 650 C439 650 500 568 489 507 C480 455 421 381 375 356 L375 356 Z M381 353 C452 379 539 462 549 518 C560 581 469 665 390 665 C310 665 186 567 173 493 C164 443 214 361 270 321 C197 307 99 225 88 162 C76 91 182 -5 274 -5 C366 -5 507 99 521 176 C530 225 456 313 381 353 L381 353 Z M275 317 C287 309 299 303 311 300 C379 280 459 196 451 152 C440 91 342 10 280 10 C215 10 144 104 156 174 C166 229 229 302 275 317 L275 317 Z " />
<glyph glyph-name="nine" unicode="9" horiz-adv-x="570" d="M31 -215 C218 -209 510 31 540 203 C563 332 464 505 367 505 C264 505 112 379 100 284 C84 193 177 71 262 71 C325 71 419 150 465 230 C461 211 457 190 455 179 C427 21 185 -198 32 -203 C32 -203 31 -215 31 -215 L31 -215 Z M476 294 C458 206 345 91 277 91 C219 91 160 204 175 288 C185 373 289 486 356 486 C416 486 478 382 476 294 C476 294 476 294 476 294 L476 294 Z " />
<glyph glyph-name="colon" unicode="&#x3a;" horiz-adv-x="235" d="M192 379 C214 379 248 408 251 430 C255 452 232 481 210 481 C188 481 154 452 150 430 C146 408 170 379 192 379 L192 379 Z M124 -5 C146 -5 180 24 184 46 C188 67 164 96 142 96 C120 96 86 67 82 46 C78 24 102 -5 124 -5 L124 -5 Z " />
<glyph glyph-name="semicolon" unicode="&#x3b;" horiz-adv-x="219" d="M177 379 C199 379 233 408 237 430 C241 452 217 481 195 481 C174 481 140 452 136 430 C132 408 156 379 177 379 L177 379 Z M110 -5 C115 -5 120 -4 125 -1 C126 -7 126 -13 125 -17 C120 -46 79 -101 54 -113 C54 -113 57 -123 57 -123 C100 -104 166 -23 173 18 C175 26 173 39 169 52 C169 72 147 96 128 96 C106 96 72 67 68 46 C64 24 88 -5 110 -5 L110 -5 Z " />
<glyph glyph-name="less" unicode="&#x3c;" horiz-adv-x="537" d="M551 500 C551 500 100 296 100 296 C100 296 91 292 91 292 C91 292 86 258 86 258 C86 258 93 254 93 254 C93 254 472 50 472 50 C472 50 478 85 478 85 C478 85 119 275 119 275 C119 275 545 465 545 465 C545 465 551 500 551 500 L551 500 Z " />
<glyph glyph-name="equal" unicode="&#x3d;" horiz-adv-x="530" d="M119 216 C119 216 113 184 113 184 C113 184 493 184 493 184 C493 184 499 216 499 216 C499 216 119 216 119 216 L119 216 Z M137 316 C137 316 131 284 131 284 C131 284 511 284 511 284 C511 284 517 316 517 316 C517 316 137 316 137 316 L137 316 Z " />
<glyph glyph-name="greater" unicode="&#x3e;" horiz-adv-x="530" d="M506 275 C506 275 90 85 90 85 C90 85 84 50 84 50 C84 50 525 254 525 254 C525 254 527 264 527 264 C527 264 527 264 527 264 C527 264 525 254 525 254 C525 254 536 260 536 260 C536 260 541 290 541 290 C541 290 532 296 532 296 C532 296 163 500 163 500 C163 500 157 465 157 465 C157 465 506 275 506 275 L506 275 Z " />
<glyph glyph-name="question" unicode="&#x3f;" horiz-adv-x="368" d="M139 -5 C160 -5 194 24 198 46 C202 67 178 96 156 96 C135 96 101 67 97 46 C93 24 117 -5 139 -5 L139 -5 Z M183 360 C183 360 166 176 166 176 C166 176 175 176 175 176 C175 176 212 317 212 317 C212 317 247 317 247 317 C332 317 405 405 410 436 C427 534 330 665 240 665 C204 665 150 628 145 601 C143 591 161 577 176 577 C195 577 234 610 252 610 C326 610 408 515 395 444 C392 425 322 371 233 371 C233 371 198 371 198 371 C192 371 183 365 183 360 L183 360 Z " />
<glyph glyph-name="at" unicode="&#x40;" horiz-adv-x="1151" d="M1043 0 C977 -101 693 -237 546 -237 C342 -237 118 47 156 259 C193 471 510 755 709 755 C908 755 1133 519 1102 343 C1077 199 936 6 855 6 C780 6 727 117 762 200 C762 200 881 480 881 480 C881 480 815 480 815 480 C815 480 777 390 777 390 C765 439 714 490 667 490 C544 490 349 321 327 194 C313 115 395 10 470 10 C529 10 634 79 686 145 C687 64 757 -18 838 -18 C947 -18 1129 189 1157 343 C1189 528 935 775 712 775 C490 775 140 480 101 259 C62 38 315 -257 543 -257 C696 -257 995 -110 1066 0 C1066 0 1043 0 1043 0 L1043 0 Z M762 356 C762 356 696 200 696 200 C668 135 563 49 512 49 C455 49 394 140 406 208 C426 320 572 471 662 471 C713 471 771 405 762 356 L762 356 Z " />
<glyph glyph-name="A" unicode="A" horiz-adv-x="654" d="M573 80 C573 80 573 80 573 80 C573 80 444 675 444 675 C444 675 425 675 425 675 C425 675 112 79 112 79 C96 51 42 15 15 15 C15 15 3 15 3 15 C4 15 3 11 2 8 C2 4 1 0 1 0 C1 0 71 0 71 0 C71 0 83 0 83 0 C83 0 96 0 96 0 C96 0 206 0 206 0 C206 0 208 8 208 8 C208 11 209 15 209 15 C209 15 184 15 184 15 C150 15 127 61 145 95 C145 95 145 95 145 95 C145 95 217 235 217 235 C217 235 458 235 458 235 C458 235 489 79 489 79 C493 51 465 15 437 15 C437 15 403 15 403 15 C403 15 403 11 402 8 C402 4 401 0 401 0 C401 0 505 0 505 0 C505 0 547 0 547 0 C547 0 590 0 590 0 C590 0 650 0 650 0 C650 0 651 4 651 7 C652 11 653 15 652 15 C652 15 643 15 643 15 C619 15 579 52 573 80 C573 80 573 80 573 80 L573 80 Z M454 255 C454 255 227 255 227 255 C227 255 391 571 391 571 C391 571 454 255 454 255 L454 255 Z " />
<glyph glyph-name="B" unicode="B" horiz-adv-x="612" d="M202 19 C202 19 198 0 198 0 C198 0 354 0 354 0 C456 0 610 104 624 181 C636 248 528 335 421 355 C421 355 421 355 421 355 C514 379 618 451 628 508 C639 573 535 660 446 660 C446 660 315 660 315 660 C315 660 276 660 276 660 C276 660 237 660 237 660 C237 660 162 660 162 660 C162 660 161 656 161 653 C161 653 159 645 159 645 C159 645 171 645 171 645 C197 645 227 610 223 582 C223 582 135 80 135 80 C135 80 135 80 135 80 C130 52 87 15 59 15 C59 15 48 15 48 15 C48 15 48 11 47 8 C47 4 46 0 46 0 C46 0 121 0 121 0 C121 0 159 0 159 0 C159 0 198 0 198 0 C198 0 312 641 312 641 C312 641 442 641 442 641 C499 641 560 565 550 508 C539 444 434 359 366 359 C366 359 262 359 262 359 C262 359 261 355 261 355 C261 355 261 355 261 355 C261 355 259 343 259 343 C259 343 353 343 353 343 C446 343 555 250 543 181 C531 112 420 19 350 19 C350 19 202 19 202 19 L202 19 Z " />
<glyph glyph-name="C" unicode="C" horiz-adv-x="685" d="M707 462 C707 462 732 604 732 604 C691 630 548 665 481 665 C338 665 111 473 86 330 C61 187 220 -5 363 -5 C430 -5 585 30 635 56 C635 56 660 198 660 198 C660 198 647 198 647 198 C643 190 632 169 628 162 C599 107 468 23 399 16 C399 16 399 16 399 16 C387 15 376 14 367 14 C259 14 147 195 171 330 C195 465 371 646 478 646 C497 646 521 643 548 638 C548 638 548 638 548 638 C598 630 678 550 687 498 C689 491 692 470 694 462 C694 462 707 462 707 462 L707 462 Z " />
<glyph glyph-name="D" unicode="D" horiz-adv-x="708" d="M159 0 C159 0 198 0 198 0 C198 0 312 641 312 641 C312 641 426 641 426 641 C541 641 662 463 639 330 C615 197 453 19 355 19 C355 19 202 19 202 19 C202 19 198 0 198 0 C198 0 351 0 351 0 C482 0 691 189 717 330 C741 471 577 660 429 660 C429 660 315 660 315 660 C315 660 276 660 276 660 C276 660 237 660 237 660 C237 660 162 660 162 660 C162 660 161 656 161 653 C161 653 159 645 159 645 C159 645 171 645 171 645 C197 645 227 610 223 582 C223 582 135 80 135 80 C135 80 135 80 135 80 C130 52 87 15 59 15 C59 15 48 15 48 15 C48 15 48 11 47 8 C47 4 46 0 46 0 C46 0 121 0 121 0 C121 0 159 0 159 0 L159 0 Z " />
<glyph glyph-name="E" unicode="E" horiz-adv-x="602" d="M468 257 C472 278 481 332 485 352 C485 352 487 362 487 362 C487 362 487 362 487 362 C491 384 497 422 500 437 C500 437 488 437 488 437 C488 437 482 425 482 425 C469 398 403 362 367 362 C367 362 257 362 257 362 C257 362 254 347 254 347 C254 347 309 660 309 660 C309 660 306 641 306 641 C306 641 445 641 445 641 C488 641 554 584 560 541 C560 541 565 506 565 506 C565 506 576 506 576 506 C582 537 596 619 602 650 C602 652 603 658 604 660 C604 660 594 660 594 660 C594 660 524 660 524 660 C524 660 309 660 309 660 C309 660 270 660 270 660 C270 660 231 660 231 660 C231 660 156 660 156 660 C156 659 154 645 154 645 C154 645 165 645 165 645 C191 645 221 610 217 582 C217 582 129 80 129 80 C129 80 129 80 129 80 C124 52 81 15 54 15 C54 15 43 15 43 15 C43 15 42 11 41 8 C41 4 40 0 40 0 C40 0 115 0 115 0 C115 0 154 0 154 0 C154 0 193 0 193 0 C193 0 411 0 411 0 C411 0 488 0 488 0 C488 0 491 0 491 0 C491 2 493 8 494 10 C505 41 534 123 545 154 C545 155 545 155 544 154 C540 155 534 155 534 154 C534 154 510 119 510 119 C481 77 385 20 342 19 C342 19 196 19 196 19 C196 19 253 342 253 342 C253 342 363 342 363 342 C400 342 452 301 455 270 C455 270 456 257 456 257 C456 257 468 257 468 257 L468 257 Z " />
<glyph glyph-name="F" unicode="F" horiz-adv-x="517" d="M457 252 C461 273 471 327 474 347 C474 347 476 357 476 357 C476 357 476 357 476 357 C480 379 486 417 489 432 C489 432 477 432 477 432 C477 432 471 420 471 420 C458 393 392 357 356 357 C356 357 256 357 256 357 C256 357 254 347 254 347 C254 347 309 660 309 660 C309 660 306 641 306 641 C306 641 475 641 475 641 C518 641 584 584 590 541 C590 541 595 506 595 506 C595 506 606 506 606 506 C612 537 626 619 632 650 C632 652 633 658 634 660 C634 660 624 660 624 660 C624 660 554 660 554 660 C554 660 309 660 309 660 C309 660 270 660 270 660 C270 660 231 660 231 660 C231 660 156 660 156 660 C156 659 154 645 154 645 C154 645 165 645 165 645 C191 645 221 610 217 582 C217 582 129 80 129 80 C129 80 129 80 129 80 C124 52 81 15 54 15 C54 15 43 15 43 15 C43 15 42 11 41 8 C41 4 40 0 40 0 C40 0 115 0 115 0 C115 0 154 0 154 0 C154 0 193 0 193 0 C193 0 278 0 278 0 C278 0 280 14 280 15 C280 15 260 15 260 15 C234 15 204 50 207 78 C207 78 252 337 252 337 C252 337 352 337 352 337 C389 337 441 296 444 265 C444 265 445 252 445 252 C445 252 457 252 457 252 L457 252 Z " />
<glyph glyph-name="G" unicode="G" horiz-adv-x="808" d="M609 230 C609 230 609 230 609 230 C596 153 582 76 577 49 C514 30 428 14 385 14 C282 14 175 195 199 330 C223 465 393 646 496 646 C512 646 533 644 556 639 C556 639 556 639 556 639 C606 631 686 550 695 499 C697 491 700 470 702 462 C702 462 715 462 715 462 C715 462 740 604 740 604 C699 630 562 665 499 665 C360 665 139 473 114 330 C89 187 242 -5 381 -5 C446 -5 599 30 648 56 C649 56 664 143 679 232 C686 260 728 295 754 295 C754 295 766 295 766 295 C765 295 766 299 767 303 C767 306 768 310 768 310 C768 310 693 310 693 310 C693 310 658 310 658 310 C658 310 623 310 623 310 C623 310 548 310 548 310 C548 310 548 306 547 303 C547 299 546 295 546 295 C546 295 557 295 557 295 C584 295 614 258 609 230 C609 230 609 230 609 230 L609 230 Z " />
<glyph glyph-name="H" unicode="H" horiz-adv-x="774" d="M737 15 C737 15 726 15 726 15 C699 15 669 52 674 80 C674 80 673 80 673 80 C673 80 762 580 762 580 C762 580 762 580 762 580 C767 608 810 645 837 645 C837 645 848 645 848 645 C848 645 849 649 849 653 C850 656 851 660 851 660 C851 660 776 660 776 660 C776 660 737 660 737 660 C737 660 698 660 698 660 C698 660 623 660 623 660 C623 660 622 656 622 653 C621 649 621 645 620 645 C620 645 632 645 632 645 C658 645 688 610 684 582 C684 582 645 357 645 357 C645 357 256 357 256 357 C256 357 295 580 295 580 C295 580 295 580 295 580 C300 608 343 645 370 645 C370 645 382 645 382 645 C381 645 382 649 383 653 C383 656 384 660 384 660 C384 660 309 660 309 660 C309 660 270 660 270 660 C270 660 231 660 231 660 C231 660 156 660 156 660 C156 659 154 645 154 645 C154 645 165 645 165 645 C191 645 221 610 217 582 C217 582 129 80 129 80 C129 80 129 80 129 80 C124 52 81 15 54 15 C54 15 43 15 43 15 C43 15 42 11 41 8 C41 4 40 0 40 0 C40 0 115 0 115 0 C115 0 154 0 154 0 C154 0 193 0 193 0 C193 0 268 0 268 0 C268 0 270 14 270 15 C270 15 259 15 259 15 C233 15 203 50 207 78 C207 78 252 337 252 337 C252 337 641 337 641 337 C641 337 596 80 596 80 C596 80 596 80 596 80 C591 52 548 15 521 15 C521 15 509 15 509 15 C509 15 509 11 508 8 C508 4 507 0 507 0 C507 0 582 0 582 0 C582 0 621 0 621 0 C621 0 659 0 659 0 C659 0 734 0 734 0 C735 0 737 13 737 15 C737 15 737 15 737 15 L737 15 Z " />
<glyph glyph-name="I" unicode="I" horiz-adv-x="307" d="M154 645 C154 645 165 645 165 645 C191 645 221 610 217 582 C217 582 129 80 129 80 C129 80 129 80 129 80 C124 52 81 15 54 15 C54 15 43 15 43 15 C43 15 42 11 41 8 C41 4 40 0 40 0 C40 0 115 0 115 0 C115 0 154 0 154 0 C154 0 193 0 193 0 C193 0 268 0 268 0 C268 0 270 14 270 15 C270 15 259 15 259 15 C233 15 203 50 207 78 C207 78 295 580 295 580 C295 580 295 580 295 580 C300 608 343 645 370 645 C370 645 382 645 382 645 C381 645 382 649 383 653 C383 656 384 660 384 660 C384 660 309 660 309 660 C309 660 270 660 270 660 C270 660 231 660 231 660 C231 660 156 660 156 660 C156 659 154 645 154 645 L154 645 Z " />
<glyph glyph-name="J" unicode="J" horiz-adv-x="383" d="M293 582 C293 582 226 200 226 200 C208 100 159 6 124 6 C104 6 76 31 75 50 C74 63 57 81 45 81 C29 81 8 63 9 50 C11 24 64 -10 102 -10 C187 -10 291 124 315 265 C315 265 371 580 371 580 C371 580 371 580 371 580 C376 608 419 645 446 645 C446 645 457 645 457 645 C457 645 458 649 458 653 C459 656 460 660 460 660 C460 660 385 660 385 660 C385 660 346 660 346 660 C346 660 307 660 307 660 C307 660 232 660 232 660 C232 660 231 656 231 653 C231 653 229 645 229 645 C229 645 241 645 241 645 C267 645 296 610 293 582 L293 582 Z " />
<glyph glyph-name="K" unicode="K" horiz-adv-x="657" d="M550 645 C550 645 559 645 559 645 C581 645 565 609 532 581 C532 581 531 580 531 580 C531 580 261 355 261 355 C261 355 271 339 271 339 C271 339 271 339 271 339 C271 339 395 156 395 156 C451 73 560 -5 618 -5 C618 -5 647 -5 647 -5 C647 -5 649 10 649 10 C649 10 644 10 644 10 C619 10 530 107 461 210 C461 210 336 394 336 394 C336 394 564 584 564 584 C600 611 675 645 701 645 C701 645 712 645 712 645 C713 645 713 649 714 653 C714 656 715 660 715 660 C715 660 655 660 655 660 C655 660 641 660 641 660 C641 660 627 660 627 660 C627 660 552 660 552 660 C552 659 550 645 550 645 L550 645 Z M159 0 C159 0 198 0 198 0 C198 0 273 0 273 0 C273 0 275 8 275 8 C275 11 276 15 276 15 C276 15 265 15 265 15 C239 15 210 50 212 77 C212 77 301 580 301 580 C301 580 301 580 301 580 C306 608 349 645 376 645 C376 645 387 645 387 645 C387 645 388 649 388 653 C389 656 390 660 390 660 C390 660 315 660 315 660 C315 660 276 660 276 660 C276 660 237 660 237 660 C237 660 162 660 162 660 C162 660 161 656 161 653 C161 653 159 645 159 645 C159 645 171 645 171 645 C197 645 227 610 223 582 C223 582 135 80 135 80 C135 80 135 80 135 80 C130 52 87 15 59 15 C59 15 48 15 48 15 C48 15 48 11 47 8 C47 4 46 0 46 0 C46 0 121 0 121 0 C121 0 159 0 159 0 L159 0 Z " />
<glyph glyph-name="L" unicode="L" horiz-adv-x="602" d="M154 645 C154 645 165 645 165 645 C191 645 221 610 217 582 C217 582 129 80 129 80 C129 80 129 80 129 80 C124 52 81 15 54 15 C54 15 43 15 43 15 C43 15 42 11 41 8 C41 4 40 0 40 0 C40 0 115 0 115 0 C115 0 154 0 154 0 C154 0 193 0 193 0 C193 0 411 0 411 0 C411 0 488 0 488 0 C488 0 491 0 491 0 C491 2 493 8 494 10 C506 42 536 129 548 162 C548 162 546 163 545 163 C539 166 531 170 531 169 C531 169 496 109 496 109 C473 71 391 20 352 19 C352 19 196 19 196 19 C196 19 295 580 295 580 C295 580 295 580 295 580 C300 608 343 645 370 645 C370 645 382 645 382 645 C381 645 382 649 383 653 C383 656 384 660 384 660 C384 660 309 660 309 660 C309 660 270 660 270 660 C270 660 231 660 231 660 C231 660 156 660 156 660 C156 659 154 645 154 645 C154 645 154 645 154 645 L154 645 Z " />
<glyph glyph-name="M" unicode="M" horiz-adv-x="847" d="M924 660 C924 660 849 660 849 660 C849 660 814 660 814 660 C814 660 806 660 806 660 C806 660 779 660 779 660 C779 660 454 88 454 88 C454 88 454 88 454 88 C454 88 454 89 454 89 C454 89 454 89 454 89 C454 89 454 88 454 88 C454 88 454 88 454 88 C454 88 454 88 454 88 C454 88 454 88 454 88 C454 88 401 -5 401 -5 C401 -5 453 87 453 87 C453 87 454 89 454 89 C454 89 313 660 313 660 C313 660 276 660 276 660 C276 660 264 660 264 660 C264 660 253 660 253 660 C253 660 178 660 178 660 C178 660 177 656 176 653 C176 649 175 645 175 645 C175 645 186 645 186 645 C213 645 241 608 235 580 C235 580 235 580 235 580 C235 580 236 580 236 580 C236 580 128 80 128 80 C128 80 128 80 128 80 C122 52 78 15 51 15 C51 15 39 15 39 15 C39 15 39 11 38 8 C38 4 37 0 37 0 C37 0 111 0 111 0 C111 0 123 0 123 0 C123 0 135 0 135 0 C135 0 245 0 245 0 C245 0 247 14 247 15 C247 15 218 15 218 15 C185 15 151 56 154 89 C154 89 255 562 255 562 C255 562 391 31 391 31 C391 31 401 -5 401 -5 C401 -5 420 -5 420 -5 C420 -5 770 598 770 598 C770 598 696 80 696 80 C696 80 696 80 696 80 C693 52 651 15 624 15 C624 15 613 15 613 15 C613 15 612 11 611 8 C611 4 610 0 610 0 C610 0 685 0 685 0 C685 0 724 0 724 0 C724 0 763 0 763 0 C763 0 837 0 837 0 C837 0 838 4 838 8 C839 11 840 15 840 15 C840 15 829 15 829 15 C803 15 773 48 773 75 C773 75 839 580 839 580 C839 580 839 580 839 580 C842 608 883 645 910 645 C910 645 921 645 921 645 C921 646 922 660 924 660 L924 660 Z " />
<glyph glyph-name="N" unicode="N" horiz-adv-x="708" d="M609 645 C609 645 620 645 620 645 C646 645 675 610 672 583 C672 583 590 113 590 113 C590 113 302 660 302 660 C302 660 250 628 250 628 C250 628 250 628 250 628 C250 628 302 660 302 660 C302 660 256 660 256 660 C256 660 244 660 244 660 C244 660 233 660 233 660 C233 660 158 660 158 660 C157 660 157 656 156 653 C156 649 155 645 155 645 C155 645 166 645 166 645 C193 645 223 608 218 580 C218 580 219 580 219 580 C219 580 130 80 130 80 C130 80 130 80 130 80 C125 52 82 15 55 15 C55 15 44 15 44 15 C44 15 43 11 42 8 C42 4 41 0 41 0 C41 0 116 0 116 0 C116 0 128 0 128 0 C128 0 140 0 140 0 C140 0 215 0 215 0 C215 0 217 14 217 15 C217 15 206 15 206 15 C180 15 150 50 154 78 C154 78 244 591 244 591 C244 591 540 31 540 31 C540 31 565 -16 565 -16 C565 -16 591 -16 591 -16 C591 -16 604 59 604 59 C604 59 696 580 696 580 C696 580 696 580 696 580 C701 608 744 645 771 645 C771 645 782 645 782 645 C782 645 783 649 783 653 C784 656 785 660 785 660 C785 660 710 660 710 660 C710 660 698 660 698 660 C698 660 686 660 686 660 C686 660 611 660 611 660 C611 659 609 645 609 645 C609 645 609 645 609 645 L609 645 Z " />
<glyph glyph-name="O" unicode="O" horiz-adv-x="759" d="M385 14 C271 14 178 208 199 330 C221 452 383 646 496 646 C609 646 703 452 682 330 C660 208 498 14 385 14 L385 14 Z M114 330 C91 201 228 -5 381 -5 C535 -5 744 201 767 330 C790 459 653 665 500 665 C346 665 137 459 114 330 L114 330 Z " />
<glyph glyph-name="P" unicode="P" horiz-adv-x="581" d="M159 0 C159 0 198 0 198 0 C198 0 273 0 273 0 C273 0 275 8 275 8 C275 11 276 15 276 15 C276 15 265 15 265 15 C239 15 210 50 212 77 C212 77 254 315 254 315 C254 315 251 296 251 296 C251 296 363 296 363 296 C471 296 632 400 646 478 C660 556 551 660 456 660 C456 660 315 660 315 660 C315 660 276 660 276 660 C276 660 237 660 237 660 C237 660 162 660 162 660 C162 660 161 656 161 653 C161 653 159 645 159 645 C159 645 171 645 171 645 C197 645 227 610 223 582 C223 582 135 80 135 80 C135 80 135 80 135 80 C130 52 87 15 59 15 C59 15 48 15 48 15 C48 15 48 11 47 8 C47 4 46 0 46 0 C46 0 121 0 121 0 C121 0 159 0 159 0 L159 0 Z M254 316 C254 316 312 641 312 641 C312 641 452 641 452 641 C512 641 577 547 564 478 C552 408 439 316 367 316 C367 316 254 316 254 316 L254 316 Z " />
<glyph glyph-name="Q" unicode="Q" horiz-adv-x="759" d="M793 -51 C793 -51 787 -46 787 -46 C771 -61 678 -81 625 -81 C545 -81 435 -40 394 -4 C547 7 745 205 767 330 C790 459 653 665 500 665 C346 665 137 459 114 330 C92 205 219 8 366 -4 C419 -62 541 -132 608 -132 C652 -132 758 -86 793 -51 L793 -51 Z M385 14 C271 14 178 208 199 330 C221 452 383 646 496 646 C609 646 703 452 682 330 C660 208 498 14 385 14 L385 14 Z " />
<glyph glyph-name="R" unicode="R" horiz-adv-x="647" d="M648 0 C648 0 650 15 650 15 C650 15 645 15 645 15 C626 15 603 39 571 91 C571 91 427 327 427 327 C519 355 618 430 629 490 C641 562 537 660 446 660 C446 660 315 660 315 660 C315 660 276 660 276 660 C276 660 237 660 237 660 C237 660 162 660 162 660 C162 660 161 656 161 653 C161 653 159 645 159 645 C159 645 171 645 171 645 C197 645 227 610 223 582 C223 582 135 80 135 80 C135 80 135 80 135 80 C130 52 87 15 59 15 C59 15 48 15 48 15 C48 15 48 11 47 8 C47 4 46 0 46 0 C46 0 121 0 121 0 C121 0 159 0 159 0 C159 0 198 0 198 0 C198 0 273 0 273 0 C273 0 275 8 275 8 C275 11 276 15 276 15 C276 15 265 15 265 15 C239 15 210 50 212 77 C212 77 255 321 255 321 C255 321 254 315 254 315 C254 315 341 315 341 315 C341 315 468 106 468 106 C512 33 560 0 619 0 C619 0 648 0 648 0 L648 0 Z M362 335 C362 335 329 335 329 335 C329 335 257 335 257 335 C257 335 312 641 312 641 C312 641 442 641 442 641 C499 641 558 554 547 490 C535 423 430 335 362 335 L362 335 Z " />
<glyph glyph-name="S" unicode="S" horiz-adv-x="507" d="M76 193 C76 193 49 44 49 44 C82 23 204 -5 261 -5 C347 -5 479 98 493 175 C503 230 419 337 346 360 C273 384 184 467 191 506 C201 566 296 646 357 646 C368 646 386 642 406 637 C434 626 474 581 479 554 C483 536 491 486 494 467 C494 467 507 467 507 467 C507 467 534 616 534 616 C501 637 404 665 364 665 C279 665 146 556 131 475 C122 423 204 323 275 300 C350 275 440 186 432 143 C423 88 327 14 265 14 C256 14 246 15 234 17 C234 17 234 17 234 17 C184 24 104 103 95 156 C94 164 90 185 89 193 C89 193 76 193 76 193 L76 193 Z " />
<glyph glyph-name="T" unicode="T" horiz-adv-x="653" d="M714 650 C714 652 715 658 715 660 C715 660 696 660 696 660 C696 660 635 660 635 660 C635 660 218 660 218 660 C218 660 156 660 156 660 C156 660 138 660 138 660 C137 658 136 652 135 650 C126 616 102 525 93 491 C93 491 105 491 105 491 C105 491 146 561 146 561 C166 595 238 641 272 641 C272 641 384 641 384 641 C384 641 285 80 285 80 C285 80 285 80 285 80 C280 52 237 15 210 15 C210 15 199 15 199 15 C199 15 198 11 197 8 C197 4 196 0 196 0 C196 0 271 0 271 0 C271 0 310 0 310 0 C310 0 349 0 349 0 C349 0 424 0 424 0 C424 0 425 4 425 8 C426 11 426 15 427 15 C427 15 415 15 415 15 C389 15 360 50 363 77 C363 77 462 641 462 641 C462 641 573 641 573 641 C608 641 664 595 672 561 C672 561 688 491 688 491 C688 491 700 491 700 491 C703 525 711 616 714 650 L714 650 Z " />
<glyph glyph-name="U" unicode="U" horiz-adv-x="716" d="M246 583 C246 583 181 212 181 212 C165 119 259 -5 381 -5 C499 -5 629 102 643 182 C643 182 712 570 712 570 C712 570 712 570 712 570 C718 602 767 645 797 645 C797 645 810 645 810 645 C810 645 811 649 811 653 C812 656 813 660 813 660 C813 660 728 660 728 660 C728 660 716 660 716 660 C716 660 704 660 704 660 C704 660 614 660 614 660 C614 660 614 656 613 653 C613 649 612 645 612 645 C612 645 627 645 627 645 C657 645 689 608 689 578 C689 578 621 189 621 189 C609 118 497 22 398 22 C309 22 243 122 256 197 C256 197 324 580 324 580 C324 580 324 580 324 580 C329 608 372 645 399 645 C399 645 410 645 410 645 C410 645 411 649 411 653 C412 656 413 660 413 660 C413 660 338 660 338 660 C338 660 299 660 299 660 C299 660 260 660 260 660 C260 660 185 660 185 660 C185 660 184 656 184 653 C184 653 182 645 182 645 C182 645 194 645 194 645 C220 645 249 610 246 583 L246 583 Z " />
<glyph glyph-name="V" unicode="V" horiz-adv-x="706" d="M822 660 C822 660 752 660 752 660 C752 660 741 660 741 660 C741 660 729 660 729 660 C729 660 609 660 609 660 C609 660 608 656 608 653 C608 653 606 645 606 645 C606 645 626 645 626 645 C665 645 692 596 676 556 C676 556 443 92 443 92 C443 92 334 586 334 586 C333 613 360 645 386 645 C386 645 415 645 415 645 C415 645 416 649 416 653 C417 656 418 660 418 660 C418 660 318 660 318 660 C318 660 275 660 275 660 C275 660 232 660 232 660 C232 660 178 660 178 660 C178 658 176 645 175 645 C175 645 184 645 184 645 C205 645 239 612 249 585 C249 585 389 -15 389 -15 C389 -15 409 -15 409 -15 C409 -15 711 580 711 580 C711 580 712 580 712 580 C726 608 781 645 808 645 C808 645 820 645 820 645 C820 645 822 659 822 660 C822 660 822 660 822 660 L822 660 Z " />
<glyph glyph-name="W" unicode="W" horiz-adv-x="1017" d="M146 645 C146 645 155 645 155 645 C177 645 213 608 217 580 C217 580 217 580 217 580 C217 580 315 -15 315 -15 C315 -15 335 -15 335 -15 C335 -15 654 670 654 670 C654 670 594 541 594 541 C594 541 689 -15 689 -15 C689 -15 709 -15 709 -15 C709 -15 988 580 988 580 C988 580 989 580 989 580 C1002 608 1056 645 1083 645 C1083 645 1094 645 1094 645 C1094 645 1096 653 1096 653 C1096 656 1097 660 1097 660 C1097 660 1026 660 1026 660 C1026 660 1015 660 1015 660 C1015 660 1003 660 1003 660 C1003 660 898 660 898 660 C898 660 897 656 897 653 C897 653 895 645 895 645 C895 645 931 645 931 645 C958 645 977 611 968 584 C968 584 746 107 746 107 C746 107 654 670 654 670 C654 670 635 670 635 670 C635 670 315 -15 315 -15 C315 -15 368 99 368 99 C368 99 301 583 301 583 C299 611 330 645 357 645 C357 645 377 645 377 645 C377 645 378 649 378 653 C379 656 380 660 380 660 C380 660 290 660 290 660 C290 660 247 660 247 660 C247 660 204 660 204 660 C204 660 149 660 149 660 C149 658 147 645 146 645 C146 645 146 645 146 645 L146 645 Z " />
<glyph glyph-name="X" unicode="X" horiz-adv-x="671" d="M213 95 C213 95 212 95 212 95 C212 95 366 299 366 299 C366 299 461 80 461 80 C461 80 461 80 461 80 C473 52 452 15 424 15 C424 15 398 15 398 15 C398 15 398 11 397 8 C397 4 396 0 396 0 C396 0 496 0 496 0 C496 0 540 0 540 0 C540 0 584 0 584 0 C584 0 630 0 630 0 C630 0 631 4 631 8 C632 11 633 15 633 15 C633 15 625 15 625 15 C605 15 565 49 551 77 C551 77 425 365 425 365 C425 365 596 582 596 582 C620 610 683 645 709 645 C709 645 721 645 721 645 C721 645 721 649 722 653 C722 656 723 660 723 660 C723 660 657 660 657 660 C657 660 642 660 642 660 C642 660 627 660 627 660 C627 660 517 660 517 660 C517 660 516 656 516 653 C516 653 514 645 514 645 C514 645 551 645 551 645 C579 645 587 609 567 581 C567 581 417 384 417 384 C417 384 332 580 332 580 C332 580 332 580 332 580 C320 608 341 645 368 645 C368 645 394 645 394 645 C394 645 396 653 396 653 C396 656 397 660 397 660 C397 660 297 660 297 660 C297 660 253 660 253 660 C253 660 208 660 208 660 C208 660 162 660 162 660 C162 660 161 656 161 653 C160 649 160 645 160 645 C160 645 168 645 168 645 C187 645 228 611 241 583 C241 583 357 318 357 318 C357 318 357 318 357 318 C357 318 174 80 174 80 C174 80 174 80 174 80 C153 52 88 15 60 15 C60 15 49 15 49 15 C49 14 47 0 47 0 C47 0 113 0 113 0 C113 0 127 0 127 0 C127 0 141 0 141 0 C141 0 251 0 251 0 C251 0 253 8 253 8 C253 11 254 15 254 15 C254 15 233 15 233 15 C198 15 187 61 213 95 C213 95 213 95 213 95 L213 95 Z " />
<glyph glyph-name="Y" unicode="Y" horiz-adv-x="633" d="M379 80 C379 80 379 80 379 80 C392 157 410 255 418 300 C418 300 417 300 417 300 C417 300 636 584 636 584 C661 611 716 645 739 645 C739 645 749 645 749 645 C749 645 749 649 750 653 C750 656 751 660 751 660 C751 660 695 660 695 660 C695 660 684 660 684 660 C684 660 672 660 672 660 C672 660 562 660 562 660 C562 660 561 656 561 653 C561 653 559 645 559 645 C559 645 575 645 575 645 C611 645 622 599 599 564 C599 564 408 313 408 313 C408 313 310 582 310 582 C302 609 326 645 353 645 C353 645 370 645 370 645 C370 645 372 659 372 660 C372 660 282 660 282 660 C282 660 236 660 236 660 C236 660 189 660 189 660 C189 660 142 660 142 660 C142 660 142 656 141 653 C141 649 140 645 140 645 C140 645 148 645 148 645 C167 645 206 611 218 583 C218 583 335 270 335 270 C326 220 312 143 301 80 C301 80 301 80 301 80 C296 52 253 15 226 15 C226 15 215 15 215 15 C215 15 214 11 213 8 C213 4 212 0 212 0 C212 0 287 0 287 0 C287 0 326 0 326 0 C326 0 365 0 365 0 C365 0 440 0 440 0 C439 0 440 4 441 8 C441 11 442 15 442 15 C442 15 431 15 431 15 C404 15 374 52 379 80 C379 80 379 80 379 80 L379 80 Z " />
<glyph glyph-name="Z" unicode="Z" horiz-adv-x="625" d="M584 170 C584 170 548 110 548 110 C525 72 443 20 405 20 C405 20 182 20 182 20 C182 20 679 660 679 660 C679 660 634 660 634 660 C634 660 590 660 590 660 C590 660 337 660 337 660 C337 660 276 660 276 660 C276 660 257 660 257 660 C256 658 254 652 253 650 C240 622 207 548 195 521 C195 521 207 521 207 521 C207 521 241 561 241 561 C270 595 354 641 388 641 C388 641 575 641 575 641 C575 641 79 0 79 0 C79 0 123 0 123 0 C123 0 166 0 166 0 C166 0 463 0 463 0 C463 0 540 0 540 0 C540 0 543 0 543 0 C543 2 546 8 546 10 C558 43 589 130 600 163 C595 166 584 170 584 170 L584 170 Z " />
<glyph glyph-name="bracketleft" unicode="&#x5b;" horiz-adv-x="242" d="M241 644 C241 644 346 644 346 644 C346 644 349 660 349 660 C349 660 244 660 244 660 C244 660 190 660 190 660 C190 660 52 -120 52 -120 C52 -120 107 -120 107 -120 C107 -120 212 -120 212 -120 C212 -120 214 -104 214 -104 C214 -104 110 -104 110 -104 C110 -104 241 644 241 644 L241 644 Z " />
<glyph glyph-name="backslash" unicode="&#x5c;" horiz-adv-x="238" d="M189 -145 C189 -145 213 -145 213 -145 C213 -145 90 710 90 710 C90 710 65 710 65 710 C65 710 189 -145 189 -145 L189 -145 Z " />
<glyph glyph-name="bracketright" unicode="&#x5d;" horiz-adv-x="234" d="M91 -104 C91 -104 -14 -104 -14 -104 C-14 -104 -17 -120 -17 -120 C-17 -120 88 -120 88 -120 C88 -120 143 -120 143 -120 C143 -120 280 660 280 660 C280 660 226 660 226 660 C226 660 121 660 121 660 C121 660 118 644 118 644 C118 644 223 644 223 644 C223 644 226 660 226 660 C226 660 91 -104 91 -104 L91 -104 Z " />
<glyph glyph-name="underscore" unicode="&#x5f;" horiz-adv-x="455" d="M-4 -50 C-4 -50 -11 -89 -11 -89 C-11 -89 434 -89 434 -89 C434 -89 441 -50 441 -50 C441 -50 -4 -50 -4 -50 L-4 -50 Z " />
<glyph glyph-name="a" unicode="a" horiz-adv-x="491" d="M477 39 C469 32 443 23 424 23 C402 23 391 58 396 85 C396 85 444 357 444 357 C455 420 396 505 341 505 C268 505 148 445 131 401 C131 401 201 401 201 401 C214 437 284 486 322 486 C352 486 381 421 373 373 C373 373 352 254 352 254 C352 254 248 239 248 239 C174 229 62 151 54 103 C46 57 101 -5 151 -5 C188 -5 266 28 319 62 C319 28 339 -10 370 -10 C407 -10 463 13 483 30 C483 30 477 39 477 39 L477 39 Z M349 237 C349 237 320 79 320 79 C280 59 225 42 194 42 C159 42 121 88 127 123 C132 155 200 209 244 218 C244 218 349 237 349 237 L349 237 Z " />
<glyph glyph-name="b" unicode="b" horiz-adv-x="567" d="M227 462 C227 462 225 450 225 450 C246 460 314 474 344 474 C424 474 505 327 486 218 C470 131 355 14 284 14 C230 14 170 81 170 136 C170 140 170 143 171 147 C171 147 253 610 253 610 C253 610 253 610 253 610 C253 610 264 674 264 674 C264 674 269 702 269 702 C269 702 269 702 269 702 C269 702 272 720 272 720 C272 720 258 720 258 720 C258 720 121 681 121 681 C121 681 120 680 120 680 C120 677 119 672 119 672 C119 672 130 670 130 670 C164 663 183 635 181 601 C146 401 110 201 76 0 C76 0 83 0 83 0 C90 11 119 26 134 26 C168 26 235 -5 280 -5 C383 -5 546 140 565 249 C584 358 492 505 403 505 C366 505 265 480 227 462 L227 462 Z " />
<glyph glyph-name="c" unicode="c" horiz-adv-x="440" d="M415 53 C415 53 409 60 409 60 C396 51 320 38 276 38 C200 38 120 165 137 260 C154 357 272 486 344 486 C376 486 415 439 412 404 C411 389 427 369 441 369 C454 369 475 387 477 400 C481 445 411 505 355 505 C248 505 79 349 58 233 C40 131 127 -5 210 -5 C264 -5 381 28 415 53 L415 53 Z " />
<glyph glyph-name="d" unicode="d" horiz-adv-x="583" d="M497 129 C497 129 497 129 497 129 C497 129 582 610 582 610 C582 610 582 610 582 610 C582 610 593 676 593 676 C593 676 598 702 598 702 C598 702 598 702 598 702 C598 702 601 720 601 720 C601 720 587 720 587 720 C587 720 449 681 449 681 C449 681 449 680 449 680 C448 677 448 672 448 672 C448 672 458 670 458 670 C495 662 515 630 508 591 C508 591 508 591 508 591 C508 591 481 438 481 438 C450 471 393 505 352 505 C256 505 99 344 78 223 C61 126 150 -5 234 -5 C278 -5 372 25 413 52 C413 52 407 18 407 18 C407 18 407 18 407 18 C407 18 404 0 404 0 C404 0 418 0 418 0 C418 0 556 39 556 39 C556 39 556 40 556 40 C557 43 558 48 558 48 C558 48 547 50 547 50 C510 58 490 90 497 129 C497 129 497 129 497 129 L497 129 Z M415 62 C394 51 322 38 280 38 C211 38 140 159 156 250 C174 351 282 486 345 486 C390 486 455 445 476 411 C476 411 415 62 415 62 L415 62 Z " />
<glyph glyph-name="e" unicode="e" horiz-adv-x="471" d="M171 334 C210 412 281 486 327 486 C376 486 431 424 423 378 C420 364 398 345 384 344 C384 344 383 344 383 344 C383 344 384 344 384 344 C384 344 416 345 416 345 C416 345 171 334 171 334 L171 334 Z M429 53 C429 53 424 60 424 60 C411 51 333 38 288 38 C210 38 128 165 145 260 C148 279 155 300 164 320 C164 320 478 320 478 320 C491 399 410 505 334 505 C240 505 87 349 66 233 C48 131 137 -5 222 -5 C277 -5 395 28 429 53 L429 53 Z " />
<glyph glyph-name="f" unicode="f" horiz-adv-x="401" d="M209 80 C209 80 209 80 209 80 C232 211 256 341 278 473 C278 473 413 473 413 473 C413 473 418 500 418 500 C418 500 283 500 283 500 C284 511 286 522 288 533 C302 606 379 704 423 704 C445 704 472 679 470 660 C469 647 486 629 500 629 C513 629 534 647 537 660 C539 686 486 720 445 720 C370 720 244 622 225 548 C225 548 213 500 213 500 C213 500 133 500 133 500 C133 500 128 473 128 473 C128 473 208 473 208 473 C208 473 139 80 139 80 C139 80 139 80 139 80 C134 52 91 15 63 15 C63 15 52 15 52 15 C52 14 50 0 50 0 C50 0 125 0 125 0 C125 0 160 0 160 0 C160 0 195 0 195 0 C195 0 270 0 270 0 C269 0 270 4 271 8 C271 11 272 15 272 15 C272 15 261 15 261 15 C233 15 203 52 209 80 L209 80 Z " />
<glyph glyph-name="g" unicode="g" horiz-adv-x="470" d="M559 500 C559 500 408 477 408 477 C408 477 408 477 408 477 C384 494 356 505 330 505 C254 505 138 415 126 349 C117 297 166 231 224 204 C224 204 222 204 222 204 C163 204 74 147 67 105 C60 68 108 25 159 12 C93 -13 9 -81 3 -118 C-7 -170 67 -240 132 -240 C250 -240 428 -127 443 -43 C452 8 362 77 285 77 C285 77 204 74 204 74 C162 72 114 105 119 132 C123 158 181 192 220 192 C220 192 275 192 275 192 C350 192 467 282 478 349 C484 382 466 421 437 452 C437 452 552 461 552 461 C552 461 559 500 559 500 L559 500 Z M192 349 C203 409 280 489 327 489 C374 489 423 409 412 349 C402 288 324 208 277 208 C230 208 182 288 192 349 L192 349 Z M176 9 C183 8 189 8 195 8 C195 8 255 11 255 11 C318 11 393 -40 387 -78 C376 -139 236 -220 143 -220 C95 -220 42 -157 51 -110 C58 -73 127 -9 176 9 C176 9 176 9 176 9 L176 9 Z " />
<glyph glyph-name="h" unicode="h" horiz-adv-x="625" d="M454 80 C454 80 454 80 454 80 C449 52 406 15 379 15 C379 15 368 15 368 15 C368 15 367 11 366 8 C366 4 365 0 365 0 C365 0 440 0 440 0 C440 0 475 0 475 0 C475 0 510 0 510 0 C510 0 585 0 585 0 C585 0 586 4 586 7 C586 7 588 15 588 15 C588 15 577 15 577 15 C550 15 522 49 524 76 C524 76 570 337 570 337 C582 409 540 505 478 505 C447 505 332 468 267 438 C267 438 297 610 297 610 C297 610 297 610 297 610 C297 610 317 720 317 720 C317 720 303 720 303 720 C303 720 165 681 165 681 C165 681 165 680 165 680 C164 677 163 672 163 672 C163 672 174 670 174 670 C208 663 228 635 225 600 C225 600 134 80 134 80 C134 80 134 80 134 80 C129 52 86 15 59 15 C59 15 47 15 47 15 C47 15 47 11 46 8 C46 4 45 0 45 0 C45 0 120 0 120 0 C120 0 155 0 155 0 C155 0 190 0 190 0 C190 0 265 0 265 0 C264 0 265 4 266 8 C266 11 267 15 267 15 C267 15 256 15 256 15 C229 15 200 51 204 79 C204 79 265 430 265 430 C300 443 379 458 415 458 C469 458 508 384 498 329 C498 329 454 80 454 80 L454 80 Z " />
<glyph glyph-name="i" unicode="i" horiz-adv-x="310" d="M185 371 C185 371 185 371 185 371 C185 371 134 80 134 80 C134 80 134 80 134 80 C129 52 86 15 59 15 C59 15 48 15 48 15 C48 15 47 11 46 8 C46 4 45 0 45 0 C45 0 120 0 120 0 C120 0 155 0 155 0 C155 0 190 0 190 0 C190 0 265 0 265 0 C265 0 266 4 266 8 C267 11 268 15 268 15 C268 15 256 15 256 15 C230 15 201 50 204 77 C204 77 259 390 259 390 C259 390 259 390 259 390 C259 390 270 452 270 452 C270 452 275 482 275 482 C275 482 275 482 275 482 C275 482 278 500 278 500 C278 500 264 500 264 500 C264 500 126 461 126 461 C126 461 126 460 126 460 C126 457 125 452 125 452 C125 452 136 450 136 450 C172 442 192 410 185 371 L185 371 Z M252 570 C272 570 303 597 307 617 C310 636 288 663 268 663 C248 663 216 636 213 617 C209 597 231 570 252 570 L252 570 Z " />
<glyph glyph-name="j" unicode="j" horiz-adv-x="268" d="M185 371 C185 371 185 371 185 371 C185 371 120 5 120 5 C104 -91 36 -188 -29 -225 C-29 -225 -24 -234 -24 -234 C78 -176 179 -66 195 25 C195 25 259 390 259 390 C259 390 259 390 259 390 C259 390 267 435 267 435 C267 435 275 482 275 482 C275 482 275 482 275 482 C275 482 278 500 278 500 C278 500 264 500 264 500 C264 500 126 461 126 461 C126 461 126 460 126 460 C126 457 125 452 125 452 C125 452 136 450 136 450 C172 442 192 410 185 371 L185 371 Z M252 570 C272 570 303 597 307 617 C310 636 288 663 268 663 C248 663 216 636 213 617 C209 597 231 570 252 570 L252 570 Z " />
<glyph glyph-name="k" unicode="k" horiz-adv-x="563" d="M49 0 C49 0 124 0 124 0 C124 0 159 0 159 0 C159 0 194 0 194 0 C194 0 269 0 269 0 C268 0 269 4 270 8 C270 11 271 15 271 15 C271 15 260 15 260 15 C233 15 204 50 208 77 C208 77 242 275 242 275 C242 275 248 266 248 266 C248 266 248 266 248 266 C248 266 382 74 382 74 C396 47 391 15 370 15 C370 15 361 15 361 15 C361 15 360 11 360 8 C360 8 358 0 358 0 C358 0 433 0 433 0 C433 0 477 0 477 0 C477 0 521 0 521 0 C521 0 583 0 583 0 C583 0 584 4 584 8 C585 11 585 15 585 15 C585 15 574 15 574 15 C549 15 495 46 471 73 C471 73 309 312 309 312 C309 312 452 421 452 421 C490 449 572 485 600 485 C600 485 611 485 611 485 C611 485 612 489 612 493 C613 496 614 500 613 500 C613 500 555 500 555 500 C555 500 540 500 540 500 C540 500 524 500 524 500 C524 500 449 500 449 500 C449 500 449 496 448 493 C448 489 447 485 447 485 C447 485 456 485 456 485 C476 485 461 452 430 425 C430 425 242 275 242 275 C242 275 301 610 301 610 C301 610 301 610 301 610 C301 610 309 658 309 658 C309 658 317 702 317 702 C317 702 317 702 317 702 C317 702 320 720 320 720 C320 720 306 720 306 720 C306 720 169 681 169 681 C169 681 168 680 168 680 C168 677 167 672 167 672 C167 672 178 670 178 670 C212 663 232 635 229 600 C229 600 138 80 138 80 C138 80 138 80 138 80 C133 52 90 15 62 15 C62 15 51 15 51 15 C51 14 49 0 49 0 C49 0 49 0 49 0 L49 0 Z " />
<glyph glyph-name="l" unicode="l" horiz-adv-x="310" d="M224 591 C224 591 224 591 224 591 C224 591 134 80 134 80 C134 80 134 80 134 80 C129 52 86 15 59 15 C59 15 48 15 48 15 C48 15 47 11 46 8 C46 4 45 0 45 0 C45 0 120 0 120 0 C120 0 155 0 155 0 C155 0 190 0 190 0 C190 0 265 0 265 0 C265 0 266 4 266 8 C267 11 268 15 268 15 C268 15 256 15 256 15 C230 15 201 49 204 77 C204 77 298 610 298 610 C298 610 298 610 298 610 C298 610 309 674 309 674 C309 674 314 702 314 702 C314 702 314 702 314 702 C314 702 317 720 317 720 C317 720 303 720 303 720 C303 720 165 681 165 681 C165 681 165 680 165 680 C164 677 164 672 164 672 C164 672 174 670 174 670 C211 662 231 630 224 591 C224 591 224 591 224 591 L224 591 Z " />
<glyph glyph-name="m" unicode="m" horiz-adv-x="965" d="M706 0 C706 0 781 0 781 0 C781 0 816 0 816 0 C816 0 851 0 851 0 C851 0 926 0 926 0 C925 0 926 4 927 7 C927 11 928 15 928 15 C928 15 917 15 917 15 C889 15 861 51 865 79 C865 79 910 337 910 337 C923 409 862 505 808 505 C787 505 655 453 572 412 C555 462 518 505 484 505 C448 505 332 468 267 438 C267 438 278 500 278 500 C278 500 264 500 264 500 C264 500 126 461 126 461 C126 461 126 460 126 460 C125 457 125 452 124 452 C124 452 135 450 135 450 C169 443 189 415 186 380 C186 380 134 78 134 78 C127 50 85 15 59 15 C59 15 47 15 47 15 C47 15 47 11 46 8 C46 4 45 0 45 0 C45 0 120 0 120 0 C120 0 155 0 155 0 C155 0 190 0 190 0 C190 0 265 0 265 0 C264 0 265 4 266 8 C266 11 267 15 267 15 C267 15 256 15 256 15 C229 15 199 52 204 80 C204 80 204 80 204 80 C204 80 258 390 258 390 C258 390 258 390 258 390 C258 390 265 429 265 429 C302 444 382 462 422 462 C466 462 518 386 508 329 C508 329 464 80 464 80 C464 80 464 80 464 80 C459 52 416 15 389 15 C389 15 378 15 378 15 C378 15 377 11 376 8 C376 4 375 0 375 0 C375 0 450 0 450 0 C450 0 485 0 485 0 C485 0 520 0 520 0 C520 0 595 0 595 0 C595 0 596 4 596 7 C596 7 598 15 598 15 C598 15 587 15 587 15 C560 15 532 49 534 76 C534 76 580 337 580 337 C583 358 581 381 575 402 C627 427 720 458 746 458 C793 458 848 384 839 329 C839 329 795 80 795 80 C795 80 795 80 795 80 C790 52 747 15 719 15 C719 15 708 15 708 15 C708 14 706 0 706 0 C706 0 706 0 706 0 L706 0 Z " />
<glyph glyph-name="n" unicode="n" horiz-adv-x="608" d="M204 80 C204 80 204 80 204 80 C204 80 258 390 258 390 C258 390 258 390 258 390 C258 390 265 430 265 430 C300 443 379 458 415 458 C469 458 508 384 498 329 C498 329 454 80 454 80 C454 80 454 80 454 80 C449 52 406 15 379 15 C379 15 368 15 368 15 C368 15 367 11 366 8 C366 4 365 0 365 0 C365 0 440 0 440 0 C440 0 475 0 475 0 C475 0 510 0 510 0 C510 0 585 0 585 0 C585 0 586 4 586 7 C586 7 588 15 588 15 C588 15 577 15 577 15 C550 15 522 49 524 76 C524 76 570 337 570 337 C582 409 540 505 478 505 C447 505 332 468 267 438 C267 438 278 500 278 500 C278 500 264 500 264 500 C264 500 126 461 126 461 C126 461 126 460 126 460 C125 457 125 452 124 452 C124 452 135 450 135 450 C169 443 189 415 186 380 C186 380 134 78 134 78 C127 50 85 15 59 15 C59 15 47 15 47 15 C47 15 47 11 46 8 C46 4 45 0 45 0 C45 0 120 0 120 0 C120 0 155 0 155 0 C155 0 190 0 190 0 C190 0 265 0 265 0 C264 0 265 4 266 8 C266 11 267 15 267 15 C267 15 256 15 256 15 C229 15 199 52 204 80 C204 80 204 80 204 80 L204 80 Z " />
<glyph glyph-name="o" unicode="o" horiz-adv-x="561" d="M274 11 C202 11 129 148 147 250 C165 352 286 489 359 489 C431 489 504 352 486 250 C468 148 347 11 274 11 L274 11 Z M69 250 C50 141 166 -5 271 -5 C377 -5 544 141 564 250 C583 359 467 505 361 505 C256 505 88 359 69 250 L69 250 Z " />
<glyph glyph-name="p" unicode="p" horiz-adv-x="595" d="M235 409 C266 432 344 458 384 458 C463 458 544 314 525 207 C511 125 387 14 309 14 C253 14 185 82 188 134 C188 134 233 390 233 390 C233 390 233 390 233 390 C233 390 233 391 233 391 C233 391 235 402 235 402 C235 402 234 402 234 402 C234 402 235 409 235 409 L235 409 Z M236 420 C236 420 243 500 243 500 C243 500 229 500 229 500 C229 500 101 461 101 461 C101 461 101 460 101 460 C100 457 100 452 99 452 C99 452 110 450 110 450 C144 443 164 415 161 380 C161 380 68 -150 68 -150 C68 -150 68 -150 68 -150 C63 -178 20 -215 -7 -215 C-7 -215 -18 -215 -18 -215 C-18 -215 -19 -219 -20 -222 C-20 -226 -21 -230 -21 -230 C-21 -230 54 -230 54 -230 C54 -230 89 -230 89 -230 C89 -230 124 -230 124 -230 C124 -230 199 -230 199 -230 C199 -230 200 -226 200 -222 C201 -219 202 -215 202 -215 C202 -215 190 -215 190 -215 C164 -215 134 -180 138 -152 C138 -152 174 53 174 53 C209 20 260 -5 305 -5 C413 -5 584 148 604 262 C622 366 532 505 446 505 C395 505 280 458 236 420 C236 420 236 420 236 420 L236 420 Z " />
<glyph glyph-name="q" unicode="q" horiz-adv-x="580" d="M385 -230 C385 -230 420 -230 420 -230 C420 -230 495 -230 495 -230 C495 -230 496 -226 496 -222 C497 -219 497 -215 497 -215 C497 -215 486 -215 486 -215 C460 -215 430 -180 434 -152 C472 65 511 281 548 500 C548 500 541 500 541 500 C534 489 504 474 488 474 C455 474 388 505 342 505 C245 505 86 344 65 223 C48 126 133 -5 213 -5 C259 -5 357 28 400 55 C400 55 364 -150 364 -150 C364 -150 364 -150 364 -150 C359 -178 316 -215 289 -215 C289 -215 277 -215 277 -215 C277 -215 276 -219 276 -222 C275 -226 275 -230 275 -230 C275 -230 350 -230 350 -230 C350 -230 385 -230 385 -230 L385 -230 Z M403 68 C382 55 303 38 259 38 C193 38 127 159 143 250 C161 351 273 486 339 486 C397 486 462 410 453 353 C453 353 403 68 403 68 L403 68 Z " />
<glyph glyph-name="r" unicode="r" horiz-adv-x="421" d="M204 80 C204 80 204 80 204 80 C204 80 258 390 258 390 C258 390 258 390 258 390 C258 390 258 391 258 391 C258 391 260 402 260 402 C260 402 259 402 259 402 C259 402 260 413 260 413 C283 432 332 453 354 453 C378 453 429 425 453 425 C468 425 490 444 493 458 C496 478 461 505 419 505 C387 505 301 459 261 422 C261 422 268 500 268 500 C268 500 254 500 254 500 C254 500 126 461 126 461 C126 461 126 460 126 460 C125 457 125 452 124 452 C124 452 135 450 135 450 C169 443 189 415 186 380 C186 380 134 78 134 78 C127 50 85 15 59 15 C59 15 47 15 47 15 C47 15 47 11 46 8 C46 4 45 0 45 0 C45 0 120 0 120 0 C120 0 155 0 155 0 C155 0 190 0 190 0 C190 0 265 0 265 0 C264 0 265 4 266 8 C266 11 267 15 267 15 C267 15 256 15 256 15 C229 15 199 52 204 80 C204 80 204 80 204 80 L204 80 Z " />
<glyph glyph-name="s" unicode="s" horiz-adv-x="421" d="M71 139 C71 139 53 33 53 33 C78 17 166 -5 207 -5 C277 -5 386 79 397 141 C403 177 348 253 301 275 C246 300 179 370 184 397 C191 436 260 489 305 489 C309 489 315 487 324 484 C324 484 324 484 324 484 C352 475 394 423 398 393 C399 387 401 371 402 366 C402 366 414 366 414 366 C414 366 431 462 431 462 C402 481 332 505 308 505 C240 505 136 429 126 373 C119 336 186 251 243 225 C286 205 339 142 334 115 C326 71 258 11 214 11 C208 11 200 12 191 13 C153 24 98 78 89 113 C87 119 84 134 82 139 C82 139 71 139 71 139 L71 139 Z " />
<glyph glyph-name="t" unicode="t" horiz-adv-x="351" d="M408 500 C408 500 258 500 258 500 C258 500 258 500 258 500 C266 547 274 593 282 640 C282 640 271 640 271 640 C271 640 193 492 193 492 C193 492 193 492 193 492 C193 492 251 603 251 603 C226 555 145 485 110 481 C110 481 108 473 108 473 C108 473 183 473 183 473 C183 473 119 112 119 112 C108 47 140 -5 192 -5 C236 -5 310 23 339 44 C339 44 335 49 335 49 C322 39 272 26 232 26 C199 26 179 59 187 100 C209 224 231 349 253 473 C253 473 403 473 403 473 C403 473 408 500 408 500 L408 500 Z " />
<glyph glyph-name="u" unicode="u" horiz-adv-x="590" d="M503 129 C503 129 503 129 503 129 C503 129 568 500 568 500 C568 500 533 500 533 500 C533 500 498 500 498 500 C498 500 423 500 423 500 C423 500 422 496 422 493 C421 489 421 485 421 485 C421 485 432 485 432 485 C458 485 487 450 484 423 C484 423 421 66 421 66 C401 54 343 41 298 41 C236 41 179 111 188 162 C188 162 248 500 248 500 C248 500 213 500 213 500 C213 500 178 500 178 500 C178 500 103 500 103 500 C103 500 102 496 101 493 C101 489 100 485 100 485 C100 485 111 485 111 485 C138 485 167 451 164 423 C164 423 117 155 117 155 C105 87 166 -5 235 -5 C289 -5 379 28 420 56 C420 56 413 18 413 18 C413 18 413 18 413 18 C413 18 410 0 410 0 C410 0 424 0 424 0 C424 0 562 39 562 39 C562 39 562 40 562 40 C563 43 564 48 564 48 C564 48 553 50 553 50 C516 58 496 90 503 129 C503 129 503 129 503 129 L503 129 Z " />
<glyph glyph-name="v" unicode="v" horiz-adv-x="573" d="M502 420 C502 420 502 420 502 420 C502 420 316 79 316 79 C316 79 250 420 250 420 C250 420 250 420 250 420 C244 448 271 485 296 485 C296 485 307 485 307 485 C307 485 309 499 309 500 C309 500 234 500 234 500 C234 500 194 500 194 500 C194 500 154 500 154 500 C154 500 85 500 85 500 C85 500 84 496 84 493 C84 493 82 485 82 485 C82 485 94 485 94 485 C120 485 161 452 171 425 C171 425 267 -10 267 -10 C267 -10 278 -10 278 -10 C278 -10 526 425 526 425 C545 452 599 485 624 485 C624 485 636 485 636 485 C635 485 636 489 637 493 C637 496 638 500 638 500 C638 500 569 500 569 500 C569 500 557 500 557 500 C557 500 546 500 546 500 C546 500 471 500 471 500 C471 500 470 496 469 493 C469 489 468 485 468 485 C468 485 479 485 479 485 C504 485 517 448 502 420 L502 420 Z " />
<glyph glyph-name="w" unicode="w" horiz-adv-x="867" d="M637 500 C637 500 542 500 542 500 C542 500 462 500 462 500 C462 500 413 500 413 500 C413 500 412 496 412 493 C411 489 411 485 411 485 C411 485 429 485 429 485 C444 485 467 459 480 419 C480 419 496 347 496 347 C496 347 348 78 348 78 C348 78 282 418 282 418 C277 458 307 485 333 485 C333 485 351 485 351 485 C351 485 351 489 352 493 C352 496 353 500 353 500 C353 500 266 500 266 500 C266 500 186 500 186 500 C186 500 132 500 132 500 C132 500 131 496 131 493 C131 493 129 485 129 485 C129 485 148 485 148 485 C166 485 196 454 206 408 C206 408 206 408 206 408 C206 408 299 -10 299 -10 C299 -10 310 -10 310 -10 C310 -10 500 327 500 327 C500 327 575 -10 575 -10 C575 -10 586 -10 586 -10 C586 -10 822 404 822 404 C822 404 823 404 823 404 C849 453 892 485 910 485 C910 485 929 485 929 485 C929 485 929 489 930 493 C930 496 931 500 931 500 C931 500 877 500 877 500 C877 500 854 500 854 500 C854 500 749 500 749 500 C749 500 748 496 748 493 C748 493 746 485 746 485 C746 485 764 485 764 485 C799 485 826 449 797 396 C797 396 797 396 797 396 C797 396 624 79 624 79 C624 79 559 411 559 411 C559 411 560 411 560 411 C550 455 585 485 617 485 C617 485 635 485 635 485 C635 485 637 499 637 500 C637 500 637 500 637 500 L637 500 Z " />
<glyph glyph-name="x" unicode="x" horiz-adv-x="610" d="M441 485 C441 485 465 485 465 485 C493 485 497 448 472 420 C472 420 472 420 472 420 C472 420 370 305 370 305 C370 305 311 420 311 420 C311 420 311 420 311 420 C296 448 314 485 342 485 C342 485 357 485 357 485 C357 485 358 489 358 493 C359 496 359 500 359 500 C359 500 269 500 269 500 C269 500 227 500 227 500 C227 500 184 500 184 500 C184 500 134 500 134 500 C134 499 132 485 132 485 C132 485 141 485 141 485 C162 485 211 448 225 420 C225 420 225 420 225 420 C225 420 315 247 315 247 C315 247 173 80 173 80 C173 80 173 80 173 80 C149 52 80 15 53 15 C53 15 33 15 33 15 C33 15 32 11 31 8 C31 4 30 0 30 0 C30 0 105 0 105 0 C105 0 116 0 116 0 C116 0 128 0 128 0 C128 0 248 0 248 0 C248 0 249 4 249 8 C250 11 251 15 251 15 C251 15 206 15 206 15 C178 15 172 51 194 79 C194 79 323 232 323 232 C323 232 404 75 404 75 C414 48 403 15 381 15 C381 15 371 15 371 15 C371 15 370 11 370 8 C370 8 368 0 368 0 C368 0 443 0 443 0 C443 0 486 0 486 0 C486 0 529 0 529 0 C529 0 569 0 569 0 C569 0 571 14 571 15 C571 15 564 15 564 15 C547 15 508 47 490 74 C490 74 376 294 376 294 C376 294 493 420 493 420 C493 420 493 420 493 420 C518 448 589 485 617 485 C617 485 628 485 628 485 C628 485 628 489 629 493 C629 496 630 500 630 500 C630 500 567 500 567 500 C567 500 555 500 555 500 C555 500 543 500 543 500 C543 500 443 500 443 500 C443 499 441 485 441 485 C441 485 441 485 441 485 L441 485 Z " />
<glyph glyph-name="y" unicode="y" horiz-adv-x="592" d="M526 420 C526 420 526 420 526 420 C526 420 340 79 340 79 C340 79 274 420 274 420 C274 420 274 420 274 420 C268 448 295 485 320 485 C320 485 331 485 331 485 C331 485 333 499 333 500 C333 500 258 500 258 500 C258 500 218 500 218 500 C218 500 178 500 178 500 C178 500 109 500 109 500 C109 500 108 496 108 493 C108 493 106 485 106 485 C106 485 118 485 118 485 C144 485 185 452 195 425 C195 425 289 0 289 0 C289 0 250 -66 250 -66 C215 -126 159 -184 135 -184 C118 -184 84 -160 66 -160 C51 -160 28 -177 26 -189 C23 -207 56 -230 84 -230 C131 -230 221 -153 267 -72 C267 -72 302 -10 302 -10 C302 -10 550 425 550 425 C569 452 623 485 648 485 C648 485 660 485 660 485 C659 485 660 489 661 493 C661 496 662 500 662 500 C662 500 593 500 593 500 C593 500 581 500 581 500 C581 500 570 500 570 500 C570 500 495 500 495 500 C495 500 494 496 493 493 C493 489 492 485 492 485 C492 485 503 485 503 485 C528 485 541 448 526 420 L526 420 Z " />
<glyph glyph-name="z" unicode="z" horiz-adv-x="491" d="M428 8 C439 40 469 126 481 158 C480 158 479 159 478 160 C472 162 464 166 464 166 C464 166 429 106 429 106 C406 67 324 16 285 16 C285 16 153 16 153 16 C153 16 530 500 530 500 C530 500 489 500 489 500 C489 500 449 500 449 500 C449 500 247 500 247 500 C247 500 185 500 185 500 C185 500 167 500 167 500 C167 500 163 492 163 492 C154 471 129 415 119 394 C119 394 131 394 131 394 C131 394 145 407 145 407 C177 440 265 484 299 484 C299 484 436 484 436 484 C436 484 58 0 58 0 C58 0 100 0 100 0 C100 0 141 0 141 0 C141 0 345 0 345 0 C345 0 421 0 421 0 C421 0 425 0 425 0 C425 2 427 6 428 8 L428 8 Z " />
<glyph glyph-name="braceleft" unicode="&#x7b;" horiz-adv-x="245" d="M209 -120 C209 -120 212 -108 212 -108 C212 -108 187 -108 187 -108 C148 -108 107 -41 116 9 C116 9 143 164 143 164 C151 205 119 259 85 270 C123 281 174 335 181 377 C181 377 208 531 208 531 C217 581 281 648 320 648 C320 648 345 648 345 648 C345 648 347 660 347 660 C347 660 307 660 307 660 C251 660 163 586 154 531 C154 531 120 338 120 338 C115 311 80 276 59 276 C59 276 54 276 54 276 C54 276 52 264 52 264 C52 264 57 264 57 264 C78 264 100 229 96 203 C96 203 62 9 62 9 C52 -46 113 -120 169 -120 C169 -120 209 -120 209 -120 L209 -120 Z " />
<glyph glyph-name="bar" unicode="&#x7c;" horiz-adv-x="174" d="M196 770 C196 770 19 -234 19 -234 C19 -234 73 -234 73 -234 C73 -234 250 770 250 770 C250 770 196 770 196 770 L196 770 Z " />
<glyph glyph-name="braceright" unicode="&#x7d;" horiz-adv-x="245" d="M121 660 C121 660 119 648 119 648 C119 648 144 648 144 648 C183 648 224 581 215 531 C215 531 187 376 187 376 C180 335 211 281 245 270 C208 259 157 205 150 163 C150 163 123 9 123 9 C114 -41 50 -108 10 -108 C10 -108 -14 -108 -14 -108 C-14 -108 -16 -120 -16 -120 C-16 -120 24 -120 24 -120 C80 -120 168 -46 177 9 C177 9 211 202 211 202 C216 229 251 264 272 264 C272 264 277 264 277 264 C277 264 279 276 279 276 C279 276 274 276 274 276 C253 276 231 311 235 337 C235 337 269 531 269 531 C279 586 217 660 161 660 C161 660 121 660 121 660 L121 660 Z " />
<glyph glyph-name="[namenotfound]" unicode="&#xa0;" horiz-adv-x="220" d="" />
<glyph glyph-name="exclamdown" unicode="&#xa1;" horiz-adv-x="208" d="M187 505 C166 505 132 476 128 454 C124 433 148 404 169 404 C191 404 225 433 229 454 C233 476 209 505 187 505 L187 505 Z M40 -113 C34 -135 54 -165 74 -165 C94 -165 124 -135 126 -113 C126 -113 161 329 161 329 C161 329 151 329 151 329 C151 329 40 -113 40 -113 L40 -113 Z " />
<glyph glyph-name="cent" unicode="&#xa2;" horiz-adv-x="489" d="M374 575 C374 575 361 502 361 502 C255 480 110 340 91 233 C73 131 160 -5 243 -5 C251 -5 261 -4 272 -3 C272 -3 259 -75 259 -75 C259 -75 282 -75 282 -75 C282 -75 295 1 295 1 C352 12 423 35 448 53 C448 53 442 60 442 60 C429 51 353 38 309 38 C307 38 304 38 302 38 C302 38 381 486 381 486 C412 482 448 437 445 404 C444 389 460 369 474 369 C487 369 508 387 510 400 C514 445 444 505 388 505 C387 505 386 505 385 505 C385 505 397 575 397 575 C397 575 374 575 374 575 L374 575 Z M280 44 C214 70 155 177 170 260 C186 349 286 464 358 483 C358 483 280 44 280 44 L280 44 Z " />
<glyph glyph-name="guillemotleft" unicode="&#xab;" horiz-adv-x="458" d="M302 250 C302 250 492 457 492 457 C492 457 486 465 486 465 C486 465 230 254 230 254 C230 254 229 246 229 246 C229 246 412 35 412 35 C412 35 421 43 421 43 C421 43 302 250 302 250 L302 250 Z M136 250 C136 250 326 457 326 457 C326 457 320 465 320 465 C320 465 65 254 65 254 C65 254 63 246 63 246 C63 246 246 35 246 35 C246 35 255 43 255 43 C255 43 136 250 136 250 L136 250 Z " />
<glyph glyph-name="guillemotright" unicode="&#xbb;" horiz-adv-x="458" d="M245 250 C245 250 128 457 128 457 C128 457 137 465 137 465 C137 465 318 254 318 254 C318 254 316 246 316 246 C316 246 59 35 59 35 C59 35 53 43 53 43 C53 43 245 250 245 250 L245 250 Z M410 250 C410 250 293 457 293 457 C293 457 302 465 302 465 C302 465 483 254 483 254 C483 254 482 246 482 246 C482 246 225 35 225 35 C225 35 218 43 218 43 C218 43 410 250 410 250 L410 250 Z " />
<glyph glyph-name="questiondown" unicode="&#xbf;" horiz-adv-x="368" d="M318 505 C296 505 262 476 258 454 C255 433 278 404 300 404 C322 404 356 433 359 454 C363 476 339 505 318 505 L318 505 Z M274 140 C274 140 291 324 291 324 C291 324 281 324 281 324 C281 324 244 183 244 183 C244 183 209 183 209 183 C125 183 52 95 46 64 C29 -34 127 -165 217 -165 C252 -165 307 -128 311 -101 C313 -91 296 -77 281 -77 C262 -77 222 -110 204 -110 C130 -110 49 -15 61 56 C64 75 134 129 224 129 C224 129 259 129 259 129 C265 129 273 135 274 140 L274 140 Z " />
<glyph glyph-name="Agrave" unicode="&#xc0;" horiz-adv-x="654" d="M573 80 C573 80 573 80 573 80 C573 80 444 675 444 675 C444 675 425 675 425 675 C425 675 112 79 112 79 C96 51 42 15 15 15 C15 15 3 15 3 15 C4 15 3 11 2 8 C2 4 1 0 1 0 C1 0 71 0 71 0 C71 0 83 0 83 0 C83 0 96 0 96 0 C96 0 206 0 206 0 C206 0 208 8 208 8 C208 11 209 15 209 15 C209 15 184 15 184 15 C150 15 127 61 145 95 C145 95 145 95 145 95 C145 95 217 235 217 235 C217 235 458 235 458 235 C458 235 489 79 489 79 C493 51 465 15 437 15 C437 15 403 15 403 15 C403 15 403 11 402 8 C402 4 401 0 401 0 C401 0 505 0 505 0 C505 0 547 0 547 0 C547 0 590 0 590 0 C590 0 650 0 650 0 C650 0 651 4 651 7 C652 11 653 15 652 15 C652 15 643 15 643 15 C619 15 579 52 573 80 C573 80 573 80 573 80 L573 80 Z M458 846 C450 869 435 900 431 900 C423 900 387 877 386 870 C386 866 404 837 418 818 C418 818 510 690 510 690 C510 690 519 697 519 697 C519 697 458 846 458 846 L458 846 Z M454 255 C454 255 227 255 227 255 C227 255 391 571 391 571 C391 571 454 255 454 255 L454 255 Z " />
<glyph glyph-name="Aacute" unicode="&#xc1;" horiz-adv-x="654" d="M376 690 C376 690 510 818 510 818 C530 838 558 867 559 870 C560 877 533 900 524 900 C522 900 497 869 479 846 C479 846 369 697 369 697 C369 697 376 690 376 690 L376 690 Z M573 80 C573 80 573 80 573 80 C573 80 444 675 444 675 C444 675 425 675 425 675 C425 675 112 79 112 79 C96 51 42 15 15 15 C15 15 3 15 3 15 C4 15 3 11 2 8 C2 4 1 0 1 0 C1 0 71 0 71 0 C71 0 83 0 83 0 C83 0 96 0 96 0 C96 0 206 0 206 0 C206 0 208 8 208 8 C208 11 209 15 209 15 C209 15 184 15 184 15 C150 15 127 61 145 95 C145 95 145 95 145 95 C145 95 217 235 217 235 C217 235 458 235 458 235 C458 235 489 79 489 79 C493 51 465 15 437 15 C437 15 403 15 403 15 C403 15 403 11 402 8 C402 4 401 0 401 0 C401 0 505 0 505 0 C505 0 547 0 547 0 C547 0 590 0 590 0 C590 0 650 0 650 0 C650 0 651 4 651 7 C652 11 653 15 652 15 C652 15 643 15 643 15 C619 15 579 52 573 80 C573 80 573 80 573 80 L573 80 Z M454 255 C454 255 227 255 227 255 C227 255 391 571 391 571 C391 571 454 255 454 255 L454 255 Z " />
<glyph glyph-name="Acircumflex" unicode="&#xc2;" horiz-adv-x="654" d="M573 80 C573 80 573 80 573 80 C573 80 444 675 444 675 C444 675 425 675 425 675 C425 675 112 79 112 79 C96 51 42 15 15 15 C15 15 3 15 3 15 C4 15 3 11 2 8 C2 4 1 0 1 0 C1 0 71 0 71 0 C71 0 83 0 83 0 C83 0 96 0 96 0 C96 0 206 0 206 0 C206 0 208 8 208 8 C208 11 209 15 209 15 C209 15 184 15 184 15 C150 15 127 61 145 95 C145 95 145 95 145 95 C145 95 217 235 217 235 C217 235 458 235 458 235 C458 235 489 79 489 79 C493 51 465 15 437 15 C437 15 403 15 403 15 C403 15 403 11 402 8 C402 4 401 0 401 0 C401 0 505 0 505 0 C505 0 547 0 547 0 C547 0 590 0 590 0 C590 0 650 0 650 0 C650 0 651 4 651 7 C652 11 653 15 652 15 C652 15 643 15 643 15 C619 15 579 52 573 80 C573 80 573 80 573 80 L573 80 Z M463 835 C463 835 550 693 550 693 C550 693 558 699 558 699 C558 699 494 885 494 885 C493 889 483 905 475 905 C468 905 453 889 450 885 C450 885 320 699 320 699 C320 699 326 693 326 693 C326 693 463 835 463 835 L463 835 Z M454 255 C454 255 227 255 227 255 C227 255 391 571 391 571 C391 571 454 255 454 255 L454 255 Z " />
<glyph glyph-name="Atilde" unicode="&#xc3;" horiz-adv-x="654" d="M308 755 C313 782 344 818 362 818 C405 818 485 756 528 756 C559 756 612 817 620 862 C620 862 609 862 609 862 C604 837 571 802 551 802 C508 802 428 865 385 865 C356 865 304 802 296 755 C296 755 308 755 308 755 L308 755 Z M573 80 C573 80 573 80 573 80 C573 80 444 675 444 675 C444 675 425 675 425 675 C425 675 112 79 112 79 C96 51 42 15 15 15 C15 15 3 15 3 15 C4 15 3 11 2 8 C2 4 1 0 1 0 C1 0 71 0 71 0 C71 0 83 0 83 0 C83 0 96 0 96 0 C96 0 206 0 206 0 C206 0 208 8 208 8 C208 11 209 15 209 15 C209 15 184 15 184 15 C150 15 127 61 145 95 C145 95 145 95 145 95 C145 95 217 235 217 235 C217 235 458 235 458 235 C458 235 489 79 489 79 C493 51 465 15 437 15 C437 15 403 15 403 15 C403 15 403 11 402 8 C402 4 401 0 401 0 C401 0 505 0 505 0 C505 0 547 0 547 0 C547 0 590 0 590 0 C590 0 650 0 650 0 C650 0 651 4 651 7 C652 11 653 15 652 15 C652 15 643 15 643 15 C619 15 579 52 573 80 C573 80 573 80 573 80 L573 80 Z M454 255 C454 255 227 255 227 255 C227 255 391 571 391 571 C391 571 454 255 454 255 L454 255 Z " />
<glyph glyph-name="Adieresis" unicode="&#xc4;" horiz-adv-x="654" d="M537 730 C555 730 584 754 587 773 C590 791 570 816 552 816 C533 816 505 791 501 773 C498 754 518 730 537 730 L537 730 Z M352 730 C370 730 399 754 402 773 C406 791 385 816 367 816 C349 816 320 791 317 773 C313 754 333 730 352 730 L352 730 Z M573 80 C573 80 573 80 573 80 C573 80 444 675 444 675 C444 675 425 675 425 675 C425 675 112 79 112 79 C96 51 42 15 15 15 C15 15 3 15 3 15 C4 15 3 11 2 8 C2 4 1 0 1 0 C1 0 71 0 71 0 C71 0 83 0 83 0 C83 0 96 0 96 0 C96 0 206 0 206 0 C206 0 208 8 208 8 C208 11 209 15 209 15 C209 15 184 15 184 15 C150 15 127 61 145 95 C145 95 145 95 145 95 C145 95 217 235 217 235 C217 235 458 235 458 235 C458 235 489 79 489 79 C493 51 465 15 437 15 C437 15 403 15 403 15 C403 15 403 11 402 8 C402 4 401 0 401 0 C401 0 505 0 505 0 C505 0 547 0 547 0 C547 0 590 0 590 0 C590 0 650 0 650 0 C650 0 651 4 651 7 C652 11 653 15 652 15 C652 15 643 15 643 15 C619 15 579 52 573 80 C573 80 573 80 573 80 L573 80 Z M454 255 C454 255 227 255 227 255 C227 255 391 571 391 571 C391 571 454 255 454 255 L454 255 Z " />
<glyph glyph-name="Aring" unicode="&#xc5;" horiz-adv-x="654" d="M441 711 C412 711 374 758 379 788 C385 820 436 864 468 864 C500 864 536 820 530 788 C525 758 470 711 441 711 L441 711 Z M360 788 C354 752 402 695 438 695 C474 695 543 752 549 788 C556 827 511 880 471 880 C430 880 367 827 360 788 L360 788 Z M573 80 C573 80 573 80 573 80 C573 80 444 675 444 675 C444 675 425 675 425 675 C425 675 112 79 112 79 C96 51 42 15 15 15 C15 15 3 15 3 15 C4 15 3 11 2 8 C2 4 1 0 1 0 C1 0 71 0 71 0 C71 0 83 0 83 0 C83 0 96 0 96 0 C96 0 206 0 206 0 C206 0 208 8 208 8 C208 11 209 15 209 15 C209 15 184 15 184 15 C150 15 127 61 145 95 C145 95 145 95 145 95 C145 95 217 235 217 235 C217 235 458 235 458 235 C458 235 489 79 489 79 C493 51 465 15 437 15 C437 15 403 15 403 15 C403 15 403 11 402 8 C402 4 401 0 401 0 C401 0 505 0 505 0 C505 0 547 0 547 0 C547 0 590 0 590 0 C590 0 650 0 650 0 C650 0 651 4 651 7 C652 11 653 15 652 15 C652 15 643 15 643 15 C619 15 579 52 573 80 C573 80 573 80 573 80 L573 80 Z M454 255 C454 255 227 255 227 255 C227 255 391 571 391 571 C391 571 454 255 454 255 L454 255 Z " />
<glyph glyph-name="Ccedilla" unicode="&#xc7;" horiz-adv-x="713" d="M735 462 C735 462 760 604 760 604 C719 630 576 665 509 665 C366 665 139 473 114 330 C89 187 248 -5 391 -5 C458 -5 613 30 663 56 C663 56 688 198 688 198 C688 198 675 198 675 198 C671 190 660 169 656 162 C627 107 496 23 427 16 C427 16 427 16 427 16 C415 15 404 14 395 14 C287 14 175 195 199 330 C223 465 399 646 506 646 C525 646 549 643 576 638 C576 638 576 638 576 638 C626 630 706 550 715 498 C717 491 720 470 722 462 C722 462 735 462 735 462 L735 462 Z " />
<glyph glyph-name="Egrave" unicode="&#xc8;" horiz-adv-x="602" d="M468 257 C472 278 481 332 485 352 C485 352 487 362 487 362 C487 362 487 362 487 362 C491 384 497 422 500 437 C500 437 488 437 488 437 C488 437 482 425 482 425 C469 398 403 362 367 362 C367 362 257 362 257 362 C257 362 254 347 254 347 C254 347 309 660 309 660 C309 660 306 641 306 641 C306 641 445 641 445 641 C488 641 554 584 560 541 C560 541 565 506 565 506 C565 506 576 506 576 506 C582 537 596 619 602 650 C602 652 603 658 604 660 C604 660 594 660 594 660 C594 660 524 660 524 660 C524 660 309 660 309 660 C309 660 270 660 270 660 C270 660 231 660 231 660 C231 660 156 660 156 660 C156 659 154 645 154 645 C154 645 165 645 165 645 C191 645 221 610 217 582 C217 582 129 80 129 80 C129 80 129 80 129 80 C124 52 81 15 54 15 C54 15 43 15 43 15 C43 15 42 11 41 8 C41 4 40 0 40 0 C40 0 115 0 115 0 C115 0 154 0 154 0 C154 0 193 0 193 0 C193 0 411 0 411 0 C411 0 488 0 488 0 C488 0 491 0 491 0 C491 2 493 8 494 10 C505 41 534 123 545 154 C545 155 545 155 544 154 C540 155 534 155 534 154 C534 154 510 119 510 119 C481 77 385 20 342 19 C342 19 196 19 196 19 C196 19 253 342 253 342 C253 342 363 342 363 342 C400 342 452 301 455 270 C455 270 456 257 456 257 C456 257 468 257 468 257 L468 257 Z M424 846 C415 869 400 900 397 900 C388 900 353 877 351 870 C351 866 369 837 383 818 C383 818 476 690 476 690 C476 690 484 697 484 697 C484 697 424 846 424 846 L424 846 Z " />
<glyph glyph-name="Eacute" unicode="&#xc9;" horiz-adv-x="602" d="M468 257 C472 278 481 332 485 352 C485 352 487 362 487 362 C487 362 487 362 487 362 C491 384 497 422 500 437 C500 437 488 437 488 437 C488 437 482 425 482 425 C469 398 403 362 367 362 C367 362 257 362 257 362 C257 362 254 347 254 347 C254 347 309 660 309 660 C309 660 306 641 306 641 C306 641 445 641 445 641 C488 641 554 584 560 541 C560 541 565 506 565 506 C565 506 576 506 576 506 C582 537 596 619 602 650 C602 652 603 658 604 660 C604 660 594 660 594 660 C594 660 524 660 524 660 C524 660 309 660 309 660 C309 660 270 660 270 660 C270 660 231 660 231 660 C231 660 156 660 156 660 C156 659 154 645 154 645 C154 645 165 645 165 645 C191 645 221 610 217 582 C217 582 129 80 129 80 C129 80 129 80 129 80 C124 52 81 15 54 15 C54 15 43 15 43 15 C43 15 42 11 41 8 C41 4 40 0 40 0 C40 0 115 0 115 0 C115 0 154 0 154 0 C154 0 193 0 193 0 C193 0 411 0 411 0 C411 0 488 0 488 0 C488 0 491 0 491 0 C491 2 493 8 494 10 C505 41 534 123 545 154 C545 155 545 155 544 154 C540 155 534 155 534 154 C534 154 510 119 510 119 C481 77 385 20 342 19 C342 19 196 19 196 19 C196 19 253 342 253 342 C253 342 363 342 363 342 C400 342 452 301 455 270 C455 270 456 257 456 257 C456 257 468 257 468 257 L468 257 Z M387 690 C387 690 521 818 521 818 C542 838 570 867 570 870 C571 877 544 900 535 900 C533 900 508 869 490 846 C490 846 380 697 380 697 C380 697 387 690 387 690 L387 690 Z " />
<glyph glyph-name="Ecircumflex" unicode="&#xca;" horiz-adv-x="602" d="M468 257 C472 278 481 332 485 352 C485 352 487 362 487 362 C487 362 487 362 487 362 C491 384 497 422 500 437 C500 437 488 437 488 437 C488 437 482 425 482 425 C469 398 403 362 367 362 C367 362 257 362 257 362 C257 362 254 347 254 347 C254 347 309 660 309 660 C309 660 306 641 306 641 C306 641 445 641 445 641 C488 641 554 584 560 541 C560 541 565 506 565 506 C565 506 576 506 576 506 C582 537 596 619 602 650 C602 652 603 658 604 660 C604 660 594 660 594 660 C594 660 524 660 524 660 C524 660 309 660 309 660 C309 660 270 660 270 660 C270 660 231 660 231 660 C231 660 156 660 156 660 C156 659 154 645 154 645 C154 645 165 645 165 645 C191 645 221 610 217 582 C217 582 129 80 129 80 C129 80 129 80 129 80 C124 52 81 15 54 15 C54 15 43 15 43 15 C43 15 42 11 41 8 C41 4 40 0 40 0 C40 0 115 0 115 0 C115 0 154 0 154 0 C154 0 193 0 193 0 C193 0 411 0 411 0 C411 0 488 0 488 0 C488 0 491 0 491 0 C491 2 493 8 494 10 C505 41 534 123 545 154 C545 155 545 155 544 154 C540 155 534 155 534 154 C534 154 510 119 510 119 C481 77 385 20 342 19 C342 19 196 19 196 19 C196 19 253 342 253 342 C253 342 363 342 363 342 C400 342 452 301 455 270 C455 270 456 257 456 257 C456 257 468 257 468 257 L468 257 Z M444 835 C444 835 531 693 531 693 C531 693 539 699 539 699 C539 699 475 885 475 885 C473 889 463 905 456 905 C448 905 433 889 430 885 C430 885 300 699 300 699 C300 699 306 693 306 693 C306 693 444 835 444 835 L444 835 Z " />
<glyph glyph-name="Edieresis" unicode="&#xcb;" horiz-adv-x="602" d="M468 257 C472 278 481 332 485 352 C485 352 487 362 487 362 C487 362 487 362 487 362 C491 384 497 422 500 437 C500 437 488 437 488 437 C488 437 482 425 482 425 C469 398 403 362 367 362 C367 362 257 362 257 362 C257 362 254 347 254 347 C254 347 309 660 309 660 C309 660 306 641 306 641 C306 641 445 641 445 641 C488 641 554 584 560 541 C560 541 565 506 565 506 C565 506 576 506 576 506 C582 537 596 619 602 650 C602 652 603 658 604 660 C604 660 594 660 594 660 C594 660 524 660 524 660 C524 660 309 660 309 660 C309 660 270 660 270 660 C270 660 231 660 231 660 C231 660 156 660 156 660 C156 659 154 645 154 645 C154 645 165 645 165 645 C191 645 221 610 217 582 C217 582 129 80 129 80 C129 80 129 80 129 80 C124 52 81 15 54 15 C54 15 43 15 43 15 C43 15 42 11 41 8 C41 4 40 0 40 0 C40 0 115 0 115 0 C115 0 154 0 154 0 C154 0 193 0 193 0 C193 0 411 0 411 0 C411 0 488 0 488 0 C488 0 491 0 491 0 C491 2 493 8 494 10 C505 41 534 123 545 154 C545 155 545 155 544 154 C540 155 534 155 534 154 C534 154 510 119 510 119 C481 77 385 20 342 19 C342 19 196 19 196 19 C196 19 253 342 253 342 C253 342 363 342 363 342 C400 342 452 301 455 270 C455 270 456 257 456 257 C456 257 468 257 468 257 L468 257 Z M517 730 C536 730 565 754 568 773 C571 791 551 816 533 816 C514 816 485 791 482 773 C479 754 499 730 517 730 L517 730 Z M333 730 C351 730 380 754 383 773 C386 791 366 816 348 816 C329 816 301 791 298 773 C294 754 314 730 333 730 L333 730 Z " />
<glyph glyph-name="Igrave" unicode="&#xcc;" horiz-adv-x="307" d="M154 645 C154 645 165 645 165 645 C191 645 221 610 217 582 C217 582 129 80 129 80 C129 80 129 80 129 80 C124 52 81 15 54 15 C54 15 43 15 43 15 C43 15 42 11 41 8 C41 4 40 0 40 0 C40 0 115 0 115 0 C115 0 154 0 154 0 C154 0 193 0 193 0 C193 0 268 0 268 0 C268 0 270 14 270 15 C270 15 259 15 259 15 C233 15 203 50 207 78 C207 78 295 580 295 580 C295 580 295 580 295 580 C300 608 343 645 370 645 C370 645 382 645 382 645 C381 645 382 649 383 653 C383 656 384 660 384 660 C384 660 309 660 309 660 C309 660 270 660 270 660 C270 660 231 660 231 660 C231 660 156 660 156 660 C156 659 154 645 154 645 L154 645 Z M297 846 C288 869 273 900 270 900 C261 900 226 877 225 870 C224 866 242 837 256 818 C256 818 349 690 349 690 C349 690 357 697 357 697 C357 697 297 846 297 846 L297 846 Z " />
<glyph glyph-name="Iacute" unicode="&#xcd;" horiz-adv-x="307" d="M214 690 C214 690 348 818 348 818 C369 838 396 867 397 870 C398 877 371 900 362 900 C360 900 335 869 318 846 C318 846 207 697 207 697 C207 697 214 690 214 690 L214 690 Z M154 645 C154 645 165 645 165 645 C191 645 221 610 217 582 C217 582 129 80 129 80 C129 80 129 80 129 80 C124 52 81 15 54 15 C54 15 43 15 43 15 C43 15 42 11 41 8 C41 4 40 0 40 0 C40 0 115 0 115 0 C115 0 154 0 154 0 C154 0 193 0 193 0 C193 0 268 0 268 0 C268 0 270 14 270 15 C270 15 259 15 259 15 C233 15 203 50 207 78 C207 78 295 580 295 580 C295 580 295 580 295 580 C300 608 343 645 370 645 C370 645 382 645 382 645 C381 645 382 649 383 653 C383 656 384 660 384 660 C384 660 309 660 309 660 C309 660 270 660 270 660 C270 660 231 660 231 660 C231 660 156 660 156 660 C156 659 154 645 154 645 L154 645 Z " />
<glyph glyph-name="Icircumflex" unicode="&#xce;" horiz-adv-x="307" d="M154 645 C154 645 165 645 165 645 C191 645 221 610 217 582 C217 582 129 80 129 80 C129 80 129 80 129 80 C124 52 81 15 54 15 C54 15 43 15 43 15 C43 15 42 11 41 8 C41 4 40 0 40 0 C40 0 115 0 115 0 C115 0 154 0 154 0 C154 0 193 0 193 0 C193 0 268 0 268 0 C268 0 270 14 270 15 C270 15 259 15 259 15 C233 15 203 50 207 78 C207 78 295 580 295 580 C295 580 295 580 295 580 C300 608 343 645 370 645 C370 645 382 645 382 645 C381 645 382 649 383 653 C383 656 384 660 384 660 C384 660 309 660 309 660 C309 660 270 660 270 660 C270 660 231 660 231 660 C231 660 156 660 156 660 C156 659 154 645 154 645 L154 645 Z M301 835 C301 835 388 693 388 693 C388 693 396 699 396 699 C396 699 332 885 332 885 C331 889 321 905 313 905 C306 905 291 889 288 885 C288 885 158 699 158 699 C158 699 164 693 164 693 C164 693 301 835 301 835 L301 835 Z " />
<glyph glyph-name="Idieresis" unicode="&#xcf;" horiz-adv-x="307" d="M375 730 C393 730 422 754 425 773 C429 791 408 816 390 816 C372 816 343 791 340 773 C336 754 356 730 375 730 L375 730 Z M190 730 C208 730 237 754 241 773 C244 791 224 816 205 816 C187 816 158 791 155 773 C152 754 172 730 190 730 L190 730 Z M154 645 C154 645 165 645 165 645 C191 645 221 610 217 582 C217 582 129 80 129 80 C129 80 129 80 129 80 C124 52 81 15 54 15 C54 15 43 15 43 15 C43 15 42 11 41 8 C41 4 40 0 40 0 C40 0 115 0 115 0 C115 0 154 0 154 0 C154 0 193 0 193 0 C193 0 268 0 268 0 C268 0 270 14 270 15 C270 15 259 15 259 15 C233 15 203 50 207 78 C207 78 295 580 295 580 C295 580 295 580 295 580 C300 608 343 645 370 645 C370 645 382 645 382 645 C381 645 382 649 383 653 C383 656 384 660 384 660 C384 660 309 660 309 660 C309 660 270 660 270 660 C270 660 231 660 231 660 C231 660 156 660 156 660 C156 659 154 645 154 645 L154 645 Z " />
<glyph glyph-name="Ntilde" unicode="&#xd1;" horiz-adv-x="708" d="M347 755 C352 782 383 818 401 818 C444 818 524 756 567 756 C599 756 652 817 660 862 C660 862 648 862 648 862 C643 837 610 802 590 802 C548 802 467 865 425 865 C395 865 343 802 335 755 C335 755 347 755 347 755 L347 755 Z M609 645 C609 645 620 645 620 645 C646 645 675 610 672 583 C672 583 590 113 590 113 C590 113 302 660 302 660 C302 660 250 628 250 628 C250 628 250 628 250 628 C250 628 302 660 302 660 C302 660 256 660 256 660 C256 660 244 660 244 660 C244 660 233 660 233 660 C233 660 158 660 158 660 C157 660 157 656 156 653 C156 649 155 645 155 645 C155 645 166 645 166 645 C193 645 223 608 218 580 C218 580 219 580 219 580 C219 580 130 80 130 80 C130 80 130 80 130 80 C125 52 82 15 55 15 C55 15 44 15 44 15 C44 15 43 11 42 8 C42 4 41 0 41 0 C41 0 116 0 116 0 C116 0 128 0 128 0 C128 0 140 0 140 0 C140 0 215 0 215 0 C215 0 217 14 217 15 C217 15 206 15 206 15 C180 15 150 50 154 78 C154 78 244 591 244 591 C244 591 540 31 540 31 C540 31 565 -16 565 -16 C565 -16 591 -16 591 -16 C591 -16 604 59 604 59 C604 59 696 580 696 580 C696 580 696 580 696 580 C701 608 744 645 771 645 C771 645 782 645 782 645 C782 645 783 649 783 653 C784 656 785 660 785 660 C785 660 710 660 710 660 C710 660 698 660 698 660 C698 660 686 660 686 660 C686 660 611 660 611 660 C611 659 609 645 609 645 C609 645 609 645 609 645 L609 645 Z " />
<glyph glyph-name="Ograve" unicode="&#xd2;" horiz-adv-x="759" d="M385 14 C271 14 178 208 199 330 C221 452 383 646 496 646 C609 646 703 452 682 330 C660 208 498 14 385 14 L385 14 Z M114 330 C91 201 228 -5 381 -5 C535 -5 744 201 767 330 C790 459 653 665 500 665 C346 665 137 459 114 330 L114 330 Z M525 846 C516 869 501 900 498 900 C490 900 454 877 453 870 C452 866 471 837 485 818 C485 818 577 690 577 690 C577 690 586 697 586 697 C586 697 525 846 525 846 L525 846 Z " />
<glyph glyph-name="Oacute" unicode="&#xd3;" horiz-adv-x="759" d="M480 690 C480 690 615 818 615 818 C635 838 663 867 664 870 C665 877 637 900 629 900 C626 900 601 869 584 846 C584 846 474 697 474 697 C474 697 480 690 480 690 L480 690 Z M385 14 C271 14 178 208 199 330 C221 452 383 646 496 646 C609 646 703 452 682 330 C660 208 498 14 385 14 L385 14 Z M114 330 C91 201 228 -5 381 -5 C535 -5 744 201 767 330 C790 459 653 665 500 665 C346 665 137 459 114 330 L114 330 Z " />
<glyph glyph-name="Ocircumflex" unicode="&#xd4;" horiz-adv-x="759" d="M385 14 C271 14 178 208 199 330 C221 452 383 646 496 646 C609 646 703 452 682 330 C660 208 498 14 385 14 L385 14 Z M114 330 C91 201 228 -5 381 -5 C535 -5 744 201 767 330 C790 459 653 665 500 665 C346 665 137 459 114 330 L114 330 Z M530 835 C530 835 617 693 617 693 C617 693 625 699 625 699 C625 699 561 885 561 885 C559 889 549 905 542 905 C534 905 519 889 516 885 C516 885 386 699 386 699 C386 699 392 693 392 693 C392 693 530 835 530 835 L530 835 Z " />
<glyph glyph-name="Otilde" unicode="&#xd5;" horiz-adv-x="759" d="M374 755 C379 782 410 818 429 818 C471 818 552 756 594 756 C626 756 679 817 687 862 C687 862 675 862 675 862 C671 837 638 802 618 802 C575 802 495 865 452 865 C422 865 371 802 363 755 C363 755 374 755 374 755 L374 755 Z M385 14 C271 14 178 208 199 330 C221 452 383 646 496 646 C609 646 703 452 682 330 C660 208 498 14 385 14 L385 14 Z M114 330 C91 201 228 -5 381 -5 C535 -5 744 201 767 330 C790 459 653 665 500 665 C346 665 137 459 114 330 L114 330 Z " />
<glyph glyph-name="Odieresis" unicode="&#xd6;" horiz-adv-x="759" d="M603 730 C621 730 650 754 654 773 C657 791 637 816 618 816 C600 816 571 791 568 773 C565 754 585 730 603 730 L603 730 Z M419 730 C437 730 466 754 469 773 C472 791 452 816 434 816 C415 816 387 791 383 773 C380 754 400 730 419 730 L419 730 Z M385 14 C271 14 178 208 199 330 C221 452 383 646 496 646 C609 646 703 452 682 330 C660 208 498 14 385 14 L385 14 Z M114 330 C91 201 228 -5 381 -5 C535 -5 744 201 767 330 C790 459 653 665 500 665 C346 665 137 459 114 330 L114 330 Z " />
<glyph glyph-name="Oslash" unicode="&#xd8;" horiz-adv-x="759" d="M65 -17 C65 -17 196 96 196 96 C245 38 311 -5 381 -5 C535 -5 744 201 767 330 C778 392 752 472 705 538 C705 538 837 653 837 653 C837 653 816 677 816 677 C816 677 685 564 685 564 C636 622 570 665 500 665 C346 665 137 459 114 330 C103 268 129 188 176 122 C176 122 44 7 44 7 C44 7 65 -17 65 -17 L65 -17 Z M385 14 C326 14 273 66 238 133 C238 133 657 497 657 497 C680 441 691 380 682 330 C660 208 498 14 385 14 L385 14 Z M224 163 C201 219 190 280 199 330 C221 452 383 646 496 646 C555 646 608 594 643 527 C643 527 224 163 224 163 L224 163 Z " />
<glyph glyph-name="Ugrave" unicode="&#xd9;" horiz-adv-x="683" d="M487 846 C478 869 463 900 460 900 C452 900 416 877 415 870 C414 866 433 837 447 818 C447 818 539 690 539 690 C539 690 548 697 548 697 C548 697 487 846 487 846 L487 846 Z M213 583 C213 583 148 212 148 212 C132 119 226 -5 348 -5 C466 -5 596 102 610 182 C610 182 679 570 679 570 C679 570 679 570 679 570 C685 602 734 645 764 645 C764 645 777 645 777 645 C777 645 778 649 778 653 C779 656 780 660 780 660 C780 660 695 660 695 660 C695 660 683 660 683 660 C683 660 671 660 671 660 C671 660 581 660 581 660 C581 660 581 656 580 653 C580 649 579 645 579 645 C579 645 594 645 594 645 C624 645 656 608 656 578 C656 578 588 189 588 189 C576 118 464 22 365 22 C276 22 210 122 223 197 C223 197 291 580 291 580 C291 580 291 580 291 580 C296 608 339 645 366 645 C366 645 377 645 377 645 C377 645 378 649 378 653 C379 656 380 660 380 660 C380 660 305 660 305 660 C305 660 266 660 266 660 C266 660 227 660 227 660 C227 660 152 660 152 660 C152 660 151 656 151 653 C151 653 149 645 149 645 C149 645 161 645 161 645 C187 645 216 610 213 583 L213 583 Z " />
<glyph glyph-name="Uacute" unicode="&#xda;" horiz-adv-x="683" d="M465 690 C465 690 600 818 600 818 C620 838 648 867 649 870 C650 877 622 900 614 900 C612 900 586 869 569 846 C569 846 458 697 458 697 C458 697 465 690 465 690 L465 690 Z M213 583 C213 583 148 212 148 212 C132 119 226 -5 348 -5 C466 -5 596 102 610 182 C610 182 679 570 679 570 C679 570 679 570 679 570 C685 602 734 645 764 645 C764 645 777 645 777 645 C777 645 778 649 778 653 C779 656 780 660 780 660 C780 660 695 660 695 660 C695 660 683 660 683 660 C683 660 671 660 671 660 C671 660 581 660 581 660 C581 660 581 656 580 653 C580 649 579 645 579 645 C579 645 594 645 594 645 C624 645 656 608 656 578 C656 578 588 189 588 189 C576 118 464 22 365 22 C276 22 210 122 223 197 C223 197 291 580 291 580 C291 580 291 580 291 580 C296 608 339 645 366 645 C366 645 377 645 377 645 C377 645 378 649 378 653 C379 656 380 660 380 660 C380 660 305 660 305 660 C305 660 266 660 266 660 C266 660 227 660 227 660 C227 660 152 660 152 660 C152 660 151 656 151 653 C151 653 149 645 149 645 C149 645 161 645 161 645 C187 645 216 610 213 583 L213 583 Z " />
<glyph glyph-name="Ucircumflex" unicode="&#xdb;" horiz-adv-x="683" d="M492 835 C492 835 579 693 579 693 C579 693 587 699 587 699 C587 699 523 885 523 885 C522 889 512 905 504 905 C496 905 481 889 478 885 C478 885 348 699 348 699 C348 699 354 693 354 693 C354 693 492 835 492 835 L492 835 Z M213 583 C213 583 148 212 148 212 C132 119 226 -5 348 -5 C466 -5 596 102 610 182 C610 182 679 570 679 570 C679 570 679 570 679 570 C685 602 734 645 764 645 C764 645 777 645 777 645 C777 645 778 649 778 653 C779 656 780 660 780 660 C780 660 695 660 695 660 C695 660 683 660 683 660 C683 660 671 660 671 660 C671 660 581 660 581 660 C581 660 581 656 580 653 C580 649 579 645 579 645 C579 645 594 645 594 645 C624 645 656 608 656 578 C656 578 588 189 588 189 C576 118 464 22 365 22 C276 22 210 122 223 197 C223 197 291 580 291 580 C291 580 291 580 291 580 C296 608 339 645 366 645 C366 645 377 645 377 645 C377 645 378 649 378 653 C379 656 380 660 380 660 C380 660 305 660 305 660 C305 660 266 660 266 660 C266 660 227 660 227 660 C227 660 152 660 152 660 C152 660 151 656 151 653 C151 653 149 645 149 645 C149 645 161 645 161 645 C187 645 216 610 213 583 L213 583 Z " />
<glyph glyph-name="Udieresis" unicode="&#xdc;" horiz-adv-x="683" d="M566 730 C584 730 613 754 616 773 C619 791 599 816 581 816 C562 816 534 791 530 773 C527 754 547 730 566 730 L566 730 Z M381 730 C399 730 428 754 431 773 C434 791 414 816 396 816 C378 816 349 791 346 773 C342 754 362 730 381 730 L381 730 Z M213 583 C213 583 148 212 148 212 C132 119 226 -5 348 -5 C466 -5 596 102 610 182 C610 182 679 570 679 570 C679 570 679 570 679 570 C685 602 734 645 764 645 C764 645 777 645 777 645 C777 645 778 649 778 653 C779 656 780 660 780 660 C780 660 695 660 695 660 C695 660 683 660 683 660 C683 660 671 660 671 660 C671 660 581 660 581 660 C581 660 581 656 580 653 C580 649 579 645 579 645 C579 645 594 645 594 645 C624 645 656 608 656 578 C656 578 588 189 588 189 C576 118 464 22 365 22 C276 22 210 122 223 197 C223 197 291 580 291 580 C291 580 291 580 291 580 C296 608 339 645 366 645 C366 645 377 645 377 645 C377 645 378 649 378 653 C379 656 380 660 380 660 C380 660 305 660 305 660 C305 660 266 660 266 660 C266 660 227 660 227 660 C227 660 152 660 152 660 C152 660 151 656 151 653 C151 653 149 645 149 645 C149 645 161 645 161 645 C187 645 216 610 213 583 L213 583 Z " />
<glyph glyph-name="Yacute" unicode="&#xdd;" horiz-adv-x="622" d="M435 690 C435 690 570 818 570 818 C590 838 618 867 619 870 C620 877 592 900 584 900 C582 900 556 869 539 846 C539 846 429 697 429 697 C429 697 435 690 435 690 L435 690 Z M368 80 C368 80 368 80 368 80 C381 157 399 255 407 300 C407 300 406 300 406 300 C406 300 625 584 625 584 C650 611 705 645 728 645 C728 645 738 645 738 645 C738 645 738 649 739 653 C739 656 740 660 740 660 C740 660 684 660 684 660 C684 660 673 660 673 660 C673 660 661 660 661 660 C661 660 551 660 551 660 C551 660 550 656 550 653 C550 653 548 645 548 645 C548 645 564 645 564 645 C600 645 611 599 588 564 C588 564 397 313 397 313 C397 313 299 582 299 582 C291 609 315 645 342 645 C342 645 359 645 359 645 C359 645 361 659 361 660 C361 660 271 660 271 660 C271 660 225 660 225 660 C225 660 178 660 178 660 C178 660 131 660 131 660 C131 660 131 656 130 653 C130 649 129 645 129 645 C129 645 137 645 137 645 C156 645 195 611 207 583 C207 583 324 270 324 270 C315 220 301 143 290 80 C290 80 290 80 290 80 C285 52 242 15 215 15 C215 15 204 15 204 15 C204 15 203 11 202 8 C202 4 201 0 201 0 C201 0 276 0 276 0 C276 0 315 0 315 0 C315 0 354 0 354 0 C354 0 429 0 429 0 C428 0 429 4 430 8 C430 11 431 15 431 15 C431 15 420 15 420 15 C393 15 363 52 368 80 C368 80 368 80 368 80 L368 80 Z " />
<glyph glyph-name="agrave" unicode="&#xe0;" horiz-adv-x="578" d="M491 129 C491 129 491 129 491 129 C513 252 535 376 556 500 C556 500 537 500 537 500 C537 500 483 420 483 420 C463 457 396 505 352 505 C263 505 115 344 94 223 C77 126 157 -5 235 -5 C272 -5 368 56 417 110 C411 71 404 33 397 -5 C397 -5 409 -5 409 -5 C409 -5 456 12 456 12 C456 12 550 39 550 39 C550 39 550 40 550 40 C551 43 552 48 552 48 C552 48 541 50 541 50 C504 58 484 90 491 129 C491 129 491 129 491 129 L491 129 Z M350 686 C341 709 326 740 323 740 C315 740 279 717 278 710 C277 706 295 677 310 658 C310 658 402 530 402 530 C402 530 411 537 411 537 C411 537 350 686 350 686 L350 686 Z M420 124 C386 86 311 38 281 38 C218 38 156 159 172 250 C190 351 289 486 345 486 C391 486 463 433 469 400 C453 308 436 216 420 124 L420 124 Z " />
<glyph glyph-name="aacute" unicode="&#xe1;" horiz-adv-x="491" d="M283 530 C283 530 417 658 417 658 C437 678 465 707 466 710 C467 717 440 740 431 740 C429 740 404 709 386 686 C386 686 276 537 276 537 C276 537 283 530 283 530 L283 530 Z M477 39 C469 32 443 23 424 23 C402 23 391 58 396 85 C396 85 444 357 444 357 C455 420 396 505 341 505 C268 505 148 445 131 401 C131 401 201 401 201 401 C214 437 284 486 322 486 C352 486 381 421 373 373 C373 373 352 254 352 254 C352 254 248 239 248 239 C174 229 62 151 54 103 C46 57 101 -5 151 -5 C188 -5 266 28 319 62 C319 28 339 -10 370 -10 C407 -10 463 13 483 30 C483 30 477 39 477 39 L477 39 Z M349 237 C349 237 320 79 320 79 C280 59 225 42 194 42 C159 42 121 88 127 123 C132 155 200 209 244 218 C244 218 349 237 349 237 L349 237 Z " />
<glyph glyph-name="acircumflex" unicode="&#xe2;" horiz-adv-x="578" d="M491 129 C491 129 491 129 491 129 C513 252 535 376 556 500 C556 500 537 500 537 500 C537 500 483 420 483 420 C463 457 396 505 352 505 C263 505 115 344 94 223 C77 126 157 -5 235 -5 C272 -5 368 56 417 110 C411 71 404 33 397 -5 C397 -5 409 -5 409 -5 C409 -5 456 12 456 12 C456 12 550 39 550 39 C550 39 550 40 550 40 C551 43 552 48 552 48 C552 48 541 50 541 50 C504 58 484 90 491 129 C491 129 491 129 491 129 L491 129 Z M355 675 C355 675 442 533 442 533 C442 533 450 539 450 539 C450 539 386 725 386 725 C384 729 375 745 367 745 C359 745 344 729 341 725 C341 725 211 539 211 539 C211 539 217 533 217 533 C217 533 355 675 355 675 L355 675 Z M420 124 C386 86 311 38 281 38 C218 38 156 159 172 250 C190 351 289 486 345 486 C391 486 463 433 469 400 C453 308 436 216 420 124 L420 124 Z " />
<glyph glyph-name="atilde" unicode="&#xe3;" horiz-adv-x="578" d="M199 595 C204 622 235 658 254 658 C296 658 377 596 419 596 C451 596 504 657 512 702 C512 702 500 702 500 702 C496 677 463 642 443 642 C400 642 320 705 277 705 C247 705 196 642 188 595 C188 595 199 595 199 595 L199 595 Z M491 129 C491 129 491 129 491 129 C513 252 535 376 556 500 C556 500 537 500 537 500 C537 500 483 420 483 420 C463 457 396 505 352 505 C263 505 115 344 94 223 C77 126 157 -5 235 -5 C272 -5 368 56 417 110 C411 71 404 33 397 -5 C397 -5 409 -5 409 -5 C409 -5 456 12 456 12 C456 12 550 39 550 39 C550 39 550 40 550 40 C551 43 552 48 552 48 C552 48 541 50 541 50 C504 58 484 90 491 129 C491 129 491 129 491 129 L491 129 Z M420 124 C386 86 311 38 281 38 C218 38 156 159 172 250 C190 351 289 486 345 486 C391 486 463 433 469 400 C453 308 436 216 420 124 L420 124 Z " />
<glyph glyph-name="adieresis" unicode="&#xe4;" horiz-adv-x="578" d="M428 570 C447 570 476 594 479 613 C482 631 462 656 443 656 C425 656 396 631 393 613 C390 594 410 570 428 570 L428 570 Z M244 570 C262 570 291 594 294 613 C297 631 277 656 259 656 C240 656 212 631 208 613 C205 594 225 570 244 570 L244 570 Z M491 129 C491 129 491 129 491 129 C513 252 535 376 556 500 C556 500 537 500 537 500 C537 500 483 420 483 420 C463 457 396 505 352 505 C263 505 115 344 94 223 C77 126 157 -5 235 -5 C272 -5 368 56 417 110 C411 71 404 33 397 -5 C397 -5 409 -5 409 -5 C409 -5 456 12 456 12 C456 12 550 39 550 39 C550 39 550 40 550 40 C551 43 552 48 552 48 C552 48 541 50 541 50 C504 58 484 90 491 129 C491 129 491 129 491 129 L491 129 Z M420 124 C386 86 311 38 281 38 C218 38 156 159 172 250 C190 351 289 486 345 486 C391 486 463 433 469 400 C453 308 436 216 420 124 L420 124 Z " />
<glyph glyph-name="aring" unicode="&#xe5;" horiz-adv-x="578" d="M333 551 C304 551 266 598 271 628 C277 660 327 704 360 704 C392 704 427 660 421 628 C416 598 362 551 333 551 L333 551 Z M252 628 C245 592 293 535 330 535 C366 535 434 592 441 628 C448 667 403 720 362 720 C322 720 259 667 252 628 L252 628 Z M491 129 C491 129 491 129 491 129 C513 252 535 376 556 500 C556 500 537 500 537 500 C537 500 483 420 483 420 C463 457 396 505 352 505 C263 505 115 344 94 223 C77 126 157 -5 235 -5 C272 -5 368 56 417 110 C411 71 404 33 397 -5 C397 -5 409 -5 409 -5 C409 -5 456 12 456 12 C456 12 550 39 550 39 C550 39 550 40 550 40 C551 43 552 48 552 48 C552 48 541 50 541 50 C504 58 484 90 491 129 C491 129 491 129 491 129 L491 129 Z M420 124 C386 86 311 38 281 38 C218 38 156 159 172 250 C190 351 289 486 345 486 C391 486 463 433 469 400 C453 308 436 216 420 124 L420 124 Z " />
<glyph glyph-name="ccedilla" unicode="&#xe7;" horiz-adv-x="489" d="M448 53 C448 53 442 60 442 60 C429 51 353 38 309 38 C233 38 153 165 170 260 C187 357 305 486 377 486 C409 486 448 439 445 404 C444 389 460 369 474 369 C487 369 508 387 510 400 C514 445 444 505 388 505 C281 505 112 349 91 233 C73 131 160 -5 243 -5 C297 -5 414 28 448 53 L448 53 Z " />
<glyph glyph-name="egrave" unicode="&#xe8;" horiz-adv-x="496" d="M196 334 C235 412 306 486 352 486 C401 486 456 424 448 378 C445 364 423 345 409 344 C409 344 408 344 408 344 C408 344 409 344 409 344 C409 344 441 345 441 345 C441 345 196 334 196 334 L196 334 Z M454 53 C454 53 449 60 449 60 C436 51 358 38 313 38 C235 38 153 165 170 260 C173 279 180 300 189 320 C189 320 503 320 503 320 C516 399 435 505 359 505 C265 505 112 349 91 233 C73 131 162 -5 247 -5 C302 -5 420 28 454 53 L454 53 Z M385 686 C376 709 361 740 358 740 C349 740 314 717 313 710 C312 706 330 677 344 658 C344 658 437 530 437 530 C437 530 446 537 446 537 C446 537 385 686 385 686 L385 686 Z " />
<glyph glyph-name="eacute" unicode="&#xe9;" horiz-adv-x="496" d="M196 334 C235 412 306 486 352 486 C401 486 456 424 448 378 C445 364 423 345 409 344 C409 344 408 344 408 344 C408 344 409 344 409 344 C409 344 441 345 441 345 C441 345 196 334 196 334 L196 334 Z M333 530 C333 530 467 658 467 658 C487 678 515 707 516 710 C517 717 490 740 481 740 C479 740 454 709 436 686 C436 686 326 537 326 537 C326 537 333 530 333 530 L333 530 Z M454 53 C454 53 449 60 449 60 C436 51 358 38 313 38 C235 38 153 165 170 260 C173 279 180 300 189 320 C189 320 503 320 503 320 C516 399 435 505 359 505 C265 505 112 349 91 233 C73 131 162 -5 247 -5 C302 -5 420 28 454 53 L454 53 Z " />
<glyph glyph-name="ecircumflex" unicode="&#xea;" horiz-adv-x="496" d="M196 334 C235 412 306 486 352 486 C401 486 456 424 448 378 C445 364 423 345 409 344 C409 344 408 344 408 344 C408 344 409 344 409 344 C409 344 441 345 441 345 C441 345 196 334 196 334 L196 334 Z M454 53 C454 53 449 60 449 60 C436 51 358 38 313 38 C235 38 153 165 170 260 C173 279 180 300 189 320 C189 320 503 320 503 320 C516 399 435 505 359 505 C265 505 112 349 91 233 C73 131 162 -5 247 -5 C302 -5 420 28 454 53 L454 53 Z M389 675 C389 675 476 533 476 533 C476 533 485 539 485 539 C485 539 421 725 421 725 C419 729 409 745 402 745 C394 745 379 729 376 725 C376 725 246 539 246 539 C246 539 252 533 252 533 C252 533 389 675 389 675 L389 675 Z " />
<glyph glyph-name="edieresis" unicode="&#xeb;" horiz-adv-x="496" d="M196 334 C235 412 306 486 352 486 C401 486 456 424 448 378 C445 364 423 345 409 344 C409 344 408 344 408 344 C408 344 409 344 409 344 C409 344 441 345 441 345 C441 345 196 334 196 334 L196 334 Z M463 570 C482 570 511 594 514 613 C517 631 497 656 478 656 C460 656 431 631 428 613 C425 594 445 570 463 570 L463 570 Z M279 570 C297 570 326 594 329 613 C332 631 312 656 294 656 C275 656 246 631 243 613 C240 594 260 570 279 570 L279 570 Z M454 53 C454 53 449 60 449 60 C436 51 358 38 313 38 C235 38 153 165 170 260 C173 279 180 300 189 320 C189 320 503 320 503 320 C516 399 435 505 359 505 C265 505 112 349 91 233 C73 131 162 -5 247 -5 C302 -5 420 28 454 53 L454 53 Z " />
<glyph glyph-name="igrave" unicode="&#xec;" horiz-adv-x="310" d="M190 0 C190 0 264 420 264 420 C264 420 279 505 279 505 C279 505 275 505 275 505 C275 505 139 466 139 466 C139 466 139 463 138 461 C138 458 137 456 137 456 C137 456 180 443 180 443 C187 441 195 423 190 400 C190 400 191 400 191 400 C191 400 120 0 120 0 C121 9 88 15 63 15 C63 15 48 15 48 15 C48 15 47 11 46 8 C46 4 45 0 45 0 C45 0 120 0 120 0 C120 0 190 0 190 0 C190 0 265 0 265 0 C265 0 266 4 266 8 C267 11 268 15 268 15 C268 15 253 15 253 15 C227 15 192 9 190 0 L190 0 Z M270 686 C261 709 246 740 243 740 C234 740 198 717 197 710 C197 706 215 677 229 658 C229 658 321 530 321 530 C321 530 330 537 330 537 C330 537 270 686 270 686 L270 686 Z " />
<glyph glyph-name="iacute" unicode="&#xed;" horiz-adv-x="310" d="M190 0 C190 0 264 420 264 420 C264 420 279 505 279 505 C279 505 275 505 275 505 C275 505 139 466 139 466 C139 466 139 463 138 461 C138 458 137 456 137 456 C137 456 180 443 180 443 C187 441 195 423 190 400 C190 400 191 400 191 400 C191 400 120 0 120 0 C121 9 88 15 63 15 C63 15 48 15 48 15 C48 15 47 11 46 8 C46 4 45 0 45 0 C45 0 120 0 120 0 C120 0 190 0 190 0 C190 0 265 0 265 0 C265 0 266 4 266 8 C267 11 268 15 268 15 C268 15 253 15 253 15 C227 15 192 9 190 0 L190 0 Z M172 530 C172 530 306 658 306 658 C327 678 355 707 355 710 C356 717 329 740 320 740 C318 740 293 709 275 686 C275 686 165 537 165 537 C165 537 172 530 172 530 L172 530 Z " />
<glyph glyph-name="icircumflex" unicode="&#xee;" horiz-adv-x="310" d="M190 0 C190 0 264 420 264 420 C264 420 279 505 279 505 C279 505 275 505 275 505 C275 505 139 466 139 466 C139 466 139 463 138 461 C138 458 137 456 137 456 C137 456 180 443 180 443 C187 441 195 423 190 400 C190 400 191 400 191 400 C191 400 120 0 120 0 C121 9 88 15 63 15 C63 15 48 15 48 15 C48 15 47 11 46 8 C46 4 45 0 45 0 C45 0 120 0 120 0 C120 0 190 0 190 0 C190 0 265 0 265 0 C265 0 266 4 266 8 C267 11 268 15 268 15 C268 15 253 15 253 15 C227 15 192 9 190 0 L190 0 Z M274 675 C274 675 361 533 361 533 C361 533 369 539 369 539 C369 539 305 725 305 725 C304 729 294 745 286 745 C279 745 264 729 261 725 C261 725 131 539 131 539 C131 539 137 533 137 533 C137 533 274 675 274 675 L274 675 Z " />
<glyph glyph-name="idieresis" unicode="&#xef;" horiz-adv-x="310" d="M190 0 C190 0 264 420 264 420 C264 420 279 505 279 505 C279 505 275 505 275 505 C275 505 139 466 139 466 C139 466 139 463 138 461 C138 458 137 456 137 456 C137 456 180 443 180 443 C187 441 195 423 190 400 C190 400 191 400 191 400 C191 400 120 0 120 0 C121 9 88 15 63 15 C63 15 48 15 48 15 C48 15 47 11 46 8 C46 4 45 0 45 0 C45 0 120 0 120 0 C120 0 190 0 190 0 C190 0 265 0 265 0 C265 0 266 4 266 8 C267 11 268 15 268 15 C268 15 253 15 253 15 C227 15 192 9 190 0 L190 0 Z M348 570 C366 570 395 594 398 613 C401 631 381 656 363 656 C345 656 316 631 313 613 C310 594 330 570 348 570 L348 570 Z M163 570 C181 570 210 594 213 613 C217 631 196 656 178 656 C160 656 131 631 128 613 C125 594 145 570 163 570 L163 570 Z " />
<glyph glyph-name="ntilde" unicode="&#xf1;" horiz-adv-x="625" d="M279 595 C284 622 315 658 333 658 C375 658 456 596 499 596 C531 596 584 657 591 702 C591 702 580 702 580 702 C575 677 542 642 522 642 C479 642 399 705 357 705 C327 705 275 642 267 595 C267 595 279 595 279 595 L279 595 Z M204 80 C204 80 204 80 204 80 C204 80 258 390 258 390 C258 390 258 390 258 390 C258 390 265 430 265 430 C300 443 379 458 415 458 C469 458 508 384 498 329 C498 329 454 80 454 80 C454 80 454 80 454 80 C449 52 406 15 379 15 C379 15 368 15 368 15 C368 15 367 11 366 8 C366 4 365 0 365 0 C365 0 440 0 440 0 C440 0 475 0 475 0 C475 0 510 0 510 0 C510 0 585 0 585 0 C585 0 586 4 586 7 C586 7 588 15 588 15 C588 15 577 15 577 15 C550 15 522 49 524 76 C524 76 570 337 570 337 C582 409 540 505 478 505 C447 505 332 468 267 438 C267 438 278 500 278 500 C278 500 264 500 264 500 C264 500 126 461 126 461 C126 461 126 460 126 460 C125 457 125 452 124 452 C124 452 135 450 135 450 C169 443 189 415 186 380 C186 380 134 78 134 78 C127 50 85 15 59 15 C59 15 47 15 47 15 C47 15 47 11 46 8 C46 4 45 0 45 0 C45 0 120 0 120 0 C120 0 155 0 155 0 C155 0 190 0 190 0 C190 0 265 0 265 0 C264 0 265 4 266 8 C266 11 267 15 267 15 C267 15 256 15 256 15 C229 15 199 52 204 80 C204 80 204 80 204 80 L204 80 Z " />
<glyph glyph-name="ograve" unicode="&#xf2;" horiz-adv-x="594" d="M299 11 C227 11 154 148 172 250 C190 352 311 489 384 489 C456 489 529 352 511 250 C493 148 372 11 299 11 L299 11 Z M94 250 C75 141 191 -5 296 -5 C402 -5 569 141 589 250 C608 359 492 505 386 505 C281 505 113 359 94 250 L94 250 Z M412 686 C403 709 388 740 385 740 C376 740 341 717 340 710 C339 706 357 677 371 658 C371 658 464 530 464 530 C464 530 473 537 473 537 C473 537 412 686 412 686 L412 686 Z " />
<glyph glyph-name="oacute" unicode="&#xf3;" horiz-adv-x="594" d="M359 530 C359 530 494 658 494 658 C514 678 542 707 543 710 C544 717 517 740 508 740 C505 740 480 709 463 686 C463 686 353 537 353 537 C353 537 359 530 359 530 L359 530 Z M299 11 C227 11 154 148 172 250 C190 352 311 489 384 489 C456 489 529 352 511 250 C493 148 372 11 299 11 L299 11 Z M94 250 C75 141 191 -5 296 -5 C402 -5 569 141 589 250 C608 359 492 505 386 505 C281 505 113 359 94 250 L94 250 Z " />
<glyph glyph-name="ocircumflex" unicode="&#xf4;" horiz-adv-x="594" d="M299 11 C227 11 154 148 172 250 C190 352 311 489 384 489 C456 489 529 352 511 250 C493 148 372 11 299 11 L299 11 Z M94 250 C75 141 191 -5 296 -5 C402 -5 569 141 589 250 C608 359 492 505 386 505 C281 505 113 359 94 250 L94 250 Z M416 675 C416 675 503 533 503 533 C503 533 511 539 511 539 C511 539 447 725 447 725 C446 729 436 745 429 745 C421 745 406 729 403 725 C403 725 273 539 273 539 C273 539 279 533 279 533 C279 533 416 675 416 675 L416 675 Z " />
<glyph glyph-name="otilde" unicode="&#xf5;" horiz-adv-x="594" d="M261 595 C266 622 297 658 316 658 C358 658 439 596 481 596 C513 596 566 657 574 702 C574 702 562 702 562 702 C557 677 524 642 505 642 C462 642 381 705 339 705 C309 705 257 642 249 595 C249 595 261 595 261 595 L261 595 Z M299 11 C227 11 154 148 172 250 C190 352 311 489 384 489 C456 489 529 352 511 250 C493 148 372 11 299 11 L299 11 Z M94 250 C75 141 191 -5 296 -5 C402 -5 569 141 589 250 C608 359 492 505 386 505 C281 505 113 359 94 250 L94 250 Z " />
<glyph glyph-name="odieresis" unicode="&#xf6;" horiz-adv-x="594" d="M490 570 C508 570 537 594 540 613 C544 631 523 656 505 656 C487 656 458 631 455 613 C452 594 472 570 490 570 L490 570 Z M305 570 C324 570 353 594 356 613 C359 631 339 656 320 656 C302 656 273 631 270 613 C267 594 287 570 305 570 L305 570 Z M299 11 C227 11 154 148 172 250 C190 352 311 489 384 489 C456 489 529 352 511 250 C493 148 372 11 299 11 L299 11 Z M94 250 C75 141 191 -5 296 -5 C402 -5 569 141 589 250 C608 359 492 505 386 505 C281 505 113 359 94 250 L94 250 Z " />
<glyph glyph-name="oslash" unicode="&#xf8;" horiz-adv-x="594" d="M56 -13 C56 -13 155 74 155 74 C194 28 246 -5 296 -5 C402 -5 569 141 589 250 C598 302 577 361 541 410 C541 410 640 497 640 497 C640 497 627 513 627 513 C627 513 528 426 528 426 C488 472 436 505 386 505 C281 505 113 359 94 250 C85 199 106 139 142 90 C142 90 42 3 42 3 C42 3 56 -13 56 -13 L56 -13 Z M299 11 C259 11 219 53 194 108 C194 108 497 372 497 372 C512 333 518 289 511 250 C493 148 372 11 299 11 C299 11 299 11 299 11 L299 11 Z M186 128 C171 168 165 211 172 250 C190 352 311 489 384 489 C424 489 464 447 489 392 C489 392 186 128 186 128 L186 128 Z " />
<glyph glyph-name="ugrave" unicode="&#xf9;" horiz-adv-x="590" d="M503 129 C503 129 503 129 503 129 C503 129 568 500 568 500 C568 500 533 500 533 500 C533 500 498 500 498 500 C498 500 423 500 423 500 C423 500 422 496 422 493 C421 489 421 485 421 485 C421 485 432 485 432 485 C458 485 487 450 484 423 C484 423 421 66 421 66 C401 54 343 41 298 41 C236 41 179 111 188 162 C188 162 248 500 248 500 C248 500 213 500 213 500 C213 500 178 500 178 500 C178 500 103 500 103 500 C103 500 102 496 101 493 C101 489 100 485 100 485 C100 485 111 485 111 485 C138 485 167 451 164 423 C164 423 117 155 117 155 C105 87 166 -5 235 -5 C289 -5 379 28 420 56 C420 56 413 18 413 18 C413 18 413 18 413 18 C413 18 410 0 410 0 C410 0 424 0 424 0 C424 0 562 39 562 39 C562 39 562 40 562 40 C563 43 564 48 564 48 C564 48 553 50 553 50 C516 58 496 90 503 129 C503 129 503 129 503 129 L503 129 Z M399 686 C390 709 375 740 372 740 C364 740 328 717 327 710 C326 706 345 677 359 658 C359 658 451 530 451 530 C451 530 460 537 460 537 C460 537 399 686 399 686 L399 686 Z " />
<glyph glyph-name="uacute" unicode="&#xfa;" horiz-adv-x="590" d="M347 530 C347 530 481 658 481 658 C502 678 530 707 530 710 C531 717 504 740 496 740 C493 740 468 709 451 686 C451 686 340 537 340 537 C340 537 347 530 347 530 L347 530 Z M503 129 C503 129 503 129 503 129 C503 129 568 500 568 500 C568 500 533 500 533 500 C533 500 498 500 498 500 C498 500 423 500 423 500 C423 500 422 496 422 493 C421 489 421 485 421 485 C421 485 432 485 432 485 C458 485 487 450 484 423 C484 423 421 66 421 66 C401 54 343 41 298 41 C236 41 179 111 188 162 C188 162 248 500 248 500 C248 500 213 500 213 500 C213 500 178 500 178 500 C178 500 103 500 103 500 C103 500 102 496 101 493 C101 489 100 485 100 485 C100 485 111 485 111 485 C138 485 167 451 164 423 C164 423 117 155 117 155 C105 87 166 -5 235 -5 C289 -5 379 28 420 56 C420 56 413 18 413 18 C413 18 413 18 413 18 C413 18 410 0 410 0 C410 0 424 0 424 0 C424 0 562 39 562 39 C562 39 562 40 562 40 C563 43 564 48 564 48 C564 48 553 50 553 50 C516 58 496 90 503 129 C503 129 503 129 503 129 L503 129 Z " />
<glyph glyph-name="ucircumflex" unicode="&#xfb;" horiz-adv-x="590" d="M503 129 C503 129 503 129 503 129 C503 129 568 500 568 500 C568 500 533 500 533 500 C533 500 498 500 498 500 C498 500 423 500 423 500 C423 500 422 496 422 493 C421 489 421 485 421 485 C421 485 432 485 432 485 C458 485 487 450 484 423 C484 423 421 66 421 66 C401 54 343 41 298 41 C236 41 179 111 188 162 C188 162 248 500 248 500 C248 500 213 500 213 500 C213 500 178 500 178 500 C178 500 103 500 103 500 C103 500 102 496 101 493 C101 489 100 485 100 485 C100 485 111 485 111 485 C138 485 167 451 164 423 C164 423 117 155 117 155 C105 87 166 -5 235 -5 C289 -5 379 28 420 56 C420 56 413 18 413 18 C413 18 413 18 413 18 C413 18 410 0 410 0 C410 0 424 0 424 0 C424 0 562 39 562 39 C562 39 562 40 562 40 C563 43 564 48 564 48 C564 48 553 50 553 50 C516 58 496 90 503 129 C503 129 503 129 503 129 L503 129 Z M404 675 C404 675 491 533 491 533 C491 533 499 539 499 539 C499 539 435 725 435 725 C434 729 424 745 416 745 C409 745 394 729 391 725 C391 725 261 539 261 539 C261 539 267 533 267 533 C267 533 404 675 404 675 L404 675 Z " />
<glyph glyph-name="udieresis" unicode="&#xfc;" horiz-adv-x="590" d="M478 570 C496 570 525 594 528 613 C531 631 511 656 493 656 C474 656 446 631 442 613 C439 594 459 570 478 570 L478 570 Z M293 570 C311 570 340 594 343 613 C346 631 326 656 308 656 C290 656 261 631 258 613 C255 594 275 570 293 570 L293 570 Z M503 129 C503 129 503 129 503 129 C503 129 568 500 568 500 C568 500 533 500 533 500 C533 500 498 500 498 500 C498 500 423 500 423 500 C423 500 422 496 422 493 C421 489 421 485 421 485 C421 485 432 485 432 485 C458 485 487 450 484 423 C484 423 421 66 421 66 C401 54 343 41 298 41 C236 41 179 111 188 162 C188 162 248 500 248 500 C248 500 213 500 213 500 C213 500 178 500 178 500 C178 500 103 500 103 500 C103 500 102 496 101 493 C101 489 100 485 100 485 C100 485 111 485 111 485 C138 485 167 451 164 423 C164 423 117 155 117 155 C105 87 166 -5 235 -5 C289 -5 379 28 420 56 C420 56 413 18 413 18 C413 18 413 18 413 18 C413 18 410 0 410 0 C410 0 424 0 424 0 C424 0 562 39 562 39 C562 39 562 40 562 40 C563 43 564 48 564 48 C564 48 553 50 553 50 C516 58 496 90 503 129 C503 129 503 129 503 129 L503 129 Z " />
<glyph glyph-name="ydieresis" unicode="&#xff;" horiz-adv-x="493" d="M466 570 C485 570 514 594 517 613 C520 631 500 656 481 656 C463 656 434 631 431 613 C428 594 448 570 466 570 L466 570 Z M282 570 C300 570 329 594 332 613 C335 631 315 656 297 656 C278 656 249 631 246 613 C243 594 263 570 282 570 L282 570 Z M502 420 C502 420 502 420 502 420 C502 420 316 79 316 79 C316 79 250 420 250 420 C250 420 250 420 250 420 C244 448 271 485 296 485 C296 485 307 485 307 485 C307 485 309 499 309 500 C309 500 234 500 234 500 C234 500 194 500 194 500 C194 500 154 500 154 500 C154 500 85 500 85 500 C85 500 84 496 84 493 C84 493 82 485 82 485 C82 485 94 485 94 485 C120 485 161 452 171 425 C171 425 265 0 265 0 C265 0 226 -66 226 -66 C191 -126 135 -184 111 -184 C94 -184 60 -160 42 -160 C27 -160 4 -177 2 -189 C-1 -207 32 -230 60 -230 C107 -230 197 -153 243 -72 C243 -72 278 -10 278 -10 C278 -10 526 425 526 425 C545 452 599 485 624 485 C624 485 636 485 636 485 C635 485 636 489 637 493 C637 496 638 500 638 500 C638 500 569 500 569 500 C569 500 557 500 557 500 C557 500 546 500 546 500 C546 500 471 500 471 500 C471 500 470 496 469 493 C469 489 468 485 468 485 C468 485 479 485 479 485 C504 485 517 448 502 420 L502 420 Z " />
<glyph glyph-name="Amacron" unicode="&#x100;" horiz-adv-x="654" d="M301 767 C301 767 601 767 601 767 C601 767 608 806 608 806 C608 806 308 806 308 806 C308 806 301 767 301 767 L301 767 Z M573 80 C573 80 573 80 573 80 C573 80 444 675 444 675 C444 675 425 675 425 675 C425 675 112 79 112 79 C96 51 42 15 15 15 C15 15 3 15 3 15 C4 15 3 11 2 8 C2 4 1 0 1 0 C1 0 71 0 71 0 C71 0 83 0 83 0 C83 0 96 0 96 0 C96 0 206 0 206 0 C206 0 208 8 208 8 C208 11 209 15 209 15 C209 15 184 15 184 15 C150 15 127 61 145 95 C145 95 145 95 145 95 C145 95 217 235 217 235 C217 235 458 235 458 235 C458 235 489 79 489 79 C493 51 465 15 437 15 C437 15 403 15 403 15 C403 15 403 11 402 8 C402 4 401 0 401 0 C401 0 505 0 505 0 C505 0 547 0 547 0 C547 0 590 0 590 0 C590 0 650 0 650 0 C650 0 651 4 651 7 C652 11 653 15 652 15 C652 15 643 15 643 15 C619 15 579 52 573 80 C573 80 573 80 573 80 L573 80 Z M454 255 C454 255 227 255 227 255 C227 255 391 571 391 571 C391 571 454 255 454 255 L454 255 Z " />
<glyph glyph-name="amacron" unicode="&#x101;" horiz-adv-x="578" d="M193 607 C193 607 493 607 493 607 C493 607 499 646 499 646 C499 646 199 646 199 646 C199 646 193 607 193 607 L193 607 Z M491 129 C491 129 491 129 491 129 C513 252 535 376 556 500 C556 500 537 500 537 500 C537 500 483 420 483 420 C463 457 396 505 352 505 C263 505 115 344 94 223 C77 126 157 -5 235 -5 C272 -5 368 56 417 110 C411 71 404 33 397 -5 C397 -5 409 -5 409 -5 C409 -5 456 12 456 12 C456 12 550 39 550 39 C550 39 550 40 550 40 C551 43 552 48 552 48 C552 48 541 50 541 50 C504 58 484 90 491 129 C491 129 491 129 491 129 L491 129 Z M420 124 C386 86 311 38 281 38 C218 38 156 159 172 250 C190 351 289 486 345 486 C391 486 463 433 469 400 C453 308 436 216 420 124 L420 124 Z " />
<glyph glyph-name="Abreve" unicode="&#x102;" horiz-adv-x="654" d="M349 871 C352 823 410 758 449 758 C489 758 569 823 590 871 C590 871 578 874 578 874 C566 845 497 805 458 805 C418 805 363 845 361 874 C361 874 349 871 349 871 L349 871 Z M573 80 C573 80 573 80 573 80 C573 80 444 675 444 675 C444 675 425 675 425 675 C425 675 112 79 112 79 C96 51 42 15 15 15 C15 15 3 15 3 15 C4 15 3 11 2 8 C2 4 1 0 1 0 C1 0 71 0 71 0 C71 0 83 0 83 0 C83 0 96 0 96 0 C96 0 206 0 206 0 C206 0 208 8 208 8 C208 11 209 15 209 15 C209 15 184 15 184 15 C150 15 127 61 145 95 C145 95 145 95 145 95 C145 95 217 235 217 235 C217 235 458 235 458 235 C458 235 489 79 489 79 C493 51 465 15 437 15 C437 15 403 15 403 15 C403 15 403 11 402 8 C402 4 401 0 401 0 C401 0 505 0 505 0 C505 0 547 0 547 0 C547 0 590 0 590 0 C590 0 650 0 650 0 C650 0 651 4 651 7 C652 11 653 15 652 15 C652 15 643 15 643 15 C619 15 579 52 573 80 C573 80 573 80 573 80 L573 80 Z M454 255 C454 255 227 255 227 255 C227 255 391 571 391 571 C391 571 454 255 454 255 L454 255 Z " />
<glyph glyph-name="abreve" unicode="&#x103;" horiz-adv-x="578" d="M235 681 C239 633 296 568 336 568 C375 568 456 633 476 681 C476 681 465 684 465 684 C452 655 383 615 344 615 C305 615 250 655 248 684 C248 684 235 681 235 681 L235 681 Z M491 129 C491 129 491 129 491 129 C513 252 535 376 556 500 C556 500 537 500 537 500 C537 500 483 420 483 420 C463 457 396 505 352 505 C263 505 115 344 94 223 C77 126 157 -5 235 -5 C272 -5 368 56 417 110 C411 71 404 33 397 -5 C397 -5 409 -5 409 -5 C409 -5 456 12 456 12 C456 12 550 39 550 39 C550 39 550 40 550 40 C551 43 552 48 552 48 C552 48 541 50 541 50 C504 58 484 90 491 129 C491 129 491 129 491 129 L491 129 Z M420 124 C386 86 311 38 281 38 C218 38 156 159 172 250 C190 351 289 486 345 486 C391 486 463 433 469 400 C453 308 436 216 420 124 L420 124 Z " />
<glyph glyph-name="Aogonek" unicode="&#x104;" horiz-adv-x="654" d="M573 80 C573 80 573 80 573 80 C573 80 444 675 444 675 C444 675 425 675 425 675 C425 675 112 79 112 79 C96 51 42 15 15 15 C15 15 3 15 3 15 C4 15 3 11 2 8 C2 4 1 0 1 0 C1 0 71 0 71 0 C71 0 83 0 83 0 C83 0 96 0 96 0 C96 0 206 0 206 0 C206 0 208 8 208 8 C208 11 209 15 209 15 C209 15 184 15 184 15 C150 15 127 61 145 95 C145 95 145 95 145 95 C145 95 217 235 217 235 C217 235 458 235 458 235 C458 235 489 79 489 79 C493 51 465 15 437 15 C437 15 403 15 403 15 C403 15 403 11 402 8 C402 4 401 0 401 0 C401 0 479 0 479 0 C426 -35 332 -115 325 -156 C320 -189 377 -234 426 -234 C449 -234 499 -215 514 -201 C514 -201 510 -196 510 -196 C501 -203 464 -214 444 -214 C408 -214 365 -176 370 -148 C378 -102 480 -9 505 0 C505 0 547 0 547 0 C547 0 590 0 590 0 C590 0 650 0 650 0 C650 0 651 4 651 7 C652 11 653 15 652 15 C652 15 643 15 643 15 C619 15 579 52 573 80 C573 80 573 80 573 80 L573 80 Z M454 255 C454 255 227 255 227 255 C227 255 391 571 391 571 C391 571 454 255 454 255 L454 255 Z " />
<glyph glyph-name="aogonek" unicode="&#x105;" horiz-adv-x="491" d="M459 30 C448 26 435 23 424 23 C402 23 391 58 396 85 C396 85 444 357 444 357 C455 420 396 505 341 505 C268 505 148 445 131 401 C131 401 201 401 201 401 C214 437 284 486 322 486 C352 486 381 421 373 373 C373 373 352 254 352 254 C352 254 248 239 248 239 C174 229 62 151 54 103 C46 57 101 -5 151 -5 C188 -5 266 28 319 62 C319 28 339 -10 370 -10 C384 -10 400 -7 416 -2 C366 -43 308 -102 302 -135 C294 -177 349 -234 398 -234 C422 -234 472 -215 486 -201 C486 -201 482 -196 482 -196 C474 -203 437 -214 417 -214 C380 -214 339 -165 346 -128 C353 -87 423 -14 462 16 C471 21 478 26 483 30 C483 30 486 45 486 45 C480 43 470 37 459 30 C459 30 459 30 459 30 L459 30 Z M349 237 C349 237 320 79 320 79 C280 59 225 42 194 42 C159 42 121 88 127 123 C132 155 200 209 244 218 C244 218 349 237 349 237 L349 237 Z " />
<glyph glyph-name="Cacute" unicode="&#x106;" horiz-adv-x="713" d="M467 690 C467 690 602 818 602 818 C622 838 650 867 651 870 C652 877 625 900 616 900 C614 900 588 869 571 846 C571 846 461 697 461 697 C461 697 467 690 467 690 L467 690 Z M735 462 C735 462 760 604 760 604 C719 630 576 665 509 665 C366 665 139 473 114 330 C89 187 248 -5 391 -5 C458 -5 613 30 663 56 C663 56 688 198 688 198 C688 198 675 198 675 198 C671 190 660 169 656 162 C627 107 496 23 427 16 C427 16 427 16 427 16 C415 15 404 14 395 14 C287 14 175 195 199 330 C223 465 399 646 506 646 C525 646 549 643 576 638 C576 638 576 638 576 638 C626 630 706 550 715 498 C717 491 720 470 722 462 C722 462 735 462 735 462 L735 462 Z " />
<glyph glyph-name="cacute" unicode="&#x107;" horiz-adv-x="489" d="M315 530 C315 530 450 658 450 658 C470 678 498 707 499 710 C500 717 472 740 464 740 C462 740 436 709 419 686 C419 686 309 537 309 537 C309 537 315 530 315 530 L315 530 Z M448 53 C448 53 442 60 442 60 C429 51 353 38 309 38 C233 38 153 165 170 260 C187 357 305 486 377 486 C409 486 448 439 445 404 C444 389 460 369 474 369 C487 369 508 387 510 400 C514 445 444 505 388 505 C281 505 112 349 91 233 C73 131 160 -5 243 -5 C297 -5 414 28 448 53 L448 53 Z " />
<glyph glyph-name="Ccircumflex" unicode="&#x108;" horiz-adv-x="713" d="M735 462 C735 462 760 604 760 604 C719 630 576 665 509 665 C366 665 139 473 114 330 C89 187 248 -5 391 -5 C458 -5 613 30 663 56 C663 56 688 198 688 198 C688 198 675 198 675 198 C671 190 660 169 656 162 C627 107 496 23 427 16 C427 16 427 16 427 16 C415 15 404 14 395 14 C287 14 175 195 199 330 C223 465 399 646 506 646 C525 646 549 643 576 638 C576 638 576 638 576 638 C626 630 706 550 715 498 C717 491 720 470 722 462 C722 462 735 462 735 462 L735 462 Z M540 835 C540 835 627 693 627 693 C627 693 635 699 635 699 C635 699 571 885 571 885 C569 889 559 905 552 905 C544 905 529 889 526 885 C526 885 396 699 396 699 C396 699 402 693 402 693 C402 693 540 835 540 835 L540 835 Z " />
<glyph glyph-name="Cdotaccent" unicode="&#x10a;" horiz-adv-x="713" d="M521 730 C539 730 568 754 571 773 C575 791 554 816 536 816 C518 816 489 791 486 773 C482 754 502 730 521 730 L521 730 Z M735 462 C735 462 760 604 760 604 C719 630 576 665 509 665 C366 665 139 473 114 330 C89 187 248 -5 391 -5 C458 -5 613 30 663 56 C663 56 688 198 688 198 C688 198 675 198 675 198 C671 190 660 169 656 162 C627 107 496 23 427 16 C427 16 427 16 427 16 C415 15 404 14 395 14 C287 14 175 195 199 330 C223 465 399 646 506 646 C525 646 549 643 576 638 C576 638 576 638 576 638 C626 630 706 550 715 498 C717 491 720 470 722 462 C722 462 735 462 735 462 L735 462 Z " />
<glyph glyph-name="cdotaccent" unicode="&#x10b;" horiz-adv-x="489" d="M399 570 C418 570 447 594 450 613 C453 631 433 656 414 656 C396 656 367 631 364 613 C361 594 381 570 399 570 L399 570 Z M448 53 C448 53 442 60 442 60 C429 51 353 38 309 38 C233 38 153 165 170 260 C187 357 305 486 377 486 C409 486 448 439 445 404 C444 389 460 369 474 369 C487 369 508 387 510 400 C514 445 444 505 388 505 C281 505 112 349 91 233 C73 131 160 -5 243 -5 C297 -5 414 28 448 53 L448 53 Z " />
<glyph glyph-name="Ccaron" unicode="&#x10c;" horiz-adv-x="713" d="M735 462 C735 462 760 604 760 604 C719 630 576 665 509 665 C366 665 139 473 114 330 C89 187 248 -5 391 -5 C458 -5 613 30 663 56 C663 56 688 198 688 198 C688 198 675 198 675 198 C671 190 660 169 656 162 C627 107 496 23 427 16 C427 16 427 16 427 16 C415 15 404 14 395 14 C287 14 175 195 199 330 C223 465 399 646 506 646 C525 646 549 643 576 638 C576 638 576 638 576 638 C626 630 706 550 715 498 C717 491 720 470 722 462 C722 462 735 462 735 462 L735 462 Z M531 785 C531 785 668 927 668 927 C668 927 674 921 674 921 C674 921 544 735 544 735 C541 731 526 715 518 715 C510 715 501 731 500 735 C500 735 435 921 435 921 C435 921 444 927 444 927 C444 927 531 785 531 785 L531 785 Z " />
<glyph glyph-name="ccaron" unicode="&#x10d;" horiz-adv-x="489" d="M448 53 C448 53 442 60 442 60 C429 51 353 38 309 38 C233 38 153 165 170 260 C187 357 305 486 377 486 C409 486 448 439 445 404 C444 389 460 369 474 369 C487 369 508 387 510 400 C514 445 444 505 388 505 C281 505 112 349 91 233 C73 131 160 -5 243 -5 C297 -5 414 28 448 53 L448 53 Z M409 625 C409 625 546 767 546 767 C546 767 552 761 552 761 C552 761 423 575 423 575 C420 571 405 555 397 555 C389 555 379 571 378 575 C378 575 314 761 314 761 C314 761 322 767 322 767 C322 767 409 625 409 625 L409 625 Z " />
<glyph glyph-name="Dcaron" unicode="&#x10e;" horiz-adv-x="708" d="M489 785 C489 785 626 927 626 927 C626 927 632 921 632 921 C632 921 503 735 503 735 C500 731 485 715 477 715 C469 715 459 731 458 735 C458 735 394 921 394 921 C394 921 402 927 402 927 C402 927 489 785 489 785 L489 785 Z M159 0 C159 0 198 0 198 0 C198 0 312 641 312 641 C312 641 426 641 426 641 C541 641 662 463 639 330 C615 197 453 19 355 19 C355 19 202 19 202 19 C202 19 198 0 198 0 C198 0 351 0 351 0 C482 0 691 189 717 330 C741 471 577 660 429 660 C429 660 315 660 315 660 C315 660 276 660 276 660 C276 660 237 660 237 660 C237 660 162 660 162 660 C162 660 161 656 161 653 C161 653 159 645 159 645 C159 645 171 645 171 645 C197 645 227 610 223 582 C223 582 135 80 135 80 C135 80 135 80 135 80 C130 52 87 15 59 15 C59 15 48 15 48 15 C48 15 48 11 47 8 C47 4 46 0 46 0 C46 0 121 0 121 0 C121 0 159 0 159 0 L159 0 Z " />
<glyph glyph-name="dcaron" unicode="&#x10f;" horiz-adv-x="600" d="M513 129 C513 129 513 129 513 129 C513 129 598 610 598 610 C598 610 598 610 598 610 C598 610 609 676 609 676 C609 676 614 702 614 702 C614 702 614 702 614 702 C614 702 617 720 617 720 C617 720 603 720 603 720 C603 720 465 681 465 681 C465 681 465 680 465 680 C464 677 464 672 464 672 C464 672 474 670 474 670 C511 662 531 630 524 591 C524 591 524 591 524 591 C524 591 497 438 497 438 C466 471 409 505 368 505 C272 505 115 344 94 223 C77 126 166 -5 250 -5 C294 -5 388 25 429 52 C429 52 423 18 423 18 C423 18 423 18 423 18 C423 18 420 0 420 0 C420 0 434 0 434 0 C434 0 572 39 572 39 C572 39 572 40 572 40 C573 43 574 48 574 48 C574 48 563 50 563 50 C526 58 506 90 513 129 C513 129 513 129 513 129 L513 129 Z M724 629 C747 666 780 732 781 737 C782 745 749 753 740 753 C730 753 695 677 683 645 C683 645 623 482 623 482 C623 482 631 479 631 479 C631 479 724 629 724 629 L724 629 Z M431 62 C410 51 338 38 296 38 C227 38 156 159 172 250 C190 351 298 486 361 486 C406 486 471 445 492 411 C492 411 431 62 431 62 L431 62 Z " />
<glyph glyph-name="Emacron" unicode="&#x112;" horiz-adv-x="602" d="M468 257 C472 278 481 332 485 352 C485 352 487 362 487 362 C487 362 487 362 487 362 C491 384 497 422 500 437 C500 437 488 437 488 437 C488 437 482 425 482 425 C469 398 403 362 367 362 C367 362 257 362 257 362 C257 362 254 347 254 347 C254 347 309 660 309 660 C309 660 306 641 306 641 C306 641 445 641 445 641 C488 641 554 584 560 541 C560 541 565 506 565 506 C565 506 576 506 576 506 C582 537 596 619 602 650 C602 652 603 658 604 660 C604 660 594 660 594 660 C594 660 524 660 524 660 C524 660 309 660 309 660 C309 660 270 660 270 660 C270 660 231 660 231 660 C231 660 156 660 156 660 C156 659 154 645 154 645 C154 645 165 645 165 645 C191 645 221 610 217 582 C217 582 129 80 129 80 C129 80 129 80 129 80 C124 52 81 15 54 15 C54 15 43 15 43 15 C43 15 42 11 41 8 C41 4 40 0 40 0 C40 0 115 0 115 0 C115 0 154 0 154 0 C154 0 193 0 193 0 C193 0 411 0 411 0 C411 0 488 0 488 0 C488 0 491 0 491 0 C491 2 493 8 494 10 C505 41 534 123 545 154 C545 155 545 155 544 154 C540 155 534 155 534 154 C534 154 510 119 510 119 C481 77 385 20 342 19 C342 19 196 19 196 19 C196 19 253 342 253 342 C253 342 363 342 363 342 C400 342 452 301 455 270 C455 270 456 257 456 257 C456 257 468 257 468 257 L468 257 Z M282 767 C282 767 582 767 582 767 C582 767 589 806 589 806 C589 806 289 806 289 806 C289 806 282 767 282 767 L282 767 Z " />
<glyph glyph-name="emacron" unicode="&#x113;" horiz-adv-x="496" d="M196 334 C235 412 306 486 352 486 C401 486 456 424 448 378 C445 364 423 345 409 344 C409 344 408 344 408 344 C408 344 409 344 409 344 C409 344 441 345 441 345 C441 345 196 334 196 334 L196 334 Z M228 607 C228 607 528 607 528 607 C528 607 534 646 534 646 C534 646 234 646 234 646 C234 646 228 607 228 607 L228 607 Z M454 53 C454 53 449 60 449 60 C436 51 358 38 313 38 C235 38 153 165 170 260 C173 279 180 300 189 320 C189 320 503 320 503 320 C516 399 435 505 359 505 C265 505 112 349 91 233 C73 131 162 -5 247 -5 C302 -5 420 28 454 53 L454 53 Z " />
<glyph glyph-name="Ebreve" unicode="&#x114;" horiz-adv-x="602" d="M468 257 C472 278 481 332 485 352 C485 352 487 362 487 362 C487 362 487 362 487 362 C491 384 497 422 500 437 C500 437 488 437 488 437 C488 437 482 425 482 425 C469 398 403 362 367 362 C367 362 257 362 257 362 C257 362 254 347 254 347 C254 347 309 660 309 660 C309 660 306 641 306 641 C306 641 445 641 445 641 C488 641 554 584 560 541 C560 541 565 506 565 506 C565 506 576 506 576 506 C582 537 596 619 602 650 C602 652 603 658 604 660 C604 660 594 660 594 660 C594 660 524 660 524 660 C524 660 309 660 309 660 C309 660 270 660 270 660 C270 660 231 660 231 660 C231 660 156 660 156 660 C156 659 154 645 154 645 C154 645 165 645 165 645 C191 645 221 610 217 582 C217 582 129 80 129 80 C129 80 129 80 129 80 C124 52 81 15 54 15 C54 15 43 15 43 15 C43 15 42 11 41 8 C41 4 40 0 40 0 C40 0 115 0 115 0 C115 0 154 0 154 0 C154 0 193 0 193 0 C193 0 411 0 411 0 C411 0 488 0 488 0 C488 0 491 0 491 0 C491 2 493 8 494 10 C505 41 534 123 545 154 C545 155 545 155 544 154 C540 155 534 155 534 154 C534 154 510 119 510 119 C481 77 385 20 342 19 C342 19 196 19 196 19 C196 19 253 342 253 342 C253 342 363 342 363 342 C400 342 452 301 455 270 C455 270 456 257 456 257 C456 257 468 257 468 257 L468 257 Z M329 871 C333 823 391 758 430 758 C470 758 550 823 571 871 C571 871 559 874 559 874 C547 845 477 805 438 805 C399 805 344 845 342 874 C342 874 329 871 329 871 L329 871 Z " />
<glyph glyph-name="ebreve" unicode="&#x115;" horiz-adv-x="496" d="M196 334 C235 412 306 486 352 486 C401 486 456 424 448 378 C445 364 423 345 409 344 C409 344 408 344 408 344 C408 344 409 344 409 344 C409 344 441 345 441 345 C441 345 196 334 196 334 L196 334 Z M275 711 C279 663 336 598 376 598 C415 598 496 663 516 711 C516 711 505 714 505 714 C492 685 423 645 384 645 C345 645 290 685 288 714 C288 714 275 711 275 711 L275 711 Z M454 53 C454 53 449 60 449 60 C436 51 358 38 313 38 C235 38 153 165 170 260 C173 279 180 300 189 320 C189 320 503 320 503 320 C516 399 435 505 359 505 C265 505 112 349 91 233 C73 131 162 -5 247 -5 C302 -5 420 28 454 53 L454 53 Z " />
<glyph glyph-name="Edotaccent" unicode="&#x116;" horiz-adv-x="602" d="M468 257 C472 278 481 332 485 352 C485 352 487 362 487 362 C487 362 487 362 487 362 C491 384 497 422 500 437 C500 437 488 437 488 437 C488 437 482 425 482 425 C469 398 403 362 367 362 C367 362 257 362 257 362 C257 362 254 347 254 347 C254 347 309 660 309 660 C309 660 306 641 306 641 C306 641 445 641 445 641 C488 641 554 584 560 541 C560 541 565 506 565 506 C565 506 576 506 576 506 C582 537 596 619 602 650 C602 652 603 658 604 660 C604 660 594 660 594 660 C594 660 524 660 524 660 C524 660 309 660 309 660 C309 660 270 660 270 660 C270 660 231 660 231 660 C231 660 156 660 156 660 C156 659 154 645 154 645 C154 645 165 645 165 645 C191 645 221 610 217 582 C217 582 129 80 129 80 C129 80 129 80 129 80 C124 52 81 15 54 15 C54 15 43 15 43 15 C43 15 42 11 41 8 C41 4 40 0 40 0 C40 0 115 0 115 0 C115 0 154 0 154 0 C154 0 193 0 193 0 C193 0 411 0 411 0 C411 0 488 0 488 0 C488 0 491 0 491 0 C491 2 493 8 494 10 C505 41 534 123 545 154 C545 155 545 155 544 154 C540 155 534 155 534 154 C534 154 510 119 510 119 C481 77 385 20 342 19 C342 19 196 19 196 19 C196 19 253 342 253 342 C253 342 363 342 363 342 C400 342 452 301 455 270 C455 270 456 257 456 257 C456 257 468 257 468 257 L468 257 Z M425 730 C443 730 472 754 475 773 C479 791 458 816 440 816 C422 816 393 791 390 773 C387 754 407 730 425 730 L425 730 Z " />
<glyph glyph-name="edotaccent" unicode="&#x117;" horiz-adv-x="496" d="M196 334 C235 412 306 486 352 486 C401 486 456 424 448 378 C445 364 423 345 409 344 C409 344 408 344 408 344 C408 344 409 344 409 344 C409 344 441 345 441 345 C441 345 196 334 196 334 L196 334 Z M371 570 C389 570 418 594 421 613 C424 631 404 656 386 656 C368 656 339 631 336 613 C333 594 353 570 371 570 L371 570 Z M454 53 C454 53 449 60 449 60 C436 51 358 38 313 38 C235 38 153 165 170 260 C173 279 180 300 189 320 C189 320 503 320 503 320 C516 399 435 505 359 505 C265 505 112 349 91 233 C73 131 162 -5 247 -5 C302 -5 420 28 454 53 L454 53 Z " />
<glyph glyph-name="Eogonek" unicode="&#x118;" horiz-adv-x="602" d="M468 257 C472 278 481 332 485 352 C485 352 487 362 487 362 C487 362 487 362 487 362 C491 384 497 422 500 437 C500 437 488 437 488 437 C488 437 482 425 482 425 C469 398 403 362 367 362 C367 362 257 362 257 362 C257 362 254 347 254 347 C254 347 309 660 309 660 C309 660 306 641 306 641 C306 641 445 641 445 641 C488 641 554 584 560 541 C560 541 565 506 565 506 C565 506 576 506 576 506 C582 537 596 619 602 650 C602 652 603 658 604 660 C604 660 594 660 594 660 C594 660 524 660 524 660 C524 660 309 660 309 660 C309 660 270 660 270 660 C270 660 231 660 231 660 C231 660 156 660 156 660 C156 659 154 645 154 645 C154 645 165 645 165 645 C191 645 221 610 217 582 C217 582 129 80 129 80 C129 80 129 80 129 80 C124 52 81 15 54 15 C54 15 43 15 43 15 C43 15 42 11 41 8 C41 4 40 0 40 0 C40 0 115 0 115 0 C115 0 154 0 154 0 C154 0 193 0 193 0 C193 0 411 0 411 0 C411 0 462 0 462 0 C409 -35 315 -115 308 -156 C302 -189 360 -234 408 -234 C432 -234 482 -215 496 -201 C496 -201 492 -196 492 -196 C484 -203 447 -214 427 -214 C390 -214 348 -176 352 -148 C361 -102 463 -9 488 0 C488 0 491 0 491 0 C491 2 493 8 494 10 C505 41 534 123 545 154 C545 155 545 155 544 154 C540 155 534 155 534 154 C534 154 510 119 510 119 C481 77 385 20 342 19 C342 19 196 19 196 19 C196 19 253 342 253 342 C253 342 363 342 363 342 C400 342 452 301 455 270 C455 270 456 257 456 257 C456 257 468 257 468 257 L468 257 Z " />
<glyph glyph-name="eogonek" unicode="&#x119;" horiz-adv-x="496" d="M196 334 C235 412 306 486 352 486 C401 486 456 424 448 378 C445 364 423 345 409 344 C409 344 408 344 408 344 C408 344 409 344 409 344 C409 344 441 345 441 345 C441 345 196 334 196 334 L196 334 Z M189 320 C189 320 503 320 503 320 C516 399 435 505 359 505 C265 505 112 349 91 233 C73 131 162 -5 247 -5 C259 -5 275 -3 292 0 C237 -38 155 -112 148 -151 C142 -186 199 -234 247 -234 C271 -234 321 -215 335 -201 C335 -201 331 -196 331 -196 C323 -203 286 -214 266 -214 C229 -214 187 -174 192 -143 C200 -97 300 -5 327 7 C378 18 433 37 454 53 C454 53 449 60 449 60 C436 51 358 38 313 38 C235 38 153 165 170 260 C173 279 180 300 189 320 L189 320 Z " />
<glyph glyph-name="Ecaron" unicode="&#x11a;" horiz-adv-x="602" d="M468 257 C472 278 481 332 485 352 C485 352 487 362 487 362 C487 362 487 362 487 362 C491 384 497 422 500 437 C500 437 488 437 488 437 C488 437 482 425 482 425 C469 398 403 362 367 362 C367 362 257 362 257 362 C257 362 254 347 254 347 C254 347 309 660 309 660 C309 660 306 641 306 641 C306 641 445 641 445 641 C488 641 554 584 560 541 C560 541 565 506 565 506 C565 506 576 506 576 506 C582 537 596 619 602 650 C602 652 603 658 604 660 C604 660 594 660 594 660 C594 660 524 660 524 660 C524 660 309 660 309 660 C309 660 270 660 270 660 C270 660 231 660 231 660 C231 660 156 660 156 660 C156 659 154 645 154 645 C154 645 165 645 165 645 C191 645 221 610 217 582 C217 582 129 80 129 80 C129 80 129 80 129 80 C124 52 81 15 54 15 C54 15 43 15 43 15 C43 15 42 11 41 8 C41 4 40 0 40 0 C40 0 115 0 115 0 C115 0 154 0 154 0 C154 0 193 0 193 0 C193 0 411 0 411 0 C411 0 488 0 488 0 C488 0 491 0 491 0 C491 2 493 8 494 10 C505 41 534 123 545 154 C545 155 545 155 544 154 C540 155 534 155 534 154 C534 154 510 119 510 119 C481 77 385 20 342 19 C342 19 196 19 196 19 C196 19 253 342 253 342 C253 342 363 342 363 342 C400 342 452 301 455 270 C455 270 456 257 456 257 C456 257 468 257 468 257 L468 257 Z M435 785 C435 785 572 927 572 927 C572 927 578 921 578 921 C578 921 448 735 448 735 C445 731 430 715 423 715 C415 715 405 731 404 735 C404 735 340 921 340 921 C340 921 348 927 348 927 C348 927 435 785 435 785 L435 785 Z " />
<glyph glyph-name="ecaron" unicode="&#x11b;" horiz-adv-x="496" d="M196 334 C235 412 306 486 352 486 C401 486 456 424 448 378 C445 364 423 345 409 344 C409 344 408 344 408 344 C408 344 409 344 409 344 C409 344 441 345 441 345 C441 345 196 334 196 334 L196 334 Z M454 53 C454 53 449 60 449 60 C436 51 358 38 313 38 C235 38 153 165 170 260 C173 279 180 300 189 320 C189 320 503 320 503 320 C516 399 435 505 359 505 C265 505 112 349 91 233 C73 131 162 -5 247 -5 C302 -5 420 28 454 53 L454 53 Z M381 625 C381 625 518 767 518 767 C518 767 524 761 524 761 C524 761 394 575 394 575 C391 571 376 555 368 555 C360 555 351 571 350 575 C350 575 285 761 285 761 C285 761 294 767 294 767 C294 767 381 625 381 625 L381 625 Z " />
<glyph glyph-name="Gcircumflex" unicode="&#x11c;" horiz-adv-x="808" d="M609 230 C609 230 609 230 609 230 C596 153 582 76 577 49 C514 30 428 14 385 14 C282 14 175 195 199 330 C223 465 393 646 496 646 C512 646 533 644 556 639 C556 639 556 639 556 639 C606 631 686 550 695 499 C697 491 700 470 702 462 C702 462 715 462 715 462 C715 462 740 604 740 604 C699 630 562 665 499 665 C360 665 139 473 114 330 C89 187 242 -5 381 -5 C446 -5 599 30 648 56 C649 56 664 143 679 232 C686 260 728 295 754 295 C754 295 766 295 766 295 C765 295 766 299 767 303 C767 306 768 310 768 310 C768 310 693 310 693 310 C693 310 658 310 658 310 C658 310 623 310 623 310 C623 310 548 310 548 310 C548 310 548 306 547 303 C547 299 546 295 546 295 C546 295 557 295 557 295 C584 295 614 258 609 230 C609 230 609 230 609 230 L609 230 Z M529 835 C529 835 616 693 616 693 C616 693 625 699 625 699 C625 699 560 885 560 885 C559 889 549 905 542 905 C534 905 519 889 516 885 C516 885 386 699 386 699 C386 699 392 693 392 693 C392 693 529 835 529 835 L529 835 Z " />
<glyph glyph-name="Gbreve" unicode="&#x11e;" horiz-adv-x="808" d="M415 871 C419 823 476 758 516 758 C555 758 635 823 656 871 C656 871 645 874 645 874 C632 845 563 805 524 805 C485 805 430 845 428 874 C428 874 415 871 415 871 L415 871 Z M609 230 C609 230 609 230 609 230 C596 153 582 76 577 49 C514 30 428 14 385 14 C282 14 175 195 199 330 C223 465 393 646 496 646 C512 646 533 644 556 639 C556 639 556 639 556 639 C606 631 686 550 695 499 C697 491 700 470 702 462 C702 462 715 462 715 462 C715 462 740 604 740 604 C699 630 562 665 499 665 C360 665 139 473 114 330 C89 187 242 -5 381 -5 C446 -5 599 30 648 56 C649 56 664 143 679 232 C686 260 728 295 754 295 C754 295 766 295 766 295 C765 295 766 299 767 303 C767 306 768 310 768 310 C768 310 693 310 693 310 C693 310 658 310 658 310 C658 310 623 310 623 310 C623 310 548 310 548 310 C548 310 548 306 547 303 C547 299 546 295 546 295 C546 295 557 295 557 295 C584 295 614 258 609 230 C609 230 609 230 609 230 L609 230 Z " />
<glyph glyph-name="gbreve" unicode="&#x11f;" horiz-adv-x="470" d="M245 711 C249 663 306 598 346 598 C386 598 466 663 487 711 C487 711 475 714 475 714 C463 685 393 645 354 645 C315 645 260 685 258 714 C258 714 245 711 245 711 L245 711 Z M559 500 C559 500 408 477 408 477 C408 477 408 477 408 477 C384 494 356 505 330 505 C254 505 138 415 126 349 C117 297 166 231 224 204 C224 204 222 204 222 204 C163 204 74 147 67 105 C60 68 108 25 159 12 C93 -13 9 -81 3 -118 C-7 -170 67 -240 132 -240 C250 -240 428 -127 443 -43 C452 8 362 77 285 77 C285 77 204 74 204 74 C162 72 114 105 119 132 C123 158 181 192 220 192 C220 192 275 192 275 192 C350 192 467 282 478 349 C484 382 466 421 437 452 C437 452 552 461 552 461 C552 461 559 500 559 500 L559 500 Z M192 349 C203 409 280 489 327 489 C374 489 423 409 412 349 C402 288 324 208 277 208 C230 208 182 288 192 349 L192 349 Z M176 9 C183 8 189 8 195 8 C195 8 255 11 255 11 C318 11 393 -40 387 -78 C376 -139 236 -220 143 -220 C95 -220 42 -157 51 -110 C58 -73 127 -9 176 9 C176 9 176 9 176 9 L176 9 Z " />
<glyph glyph-name="Gdotaccent" unicode="&#x120;" horiz-adv-x="808" d="M511 730 C529 730 558 754 561 773 C564 791 544 816 526 816 C507 816 479 791 476 773 C472 754 492 730 511 730 L511 730 Z M609 230 C609 230 609 230 609 230 C596 153 582 76 577 49 C514 30 428 14 385 14 C282 14 175 195 199 330 C223 465 393 646 496 646 C512 646 533 644 556 639 C556 639 556 639 556 639 C606 631 686 550 695 499 C697 491 700 470 702 462 C702 462 715 462 715 462 C715 462 740 604 740 604 C699 630 562 665 499 665 C360 665 139 473 114 330 C89 187 242 -5 381 -5 C446 -5 599 30 648 56 C649 56 664 143 679 232 C686 260 728 295 754 295 C754 295 766 295 766 295 C765 295 766 299 767 303 C767 306 768 310 768 310 C768 310 693 310 693 310 C693 310 658 310 658 310 C658 310 623 310 623 310 C623 310 548 310 548 310 C548 310 548 306 547 303 C547 299 546 295 546 295 C546 295 557 295 557 295 C584 295 614 258 609 230 C609 230 609 230 609 230 L609 230 Z " />
<glyph glyph-name="gdotaccent" unicode="&#x121;" horiz-adv-x="470" d="M341 570 C359 570 388 594 391 613 C395 631 374 656 356 656 C338 656 309 631 306 613 C303 594 323 570 341 570 L341 570 Z M559 500 C559 500 408 477 408 477 C408 477 408 477 408 477 C384 494 356 505 330 505 C254 505 138 415 126 349 C117 297 166 231 224 204 C224 204 222 204 222 204 C163 204 74 147 67 105 C60 68 108 25 159 12 C93 -13 9 -81 3 -118 C-7 -170 67 -240 132 -240 C250 -240 428 -127 443 -43 C452 8 362 77 285 77 C285 77 204 74 204 74 C162 72 114 105 119 132 C123 158 181 192 220 192 C220 192 275 192 275 192 C350 192 467 282 478 349 C484 382 466 421 437 452 C437 452 552 461 552 461 C552 461 559 500 559 500 L559 500 Z M192 349 C203 409 280 489 327 489 C374 489 423 409 412 349 C402 288 324 208 277 208 C230 208 182 288 192 349 L192 349 Z M176 9 C183 8 189 8 195 8 C195 8 255 11 255 11 C318 11 393 -40 387 -78 C376 -139 236 -220 143 -220 C95 -220 42 -157 51 -110 C58 -73 127 -9 176 9 C176 9 176 9 176 9 L176 9 Z " />
<glyph glyph-name="Hcircumflex" unicode="&#x124;" horiz-adv-x="774" d="M737 15 C737 15 726 15 726 15 C699 15 669 52 674 80 C674 80 673 80 673 80 C673 80 762 580 762 580 C762 580 762 580 762 580 C767 608 810 645 837 645 C837 645 848 645 848 645 C848 645 849 649 849 653 C850 656 851 660 851 660 C851 660 776 660 776 660 C776 660 737 660 737 660 C737 660 698 660 698 660 C698 660 623 660 623 660 C623 660 622 656 622 653 C621 649 621 645 620 645 C620 645 632 645 632 645 C658 645 688 610 684 582 C684 582 645 357 645 357 C645 357 256 357 256 357 C256 357 295 580 295 580 C295 580 295 580 295 580 C300 608 343 645 370 645 C370 645 382 645 382 645 C381 645 382 649 383 653 C383 656 384 660 384 660 C384 660 309 660 309 660 C309 660 270 660 270 660 C270 660 231 660 231 660 C231 660 156 660 156 660 C156 659 154 645 154 645 C154 645 165 645 165 645 C191 645 221 610 217 582 C217 582 129 80 129 80 C129 80 129 80 129 80 C124 52 81 15 54 15 C54 15 43 15 43 15 C43 15 42 11 41 8 C41 4 40 0 40 0 C40 0 115 0 115 0 C115 0 154 0 154 0 C154 0 193 0 193 0 C193 0 268 0 268 0 C268 0 270 14 270 15 C270 15 259 15 259 15 C233 15 203 50 207 78 C207 78 252 337 252 337 C252 337 641 337 641 337 C641 337 596 80 596 80 C596 80 596 80 596 80 C591 52 548 15 521 15 C521 15 509 15 509 15 C509 15 509 11 508 8 C508 4 507 0 507 0 C507 0 582 0 582 0 C582 0 621 0 621 0 C621 0 659 0 659 0 C659 0 734 0 734 0 C735 0 737 13 737 15 C737 15 737 15 737 15 L737 15 Z M534 835 C534 835 621 693 621 693 C621 693 630 699 630 699 C630 699 566 885 566 885 C564 889 554 905 547 905 C539 905 524 889 521 885 C521 885 391 699 391 699 C391 699 397 693 397 693 C397 693 534 835 534 835 L534 835 Z " />
<glyph glyph-name="Itilde" unicode="&#x128;" horiz-adv-x="307" d="M146 755 C151 782 182 818 200 818 C243 818 323 756 366 756 C398 756 451 817 459 862 C459 862 447 862 447 862 C443 837 409 802 389 802 C347 802 266 865 224 865 C194 865 142 802 134 755 C134 755 146 755 146 755 L146 755 Z M154 645 C154 645 165 645 165 645 C191 645 221 610 217 582 C217 582 129 80 129 80 C129 80 129 80 129 80 C124 52 81 15 54 15 C54 15 43 15 43 15 C43 15 42 11 41 8 C41 4 40 0 40 0 C40 0 115 0 115 0 C115 0 154 0 154 0 C154 0 193 0 193 0 C193 0 268 0 268 0 C268 0 270 14 270 15 C270 15 259 15 259 15 C233 15 203 50 207 78 C207 78 295 580 295 580 C295 580 295 580 295 580 C300 608 343 645 370 645 C370 645 382 645 382 645 C381 645 382 649 383 653 C383 656 384 660 384 660 C384 660 309 660 309 660 C309 660 270 660 270 660 C270 660 231 660 231 660 C231 660 156 660 156 660 C156 659 154 645 154 645 L154 645 Z " />
<glyph glyph-name="itilde" unicode="&#x129;" horiz-adv-x="310" d="M190 0 C190 0 264 420 264 420 C264 420 279 505 279 505 C279 505 275 505 275 505 C275 505 139 466 139 466 C139 466 139 463 138 461 C138 458 137 456 137 456 C137 456 180 443 180 443 C187 441 195 423 190 400 C190 400 191 400 191 400 C191 400 120 0 120 0 C121 9 88 15 63 15 C63 15 48 15 48 15 C48 15 47 11 46 8 C46 4 45 0 45 0 C45 0 120 0 120 0 C120 0 190 0 190 0 C190 0 265 0 265 0 C265 0 266 4 266 8 C267 11 268 15 268 15 C268 15 253 15 253 15 C227 15 192 9 190 0 L190 0 Z M119 595 C124 622 155 658 173 658 C216 658 296 596 339 596 C371 596 424 657 432 702 C432 702 420 702 420 702 C415 677 382 642 362 642 C320 642 239 705 197 705 C167 705 115 642 107 595 C107 595 119 595 119 595 L119 595 Z " />
<glyph glyph-name="Imacron" unicode="&#x12a;" horiz-adv-x="307" d="M139 767 C139 767 439 767 439 767 C439 767 446 806 446 806 C446 806 146 806 146 806 C146 806 139 767 139 767 L139 767 Z M154 645 C154 645 165 645 165 645 C191 645 221 610 217 582 C217 582 129 80 129 80 C129 80 129 80 129 80 C124 52 81 15 54 15 C54 15 43 15 43 15 C43 15 42 11 41 8 C41 4 40 0 40 0 C40 0 115 0 115 0 C115 0 154 0 154 0 C154 0 193 0 193 0 C193 0 268 0 268 0 C268 0 270 14 270 15 C270 15 259 15 259 15 C233 15 203 50 207 78 C207 78 295 580 295 580 C295 580 295 580 295 580 C300 608 343 645 370 645 C370 645 382 645 382 645 C381 645 382 649 383 653 C383 656 384 660 384 660 C384 660 309 660 309 660 C309 660 270 660 270 660 C270 660 231 660 231 660 C231 660 156 660 156 660 C156 659 154 645 154 645 L154 645 Z " />
<glyph glyph-name="imacron" unicode="&#x12b;" horiz-adv-x="310" d="M190 0 C190 0 264 420 264 420 C264 420 279 505 279 505 C279 505 275 505 275 505 C275 505 139 466 139 466 C139 466 139 463 138 461 C138 458 137 456 137 456 C137 456 180 443 180 443 C187 441 195 423 190 400 C190 400 191 400 191 400 C191 400 120 0 120 0 C121 9 88 15 63 15 C63 15 48 15 48 15 C48 15 47 11 46 8 C46 4 45 0 45 0 C45 0 120 0 120 0 C120 0 190 0 190 0 C190 0 265 0 265 0 C265 0 266 4 266 8 C267 11 268 15 268 15 C268 15 253 15 253 15 C227 15 192 9 190 0 L190 0 Z M112 607 C112 607 412 607 412 607 C412 607 419 646 419 646 C419 646 119 646 119 646 C119 646 112 607 112 607 L112 607 Z " />
<glyph glyph-name="Ibreve" unicode="&#x12c;" horiz-adv-x="307" d="M187 871 C191 823 248 758 288 758 C327 758 407 823 428 871 C428 871 417 874 417 874 C404 845 335 805 296 805 C257 805 202 845 200 874 C200 874 187 871 187 871 L187 871 Z M154 645 C154 645 165 645 165 645 C191 645 221 610 217 582 C217 582 129 80 129 80 C129 80 129 80 129 80 C124 52 81 15 54 15 C54 15 43 15 43 15 C43 15 42 11 41 8 C41 4 40 0 40 0 C40 0 115 0 115 0 C115 0 154 0 154 0 C154 0 193 0 193 0 C193 0 268 0 268 0 C268 0 270 14 270 15 C270 15 259 15 259 15 C233 15 203 50 207 78 C207 78 295 580 295 580 C295 580 295 580 295 580 C300 608 343 645 370 645 C370 645 382 645 382 645 C381 645 382 649 383 653 C383 656 384 660 384 660 C384 660 309 660 309 660 C309 660 270 660 270 660 C270 660 231 660 231 660 C231 660 156 660 156 660 C156 659 154 645 154 645 L154 645 Z " />
<glyph glyph-name="ibreve" unicode="&#x12d;" horiz-adv-x="310" d="M190 0 C190 0 264 420 264 420 C264 420 279 505 279 505 C279 505 275 505 275 505 C275 505 139 466 139 466 C139 466 139 463 138 461 C138 458 137 456 137 456 C137 456 180 443 180 443 C187 441 195 423 190 400 C190 400 191 400 191 400 C191 400 120 0 120 0 C121 9 88 15 63 15 C63 15 48 15 48 15 C48 15 47 11 46 8 C46 4 45 0 45 0 C45 0 120 0 120 0 C120 0 190 0 190 0 C190 0 265 0 265 0 C265 0 266 4 266 8 C267 11 268 15 268 15 C268 15 253 15 253 15 C227 15 192 9 190 0 L190 0 Z M160 711 C164 663 221 598 260 598 C300 598 380 663 401 711 C401 711 389 714 389 714 C377 685 308 645 269 645 C230 645 175 685 172 714 C172 714 160 711 160 711 L160 711 Z " />
<glyph glyph-name="Idotaccent" unicode="&#x130;" horiz-adv-x="307" d="M283 730 C301 730 330 754 333 773 C336 791 316 816 298 816 C279 816 251 791 247 773 C244 754 264 730 283 730 L283 730 Z M154 645 C154 645 165 645 165 645 C191 645 221 610 217 582 C217 582 129 80 129 80 C129 80 129 80 129 80 C124 52 81 15 54 15 C54 15 43 15 43 15 C43 15 42 11 41 8 C41 4 40 0 40 0 C40 0 115 0 115 0 C115 0 154 0 154 0 C154 0 193 0 193 0 C193 0 268 0 268 0 C268 0 270 14 270 15 C270 15 259 15 259 15 C233 15 203 50 207 78 C207 78 295 580 295 580 C295 580 295 580 295 580 C300 608 343 645 370 645 C370 645 382 645 382 645 C381 645 382 649 383 653 C383 656 384 660 384 660 C384 660 309 660 309 660 C309 660 270 660 270 660 C270 660 231 660 231 660 C231 660 156 660 156 660 C156 659 154 645 154 645 L154 645 Z " />
<glyph glyph-name="dotlessi" unicode="&#x131;" horiz-adv-x="310" d="M190 0 C190 0 264 420 264 420 C264 420 279 505 279 505 C279 505 275 505 275 505 C275 505 139 466 139 466 C139 466 139 463 138 461 C138 458 137 456 137 456 C137 456 180 443 180 443 C187 441 195 423 190 400 C190 400 191 400 191 400 C191 400 120 0 120 0 C121 9 88 15 63 15 C63 15 48 15 48 15 C48 15 47 11 46 8 C46 4 45 0 45 0 C45 0 120 0 120 0 C120 0 190 0 190 0 C190 0 265 0 265 0 C265 0 266 4 266 8 C267 11 268 15 268 15 C268 15 253 15 253 15 C227 15 192 9 190 0 L190 0 Z " />
<glyph glyph-name="Jcircumflex" unicode="&#x134;" horiz-adv-x="383" d="M377 835 C377 835 464 693 464 693 C464 693 472 699 472 699 C472 699 408 885 408 885 C406 889 396 905 389 905 C381 905 366 889 363 885 C363 885 233 699 233 699 C233 699 239 693 239 693 C239 693 377 835 377 835 L377 835 Z M293 582 C293 582 226 200 226 200 C208 100 159 6 124 6 C104 6 76 31 75 50 C74 63 57 81 45 81 C29 81 8 63 9 50 C11 24 64 -10 102 -10 C187 -10 291 124 315 265 C315 265 371 580 371 580 C371 580 371 580 371 580 C376 608 419 645 446 645 C446 645 457 645 457 645 C457 645 458 649 458 653 C459 656 460 660 460 660 C460 660 385 660 385 660 C385 660 346 660 346 660 C346 660 307 660 307 660 C307 660 232 660 232 660 C232 660 231 656 231 653 C231 653 229 645 229 645 C229 645 241 645 241 645 C267 645 296 610 293 582 L293 582 Z " />
<glyph glyph-name="Lacute" unicode="&#x139;" horiz-adv-x="602" d="M252 690 C252 690 386 818 386 818 C407 838 434 867 435 870 C436 877 409 900 400 900 C398 900 373 869 356 846 C356 846 245 697 245 697 C245 697 252 690 252 690 L252 690 Z M154 645 C154 645 165 645 165 645 C191 645 221 610 217 582 C217 582 129 80 129 80 C129 80 129 80 129 80 C124 52 81 15 54 15 C54 15 43 15 43 15 C43 15 42 11 41 8 C41 4 40 0 40 0 C40 0 115 0 115 0 C115 0 154 0 154 0 C154 0 193 0 193 0 C193 0 411 0 411 0 C411 0 488 0 488 0 C488 0 491 0 491 0 C491 2 493 8 494 10 C506 42 536 129 548 162 C548 162 546 163 545 163 C539 166 531 170 531 169 C531 169 496 109 496 109 C473 71 391 20 352 19 C352 19 196 19 196 19 C196 19 295 580 295 580 C295 580 295 580 295 580 C300 608 343 645 370 645 C370 645 382 645 382 645 C381 645 382 649 383 653 C383 656 384 660 384 660 C384 660 309 660 309 660 C309 660 270 660 270 660 C270 660 231 660 231 660 C231 660 156 660 156 660 C156 659 154 645 154 645 C154 645 154 645 154 645 L154 645 Z " />
<glyph glyph-name="Lcaron" unicode="&#x13d;" horiz-adv-x="602" d="M154 645 C154 645 165 645 165 645 C191 645 221 610 217 582 C217 582 129 80 129 80 C129 80 129 80 129 80 C124 52 81 15 54 15 C54 15 43 15 43 15 C43 15 42 11 41 8 C41 4 40 0 40 0 C40 0 115 0 115 0 C115 0 154 0 154 0 C154 0 193 0 193 0 C193 0 411 0 411 0 C411 0 488 0 488 0 C488 0 491 0 491 0 C491 2 493 8 494 10 C506 42 536 129 548 162 C548 162 546 163 545 163 C539 166 531 170 531 169 C531 169 496 109 496 109 C473 71 391 20 352 19 C352 19 196 19 196 19 C196 19 295 580 295 580 C295 580 295 580 295 580 C300 608 343 645 370 645 C370 645 382 645 382 645 C381 645 382 649 383 653 C383 656 384 660 384 660 C384 660 309 660 309 660 C309 660 270 660 270 660 C270 660 231 660 231 660 C231 660 156 660 156 660 C156 659 154 645 154 645 C154 645 154 645 154 645 L154 645 Z M491 569 C514 606 547 672 548 677 C550 685 517 693 507 693 C497 693 461 617 450 585 C450 585 390 422 390 422 C390 422 398 419 398 419 C398 419 491 569 491 569 L491 569 Z " />
<glyph glyph-name="lcaron" unicode="&#x13e;" horiz-adv-x="310" d="M224 591 C224 591 224 591 224 591 C224 591 134 80 134 80 C134 80 134 80 134 80 C129 52 86 15 59 15 C59 15 48 15 48 15 C48 15 47 11 46 8 C46 4 45 0 45 0 C45 0 120 0 120 0 C120 0 155 0 155 0 C155 0 190 0 190 0 C190 0 265 0 265 0 C265 0 266 4 266 8 C267 11 268 15 268 15 C268 15 256 15 256 15 C230 15 201 49 204 77 C204 77 298 610 298 610 C298 610 298 610 298 610 C298 610 309 674 309 674 C309 674 314 702 314 702 C314 702 314 702 314 702 C314 702 317 720 317 720 C317 720 303 720 303 720 C303 720 165 681 165 681 C165 681 165 680 165 680 C164 677 164 672 164 672 C164 672 174 670 174 670 C211 662 231 630 224 591 C224 591 224 591 224 591 L224 591 Z M419 599 C441 636 475 702 476 707 C477 715 444 723 435 723 C424 723 389 647 378 615 C378 615 318 452 318 452 C318 452 326 449 326 449 C326 449 419 599 419 599 L419 599 Z " />
<glyph glyph-name="Lslash" unicode="&#x141;" horiz-adv-x="602" d="M112 268 C112 268 165 286 165 286 C165 286 129 80 129 80 C129 80 129 80 129 80 C124 52 81 15 54 15 C54 15 43 15 43 15 C43 15 42 11 41 8 C41 4 40 0 40 0 C40 0 115 0 115 0 C115 0 154 0 154 0 C154 0 193 0 193 0 C193 0 411 0 411 0 C411 0 488 0 488 0 C488 0 491 0 491 0 C491 2 493 8 494 10 C506 42 536 129 548 162 C548 162 546 163 545 163 C539 166 531 170 531 169 C531 169 496 109 496 109 C473 71 391 20 352 19 C352 19 196 19 196 19 C196 19 248 315 248 315 C248 315 405 368 405 368 C405 368 409 392 409 392 C409 392 253 339 253 339 C253 339 295 580 295 580 C295 580 295 580 295 580 C300 608 343 645 370 645 C370 645 382 645 382 645 C381 645 382 649 383 653 C383 656 384 660 384 660 C384 660 309 660 309 660 C309 660 270 660 270 660 C270 660 231 660 231 660 C231 660 156 660 156 660 C156 659 154 645 154 645 C154 645 165 645 165 645 C191 645 221 610 217 582 C217 582 170 310 170 310 C170 310 116 292 116 292 C116 292 112 268 112 268 L112 268 Z " />
<glyph glyph-name="lslash" unicode="&#x142;" horiz-adv-x="310" d="M73 298 C73 298 179 335 179 335 C179 335 134 80 134 80 C134 80 134 80 134 80 C129 52 86 15 59 15 C59 15 48 15 48 15 C48 15 47 11 46 8 C46 4 45 0 45 0 C45 0 120 0 120 0 C120 0 155 0 155 0 C155 0 190 0 190 0 C190 0 265 0 265 0 C265 0 266 4 266 8 C267 11 268 15 268 15 C268 15 256 15 256 15 C230 15 201 49 204 77 C204 77 254 361 254 361 C254 361 360 398 360 398 C360 398 364 422 364 422 C364 422 258 385 258 385 C258 385 298 610 298 610 C298 610 298 610 298 610 C298 610 309 674 309 674 C309 674 314 702 314 702 C314 702 314 702 314 702 C314 702 317 720 317 720 C317 720 303 720 303 720 C303 720 165 681 165 681 C165 681 165 680 165 680 C164 677 164 672 164 672 C164 672 174 670 174 670 C211 662 231 630 224 591 C224 591 224 591 224 591 C224 591 183 359 183 359 C183 359 77 322 77 322 C77 322 73 298 73 298 L73 298 Z " />
<glyph glyph-name="Nacute" unicode="&#x143;" horiz-adv-x="708" d="M445 690 C445 690 580 818 580 818 C600 838 628 867 629 870 C630 877 602 900 594 900 C591 900 566 869 549 846 C549 846 438 697 438 697 C438 697 445 690 445 690 L445 690 Z M609 645 C609 645 620 645 620 645 C646 645 675 610 672 583 C672 583 590 113 590 113 C590 113 302 660 302 660 C302 660 250 628 250 628 C250 628 250 628 250 628 C250 628 302 660 302 660 C302 660 256 660 256 660 C256 660 244 660 244 660 C244 660 233 660 233 660 C233 660 158 660 158 660 C157 660 157 656 156 653 C156 649 155 645 155 645 C155 645 166 645 166 645 C193 645 223 608 218 580 C218 580 219 580 219 580 C219 580 130 80 130 80 C130 80 130 80 130 80 C125 52 82 15 55 15 C55 15 44 15 44 15 C44 15 43 11 42 8 C42 4 41 0 41 0 C41 0 116 0 116 0 C116 0 128 0 128 0 C128 0 140 0 140 0 C140 0 215 0 215 0 C215 0 217 14 217 15 C217 15 206 15 206 15 C180 15 150 50 154 78 C154 78 244 591 244 591 C244 591 540 31 540 31 C540 31 565 -16 565 -16 C565 -16 591 -16 591 -16 C591 -16 604 59 604 59 C604 59 696 580 696 580 C696 580 696 580 696 580 C701 608 744 645 771 645 C771 645 782 645 782 645 C782 645 783 649 783 653 C784 656 785 660 785 660 C785 660 710 660 710 660 C710 660 698 660 698 660 C698 660 686 660 686 660 C686 660 611 660 611 660 C611 659 609 645 609 645 C609 645 609 645 609 645 L609 645 Z " />
<glyph glyph-name="nacute" unicode="&#x144;" horiz-adv-x="625" d="M332 530 C332 530 466 658 466 658 C486 678 514 707 515 710 C516 717 489 740 480 740 C478 740 452 709 435 686 C435 686 325 537 325 537 C325 537 332 530 332 530 L332 530 Z M204 80 C204 80 204 80 204 80 C204 80 258 390 258 390 C258 390 258 390 258 390 C258 390 265 430 265 430 C300 443 379 458 415 458 C469 458 508 384 498 329 C498 329 454 80 454 80 C454 80 454 80 454 80 C449 52 406 15 379 15 C379 15 368 15 368 15 C368 15 367 11 366 8 C366 4 365 0 365 0 C365 0 440 0 440 0 C440 0 475 0 475 0 C475 0 510 0 510 0 C510 0 585 0 585 0 C585 0 586 4 586 7 C586 7 588 15 588 15 C588 15 577 15 577 15 C550 15 522 49 524 76 C524 76 570 337 570 337 C582 409 540 505 478 505 C447 505 332 468 267 438 C267 438 278 500 278 500 C278 500 264 500 264 500 C264 500 126 461 126 461 C126 461 126 460 126 460 C125 457 125 452 124 452 C124 452 135 450 135 450 C169 443 189 415 186 380 C186 380 134 78 134 78 C127 50 85 15 59 15 C59 15 47 15 47 15 C47 15 47 11 46 8 C46 4 45 0 45 0 C45 0 120 0 120 0 C120 0 155 0 155 0 C155 0 190 0 190 0 C190 0 265 0 265 0 C264 0 265 4 266 8 C266 11 267 15 267 15 C267 15 256 15 256 15 C229 15 199 52 204 80 C204 80 204 80 204 80 L204 80 Z " />
<glyph glyph-name="Ncaron" unicode="&#x147;" horiz-adv-x="708" d="M609 645 C609 645 620 645 620 645 C646 645 675 610 672 583 C672 583 590 113 590 113 C590 113 302 660 302 660 C302 660 250 628 250 628 C250 628 250 628 250 628 C250 628 302 660 302 660 C302 660 256 660 256 660 C256 660 244 660 244 660 C244 660 233 660 233 660 C233 660 158 660 158 660 C157 660 157 656 156 653 C156 649 155 645 155 645 C155 645 166 645 166 645 C193 645 223 608 218 580 C218 580 219 580 219 580 C219 580 130 80 130 80 C130 80 130 80 130 80 C125 52 82 15 55 15 C55 15 44 15 44 15 C44 15 43 11 42 8 C42 4 41 0 41 0 C41 0 116 0 116 0 C116 0 128 0 128 0 C128 0 140 0 140 0 C140 0 215 0 215 0 C215 0 217 14 217 15 C217 15 206 15 206 15 C180 15 150 50 154 78 C154 78 244 591 244 591 C244 591 540 31 540 31 C540 31 565 -16 565 -16 C565 -16 591 -16 591 -16 C591 -16 604 59 604 59 C604 59 696 580 696 580 C696 580 696 580 696 580 C701 608 744 645 771 645 C771 645 782 645 782 645 C782 645 783 649 783 653 C784 656 785 660 785 660 C785 660 710 660 710 660 C710 660 698 660 698 660 C698 660 686 660 686 660 C686 660 611 660 611 660 C611 659 609 645 609 645 C609 645 609 645 609 645 L609 645 Z M493 785 C493 785 630 927 630 927 C630 927 637 921 637 921 C637 921 507 735 507 735 C504 731 489 715 481 715 C473 715 464 731 462 735 C462 735 398 921 398 921 C398 921 406 927 406 927 C406 927 493 785 493 785 L493 785 Z " />
<glyph glyph-name="ncaron" unicode="&#x148;" horiz-adv-x="625" d="M204 80 C204 80 204 80 204 80 C204 80 258 390 258 390 C258 390 258 390 258 390 C258 390 265 430 265 430 C300 443 379 458 415 458 C469 458 508 384 498 329 C498 329 454 80 454 80 C454 80 454 80 454 80 C449 52 406 15 379 15 C379 15 368 15 368 15 C368 15 367 11 366 8 C366 4 365 0 365 0 C365 0 440 0 440 0 C440 0 475 0 475 0 C475 0 510 0 510 0 C510 0 585 0 585 0 C585 0 586 4 586 7 C586 7 588 15 588 15 C588 15 577 15 577 15 C550 15 522 49 524 76 C524 76 570 337 570 337 C582 409 540 505 478 505 C447 505 332 468 267 438 C267 438 278 500 278 500 C278 500 264 500 264 500 C264 500 126 461 126 461 C126 461 126 460 126 460 C125 457 125 452 124 452 C124 452 135 450 135 450 C169 443 189 415 186 380 C186 380 134 78 134 78 C127 50 85 15 59 15 C59 15 47 15 47 15 C47 15 47 11 46 8 C46 4 45 0 45 0 C45 0 120 0 120 0 C120 0 155 0 155 0 C155 0 190 0 190 0 C190 0 265 0 265 0 C264 0 265 4 266 8 C266 11 267 15 267 15 C267 15 256 15 256 15 C229 15 199 52 204 80 C204 80 204 80 204 80 L204 80 Z M425 625 C425 625 562 767 562 767 C562 767 568 761 568 761 C568 761 439 575 439 575 C436 571 421 555 413 555 C405 555 395 571 394 575 C394 575 330 761 330 761 C330 761 338 767 338 767 C338 767 425 625 425 625 L425 625 Z " />
<glyph glyph-name="Omacron" unicode="&#x14c;" horiz-adv-x="759" d="M368 767 C368 767 668 767 668 767 C668 767 674 806 674 806 C674 806 374 806 374 806 C374 806 368 767 368 767 L368 767 Z M385 14 C271 14 178 208 199 330 C221 452 383 646 496 646 C609 646 703 452 682 330 C660 208 498 14 385 14 L385 14 Z M114 330 C91 201 228 -5 381 -5 C535 -5 744 201 767 330 C790 459 653 665 500 665 C346 665 137 459 114 330 L114 330 Z " />
<glyph glyph-name="omacron" unicode="&#x14d;" horiz-adv-x="594" d="M254 607 C254 607 554 607 554 607 C554 607 561 646 561 646 C561 646 261 646 261 646 C261 646 254 607 254 607 L254 607 Z M299 11 C227 11 154 148 172 250 C190 352 311 489 384 489 C456 489 529 352 511 250 C493 148 372 11 299 11 L299 11 Z M94 250 C75 141 191 -5 296 -5 C402 -5 569 141 589 250 C608 359 492 505 386 505 C281 505 113 359 94 250 L94 250 Z " />
<glyph glyph-name="Obreve" unicode="&#x14e;" horiz-adv-x="759" d="M415 871 C419 823 476 758 516 758 C556 758 636 823 657 871 C657 871 645 874 645 874 C632 845 563 805 524 805 C485 805 430 845 428 874 C428 874 415 871 415 871 L415 871 Z M385 14 C271 14 178 208 199 330 C221 452 383 646 496 646 C609 646 703 452 682 330 C660 208 498 14 385 14 L385 14 Z M114 330 C91 201 228 -5 381 -5 C535 -5 744 201 767 330 C790 459 653 665 500 665 C346 665 137 459 114 330 L114 330 Z " />
<glyph glyph-name="obreve" unicode="&#x14f;" horiz-adv-x="594" d="M302 711 C306 663 363 598 403 598 C442 598 523 663 543 711 C543 711 532 714 532 714 C519 685 450 645 411 645 C372 645 317 685 315 714 C315 714 302 711 302 711 L302 711 Z M299 11 C227 11 154 148 172 250 C190 352 311 489 384 489 C456 489 529 352 511 250 C493 148 372 11 299 11 L299 11 Z M94 250 C75 141 191 -5 296 -5 C402 -5 569 141 589 250 C608 359 492 505 386 505 C281 505 113 359 94 250 L94 250 Z " />
<glyph glyph-name="Racute" unicode="&#x154;" horiz-adv-x="647" d="M376 690 C376 690 511 818 511 818 C531 838 559 867 560 870 C561 877 533 900 525 900 C523 900 497 869 480 846 C480 846 370 697 370 697 C370 697 376 690 376 690 L376 690 Z M648 0 C648 0 650 15 650 15 C650 15 645 15 645 15 C626 15 603 39 571 91 C571 91 427 327 427 327 C519 355 618 430 629 490 C641 562 537 660 446 660 C446 660 315 660 315 660 C315 660 276 660 276 660 C276 660 237 660 237 660 C237 660 162 660 162 660 C162 660 161 656 161 653 C161 653 159 645 159 645 C159 645 171 645 171 645 C197 645 227 610 223 582 C223 582 135 80 135 80 C135 80 135 80 135 80 C130 52 87 15 59 15 C59 15 48 15 48 15 C48 15 48 11 47 8 C47 4 46 0 46 0 C46 0 121 0 121 0 C121 0 159 0 159 0 C159 0 198 0 198 0 C198 0 273 0 273 0 C273 0 275 8 275 8 C275 11 276 15 276 15 C276 15 265 15 265 15 C239 15 210 50 212 77 C212 77 255 321 255 321 C255 321 254 315 254 315 C254 315 341 315 341 315 C341 315 468 106 468 106 C512 33 560 0 619 0 C619 0 648 0 648 0 L648 0 Z M362 335 C362 335 329 335 329 335 C329 335 257 335 257 335 C257 335 312 641 312 641 C312 641 442 641 442 641 C499 641 558 554 547 490 C535 423 430 335 362 335 L362 335 Z " />
<glyph glyph-name="Rcaron" unicode="&#x158;" horiz-adv-x="578" d="M470 785 C470 785 607 927 607 927 C607 927 613 921 613 921 C613 921 483 735 483 735 C480 731 465 715 458 715 C450 715 440 731 439 735 C439 735 375 921 375 921 C375 921 383 927 383 927 C383 927 470 785 470 785 L470 785 Z M430 328 C521 357 618 431 629 490 C641 562 537 660 446 660 C446 660 315 660 315 660 C315 660 276 660 276 660 C276 660 237 660 237 660 C237 660 162 660 162 660 C162 660 161 656 161 653 C161 653 159 645 159 645 C159 645 171 645 171 645 C197 645 227 610 223 582 C223 582 135 80 135 80 C135 80 135 80 135 80 C130 52 87 15 59 15 C59 15 48 15 48 15 C48 15 48 11 47 8 C47 4 46 0 46 0 C46 0 121 0 121 0 C121 0 159 0 159 0 C159 0 198 0 198 0 C198 0 273 0 273 0 C273 0 275 8 275 8 C275 11 276 15 276 15 C276 15 265 15 265 15 C239 15 210 50 212 77 C212 77 255 321 255 321 C255 321 254 315 254 315 C254 315 359 315 359 315 C378 214 499 9 571 -44 C571 -44 580 -33 580 -33 C540 -4 456 203 432 328 C432 328 430 328 430 328 L430 328 Z M257 335 C257 335 312 641 312 641 C312 641 442 641 442 641 C499 641 558 554 547 490 C535 423 430 335 362 335 C362 335 257 335 257 335 L257 335 Z " />
<glyph glyph-name="rcaron" unicode="&#x159;" horiz-adv-x="421" d="M204 80 C204 80 204 80 204 80 C204 80 258 390 258 390 C258 390 258 390 258 390 C258 390 258 391 258 391 C258 391 260 402 260 402 C260 402 259 402 259 402 C259 402 260 413 260 413 C283 432 332 453 354 453 C378 453 429 425 453 425 C468 425 490 444 493 458 C496 478 461 505 419 505 C387 505 301 459 261 422 C261 422 268 500 268 500 C268 500 254 500 254 500 C254 500 126 461 126 461 C126 461 126 460 126 460 C125 457 125 452 124 452 C124 452 135 450 135 450 C169 443 189 415 186 380 C186 380 134 78 134 78 C127 50 85 15 59 15 C59 15 47 15 47 15 C47 15 47 11 46 8 C46 4 45 0 45 0 C45 0 120 0 120 0 C120 0 155 0 155 0 C155 0 190 0 190 0 C190 0 265 0 265 0 C264 0 265 4 266 8 C266 11 267 15 267 15 C267 15 256 15 256 15 C229 15 199 52 204 80 C204 80 204 80 204 80 L204 80 Z M335 625 C335 625 472 767 472 767 C472 767 478 761 478 761 C478 761 348 575 348 575 C345 571 330 555 323 555 C315 555 305 571 304 575 C304 575 240 761 240 761 C240 761 248 767 248 767 C248 767 335 625 335 625 L335 625 Z " />
<glyph glyph-name="Sacute" unicode="&#x15a;" horiz-adv-x="507" d="M318 690 C318 690 453 818 453 818 C473 838 501 867 502 870 C503 877 475 900 467 900 C464 900 439 869 422 846 C422 846 311 697 311 697 C311 697 318 690 318 690 L318 690 Z M76 193 C76 193 49 44 49 44 C82 23 204 -5 261 -5 C347 -5 479 98 493 175 C503 230 419 337 346 360 C273 384 184 467 191 506 C201 566 296 646 357 646 C368 646 386 642 406 637 C434 626 474 581 479 554 C483 536 491 486 494 467 C494 467 507 467 507 467 C507 467 534 616 534 616 C501 637 404 665 364 665 C279 665 146 556 131 475 C122 423 204 323 275 300 C350 275 440 186 432 143 C423 88 327 14 265 14 C256 14 246 15 234 17 C234 17 234 17 234 17 C184 24 104 103 95 156 C94 164 90 185 89 193 C89 193 76 193 76 193 L76 193 Z " />
<glyph glyph-name="sacute" unicode="&#x15b;" horiz-adv-x="421" d="M235 530 C235 530 370 658 370 658 C390 678 418 707 419 710 C420 717 392 740 384 740 C382 740 356 709 339 686 C339 686 229 537 229 537 C229 537 235 530 235 530 L235 530 Z M71 139 C71 139 53 33 53 33 C78 17 166 -5 207 -5 C277 -5 386 79 397 141 C403 177 348 253 301 275 C246 300 179 370 184 397 C191 436 260 489 305 489 C309 489 315 487 324 484 C324 484 324 484 324 484 C352 475 394 423 398 393 C399 387 401 371 402 366 C402 366 414 366 414 366 C414 366 431 462 431 462 C402 481 332 505 308 505 C240 505 136 429 126 373 C119 336 186 251 243 225 C286 205 339 142 334 115 C326 71 258 11 214 11 C208 11 200 12 191 13 C153 24 98 78 89 113 C87 119 84 134 82 139 C82 139 71 139 71 139 L71 139 Z " />
<glyph glyph-name="Scircumflex" unicode="&#x15c;" horiz-adv-x="507" d="M76 193 C76 193 49 44 49 44 C82 23 204 -5 261 -5 C347 -5 479 98 493 175 C503 230 419 337 346 360 C273 384 184 467 191 506 C201 566 296 646 357 646 C368 646 386 642 406 637 C434 626 474 581 479 554 C483 536 491 486 494 467 C494 467 507 467 507 467 C507 467 534 616 534 616 C501 637 404 665 364 665 C279 665 146 556 131 475 C122 423 204 323 275 300 C350 275 440 186 432 143 C423 88 327 14 265 14 C256 14 246 15 234 17 C234 17 234 17 234 17 C184 24 104 103 95 156 C94 164 90 185 89 193 C89 193 76 193 76 193 L76 193 Z M390 835 C390 835 477 693 477 693 C477 693 485 699 485 699 C485 699 421 885 421 885 C420 889 410 905 402 905 C395 905 380 889 377 885 C377 885 247 699 247 699 C247 699 253 693 253 693 C253 693 390 835 390 835 L390 835 Z " />
<glyph glyph-name="Scedilla" unicode="&#x15e;" horiz-adv-x="507" d="M76 193 C76 193 49 44 49 44 C82 23 204 -5 261 -5 C347 -5 479 98 493 175 C503 230 419 337 346 360 C273 384 184 467 191 506 C201 566 296 646 357 646 C368 646 386 642 406 637 C434 626 474 581 479 554 C483 536 491 486 494 467 C494 467 507 467 507 467 C507 467 534 616 534 616 C501 637 404 665 364 665 C279 665 146 556 131 475 C122 423 204 323 275 300 C350 275 440 186 432 143 C423 88 327 14 265 14 C256 14 246 15 234 17 C234 17 234 17 234 17 C184 24 104 103 95 156 C94 164 90 185 89 193 C89 193 76 193 76 193 L76 193 Z " />
<glyph glyph-name="scedilla" unicode="&#x15f;" horiz-adv-x="421" d="M71 139 C71 139 53 33 53 33 C78 17 166 -5 207 -5 C277 -5 386 79 397 141 C403 177 348 253 301 275 C246 300 179 370 184 397 C191 436 260 489 305 489 C309 489 315 487 324 484 C324 484 324 484 324 484 C352 475 394 423 398 393 C399 387 401 371 402 366 C402 366 414 366 414 366 C414 366 431 462 431 462 C402 481 332 505 308 505 C240 505 136 429 126 373 C119 336 186 251 243 225 C286 205 339 142 334 115 C326 71 258 11 214 11 C208 11 200 12 191 13 C153 24 98 78 89 113 C87 119 84 134 82 139 C82 139 71 139 71 139 L71 139 Z " />
<glyph glyph-name="Scaron" unicode="&#x160;" horiz-adv-x="507" d="M76 193 C76 193 49 44 49 44 C82 23 204 -5 261 -5 C347 -5 479 98 493 175 C503 230 419 337 346 360 C273 384 184 467 191 506 C201 566 296 646 357 646 C368 646 386 642 406 637 C434 626 474 581 479 554 C483 536 491 486 494 467 C494 467 507 467 507 467 C507 467 534 616 534 616 C501 637 404 665 364 665 C279 665 146 556 131 475 C122 423 204 323 275 300 C350 275 440 186 432 143 C423 88 327 14 265 14 C256 14 246 15 234 17 C234 17 234 17 234 17 C184 24 104 103 95 156 C94 164 90 185 89 193 C89 193 76 193 76 193 L76 193 Z M382 785 C382 785 519 927 519 927 C519 927 525 921 525 921 C525 921 395 735 395 735 C392 731 377 715 369 715 C361 715 352 731 350 735 C350 735 286 921 286 921 C286 921 294 927 294 927 C294 927 382 785 382 785 L382 785 Z " />
<glyph glyph-name="scaron" unicode="&#x161;" horiz-adv-x="421" d="M71 139 C71 139 53 33 53 33 C78 17 166 -5 207 -5 C277 -5 386 79 397 141 C403 177 348 253 301 275 C246 300 179 370 184 397 C191 436 260 489 305 489 C309 489 315 487 324 484 C324 484 324 484 324 484 C352 475 394 423 398 393 C399 387 401 371 402 366 C402 366 414 366 414 366 C414 366 431 462 431 462 C402 481 332 505 308 505 C240 505 136 429 126 373 C119 336 186 251 243 225 C286 205 339 142 334 115 C326 71 258 11 214 11 C208 11 200 12 191 13 C153 24 98 78 89 113 C87 119 84 134 82 139 C82 139 71 139 71 139 L71 139 Z M329 625 C329 625 466 767 466 767 C466 767 472 761 472 761 C472 761 343 575 343 575 C340 571 324 555 317 555 C309 555 299 571 298 575 C298 575 234 761 234 761 C234 761 242 767 242 767 C242 767 329 625 329 625 L329 625 Z " />
<glyph glyph-name="Tcaron" unicode="&#x164;" horiz-adv-x="620" d="M449 785 C449 785 586 927 586 927 C586 927 592 921 592 921 C592 921 462 735 462 735 C459 731 444 715 436 715 C428 715 419 731 417 735 C417 735 353 921 353 921 C353 921 361 927 361 927 C361 927 449 785 449 785 L449 785 Z M714 650 C714 652 715 658 715 660 C715 660 696 660 696 660 C696 660 635 660 635 660 C635 660 218 660 218 660 C218 660 156 660 156 660 C156 660 138 660 138 660 C137 658 136 652 135 650 C126 616 102 525 93 491 C93 491 105 491 105 491 C105 491 146 561 146 561 C166 595 238 641 272 641 C272 641 384 641 384 641 C384 641 285 80 285 80 C285 80 285 80 285 80 C280 52 237 15 210 15 C210 15 199 15 199 15 C199 15 198 11 197 8 C197 4 196 0 196 0 C196 0 271 0 271 0 C271 0 310 0 310 0 C310 0 349 0 349 0 C349 0 424 0 424 0 C424 0 425 4 425 8 C426 11 426 15 427 15 C427 15 415 15 415 15 C389 15 360 50 363 77 C363 77 462 641 462 641 C462 641 573 641 573 641 C608 641 664 595 672 561 C672 561 688 491 688 491 C688 491 700 491 700 491 C703 525 711 616 714 650 L714 650 Z " />
<glyph glyph-name="tcaron" unicode="&#x165;" horiz-adv-x="351" d="M408 500 C408 500 258 500 258 500 C258 500 258 500 258 500 C266 547 274 593 282 640 C282 640 271 640 271 640 C271 640 193 492 193 492 C193 492 193 492 193 492 C193 492 251 603 251 603 C226 555 145 485 110 481 C110 481 108 473 108 473 C108 473 183 473 183 473 C183 473 119 112 119 112 C108 47 140 -5 192 -5 C236 -5 310 23 339 44 C339 44 335 49 335 49 C322 39 272 26 232 26 C199 26 179 59 187 100 C209 224 231 349 253 473 C253 473 403 473 403 473 C403 473 408 500 408 500 L408 500 Z M549 599 C571 636 605 702 606 707 C607 715 574 723 565 723 C554 723 519 647 508 615 C508 615 448 452 448 452 C448 452 456 449 456 449 C456 449 549 599 549 599 L549 599 Z " />
<glyph glyph-name="Utilde" unicode="&#x168;" horiz-adv-x="683" d="M337 755 C341 782 372 818 391 818 C433 818 514 756 557 756 C588 756 641 817 649 862 C649 862 638 862 638 862 C633 837 600 802 580 802 C537 802 457 865 414 865 C384 865 333 802 325 755 C325 755 337 755 337 755 L337 755 Z M213 583 C213 583 148 212 148 212 C132 119 226 -5 348 -5 C466 -5 596 102 610 182 C610 182 679 570 679 570 C679 570 679 570 679 570 C685 602 734 645 764 645 C764 645 777 645 777 645 C777 645 778 649 778 653 C779 656 780 660 780 660 C780 660 695 660 695 660 C695 660 683 660 683 660 C683 660 671 660 671 660 C671 660 581 660 581 660 C581 660 581 656 580 653 C580 649 579 645 579 645 C579 645 594 645 594 645 C624 645 656 608 656 578 C656 578 588 189 588 189 C576 118 464 22 365 22 C276 22 210 122 223 197 C223 197 291 580 291 580 C291 580 291 580 291 580 C296 608 339 645 366 645 C366 645 377 645 377 645 C377 645 378 649 378 653 C379 656 380 660 380 660 C380 660 305 660 305 660 C305 660 266 660 266 660 C266 660 227 660 227 660 C227 660 152 660 152 660 C152 660 151 656 151 653 C151 653 149 645 149 645 C149 645 161 645 161 645 C187 645 216 610 213 583 L213 583 Z " />
<glyph glyph-name="utilde" unicode="&#x169;" horiz-adv-x="590" d="M249 595 C254 622 285 658 303 658 C345 658 426 596 469 596 C501 596 554 657 561 702 C561 702 550 702 550 702 C545 677 512 642 492 642 C449 642 369 705 327 705 C297 705 245 642 237 595 C237 595 249 595 249 595 L249 595 Z M503 129 C503 129 503 129 503 129 C503 129 568 500 568 500 C568 500 533 500 533 500 C533 500 498 500 498 500 C498 500 423 500 423 500 C423 500 422 496 422 493 C421 489 421 485 421 485 C421 485 432 485 432 485 C458 485 487 450 484 423 C484 423 421 66 421 66 C401 54 343 41 298 41 C236 41 179 111 188 162 C188 162 248 500 248 500 C248 500 213 500 213 500 C213 500 178 500 178 500 C178 500 103 500 103 500 C103 500 102 496 101 493 C101 489 100 485 100 485 C100 485 111 485 111 485 C138 485 167 451 164 423 C164 423 117 155 117 155 C105 87 166 -5 235 -5 C289 -5 379 28 420 56 C420 56 413 18 413 18 C413 18 413 18 413 18 C413 18 410 0 410 0 C410 0 424 0 424 0 C424 0 562 39 562 39 C562 39 562 40 562 40 C563 43 564 48 564 48 C564 48 553 50 553 50 C516 58 496 90 503 129 C503 129 503 129 503 129 L503 129 Z " />
<glyph glyph-name="Umacron" unicode="&#x16a;" horiz-adv-x="683" d="M330 767 C330 767 630 767 630 767 C630 767 637 806 637 806 C637 806 337 806 337 806 C337 806 330 767 330 767 L330 767 Z M213 583 C213 583 148 212 148 212 C132 119 226 -5 348 -5 C466 -5 596 102 610 182 C610 182 679 570 679 570 C679 570 679 570 679 570 C685 602 734 645 764 645 C764 645 777 645 777 645 C777 645 778 649 778 653 C779 656 780 660 780 660 C780 660 695 660 695 660 C695 660 683 660 683 660 C683 660 671 660 671 660 C671 660 581 660 581 660 C581 660 581 656 580 653 C580 649 579 645 579 645 C579 645 594 645 594 645 C624 645 656 608 656 578 C656 578 588 189 588 189 C576 118 464 22 365 22 C276 22 210 122 223 197 C223 197 291 580 291 580 C291 580 291 580 291 580 C296 608 339 645 366 645 C366 645 377 645 377 645 C377 645 378 649 378 653 C379 656 380 660 380 660 C380 660 305 660 305 660 C305 660 266 660 266 660 C266 660 227 660 227 660 C227 660 152 660 152 660 C152 660 151 656 151 653 C151 653 149 645 149 645 C149 645 161 645 161 645 C187 645 216 610 213 583 L213 583 Z " />
<glyph glyph-name="umacron" unicode="&#x16b;" horiz-adv-x="590" d="M242 607 C242 607 542 607 542 607 C542 607 549 646 549 646 C549 646 249 646 249 646 C249 646 242 607 242 607 L242 607 Z M503 129 C503 129 503 129 503 129 C503 129 568 500 568 500 C568 500 533 500 533 500 C533 500 498 500 498 500 C498 500 423 500 423 500 C423 500 422 496 422 493 C421 489 421 485 421 485 C421 485 432 485 432 485 C458 485 487 450 484 423 C484 423 421 66 421 66 C401 54 343 41 298 41 C236 41 179 111 188 162 C188 162 248 500 248 500 C248 500 213 500 213 500 C213 500 178 500 178 500 C178 500 103 500 103 500 C103 500 102 496 101 493 C101 489 100 485 100 485 C100 485 111 485 111 485 C138 485 167 451 164 423 C164 423 117 155 117 155 C105 87 166 -5 235 -5 C289 -5 379 28 420 56 C420 56 413 18 413 18 C413 18 413 18 413 18 C413 18 410 0 410 0 C410 0 424 0 424 0 C424 0 562 39 562 39 C562 39 562 40 562 40 C563 43 564 48 564 48 C564 48 553 50 553 50 C516 58 496 90 503 129 C503 129 503 129 503 129 L503 129 Z " />
<glyph glyph-name="Ubreve" unicode="&#x16c;" horiz-adv-x="683" d="M378 871 C381 823 439 758 478 758 C518 758 598 823 619 871 C619 871 607 874 607 874 C595 845 526 805 486 805 C447 805 392 845 390 874 C390 874 378 871 378 871 L378 871 Z M213 583 C213 583 148 212 148 212 C132 119 226 -5 348 -5 C466 -5 596 102 610 182 C610 182 679 570 679 570 C679 570 679 570 679 570 C685 602 734 645 764 645 C764 645 777 645 777 645 C777 645 778 649 778 653 C779 656 780 660 780 660 C780 660 695 660 695 660 C695 660 683 660 683 660 C683 660 671 660 671 660 C671 660 581 660 581 660 C581 660 581 656 580 653 C580 649 579 645 579 645 C579 645 594 645 594 645 C624 645 656 608 656 578 C656 578 588 189 588 189 C576 118 464 22 365 22 C276 22 210 122 223 197 C223 197 291 580 291 580 C291 580 291 580 291 580 C296 608 339 645 366 645 C366 645 377 645 377 645 C377 645 378 649 378 653 C379 656 380 660 380 660 C380 660 305 660 305 660 C305 660 266 660 266 660 C266 660 227 660 227 660 C227 660 152 660 152 660 C152 660 151 656 151 653 C151 653 149 645 149 645 C149 645 161 645 161 645 C187 645 216 610 213 583 L213 583 Z " />
<glyph glyph-name="ubreve" unicode="&#x16d;" horiz-adv-x="590" d="M290 711 C293 663 351 598 390 598 C430 598 510 663 531 711 C531 711 519 714 519 714 C507 685 438 645 399 645 C360 645 305 685 302 714 C302 714 290 711 290 711 L290 711 Z M503 129 C503 129 503 129 503 129 C503 129 568 500 568 500 C568 500 533 500 533 500 C533 500 498 500 498 500 C498 500 423 500 423 500 C423 500 422 496 422 493 C421 489 421 485 421 485 C421 485 432 485 432 485 C458 485 487 450 484 423 C484 423 421 66 421 66 C401 54 343 41 298 41 C236 41 179 111 188 162 C188 162 248 500 248 500 C248 500 213 500 213 500 C213 500 178 500 178 500 C178 500 103 500 103 500 C103 500 102 496 101 493 C101 489 100 485 100 485 C100 485 111 485 111 485 C138 485 167 451 164 423 C164 423 117 155 117 155 C105 87 166 -5 235 -5 C289 -5 379 28 420 56 C420 56 413 18 413 18 C413 18 413 18 413 18 C413 18 410 0 410 0 C410 0 424 0 424 0 C424 0 562 39 562 39 C562 39 562 40 562 40 C563 43 564 48 564 48 C564 48 553 50 553 50 C516 58 496 90 503 129 C503 129 503 129 503 129 L503 129 Z " />
<glyph glyph-name="Uring" unicode="&#x16e;" horiz-adv-x="683" d="M470 711 C441 711 403 758 408 788 C414 820 465 864 497 864 C529 864 564 820 559 788 C553 758 499 711 470 711 L470 711 Z M389 788 C382 752 431 695 467 695 C503 695 572 752 578 788 C585 827 540 880 500 880 C459 880 396 827 389 788 L389 788 Z M213 583 C213 583 148 212 148 212 C132 119 226 -5 348 -5 C466 -5 596 102 610 182 C610 182 679 570 679 570 C679 570 679 570 679 570 C685 602 734 645 764 645 C764 645 777 645 777 645 C777 645 778 649 778 653 C779 656 780 660 780 660 C780 660 695 660 695 660 C695 660 683 660 683 660 C683 660 671 660 671 660 C671 660 581 660 581 660 C581 660 581 656 580 653 C580 649 579 645 579 645 C579 645 594 645 594 645 C624 645 656 608 656 578 C656 578 588 189 588 189 C576 118 464 22 365 22 C276 22 210 122 223 197 C223 197 291 580 291 580 C291 580 291 580 291 580 C296 608 339 645 366 645 C366 645 377 645 377 645 C377 645 378 649 378 653 C379 656 380 660 380 660 C380 660 305 660 305 660 C305 660 266 660 266 660 C266 660 227 660 227 660 C227 660 152 660 152 660 C152 660 151 656 151 653 C151 653 149 645 149 645 C149 645 161 645 161 645 C187 645 216 610 213 583 L213 583 Z " />
<glyph glyph-name="uring" unicode="&#x16f;" horiz-adv-x="590" d="M382 551 C353 551 315 598 320 628 C326 660 377 704 409 704 C441 704 476 660 471 628 C465 598 411 551 382 551 L382 551 Z M301 628 C295 592 343 535 379 535 C415 535 484 592 490 628 C497 667 452 720 412 720 C371 720 308 667 301 628 L301 628 Z M503 129 C503 129 503 129 503 129 C503 129 568 500 568 500 C568 500 533 500 533 500 C533 500 498 500 498 500 C498 500 423 500 423 500 C423 500 422 496 422 493 C421 489 421 485 421 485 C421 485 432 485 432 485 C458 485 487 450 484 423 C484 423 421 66 421 66 C401 54 343 41 298 41 C236 41 179 111 188 162 C188 162 248 500 248 500 C248 500 213 500 213 500 C213 500 178 500 178 500 C178 500 103 500 103 500 C103 500 102 496 101 493 C101 489 100 485 100 485 C100 485 111 485 111 485 C138 485 167 451 164 423 C164 423 117 155 117 155 C105 87 166 -5 235 -5 C289 -5 379 28 420 56 C420 56 413 18 413 18 C413 18 413 18 413 18 C413 18 410 0 410 0 C410 0 424 0 424 0 C424 0 562 39 562 39 C562 39 562 40 562 40 C563 43 564 48 564 48 C564 48 553 50 553 50 C516 58 496 90 503 129 C503 129 503 129 503 129 L503 129 Z " />
<glyph glyph-name="Wcircumflex" unicode="&#x174;" horiz-adv-x="951" d="M113 645 C113 645 122 645 122 645 C144 645 180 608 184 580 C184 580 184 580 184 580 C184 580 282 -15 282 -15 C282 -15 302 -15 302 -15 C302 -15 621 670 621 670 C621 670 561 541 561 541 C561 541 656 -15 656 -15 C656 -15 676 -15 676 -15 C676 -15 955 580 955 580 C955 580 956 580 956 580 C969 608 1023 645 1050 645 C1050 645 1061 645 1061 645 C1061 645 1063 653 1063 653 C1063 656 1064 660 1064 660 C1064 660 993 660 993 660 C993 660 982 660 982 660 C982 660 970 660 970 660 C970 660 865 660 865 660 C865 660 864 656 864 653 C864 653 862 645 862 645 C862 645 898 645 898 645 C925 645 944 611 935 584 C935 584 713 107 713 107 C713 107 621 670 621 670 C621 670 602 670 602 670 C602 670 282 -15 282 -15 C282 -15 335 99 335 99 C335 99 268 583 268 583 C266 611 297 645 324 645 C324 645 344 645 344 645 C344 645 345 649 345 653 C346 656 347 660 347 660 C347 660 257 660 257 660 C257 660 214 660 214 660 C214 660 171 660 171 660 C171 660 116 660 116 660 C116 658 114 645 113 645 C113 645 113 645 113 645 L113 645 Z M640 835 C640 835 728 693 728 693 C728 693 736 699 736 699 C736 699 672 885 672 885 C670 889 660 905 653 905 C645 905 630 889 627 885 C627 885 497 699 497 699 C497 699 503 693 503 693 C503 693 640 835 640 835 L640 835 Z " />
<glyph glyph-name="Ycircumflex" unicode="&#x176;" horiz-adv-x="622" d="M368 80 C368 80 368 80 368 80 C381 157 399 255 407 300 C407 300 406 300 406 300 C406 300 625 584 625 584 C650 611 705 645 728 645 C728 645 738 645 738 645 C738 645 738 649 739 653 C739 656 740 660 740 660 C740 660 684 660 684 660 C684 660 673 660 673 660 C673 660 661 660 661 660 C661 660 551 660 551 660 C551 660 550 656 550 653 C550 653 548 645 548 645 C548 645 564 645 564 645 C600 645 611 599 588 564 C588 564 397 313 397 313 C397 313 299 582 299 582 C291 609 315 645 342 645 C342 645 359 645 359 645 C359 645 361 659 361 660 C361 660 271 660 271 660 C271 660 225 660 225 660 C225 660 178 660 178 660 C178 660 131 660 131 660 C131 660 131 656 130 653 C130 649 129 645 129 645 C129 645 137 645 137 645 C156 645 195 611 207 583 C207 583 324 270 324 270 C315 220 301 143 290 80 C290 80 290 80 290 80 C285 52 242 15 215 15 C215 15 204 15 204 15 C204 15 203 11 202 8 C202 4 201 0 201 0 C201 0 276 0 276 0 C276 0 315 0 315 0 C315 0 354 0 354 0 C354 0 429 0 429 0 C428 0 429 4 430 8 C430 11 431 15 431 15 C431 15 420 15 420 15 C393 15 363 52 368 80 C368 80 368 80 368 80 L368 80 Z M462 835 C462 835 549 693 549 693 C549 693 557 699 557 699 C557 699 493 885 493 885 C492 889 482 905 474 905 C467 905 452 889 449 885 C449 885 319 699 319 699 C319 699 325 693 325 693 C325 693 462 835 462 835 L462 835 Z " />
<glyph glyph-name="Ydieresis" unicode="&#x178;" horiz-adv-x="622" d="M536 730 C554 730 583 754 586 773 C589 791 569 816 551 816 C533 816 504 791 501 773 C497 754 517 730 536 730 L536 730 Z M351 730 C369 730 398 754 401 773 C405 791 384 816 366 816 C348 816 319 791 316 773 C313 754 333 730 351 730 L351 730 Z M368 80 C368 80 368 80 368 80 C381 157 399 255 407 300 C407 300 406 300 406 300 C406 300 625 584 625 584 C650 611 705 645 728 645 C728 645 738 645 738 645 C738 645 738 649 739 653 C739 656 740 660 740 660 C740 660 684 660 684 660 C684 660 673 660 673 660 C673 660 661 660 661 660 C661 660 551 660 551 660 C551 660 550 656 550 653 C550 653 548 645 548 645 C548 645 564 645 564 645 C600 645 611 599 588 564 C588 564 397 313 397 313 C397 313 299 582 299 582 C291 609 315 645 342 645 C342 645 359 645 359 645 C359 645 361 659 361 660 C361 660 271 660 271 660 C271 660 225 660 225 660 C225 660 178 660 178 660 C178 660 131 660 131 660 C131 660 131 656 130 653 C130 649 129 645 129 645 C129 645 137 645 137 645 C156 645 195 611 207 583 C207 583 324 270 324 270 C315 220 301 143 290 80 C290 80 290 80 290 80 C285 52 242 15 215 15 C215 15 204 15 204 15 C204 15 203 11 202 8 C202 4 201 0 201 0 C201 0 276 0 276 0 C276 0 315 0 315 0 C315 0 354 0 354 0 C354 0 429 0 429 0 C428 0 429 4 430 8 C430 11 431 15 431 15 C431 15 420 15 420 15 C393 15 363 52 368 80 C368 80 368 80 368 80 L368 80 Z " />
<glyph glyph-name="Zacute" unicode="&#x179;" horiz-adv-x="592" d="M449 690 C449 690 583 818 583 818 C603 838 631 867 632 870 C633 877 606 900 597 900 C595 900 570 869 552 846 C552 846 442 697 442 697 C442 697 449 690 449 690 L449 690 Z M551 170 C551 170 515 110 515 110 C492 72 410 20 372 20 C372 20 149 20 149 20 C149 20 646 660 646 660 C646 660 601 660 601 660 C601 660 557 660 557 660 C557 660 304 660 304 660 C304 660 243 660 243 660 C243 660 224 660 224 660 C223 658 221 652 220 650 C207 622 174 548 162 521 C162 521 174 521 174 521 C174 521 208 561 208 561 C237 595 321 641 355 641 C355 641 542 641 542 641 C542 641 46 0 46 0 C46 0 90 0 90 0 C90 0 133 0 133 0 C133 0 430 0 430 0 C430 0 507 0 507 0 C507 0 510 0 510 0 C510 2 513 8 513 10 C525 43 556 130 567 163 C562 166 551 170 551 170 L551 170 Z " />
<glyph glyph-name="zacute" unicode="&#x17a;" horiz-adv-x="483" d="M278 530 C278 530 413 658 413 658 C433 678 461 707 461 710 C463 717 435 740 427 740 C425 740 399 709 382 686 C382 686 271 537 271 537 C271 537 278 530 278 530 L278 530 Z M420 8 C431 40 461 126 473 158 C472 158 471 159 470 160 C464 162 456 166 456 166 C456 166 421 106 421 106 C398 67 316 16 277 16 C277 16 145 16 145 16 C145 16 522 500 522 500 C522 500 481 500 481 500 C481 500 441 500 441 500 C441 500 239 500 239 500 C239 500 177 500 177 500 C177 500 159 500 159 500 C159 500 155 492 155 492 C146 471 121 415 111 394 C111 394 123 394 123 394 C123 394 137 407 137 407 C169 440 257 484 291 484 C291 484 428 484 428 484 C428 484 50 0 50 0 C50 0 92 0 92 0 C92 0 133 0 133 0 C133 0 337 0 337 0 C337 0 413 0 413 0 C413 0 417 0 417 0 C417 2 419 6 420 8 L420 8 Z " />
<glyph glyph-name="Zdotaccent" unicode="&#x17b;" horiz-adv-x="592" d="M457 730 C475 730 504 754 507 773 C510 791 490 816 472 816 C453 816 425 791 421 773 C418 754 438 730 457 730 L457 730 Z M551 170 C551 170 515 110 515 110 C492 72 410 20 372 20 C372 20 149 20 149 20 C149 20 646 660 646 660 C646 660 601 660 601 660 C601 660 557 660 557 660 C557 660 304 660 304 660 C304 660 243 660 243 660 C243 660 224 660 224 660 C223 658 221 652 220 650 C207 622 174 548 162 521 C162 521 174 521 174 521 C174 521 208 561 208 561 C237 595 321 641 355 641 C355 641 542 641 542 641 C542 641 46 0 46 0 C46 0 90 0 90 0 C90 0 133 0 133 0 C133 0 430 0 430 0 C430 0 507 0 507 0 C507 0 510 0 510 0 C510 2 513 8 513 10 C525 43 556 130 567 163 C562 166 551 170 551 170 L551 170 Z " />
<glyph glyph-name="zdotaccent" unicode="&#x17c;" horiz-adv-x="483" d="M362 570 C380 570 409 594 412 613 C415 631 395 656 377 656 C359 656 330 631 327 613 C324 594 344 570 362 570 L362 570 Z M420 8 C431 40 461 126 473 158 C472 158 471 159 470 160 C464 162 456 166 456 166 C456 166 421 106 421 106 C398 67 316 16 277 16 C277 16 145 16 145 16 C145 16 522 500 522 500 C522 500 481 500 481 500 C481 500 441 500 441 500 C441 500 239 500 239 500 C239 500 177 500 177 500 C177 500 159 500 159 500 C159 500 155 492 155 492 C146 471 121 415 111 394 C111 394 123 394 123 394 C123 394 137 407 137 407 C169 440 257 484 291 484 C291 484 428 484 428 484 C428 484 50 0 50 0 C50 0 92 0 92 0 C92 0 133 0 133 0 C133 0 337 0 337 0 C337 0 413 0 413 0 C413 0 417 0 417 0 C417 2 419 6 420 8 L420 8 Z " />
<glyph glyph-name="Zcaron" unicode="&#x17d;" horiz-adv-x="592" d="M551 170 C551 170 515 110 515 110 C492 72 410 20 372 20 C372 20 149 20 149 20 C149 20 646 660 646 660 C646 660 601 660 601 660 C601 660 557 660 557 660 C557 660 304 660 304 660 C304 660 243 660 243 660 C243 660 224 660 224 660 C223 658 221 652 220 650 C207 622 174 548 162 521 C162 521 174 521 174 521 C174 521 208 561 208 561 C237 595 321 641 355 641 C355 641 542 641 542 641 C542 641 46 0 46 0 C46 0 90 0 90 0 C90 0 133 0 133 0 C133 0 430 0 430 0 C430 0 507 0 507 0 C507 0 510 0 510 0 C510 2 513 8 513 10 C525 43 556 130 567 163 C562 166 551 170 551 170 L551 170 Z M466 785 C466 785 603 927 603 927 C603 927 610 921 610 921 C610 921 480 735 480 735 C477 731 462 715 454 715 C446 715 437 731 435 735 C435 735 371 921 371 921 C371 921 379 927 379 927 C379 927 466 785 466 785 L466 785 Z " />
<glyph glyph-name="zcaron" unicode="&#x17e;" horiz-adv-x="483" d="M372 625 C372 625 509 767 509 767 C509 767 515 761 515 761 C515 761 385 575 385 575 C382 571 367 555 359 555 C351 555 342 571 341 575 C341 575 276 761 276 761 C276 761 285 767 285 767 C285 767 372 625 372 625 L372 625 Z M420 8 C431 40 461 126 473 158 C472 158 471 159 470 160 C464 162 456 166 456 166 C456 166 421 106 421 106 C398 67 316 16 277 16 C277 16 145 16 145 16 C145 16 522 500 522 500 C522 500 481 500 481 500 C481 500 441 500 441 500 C441 500 239 500 239 500 C239 500 177 500 177 500 C177 500 159 500 159 500 C159 500 155 492 155 492 C146 471 121 415 111 394 C111 394 123 394 123 394 C123 394 137 407 137 407 C169 440 257 484 291 484 C291 484 428 484 428 484 C428 484 50 0 50 0 C50 0 92 0 92 0 C92 0 133 0 133 0 C133 0 337 0 337 0 C337 0 413 0 413 0 C413 0 417 0 417 0 C417 2 419 6 420 8 L420 8 Z " />
<glyph glyph-name="SmallLetterOwithogon" unicode="&#x1eb;" horiz-adv-x="699" d="M705 -51 C705 -51 699 -46 699 -46 C683 -63 602 -85 559 -85 C497 -85 402 -41 364 -5 C502 5 680 171 698 277 C717 385 591 558 452 558 C313 558 126 385 107 277 C89 172 206 6 338 -4 C390 -60 494 -130 544 -130 C578 -130 671 -85 705 -51 L705 -51 Z M356 13 C253 13 166 175 184 277 C202 378 346 541 449 541 C552 541 639 378 621 277 C603 175 458 13 356 13 L356 13 Z " />
<glyph glyph-name="CapitalLetterAwithdo" unicode="&#x226;" horiz-adv-x="654" d="M444 730 C462 730 491 754 495 773 C498 791 478 816 459 816 C441 816 412 791 409 773 C406 754 426 730 444 730 L444 730 Z M573 80 C573 80 573 80 573 80 C573 80 444 675 444 675 C444 675 425 675 425 675 C425 675 112 79 112 79 C96 51 42 15 15 15 C15 15 3 15 3 15 C4 15 3 11 2 8 C2 4 1 0 1 0 C1 0 71 0 71 0 C71 0 83 0 83 0 C83 0 96 0 96 0 C96 0 206 0 206 0 C206 0 208 8 208 8 C208 11 209 15 209 15 C209 15 184 15 184 15 C150 15 127 61 145 95 C145 95 145 95 145 95 C145 95 217 235 217 235 C217 235 458 235 458 235 C458 235 489 79 489 79 C493 51 465 15 437 15 C437 15 403 15 403 15 C403 15 403 11 402 8 C402 4 401 0 401 0 C401 0 505 0 505 0 C505 0 547 0 547 0 C547 0 590 0 590 0 C590 0 650 0 650 0 C650 0 651 4 651 7 C652 11 653 15 652 15 C652 15 643 15 643 15 C619 15 579 52 573 80 C573 80 573 80 573 80 L573 80 Z M454 255 C454 255 227 255 227 255 C227 255 391 571 391 571 C391 571 454 255 454 255 L454 255 Z " />
<glyph glyph-name="LETTERSMALLCAPITALG" unicode="&#x262;" horiz-adv-x="750" d="M701 260 C701 260 626 260 626 260 C626 260 595 260 595 260 C595 260 563 260 563 260 C563 260 488 260 488 260 C488 260 487 256 487 252 C486 249 485 245 486 245 C486 245 497 245 497 245 C523 245 551 211 549 184 C539 126 530 71 526 49 C467 30 389 13 353 13 C260 13 164 164 184 277 C204 390 354 541 446 541 C455 541 467 540 480 538 C480 538 480 537 480 537 C529 529 609 447 618 394 C620 386 624 364 625 356 C625 356 638 356 638 356 C638 356 663 497 663 497 C622 523 499 558 449 558 C324 558 128 397 107 277 C85 156 224 -5 349 -5 C402 -5 540 30 590 56 C590 56 601 116 612 181 C619 209 660 245 687 245 C687 245 699 245 699 245 C699 246 701 260 701 260 L701 260 Z " />
<glyph glyph-name="LETTERSMALLCAPITALI" unicode="&#x26a;" horiz-adv-x="303" d="M154 0 C154 0 189 0 189 0 C189 0 264 0 264 0 C264 0 265 4 265 8 C266 11 266 15 267 15 C267 15 255 15 255 15 C229 15 199 51 203 78 C203 78 272 473 272 473 C272 473 272 473 272 473 C277 501 320 538 348 538 C348 538 359 538 359 538 C359 538 360 543 360 546 C361 549 361 553 361 553 C361 553 286 553 286 553 C286 553 251 553 251 553 C251 553 216 553 216 553 C216 553 141 553 141 553 C142 553 141 549 140 546 C140 543 139 538 139 538 C139 538 150 538 150 538 C176 538 206 502 202 475 C202 475 133 80 133 80 C133 80 133 80 133 80 C128 52 85 15 58 15 C58 15 47 15 47 15 C47 15 46 11 45 8 C45 4 44 0 44 0 C44 0 119 0 119 0 C119 0 154 0 154 0 L154 0 Z " />
<glyph glyph-name="LETTERSMALLCAPITALN" unicode="&#x274;" horiz-adv-x="646" d="M593 473 C593 473 594 473 594 473 C594 473 527 102 527 102 C527 102 277 553 277 553 C277 553 235 553 235 553 C235 553 230 524 230 524 C230 524 277 553 277 553 C277 553 230 524 230 524 C230 524 235 553 235 553 C235 553 225 553 225 553 C225 553 214 553 214 553 C214 553 139 553 139 553 C139 553 139 549 138 546 C138 543 137 538 137 538 C137 538 148 538 148 538 C174 538 204 502 200 475 C200 475 131 80 131 80 C131 80 131 80 131 80 C126 52 83 15 56 15 C56 15 44 15 44 15 C45 15 44 11 43 8 C43 4 42 0 42 0 C42 0 117 0 117 0 C117 0 127 0 127 0 C127 0 138 0 138 0 C138 0 213 0 213 0 C213 0 214 4 214 8 C215 11 216 15 215 15 C215 15 204 15 204 15 C178 15 148 51 152 78 C152 78 224 493 224 493 C224 493 483 28 483 28 C483 28 506 -14 506 -14 C506 -14 529 -14 529 -14 C529 -14 540 54 540 54 C540 54 616 480 616 480 C626 507 664 538 690 538 C690 538 701 538 701 538 C701 538 702 543 702 546 C703 549 704 553 704 553 C704 553 629 553 629 553 C629 553 618 553 618 553 C618 553 608 553 608 553 C608 553 533 553 533 553 C533 553 532 549 531 546 C531 543 530 538 530 538 C530 538 541 538 541 538 C568 538 598 501 593 473 L593 473 Z " />
<glyph glyph-name="LETTERSMALLCAPITALR" unicode="&#x280;" horiz-adv-x="591" d="M142 538 C142 538 154 538 154 538 C180 538 210 502 206 475 C206 475 137 80 137 80 C137 80 137 80 137 80 C132 52 89 15 61 15 C61 15 50 15 50 15 C50 14 48 0 48 0 C48 0 123 0 123 0 C123 0 158 0 158 0 C158 0 193 0 193 0 C193 0 268 0 268 0 C267 0 268 4 269 8 C269 11 270 15 270 15 C270 15 259 15 259 15 C232 15 203 49 206 77 C206 77 239 264 239 264 C239 264 294 264 294 264 C294 264 411 106 411 106 C464 33 513 0 565 0 C565 0 591 0 591 0 C591 0 594 14 594 14 C594 14 589 14 589 14 C571 14 544 39 504 93 C504 93 370 274 370 274 C452 298 540 362 549 412 C559 472 462 553 378 553 C378 553 290 553 290 553 C290 553 255 553 255 553 C255 553 220 553 220 553 C220 553 145 553 145 553 C145 552 143 538 142 538 C142 538 142 538 142 538 L142 538 Z M312 281 C312 281 281 281 281 281 C281 281 242 281 242 281 C242 281 287 536 287 536 C287 536 375 536 375 536 C427 536 485 465 475 412 C466 356 372 281 312 281 C312 281 312 281 312 281 L312 281 Z " />
<glyph glyph-name="LETTERSMALLCAPITALY" unicode="&#x28f;" horiz-adv-x="555" d="M500 455 C500 455 349 261 349 261 C349 261 273 476 273 476 C266 504 289 538 316 538 C316 538 333 538 333 538 C333 538 334 543 334 546 C335 549 336 553 336 553 C336 553 246 553 246 553 C246 553 204 553 204 553 C204 553 162 553 162 553 C162 553 115 553 115 553 C115 553 114 549 114 546 C113 543 112 538 112 538 C112 538 121 538 121 538 C139 538 178 504 191 477 C191 477 287 228 287 228 C280 188 270 130 261 80 C261 80 261 80 261 80 C256 52 213 15 186 15 C186 15 175 15 175 15 C175 15 174 11 173 8 C173 4 172 0 172 0 C172 0 247 0 247 0 C247 0 282 0 282 0 C282 0 317 0 317 0 C317 0 392 0 392 0 C392 0 393 4 393 8 C394 11 395 15 395 15 C395 15 384 15 384 15 C357 15 329 48 331 76 C342 139 355 218 362 254 C362 254 362 254 362 254 C362 254 535 473 535 473 C535 473 535 473 535 473 C557 501 618 538 641 538 C641 538 651 538 651 538 C651 538 652 543 652 546 C653 549 654 553 654 553 C654 553 598 553 598 553 C598 553 587 553 587 553 C587 553 577 553 577 553 C577 553 467 553 467 553 C467 553 466 549 465 546 C465 543 464 538 464 538 C464 538 480 538 480 538 C516 538 527 492 500 455 L500 455 Z " />
<glyph glyph-name="LETTERSMALLCAPITALB" unicode="&#x299;" horiz-adv-x="546" d="M142 538 C142 538 154 538 154 538 C180 538 210 502 206 475 C206 475 137 80 137 80 C137 80 137 80 137 80 C132 52 89 15 61 15 C61 15 50 15 50 15 C50 14 48 0 48 0 C48 0 123 0 123 0 C123 0 158 0 158 0 C158 0 193 0 193 0 C193 0 301 0 301 0 C397 0 541 87 553 153 C563 210 465 283 369 299 C451 320 540 379 547 425 C557 480 460 553 378 553 C378 553 290 553 290 553 C290 553 255 553 255 553 C255 553 220 553 220 553 C220 553 145 553 145 553 C145 552 143 538 142 538 L142 538 Z M327 302 C327 302 310 301 310 301 C310 301 246 301 246 301 C246 301 245 298 245 298 C245 298 245 298 245 298 C245 298 287 536 287 536 C287 536 375 536 375 536 C427 536 486 472 477 425 C469 375 387 310 327 302 L327 302 Z M196 18 C196 18 244 288 244 288 C244 288 309 288 309 288 C392 288 490 211 480 153 C470 95 365 18 297 18 C297 18 196 18 196 18 L196 18 Z " />
<glyph glyph-name="LETTERSMALLCAPITALH" unicode="&#x29c;" horiz-adv-x="714" d="M677 15 C677 15 666 15 666 15 C639 15 609 52 614 80 C614 80 613 80 613 80 C613 80 683 473 683 473 C683 473 683 473 683 473 C688 501 731 538 758 538 C758 538 769 538 769 538 C770 538 770 543 771 546 C771 549 772 553 772 553 C772 553 697 553 697 553 C697 553 662 553 662 553 C662 553 627 553 627 553 C627 553 552 553 552 553 C552 553 551 549 551 546 C550 543 549 538 549 538 C549 538 561 538 561 538 C587 538 616 504 613 476 C613 476 583 302 583 302 C583 302 241 302 241 302 C241 302 272 481 272 481 C282 507 320 538 346 538 C346 538 357 538 357 538 C357 538 358 543 358 546 C359 549 360 553 360 553 C360 553 285 553 285 553 C285 553 250 553 250 553 C250 553 215 553 215 553 C215 553 140 553 140 553 C140 553 139 549 138 546 C138 543 137 538 137 538 C137 538 148 538 148 538 C175 538 205 501 200 473 C200 473 201 473 201 473 C201 473 131 80 131 80 C131 80 131 80 131 80 C126 52 83 15 56 15 C56 15 45 15 45 15 C45 15 44 11 43 8 C43 4 42 0 42 0 C42 0 117 0 117 0 C117 0 152 0 152 0 C152 0 187 0 187 0 C187 0 262 0 262 0 C262 0 263 4 263 8 C264 11 265 15 265 15 C265 15 253 15 253 15 C227 15 198 49 201 77 C201 77 237 284 237 284 C237 284 579 284 579 284 C579 284 542 74 542 74 C532 47 493 15 468 15 C468 15 457 15 457 15 C457 15 456 11 456 8 C456 8 454 0 454 0 C454 0 529 0 529 0 C529 0 564 0 564 0 C564 0 599 0 599 0 C599 0 674 0 674 0 C675 0 677 13 677 15 C677 15 677 15 677 15 L677 15 Z " />
<glyph glyph-name="LETTERSMALLCAPITALL" unicode="&#x29f;" horiz-adv-x="551" d="M200 473 C200 473 201 473 201 473 C201 473 131 80 131 80 C131 80 131 80 131 80 C126 52 83 15 56 15 C56 15 45 15 45 15 C45 15 44 11 43 8 C43 4 42 0 42 0 C42 0 117 0 117 0 C117 0 152 0 152 0 C152 0 187 0 187 0 C187 0 359 0 359 0 C359 0 437 0 437 0 C437 0 439 0 439 0 C440 2 442 7 442 9 C454 41 484 128 496 160 C496 160 494 161 493 161 C487 164 479 167 479 168 C479 168 444 108 444 108 C421 70 342 19 303 18 C303 18 301 18 301 18 C301 18 190 18 190 18 C190 18 272 481 272 481 C282 507 320 538 346 538 C346 538 357 538 357 538 C357 538 358 543 358 546 C359 549 360 553 360 553 C360 553 285 553 285 553 C285 553 250 553 250 553 C250 553 215 553 215 553 C215 553 140 553 140 553 C140 553 139 549 138 546 C138 543 137 538 137 538 C137 538 148 538 148 538 C175 538 205 501 200 473 C200 473 200 473 200 473 L200 473 Z " />
<glyph glyph-name="LETTERSMALLCAPITALA" unicode="&#x1d00;" horiz-adv-x="586" d="M584 15 C584 15 574 15 574 15 C552 15 516 46 505 72 C505 72 392 566 392 566 C392 566 374 566 374 566 C374 566 112 77 112 77 C95 49 42 15 16 15 C16 15 4 15 4 15 C4 15 4 11 3 8 C3 4 2 0 2 0 C2 0 71 0 71 0 C71 0 83 0 83 0 C83 0 94 0 94 0 C94 0 204 0 204 0 C204 0 206 8 206 8 C206 11 207 15 207 15 C207 15 182 15 182 15 C148 15 127 60 143 94 C143 94 198 197 198 197 C198 197 403 197 403 197 C403 197 429 77 429 77 C432 49 404 15 377 15 C377 15 344 15 344 15 C344 15 343 11 342 8 C342 4 341 0 341 0 C341 0 445 0 445 0 C445 0 483 0 483 0 C483 0 522 0 522 0 C522 0 582 0 582 0 C582 1 584 15 584 15 C584 15 584 15 584 15 L584 15 Z M399 214 C399 214 207 215 207 215 C207 215 343 474 343 474 C343 474 399 214 399 214 L399 214 Z " />
<glyph glyph-name="LETTERSMALLCAPITALC" unicode="&#x1d04;" horiz-adv-x="655" d="M658 356 C658 356 683 497 683 497 C642 523 514 558 459 558 C330 558 128 397 107 277 C85 156 230 -5 360 -5 C415 -5 555 30 605 56 C605 56 630 197 630 197 C630 197 617 197 617 197 C613 189 602 168 597 160 C567 104 449 24 381 14 C374 13 368 13 363 13 C266 13 164 164 184 277 C204 390 360 541 456 541 C467 541 482 539 499 536 C499 536 499 536 499 536 C549 528 629 446 638 393 C640 386 644 364 645 356 C645 356 658 356 658 356 L658 356 Z " />
<glyph glyph-name="LETTERSMALLCAPITALD" unicode="&#x1d05;" horiz-adv-x="642" d="M142 538 C142 538 154 538 154 538 C180 538 210 502 206 475 C206 475 137 80 137 80 C137 80 137 80 137 80 C132 52 89 15 61 15 C61 15 50 15 50 15 C50 14 48 0 48 0 C48 0 123 0 123 0 C123 0 158 0 158 0 C158 0 193 0 193 0 C193 0 303 0 303 0 C427 0 621 158 641 277 C662 395 509 553 373 553 C373 553 290 553 290 553 C290 553 255 553 255 553 C255 553 220 553 220 553 C220 553 145 553 145 553 C145 552 143 538 142 538 L142 538 Z M196 18 C196 18 287 536 287 536 C287 536 370 536 370 536 C476 536 591 388 571 277 C552 166 400 18 306 18 C306 18 196 18 196 18 L196 18 Z " />
</font>
</svg>
