<?xml version="1.0" encoding="UTF-8"?>
<svg xmlns="http://www.w3.org/2000/svg" xmlns:xlink="http://www.w3.org/1999/xlink" version="1.2" >
<font id="Aara Thin Italic">
<font-face  font-family="Aara" units-per-em="1024" ascent="936" descent="-280" font-style="italic" font-weight="100" font-stretch="normal" cap-height="660" x-height="500" underline-position="0" underline-thickness="0" />
<missing-glyph  horiz-adv-x="472" d="M0 700 C0 700 432 700 432 700 C432 700 432 0 432 0 C432 0 0 0 0 0 C0 0 0 700 0 700 L0 700 Z M50 50 C50 50 382 50 382 50 C382 50 382 650 382 650 C382 650 50 650 50 650 C50 650 50 50 50 50 L50 50 Z " />
<glyph glyph-name="NULL" d="" />
<glyph glyph-name="CR" unicode="&#xd;" horiz-adv-x="256" d="" />
<glyph glyph-name="space" unicode="&#x20;" horiz-adv-x="250" d="" />
<glyph glyph-name="exclam" unicode="&#x21;" horiz-adv-x="153" d="M74 -5 C82 -5 95 6 97 15 C98 24 89 35 81 35 C72 35 58 24 57 15 C55 6 65 -5 74 -5 L74 -5 Z M202 620 C207 639 200 665 190 665 C181 665 165 639 162 620 C162 620 93 110 93 110 C93 110 95 110 95 110 C95 110 202 620 202 620 L202 620 Z " />
<glyph glyph-name="quotedbl" unicode="&#x22;" horiz-adv-x="212" d="M237 660 C237 660 229 489 229 489 C229 489 236 489 236 489 C236 489 288 660 288 660 C288 660 237 660 237 660 L237 660 Z M156 660 C156 660 148 489 148 489 C148 489 155 489 155 489 C155 489 207 660 207 660 C207 660 156 660 156 660 L156 660 Z " />
<glyph glyph-name="numbersign" unicode="&#x23;" horiz-adv-x="525" d="M512 692 C512 692 442 468 442 468 C442 468 288 468 288 468 C288 468 358 692 358 692 C358 692 350 692 350 692 C350 692 280 468 280 468 C280 468 143 468 143 468 C143 468 138 452 138 452 C138 452 275 452 275 452 C275 452 198 208 198 208 C198 208 60 208 60 208 C60 208 55 192 55 192 C55 192 193 192 193 192 C193 192 133 0 133 0 C133 0 141 0 141 0 C141 0 201 192 201 192 C201 192 355 192 355 192 C355 192 295 0 295 0 C295 0 303 0 303 0 C303 0 363 192 363 192 C363 192 494 192 494 192 C494 192 499 208 499 208 C499 208 368 208 368 208 C368 208 445 452 445 452 C445 452 583 452 583 452 C583 452 588 468 588 468 C588 468 450 468 450 468 C450 468 520 692 520 692 C520 692 512 692 512 692 L512 692 Z M283 452 C283 452 437 452 437 452 C437 452 360 208 360 208 C360 208 206 208 206 208 C206 208 283 452 283 452 L283 452 Z " />
<glyph glyph-name="dollar" unicode="&#x24;" horiz-adv-x="499" d="M393 735 C393 735 380 662 380 662 C368 664 357 665 348 665 C337 665 325 663 313 659 C313 659 326 735 326 735 C326 735 313 735 313 735 C313 735 299 654 299 654 C231 625 154 550 144 491 C137 453 187 388 245 349 C245 349 188 26 188 26 C145 54 101 105 95 143 C94 151 90 172 89 180 C89 180 76 180 76 180 C76 180 53 48 53 48 C53 48 55 52 55 52 C55 52 55 52 56 52 C56 52 53 48 53 48 C74 35 130 18 185 7 C185 7 170 -75 170 -75 C170 -75 183 -75 183 -75 C183 -75 197 5 197 5 C221 0 243 -3 262 -4 C262 -4 250 -75 250 -75 C250 -75 263 -75 263 -75 C263 -75 275 -5 275 -5 C277 -5 279 -5 281 -5 C355 -5 471 89 483 159 C491 209 410 304 335 334 C335 334 392 654 392 654 C397 653 402 651 408 650 C437 640 477 596 482 569 C485 550 494 499 497 480 C497 480 510 480 510 480 C510 480 533 612 533 612 C507 628 442 649 393 659 C393 659 406 735 406 735 C406 735 393 735 393 735 L393 735 Z M199 18 C199 18 257 342 257 342 C271 333 286 325 301 321 C307 319 313 317 319 314 C319 314 264 2 264 2 C255 2 245 4 235 5 C235 5 235 5 235 5 C224 6 212 11 199 18 C199 18 199 18 199 18 L199 18 Z M323 339 C323 339 322 339 322 339 C302 345 281 355 261 369 C261 369 312 653 312 653 C324 658 335 660 346 660 C355 660 366 659 379 656 C379 656 323 339 323 339 L323 339 Z M250 377 C198 414 155 468 161 500 C170 553 237 621 298 648 C298 648 250 377 250 377 L250 377 Z M331 309 C402 274 473 193 466 150 C454 86 349 1 282 1 C280 1 278 1 276 1 C276 1 331 309 331 309 L331 309 Z " />
<glyph glyph-name="ampersand" unicode="&#x26;" horiz-adv-x="692" d="M322 364 C408 384 532 483 543 544 C552 596 486 665 427 665 C369 665 274 575 263 508 C258 481 276 423 302 360 C213 330 89 218 78 158 C66 89 170 -5 260 -5 C327 -5 413 35 481 89 C560 21 645 -8 693 0 C693 0 693 3 693 3 C651 -4 572 28 494 100 C546 144 585 195 593 240 C593 240 599 270 599 270 C609 327 664 365 700 365 C700 365 715 365 715 365 C715 365 717 373 717 373 C717 376 718 380 718 380 C718 380 524 380 524 380 C524 380 523 376 522 373 C522 369 521 365 521 365 C521 365 536 365 536 365 C568 365 605 327 594 270 C594 270 589 240 589 240 C581 196 543 146 492 103 C461 132 430 167 403 209 C375 250 345 309 322 364 C322 364 322 364 322 364 L322 364 Z M320 367 C293 431 275 490 280 517 C291 578 374 661 425 661 C478 661 536 593 527 543 C516 484 402 386 320 367 C320 367 320 367 320 367 L320 367 Z M478 92 C414 41 335 4 273 4 C186 4 86 97 98 166 C109 224 222 329 303 357 C327 300 358 240 386 197 C414 155 445 120 478 92 C478 92 478 92 478 92 L478 92 Z " />
<glyph glyph-name="quotesingle" unicode="&#x27;" horiz-adv-x="130" d="M40 660 C40 660 62 489 62 489 C62 489 69 489 69 489 C69 489 91 660 91 660 C91 660 40 660 40 660 L40 660 Z " />
<glyph glyph-name="parenleft" unicode="&#x28;" horiz-adv-x="164" d="M274 690 C226 643 138 442 107 270 C77 98 95 -103 126 -150 C126 -150 129 -148 129 -148 C102 -107 91 90 123 270 C154 450 235 647 276 688 C276 688 274 690 274 690 L274 690 Z " />
<glyph glyph-name="parenright" unicode="&#x29;" horiz-adv-x="164" d="M-16 -150 C31 -103 119 98 150 270 C180 442 163 643 132 690 C132 690 129 688 129 688 C156 647 166 450 134 270 C103 90 23 -107 -19 -148 C-19 -148 -16 -150 -16 -150 L-16 -150 Z " />
<glyph glyph-name="asterisk" unicode="&#x2a;" horiz-adv-x="245" d="M149 541 C149 541 49 605 49 605 C40 611 35 598 43 595 C43 595 149 541 149 541 C149 541 149 540 149 540 C149 540 149 539 149 539 C149 539 43 485 43 485 C34 482 40 469 49 475 C49 475 149 539 149 539 C149 539 144 420 144 420 C144 417 147 412 150 412 C153 412 156 417 156 420 C156 420 151 539 151 539 C151 539 251 475 251 475 C260 469 265 482 257 485 C257 485 151 539 151 539 C151 539 151 540 151 540 C151 540 151 541 151 541 C151 541 257 595 257 595 C266 598 260 611 251 605 C251 605 151 541 151 541 C151 541 156 660 156 660 C156 663 153 668 150 668 C147 668 144 663 144 660 C144 660 149 541 149 541 L149 541 Z " />
<glyph glyph-name="plus" unicode="&#x2b;" horiz-adv-x="555" d="M349 450 C349 450 315 254 315 254 C315 254 120 254 120 254 C120 254 118 246 118 246 C118 246 313 246 313 246 C313 246 279 50 279 50 C279 50 289 50 289 50 C289 50 323 246 323 246 C323 246 518 246 518 246 C518 246 520 254 520 254 C520 254 325 254 325 254 C325 254 359 450 359 450 C359 450 349 450 349 450 L349 450 Z " />
<glyph glyph-name="comma" unicode="&#x2c;" horiz-adv-x="150" d="M78 -5 C79 -5 81 -5 83 -4 C83 -9 83 -15 82 -19 C79 -34 63 -60 54 -64 C54 -64 55 -68 55 -68 C71 -61 96 -25 100 -6 C101 -1 101 6 100 13 C100 13 100 14 100 14 C102 22 93 33 85 33 C77 33 64 22 62 14 C61 6 70 -5 78 -5 L78 -5 Z " />
<glyph glyph-name="hyphen" unicode="&#x2d;" horiz-adv-x="280" d="M60 227 C60 227 300 227 300 227 C300 227 303 243 303 243 C303 243 63 243 63 243 C63 243 60 227 60 227 L60 227 Z " />
<glyph glyph-name="period" unicode="&#x2e;" horiz-adv-x="205" d="M124 -5 C133 -5 146 6 148 15 C149 24 140 35 131 35 C123 35 109 24 108 15 C106 6 116 -5 124 -5 L124 -5 Z " />
<glyph glyph-name="slash" unicode="&#x2f;" horiz-adv-x="318" d="M-26 -145 C-26 -145 -17 -145 -17 -145 C-17 -145 444 710 444 710 C444 710 435 710 435 710 C435 710 -26 -145 -26 -145 L-26 -145 Z " />
<glyph glyph-name="zero" unicode="0" horiz-adv-x="590" d="M295 -1 C200 -1 97 143 116 250 C135 357 288 501 384 501 C479 501 581 357 562 250 C543 143 390 -1 295 -1 L295 -1 Z M94 250 C75 141 190 -5 294 -5 C399 -5 566 141 585 250 C604 359 489 505 384 505 C279 505 113 359 94 250 L94 250 Z " />
<glyph glyph-name="one" unicode="1" horiz-adv-x="280" d="M140 0 C140 0 150 0 150 0 C150 0 225 0 225 0 C225 0 226 4 226 8 C227 11 228 15 228 15 C228 15 216 15 216 15 C190 15 161 50 164 78 C164 78 224 420 224 420 C224 420 224 420 224 420 C229 448 272 485 299 485 C299 485 311 485 311 485 C311 485 311 489 312 493 C312 496 313 500 313 500 C313 500 238 500 238 500 C238 500 228 500 228 500 C228 500 218 500 218 500 C218 500 143 500 143 500 C143 500 142 496 142 493 C141 489 141 485 141 485 C141 485 152 485 152 485 C178 485 207 450 204 422 C204 422 144 80 144 80 C144 80 144 80 144 80 C139 52 96 15 69 15 C69 15 58 15 58 15 C58 15 57 11 56 8 C56 4 55 0 55 0 C55 0 130 0 130 0 C130 0 140 0 140 0 L140 0 Z " />
<glyph glyph-name="two" unicode="2" horiz-adv-x="478" d="M448 10 C448 10 448 10 448 10 C452 28 465 77 470 95 C470 95 455 95 455 95 C455 95 452 84 452 84 C445 56 398 20 370 20 C370 20 59 20 59 20 C240 127 463 265 477 347 C489 414 416 505 350 505 C295 505 172 420 135 357 C135 357 138 356 138 356 C171 413 285 490 338 490 C398 490 464 404 453 340 C438 255 224 121 53 20 C53 20 52 20 52 20 C52 20 48 17 48 17 C40 12 33 8 26 4 C26 4 25 0 25 0 C25 0 445 0 445 0 C445 0 448 10 448 10 L448 10 Z " />
<glyph glyph-name="three" unicode="3" horiz-adv-x="449" d="M-12 -215 C149 -206 389 -60 407 40 C419 113 320 210 233 210 C223 210 200 206 178 201 C282 243 406 335 413 379 C423 433 359 505 302 505 C253 505 125 431 78 375 C78 375 80 374 80 374 C122 423 242 490 289 490 C342 490 401 423 392 373 C383 326 253 229 155 195 C150 193 144 192 140 190 C140 190 139 187 139 187 C140 187 141 188 142 188 C160 193 205 199 227 199 C306 199 397 107 385 39 C368 -60 141 -204 -11 -212 C-11 -212 -12 -215 -12 -215 L-12 -215 Z " />
<glyph glyph-name="four" unicode="4" horiz-adv-x="490" d="M33 9 C33 9 32 9 32 9 C32 9 32 7 32 7 C32 7 28 3 28 3 C28 3 27 0 27 0 C27 0 31 0 31 0 C31 0 32 0 32 0 C32 0 350 0 350 0 C350 0 324 -150 324 -150 C324 -150 344 -150 344 -150 C353 -100 362 -50 370 0 C370 0 480 0 480 0 C480 0 482 9 482 9 C482 9 372 9 372 9 C401 172 430 335 458 499 C458 499 458 499 458 499 C458 499 458 499 458 499 C458 501 459 503 459 505 C459 505 456 505 456 505 C456 505 33 9 33 9 L33 9 Z M40 9 C40 9 435 472 435 472 C435 472 433 469 433 469 C433 469 352 9 352 9 C352 9 40 9 40 9 L40 9 Z " />
<glyph glyph-name="five" unicode="5" horiz-adv-x="433" d="M113 243 C113 243 118 243 118 243 C118 243 186 243 186 243 C280 243 387 137 373 58 C356 -38 142 -173 -1 -178 C-1 -178 -1 -182 -1 -182 C150 -177 377 -36 394 64 C409 149 298 263 200 263 C200 263 123 263 123 263 C123 263 179 479 179 479 C179 479 458 479 458 479 C458 479 463 489 463 489 C463 489 464 489 464 489 C473 508 497 557 507 575 C507 575 492 575 492 575 C492 575 486 564 486 564 C472 536 417 500 389 500 C389 500 184 500 184 500 C184 500 178 500 178 500 C178 500 113 243 113 243 L113 243 Z " />
<glyph glyph-name="six" unicode="6" horiz-adv-x="571" d="M642 715 C455 709 163 472 133 301 C110 170 203 -5 296 -5 C397 -5 548 121 559 215 C575 305 483 425 399 425 C301 425 169 303 152 203 C148 230 148 258 152 283 C153 288 157 302 158 308 C187 474 464 705 642 712 C642 712 642 715 642 715 L642 715 Z M155 186 C155 186 155 186 155 186 C157 286 295 420 395 420 C471 420 553 302 538 214 C527 123 391 1 300 1 C237 1 174 90 155 186 L155 186 Z " />
<glyph glyph-name="seven" unicode="7" horiz-adv-x="436" d="M116 490 C116 490 115 490 115 490 C111 471 98 423 93 405 C93 405 108 405 108 405 C108 405 111 416 111 416 C118 443 165 480 193 480 C193 480 500 480 500 480 C500 480 513 500 513 500 C380 287 248 73 115 -140 C115 -140 137 -140 137 -140 C263 73 388 286 514 498 C514 498 513 500 513 500 C513 500 118 500 118 500 C118 500 116 490 116 490 L116 490 Z " />
<glyph glyph-name="eight" unicode="8" horiz-adv-x="539" d="M348 343 C343 344 339 345 335 345 C268 351 192 443 203 506 C215 572 324 661 394 661 C465 661 544 576 533 513 C521 445 418 351 348 343 C348 343 348 343 348 343 L348 343 Z M351 343 C428 353 538 447 550 516 C561 580 473 665 395 665 C318 665 197 569 185 498 C174 434 246 342 316 327 C234 325 112 233 100 164 C87 92 190 -5 280 -5 C369 -5 507 96 520 172 C531 235 438 326 351 343 C351 343 351 343 351 343 L351 343 Z M319 326 C323 326 326 325 330 325 C414 318 511 226 500 165 C488 94 363 -1 282 -1 C200 -1 107 95 120 167 C132 235 246 326 319 326 C319 326 319 326 319 326 L319 326 Z " />
<glyph glyph-name="nine" unicode="9" horiz-adv-x="571" d="M17 -215 C205 -209 496 28 526 199 C549 330 456 505 363 505 C262 505 112 379 100 285 C85 195 176 75 261 75 C358 75 491 197 508 297 C512 270 512 242 508 217 C507 212 503 198 502 192 C473 26 196 -205 18 -212 C18 -212 17 -215 17 -215 L17 -215 Z M505 314 C505 314 505 314 505 314 C502 214 365 80 265 80 C188 80 106 198 121 286 C133 377 269 499 360 499 C423 499 486 410 505 314 L505 314 Z " />
<glyph glyph-name="colon" unicode="&#x3a;" horiz-adv-x="205" d="M187 352 C196 352 209 363 211 372 C212 380 203 392 194 392 C186 392 172 380 171 372 C169 363 178 352 187 352 L187 352 Z M124 -5 C133 -5 146 6 148 15 C149 24 140 35 131 35 C123 35 109 24 108 15 C106 6 116 -5 124 -5 L124 -5 Z " />
<glyph glyph-name="semicolon" unicode="&#x3b;" horiz-adv-x="150" d="M140 345 C148 345 162 357 163 365 C165 374 155 385 147 385 C138 385 125 374 123 365 C122 357 131 345 140 345 L140 345 Z M78 -5 C79 -5 81 -5 83 -4 C83 -9 83 -15 82 -19 C79 -34 63 -60 54 -64 C54 -64 55 -68 55 -68 C71 -61 96 -25 100 -6 C101 -1 101 6 100 13 C100 13 100 14 100 14 C102 22 93 33 85 33 C77 33 64 22 62 14 C61 6 70 -5 78 -5 L78 -5 Z " />
<glyph glyph-name="less" unicode="&#x3c;" horiz-adv-x="532" d="M545 500 C545 500 92 281 92 281 C92 281 89 280 89 280 C89 280 88 270 88 270 C88 270 90 269 90 269 C90 269 466 50 466 50 C466 50 468 60 468 60 C468 60 96 275 96 275 C96 275 544 490 544 490 C544 490 545 500 545 500 L545 500 Z " />
<glyph glyph-name="equal" unicode="&#x3d;" horiz-adv-x="523" d="M109 204 C109 204 108 196 108 196 C108 196 488 196 488 196 C488 196 489 204 489 204 C489 204 109 204 109 204 L109 204 Z M127 304 C127 304 125 296 125 296 C125 296 505 296 505 296 C505 296 507 304 507 304 C507 304 127 304 127 304 L127 304 Z " />
<glyph glyph-name="greater" unicode="&#x3e;" horiz-adv-x="530" d="M523 275 C523 275 86 60 86 60 C86 60 84 50 84 50 C84 50 527 269 527 269 C527 269 528 272 528 272 C528 272 528 272 528 272 C528 272 527 269 527 269 C527 269 538 275 538 275 C538 275 539 275 539 275 C539 275 530 281 530 281 C530 281 163 500 163 500 C163 500 161 490 161 490 C161 490 523 275 523 275 L523 275 Z " />
<glyph glyph-name="question" unicode="&#x3f;" horiz-adv-x="365" d="M141 -5 C150 -5 163 6 165 15 C166 24 157 35 148 35 C140 35 126 24 125 15 C123 6 133 -5 141 -5 L141 -5 Z M200 360 C200 360 159 104 159 104 C159 104 162 104 162 104 C162 104 209 348 209 348 C209 348 244 348 244 348 C332 348 406 430 411 458 C427 546 332 665 247 665 C210 665 155 625 150 596 C150 594 156 593 162 593 C187 593 225 649 250 649 C331 649 421 541 407 460 C403 435 330 363 240 363 C240 363 205 363 205 363 C203 363 200 361 200 360 L200 360 Z " />
<glyph glyph-name="at" unicode="&#x40;" horiz-adv-x="1121" d="M1046 0 C980 -103 679 -241 519 -241 C310 -241 79 45 116 259 C154 473 485 759 695 759 C904 759 1143 521 1112 343 C1086 197 936 2 850 2 C750 2 664 115 700 200 C700 200 819 480 819 480 C819 480 801 480 801 480 C801 480 753 368 753 368 C754 423 701 490 652 490 C541 490 362 325 341 201 C327 123 404 17 476 17 C528 17 631 101 674 173 C663 90 749 -5 845 -5 C939 -5 1101 194 1127 343 C1159 523 912 764 696 764 C479 764 139 475 101 259 C63 43 302 -246 518 -246 C679 -246 985 -105 1053 0 C1053 0 1046 0 1046 0 L1046 0 Z M747 355 C747 355 681 200 681 200 C650 126 539 28 488 28 C421 28 350 129 363 205 C384 324 549 484 651 484 C702 484 757 410 747 355 C747 355 747 355 747 355 L747 355 Z " />
<glyph glyph-name="A" unicode="A" horiz-adv-x="595" d="M518 80 C518 80 518 80 518 80 C518 80 421 675 421 675 C421 675 415 675 415 675 C415 675 115 80 115 80 C115 80 115 80 115 80 C101 52 46 15 19 15 C19 15 8 15 8 15 C8 15 7 11 6 8 C6 4 5 0 5 0 C5 0 75 0 75 0 C75 0 79 0 79 0 C79 0 83 0 83 0 C83 0 193 0 193 0 C193 0 195 14 195 15 C195 15 170 15 170 15 C138 15 116 55 127 88 C127 88 203 239 203 239 C203 239 468 239 468 239 C468 239 494 74 494 74 C494 47 465 15 439 15 C439 15 404 15 404 15 C404 15 403 11 403 8 C403 8 401 0 401 0 C401 0 506 0 506 0 C506 0 519 0 519 0 C519 0 531 0 531 0 C531 0 591 0 591 0 C591 0 592 4 592 7 C593 11 593 15 593 15 C593 15 584 15 584 15 C560 15 522 52 518 80 C518 80 518 80 518 80 L518 80 Z M468 244 C468 244 205 244 205 244 C205 244 405 643 405 643 C405 643 468 244 468 244 L468 244 Z " />
<glyph glyph-name="B" unicode="B" horiz-adv-x="568" d="M364 354 C355 355 346 356 337 356 C337 356 219 355 219 355 C219 355 273 660 273 660 C273 660 262 660 262 660 C262 660 251 660 251 660 C251 660 176 660 176 660 C176 660 175 656 174 653 C174 649 173 645 173 645 C173 645 184 645 184 645 C210 645 239 610 237 583 C237 583 147 74 147 74 C137 47 98 15 73 15 C73 15 62 15 62 15 C62 15 61 11 61 8 C61 8 59 0 59 0 C59 0 134 0 134 0 C134 0 146 0 146 0 C146 0 157 0 157 0 C157 0 341 0 341 0 C430 0 567 102 580 179 C592 246 483 334 377 352 C377 352 377 352 377 352 C465 370 576 452 587 515 C599 577 510 660 432 660 C432 660 273 660 273 660 C273 660 272 654 272 654 C272 654 431 654 431 654 C499 654 576 574 565 515 C554 451 444 366 364 354 C364 354 364 354 364 354 L364 354 Z M359 350 C461 334 569 246 557 179 C544 105 419 6 340 6 C340 6 158 6 158 6 C158 6 218 349 218 349 C218 349 345 349 345 349 C350 349 354 349 359 350 C359 350 359 350 359 350 L359 350 Z " />
<glyph glyph-name="C" unicode="C" horiz-adv-x="698" d="M722 471 C722 471 745 601 745 601 C702 629 560 665 496 665 C352 665 126 473 101 330 C76 187 234 -5 378 -5 C442 -5 597 31 649 59 C649 59 672 189 672 189 C672 189 659 189 659 189 C655 181 643 159 639 151 C610 96 479 10 410 3 C410 3 410 3 410 3 C398 2 388 1 379 1 C245 1 101 189 126 330 C150 471 362 659 495 659 C514 659 541 656 571 650 C621 634 693 557 702 509 C704 501 707 479 709 471 C709 471 722 471 722 471 L722 471 Z " />
<glyph glyph-name="D" unicode="D" horiz-adv-x="666" d="M146 0 C146 0 157 0 157 0 C157 0 332 0 332 0 C454 0 650 189 675 330 C700 471 545 660 404 660 C404 660 273 660 273 660 C273 660 272 654 272 654 C272 654 403 654 403 654 C534 654 677 469 653 330 C628 191 445 6 333 6 C333 6 158 6 158 6 C158 6 273 660 273 660 C273 660 262 660 262 660 C262 660 251 660 251 660 C251 660 176 660 176 660 C176 660 175 656 174 653 C174 649 173 645 173 645 C173 645 184 645 184 645 C210 645 239 610 237 583 C237 583 147 74 147 74 C137 47 98 15 73 15 C73 15 62 15 62 15 C62 15 61 11 61 8 C61 8 59 0 59 0 C59 0 134 0 134 0 C134 0 146 0 146 0 L146 0 Z " />
<glyph glyph-name="E" unicode="E" horiz-adv-x="547" d="M516 519 C522 549 535 628 541 657 C541 657 541 660 541 660 C541 660 539 660 539 660 C539 660 461 660 461 660 C461 660 254 660 254 660 C254 660 242 660 242 660 C242 660 231 660 231 660 C231 660 156 660 156 660 C156 659 154 645 154 645 C154 645 165 645 165 645 C191 645 221 610 217 582 C217 582 129 80 129 80 C129 80 129 80 129 80 C124 52 81 15 54 15 C54 15 43 15 43 15 C43 15 42 11 41 8 C41 4 40 0 40 0 C40 0 115 0 115 0 C115 0 126 0 126 0 C126 0 137 0 137 0 C137 0 353 0 353 0 C353 0 432 0 432 0 C432 0 433 0 433 0 C433 0 434 2 434 3 C444 32 472 111 483 141 C482 140 482 140 481 141 C477 140 472 140 472 141 C472 141 472 141 472 141 C472 141 472 141 472 141 C472 141 448 106 448 106 C419 64 326 7 282 6 C282 6 280 6 280 6 C280 6 138 6 138 6 C138 6 254 660 254 660 C254 660 253 654 253 654 C253 654 385 654 385 654 C428 654 494 597 500 554 C500 554 505 519 505 519 C505 519 516 519 516 519 L516 519 Z M414 264 C417 282 425 328 429 349 C429 349 429 349 429 349 C429 349 430 355 430 355 C430 355 430 355 430 355 C433 373 440 414 443 430 C443 430 431 430 431 430 C431 430 425 419 425 419 C412 391 346 355 310 355 C310 355 200 355 200 355 C200 355 199 349 199 349 C199 349 309 349 309 349 C345 349 397 308 400 277 C400 277 402 264 402 264 C402 264 414 264 414 264 L414 264 Z " />
<glyph glyph-name="F" unicode="F" horiz-adv-x="462" d="M403 259 C406 277 414 323 418 344 C418 344 418 344 418 344 C418 344 419 350 419 350 C419 350 419 350 419 350 C422 368 429 409 432 425 C432 425 420 425 420 425 C420 425 414 414 414 414 C401 386 335 350 299 350 C299 350 199 350 199 350 C199 350 254 660 254 660 C254 660 253 654 253 654 C253 654 415 654 415 654 C458 654 524 597 530 554 C530 554 535 519 535 519 C535 519 546 519 546 519 C552 549 565 628 571 657 C571 657 571 660 571 660 C571 660 569 660 569 660 C569 660 491 660 491 660 C491 660 254 660 254 660 C254 660 242 660 242 660 C242 660 231 660 231 660 C231 660 156 660 156 660 C156 659 154 645 154 645 C154 645 165 645 165 645 C191 645 221 610 217 582 C217 582 129 80 129 80 C129 80 129 80 129 80 C124 52 81 15 54 15 C54 15 43 15 43 15 C43 15 42 11 41 8 C41 4 40 0 40 0 C40 0 115 0 115 0 C115 0 126 0 126 0 C126 0 137 0 137 0 C137 0 222 0 222 0 C222 0 224 8 224 8 C224 11 225 15 225 15 C225 15 205 15 205 15 C178 15 149 50 151 77 C151 77 198 346 198 346 C198 346 198 344 198 344 C198 344 298 344 298 344 C334 344 387 303 390 272 C390 272 391 259 391 259 C391 259 403 259 403 259 L403 259 Z " />
<glyph glyph-name="G" unicode="G" horiz-adv-x="821" d="M781 310 C781 310 706 310 706 310 C706 310 696 310 696 310 C696 310 686 310 686 310 C686 310 611 310 611 310 C612 310 611 306 610 303 C610 299 609 295 609 295 C609 295 620 295 620 295 C647 295 677 258 672 230 C672 230 672 230 672 230 C658 147 643 67 641 56 C578 30 451 1 395 1 C267 1 129 189 154 330 C178 471 383 659 512 659 C529 659 553 656 579 651 C629 635 701 558 710 509 C712 501 715 479 717 471 C717 471 730 471 730 471 C730 471 753 601 753 601 C710 629 573 665 513 665 C374 665 154 473 129 330 C104 187 256 -5 394 -5 C457 -5 610 31 662 59 C662 59 678 146 693 234 C701 262 741 295 768 295 C768 295 779 295 779 295 C779 295 781 309 781 310 C781 310 781 310 781 310 L781 310 Z " />
<glyph glyph-name="H" unicode="H" horiz-adv-x="760" d="M154 645 C154 645 165 645 165 645 C191 645 221 610 217 582 C217 582 129 80 129 80 C129 80 129 80 129 80 C124 52 81 15 54 15 C54 15 43 15 43 15 C43 15 42 11 41 8 C41 4 40 0 40 0 C40 0 115 0 115 0 C115 0 126 0 126 0 C126 0 137 0 137 0 C137 0 212 0 212 0 C212 0 214 8 214 8 C214 11 215 15 215 15 C215 15 204 15 204 15 C177 15 149 50 151 77 C151 77 198 344 198 344 C198 344 684 344 684 344 C684 344 637 80 637 80 C637 80 637 80 637 80 C632 52 589 15 562 15 C562 15 551 15 551 15 C551 15 550 11 550 8 C550 8 548 0 548 0 C548 0 623 0 623 0 C623 0 634 0 634 0 C634 0 646 0 646 0 C646 0 721 0 721 0 C720 0 721 4 722 8 C722 11 723 15 723 15 C723 15 712 15 712 15 C686 15 656 50 660 78 C660 78 748 580 748 580 C748 580 748 580 748 580 C753 608 796 645 823 645 C823 645 834 645 834 645 C834 645 836 653 836 653 C836 656 837 660 837 660 C837 660 762 660 762 660 C762 660 751 660 751 660 C751 660 740 660 740 660 C740 660 665 660 665 660 C665 660 664 656 663 653 C663 649 662 645 662 645 C662 645 673 645 673 645 C699 645 728 610 726 583 C726 583 685 350 685 350 C685 350 199 350 199 350 C199 350 241 587 241 587 C251 614 290 645 315 645 C315 645 326 645 326 645 C326 645 327 649 327 653 C328 656 329 660 329 660 C329 660 254 660 254 660 C254 660 242 660 242 660 C242 660 231 660 231 660 C231 660 156 660 156 660 C156 659 154 645 154 645 C154 645 154 645 154 645 L154 645 Z " />
<glyph glyph-name="I" unicode="I" horiz-adv-x="252" d="M154 645 C154 645 165 645 165 645 C191 645 221 610 217 582 C217 582 129 80 129 80 C129 80 129 80 129 80 C124 52 81 15 54 15 C54 15 43 15 43 15 C43 15 42 11 41 8 C41 4 40 0 40 0 C40 0 115 0 115 0 C115 0 126 0 126 0 C126 0 137 0 137 0 C137 0 212 0 212 0 C212 0 214 8 214 8 C214 11 215 15 215 15 C215 15 204 15 204 15 C177 15 149 50 151 77 C151 77 241 587 241 587 C251 614 290 645 315 645 C315 645 326 645 326 645 C326 645 327 649 327 653 C328 656 329 660 329 660 C329 660 254 660 254 660 C254 660 242 660 242 660 C242 660 231 660 231 660 C231 660 156 660 156 660 C156 659 154 645 154 645 L154 645 Z " />
<glyph glyph-name="J" unicode="J" horiz-adv-x="341" d="M307 582 C307 582 240 200 240 200 C221 94 149 -6 91 -6 C66 -6 29 26 28 50 C28 54 23 59 19 59 C15 59 9 54 9 50 C11 24 54 -10 85 -10 C157 -10 245 101 265 219 C265 219 329 580 329 580 C329 580 329 580 329 580 C334 608 377 645 404 645 C404 645 415 645 415 645 C415 645 417 653 417 653 C417 656 418 660 418 660 C418 660 343 660 343 660 C343 660 332 660 332 660 C332 660 321 660 321 660 C321 660 246 660 246 660 C246 660 245 656 244 653 C244 649 243 645 243 645 C243 645 254 645 254 645 C281 645 310 609 307 582 L307 582 Z " />
<glyph glyph-name="K" unicode="K" horiz-adv-x="625" d="M555 645 C555 645 563 645 563 645 C583 645 565 613 531 586 C531 586 219 355 219 355 C219 355 259 580 259 580 C259 580 259 580 259 580 C264 608 307 645 334 645 C334 645 345 645 345 645 C345 645 347 653 347 653 C347 656 348 660 348 660 C348 660 273 660 273 660 C273 660 262 660 262 660 C262 660 251 660 251 660 C251 660 176 660 176 660 C176 660 175 656 174 653 C174 649 173 645 173 645 C173 645 184 645 184 645 C210 645 239 610 237 583 C237 583 147 74 147 74 C137 47 98 15 73 15 C73 15 62 15 62 15 C62 15 61 11 61 8 C61 8 59 0 59 0 C59 0 134 0 134 0 C134 0 146 0 146 0 C146 0 157 0 157 0 C157 0 232 0 232 0 C232 0 232 4 233 8 C233 11 234 15 234 15 C234 15 223 15 223 15 C197 15 167 50 171 78 C171 78 219 354 219 354 C219 354 222 350 222 350 C222 350 223 351 223 351 C223 351 368 196 368 196 C465 93 579 -5 603 -5 C603 -5 615 -5 615 -5 C615 -5 616 -1 616 -1 C616 -1 611 -1 611 -1 C597 -1 489 102 388 210 C388 210 243 365 243 365 C243 365 536 583 536 583 C575 610 657 645 684 645 C684 645 695 645 695 645 C695 645 696 649 696 653 C697 656 698 660 698 660 C698 660 640 660 640 660 C640 660 636 660 636 660 C636 660 632 660 632 660 C632 660 557 660 557 660 C557 659 555 645 555 645 C555 645 555 645 555 645 L555 645 Z " />
<glyph glyph-name="L" unicode="L" horiz-adv-x="547" d="M154 645 C154 645 165 645 165 645 C191 645 221 610 217 582 C217 582 129 80 129 80 C129 80 129 80 129 80 C124 52 81 15 54 15 C54 15 43 15 43 15 C43 15 42 11 41 8 C41 4 40 0 40 0 C40 0 115 0 115 0 C115 0 126 0 126 0 C126 0 137 0 137 0 C137 0 353 0 353 0 C353 0 432 0 432 0 C432 0 433 0 433 0 C433 0 434 2 434 3 C445 34 474 117 485 148 C485 148 483 149 482 149 C476 152 469 155 469 156 C469 156 433 96 433 96 C410 58 331 7 292 6 C292 6 290 6 290 6 C290 6 138 6 138 6 C138 6 241 587 241 587 C251 614 290 645 315 645 C315 645 326 645 326 645 C326 645 327 649 327 653 C328 656 329 660 329 660 C329 660 254 660 254 660 C254 660 242 660 242 660 C242 660 231 660 231 660 C231 660 156 660 156 660 C156 659 154 645 154 645 C154 645 154 645 154 645 L154 645 Z " />
<glyph glyph-name="M" unicode="M" horiz-adv-x="793" d="M698 0 C698 0 709 0 709 0 C709 0 783 0 783 0 C783 0 784 4 784 8 C785 11 786 15 786 15 C786 15 774 15 774 15 C748 15 719 48 719 75 C719 75 785 580 785 580 C785 580 785 580 785 580 C788 608 829 645 856 645 C856 645 867 645 867 645 C867 645 868 649 868 653 C869 656 870 660 869 660 C869 660 795 660 795 660 C795 660 785 660 785 660 C785 660 783 660 783 660 C783 660 775 660 775 660 C775 660 418 23 418 23 C418 23 417 25 417 25 C417 25 274 660 274 660 C274 660 263 660 263 660 C263 660 260 660 260 660 C260 660 257 660 257 660 C257 660 182 660 182 660 C182 660 181 656 180 653 C180 649 179 645 179 645 C179 645 190 645 190 645 C216 645 243 610 240 583 C240 583 132 80 132 80 C132 80 132 80 132 80 C127 52 82 15 55 15 C55 15 44 15 44 15 C44 15 43 11 42 8 C42 4 41 0 41 0 C41 0 115 0 115 0 C115 0 119 0 119 0 C119 0 122 0 122 0 C122 0 232 0 232 0 C232 0 233 4 233 8 C234 11 235 15 235 15 C235 15 205 15 205 15 C172 15 138 57 141 90 C141 90 257 632 257 632 C257 632 399 9 399 9 C399 9 402 -5 402 -5 C402 -5 408 -5 408 -5 C408 -5 772 641 772 641 C772 641 696 75 696 75 C689 48 651 15 625 15 C625 15 614 15 614 15 C614 15 613 11 613 8 C613 8 611 0 611 0 C611 0 686 0 686 0 C686 0 698 0 698 0 L698 0 Z " />
<glyph glyph-name="N" unicode="N" horiz-adv-x="691" d="M609 645 C609 645 620 645 620 645 C646 645 676 610 672 582 C672 582 576 32 576 32 C576 32 257 660 257 660 C257 660 243 660 243 660 C243 660 242 651 242 651 C242 651 257 660 257 660 C257 660 241 650 241 650 C241 650 243 660 243 660 C243 660 240 660 240 660 C240 660 237 660 237 660 C237 660 162 660 162 660 C162 660 161 656 160 653 C160 649 159 645 159 645 C159 645 170 645 170 645 C196 645 225 610 223 583 C223 583 134 80 134 80 C134 80 134 80 134 80 C129 52 86 15 59 15 C59 15 48 15 48 15 C48 15 47 11 47 8 C47 8 45 0 45 0 C45 0 120 0 120 0 C120 0 124 0 124 0 C124 0 127 0 127 0 C127 0 202 0 202 0 C202 0 203 4 203 8 C204 11 205 15 205 15 C205 15 193 15 193 15 C167 15 137 50 141 78 C141 78 240 640 240 640 C240 640 561 9 561 9 C561 9 568 -4 568 -4 C568 -4 576 -4 576 -4 C576 -4 580 17 580 17 C580 17 679 580 679 580 C679 580 679 580 679 580 C684 608 727 645 754 645 C754 645 765 645 765 645 C765 645 767 653 767 653 C767 656 768 660 768 660 C768 660 693 660 693 660 C693 660 690 660 690 660 C690 660 686 660 686 660 C686 660 611 660 611 660 C611 659 609 645 609 645 L609 645 Z " />
<glyph glyph-name="O" unicode="O" horiz-adv-x="759" d="M390 1 C251 1 131 203 154 330 C176 457 367 659 506 659 C645 659 765 457 743 330 C721 203 529 1 390 1 L390 1 Z M129 330 C106 201 239 -5 389 -5 C539 -5 744 201 767 330 C790 459 657 665 507 665 C357 665 152 459 129 330 L129 330 Z " />
<glyph glyph-name="P" unicode="P" horiz-adv-x="551" d="M146 0 C146 0 157 0 157 0 C157 0 232 0 232 0 C232 0 232 4 233 8 C233 11 234 15 234 15 C234 15 223 15 223 15 C197 15 167 50 171 78 C171 78 210 300 210 300 C210 300 350 300 350 300 C451 300 603 402 616 478 C630 556 534 660 449 660 C449 660 273 660 273 660 C273 660 272 654 272 654 C272 654 448 654 448 654 C523 654 606 553 593 478 C580 404 442 305 351 305 C351 305 211 305 211 305 C211 305 273 660 273 660 C273 660 262 660 262 660 C262 660 251 660 251 660 C251 660 176 660 176 660 C176 660 175 656 174 653 C174 649 173 645 173 645 C173 645 184 645 184 645 C210 645 239 610 237 583 C237 583 147 74 147 74 C137 47 98 15 73 15 C73 15 62 15 62 15 C62 15 61 11 61 8 C61 8 59 0 59 0 C59 0 134 0 134 0 C134 0 146 0 146 0 L146 0 Z " />
<glyph glyph-name="Q" unicode="Q" horiz-adv-x="759" d="M792 -50 C792 -50 790 -49 790 -49 C764 -74 670 -108 624 -108 C551 -108 432 -50 393 -5 C542 -2 744 202 767 330 C790 459 657 665 507 665 C357 665 152 459 129 330 C106 202 236 -1 384 -5 C430 -57 550 -123 620 -123 C662 -123 760 -81 792 -50 L792 -50 Z M390 1 C251 1 131 203 154 330 C176 457 367 659 506 659 C645 659 765 457 743 330 C721 203 529 1 390 1 L390 1 Z " />
<glyph glyph-name="R" unicode="R" horiz-adv-x="606" d="M607 0 C607 0 608 4 608 4 C608 4 603 4 603 4 C597 4 570 35 520 102 C520 102 354 320 354 320 C446 329 573 421 585 490 C598 562 511 660 432 660 C432 660 273 660 273 660 C273 660 272 654 272 654 C272 654 431 654 431 654 C499 654 574 560 561 490 C549 419 423 324 341 324 C341 324 325 324 325 324 C325 324 214 324 214 324 C214 324 214 322 214 322 C214 322 273 660 273 660 C273 660 262 660 262 660 C262 660 251 660 251 660 C251 660 176 660 176 660 C176 660 175 656 174 653 C174 649 173 645 173 645 C173 645 184 645 184 645 C210 645 239 610 237 583 C237 583 147 74 147 74 C137 47 98 15 73 15 C73 15 62 15 62 15 C62 15 61 11 61 8 C61 8 59 0 59 0 C59 0 134 0 134 0 C134 0 146 0 146 0 C146 0 157 0 157 0 C157 0 232 0 232 0 C232 0 232 4 233 8 C233 11 234 15 234 15 C234 15 223 15 223 15 C197 15 167 50 171 78 C171 78 213 319 213 319 C213 319 329 319 329 319 C329 319 491 106 491 106 C546 33 579 0 595 0 C595 0 607 0 607 0 L607 0 Z " />
<glyph glyph-name="S" unicode="S" horiz-adv-x="499" d="M76 180 C76 180 53 48 53 48 C53 48 55 52 55 52 C55 52 55 52 56 52 C56 52 53 48 53 48 C88 26 218 -5 281 -5 C355 -5 471 89 483 159 C492 212 400 315 322 339 C245 362 153 454 161 500 C173 568 279 660 346 660 C361 660 383 656 408 650 C437 640 477 596 482 569 C485 550 494 499 497 480 C497 480 510 480 510 480 C510 480 533 612 533 612 C498 634 392 665 348 665 C274 665 157 565 144 491 C135 441 225 344 301 321 C380 297 474 199 466 150 C454 86 349 1 282 1 C269 1 253 2 235 5 C235 5 235 5 235 5 C184 12 104 91 95 143 C94 151 90 172 89 180 C89 180 76 180 76 180 L76 180 Z " />
<glyph glyph-name="T" unicode="T" horiz-adv-x="653" d="M701 657 C702 658 702 660 702 660 C702 660 696 660 696 660 C696 660 622 660 622 660 C622 660 231 660 231 660 C231 660 156 660 156 660 C156 660 151 660 151 660 C151 660 150 658 150 657 C142 625 119 537 110 504 C110 504 122 504 122 504 C122 504 163 574 163 574 C183 608 255 654 290 654 C290 654 414 654 414 654 C414 654 313 80 313 80 C313 80 313 80 313 80 C308 52 265 15 238 15 C238 15 227 15 227 15 C227 15 226 11 225 8 C225 4 224 0 224 0 C224 0 299 0 299 0 C299 0 310 0 310 0 C310 0 321 0 321 0 C321 0 396 0 396 0 C396 0 397 4 397 8 C398 11 399 15 399 15 C399 15 388 15 388 15 C361 15 333 49 335 76 C335 76 437 654 437 654 C437 654 561 654 561 654 C595 654 652 608 660 574 C660 574 676 504 676 504 C676 504 688 504 688 504 C691 537 699 625 701 657 L701 657 Z " />
<glyph glyph-name="U" unicode="U" horiz-adv-x="726" d="M715 570 C715 570 715 570 715 570 C715 570 645 176 645 176 C632 102 509 3 398 3 C286 3 200 115 215 199 C215 199 282 580 282 580 C282 580 282 580 282 580 C287 608 330 645 357 645 C357 645 368 645 368 645 C368 645 370 653 370 653 C370 656 371 660 371 660 C371 660 296 660 296 660 C296 660 285 660 285 660 C285 660 274 660 274 660 C274 660 199 660 199 660 C199 660 198 656 197 653 C197 649 196 645 196 645 C196 645 207 645 207 645 C233 645 262 610 260 583 C260 583 193 203 193 203 C177 114 271 -5 393 -5 C510 -5 638 97 652 173 C652 173 721 570 721 570 C721 570 722 570 722 570 C727 602 776 645 807 645 C807 645 820 645 820 645 C820 645 821 649 821 653 C822 656 823 660 822 660 C822 660 737 660 737 660 C737 660 734 660 734 660 C734 660 731 660 731 660 C731 660 641 660 641 660 C641 660 640 656 639 653 C639 649 638 645 638 645 C638 645 653 645 653 645 C685 645 720 602 715 570 L715 570 Z " />
<glyph glyph-name="V" unicode="V" horiz-adv-x="656" d="M643 550 C643 550 644 550 644 550 C644 550 390 16 390 16 C390 16 285 587 285 587 C286 613 314 645 339 645 C339 645 369 645 369 645 C369 645 370 649 370 653 C371 656 372 660 372 660 C372 660 272 660 272 660 C272 660 259 660 259 660 C259 660 247 660 247 660 C247 660 193 660 193 660 C193 660 192 656 191 653 C191 649 190 645 190 645 C190 645 199 645 199 645 C221 645 257 608 262 580 C262 580 262 580 262 580 C262 580 375 -15 375 -15 C375 -15 380 -15 380 -15 C380 -15 664 580 664 580 C664 580 664 580 664 580 C677 608 732 645 759 645 C759 645 770 645 770 645 C770 645 772 653 772 653 C772 656 773 660 773 660 C773 660 702 660 702 660 C702 660 699 660 699 660 C699 660 696 660 696 660 C696 660 576 660 576 660 C576 660 575 656 574 653 C574 649 573 645 573 645 C573 645 594 645 594 645 C634 645 663 591 643 550 C643 550 643 550 643 550 L643 550 Z " />
<glyph glyph-name="W" unicode="W" horiz-adv-x="949" d="M916 584 C916 584 645 -15 645 -15 C645 -15 661 21 661 21 C661 21 590 670 590 670 C590 670 584 670 584 670 C584 670 301 19 301 19 C301 19 238 580 238 580 C238 580 238 580 238 580 C235 608 268 645 295 645 C295 645 316 645 316 645 C316 645 317 649 317 653 C318 656 319 660 319 660 C319 660 229 660 229 660 C229 660 216 660 216 660 C216 660 204 660 204 660 C204 660 149 660 149 660 C149 660 148 656 147 653 C147 649 146 645 146 645 C146 645 155 645 155 645 C176 645 207 613 213 585 C213 585 286 -15 286 -15 C286 -15 292 -15 292 -15 C292 -15 573 631 573 631 C573 631 645 -15 645 -15 C645 -15 651 -15 651 -15 C651 -15 924 586 924 586 C942 613 989 645 1015 645 C1015 645 1026 645 1026 645 C1026 645 1027 649 1027 653 C1028 656 1028 660 1029 660 C1029 660 958 660 958 660 C958 660 954 660 954 660 C954 660 951 660 951 660 C951 660 846 660 846 660 C846 660 845 656 845 653 C845 653 843 645 843 645 C843 645 879 645 879 645 C906 645 925 611 916 584 L916 584 Z " />
<glyph glyph-name="X" unicode="X" horiz-adv-x="639" d="M583 580 C583 580 584 580 584 580 C584 580 394 345 394 345 C394 345 286 580 286 580 C286 580 286 580 286 580 C274 608 294 645 321 645 C321 645 347 645 347 645 C347 645 349 659 349 660 C349 660 249 660 249 660 C249 660 237 660 237 660 C237 660 224 660 224 660 C224 660 179 660 179 660 C179 660 178 656 177 653 C177 649 176 645 176 645 C176 645 184 645 184 645 C203 645 243 612 259 585 C259 585 377 327 377 327 C377 327 193 80 193 80 C193 80 193 80 193 80 C172 52 108 15 81 15 C81 15 70 15 70 15 C70 15 69 11 68 8 C68 4 67 0 67 0 C67 0 134 0 134 0 C134 0 138 0 138 0 C138 0 142 0 142 0 C142 0 252 0 252 0 C252 0 253 4 253 8 C254 11 255 15 254 15 C254 15 233 15 233 15 C201 15 188 57 209 90 C209 90 380 321 380 321 C380 321 493 74 493 74 C500 47 481 15 455 15 C455 15 430 15 430 15 C430 15 429 11 429 8 C429 8 427 0 427 0 C427 0 527 0 527 0 C527 0 540 0 540 0 C540 0 553 0 553 0 C553 0 598 0 598 0 C598 0 599 4 599 8 C600 11 601 15 601 15 C601 15 593 15 593 15 C573 15 533 49 518 76 C518 76 396 340 396 340 C396 340 592 580 592 580 C592 580 592 580 592 580 C614 608 681 645 708 645 C708 645 719 645 719 645 C719 645 721 653 721 653 C721 656 722 660 722 660 C722 660 657 660 657 660 C657 660 652 660 652 660 C652 660 648 660 648 660 C648 660 538 660 538 660 C538 660 537 656 537 653 C537 653 535 645 535 645 C535 645 571 645 571 645 C599 645 606 608 583 580 C583 580 583 580 583 580 L583 580 Z " />
<glyph glyph-name="Y" unicode="Y" horiz-adv-x="579" d="M522 645 C522 645 539 645 539 645 C573 645 589 602 570 567 C570 567 360 260 360 260 C360 260 258 580 258 580 C258 580 258 580 258 580 C249 608 274 645 302 645 C302 645 320 645 320 645 C320 645 322 659 322 660 C322 660 232 660 232 660 C232 660 219 660 219 660 C219 660 206 660 206 660 C206 660 158 660 158 660 C158 660 157 656 157 653 C156 649 155 645 156 645 C156 645 164 645 164 645 C183 645 219 611 231 583 C231 583 339 247 339 247 C332 208 320 138 310 80 C310 80 310 80 310 80 C305 52 262 15 235 15 C235 15 224 15 224 15 C224 15 223 11 222 8 C222 4 221 0 221 0 C221 0 296 0 296 0 C296 0 307 0 307 0 C307 0 318 0 318 0 C318 0 393 0 393 0 C393 0 394 4 394 8 C395 11 396 15 396 15 C396 15 385 15 385 15 C359 15 330 48 331 75 C343 140 357 219 363 257 C363 257 586 580 586 580 C586 580 586 580 586 580 C605 608 662 645 686 645 C686 645 696 645 696 645 C696 645 697 649 697 653 C698 656 699 660 698 660 C698 660 641 660 641 660 C641 660 638 660 638 660 C638 660 634 660 634 660 C634 660 524 660 524 660 C524 659 522 645 522 645 C522 645 522 645 522 645 L522 645 Z " />
<glyph glyph-name="Z" unicode="Z" horiz-adv-x="625" d="M592 156 C592 156 557 96 557 96 C534 57 452 6 414 6 C414 6 125 6 125 6 C125 6 678 660 678 660 C678 660 666 660 666 660 C666 660 653 660 653 660 C653 660 366 660 366 660 C366 660 291 660 291 660 C291 660 286 660 286 660 C286 660 285 658 285 657 C273 631 242 561 230 534 C230 534 242 534 242 534 C242 534 276 574 276 574 C304 608 389 654 423 654 C423 654 648 654 648 654 C648 654 95 0 95 0 C95 0 107 0 107 0 C107 0 120 0 120 0 C120 0 477 0 477 0 C477 0 556 0 556 0 C556 0 557 0 557 0 C557 0 557 2 558 3 C569 34 598 117 609 148 C605 149 592 156 592 156 L592 156 Z " />
<glyph glyph-name="bracketleft" unicode="&#x5b;" horiz-adv-x="213" d="M214 656 C214 656 319 656 319 656 C319 656 320 660 320 660 C320 660 215 660 215 660 C215 660 199 660 199 660 C199 660 62 -120 62 -120 C62 -120 78 -120 78 -120 C78 -120 183 -120 183 -120 C183 -120 183 -116 183 -116 C183 -116 79 -116 79 -116 C79 -116 214 656 214 656 L214 656 Z " />
<glyph glyph-name="backslash" unicode="&#x5c;" horiz-adv-x="203" d="M171 -145 C171 -145 178 -145 178 -145 C178 -145 72 710 72 710 C72 710 65 710 65 710 C65 710 171 -145 171 -145 L171 -145 Z " />
<glyph glyph-name="bracketright" unicode="&#x5d;" horiz-adv-x="195" d="M90 -116 C90 -116 -15 -116 -15 -116 C-15 -116 -16 -120 -16 -120 C-16 -120 89 -120 89 -120 C89 -120 104 -120 104 -120 C104 -120 242 660 242 660 C242 660 226 660 226 660 C226 660 121 660 121 660 C121 660 120 656 120 656 C120 656 225 656 225 656 C225 656 226 660 226 660 C226 660 90 -116 90 -116 L90 -116 Z " />
<glyph glyph-name="underscore" unicode="&#x5f;" horiz-adv-x="455" d="M-4 -50 C-4 -50 -6 -61 -6 -61 C-6 -61 439 -61 439 -61 C439 -61 441 -50 441 -50 C441 -50 -4 -50 -4 -50 L-4 -50 Z " />
<glyph glyph-name="a" unicode="a" horiz-adv-x="469" d="M453 34 C436 19 404 0 392 0 C371 0 359 31 363 54 C363 54 418 363 418 363 C429 424 378 505 330 505 C266 505 160 453 145 414 C145 414 165 414 165 414 C179 451 270 499 325 499 C366 499 407 424 397 367 C397 367 376 245 376 245 C376 245 234 226 234 226 C164 216 61 145 53 100 C45 55 98 -5 145 -5 C192 -5 298 42 347 83 C347 83 342 52 342 52 C337 25 351 -10 377 -10 C393 -10 434 14 455 31 C455 31 453 34 453 34 L453 34 Z M375 239 C375 239 348 87 348 87 C303 50 202 8 157 8 C114 8 66 64 74 106 C81 146 172 211 233 219 C233 219 375 239 375 239 L375 239 Z " />
<glyph glyph-name="b" unicode="b" horiz-adv-x="567" d="M188 453 C188 453 188 452 188 452 C188 452 215 610 215 610 C215 610 216 610 216 610 C216 610 235 720 235 720 C235 720 231 720 231 720 C231 720 135 695 135 695 C135 695 135 694 135 694 C135 690 134 686 134 686 C134 686 145 683 145 683 C179 675 199 647 196 612 C160 408 124 204 88 0 C88 0 90 0 90 0 C93 9 102 20 107 20 C146 20 230 -5 283 -5 C384 -5 545 139 564 246 C583 357 479 505 383 505 C345 505 233 475 188 453 C188 453 188 453 188 453 L188 453 Z M187 450 C229 470 330 496 366 496 C460 496 560 348 541 237 C523 136 376 1 284 1 C212 1 127 60 127 107 C127 109 128 111 128 113 C128 113 187 450 187 450 L187 450 Z " />
<glyph glyph-name="c" unicode="c" horiz-adv-x="405" d="M373 24 C373 24 371 26 371 26 C361 18 269 7 211 7 C137 7 63 144 81 246 C101 354 251 499 344 499 C382 499 427 444 423 403 C423 399 428 393 432 393 C435 393 441 398 442 402 C446 446 392 505 347 505 C244 505 79 352 59 238 C41 134 117 -5 192 -5 C253 -5 356 11 373 24 L373 24 Z " />
<glyph glyph-name="d" unicode="d" horiz-adv-x="570" d="M585 699 C585 699 589 720 589 720 C589 720 585 720 585 720 C585 720 489 695 489 695 C489 695 489 694 489 694 C489 690 488 686 488 686 C488 686 499 683 499 683 C533 675 553 647 550 612 C550 612 515 413 515 413 C492 454 403 505 341 505 C250 505 100 346 79 228 C62 128 156 -5 243 -5 C298 -5 413 32 452 60 C452 60 442 0 442 0 C442 0 446 0 446 0 C446 0 541 25 541 25 C541 25 541 26 542 26 C542 30 543 34 543 34 C543 34 532 37 532 37 C498 44 478 72 481 107 C481 107 585 699 585 699 L585 699 Z M462 110 C462 110 461 110 461 110 C461 110 453 64 453 64 C423 39 311 7 257 7 C173 7 84 138 101 236 C121 349 258 500 339 500 C403 500 498 444 513 405 C513 405 462 110 462 110 L462 110 Z " />
<glyph glyph-name="e" unicode="e" horiz-adv-x="436" d="M388 24 C388 24 386 26 386 26 C375 18 281 7 222 7 C147 7 71 144 89 246 C94 273 106 302 122 331 C122 331 444 331 444 331 C457 405 385 505 318 505 C254 505 160 423 106 334 C106 334 105 334 105 334 C105 334 104 331 104 331 C104 331 104 331 104 331 C86 300 72 267 67 238 C49 134 127 -5 203 -5 C265 -5 371 11 388 24 C388 24 388 24 388 24 L388 24 Z M124 334 C172 419 258 499 316 499 C376 499 440 412 429 347 C428 343 421 338 417 338 C417 338 427 338 427 338 C427 338 124 334 124 334 L124 334 Z " />
<glyph glyph-name="f" unicode="f" horiz-adv-x="328" d="M147 0 C147 0 157 0 157 0 C157 0 232 0 232 0 C232 0 233 4 233 8 C234 11 235 15 235 15 C235 15 223 15 223 15 C197 15 168 50 171 77 C195 216 219 354 244 492 C244 492 379 492 379 492 C379 492 380 500 380 500 C380 500 245 500 245 500 C247 511 249 522 251 533 C265 611 347 716 395 716 C418 716 447 684 445 660 C444 657 449 652 453 652 C457 652 463 657 464 660 C466 686 430 720 401 720 C345 720 249 615 233 537 C233 537 225 500 225 500 C225 500 133 500 133 500 C133 500 132 492 132 492 C132 492 224 492 224 492 C224 492 151 80 151 80 C151 80 151 80 151 80 C146 52 103 15 76 15 C76 15 65 15 65 15 C65 15 64 11 63 8 C63 4 62 0 62 0 C62 0 137 0 137 0 C137 0 147 0 147 0 L147 0 Z " />
<glyph glyph-name="g" unicode="g" horiz-adv-x="461" d="M550 500 C550 500 399 491 399 491 C399 491 399 491 399 491 C381 500 362 505 343 505 C267 505 150 417 138 352 C128 293 195 218 264 202 C264 202 235 202 235 202 C174 202 84 156 78 122 C72 87 127 44 181 38 C112 14 21 -60 14 -100 C4 -158 72 -236 134 -236 C248 -236 418 -134 431 -59 C440 -8 351 59 275 59 C275 59 202 56 202 56 C149 53 87 95 93 130 C98 160 179 199 234 199 C234 199 289 199 289 199 C365 199 482 286 494 352 C502 397 463 453 412 484 C412 484 548 489 548 489 C548 489 550 500 550 500 L550 500 Z M157 352 C168 416 274 501 342 501 C360 501 380 495 397 484 C397 484 397 483 397 483 C397 483 399 483 399 483 C446 455 483 398 475 352 C464 288 358 203 290 203 C222 203 146 288 157 352 C157 352 157 352 157 352 L157 352 Z M187 37 C191 37 195 37 199 37 C199 37 267 40 267 40 C338 40 423 -22 415 -69 C403 -138 244 -231 137 -231 C80 -231 18 -155 28 -98 C35 -58 123 15 187 37 C187 37 187 37 187 37 L187 37 Z " />
<glyph glyph-name="h" unicode="h" horiz-adv-x="612" d="M492 80 C492 80 492 80 492 80 C487 52 444 15 417 15 C417 15 406 15 406 15 C406 15 405 11 404 8 C404 4 403 0 403 0 C403 0 478 0 478 0 C478 0 488 0 488 0 C488 0 498 0 498 0 C498 0 573 0 573 0 C573 0 574 4 574 7 C575 11 575 15 576 15 C576 15 564 15 564 15 C538 15 508 50 512 78 C512 78 557 336 557 336 C570 408 522 505 454 505 C416 505 282 465 217 434 C217 434 263 699 263 699 C263 699 267 720 267 720 C267 720 263 720 263 720 C263 720 167 695 167 695 C167 695 167 694 167 694 C167 690 166 686 166 686 C166 686 177 683 177 683 C211 675 231 647 228 612 C228 612 134 80 134 80 C134 80 134 80 134 80 C129 52 86 15 59 15 C59 15 48 15 48 15 C48 15 47 11 46 8 C46 4 45 0 45 0 C45 0 120 0 120 0 C120 0 130 0 130 0 C130 0 140 0 140 0 C140 0 215 0 215 0 C215 0 216 4 216 8 C217 11 217 15 218 15 C218 15 206 15 206 15 C180 15 151 50 154 77 C154 77 216 431 216 431 C271 458 395 492 436 492 C502 492 549 401 537 333 C537 333 492 80 492 80 L492 80 Z " />
<glyph glyph-name="i" unicode="i" horiz-adv-x="260" d="M229 570 C238 570 251 581 253 590 C254 599 245 610 236 610 C228 610 214 599 213 590 C211 581 221 570 229 570 L229 570 Z M130 0 C130 0 140 0 140 0 C140 0 215 0 215 0 C215 0 216 4 216 8 C217 11 218 15 218 15 C218 15 206 15 206 15 C180 15 150 50 154 78 C154 78 209 390 209 390 C209 390 209 390 209 390 C209 390 228 500 228 500 C228 500 224 500 224 500 C224 500 129 475 129 475 C129 475 129 474 129 474 C129 474 127 466 127 466 C127 466 138 463 138 463 C172 456 192 428 189 393 C189 393 134 80 134 80 C134 80 134 80 134 80 C129 52 86 15 59 15 C59 15 48 15 48 15 C48 15 47 11 46 8 C46 4 45 0 45 0 C45 0 120 0 120 0 C120 0 130 0 130 0 L130 0 Z " />
<glyph glyph-name="j" unicode="j" horiz-adv-x="218" d="M229 570 C238 570 251 581 253 590 C254 599 245 610 236 610 C228 610 214 599 213 590 C211 581 221 570 229 570 L229 570 Z M189 393 C189 393 122 12 122 12 C104 -90 36 -190 -28 -226 C-28 -226 -27 -229 -27 -229 C48 -187 125 -83 143 18 C143 18 208 390 208 390 C208 390 209 390 209 390 C209 390 228 500 228 500 C228 500 224 500 224 500 C224 500 129 475 129 475 C129 475 129 474 129 474 C129 474 127 466 127 466 C127 466 138 463 138 463 C172 456 192 428 189 393 L189 393 Z " />
<glyph glyph-name="k" unicode="k" horiz-adv-x="532" d="M415 80 C415 80 415 80 415 80 C415 80 224 285 224 285 C224 285 429 424 429 424 C471 452 554 485 581 485 C581 485 592 485 592 485 C592 485 593 489 593 493 C594 496 595 500 595 500 C595 500 539 500 539 500 C539 500 534 500 534 500 C534 500 530 500 530 500 C530 500 455 500 455 500 C455 500 454 496 454 493 C454 493 452 485 452 485 C452 485 461 485 461 485 C481 485 454 448 414 420 C414 420 414 420 414 420 C414 420 205 275 205 275 C205 275 263 610 263 610 C263 610 264 610 264 610 C264 610 283 720 283 720 C283 720 279 720 279 720 C279 720 183 695 183 695 C183 695 183 694 183 694 C183 690 182 686 182 686 C182 686 193 683 193 683 C227 675 247 647 244 612 C244 612 150 80 150 80 C150 80 150 80 150 80 C145 52 102 15 75 15 C75 15 64 15 64 15 C64 15 63 11 62 8 C62 4 61 0 61 0 C61 0 136 0 136 0 C136 0 146 0 146 0 C146 0 156 0 156 0 C156 0 231 0 231 0 C231 0 232 4 232 8 C233 11 234 15 234 15 C234 15 222 15 222 15 C196 15 167 50 170 77 C170 77 204 274 204 274 C204 274 206 272 206 272 C206 272 207 272 207 272 C207 272 389 80 389 80 C389 80 389 80 389 80 C415 52 422 15 401 15 C401 15 392 15 392 15 C392 15 392 11 391 8 C391 4 390 0 390 0 C390 0 465 0 465 0 C465 0 477 0 477 0 C477 0 489 0 489 0 C489 0 548 0 548 0 C548 0 549 4 549 8 C550 11 551 15 551 15 C551 15 539 15 539 15 C512 15 441 52 415 80 C415 80 415 80 415 80 L415 80 Z " />
<glyph glyph-name="l" unicode="l" horiz-adv-x="260" d="M130 0 C130 0 140 0 140 0 C140 0 215 0 215 0 C215 0 216 4 216 8 C217 11 218 15 218 15 C218 15 206 15 206 15 C180 15 151 50 154 77 C154 77 247 610 247 610 C247 610 248 610 248 610 C248 610 267 720 267 720 C267 720 263 720 263 720 C263 720 167 695 167 695 C167 695 167 694 167 694 C167 690 166 686 166 686 C166 686 177 683 177 683 C211 675 231 647 228 612 C228 612 134 80 134 80 C134 80 134 80 134 80 C129 52 86 15 59 15 C59 15 48 15 48 15 C48 15 47 11 46 8 C46 4 45 0 45 0 C45 0 120 0 120 0 C120 0 130 0 130 0 L130 0 Z " />
<glyph glyph-name="m" unicode="m" horiz-adv-x="990" d="M870 80 C870 80 870 80 870 80 C865 52 822 15 795 15 C795 15 784 15 784 15 C784 15 783 11 782 8 C782 4 781 0 781 0 C781 0 856 0 856 0 C856 0 866 0 866 0 C866 0 876 0 876 0 C876 0 951 0 951 0 C951 0 952 4 952 7 C953 11 953 15 954 15 C954 15 942 15 942 15 C916 15 886 50 890 78 C890 78 935 336 935 336 C948 408 880 505 821 505 C794 505 647 448 560 405 C542 458 499 505 460 505 C415 505 282 465 217 434 C217 434 228 500 228 500 C228 500 224 500 224 500 C224 500 129 475 129 475 C129 474 129 474 128 474 C128 470 127 466 127 466 C127 466 138 463 138 463 C173 456 192 427 189 392 C189 392 134 80 134 80 C134 80 134 80 134 80 C129 52 86 15 59 15 C59 15 48 15 48 15 C48 15 47 11 46 8 C46 4 45 0 45 0 C45 0 120 0 120 0 C120 0 130 0 130 0 C130 0 140 0 140 0 C140 0 215 0 215 0 C215 0 216 4 216 8 C217 11 217 15 218 15 C218 15 206 15 206 15 C180 15 151 50 154 78 C154 78 209 390 209 390 C209 390 209 390 209 390 C209 390 216 431 216 431 C271 458 396 493 442 493 C496 493 559 402 547 333 C547 333 502 80 502 80 C502 80 502 80 502 80 C497 52 454 15 427 15 C427 15 416 15 416 15 C416 15 415 11 414 8 C414 4 413 0 413 0 C413 0 488 0 488 0 C488 0 498 0 498 0 C498 0 508 0 508 0 C508 0 583 0 583 0 C583 0 584 4 584 7 C585 11 585 15 586 15 C586 15 574 15 574 15 C548 15 518 50 522 78 C522 78 567 336 567 336 C571 357 568 380 561 403 C640 442 775 492 803 492 C860 492 927 401 915 333 C915 333 870 80 870 80 L870 80 Z " />
<glyph glyph-name="n" unicode="n" horiz-adv-x="595" d="M216 431 C271 458 396 492 436 492 C502 492 549 401 537 333 C537 333 492 80 492 80 C492 80 492 80 492 80 C487 52 444 15 417 15 C417 15 406 15 406 15 C406 15 405 11 404 8 C404 4 403 0 403 0 C403 0 478 0 478 0 C478 0 488 0 488 0 C488 0 498 0 498 0 C498 0 573 0 573 0 C573 0 574 4 574 7 C575 11 575 15 576 15 C576 15 564 15 564 15 C538 15 508 50 512 78 C512 78 557 336 557 336 C570 408 522 505 454 505 C416 505 282 465 217 434 C217 434 228 500 228 500 C228 500 224 500 224 500 C224 500 129 475 129 475 C129 474 129 474 128 474 C128 470 127 466 127 466 C127 466 138 463 138 463 C173 456 192 427 189 392 C189 392 134 80 134 80 C134 80 134 80 134 80 C129 52 86 15 59 15 C59 15 48 15 48 15 C48 15 47 11 46 8 C46 4 45 0 45 0 C45 0 120 0 120 0 C120 0 130 0 130 0 C130 0 140 0 140 0 C140 0 215 0 215 0 C215 0 216 4 216 8 C217 11 217 15 218 15 C218 15 206 15 206 15 C180 15 151 50 154 78 C154 78 209 390 209 390 C209 390 209 390 209 390 C209 390 216 431 216 431 L216 431 Z " />
<glyph glyph-name="o" unicode="o" horiz-adv-x="547" d="M265 -1 C172 -1 72 143 91 250 C110 357 260 501 354 501 C447 501 546 357 527 250 C508 143 358 -1 265 -1 L265 -1 Z M69 250 C50 141 162 -5 264 -5 C367 -5 531 141 550 250 C569 359 457 505 354 505 C252 505 88 359 69 250 L69 250 Z " />
<glyph glyph-name="p" unicode="p" horiz-adv-x="583" d="M188 416 C188 416 200 500 200 500 C200 500 196 500 196 500 C196 500 104 475 104 475 C104 474 104 474 103 474 C103 470 102 466 102 466 C102 466 113 463 113 463 C147 456 167 427 164 393 C164 393 68 -150 68 -150 C68 -150 68 -150 68 -150 C64 -178 21 -215 -7 -215 C-7 -215 -18 -215 -18 -215 C-18 -215 -19 -219 -19 -222 C-19 -222 -21 -230 -21 -230 C-21 -230 54 -230 54 -230 C54 -230 64 -230 64 -230 C64 -230 74 -230 74 -230 C74 -230 149 -230 149 -230 C149 -230 151 -222 151 -222 C151 -219 152 -215 152 -215 C152 -215 141 -215 141 -215 C114 -215 85 -181 88 -153 C88 -153 132 96 132 96 C157 45 234 -5 298 -5 C404 -5 571 142 590 252 C609 360 511 505 418 505 C360 505 231 454 188 416 C188 416 188 416 188 416 L188 416 Z M139 135 C139 135 184 390 184 390 C184 390 184 390 184 390 C184 390 186 403 186 403 C186 403 188 412 188 412 C226 447 345 492 400 492 C491 492 587 346 568 236 C550 136 396 1 299 1 C225 1 134 78 139 135 C139 135 139 135 139 135 L139 135 Z " />
<glyph glyph-name="q" unicode="q" horiz-adv-x="580" d="M410 -230 C410 -230 420 -230 420 -230 C420 -230 495 -230 495 -230 C495 -230 497 -222 497 -222 C497 -219 498 -215 498 -215 C498 -215 487 -215 487 -215 C460 -215 431 -181 434 -153 C472 65 510 282 549 500 C549 500 547 500 547 500 C544 491 533 480 529 480 C489 480 405 505 351 505 C256 505 100 346 79 228 C62 128 154 -5 241 -5 C295 -5 413 33 452 62 C452 62 414 -150 414 -150 C414 -150 414 -150 414 -150 C410 -178 366 -215 339 -215 C339 -215 328 -215 328 -215 C328 -215 327 -219 327 -222 C327 -222 325 -230 325 -230 C325 -230 400 -230 400 -230 C400 -230 410 -230 410 -230 L410 -230 Z M452 65 C421 40 309 7 254 7 C171 7 84 138 101 236 C121 348 263 499 350 499 C423 499 510 440 510 393 C510 391 509 389 509 387 C509 387 452 65 452 65 L452 65 Z " />
<glyph glyph-name="r" unicode="r" horiz-adv-x="404" d="M213 417 C213 417 225 500 225 500 C225 500 221 500 221 500 C221 500 129 475 129 475 C129 474 129 474 128 474 C128 470 127 466 127 466 C127 466 138 463 138 463 C173 456 192 427 189 392 C189 392 134 80 134 80 C134 80 134 80 134 80 C129 52 86 15 59 15 C59 15 48 15 48 15 C48 15 47 11 46 8 C46 4 45 0 45 0 C45 0 120 0 120 0 C120 0 130 0 130 0 C130 0 140 0 140 0 C140 0 215 0 215 0 C215 0 216 4 216 8 C217 11 217 15 218 15 C218 15 206 15 206 15 C180 15 151 50 154 78 C154 78 209 390 209 390 C209 390 209 390 209 390 C209 390 211 403 211 403 C211 403 213 415 213 415 C247 448 335 490 371 490 C394 490 442 460 466 460 C470 460 476 466 477 470 C480 485 437 505 389 505 C351 505 251 455 213 417 C213 417 213 417 213 417 L213 417 Z " />
<glyph glyph-name="s" unicode="s" horiz-adv-x="423" d="M72 128 C72 128 56 36 56 36 C56 36 58 40 58 40 C58 40 58 40 58 40 C58 40 56 36 56 36 C83 19 185 -5 233 -5 C293 -5 386 71 396 128 C402 161 336 235 281 257 C222 281 151 358 157 392 C165 439 243 501 293 501 C300 501 312 499 326 494 C326 494 326 494 326 494 C354 487 396 437 400 408 C400 401 403 384 404 377 C404 377 416 377 416 377 C416 377 430 459 430 459 C430 459 428 455 428 455 C428 455 428 455 427 455 C427 455 430 459 430 459 C399 478 321 505 294 505 C237 505 149 437 140 385 C134 348 205 267 265 243 C319 222 384 151 378 120 C369 69 287 0 235 0 C224 0 211 1 196 3 C158 11 98 66 89 102 C88 107 84 122 83 128 C83 128 72 128 72 128 L72 128 Z " />
<glyph glyph-name="t" unicode="t" horiz-adv-x="350" d="M408 500 C408 500 220 500 220 500 C229 547 237 593 245 640 C245 640 242 640 242 640 C242 640 201 499 201 499 C201 499 201 499 201 499 C201 499 208 525 208 525 C205 514 150 496 112 494 C112 494 112 492 112 492 C112 492 199 492 199 492 C199 492 131 110 131 110 C120 46 149 -5 197 -5 C238 -5 309 23 338 45 C338 45 337 46 337 46 C312 28 248 4 209 4 C166 4 141 49 151 106 C174 235 196 363 219 492 C219 492 407 492 407 492 C407 492 408 500 408 500 L408 500 Z " />
<glyph glyph-name="u" unicode="u" horiz-adv-x="577" d="M164 420 C164 420 164 420 164 420 C164 420 118 156 118 156 C105 87 175 -5 251 -5 C315 -5 421 33 459 62 C459 62 448 0 448 0 C448 0 452 0 452 0 C452 0 547 25 547 25 C547 25 547 26 548 26 C548 30 549 34 549 34 C549 34 538 37 538 37 C504 44 484 72 487 107 C487 107 556 500 556 500 C556 500 546 500 546 500 C546 500 536 500 536 500 C536 500 461 500 461 500 C461 500 460 496 460 493 C460 493 458 485 458 485 C458 485 470 485 470 485 C496 485 526 450 522 422 C522 422 467 110 467 110 C467 110 467 110 467 110 C467 110 459 65 459 65 C427 40 331 8 269 8 C195 8 126 94 138 159 C138 159 198 500 198 500 C198 500 188 500 188 500 C188 500 178 500 178 500 C178 500 103 500 103 500 C103 500 102 496 102 493 C102 493 100 485 100 485 C100 485 112 485 112 485 C139 485 169 448 164 420 C164 420 164 420 164 420 L164 420 Z " />
<glyph glyph-name="v" unicode="v" horiz-adv-x="526" d="M477 426 C477 426 264 17 264 17 C264 17 203 421 203 421 C200 449 228 485 253 485 C253 485 264 485 264 485 C264 485 265 489 265 493 C266 496 266 500 266 500 C266 500 191 500 191 500 C191 500 180 500 180 500 C180 500 168 500 168 500 C168 500 98 500 98 500 C99 500 98 496 97 493 C97 489 96 485 96 485 C96 485 107 485 107 485 C133 485 173 451 180 424 C180 424 250 -10 250 -10 C250 -10 254 -10 254 -10 C254 -10 480 420 480 420 C480 420 480 420 480 420 C495 448 551 485 578 485 C578 485 589 485 589 485 C589 485 590 489 590 493 C591 496 592 500 592 500 C592 500 522 500 522 500 C522 500 519 500 519 500 C519 500 515 500 515 500 C515 500 440 500 440 500 C440 500 440 496 439 493 C439 489 438 485 438 485 C438 485 448 485 448 485 C472 485 486 453 477 426 L477 426 Z " />
<glyph glyph-name="w" unicode="w" horiz-adv-x="762" d="M367 485 C367 485 385 485 385 485 C400 485 424 458 432 417 C432 417 449 313 449 313 C449 313 449 313 449 313 C449 313 295 15 295 15 C295 15 236 411 236 411 C236 411 237 411 237 411 C229 455 262 485 290 485 C290 485 308 485 308 485 C308 485 310 499 310 500 C310 500 223 500 223 500 C223 500 200 500 200 500 C200 500 145 500 145 500 C145 499 143 485 143 485 C143 485 161 485 161 485 C178 485 204 458 213 417 C213 417 282 -10 282 -10 C282 -10 286 -10 286 -10 C286 -10 450 306 450 306 C450 306 501 -10 501 -10 C501 -10 505 -10 505 -10 C505 -10 729 416 729 416 C755 458 791 485 807 485 C807 485 825 485 825 485 C825 485 826 489 826 493 C827 496 827 500 828 500 C828 500 773 500 773 500 C773 500 766 500 766 500 C766 500 661 500 661 500 C661 500 660 496 660 493 C659 489 659 485 659 485 C659 485 677 485 677 485 C711 485 739 451 714 400 C714 400 514 15 514 15 C514 15 455 411 455 411 C455 411 456 411 456 411 C448 455 485 485 517 485 C517 485 535 485 535 485 C535 485 535 489 536 493 C536 496 537 500 537 500 C537 500 442 500 442 500 C442 500 419 500 419 500 C419 500 369 500 369 500 C369 499 367 485 367 485 C367 485 367 485 367 485 L367 485 Z " />
<glyph glyph-name="x" unicode="x" horiz-adv-x="609" d="M187 76 C161 48 98 15 72 15 C72 15 52 15 52 15 C52 15 51 11 50 8 C50 4 49 0 49 0 C49 0 124 0 124 0 C124 0 128 0 128 0 C128 0 131 0 131 0 C131 0 251 0 251 0 C251 0 252 4 252 8 C253 11 254 15 254 15 C254 15 208 15 208 15 C182 15 175 49 195 77 C195 77 345 259 345 259 C345 259 454 80 454 80 C454 80 454 80 454 80 C471 52 463 15 440 15 C440 15 431 15 431 15 C431 15 430 11 429 8 C429 4 428 0 428 0 C428 0 503 0 503 0 C503 0 515 0 515 0 C515 0 528 0 528 0 C528 0 566 0 566 0 C566 0 567 4 567 8 C568 11 569 15 568 15 C568 15 561 15 561 15 C544 15 501 48 482 75 C482 75 360 275 360 275 C360 275 488 425 488 425 C516 452 578 485 604 485 C604 485 615 485 615 485 C615 485 616 489 616 493 C617 496 617 500 618 500 C618 500 553 500 553 500 C553 500 549 500 549 500 C549 500 546 500 546 500 C546 500 446 500 446 500 C446 500 445 496 445 493 C445 493 443 485 443 485 C443 485 468 485 468 485 C496 485 502 448 478 420 C478 420 358 279 358 279 C358 279 272 420 272 420 C272 420 272 420 272 420 C255 448 270 485 298 485 C298 485 311 485 311 485 C311 485 312 489 312 493 C313 496 314 500 313 500 C313 500 223 500 223 500 C223 500 211 500 211 500 C211 500 199 500 199 500 C199 500 151 500 151 500 C151 500 150 496 149 493 C149 489 148 485 148 485 C148 485 157 485 157 485 C178 485 224 453 244 426 C244 426 344 262 344 262 C344 262 342 260 342 260 C342 260 341 260 341 260 C341 260 187 76 187 76 L187 76 Z " />
<glyph glyph-name="y" unicode="y" horiz-adv-x="545" d="M501 426 C501 426 288 17 288 17 C288 17 227 421 227 421 C224 449 252 485 277 485 C277 485 288 485 288 485 C288 485 289 489 289 493 C290 496 290 500 290 500 C290 500 215 500 215 500 C215 500 204 500 204 500 C204 500 192 500 192 500 C192 500 122 500 122 500 C123 500 122 496 121 493 C121 489 120 485 120 485 C120 485 131 485 131 485 C157 485 197 451 204 424 C204 424 273 -7 273 -7 C273 -7 240 -70 240 -70 C200 -146 139 -217 114 -217 C100 -217 76 -193 62 -193 C58 -193 51 -198 51 -202 C48 -214 76 -230 99 -230 C131 -230 202 -153 245 -72 C245 -72 278 -10 278 -10 C278 -10 504 420 504 420 C504 420 504 420 504 420 C519 448 575 485 602 485 C602 485 613 485 613 485 C613 485 614 489 614 493 C615 496 616 500 616 500 C616 500 546 500 546 500 C546 500 543 500 543 500 C543 500 539 500 539 500 C539 500 464 500 464 500 C464 500 464 496 463 493 C463 489 462 485 462 485 C462 485 472 485 472 485 C496 485 510 453 501 426 L501 426 Z " />
<glyph glyph-name="z" unicode="z" horiz-adv-x="491" d="M294 5 C294 5 294 5 294 5 C294 5 100 4 100 4 C100 4 530 500 530 500 C530 500 518 500 518 500 C518 500 507 500 507 500 C507 500 247 500 247 500 C247 500 172 500 172 500 C172 500 167 500 167 500 C167 500 166 498 166 498 C157 478 134 425 125 405 C125 405 137 405 137 405 C137 405 150 419 150 419 C182 451 271 495 305 495 C305 495 305 495 305 495 C305 495 503 496 503 496 C503 496 73 0 73 0 C73 0 85 0 85 0 C85 0 97 0 97 0 C97 0 357 0 357 0 C357 0 436 0 436 0 C436 0 437 0 437 0 C437 0 438 2 438 2 C449 33 478 116 489 147 C489 147 487 148 486 148 C480 151 472 154 472 155 C472 155 437 95 437 95 C414 56 332 4 294 5 C294 5 294 5 294 5 L294 5 Z " />
<glyph glyph-name="braceleft" unicode="&#x7b;" horiz-adv-x="235" d="M200 -120 C200 -120 200 -117 200 -117 C200 -117 165 -117 165 -117 C118 -117 67 -50 76 0 C76 0 109 192 109 192 C115 225 88 270 62 270 C36 270 131 315 137 349 C137 349 171 540 171 540 C180 590 254 657 301 657 C301 657 337 657 337 657 C337 657 337 660 337 660 C337 660 297 660 297 660 C246 660 164 591 155 540 C155 540 120 338 120 338 C115 310 79 272 58 272 C58 272 53 272 53 272 C53 272 52 268 52 268 C52 268 57 268 57 268 C79 268 101 231 96 203 C96 203 60 0 60 0 C51 -51 108 -120 160 -120 C160 -120 200 -120 200 -120 L200 -120 Z " />
<glyph glyph-name="bar" unicode="&#x7c;" horiz-adv-x="135" d="M196 770 C196 770 19 -234 19 -234 C19 -234 34 -234 34 -234 C34 -234 211 770 211 770 C211 770 196 770 196 770 L196 770 Z " />
<glyph glyph-name="braceright" unicode="&#x7d;" horiz-adv-x="235" d="M121 660 C121 660 121 657 121 657 C121 657 156 657 156 657 C203 657 254 590 245 540 C245 540 212 348 212 348 C206 315 233 270 259 270 C285 270 190 225 184 191 C184 191 150 0 150 0 C141 -50 67 -117 20 -117 C20 -117 -16 -117 -16 -117 C-16 -117 -16 -120 -16 -120 C-16 -120 24 -120 24 -120 C76 -120 157 -51 166 0 C166 0 202 202 202 202 C207 230 242 268 263 268 C263 268 268 268 268 268 C268 268 269 272 269 272 C269 272 264 272 264 272 C242 272 220 309 225 337 C225 337 261 540 261 540 C270 591 213 660 161 660 C161 660 121 660 121 660 L121 660 Z " />
<glyph glyph-name="[namenotfound]" unicode="&#xa0;" horiz-adv-x="220" d="" />
<glyph glyph-name="exclamdown" unicode="&#xa1;" horiz-adv-x="153" d="M168 505 C159 505 146 494 144 485 C143 476 152 465 161 465 C169 465 183 476 184 485 C186 494 176 505 168 505 L168 505 Z M39 -120 C35 -139 42 -165 51 -165 C60 -165 76 -139 79 -120 C79 -120 149 390 149 390 C149 390 146 390 146 390 C146 390 39 -120 39 -120 L39 -120 Z " />
<glyph glyph-name="cent" unicode="&#xa2;" horiz-adv-x="454" d="M371 575 C371 575 358 503 358 503 C255 484 111 344 92 238 C74 134 150 -5 225 -5 C238 -5 253 -4 269 -3 C269 -3 256 -75 256 -75 C256 -75 270 -75 270 -75 C270 -75 283 -2 283 -2 C337 4 394 15 406 24 C406 24 404 26 404 26 C396 20 338 12 285 8 C285 8 371 499 371 499 C373 499 375 499 377 499 C415 499 460 444 456 403 C456 399 461 393 465 393 C468 393 474 398 475 402 C479 446 425 505 380 505 C377 505 374 505 372 505 C372 505 384 575 384 575 C384 575 371 575 371 575 L371 575 Z M271 8 C261 7 252 7 244 7 C170 7 96 144 114 246 C133 347 264 479 357 497 C357 497 271 8 271 8 L271 8 Z " />
<glyph glyph-name="guillemotleft" unicode="&#xab;" horiz-adv-x="455" d="M254 250 C254 250 492 461 492 461 C492 461 490 464 490 464 C490 464 231 251 231 251 C231 251 231 249 231 249 C231 249 415 36 415 36 C415 36 418 39 418 39 C418 39 254 250 254 250 L254 250 Z M87 250 C87 250 324 461 324 461 C324 461 323 464 323 464 C323 464 64 251 64 251 C64 251 64 249 64 249 C64 249 248 36 248 36 C248 36 250 39 250 39 C250 39 87 250 87 250 L87 250 Z " />
<glyph glyph-name="guillemotright" unicode="&#xbb;" horiz-adv-x="455" d="M290 250 C290 250 127 461 127 461 C127 461 129 464 129 464 C129 464 313 251 313 251 C313 251 313 249 313 249 C313 249 54 36 54 36 C54 36 52 39 52 39 C52 39 290 250 290 250 L290 250 Z M457 250 C457 250 294 461 294 461 C294 461 297 464 297 464 C297 464 480 251 480 251 C480 251 480 249 480 249 C480 249 221 36 221 36 C221 36 219 39 219 39 C219 39 457 250 457 250 L457 250 Z " />
<glyph glyph-name="questiondown" unicode="&#xbf;" horiz-adv-x="365" d="M313 505 C304 505 291 494 289 485 C287 476 297 465 306 465 C314 465 327 476 329 485 C331 494 321 505 313 505 L313 505 Z M244 152 C244 152 210 152 210 152 C121 152 48 70 42 42 C27 -46 121 -165 207 -165 C243 -165 298 -125 304 -96 C304 -94 297 -93 292 -93 C267 -93 229 -149 204 -149 C122 -149 32 -41 47 40 C51 65 124 137 214 137 C214 137 249 137 249 137 C251 137 254 139 254 140 C254 140 295 396 295 396 C295 396 292 396 292 396 C292 396 244 152 244 152 L244 152 Z " />
<glyph glyph-name="Agrave" unicode="&#xc0;" horiz-adv-x="595" d="M518 80 C518 80 518 80 518 80 C518 80 421 675 421 675 C421 675 415 675 415 675 C415 675 115 80 115 80 C115 80 115 80 115 80 C101 52 46 15 19 15 C19 15 8 15 8 15 C8 15 7 11 6 8 C6 4 5 0 5 0 C5 0 75 0 75 0 C75 0 79 0 79 0 C79 0 83 0 83 0 C83 0 193 0 193 0 C193 0 195 14 195 15 C195 15 170 15 170 15 C138 15 116 55 127 88 C127 88 203 239 203 239 C203 239 468 239 468 239 C468 239 494 74 494 74 C494 47 465 15 439 15 C439 15 404 15 404 15 C404 15 403 11 403 8 C403 8 401 0 401 0 C401 0 506 0 506 0 C506 0 519 0 519 0 C519 0 531 0 531 0 C531 0 591 0 591 0 C591 0 592 4 592 7 C593 11 593 15 593 15 C593 15 584 15 584 15 C560 15 522 52 518 80 C518 80 518 80 518 80 L518 80 Z M420 831 C406 856 387 889 385 889 C383 889 373 883 372 881 C372 879 393 846 408 823 C408 823 495 692 495 692 C495 692 498 693 498 693 C498 693 420 831 420 831 L420 831 Z M468 244 C468 244 205 244 205 244 C205 244 405 643 405 643 C405 643 468 244 468 244 L468 244 Z " />
<glyph glyph-name="Aacute" unicode="&#xc1;" horiz-adv-x="595" d="M357 692 C357 692 488 823 488 823 C511 847 543 880 543 881 C543 883 535 889 533 889 C532 889 502 856 479 831 C479 831 356 693 356 693 C356 693 357 692 357 692 L357 692 Z M518 80 C518 80 518 80 518 80 C518 80 421 675 421 675 C421 675 415 675 415 675 C415 675 115 80 115 80 C115 80 115 80 115 80 C101 52 46 15 19 15 C19 15 8 15 8 15 C8 15 7 11 6 8 C6 4 5 0 5 0 C5 0 75 0 75 0 C75 0 79 0 79 0 C79 0 83 0 83 0 C83 0 193 0 193 0 C193 0 195 14 195 15 C195 15 170 15 170 15 C138 15 116 55 127 88 C127 88 203 239 203 239 C203 239 468 239 468 239 C468 239 494 74 494 74 C494 47 465 15 439 15 C439 15 404 15 404 15 C404 15 403 11 403 8 C403 8 401 0 401 0 C401 0 506 0 506 0 C506 0 519 0 519 0 C519 0 531 0 531 0 C531 0 591 0 591 0 C591 0 592 4 592 7 C593 11 593 15 593 15 C593 15 584 15 584 15 C560 15 522 52 518 80 C518 80 518 80 518 80 L518 80 Z M468 244 C468 244 205 244 205 244 C205 244 405 643 405 643 C405 643 468 244 468 244 L468 244 Z " />
<glyph glyph-name="Acircumflex" unicode="&#xc2;" horiz-adv-x="595" d="M518 80 C518 80 518 80 518 80 C518 80 421 675 421 675 C421 675 415 675 415 675 C415 675 115 80 115 80 C115 80 115 80 115 80 C101 52 46 15 19 15 C19 15 8 15 8 15 C8 15 7 11 6 8 C6 4 5 0 5 0 C5 0 75 0 75 0 C75 0 79 0 79 0 C79 0 83 0 83 0 C83 0 193 0 193 0 C193 0 195 14 195 15 C195 15 170 15 170 15 C138 15 116 55 127 88 C127 88 203 239 203 239 C203 239 468 239 468 239 C468 239 494 74 494 74 C494 47 465 15 439 15 C439 15 404 15 404 15 C404 15 403 11 403 8 C403 8 401 0 401 0 C401 0 506 0 506 0 C506 0 519 0 519 0 C519 0 531 0 531 0 C531 0 591 0 591 0 C591 0 592 4 592 7 C593 11 593 15 593 15 C593 15 584 15 584 15 C560 15 522 52 518 80 C518 80 518 80 518 80 L518 80 Z M455 882 C455 882 535 694 535 694 C535 694 538 696 538 696 C538 696 464 899 464 899 C463 900 460 905 458 905 C455 905 453 902 451 899 C451 899 451 899 451 899 C451 899 305 696 305 696 C305 696 307 694 307 694 C307 694 455 882 455 882 L455 882 Z M468 244 C468 244 205 244 205 244 C205 244 405 643 405 643 C405 643 468 244 468 244 L468 244 Z " />
<glyph glyph-name="Atilde" unicode="&#xc3;" horiz-adv-x="595" d="M289 755 C294 786 329 827 349 827 C394 827 479 764 523 764 C547 764 587 806 593 837 C593 837 590 837 590 837 C585 812 551 777 530 777 C486 777 400 840 356 840 C332 840 292 791 285 755 C285 755 289 755 289 755 L289 755 Z M518 80 C518 80 518 80 518 80 C518 80 421 675 421 675 C421 675 415 675 415 675 C415 675 115 80 115 80 C115 80 115 80 115 80 C101 52 46 15 19 15 C19 15 8 15 8 15 C8 15 7 11 6 8 C6 4 5 0 5 0 C5 0 75 0 75 0 C75 0 79 0 79 0 C79 0 83 0 83 0 C83 0 193 0 193 0 C193 0 195 14 195 15 C195 15 170 15 170 15 C138 15 116 55 127 88 C127 88 203 239 203 239 C203 239 468 239 468 239 C468 239 494 74 494 74 C494 47 465 15 439 15 C439 15 404 15 404 15 C404 15 403 11 403 8 C403 8 401 0 401 0 C401 0 506 0 506 0 C506 0 519 0 519 0 C519 0 531 0 531 0 C531 0 591 0 591 0 C591 0 592 4 592 7 C593 11 593 15 593 15 C593 15 584 15 584 15 C560 15 522 52 518 80 C518 80 518 80 518 80 L518 80 Z M468 244 C468 244 205 244 205 244 C205 244 405 643 405 643 C405 643 468 244 468 244 L468 244 Z " />
<glyph glyph-name="Adieresis" unicode="&#xc4;" horiz-adv-x="595" d="M511 730 C519 730 533 741 535 750 C536 759 526 770 518 770 C509 770 496 759 495 750 C493 741 502 730 511 730 L511 730 Z M344 730 C352 730 366 741 367 750 C369 759 359 770 351 770 C342 770 329 759 327 750 C326 741 335 730 344 730 L344 730 Z M518 80 C518 80 518 80 518 80 C518 80 421 675 421 675 C421 675 415 675 415 675 C415 675 115 80 115 80 C115 80 115 80 115 80 C101 52 46 15 19 15 C19 15 8 15 8 15 C8 15 7 11 6 8 C6 4 5 0 5 0 C5 0 75 0 75 0 C75 0 79 0 79 0 C79 0 83 0 83 0 C83 0 193 0 193 0 C193 0 195 14 195 15 C195 15 170 15 170 15 C138 15 116 55 127 88 C127 88 203 239 203 239 C203 239 468 239 468 239 C468 239 494 74 494 74 C494 47 465 15 439 15 C439 15 404 15 404 15 C404 15 403 11 403 8 C403 8 401 0 401 0 C401 0 506 0 506 0 C506 0 519 0 519 0 C519 0 531 0 531 0 C531 0 591 0 591 0 C591 0 592 4 592 7 C593 11 593 15 593 15 C593 15 584 15 584 15 C560 15 522 52 518 80 C518 80 518 80 518 80 L518 80 Z M468 244 C468 244 205 244 205 244 C205 244 405 643 405 643 C405 643 468 244 468 244 L468 244 Z " />
<glyph glyph-name="Aring" unicode="&#xc5;" horiz-adv-x="595" d="M422 699 C388 699 344 753 350 788 C357 825 416 876 453 876 C490 876 532 825 525 788 C519 753 456 699 422 699 L422 699 Z M345 788 C338 752 386 695 421 695 C457 695 524 752 531 788 C538 827 494 880 454 880 C414 880 352 827 345 788 L345 788 Z M518 80 C518 80 518 80 518 80 C518 80 421 675 421 675 C421 675 415 675 415 675 C415 675 115 80 115 80 C115 80 115 80 115 80 C101 52 46 15 19 15 C19 15 8 15 8 15 C8 15 7 11 6 8 C6 4 5 0 5 0 C5 0 75 0 75 0 C75 0 79 0 79 0 C79 0 83 0 83 0 C83 0 193 0 193 0 C193 0 195 14 195 15 C195 15 170 15 170 15 C138 15 116 55 127 88 C127 88 203 239 203 239 C203 239 468 239 468 239 C468 239 494 74 494 74 C494 47 465 15 439 15 C439 15 404 15 404 15 C404 15 403 11 403 8 C403 8 401 0 401 0 C401 0 506 0 506 0 C506 0 519 0 519 0 C519 0 531 0 531 0 C531 0 591 0 591 0 C591 0 592 4 592 7 C593 11 593 15 593 15 C593 15 584 15 584 15 C560 15 522 52 518 80 C518 80 518 80 518 80 L518 80 Z M468 244 C468 244 205 244 205 244 C205 244 405 643 405 643 C405 643 468 244 468 244 L468 244 Z " />
<glyph glyph-name="Ccedilla" unicode="&#xc7;" horiz-adv-x="726" d="M750 471 C750 471 773 601 773 601 C730 629 588 665 524 665 C380 665 154 473 129 330 C104 187 262 -5 406 -5 C470 -5 625 31 677 59 C677 59 700 189 700 189 C700 189 687 189 687 189 C683 181 671 159 667 151 C638 96 507 10 438 3 C438 3 438 3 438 3 C426 2 416 1 407 1 C273 1 129 189 154 330 C178 471 390 659 523 659 C542 659 569 656 599 650 C649 634 721 557 730 509 C732 501 735 479 737 471 C737 471 750 471 750 471 L750 471 Z " />
<glyph glyph-name="Egrave" unicode="&#xc8;" horiz-adv-x="547" d="M516 519 C522 549 535 628 541 657 C541 657 541 660 541 660 C541 660 539 660 539 660 C539 660 461 660 461 660 C461 660 254 660 254 660 C254 660 242 660 242 660 C242 660 231 660 231 660 C231 660 156 660 156 660 C156 659 154 645 154 645 C154 645 165 645 165 645 C191 645 221 610 217 582 C217 582 129 80 129 80 C129 80 129 80 129 80 C124 52 81 15 54 15 C54 15 43 15 43 15 C43 15 42 11 41 8 C41 4 40 0 40 0 C40 0 115 0 115 0 C115 0 126 0 126 0 C126 0 137 0 137 0 C137 0 353 0 353 0 C353 0 432 0 432 0 C432 0 433 0 433 0 C433 0 434 2 434 3 C444 32 472 111 483 141 C482 140 482 140 481 141 C477 140 472 140 472 141 C472 141 472 141 472 141 C472 141 472 141 472 141 C472 141 448 106 448 106 C419 64 326 7 282 6 C282 6 280 6 280 6 C280 6 138 6 138 6 C138 6 254 660 254 660 C254 660 253 654 253 654 C253 654 385 654 385 654 C428 654 494 597 500 554 C500 554 505 519 505 519 C505 519 516 519 516 519 L516 519 Z M414 264 C417 282 425 328 429 349 C429 349 429 349 429 349 C429 349 430 355 430 355 C430 355 430 355 430 355 C433 373 440 414 443 430 C443 430 431 430 431 430 C431 430 425 419 425 419 C412 391 346 355 310 355 C310 355 200 355 200 355 C200 355 199 349 199 349 C199 349 309 349 309 349 C345 349 397 308 400 277 C400 277 402 264 402 264 C402 264 414 264 414 264 L414 264 Z M374 831 C361 856 341 889 339 889 C337 889 327 883 327 881 C326 879 347 846 363 823 C363 823 450 692 450 692 C450 692 452 693 452 693 C452 693 374 831 374 831 L374 831 Z " />
<glyph glyph-name="Eacute" unicode="&#xc9;" horiz-adv-x="547" d="M516 519 C522 549 535 628 541 657 C541 657 541 660 541 660 C541 660 539 660 539 660 C539 660 461 660 461 660 C461 660 254 660 254 660 C254 660 242 660 242 660 C242 660 231 660 231 660 C231 660 156 660 156 660 C156 659 154 645 154 645 C154 645 165 645 165 645 C191 645 221 610 217 582 C217 582 129 80 129 80 C129 80 129 80 129 80 C124 52 81 15 54 15 C54 15 43 15 43 15 C43 15 42 11 41 8 C41 4 40 0 40 0 C40 0 115 0 115 0 C115 0 126 0 126 0 C126 0 137 0 137 0 C137 0 353 0 353 0 C353 0 432 0 432 0 C432 0 433 0 433 0 C433 0 434 2 434 3 C444 32 472 111 483 141 C482 140 482 140 481 141 C477 140 472 140 472 141 C472 141 472 141 472 141 C472 141 472 141 472 141 C472 141 448 106 448 106 C419 64 326 7 282 6 C282 6 280 6 280 6 C280 6 138 6 138 6 C138 6 254 660 254 660 C254 660 253 654 253 654 C253 654 385 654 385 654 C428 654 494 597 500 554 C500 554 505 519 505 519 C505 519 516 519 516 519 L516 519 Z M358 692 C358 692 488 823 488 823 C511 847 543 880 543 881 C543 883 536 889 533 889 C533 889 502 856 479 831 C479 831 356 693 356 693 C356 693 358 692 358 692 L358 692 Z M414 264 C417 282 425 328 429 349 C429 349 429 349 429 349 C429 349 430 355 430 355 C430 355 430 355 430 355 C433 373 440 414 443 430 C443 430 431 430 431 430 C431 430 425 419 425 419 C412 391 346 355 310 355 C310 355 200 355 200 355 C200 355 199 349 199 349 C199 349 309 349 309 349 C345 349 397 308 400 277 C400 277 402 264 402 264 C402 264 414 264 414 264 L414 264 Z " />
<glyph glyph-name="Ecircumflex" unicode="&#xca;" horiz-adv-x="547" d="M516 519 C522 549 535 628 541 657 C541 657 541 660 541 660 C541 660 539 660 539 660 C539 660 461 660 461 660 C461 660 254 660 254 660 C254 660 242 660 242 660 C242 660 231 660 231 660 C231 660 156 660 156 660 C156 659 154 645 154 645 C154 645 165 645 165 645 C191 645 221 610 217 582 C217 582 129 80 129 80 C129 80 129 80 129 80 C124 52 81 15 54 15 C54 15 43 15 43 15 C43 15 42 11 41 8 C41 4 40 0 40 0 C40 0 115 0 115 0 C115 0 126 0 126 0 C126 0 137 0 137 0 C137 0 353 0 353 0 C353 0 432 0 432 0 C432 0 433 0 433 0 C433 0 434 2 434 3 C444 32 472 111 483 141 C482 140 482 140 481 141 C477 140 472 140 472 141 C472 141 472 141 472 141 C472 141 472 141 472 141 C472 141 448 106 448 106 C419 64 326 7 282 6 C282 6 280 6 280 6 C280 6 138 6 138 6 C138 6 254 660 254 660 C254 660 253 654 253 654 C253 654 385 654 385 654 C428 654 494 597 500 554 C500 554 505 519 505 519 C505 519 516 519 516 519 L516 519 Z M414 264 C417 282 425 328 429 349 C429 349 429 349 429 349 C429 349 430 355 430 355 C430 355 430 355 430 355 C433 373 440 414 443 430 C443 430 431 430 431 430 C431 430 425 419 425 419 C412 391 346 355 310 355 C310 355 200 355 200 355 C200 355 199 349 199 349 C199 349 309 349 309 349 C345 349 397 308 400 277 C400 277 402 264 402 264 C402 264 414 264 414 264 L414 264 Z M424 883 C424 883 505 694 505 694 C505 694 508 696 508 696 C508 696 434 899 434 899 C433 900 430 905 428 905 C425 905 423 902 421 899 C421 899 421 899 421 899 C421 899 275 696 275 696 C275 696 277 694 277 694 C277 694 424 883 424 883 L424 883 Z " />
<glyph glyph-name="Edieresis" unicode="&#xcb;" horiz-adv-x="547" d="M516 519 C522 549 535 628 541 657 C541 657 541 660 541 660 C541 660 539 660 539 660 C539 660 461 660 461 660 C461 660 254 660 254 660 C254 660 242 660 242 660 C242 660 231 660 231 660 C231 660 156 660 156 660 C156 659 154 645 154 645 C154 645 165 645 165 645 C191 645 221 610 217 582 C217 582 129 80 129 80 C129 80 129 80 129 80 C124 52 81 15 54 15 C54 15 43 15 43 15 C43 15 42 11 41 8 C41 4 40 0 40 0 C40 0 115 0 115 0 C115 0 126 0 126 0 C126 0 137 0 137 0 C137 0 353 0 353 0 C353 0 432 0 432 0 C432 0 433 0 433 0 C433 0 434 2 434 3 C444 32 472 111 483 141 C482 140 482 140 481 141 C477 140 472 140 472 141 C472 141 472 141 472 141 C472 141 472 141 472 141 C472 141 448 106 448 106 C419 64 326 7 282 6 C282 6 280 6 280 6 C280 6 138 6 138 6 C138 6 254 660 254 660 C254 660 253 654 253 654 C253 654 385 654 385 654 C428 654 494 597 500 554 C500 554 505 519 505 519 C505 519 516 519 516 519 L516 519 Z M481 730 C489 730 503 741 504 750 C506 759 496 770 488 770 C479 770 466 759 464 750 C463 741 472 730 481 730 L481 730 Z M314 730 C322 730 336 741 337 750 C339 759 329 770 321 770 C312 770 299 759 297 750 C296 741 305 730 314 730 L314 730 Z M414 264 C417 282 425 328 429 349 C429 349 429 349 429 349 C429 349 430 355 430 355 C430 355 430 355 430 355 C433 373 440 414 443 430 C443 430 431 430 431 430 C431 430 425 419 425 419 C412 391 346 355 310 355 C310 355 200 355 200 355 C200 355 199 349 199 349 C199 349 309 349 309 349 C345 349 397 308 400 277 C400 277 402 264 402 264 C402 264 414 264 414 264 L414 264 Z " />
<glyph glyph-name="Igrave" unicode="&#xcc;" horiz-adv-x="252" d="M154 645 C154 645 165 645 165 645 C191 645 221 610 217 582 C217 582 129 80 129 80 C129 80 129 80 129 80 C124 52 81 15 54 15 C54 15 43 15 43 15 C43 15 42 11 41 8 C41 4 40 0 40 0 C40 0 115 0 115 0 C115 0 126 0 126 0 C126 0 137 0 137 0 C137 0 212 0 212 0 C212 0 214 8 214 8 C214 11 215 15 215 15 C215 15 204 15 204 15 C177 15 149 50 151 77 C151 77 241 587 241 587 C251 614 290 645 315 645 C315 645 326 645 326 645 C326 645 327 649 327 653 C328 656 329 660 329 660 C329 660 254 660 254 660 C254 660 242 660 242 660 C242 660 231 660 231 660 C231 660 156 660 156 660 C156 659 154 645 154 645 L154 645 Z M247 831 C234 856 214 889 213 889 C210 889 200 883 200 881 C199 879 220 846 236 823 C236 823 323 692 323 692 C323 692 325 693 325 693 C325 693 247 831 247 831 L247 831 Z " />
<glyph glyph-name="Iacute" unicode="&#xcd;" horiz-adv-x="252" d="M185 692 C185 692 315 823 315 823 C339 847 370 880 370 881 C371 883 363 889 360 889 C360 889 329 856 306 831 C306 831 183 693 183 693 C183 693 185 692 185 692 L185 692 Z M154 645 C154 645 165 645 165 645 C191 645 221 610 217 582 C217 582 129 80 129 80 C129 80 129 80 129 80 C124 52 81 15 54 15 C54 15 43 15 43 15 C43 15 42 11 41 8 C41 4 40 0 40 0 C40 0 115 0 115 0 C115 0 126 0 126 0 C126 0 137 0 137 0 C137 0 212 0 212 0 C212 0 214 8 214 8 C214 11 215 15 215 15 C215 15 204 15 204 15 C177 15 149 50 151 77 C151 77 241 587 241 587 C251 614 290 645 315 645 C315 645 326 645 326 645 C326 645 327 649 327 653 C328 656 329 660 329 660 C329 660 254 660 254 660 C254 660 242 660 242 660 C242 660 231 660 231 660 C231 660 156 660 156 660 C156 659 154 645 154 645 L154 645 Z " />
<glyph glyph-name="Icircumflex" unicode="&#xce;" horiz-adv-x="252" d="M154 645 C154 645 165 645 165 645 C191 645 221 610 217 582 C217 582 129 80 129 80 C129 80 129 80 129 80 C124 52 81 15 54 15 C54 15 43 15 43 15 C43 15 42 11 41 8 C41 4 40 0 40 0 C40 0 115 0 115 0 C115 0 126 0 126 0 C126 0 137 0 137 0 C137 0 212 0 212 0 C212 0 214 8 214 8 C214 11 215 15 215 15 C215 15 204 15 204 15 C177 15 149 50 151 77 C151 77 241 587 241 587 C251 614 290 645 315 645 C315 645 326 645 326 645 C326 645 327 649 327 653 C328 656 329 660 329 660 C329 660 254 660 254 660 C254 660 242 660 242 660 C242 660 231 660 231 660 C231 660 156 660 156 660 C156 659 154 645 154 645 L154 645 Z M282 882 C282 882 363 694 363 694 C363 694 365 696 365 696 C365 696 291 899 291 899 C291 900 288 905 286 905 C282 905 280 902 279 899 C279 899 278 899 278 899 C278 899 133 696 133 696 C133 696 134 694 134 694 C134 694 282 882 282 882 L282 882 Z " />
<glyph glyph-name="Idieresis" unicode="&#xcf;" horiz-adv-x="252" d="M338 730 C347 730 361 741 362 750 C364 759 354 770 345 770 C337 770 324 759 322 750 C321 741 330 730 338 730 L338 730 Z M171 730 C180 730 193 741 195 750 C197 759 187 770 178 770 C170 770 157 759 155 750 C153 741 163 730 171 730 L171 730 Z M154 645 C154 645 165 645 165 645 C191 645 221 610 217 582 C217 582 129 80 129 80 C129 80 129 80 129 80 C124 52 81 15 54 15 C54 15 43 15 43 15 C43 15 42 11 41 8 C41 4 40 0 40 0 C40 0 115 0 115 0 C115 0 126 0 126 0 C126 0 137 0 137 0 C137 0 212 0 212 0 C212 0 214 8 214 8 C214 11 215 15 215 15 C215 15 204 15 204 15 C177 15 149 50 151 77 C151 77 241 587 241 587 C251 614 290 645 315 645 C315 645 326 645 326 645 C326 645 327 649 327 653 C328 656 329 660 329 660 C329 660 254 660 254 660 C254 660 242 660 242 660 C242 660 231 660 231 660 C231 660 156 660 156 660 C156 659 154 645 154 645 L154 645 Z " />
<glyph glyph-name="Ntilde" unicode="&#xd1;" horiz-adv-x="691" d="M338 755 C344 786 379 827 399 827 C443 827 529 764 573 764 C597 764 637 806 643 837 C643 837 639 837 639 837 C635 812 601 777 580 777 C536 777 450 840 406 840 C382 840 342 791 335 755 C335 755 338 755 338 755 L338 755 Z M609 645 C609 645 620 645 620 645 C646 645 676 610 672 582 C672 582 576 32 576 32 C576 32 257 660 257 660 C257 660 243 660 243 660 C243 660 242 651 242 651 C242 651 257 660 257 660 C257 660 241 650 241 650 C241 650 243 660 243 660 C243 660 240 660 240 660 C240 660 237 660 237 660 C237 660 162 660 162 660 C162 660 161 656 160 653 C160 649 159 645 159 645 C159 645 170 645 170 645 C196 645 225 610 223 583 C223 583 134 80 134 80 C134 80 134 80 134 80 C129 52 86 15 59 15 C59 15 48 15 48 15 C48 15 47 11 47 8 C47 8 45 0 45 0 C45 0 120 0 120 0 C120 0 124 0 124 0 C124 0 127 0 127 0 C127 0 202 0 202 0 C202 0 203 4 203 8 C204 11 205 15 205 15 C205 15 193 15 193 15 C167 15 137 50 141 78 C141 78 240 640 240 640 C240 640 561 9 561 9 C561 9 568 -4 568 -4 C568 -4 576 -4 576 -4 C576 -4 580 17 580 17 C580 17 679 580 679 580 C679 580 679 580 679 580 C684 608 727 645 754 645 C754 645 765 645 765 645 C765 645 767 653 767 653 C767 656 768 660 768 660 C768 660 693 660 693 660 C693 660 690 660 690 660 C690 660 686 660 686 660 C686 660 611 660 611 660 C611 659 609 645 609 645 L609 645 Z " />
<glyph glyph-name="Ograve" unicode="&#xd2;" horiz-adv-x="759" d="M390 1 C251 1 131 203 154 330 C176 457 367 659 506 659 C645 659 765 457 743 330 C721 203 529 1 390 1 L390 1 Z M129 330 C106 201 239 -5 389 -5 C539 -5 744 201 767 330 C790 459 657 665 507 665 C357 665 152 459 129 330 L129 330 Z M511 831 C497 856 478 889 476 889 C474 889 464 883 464 881 C463 879 484 846 500 823 C500 823 586 692 586 692 C586 692 589 693 589 693 C589 693 511 831 511 831 L511 831 Z " />
<glyph glyph-name="Oacute" unicode="&#xd3;" horiz-adv-x="759" d="M487 692 C487 692 617 823 617 823 C640 847 672 880 672 881 C672 883 665 889 662 889 C661 889 631 856 608 831 C608 831 485 693 485 693 C485 693 487 692 487 692 L487 692 Z M390 1 C251 1 131 203 154 330 C176 457 367 659 506 659 C645 659 765 457 743 330 C721 203 529 1 390 1 L390 1 Z M129 330 C106 201 239 -5 389 -5 C539 -5 744 201 767 330 C790 459 657 665 507 665 C357 665 152 459 129 330 L129 330 Z " />
<glyph glyph-name="Ocircumflex" unicode="&#xd4;" horiz-adv-x="759" d="M390 1 C251 1 131 203 154 330 C176 457 367 659 506 659 C645 659 765 457 743 330 C721 203 529 1 390 1 L390 1 Z M129 330 C106 201 239 -5 389 -5 C539 -5 744 201 767 330 C790 459 657 665 507 665 C357 665 152 459 129 330 L129 330 Z M546 882 C546 882 627 694 627 694 C627 694 629 696 629 696 C629 696 555 899 555 899 C554 900 551 905 550 905 C546 905 544 902 543 899 C543 899 542 899 542 899 C542 899 396 696 396 696 C396 696 398 694 398 694 C398 694 546 882 546 882 L546 882 Z " />
<glyph glyph-name="Otilde" unicode="&#xd5;" horiz-adv-x="759" d="M380 755 C385 786 420 827 441 827 C485 827 570 764 614 764 C638 764 678 806 684 837 C684 837 681 837 681 837 C676 812 642 777 621 777 C577 777 491 840 447 840 C423 840 383 791 377 755 C377 755 380 755 380 755 L380 755 Z M390 1 C251 1 131 203 154 330 C176 457 367 659 506 659 C645 659 765 457 743 330 C721 203 529 1 390 1 L390 1 Z M129 330 C106 201 239 -5 389 -5 C539 -5 744 201 767 330 C790 459 657 665 507 665 C357 665 152 459 129 330 L129 330 Z " />
<glyph glyph-name="Odieresis" unicode="&#xd6;" horiz-adv-x="759" d="M602 730 C611 730 624 741 626 750 C627 759 618 770 609 770 C600 770 587 759 586 750 C584 741 593 730 602 730 L602 730 Z M435 730 C444 730 457 741 459 750 C460 759 451 770 442 770 C433 770 420 759 419 750 C417 741 426 730 435 730 L435 730 Z M390 1 C251 1 131 203 154 330 C176 457 367 659 506 659 C645 659 765 457 743 330 C721 203 529 1 390 1 L390 1 Z M129 330 C106 201 239 -5 389 -5 C539 -5 744 201 767 330 C790 459 657 665 507 665 C357 665 152 459 129 330 L129 330 Z " />
<glyph glyph-name="Oslash" unicode="&#xd8;" horiz-adv-x="759" d="M73 -8 C73 -8 201 105 201 105 C250 42 317 -5 389 -5 C539 -5 744 201 767 330 C779 395 750 480 700 548 C700 548 829 662 829 662 C829 662 823 668 823 668 C823 668 695 555 695 555 C646 618 579 665 507 665 C357 665 152 459 129 330 C117 265 146 180 196 112 C196 112 67 -2 67 -2 C67 -2 73 -8 73 -8 L73 -8 Z M390 1 C321 1 257 50 213 116 C213 116 688 537 688 537 C731 472 754 392 743 330 C721 203 529 1 390 1 C390 1 390 1 390 1 L390 1 Z M208 123 C166 188 143 268 154 330 C176 457 367 659 506 659 C575 659 639 610 683 544 C683 544 208 123 208 123 L208 123 Z " />
<glyph glyph-name="Ugrave" unicode="&#xd9;" horiz-adv-x="693" d="M682 570 C682 570 682 570 682 570 C682 570 612 176 612 176 C599 102 476 3 365 3 C253 3 167 115 182 199 C182 199 249 580 249 580 C249 580 249 580 249 580 C254 608 297 645 324 645 C324 645 335 645 335 645 C335 645 337 653 337 653 C337 656 338 660 338 660 C338 660 263 660 263 660 C263 660 252 660 252 660 C252 660 241 660 241 660 C241 660 166 660 166 660 C166 660 165 656 164 653 C164 649 163 645 163 645 C163 645 174 645 174 645 C200 645 229 610 227 583 C227 583 160 203 160 203 C144 114 238 -5 360 -5 C477 -5 605 97 619 173 C619 173 688 570 688 570 C688 570 689 570 689 570 C694 602 743 645 774 645 C774 645 787 645 787 645 C787 645 788 649 788 653 C789 656 790 660 789 660 C789 660 704 660 704 660 C704 660 701 660 701 660 C701 660 698 660 698 660 C698 660 608 660 608 660 C608 660 607 656 606 653 C606 649 605 645 605 645 C605 645 620 645 620 645 C652 645 687 602 682 570 L682 570 Z M478 831 C464 856 444 889 443 889 C440 889 430 883 430 881 C429 879 450 846 466 823 C466 823 553 692 553 692 C553 692 555 693 555 693 C555 693 478 831 478 831 L478 831 Z " />
<glyph glyph-name="Uacute" unicode="&#xda;" horiz-adv-x="693" d="M476 692 C476 692 606 823 606 823 C629 847 661 880 661 881 C662 883 654 889 651 889 C650 889 620 856 597 831 C597 831 474 693 474 693 C474 693 476 692 476 692 L476 692 Z M682 570 C682 570 682 570 682 570 C682 570 612 176 612 176 C599 102 476 3 365 3 C253 3 167 115 182 199 C182 199 249 580 249 580 C249 580 249 580 249 580 C254 608 297 645 324 645 C324 645 335 645 335 645 C335 645 337 653 337 653 C337 656 338 660 338 660 C338 660 263 660 263 660 C263 660 252 660 252 660 C252 660 241 660 241 660 C241 660 166 660 166 660 C166 660 165 656 164 653 C164 649 163 645 163 645 C163 645 174 645 174 645 C200 645 229 610 227 583 C227 583 160 203 160 203 C144 114 238 -5 360 -5 C477 -5 605 97 619 173 C619 173 688 570 688 570 C688 570 689 570 689 570 C694 602 743 645 774 645 C774 645 787 645 787 645 C787 645 788 649 788 653 C789 656 790 660 789 660 C789 660 704 660 704 660 C704 660 701 660 701 660 C701 660 698 660 698 660 C698 660 608 660 608 660 C608 660 607 656 606 653 C606 649 605 645 605 645 C605 645 620 645 620 645 C652 645 687 602 682 570 L682 570 Z " />
<glyph glyph-name="Ucircumflex" unicode="&#xdb;" horiz-adv-x="693" d="M682 570 C682 570 682 570 682 570 C682 570 612 176 612 176 C599 102 476 3 365 3 C253 3 167 115 182 199 C182 199 249 580 249 580 C249 580 249 580 249 580 C254 608 297 645 324 645 C324 645 335 645 335 645 C335 645 337 653 337 653 C337 656 338 660 338 660 C338 660 263 660 263 660 C263 660 252 660 252 660 C252 660 241 660 241 660 C241 660 166 660 166 660 C166 660 165 656 164 653 C164 649 163 645 163 645 C163 645 174 645 174 645 C200 645 229 610 227 583 C227 583 160 203 160 203 C144 114 238 -5 360 -5 C477 -5 605 97 619 173 C619 173 688 570 688 570 C688 570 689 570 689 570 C694 602 743 645 774 645 C774 645 787 645 787 645 C787 645 788 649 788 653 C789 656 790 660 789 660 C789 660 704 660 704 660 C704 660 701 660 701 660 C701 660 698 660 698 660 C698 660 608 660 608 660 C608 660 607 656 606 653 C606 649 605 645 605 645 C605 645 620 645 620 645 C652 645 687 602 682 570 L682 570 Z M512 882 C512 882 593 694 593 694 C593 694 595 696 595 696 C595 696 521 899 521 899 C521 900 518 905 516 905 C514 905 509 901 509 899 C509 899 363 696 363 696 C363 696 365 694 365 694 C365 694 512 882 512 882 L512 882 Z " />
<glyph glyph-name="Udieresis" unicode="&#xdc;" horiz-adv-x="693" d="M569 730 C577 730 591 741 592 750 C594 759 584 770 576 770 C567 770 554 759 552 750 C551 741 560 730 569 730 L569 730 Z M401 730 C410 730 424 741 425 750 C427 759 417 770 409 770 C400 770 387 759 385 750 C384 741 393 730 401 730 L401 730 Z M682 570 C682 570 682 570 682 570 C682 570 612 176 612 176 C599 102 476 3 365 3 C253 3 167 115 182 199 C182 199 249 580 249 580 C249 580 249 580 249 580 C254 608 297 645 324 645 C324 645 335 645 335 645 C335 645 337 653 337 653 C337 656 338 660 338 660 C338 660 263 660 263 660 C263 660 252 660 252 660 C252 660 241 660 241 660 C241 660 166 660 166 660 C166 660 165 656 164 653 C164 649 163 645 163 645 C163 645 174 645 174 645 C200 645 229 610 227 583 C227 583 160 203 160 203 C144 114 238 -5 360 -5 C477 -5 605 97 619 173 C619 173 688 570 688 570 C688 570 689 570 689 570 C694 602 743 645 774 645 C774 645 787 645 787 645 C787 645 788 649 788 653 C789 656 790 660 789 660 C789 660 704 660 704 660 C704 660 701 660 701 660 C701 660 698 660 698 660 C698 660 608 660 608 660 C608 660 607 656 606 653 C606 649 605 645 605 645 C605 645 620 645 620 645 C652 645 687 602 682 570 L682 570 Z " />
<glyph glyph-name="Yacute" unicode="&#xdd;" horiz-adv-x="568" d="M415 692 C415 692 546 823 546 823 C569 847 601 880 601 881 C601 883 593 889 591 889 C590 889 559 856 537 831 C537 831 414 693 414 693 C414 693 415 692 415 692 L415 692 Z M511 645 C511 645 528 645 528 645 C562 645 578 602 559 567 C559 567 349 260 349 260 C349 260 247 580 247 580 C247 580 247 580 247 580 C238 608 263 645 291 645 C291 645 309 645 309 645 C309 645 311 659 311 660 C311 660 221 660 221 660 C221 660 208 660 208 660 C208 660 195 660 195 660 C195 660 147 660 147 660 C147 660 146 656 146 653 C145 649 144 645 145 645 C145 645 153 645 153 645 C172 645 208 611 220 583 C220 583 328 247 328 247 C321 208 309 138 299 80 C299 80 299 80 299 80 C294 52 251 15 224 15 C224 15 213 15 213 15 C213 15 212 11 211 8 C211 4 210 0 210 0 C210 0 285 0 285 0 C285 0 296 0 296 0 C296 0 307 0 307 0 C307 0 382 0 382 0 C382 0 383 4 383 8 C384 11 385 15 385 15 C385 15 374 15 374 15 C348 15 319 48 320 75 C332 140 346 219 352 257 C352 257 575 580 575 580 C575 580 575 580 575 580 C594 608 651 645 675 645 C675 645 685 645 685 645 C685 645 686 649 686 653 C687 656 688 660 687 660 C687 660 630 660 630 660 C630 660 627 660 627 660 C627 660 623 660 623 660 C623 660 513 660 513 660 C513 659 511 645 511 645 C511 645 511 645 511 645 L511 645 Z " />
<glyph glyph-name="agrave" unicode="&#xe0;" horiz-adv-x="565" d="M341 671 C327 696 308 729 306 729 C304 729 294 723 293 721 C293 719 314 686 330 663 C330 663 416 532 416 532 C416 532 419 533 419 533 C419 533 341 671 341 671 L341 671 Z M455 4 C455 4 535 25 535 25 C535 25 535 26 536 26 C536 30 537 34 537 34 C537 34 526 37 526 37 C491 45 472 72 475 108 C498 239 520 370 544 500 C544 500 538 500 538 500 C538 500 509 410 509 410 C492 450 404 505 345 505 C259 505 116 346 95 228 C78 128 165 -5 247 -5 C294 -5 411 67 458 124 C457 119 456 115 455 110 C455 110 455 110 455 110 C455 110 439 18 439 18 C438 10 436 3 435 -5 C435 -5 438 -5 438 -5 C438 -5 455 4 455 4 L455 4 Z M459 128 C417 75 305 7 260 7 C182 7 100 138 117 236 C137 349 267 500 343 500 C405 500 499 438 506 400 C490 309 474 219 459 128 C459 128 459 128 459 128 L459 128 Z " />
<glyph glyph-name="aacute" unicode="&#xe1;" horiz-adv-x="469" d="M274 532 C274 532 404 663 404 663 C428 687 459 720 459 721 C460 723 452 729 449 729 C449 729 418 696 395 671 C395 671 272 533 272 533 C272 533 274 532 274 532 L274 532 Z M453 34 C436 19 404 0 392 0 C371 0 359 31 363 54 C363 54 418 363 418 363 C429 424 378 505 330 505 C266 505 160 453 145 414 C145 414 165 414 165 414 C179 451 270 499 325 499 C366 499 407 424 397 367 C397 367 376 245 376 245 C376 245 234 226 234 226 C164 216 61 145 53 100 C45 55 98 -5 145 -5 C192 -5 298 42 347 83 C347 83 342 52 342 52 C337 25 351 -10 377 -10 C393 -10 434 14 455 31 C455 31 453 34 453 34 L453 34 Z M375 239 C375 239 348 87 348 87 C303 50 202 8 157 8 C114 8 66 64 74 106 C81 146 172 211 233 219 C233 219 375 239 375 239 L375 239 Z " />
<glyph glyph-name="acircumflex" unicode="&#xe2;" horiz-adv-x="565" d="M376 722 C376 722 456 534 456 534 C456 534 459 536 459 536 C459 536 385 739 385 739 C384 740 381 745 379 745 C376 745 374 742 372 739 C372 739 372 739 372 739 C372 739 226 536 226 536 C226 536 228 534 228 534 C228 534 376 722 376 722 L376 722 Z M455 4 C455 4 535 25 535 25 C535 25 535 26 536 26 C536 30 537 34 537 34 C537 34 526 37 526 37 C491 45 472 72 475 108 C498 239 520 370 544 500 C544 500 538 500 538 500 C538 500 509 410 509 410 C492 450 404 505 345 505 C259 505 116 346 95 228 C78 128 165 -5 247 -5 C294 -5 411 67 458 124 C457 119 456 115 455 110 C455 110 455 110 455 110 C455 110 439 18 439 18 C438 10 436 3 435 -5 C435 -5 438 -5 438 -5 C438 -5 455 4 455 4 L455 4 Z M459 128 C417 75 305 7 260 7 C182 7 100 138 117 236 C137 349 267 500 343 500 C405 500 499 438 506 400 C490 309 474 219 459 128 C459 128 459 128 459 128 L459 128 Z " />
<glyph glyph-name="atilde" unicode="&#xe3;" horiz-adv-x="565" d="M210 595 C215 626 250 667 270 667 C315 667 400 604 444 604 C469 604 509 646 514 677 C514 677 511 677 511 677 C506 652 472 617 451 617 C407 617 321 680 277 680 C254 680 213 631 206 595 C206 595 210 595 210 595 L210 595 Z M455 4 C455 4 535 25 535 25 C535 25 535 26 536 26 C536 30 537 34 537 34 C537 34 526 37 526 37 C491 45 472 72 475 108 C498 239 520 370 544 500 C544 500 538 500 538 500 C538 500 509 410 509 410 C492 450 404 505 345 505 C259 505 116 346 95 228 C78 128 165 -5 247 -5 C294 -5 411 67 458 124 C457 119 456 115 455 110 C455 110 455 110 455 110 C455 110 439 18 439 18 C438 10 436 3 435 -5 C435 -5 438 -5 438 -5 C438 -5 455 4 455 4 L455 4 Z M459 128 C417 75 305 7 260 7 C182 7 100 138 117 236 C137 349 267 500 343 500 C405 500 499 438 506 400 C490 309 474 219 459 128 C459 128 459 128 459 128 L459 128 Z " />
<glyph glyph-name="adieresis" unicode="&#xe4;" horiz-adv-x="565" d="M432 570 C441 570 454 581 456 590 C457 599 448 610 439 610 C431 610 417 599 416 590 C414 581 424 570 432 570 L432 570 Z M265 570 C273 570 287 581 289 590 C290 599 280 610 272 610 C263 610 250 599 249 590 C247 581 256 570 265 570 L265 570 Z M455 4 C455 4 535 25 535 25 C535 25 535 26 536 26 C536 30 537 34 537 34 C537 34 526 37 526 37 C491 45 472 72 475 108 C498 239 520 370 544 500 C544 500 538 500 538 500 C538 500 509 410 509 410 C492 450 404 505 345 505 C259 505 116 346 95 228 C78 128 165 -5 247 -5 C294 -5 411 67 458 124 C457 119 456 115 455 110 C455 110 455 110 455 110 C455 110 439 18 439 18 C438 10 436 3 435 -5 C435 -5 438 -5 438 -5 C438 -5 455 4 455 4 L455 4 Z M459 128 C417 75 305 7 260 7 C182 7 100 138 117 236 C137 349 267 500 343 500 C405 500 499 438 506 400 C490 309 474 219 459 128 C459 128 459 128 459 128 L459 128 Z " />
<glyph glyph-name="aring" unicode="&#xe5;" horiz-adv-x="565" d="M343 539 C309 539 265 593 271 628 C278 665 337 716 374 716 C412 716 453 665 446 628 C440 593 377 539 343 539 L343 539 Z M266 628 C259 592 307 535 342 535 C378 535 445 592 452 628 C459 667 415 720 375 720 C335 720 273 667 266 628 L266 628 Z M455 4 C455 4 535 25 535 25 C535 25 535 26 536 26 C536 30 537 34 537 34 C537 34 526 37 526 37 C491 45 472 72 475 108 C498 239 520 370 544 500 C544 500 538 500 538 500 C538 500 509 410 509 410 C492 450 404 505 345 505 C259 505 116 346 95 228 C78 128 165 -5 247 -5 C294 -5 411 67 458 124 C457 119 456 115 455 110 C455 110 455 110 455 110 C455 110 439 18 439 18 C438 10 436 3 435 -5 C435 -5 438 -5 438 -5 C438 -5 455 4 455 4 L455 4 Z M459 128 C417 75 305 7 260 7 C182 7 100 138 117 236 C137 349 267 500 343 500 C405 500 499 438 506 400 C490 309 474 219 459 128 C459 128 459 128 459 128 L459 128 Z " />
<glyph glyph-name="ccedilla" unicode="&#xe7;" horiz-adv-x="454" d="M406 24 C406 24 404 26 404 26 C394 18 302 7 244 7 C170 7 96 144 114 246 C134 354 284 499 377 499 C415 499 460 444 456 403 C456 399 461 393 465 393 C468 393 474 398 475 402 C479 446 425 505 380 505 C277 505 112 352 92 238 C74 134 150 -5 225 -5 C286 -5 389 11 406 24 L406 24 Z " />
<glyph glyph-name="egrave" unicode="&#xe8;" horiz-adv-x="461" d="M413 24 C413 24 411 26 411 26 C400 18 306 7 247 7 C172 7 96 144 114 246 C119 273 131 302 147 331 C147 331 469 331 469 331 C482 405 410 505 343 505 C279 505 185 423 131 334 C131 334 130 334 130 334 C130 334 129 331 129 331 C129 331 129 331 129 331 C111 300 97 267 92 238 C74 134 152 -5 228 -5 C290 -5 396 11 413 24 C413 24 413 24 413 24 L413 24 Z M347 671 C334 696 314 729 313 729 C310 729 300 723 300 721 C299 719 320 686 336 663 C336 663 423 532 423 532 C423 532 425 533 425 533 C425 533 347 671 347 671 L347 671 Z M149 334 C197 419 283 499 341 499 C401 499 465 412 454 347 C453 343 446 338 442 338 C442 338 452 338 452 338 C452 338 149 334 149 334 L149 334 Z " />
<glyph glyph-name="eacute" unicode="&#xe9;" horiz-adv-x="461" d="M315 532 C315 532 445 663 445 663 C469 687 500 720 501 721 C501 723 493 729 491 729 C490 729 459 696 437 671 C437 671 313 533 313 533 C313 533 315 532 315 532 L315 532 Z M413 24 C413 24 411 26 411 26 C400 18 306 7 247 7 C172 7 96 144 114 246 C119 273 131 302 147 331 C147 331 469 331 469 331 C482 405 410 505 343 505 C279 505 185 423 131 334 C131 334 130 334 130 334 C130 334 129 331 129 331 C129 331 129 331 129 331 C111 300 97 267 92 238 C74 134 152 -5 228 -5 C290 -5 396 11 413 24 C413 24 413 24 413 24 L413 24 Z M149 334 C197 419 283 499 341 499 C401 499 465 412 454 347 C453 343 446 338 442 338 C442 338 452 338 452 338 C452 338 149 334 149 334 L149 334 Z " />
<glyph glyph-name="ecircumflex" unicode="&#xea;" horiz-adv-x="461" d="M413 24 C413 24 411 26 411 26 C400 18 306 7 247 7 C172 7 96 144 114 246 C119 273 131 302 147 331 C147 331 469 331 469 331 C482 405 410 505 343 505 C279 505 185 423 131 334 C131 334 130 334 130 334 C130 334 129 331 129 331 C129 331 129 331 129 331 C111 300 97 267 92 238 C74 134 152 -5 228 -5 C290 -5 396 11 413 24 C413 24 413 24 413 24 L413 24 Z M382 722 C382 722 463 534 463 534 C463 534 465 536 465 536 C465 536 391 739 391 739 C391 740 388 745 386 745 C382 745 380 742 379 739 C379 739 378 739 378 739 C378 739 233 536 233 536 C233 536 234 534 234 534 C234 534 382 722 382 722 L382 722 Z M149 334 C197 419 283 499 341 499 C401 499 465 412 454 347 C453 343 446 338 442 338 C442 338 452 338 452 338 C452 338 149 334 149 334 L149 334 Z " />
<glyph glyph-name="edieresis" unicode="&#xeb;" horiz-adv-x="461" d="M438 570 C447 570 460 581 462 590 C463 599 454 610 445 610 C437 610 423 599 422 590 C420 581 430 570 438 570 L438 570 Z M271 570 C280 570 293 581 295 590 C296 599 287 610 278 610 C270 610 256 599 255 590 C253 581 263 570 271 570 L271 570 Z M413 24 C413 24 411 26 411 26 C400 18 306 7 247 7 C172 7 96 144 114 246 C119 273 131 302 147 331 C147 331 469 331 469 331 C482 405 410 505 343 505 C279 505 185 423 131 334 C131 334 130 334 130 334 C130 334 129 331 129 331 C129 331 129 331 129 331 C111 300 97 267 92 238 C74 134 152 -5 228 -5 C290 -5 396 11 413 24 C413 24 413 24 413 24 L413 24 Z M149 334 C197 419 283 499 341 499 C401 499 465 412 454 347 C453 343 446 338 442 338 C442 338 452 338 452 338 C452 338 149 334 149 334 L149 334 Z " />
<glyph glyph-name="igrave" unicode="&#xec;" horiz-adv-x="260" d="M140 0 C140 0 214 420 214 420 C214 420 229 505 229 505 C229 505 228 505 228 505 C228 505 142 480 142 480 C142 480 141 477 141 475 C140 473 140 470 140 470 C140 470 182 457 182 457 C190 455 196 438 193 417 C193 417 120 0 120 0 C121 9 88 15 63 15 C63 15 48 15 48 15 C48 15 47 11 46 8 C46 4 45 0 45 0 C45 0 120 0 120 0 C120 0 140 0 140 0 C140 0 215 0 215 0 C215 0 216 4 216 8 C217 11 218 15 218 15 C218 15 203 15 203 15 C177 15 142 9 140 0 L140 0 Z M223 671 C209 696 190 729 188 729 C186 729 176 723 175 721 C175 719 196 686 212 663 C212 663 298 532 298 532 C298 532 301 533 301 533 C301 533 223 671 223 671 L223 671 Z " />
<glyph glyph-name="iacute" unicode="&#xed;" horiz-adv-x="260" d="M140 0 C140 0 214 420 214 420 C214 420 229 505 229 505 C229 505 228 505 228 505 C228 505 142 480 142 480 C142 480 141 477 141 475 C140 473 140 470 140 470 C140 470 182 457 182 457 C190 455 196 438 193 417 C193 417 120 0 120 0 C121 9 88 15 63 15 C63 15 48 15 48 15 C48 15 47 11 46 8 C46 4 45 0 45 0 C45 0 120 0 120 0 C120 0 140 0 140 0 C140 0 215 0 215 0 C215 0 216 4 216 8 C217 11 218 15 218 15 C218 15 203 15 203 15 C177 15 142 9 140 0 L140 0 Z M145 532 C145 532 275 663 275 663 C299 687 331 720 331 721 C331 723 323 729 321 729 C320 729 289 696 267 671 C267 671 143 533 143 533 C143 533 145 532 145 532 L145 532 Z " />
<glyph glyph-name="icircumflex" unicode="&#xee;" horiz-adv-x="260" d="M140 0 C140 0 214 420 214 420 C214 420 229 505 229 505 C229 505 228 505 228 505 C228 505 142 480 142 480 C142 480 141 477 141 475 C140 473 140 470 140 470 C140 470 182 457 182 457 C190 455 196 438 193 417 C193 417 120 0 120 0 C121 9 88 15 63 15 C63 15 48 15 48 15 C48 15 47 11 46 8 C46 4 45 0 45 0 C45 0 120 0 120 0 C120 0 140 0 140 0 C140 0 215 0 215 0 C215 0 216 4 216 8 C217 11 218 15 218 15 C218 15 203 15 203 15 C177 15 142 9 140 0 L140 0 Z M258 722 C258 722 338 534 338 534 C338 534 341 536 341 536 C341 536 267 739 267 739 C266 740 263 745 261 745 C258 745 256 742 254 739 C254 739 254 739 254 739 C254 739 108 536 108 536 C108 536 110 534 110 534 C110 534 258 722 258 722 L258 722 Z " />
<glyph glyph-name="idieresis" unicode="&#xef;" horiz-adv-x="260" d="M140 0 C140 0 214 420 214 420 C214 420 229 505 229 505 C229 505 228 505 228 505 C228 505 142 480 142 480 C142 480 141 477 141 475 C140 473 140 470 140 470 C140 470 182 457 182 457 C190 455 196 438 193 417 C193 417 120 0 120 0 C121 9 88 15 63 15 C63 15 48 15 48 15 C48 15 47 11 46 8 C46 4 45 0 45 0 C45 0 120 0 120 0 C120 0 140 0 140 0 C140 0 215 0 215 0 C215 0 216 4 216 8 C217 11 218 15 218 15 C218 15 203 15 203 15 C177 15 142 9 140 0 L140 0 Z M314 570 C323 570 336 581 338 590 C339 599 330 610 321 610 C313 610 299 599 298 590 C296 581 306 570 314 570 L314 570 Z M147 570 C155 570 169 581 171 590 C172 599 162 610 154 610 C145 610 132 599 131 590 C129 581 138 570 147 570 L147 570 Z " />
<glyph glyph-name="ntilde" unicode="&#xf1;" horiz-adv-x="612" d="M271 595 C276 626 311 667 331 667 C376 667 461 604 505 604 C529 604 569 646 575 677 C575 677 572 677 572 677 C567 652 533 617 512 617 C468 617 382 680 338 680 C314 680 274 631 267 595 C267 595 271 595 271 595 L271 595 Z M216 431 C271 458 396 492 436 492 C502 492 549 401 537 333 C537 333 492 80 492 80 C492 80 492 80 492 80 C487 52 444 15 417 15 C417 15 406 15 406 15 C406 15 405 11 404 8 C404 4 403 0 403 0 C403 0 478 0 478 0 C478 0 488 0 488 0 C488 0 498 0 498 0 C498 0 573 0 573 0 C573 0 574 4 574 7 C575 11 575 15 576 15 C576 15 564 15 564 15 C538 15 508 50 512 78 C512 78 557 336 557 336 C570 408 522 505 454 505 C416 505 282 465 217 434 C217 434 228 500 228 500 C228 500 224 500 224 500 C224 500 129 475 129 475 C129 474 129 474 128 474 C128 470 127 466 127 466 C127 466 138 463 138 463 C173 456 192 427 189 392 C189 392 134 80 134 80 C134 80 134 80 134 80 C129 52 86 15 59 15 C59 15 48 15 48 15 C48 15 47 11 46 8 C46 4 45 0 45 0 C45 0 120 0 120 0 C120 0 130 0 130 0 C130 0 140 0 140 0 C140 0 215 0 215 0 C215 0 216 4 216 8 C217 11 217 15 218 15 C218 15 206 15 206 15 C180 15 151 50 154 78 C154 78 209 390 209 390 C209 390 209 390 209 390 C209 390 216 431 216 431 L216 431 Z " />
<glyph glyph-name="ograve" unicode="&#xf2;" horiz-adv-x="580" d="M290 -1 C197 -1 97 143 116 250 C135 357 285 501 379 501 C472 501 571 357 552 250 C533 143 383 -1 290 -1 L290 -1 Z M94 250 C75 141 187 -5 289 -5 C392 -5 556 141 575 250 C594 359 482 505 379 505 C277 505 113 359 94 250 L94 250 Z M383 671 C370 696 350 729 349 729 C346 729 336 723 336 721 C335 719 356 686 372 663 C372 663 459 532 459 532 C459 532 461 533 461 533 C461 533 383 671 383 671 L383 671 Z " />
<glyph glyph-name="oacute" unicode="&#xf3;" horiz-adv-x="580" d="M351 532 C351 532 481 663 481 663 C505 687 536 720 537 721 C537 723 529 729 527 729 C526 729 495 696 473 671 C473 671 349 533 349 533 C349 533 351 532 351 532 L351 532 Z M290 -1 C197 -1 97 143 116 250 C135 357 285 501 379 501 C472 501 571 357 552 250 C533 143 383 -1 290 -1 L290 -1 Z M94 250 C75 141 187 -5 289 -5 C392 -5 556 141 575 250 C594 359 482 505 379 505 C277 505 113 359 94 250 L94 250 Z " />
<glyph glyph-name="ocircumflex" unicode="&#xf4;" horiz-adv-x="580" d="M290 -1 C197 -1 97 143 116 250 C135 357 285 501 379 501 C472 501 571 357 552 250 C533 143 383 -1 290 -1 L290 -1 Z M94 250 C75 141 187 -5 289 -5 C392 -5 556 141 575 250 C594 359 482 505 379 505 C277 505 113 359 94 250 L94 250 Z M418 722 C418 722 499 534 499 534 C499 534 501 536 501 536 C501 536 427 739 427 739 C427 740 424 745 422 745 C418 745 416 742 415 739 C415 739 414 739 414 739 C414 739 269 536 269 536 C269 536 270 534 270 534 C270 534 418 722 418 722 L418 722 Z " />
<glyph glyph-name="otilde" unicode="&#xf5;" horiz-adv-x="580" d="M252 595 C257 626 292 667 313 667 C357 667 442 604 486 604 C511 604 551 646 556 677 C556 677 553 677 553 677 C548 652 514 617 493 617 C449 617 363 680 319 680 C296 680 255 631 249 595 C249 595 252 595 252 595 L252 595 Z M290 -1 C197 -1 97 143 116 250 C135 357 285 501 379 501 C472 501 571 357 552 250 C533 143 383 -1 290 -1 L290 -1 Z M94 250 C75 141 187 -5 289 -5 C392 -5 556 141 575 250 C594 359 482 505 379 505 C277 505 113 359 94 250 L94 250 Z " />
<glyph glyph-name="odieresis" unicode="&#xf6;" horiz-adv-x="580" d="M474 570 C483 570 496 581 498 590 C499 599 490 610 481 610 C473 610 459 599 458 590 C456 581 466 570 474 570 L474 570 Z M307 570 C316 570 329 581 331 590 C332 599 323 610 314 610 C306 610 292 599 291 590 C289 581 299 570 307 570 L307 570 Z M290 -1 C197 -1 97 143 116 250 C135 357 285 501 379 501 C472 501 571 357 552 250 C533 143 383 -1 290 -1 L290 -1 Z M94 250 C75 141 187 -5 289 -5 C392 -5 556 141 575 250 C594 359 482 505 379 505 C277 505 113 359 94 250 L94 250 Z " />
<glyph glyph-name="oslash" unicode="&#xf8;" horiz-adv-x="580" d="M51 -7 C51 -7 148 79 148 79 C186 30 239 -5 289 -5 C392 -5 556 141 575 250 C584 304 562 366 525 416 C525 416 622 503 622 503 C622 503 618 507 618 507 C618 507 521 420 521 420 C483 470 430 505 379 505 C277 505 113 359 94 250 C85 196 107 134 144 84 C144 84 47 -3 47 -3 C47 -3 51 -7 51 -7 L51 -7 Z M290 -1 C242 -1 192 37 158 89 C158 89 514 406 514 406 C544 358 561 300 552 250 C533 143 383 -1 290 -1 C290 -1 290 -1 290 -1 L290 -1 Z M155 93 C124 141 107 200 116 250 C135 357 285 501 379 501 C427 501 476 463 511 411 C511 411 155 93 155 93 L155 93 Z " />
<glyph glyph-name="ugrave" unicode="&#xf9;" horiz-adv-x="577" d="M164 420 C164 420 164 420 164 420 C164 420 118 156 118 156 C105 87 175 -5 251 -5 C315 -5 421 33 459 62 C459 62 448 0 448 0 C448 0 452 0 452 0 C452 0 547 25 547 25 C547 25 547 26 548 26 C548 30 549 34 549 34 C549 34 538 37 538 37 C504 44 484 72 487 107 C487 107 556 500 556 500 C556 500 546 500 546 500 C546 500 536 500 536 500 C536 500 461 500 461 500 C461 500 460 496 460 493 C460 493 458 485 458 485 C458 485 470 485 470 485 C496 485 526 450 522 422 C522 422 467 110 467 110 C467 110 467 110 467 110 C467 110 459 65 459 65 C427 40 331 8 269 8 C195 8 126 94 138 159 C138 159 198 500 198 500 C198 500 188 500 188 500 C188 500 178 500 178 500 C178 500 103 500 103 500 C103 500 102 496 102 493 C102 493 100 485 100 485 C100 485 112 485 112 485 C139 485 169 448 164 420 C164 420 164 420 164 420 L164 420 Z M372 671 C358 696 338 729 337 729 C335 729 325 723 324 721 C324 719 345 686 360 663 C360 663 447 532 447 532 C447 532 450 533 450 533 C450 533 372 671 372 671 L372 671 Z " />
<glyph glyph-name="uacute" unicode="&#xfa;" horiz-adv-x="577" d="M340 532 C340 532 470 663 470 663 C493 687 525 720 525 721 C525 723 518 729 515 729 C515 729 484 696 461 671 C461 671 338 533 338 533 C338 533 340 532 340 532 L340 532 Z M164 420 C164 420 164 420 164 420 C164 420 118 156 118 156 C105 87 175 -5 251 -5 C315 -5 421 33 459 62 C459 62 448 0 448 0 C448 0 452 0 452 0 C452 0 547 25 547 25 C547 25 547 26 548 26 C548 30 549 34 549 34 C549 34 538 37 538 37 C504 44 484 72 487 107 C487 107 556 500 556 500 C556 500 546 500 546 500 C546 500 536 500 536 500 C536 500 461 500 461 500 C461 500 460 496 460 493 C460 493 458 485 458 485 C458 485 470 485 470 485 C496 485 526 450 522 422 C522 422 467 110 467 110 C467 110 467 110 467 110 C467 110 459 65 459 65 C427 40 331 8 269 8 C195 8 126 94 138 159 C138 159 198 500 198 500 C198 500 188 500 188 500 C188 500 178 500 178 500 C178 500 103 500 103 500 C103 500 102 496 102 493 C102 493 100 485 100 485 C100 485 112 485 112 485 C139 485 169 448 164 420 C164 420 164 420 164 420 L164 420 Z " />
<glyph glyph-name="ucircumflex" unicode="&#xfb;" horiz-adv-x="577" d="M164 420 C164 420 164 420 164 420 C164 420 118 156 118 156 C105 87 175 -5 251 -5 C315 -5 421 33 459 62 C459 62 448 0 448 0 C448 0 452 0 452 0 C452 0 547 25 547 25 C547 25 547 26 548 26 C548 30 549 34 549 34 C549 34 538 37 538 37 C504 44 484 72 487 107 C487 107 556 500 556 500 C556 500 546 500 546 500 C546 500 536 500 536 500 C536 500 461 500 461 500 C461 500 460 496 460 493 C460 493 458 485 458 485 C458 485 470 485 470 485 C496 485 526 450 522 422 C522 422 467 110 467 110 C467 110 467 110 467 110 C467 110 459 65 459 65 C427 40 331 8 269 8 C195 8 126 94 138 159 C138 159 198 500 198 500 C198 500 188 500 188 500 C188 500 178 500 178 500 C178 500 103 500 103 500 C103 500 102 496 102 493 C102 493 100 485 100 485 C100 485 112 485 112 485 C139 485 169 448 164 420 C164 420 164 420 164 420 L164 420 Z M406 723 C406 723 487 534 487 534 C487 534 490 536 490 536 C490 536 416 739 416 739 C415 740 412 745 410 745 C407 745 405 742 403 739 C403 739 403 739 403 739 C403 739 257 536 257 536 C257 536 259 534 259 534 C259 534 406 723 406 723 L406 723 Z " />
<glyph glyph-name="udieresis" unicode="&#xfc;" horiz-adv-x="577" d="M463 570 C471 570 485 581 486 590 C488 599 478 610 470 610 C461 610 448 599 446 590 C445 581 454 570 463 570 L463 570 Z M296 570 C304 570 318 581 319 590 C321 599 311 610 303 610 C294 610 281 599 279 590 C278 581 287 570 296 570 L296 570 Z M164 420 C164 420 164 420 164 420 C164 420 118 156 118 156 C105 87 175 -5 251 -5 C315 -5 421 33 459 62 C459 62 448 0 448 0 C448 0 452 0 452 0 C452 0 547 25 547 25 C547 25 547 26 548 26 C548 30 549 34 549 34 C549 34 538 37 538 37 C504 44 484 72 487 107 C487 107 556 500 556 500 C556 500 546 500 546 500 C546 500 536 500 536 500 C536 500 461 500 461 500 C461 500 460 496 460 493 C460 493 458 485 458 485 C458 485 470 485 470 485 C496 485 526 450 522 422 C522 422 467 110 467 110 C467 110 467 110 467 110 C467 110 459 65 459 65 C427 40 331 8 269 8 C195 8 126 94 138 159 C138 159 198 500 198 500 C198 500 188 500 188 500 C188 500 178 500 178 500 C178 500 103 500 103 500 C103 500 102 496 102 493 C102 493 100 485 100 485 C100 485 112 485 112 485 C139 485 169 448 164 420 C164 420 164 420 164 420 L164 420 Z " />
<glyph glyph-name="ydieresis" unicode="&#xff;" horiz-adv-x="446" d="M441 570 C450 570 463 581 465 590 C466 599 457 610 448 610 C440 610 426 599 425 590 C423 581 433 570 441 570 L441 570 Z M274 570 C283 570 296 581 298 590 C299 599 290 610 281 610 C273 610 259 599 258 590 C256 581 266 570 274 570 L274 570 Z M477 426 C477 426 264 17 264 17 C264 17 203 421 203 421 C200 449 228 485 253 485 C253 485 264 485 264 485 C264 485 265 489 265 493 C266 496 266 500 266 500 C266 500 191 500 191 500 C191 500 180 500 180 500 C180 500 168 500 168 500 C168 500 98 500 98 500 C99 500 98 496 97 493 C97 489 96 485 96 485 C96 485 107 485 107 485 C133 485 173 451 180 424 C180 424 249 -7 249 -7 C249 -7 216 -70 216 -70 C176 -146 115 -217 90 -217 C76 -217 52 -193 38 -193 C34 -193 27 -198 27 -202 C24 -214 52 -230 75 -230 C107 -230 178 -153 221 -72 C221 -72 254 -10 254 -10 C254 -10 480 420 480 420 C480 420 480 420 480 420 C495 448 551 485 578 485 C578 485 589 485 589 485 C589 485 590 489 590 493 C591 496 592 500 592 500 C592 500 522 500 522 500 C522 500 519 500 519 500 C519 500 515 500 515 500 C515 500 440 500 440 500 C440 500 440 496 439 493 C439 489 438 485 438 485 C438 485 448 485 448 485 C472 485 486 453 477 426 L477 426 Z " />
<glyph glyph-name="Amacron" unicode="&#x100;" horiz-adv-x="595" d="M285 774 C285 774 585 774 585 774 C585 774 587 785 587 785 C587 785 287 785 287 785 C287 785 285 774 285 774 L285 774 Z M518 80 C518 80 518 80 518 80 C518 80 421 675 421 675 C421 675 415 675 415 675 C415 675 115 80 115 80 C115 80 115 80 115 80 C101 52 46 15 19 15 C19 15 8 15 8 15 C8 15 7 11 6 8 C6 4 5 0 5 0 C5 0 75 0 75 0 C75 0 79 0 79 0 C79 0 83 0 83 0 C83 0 193 0 193 0 C193 0 195 14 195 15 C195 15 170 15 170 15 C138 15 116 55 127 88 C127 88 203 239 203 239 C203 239 468 239 468 239 C468 239 494 74 494 74 C494 47 465 15 439 15 C439 15 404 15 404 15 C404 15 403 11 403 8 C403 8 401 0 401 0 C401 0 506 0 506 0 C506 0 519 0 519 0 C519 0 531 0 531 0 C531 0 591 0 591 0 C591 0 592 4 592 7 C593 11 593 15 593 15 C593 15 584 15 584 15 C560 15 522 52 518 80 C518 80 518 80 518 80 L518 80 Z M468 244 C468 244 205 244 205 244 C205 244 405 643 405 643 C405 643 468 244 468 244 L468 244 Z " />
<glyph glyph-name="amacron" unicode="&#x101;" horiz-adv-x="565" d="M206 614 C206 614 506 614 506 614 C506 614 508 625 508 625 C508 625 208 625 208 625 C208 625 206 614 206 614 L206 614 Z M455 4 C455 4 535 25 535 25 C535 25 535 26 536 26 C536 30 537 34 537 34 C537 34 526 37 526 37 C491 45 472 72 475 108 C498 239 520 370 544 500 C544 500 538 500 538 500 C538 500 509 410 509 410 C492 450 404 505 345 505 C259 505 116 346 95 228 C78 128 165 -5 247 -5 C294 -5 411 67 458 124 C457 119 456 115 455 110 C455 110 455 110 455 110 C455 110 439 18 439 18 C438 10 436 3 435 -5 C435 -5 438 -5 438 -5 C438 -5 455 4 455 4 L455 4 Z M459 128 C417 75 305 7 260 7 C182 7 100 138 117 236 C137 349 267 500 343 500 C405 500 499 438 506 400 C490 309 474 219 459 128 C459 128 459 128 459 128 L459 128 Z " />
<glyph glyph-name="Abreve" unicode="&#x102;" horiz-adv-x="595" d="M345 872 C341 834 394 783 437 783 C480 783 551 834 560 872 C560 872 556 872 556 872 C548 840 481 796 439 796 C397 796 345 840 349 872 C349 872 345 872 345 872 L345 872 Z M518 80 C518 80 518 80 518 80 C518 80 421 675 421 675 C421 675 415 675 415 675 C415 675 115 80 115 80 C115 80 115 80 115 80 C101 52 46 15 19 15 C19 15 8 15 8 15 C8 15 7 11 6 8 C6 4 5 0 5 0 C5 0 75 0 75 0 C75 0 79 0 79 0 C79 0 83 0 83 0 C83 0 193 0 193 0 C193 0 195 14 195 15 C195 15 170 15 170 15 C138 15 116 55 127 88 C127 88 203 239 203 239 C203 239 468 239 468 239 C468 239 494 74 494 74 C494 47 465 15 439 15 C439 15 404 15 404 15 C404 15 403 11 403 8 C403 8 401 0 401 0 C401 0 506 0 506 0 C506 0 519 0 519 0 C519 0 531 0 531 0 C531 0 591 0 591 0 C591 0 592 4 592 7 C593 11 593 15 593 15 C593 15 584 15 584 15 C560 15 522 52 518 80 C518 80 518 80 518 80 L518 80 Z M468 244 C468 244 205 244 205 244 C205 244 405 643 405 643 C405 643 468 244 468 244 L468 244 Z " />
<glyph glyph-name="abreve" unicode="&#x103;" horiz-adv-x="565" d="M261 682 C257 644 309 593 353 593 C396 593 466 644 476 682 C476 682 472 682 472 682 C464 650 397 606 355 606 C313 606 261 650 265 682 C265 682 261 682 261 682 L261 682 Z M455 4 C455 4 535 25 535 25 C535 25 535 26 536 26 C536 30 537 34 537 34 C537 34 526 37 526 37 C491 45 472 72 475 108 C498 239 520 370 544 500 C544 500 538 500 538 500 C538 500 509 410 509 410 C492 450 404 505 345 505 C259 505 116 346 95 228 C78 128 165 -5 247 -5 C294 -5 411 67 458 124 C457 119 456 115 455 110 C455 110 455 110 455 110 C455 110 439 18 439 18 C438 10 436 3 435 -5 C435 -5 438 -5 438 -5 C438 -5 455 4 455 4 L455 4 Z M459 128 C417 75 305 7 260 7 C182 7 100 138 117 236 C137 349 267 500 343 500 C405 500 499 438 506 400 C490 309 474 219 459 128 C459 128 459 128 459 128 L459 128 Z " />
<glyph glyph-name="Aogonek" unicode="&#x104;" horiz-adv-x="595" d="M518 80 C518 80 518 80 518 80 C518 80 421 675 421 675 C421 675 415 675 415 675 C415 675 115 80 115 80 C115 80 115 80 115 80 C101 52 46 15 19 15 C19 15 8 15 8 15 C8 15 7 11 6 8 C6 4 5 0 5 0 C5 0 75 0 75 0 C75 0 79 0 79 0 C79 0 83 0 83 0 C83 0 193 0 193 0 C193 0 195 14 195 15 C195 15 170 15 170 15 C138 15 116 55 127 88 C127 88 203 239 203 239 C203 239 468 239 468 239 C468 239 494 74 494 74 C494 47 465 15 439 15 C439 15 404 15 404 15 C404 15 403 11 403 8 C403 8 401 0 401 0 C401 0 499 0 499 0 C460 -22 357 -112 350 -157 C344 -188 386 -231 423 -231 C444 -231 492 -211 507 -197 C507 -197 506 -195 506 -195 C493 -208 449 -226 429 -226 C395 -226 357 -185 362 -154 C371 -107 480 -9 506 0 C506 0 519 0 519 0 C519 0 531 0 531 0 C531 0 591 0 591 0 C591 0 592 4 592 7 C593 11 593 15 593 15 C593 15 584 15 584 15 C560 15 522 52 518 80 C518 80 518 80 518 80 L518 80 Z M468 244 C468 244 205 244 205 244 C205 244 405 643 405 643 C405 643 468 244 468 244 L468 244 Z " />
<glyph glyph-name="aogonek" unicode="&#x105;" horiz-adv-x="469" d="M414 8 C405 3 397 0 392 0 C371 0 359 31 363 54 C363 54 418 363 418 363 C429 424 378 505 330 505 C266 505 160 453 145 414 C145 414 165 414 165 414 C179 451 270 499 325 499 C366 499 407 424 397 367 C397 367 376 245 376 245 C376 245 234 226 234 226 C164 216 61 145 53 100 C45 55 98 -5 145 -5 C192 -5 298 42 347 83 C347 83 342 52 342 52 C337 25 351 -10 377 -10 C383 -10 392 -7 402 -2 C357 -41 303 -100 296 -135 C289 -176 329 -231 366 -231 C387 -231 435 -211 450 -197 C450 -197 449 -195 449 -195 C436 -208 391 -226 372 -226 C338 -226 302 -173 309 -133 C316 -94 378 -27 421 8 C434 15 446 24 455 31 C455 31 456 36 456 36 C448 33 432 23 414 8 C414 8 414 8 414 8 L414 8 Z M375 239 C375 239 348 87 348 87 C303 50 202 8 157 8 C114 8 66 64 74 106 C81 146 172 211 233 219 C233 219 375 239 375 239 L375 239 Z " />
<glyph glyph-name="Cacute" unicode="&#x106;" horiz-adv-x="726" d="M480 692 C480 692 611 823 611 823 C634 847 666 880 666 881 C666 883 658 889 656 889 C655 889 625 856 602 831 C602 831 478 693 478 693 C478 693 480 692 480 692 L480 692 Z M750 471 C750 471 773 601 773 601 C730 629 588 665 524 665 C380 665 154 473 129 330 C104 187 262 -5 406 -5 C470 -5 625 31 677 59 C677 59 700 189 700 189 C700 189 687 189 687 189 C683 181 671 159 667 151 C638 96 507 10 438 3 C438 3 438 3 438 3 C426 2 416 1 407 1 C273 1 129 189 154 330 C178 471 390 659 523 659 C542 659 569 656 599 650 C649 634 721 557 730 509 C732 501 735 479 737 471 C737 471 750 471 750 471 L750 471 Z " />
<glyph glyph-name="cacute" unicode="&#x107;" horiz-adv-x="454" d="M306 532 C306 532 437 663 437 663 C460 687 492 720 492 721 C492 723 484 729 482 729 C481 729 450 696 428 671 C428 671 304 533 304 533 C304 533 306 532 306 532 L306 532 Z M406 24 C406 24 404 26 404 26 C394 18 302 7 244 7 C170 7 96 144 114 246 C134 354 284 499 377 499 C415 499 460 444 456 403 C456 399 461 393 465 393 C468 393 474 398 475 402 C479 446 425 505 380 505 C277 505 112 352 92 238 C74 134 150 -5 225 -5 C286 -5 389 11 406 24 L406 24 Z " />
<glyph glyph-name="Ccircumflex" unicode="&#x108;" horiz-adv-x="726" d="M750 471 C750 471 773 601 773 601 C730 629 588 665 524 665 C380 665 154 473 129 330 C104 187 262 -5 406 -5 C470 -5 625 31 677 59 C677 59 700 189 700 189 C700 189 687 189 687 189 C683 181 671 159 667 151 C638 96 507 10 438 3 C438 3 438 3 438 3 C426 2 416 1 407 1 C273 1 129 189 154 330 C178 471 390 659 523 659 C542 659 569 656 599 650 C649 634 721 557 730 509 C732 501 735 479 737 471 C737 471 750 471 750 471 L750 471 Z M562 883 C562 883 643 694 643 694 C643 694 645 696 645 696 C645 696 571 899 571 899 C571 900 568 905 566 905 C563 905 561 902 559 899 C559 899 559 899 559 899 C559 899 413 696 413 696 C413 696 415 694 415 694 C415 694 562 883 562 883 L562 883 Z " />
<glyph glyph-name="Cdotaccent" unicode="&#x10a;" horiz-adv-x="726" d="M535 730 C544 730 557 741 559 750 C560 759 551 770 542 770 C534 770 520 759 519 750 C517 741 527 730 535 730 L535 730 Z M750 471 C750 471 773 601 773 601 C730 629 588 665 524 665 C380 665 154 473 129 330 C104 187 262 -5 406 -5 C470 -5 625 31 677 59 C677 59 700 189 700 189 C700 189 687 189 687 189 C683 181 671 159 667 151 C638 96 507 10 438 3 C438 3 438 3 438 3 C426 2 416 1 407 1 C273 1 129 189 154 330 C178 471 390 659 523 659 C542 659 569 656 599 650 C649 634 721 557 730 509 C732 501 735 479 737 471 C737 471 750 471 750 471 L750 471 Z " />
<glyph glyph-name="cdotaccent" unicode="&#x10b;" horiz-adv-x="454" d="M392 570 C400 570 414 581 415 590 C417 599 407 610 399 610 C390 610 377 599 375 590 C374 581 383 570 392 570 L392 570 Z M406 24 C406 24 404 26 404 26 C394 18 302 7 244 7 C170 7 96 144 114 246 C134 354 284 499 377 499 C415 499 460 444 456 403 C456 399 461 393 465 393 C468 393 474 398 475 402 C479 446 425 505 380 505 C277 505 112 352 92 238 C74 134 150 -5 225 -5 C286 -5 389 11 406 24 L406 24 Z " />
<glyph glyph-name="Ccaron" unicode="&#x10c;" horiz-adv-x="726" d="M750 471 C750 471 773 601 773 601 C730 629 588 665 524 665 C380 665 154 473 129 330 C104 187 262 -5 406 -5 C470 -5 625 31 677 59 C677 59 700 189 700 189 C700 189 687 189 687 189 C683 181 671 159 667 151 C638 96 507 10 438 3 C438 3 438 3 438 3 C426 2 416 1 407 1 C273 1 129 189 154 330 C178 471 390 659 523 659 C542 659 569 656 599 650 C649 634 721 557 730 509 C732 501 735 479 737 471 C737 471 750 471 750 471 L750 471 Z M536 738 C536 738 684 926 684 926 C684 926 686 924 686 924 C686 924 540 721 540 721 C539 720 535 715 533 715 C530 715 528 719 527 721 C527 721 453 924 453 924 C453 924 456 926 456 926 C456 926 536 738 536 738 L536 738 Z " />
<glyph glyph-name="ccaron" unicode="&#x10d;" horiz-adv-x="454" d="M406 24 C406 24 404 26 404 26 C394 18 302 7 244 7 C170 7 96 144 114 246 C134 354 284 499 377 499 C415 499 460 444 456 403 C456 399 461 393 465 393 C468 393 474 398 475 402 C479 446 425 505 380 505 C277 505 112 352 92 238 C74 134 150 -5 225 -5 C286 -5 389 11 406 24 L406 24 Z M393 577 C393 577 540 766 540 766 C540 766 542 764 542 764 C542 764 396 561 396 561 C395 560 391 555 389 555 C387 555 384 559 384 561 C384 561 310 764 310 764 C310 764 312 766 312 766 C312 766 393 577 393 577 L393 577 Z " />
<glyph glyph-name="Dcaron" unicode="&#x10e;" horiz-adv-x="666" d="M494 738 C494 738 642 926 642 926 C642 926 644 924 644 924 C644 924 498 721 498 721 C497 720 493 715 491 715 C488 715 486 719 485 721 C485 721 411 924 411 924 C411 924 413 926 413 926 C413 926 494 738 494 738 L494 738 Z M146 0 C146 0 157 0 157 0 C157 0 332 0 332 0 C454 0 650 189 675 330 C700 471 545 660 404 660 C404 660 273 660 273 660 C273 660 272 654 272 654 C272 654 403 654 403 654 C534 654 677 469 653 330 C628 191 445 6 333 6 C333 6 158 6 158 6 C158 6 273 660 273 660 C273 660 262 660 262 660 C262 660 251 660 251 660 C251 660 176 660 176 660 C176 660 175 656 174 653 C174 649 173 645 173 645 C173 645 184 645 184 645 C210 645 239 610 237 583 C237 583 147 74 147 74 C137 47 98 15 73 15 C73 15 62 15 62 15 C62 15 61 11 61 8 C61 8 59 0 59 0 C59 0 134 0 134 0 C134 0 146 0 146 0 L146 0 Z " />
<glyph glyph-name="dcaron" unicode="&#x10f;" horiz-adv-x="587" d="M691 644 C711 685 739 747 739 750 C740 752 730 754 727 754 C724 754 692 680 679 649 C679 649 613 488 613 488 C613 488 616 487 616 487 C616 487 691 644 691 644 L691 644 Z M601 699 C601 699 605 720 605 720 C605 720 601 720 601 720 C601 720 505 695 505 695 C505 695 505 694 505 694 C505 690 504 686 504 686 C504 686 515 683 515 683 C549 675 569 647 566 612 C566 612 531 413 531 413 C508 454 419 505 357 505 C266 505 116 346 95 228 C78 128 172 -5 259 -5 C314 -5 429 32 468 60 C468 60 458 0 458 0 C458 0 462 0 462 0 C462 0 557 25 557 25 C557 25 557 26 558 26 C558 30 559 34 559 34 C559 34 548 37 548 37 C514 44 494 72 497 107 C497 107 601 699 601 699 L601 699 Z M478 110 C478 110 477 110 477 110 C477 110 469 64 469 64 C439 39 327 7 273 7 C189 7 100 138 117 236 C137 349 274 500 355 500 C419 500 514 444 529 405 C529 405 478 110 478 110 L478 110 Z " />
<glyph glyph-name="Emacron" unicode="&#x112;" horiz-adv-x="547" d="M516 519 C522 549 535 628 541 657 C541 657 541 660 541 660 C541 660 539 660 539 660 C539 660 461 660 461 660 C461 660 254 660 254 660 C254 660 242 660 242 660 C242 660 231 660 231 660 C231 660 156 660 156 660 C156 659 154 645 154 645 C154 645 165 645 165 645 C191 645 221 610 217 582 C217 582 129 80 129 80 C129 80 129 80 129 80 C124 52 81 15 54 15 C54 15 43 15 43 15 C43 15 42 11 41 8 C41 4 40 0 40 0 C40 0 115 0 115 0 C115 0 126 0 126 0 C126 0 137 0 137 0 C137 0 353 0 353 0 C353 0 432 0 432 0 C432 0 433 0 433 0 C433 0 434 2 434 3 C444 32 472 111 483 141 C482 140 482 140 481 141 C477 140 472 140 472 141 C472 141 472 141 472 141 C472 141 472 141 472 141 C472 141 448 106 448 106 C419 64 326 7 282 6 C282 6 280 6 280 6 C280 6 138 6 138 6 C138 6 254 660 254 660 C254 660 253 654 253 654 C253 654 385 654 385 654 C428 654 494 597 500 554 C500 554 505 519 505 519 C505 519 516 519 516 519 L516 519 Z M255 774 C255 774 555 774 555 774 C555 774 557 785 557 785 C557 785 257 785 257 785 C257 785 255 774 255 774 L255 774 Z M414 264 C417 282 425 328 429 349 C429 349 429 349 429 349 C429 349 430 355 430 355 C430 355 430 355 430 355 C433 373 440 414 443 430 C443 430 431 430 431 430 C431 430 425 419 425 419 C412 391 346 355 310 355 C310 355 200 355 200 355 C200 355 199 349 199 349 C199 349 309 349 309 349 C345 349 397 308 400 277 C400 277 402 264 402 264 C402 264 414 264 414 264 L414 264 Z " />
<glyph glyph-name="emacron" unicode="&#x113;" horiz-adv-x="461" d="M213 614 C213 614 513 614 513 614 C513 614 515 625 515 625 C515 625 215 625 215 625 C215 625 213 614 213 614 L213 614 Z M413 24 C413 24 411 26 411 26 C400 18 306 7 247 7 C172 7 96 144 114 246 C119 273 131 302 147 331 C147 331 469 331 469 331 C482 405 410 505 343 505 C279 505 185 423 131 334 C131 334 130 334 130 334 C130 334 129 331 129 331 C129 331 129 331 129 331 C111 300 97 267 92 238 C74 134 152 -5 228 -5 C290 -5 396 11 413 24 C413 24 413 24 413 24 L413 24 Z M149 334 C197 419 283 499 341 499 C401 499 465 412 454 347 C453 343 446 338 442 338 C442 338 452 338 452 338 C452 338 149 334 149 334 L149 334 Z " />
<glyph glyph-name="Ebreve" unicode="&#x114;" horiz-adv-x="547" d="M516 519 C522 549 535 628 541 657 C541 657 541 660 541 660 C541 660 539 660 539 660 C539 660 461 660 461 660 C461 660 254 660 254 660 C254 660 242 660 242 660 C242 660 231 660 231 660 C231 660 156 660 156 660 C156 659 154 645 154 645 C154 645 165 645 165 645 C191 645 221 610 217 582 C217 582 129 80 129 80 C129 80 129 80 129 80 C124 52 81 15 54 15 C54 15 43 15 43 15 C43 15 42 11 41 8 C41 4 40 0 40 0 C40 0 115 0 115 0 C115 0 126 0 126 0 C126 0 137 0 137 0 C137 0 353 0 353 0 C353 0 432 0 432 0 C432 0 433 0 433 0 C433 0 434 2 434 3 C444 32 472 111 483 141 C482 140 482 140 481 141 C477 140 472 140 472 141 C472 141 472 141 472 141 C472 141 472 141 472 141 C472 141 448 106 448 106 C419 64 326 7 282 6 C282 6 280 6 280 6 C280 6 138 6 138 6 C138 6 254 660 254 660 C254 660 253 654 253 654 C253 654 385 654 385 654 C428 654 494 597 500 554 C500 554 505 519 505 519 C505 519 516 519 516 519 L516 519 Z M315 872 C311 834 363 783 407 783 C450 783 520 834 530 872 C530 872 526 872 526 872 C518 840 451 796 409 796 C367 796 315 840 319 872 C319 872 315 872 315 872 L315 872 Z M414 264 C417 282 425 328 429 349 C429 349 429 349 429 349 C429 349 430 355 430 355 C430 355 430 355 430 355 C433 373 440 414 443 430 C443 430 431 430 431 430 C431 430 425 419 425 419 C412 391 346 355 310 355 C310 355 200 355 200 355 C200 355 199 349 199 349 C199 349 309 349 309 349 C345 349 397 308 400 277 C400 277 402 264 402 264 C402 264 414 264 414 264 L414 264 Z " />
<glyph glyph-name="ebreve" unicode="&#x115;" horiz-adv-x="461" d="M272 712 C268 674 321 623 364 623 C407 623 478 674 487 712 C487 712 484 712 484 712 C476 680 409 636 366 636 C324 636 273 680 276 712 C276 712 272 712 272 712 L272 712 Z M413 24 C413 24 411 26 411 26 C400 18 306 7 247 7 C172 7 96 144 114 246 C119 273 131 302 147 331 C147 331 469 331 469 331 C482 405 410 505 343 505 C279 505 185 423 131 334 C131 334 130 334 130 334 C130 334 129 331 129 331 C129 331 129 331 129 331 C111 300 97 267 92 238 C74 134 152 -5 228 -5 C290 -5 396 11 413 24 C413 24 413 24 413 24 L413 24 Z M149 334 C197 419 283 499 341 499 C401 499 465 412 454 347 C453 343 446 338 442 338 C442 338 452 338 452 338 C452 338 149 334 149 334 L149 334 Z " />
<glyph glyph-name="Edotaccent" unicode="&#x116;" horiz-adv-x="547" d="M516 519 C522 549 535 628 541 657 C541 657 541 660 541 660 C541 660 539 660 539 660 C539 660 461 660 461 660 C461 660 254 660 254 660 C254 660 242 660 242 660 C242 660 231 660 231 660 C231 660 156 660 156 660 C156 659 154 645 154 645 C154 645 165 645 165 645 C191 645 221 610 217 582 C217 582 129 80 129 80 C129 80 129 80 129 80 C124 52 81 15 54 15 C54 15 43 15 43 15 C43 15 42 11 41 8 C41 4 40 0 40 0 C40 0 115 0 115 0 C115 0 126 0 126 0 C126 0 137 0 137 0 C137 0 353 0 353 0 C353 0 432 0 432 0 C432 0 433 0 433 0 C433 0 434 2 434 3 C444 32 472 111 483 141 C482 140 482 140 481 141 C477 140 472 140 472 141 C472 141 472 141 472 141 C472 141 472 141 472 141 C472 141 448 106 448 106 C419 64 326 7 282 6 C282 6 280 6 280 6 C280 6 138 6 138 6 C138 6 254 660 254 660 C254 660 253 654 253 654 C253 654 385 654 385 654 C428 654 494 597 500 554 C500 554 505 519 505 519 C505 519 516 519 516 519 L516 519 Z M397 730 C406 730 420 741 421 750 C423 759 413 770 404 770 C396 770 383 759 381 750 C380 741 389 730 397 730 L397 730 Z M414 264 C417 282 425 328 429 349 C429 349 429 349 429 349 C429 349 430 355 430 355 C430 355 430 355 430 355 C433 373 440 414 443 430 C443 430 431 430 431 430 C431 430 425 419 425 419 C412 391 346 355 310 355 C310 355 200 355 200 355 C200 355 199 349 199 349 C199 349 309 349 309 349 C345 349 397 308 400 277 C400 277 402 264 402 264 C402 264 414 264 414 264 L414 264 Z " />
<glyph glyph-name="edotaccent" unicode="&#x117;" horiz-adv-x="461" d="M355 570 C363 570 377 581 378 590 C380 599 370 610 362 610 C353 610 340 599 338 590 C337 581 346 570 355 570 L355 570 Z M413 24 C413 24 411 26 411 26 C400 18 306 7 247 7 C172 7 96 144 114 246 C119 273 131 302 147 331 C147 331 469 331 469 331 C482 405 410 505 343 505 C279 505 185 423 131 334 C131 334 130 334 130 334 C130 334 129 331 129 331 C129 331 129 331 129 331 C111 300 97 267 92 238 C74 134 152 -5 228 -5 C290 -5 396 11 413 24 C413 24 413 24 413 24 L413 24 Z M149 334 C197 419 283 499 341 499 C401 499 465 412 454 347 C453 343 446 338 442 338 C442 338 452 338 452 338 C452 338 149 334 149 334 L149 334 Z " />
<glyph glyph-name="Eogonek" unicode="&#x118;" horiz-adv-x="547" d="M516 519 C522 549 535 628 541 657 C541 657 541 660 541 660 C541 660 539 660 539 660 C539 660 461 660 461 660 C461 660 254 660 254 660 C254 660 242 660 242 660 C242 660 231 660 231 660 C231 660 156 660 156 660 C156 659 154 645 154 645 C154 645 165 645 165 645 C191 645 221 610 217 582 C217 582 129 80 129 80 C129 80 129 80 129 80 C124 52 81 15 54 15 C54 15 43 15 43 15 C43 15 42 11 41 8 C41 4 40 0 40 0 C40 0 115 0 115 0 C115 0 126 0 126 0 C126 0 137 0 137 0 C137 0 353 0 353 0 C353 0 425 0 425 0 C386 -22 283 -112 275 -157 C270 -188 312 -231 349 -231 C370 -231 418 -211 433 -197 C433 -197 432 -195 432 -195 C419 -208 374 -226 354 -226 C321 -226 283 -185 288 -154 C296 -107 406 -9 432 0 C432 0 433 0 433 0 C433 0 434 2 434 3 C444 32 472 111 483 141 C482 140 482 140 481 141 C477 140 472 140 472 141 C472 141 472 141 472 141 C472 141 472 141 472 141 C472 141 448 106 448 106 C419 64 326 7 282 6 C282 6 280 6 280 6 C280 6 138 6 138 6 C138 6 254 660 254 660 C254 660 253 654 253 654 C253 654 385 654 385 654 C428 654 494 597 500 554 C500 554 505 519 505 519 C505 519 516 519 516 519 L516 519 Z M414 264 C417 282 425 328 429 349 C429 349 429 349 429 349 C429 349 430 355 430 355 C430 355 430 355 430 355 C433 373 440 414 443 430 C443 430 431 430 431 430 C431 430 425 419 425 419 C412 391 346 355 310 355 C310 355 200 355 200 355 C200 355 199 349 199 349 C199 349 309 349 309 349 C345 349 397 308 400 277 C400 277 402 264 402 264 C402 264 414 264 414 264 L414 264 Z " />
<glyph glyph-name="eogonek" unicode="&#x119;" horiz-adv-x="461" d="M149 334 C197 419 283 499 341 499 C401 499 465 412 454 347 C453 343 446 338 442 338 C442 338 452 338 452 338 C452 338 149 334 149 334 L149 334 Z M147 331 C147 331 469 331 469 331 C482 405 410 505 343 505 C279 505 185 423 131 334 C131 334 130 334 130 334 C130 334 129 331 129 331 C129 331 129 331 129 331 C111 300 97 267 92 238 C74 134 152 -5 228 -5 C232 -5 237 -5 242 -5 C202 -28 102 -115 94 -160 C89 -190 131 -231 168 -231 C189 -231 237 -211 252 -197 C252 -197 251 -195 251 -195 C238 -208 194 -226 174 -226 C140 -226 102 -187 107 -157 C115 -111 221 -17 250 -4 C312 -2 398 12 413 24 C413 24 411 26 411 26 C400 18 306 7 247 7 C172 7 96 144 114 246 C119 273 131 302 147 331 C147 331 147 331 147 331 L147 331 Z " />
<glyph glyph-name="Ecaron" unicode="&#x11a;" horiz-adv-x="547" d="M516 519 C522 549 535 628 541 657 C541 657 541 660 541 660 C541 660 539 660 539 660 C539 660 461 660 461 660 C461 660 254 660 254 660 C254 660 242 660 242 660 C242 660 231 660 231 660 C231 660 156 660 156 660 C156 659 154 645 154 645 C154 645 165 645 165 645 C191 645 221 610 217 582 C217 582 129 80 129 80 C129 80 129 80 129 80 C124 52 81 15 54 15 C54 15 43 15 43 15 C43 15 42 11 41 8 C41 4 40 0 40 0 C40 0 115 0 115 0 C115 0 126 0 126 0 C126 0 137 0 137 0 C137 0 353 0 353 0 C353 0 432 0 432 0 C432 0 433 0 433 0 C433 0 434 2 434 3 C444 32 472 111 483 141 C482 140 482 140 481 141 C477 140 472 140 472 141 C472 141 472 141 472 141 C472 141 472 141 472 141 C472 141 448 106 448 106 C419 64 326 7 282 6 C282 6 280 6 280 6 C280 6 138 6 138 6 C138 6 254 660 254 660 C254 660 253 654 253 654 C253 654 385 654 385 654 C428 654 494 597 500 554 C500 554 505 519 505 519 C505 519 516 519 516 519 L516 519 Z M414 264 C417 282 425 328 429 349 C429 349 429 349 429 349 C429 349 430 355 430 355 C430 355 430 355 430 355 C433 373 440 414 443 430 C443 430 431 430 431 430 C431 430 425 419 425 419 C412 391 346 355 310 355 C310 355 200 355 200 355 C200 355 199 349 199 349 C199 349 309 349 309 349 C345 349 397 308 400 277 C400 277 402 264 402 264 C402 264 414 264 414 264 L414 264 Z M398 738 C398 738 546 926 546 926 C546 926 548 924 548 924 C548 924 402 721 402 721 C401 720 397 715 395 715 C392 715 390 719 389 721 C389 721 315 924 315 924 C315 924 318 926 318 926 C318 926 398 738 398 738 L398 738 Z " />
<glyph glyph-name="ecaron" unicode="&#x11b;" horiz-adv-x="461" d="M413 24 C413 24 411 26 411 26 C400 18 306 7 247 7 C172 7 96 144 114 246 C119 273 131 302 147 331 C147 331 469 331 469 331 C482 405 410 505 343 505 C279 505 185 423 131 334 C131 334 130 334 130 334 C130 334 129 331 129 331 C129 331 129 331 129 331 C111 300 97 267 92 238 C74 134 152 -5 228 -5 C290 -5 396 11 413 24 C413 24 413 24 413 24 L413 24 Z M356 578 C356 578 503 766 503 766 C503 766 505 764 505 764 C505 764 360 561 360 561 C359 560 355 555 352 555 C350 555 347 559 347 561 C347 561 273 764 273 764 C273 764 275 766 275 766 C275 766 356 578 356 578 L356 578 Z M149 334 C197 419 283 499 341 499 C401 499 465 412 454 347 C453 343 446 338 442 338 C442 338 452 338 452 338 C452 338 149 334 149 334 L149 334 Z " />
<glyph glyph-name="Gcircumflex" unicode="&#x11c;" horiz-adv-x="821" d="M781 310 C781 310 706 310 706 310 C706 310 696 310 696 310 C696 310 686 310 686 310 C686 310 611 310 611 310 C612 310 611 306 610 303 C610 299 609 295 609 295 C609 295 620 295 620 295 C647 295 677 258 672 230 C672 230 672 230 672 230 C658 147 643 67 641 56 C578 30 451 1 395 1 C267 1 129 189 154 330 C178 471 383 659 512 659 C529 659 553 656 579 651 C629 635 701 558 710 509 C712 501 715 479 717 471 C717 471 730 471 730 471 C730 471 753 601 753 601 C710 629 573 665 513 665 C374 665 154 473 129 330 C104 187 256 -5 394 -5 C457 -5 610 31 662 59 C662 59 678 146 693 234 C701 262 741 295 768 295 C768 295 779 295 779 295 C779 295 781 309 781 310 C781 310 781 310 781 310 L781 310 Z M551 882 C551 882 632 694 632 694 C632 694 634 696 634 696 C634 696 560 899 560 899 C560 900 557 905 555 905 C553 905 548 901 548 899 C548 899 402 696 402 696 C402 696 404 694 404 694 C404 694 551 882 551 882 L551 882 Z " />
<glyph glyph-name="Gbreve" unicode="&#x11e;" horiz-adv-x="821" d="M442 872 C438 834 490 783 533 783 C576 783 647 834 656 872 C656 872 653 872 653 872 C645 840 578 796 536 796 C494 796 442 840 445 872 C445 872 442 872 442 872 L442 872 Z M781 310 C781 310 706 310 706 310 C706 310 696 310 696 310 C696 310 686 310 686 310 C686 310 611 310 611 310 C612 310 611 306 610 303 C610 299 609 295 609 295 C609 295 620 295 620 295 C647 295 677 258 672 230 C672 230 672 230 672 230 C658 147 643 67 641 56 C578 30 451 1 395 1 C267 1 129 189 154 330 C178 471 383 659 512 659 C529 659 553 656 579 651 C629 635 701 558 710 509 C712 501 715 479 717 471 C717 471 730 471 730 471 C730 471 753 601 753 601 C710 629 573 665 513 665 C374 665 154 473 129 330 C104 187 256 -5 394 -5 C457 -5 610 31 662 59 C662 59 678 146 693 234 C701 262 741 295 768 295 C768 295 779 295 779 295 C779 295 781 309 781 310 C781 310 781 310 781 310 L781 310 Z " />
<glyph glyph-name="gbreve" unicode="&#x11f;" horiz-adv-x="461" d="M272 712 C268 674 321 623 364 623 C407 623 478 674 487 712 C487 712 483 712 483 712 C476 680 409 636 366 636 C324 636 273 680 276 712 C276 712 272 712 272 712 L272 712 Z M550 500 C550 500 399 491 399 491 C399 491 399 491 399 491 C381 500 362 505 343 505 C267 505 150 417 138 352 C128 293 195 218 264 202 C264 202 235 202 235 202 C174 202 84 156 78 122 C72 87 127 44 181 38 C112 14 21 -60 14 -100 C4 -158 72 -236 134 -236 C248 -236 418 -134 431 -59 C440 -8 351 59 275 59 C275 59 202 56 202 56 C149 53 87 95 93 130 C98 160 179 199 234 199 C234 199 289 199 289 199 C365 199 482 286 494 352 C502 397 463 453 412 484 C412 484 548 489 548 489 C548 489 550 500 550 500 L550 500 Z M157 352 C168 416 274 501 342 501 C360 501 380 495 397 484 C397 484 397 483 397 483 C397 483 399 483 399 483 C446 455 483 398 475 352 C464 288 358 203 290 203 C222 203 146 288 157 352 C157 352 157 352 157 352 L157 352 Z M187 37 C191 37 195 37 199 37 C199 37 267 40 267 40 C338 40 423 -22 415 -69 C403 -138 244 -231 137 -231 C80 -231 18 -155 28 -98 C35 -58 123 15 187 37 C187 37 187 37 187 37 L187 37 Z " />
<glyph glyph-name="Gdotaccent" unicode="&#x120;" horiz-adv-x="821" d="M524 730 C532 730 546 741 548 750 C549 759 540 770 531 770 C522 770 509 759 508 750 C506 741 515 730 524 730 L524 730 Z M781 310 C781 310 706 310 706 310 C706 310 696 310 696 310 C696 310 686 310 686 310 C686 310 611 310 611 310 C612 310 611 306 610 303 C610 299 609 295 609 295 C609 295 620 295 620 295 C647 295 677 258 672 230 C672 230 672 230 672 230 C658 147 643 67 641 56 C578 30 451 1 395 1 C267 1 129 189 154 330 C178 471 383 659 512 659 C529 659 553 656 579 651 C629 635 701 558 710 509 C712 501 715 479 717 471 C717 471 730 471 730 471 C730 471 753 601 753 601 C710 629 573 665 513 665 C374 665 154 473 129 330 C104 187 256 -5 394 -5 C457 -5 610 31 662 59 C662 59 678 146 693 234 C701 262 741 295 768 295 C768 295 779 295 779 295 C779 295 781 309 781 310 C781 310 781 310 781 310 L781 310 Z " />
<glyph glyph-name="gdotaccent" unicode="&#x121;" horiz-adv-x="461" d="M355 570 C363 570 377 581 378 590 C380 599 370 610 362 610 C353 610 340 599 338 590 C337 581 346 570 355 570 L355 570 Z M550 500 C550 500 399 491 399 491 C399 491 399 491 399 491 C381 500 362 505 343 505 C267 505 150 417 138 352 C128 293 195 218 264 202 C264 202 235 202 235 202 C174 202 84 156 78 122 C72 87 127 44 181 38 C112 14 21 -60 14 -100 C4 -158 72 -236 134 -236 C248 -236 418 -134 431 -59 C440 -8 351 59 275 59 C275 59 202 56 202 56 C149 53 87 95 93 130 C98 160 179 199 234 199 C234 199 289 199 289 199 C365 199 482 286 494 352 C502 397 463 453 412 484 C412 484 548 489 548 489 C548 489 550 500 550 500 L550 500 Z M157 352 C168 416 274 501 342 501 C360 501 380 495 397 484 C397 484 397 483 397 483 C397 483 399 483 399 483 C446 455 483 398 475 352 C464 288 358 203 290 203 C222 203 146 288 157 352 C157 352 157 352 157 352 L157 352 Z M187 37 C191 37 195 37 199 37 C199 37 267 40 267 40 C338 40 423 -22 415 -69 C403 -138 244 -231 137 -231 C80 -231 18 -155 28 -98 C35 -58 123 15 187 37 C187 37 187 37 187 37 L187 37 Z " />
<glyph glyph-name="Hcircumflex" unicode="&#x124;" horiz-adv-x="760" d="M154 645 C154 645 165 645 165 645 C191 645 221 610 217 582 C217 582 129 80 129 80 C129 80 129 80 129 80 C124 52 81 15 54 15 C54 15 43 15 43 15 C43 15 42 11 41 8 C41 4 40 0 40 0 C40 0 115 0 115 0 C115 0 126 0 126 0 C126 0 137 0 137 0 C137 0 212 0 212 0 C212 0 214 8 214 8 C214 11 215 15 215 15 C215 15 204 15 204 15 C177 15 149 50 151 77 C151 77 198 344 198 344 C198 344 684 344 684 344 C684 344 637 80 637 80 C637 80 637 80 637 80 C632 52 589 15 562 15 C562 15 551 15 551 15 C551 15 550 11 550 8 C550 8 548 0 548 0 C548 0 623 0 623 0 C623 0 634 0 634 0 C634 0 646 0 646 0 C646 0 721 0 721 0 C720 0 721 4 722 8 C722 11 723 15 723 15 C723 15 712 15 712 15 C686 15 656 50 660 78 C660 78 748 580 748 580 C748 580 748 580 748 580 C753 608 796 645 823 645 C823 645 834 645 834 645 C834 645 836 653 836 653 C836 656 837 660 837 660 C837 660 762 660 762 660 C762 660 751 660 751 660 C751 660 740 660 740 660 C740 660 665 660 665 660 C665 660 664 656 663 653 C663 649 662 645 662 645 C662 645 673 645 673 645 C699 645 728 610 726 583 C726 583 685 350 685 350 C685 350 199 350 199 350 C199 350 241 587 241 587 C251 614 290 645 315 645 C315 645 326 645 326 645 C326 645 327 649 327 653 C328 656 329 660 329 660 C329 660 254 660 254 660 C254 660 242 660 242 660 C242 660 231 660 231 660 C231 660 156 660 156 660 C156 659 154 645 154 645 C154 645 154 645 154 645 L154 645 Z M536 882 C536 882 617 694 617 694 C617 694 619 696 619 696 C619 696 545 899 545 899 C545 900 542 905 540 905 C538 905 533 901 533 899 C533 899 387 696 387 696 C387 696 389 694 389 694 C389 694 536 882 536 882 L536 882 Z " />
<glyph glyph-name="Itilde" unicode="&#x128;" horiz-adv-x="252" d="M116 755 C122 786 156 827 177 827 C221 827 307 764 351 764 C375 764 415 806 420 837 C420 837 417 837 417 837 C412 812 378 777 357 777 C313 777 227 840 183 840 C160 840 119 791 113 755 C113 755 116 755 116 755 L116 755 Z M154 645 C154 645 165 645 165 645 C191 645 221 610 217 582 C217 582 129 80 129 80 C129 80 129 80 129 80 C124 52 81 15 54 15 C54 15 43 15 43 15 C43 15 42 11 41 8 C41 4 40 0 40 0 C40 0 115 0 115 0 C115 0 126 0 126 0 C126 0 137 0 137 0 C137 0 212 0 212 0 C212 0 214 8 214 8 C214 11 215 15 215 15 C215 15 204 15 204 15 C177 15 149 50 151 77 C151 77 241 587 241 587 C251 614 290 645 315 645 C315 645 326 645 326 645 C326 645 327 649 327 653 C328 656 329 660 329 660 C329 660 254 660 254 660 C254 660 242 660 242 660 C242 660 231 660 231 660 C231 660 156 660 156 660 C156 659 154 645 154 645 L154 645 Z " />
<glyph glyph-name="itilde" unicode="&#x129;" horiz-adv-x="260" d="M140 0 C140 0 214 420 214 420 C214 420 229 505 229 505 C229 505 228 505 228 505 C228 505 142 480 142 480 C142 480 141 477 141 475 C140 473 140 470 140 470 C140 470 182 457 182 457 C190 455 196 438 193 417 C193 417 120 0 120 0 C121 9 88 15 63 15 C63 15 48 15 48 15 C48 15 47 11 46 8 C46 4 45 0 45 0 C45 0 120 0 120 0 C120 0 140 0 140 0 C140 0 215 0 215 0 C215 0 216 4 216 8 C217 11 218 15 218 15 C218 15 203 15 203 15 C177 15 142 9 140 0 L140 0 Z M92 595 C97 626 132 667 152 667 C197 667 282 604 326 604 C351 604 391 646 396 677 C396 677 393 677 393 677 C388 652 354 617 333 617 C289 617 203 680 159 680 C136 680 95 631 88 595 C88 595 92 595 92 595 L92 595 Z " />
<glyph glyph-name="Imacron" unicode="&#x12a;" horiz-adv-x="252" d="M113 774 C113 774 413 774 413 774 C413 774 415 785 415 785 C415 785 115 785 115 785 C115 785 113 774 113 774 L113 774 Z M154 645 C154 645 165 645 165 645 C191 645 221 610 217 582 C217 582 129 80 129 80 C129 80 129 80 129 80 C124 52 81 15 54 15 C54 15 43 15 43 15 C43 15 42 11 41 8 C41 4 40 0 40 0 C40 0 115 0 115 0 C115 0 126 0 126 0 C126 0 137 0 137 0 C137 0 212 0 212 0 C212 0 214 8 214 8 C214 11 215 15 215 15 C215 15 204 15 204 15 C177 15 149 50 151 77 C151 77 241 587 241 587 C251 614 290 645 315 645 C315 645 326 645 326 645 C326 645 327 649 327 653 C328 656 329 660 329 660 C329 660 254 660 254 660 C254 660 242 660 242 660 C242 660 231 660 231 660 C231 660 156 660 156 660 C156 659 154 645 154 645 L154 645 Z " />
<glyph glyph-name="imacron" unicode="&#x12b;" horiz-adv-x="260" d="M140 0 C140 0 214 420 214 420 C214 420 229 505 229 505 C229 505 228 505 228 505 C228 505 142 480 142 480 C142 480 141 477 141 475 C140 473 140 470 140 470 C140 470 182 457 182 457 C190 455 196 438 193 417 C193 417 120 0 120 0 C121 9 88 15 63 15 C63 15 48 15 48 15 C48 15 47 11 46 8 C46 4 45 0 45 0 C45 0 120 0 120 0 C120 0 140 0 140 0 C140 0 215 0 215 0 C215 0 216 4 216 8 C217 11 218 15 218 15 C218 15 203 15 203 15 C177 15 142 9 140 0 L140 0 Z M88 614 C88 614 388 614 388 614 C388 614 390 625 390 625 C390 625 90 625 90 625 C90 625 88 614 88 614 L88 614 Z " />
<glyph glyph-name="Ibreve" unicode="&#x12c;" horiz-adv-x="252" d="M173 872 C168 834 221 783 264 783 C307 783 378 834 387 872 C387 872 384 872 384 872 C376 840 309 796 267 796 C225 796 173 840 176 872 C176 872 173 872 173 872 L173 872 Z M154 645 C154 645 165 645 165 645 C191 645 221 610 217 582 C217 582 129 80 129 80 C129 80 129 80 129 80 C124 52 81 15 54 15 C54 15 43 15 43 15 C43 15 42 11 41 8 C41 4 40 0 40 0 C40 0 115 0 115 0 C115 0 126 0 126 0 C126 0 137 0 137 0 C137 0 212 0 212 0 C212 0 214 8 214 8 C214 11 215 15 215 15 C215 15 204 15 204 15 C177 15 149 50 151 77 C151 77 241 587 241 587 C251 614 290 645 315 645 C315 645 326 645 326 645 C326 645 327 649 327 653 C328 656 329 660 329 660 C329 660 254 660 254 660 C254 660 242 660 242 660 C242 660 231 660 231 660 C231 660 156 660 156 660 C156 659 154 645 154 645 L154 645 Z " />
<glyph glyph-name="ibreve" unicode="&#x12d;" horiz-adv-x="260" d="M140 0 C140 0 214 420 214 420 C214 420 229 505 229 505 C229 505 228 505 228 505 C228 505 142 480 142 480 C142 480 141 477 141 475 C140 473 140 470 140 470 C140 470 182 457 182 457 C190 455 196 438 193 417 C193 417 120 0 120 0 C121 9 88 15 63 15 C63 15 48 15 48 15 C48 15 47 11 46 8 C46 4 45 0 45 0 C45 0 120 0 120 0 C120 0 140 0 140 0 C140 0 215 0 215 0 C215 0 216 4 216 8 C217 11 218 15 218 15 C218 15 203 15 203 15 C177 15 142 9 140 0 L140 0 Z M148 712 C144 674 197 623 240 623 C283 623 353 674 363 712 C363 712 359 712 359 712 C351 680 284 636 242 636 C200 636 149 680 152 712 C152 712 148 712 148 712 L148 712 Z " />
<glyph glyph-name="Idotaccent" unicode="&#x130;" horiz-adv-x="252" d="M255 730 C263 730 277 741 278 750 C280 759 270 770 262 770 C253 770 240 759 238 750 C237 741 246 730 255 730 L255 730 Z M154 645 C154 645 165 645 165 645 C191 645 221 610 217 582 C217 582 129 80 129 80 C129 80 129 80 129 80 C124 52 81 15 54 15 C54 15 43 15 43 15 C43 15 42 11 41 8 C41 4 40 0 40 0 C40 0 115 0 115 0 C115 0 126 0 126 0 C126 0 137 0 137 0 C137 0 212 0 212 0 C212 0 214 8 214 8 C214 11 215 15 215 15 C215 15 204 15 204 15 C177 15 149 50 151 77 C151 77 241 587 241 587 C251 614 290 645 315 645 C315 645 326 645 326 645 C326 645 327 649 327 653 C328 656 329 660 329 660 C329 660 254 660 254 660 C254 660 242 660 242 660 C242 660 231 660 231 660 C231 660 156 660 156 660 C156 659 154 645 154 645 L154 645 Z " />
<glyph glyph-name="dotlessi" unicode="&#x131;" horiz-adv-x="260" d="M140 0 C140 0 214 420 214 420 C214 420 229 505 229 505 C229 505 228 505 228 505 C228 505 142 480 142 480 C142 480 141 477 141 475 C140 473 140 470 140 470 C140 470 182 457 182 457 C190 455 196 438 193 417 C193 417 120 0 120 0 C121 9 88 15 63 15 C63 15 48 15 48 15 C48 15 47 11 46 8 C46 4 45 0 45 0 C45 0 120 0 120 0 C120 0 140 0 140 0 C140 0 215 0 215 0 C215 0 216 4 216 8 C217 11 218 15 218 15 C218 15 203 15 203 15 C177 15 142 9 140 0 L140 0 Z " />
<glyph glyph-name="Jcircumflex" unicode="&#x134;" horiz-adv-x="341" d="M371 883 C371 883 452 694 452 694 C452 694 455 696 455 696 C455 696 381 899 381 899 C380 900 377 905 375 905 C372 905 370 902 368 899 C368 899 368 899 368 899 C368 899 222 696 222 696 C222 696 224 694 224 694 C224 694 371 883 371 883 L371 883 Z M307 582 C307 582 240 200 240 200 C221 94 149 -6 91 -6 C66 -6 29 26 28 50 C28 54 23 59 19 59 C15 59 9 54 9 50 C11 24 54 -10 85 -10 C157 -10 245 101 265 219 C265 219 329 580 329 580 C329 580 329 580 329 580 C334 608 377 645 404 645 C404 645 415 645 415 645 C415 645 417 653 417 653 C417 656 418 660 418 660 C418 660 343 660 343 660 C343 660 332 660 332 660 C332 660 321 660 321 660 C321 660 246 660 246 660 C246 660 245 656 244 653 C244 649 243 645 243 645 C243 645 254 645 254 645 C281 645 310 609 307 582 L307 582 Z " />
<glyph glyph-name="Lacute" unicode="&#x139;" horiz-adv-x="547" d="M223 692 C223 692 353 823 353 823 C377 847 408 880 408 881 C409 883 401 889 398 889 C398 889 367 856 344 831 C344 831 221 693 221 693 C221 693 223 692 223 692 L223 692 Z M154 645 C154 645 165 645 165 645 C191 645 221 610 217 582 C217 582 129 80 129 80 C129 80 129 80 129 80 C124 52 81 15 54 15 C54 15 43 15 43 15 C43 15 42 11 41 8 C41 4 40 0 40 0 C40 0 115 0 115 0 C115 0 126 0 126 0 C126 0 137 0 137 0 C137 0 353 0 353 0 C353 0 432 0 432 0 C432 0 433 0 433 0 C433 0 434 2 434 3 C445 34 474 117 485 148 C485 148 483 149 482 149 C476 152 469 155 469 156 C469 156 433 96 433 96 C410 58 331 7 292 6 C292 6 290 6 290 6 C290 6 138 6 138 6 C138 6 241 587 241 587 C251 614 290 645 315 645 C315 645 326 645 326 645 C326 645 327 649 327 653 C328 656 329 660 329 660 C329 660 254 660 254 660 C254 660 242 660 242 660 C242 660 231 660 231 660 C231 660 156 660 156 660 C156 659 154 645 154 645 C154 645 154 645 154 645 L154 645 Z " />
<glyph glyph-name="Lcaron" unicode="&#x13d;" horiz-adv-x="547" d="M154 645 C154 645 165 645 165 645 C191 645 221 610 217 582 C217 582 129 80 129 80 C129 80 129 80 129 80 C124 52 81 15 54 15 C54 15 43 15 43 15 C43 15 42 11 41 8 C41 4 40 0 40 0 C40 0 115 0 115 0 C115 0 126 0 126 0 C126 0 137 0 137 0 C137 0 353 0 353 0 C353 0 432 0 432 0 C432 0 433 0 433 0 C433 0 434 2 434 3 C445 34 474 117 485 148 C485 148 483 149 482 149 C476 152 469 155 469 156 C469 156 433 96 433 96 C410 58 331 7 292 6 C292 6 290 6 290 6 C290 6 138 6 138 6 C138 6 241 587 241 587 C251 614 290 645 315 645 C315 645 326 645 326 645 C326 645 327 649 327 653 C328 656 329 660 329 660 C329 660 254 660 254 660 C254 660 242 660 242 660 C242 660 231 660 231 660 C231 660 156 660 156 660 C156 659 154 645 154 645 C154 645 154 645 154 645 L154 645 Z M415 584 C434 625 462 687 463 690 C463 692 454 694 451 694 C448 694 416 620 403 589 C403 589 337 428 337 428 C337 428 339 427 339 427 C339 427 415 584 415 584 L415 584 Z " />
<glyph glyph-name="lcaron" unicode="&#x13e;" horiz-adv-x="260" d="M348 614 C367 655 396 717 396 720 C396 722 387 724 384 724 C381 724 348 650 336 619 C336 619 270 458 270 458 C270 458 272 457 272 457 C272 457 348 614 348 614 L348 614 Z M130 0 C130 0 140 0 140 0 C140 0 215 0 215 0 C215 0 216 4 216 8 C217 11 218 15 218 15 C218 15 206 15 206 15 C180 15 151 50 154 77 C154 77 247 610 247 610 C247 610 248 610 248 610 C248 610 267 720 267 720 C267 720 263 720 263 720 C263 720 167 695 167 695 C167 695 167 694 167 694 C167 690 166 686 166 686 C166 686 177 683 177 683 C211 675 231 647 228 612 C228 612 134 80 134 80 C134 80 134 80 134 80 C129 52 86 15 59 15 C59 15 48 15 48 15 C48 15 47 11 46 8 C46 4 45 0 45 0 C45 0 120 0 120 0 C120 0 130 0 130 0 L130 0 Z " />
<glyph glyph-name="Lslash" unicode="&#x141;" horiz-adv-x="547" d="M114 277 C114 277 168 300 168 300 C168 300 129 80 129 80 C129 80 129 80 129 80 C124 52 81 15 54 15 C54 15 43 15 43 15 C43 15 42 11 41 8 C41 4 40 0 40 0 C40 0 115 0 115 0 C115 0 126 0 126 0 C126 0 137 0 137 0 C137 0 353 0 353 0 C353 0 432 0 432 0 C432 0 433 0 433 0 C433 0 434 2 434 3 C445 34 474 117 485 148 C485 148 483 149 482 149 C476 152 469 155 469 156 C469 156 433 96 433 96 C410 58 331 7 292 6 C292 6 290 6 290 6 C290 6 138 6 138 6 C138 6 192 310 192 310 C192 310 351 377 351 377 C351 377 352 383 352 383 C352 383 193 316 193 316 C193 316 241 587 241 587 C251 614 290 645 315 645 C315 645 326 645 326 645 C326 645 327 649 327 653 C328 656 329 660 329 660 C329 660 254 660 254 660 C254 660 242 660 242 660 C242 660 231 660 231 660 C231 660 156 660 156 660 C156 659 154 645 154 645 C154 645 165 645 165 645 C191 645 221 610 217 582 C217 582 169 306 169 306 C169 306 115 283 115 283 C115 283 114 277 114 277 L114 277 Z " />
<glyph glyph-name="lslash" unicode="&#x142;" horiz-adv-x="260" d="M74 307 C74 307 182 352 182 352 C182 352 134 80 134 80 C134 80 134 80 134 80 C129 52 86 15 59 15 C59 15 48 15 48 15 C48 15 47 11 46 8 C46 4 45 0 45 0 C45 0 120 0 120 0 C120 0 130 0 130 0 C130 0 140 0 140 0 C140 0 215 0 215 0 C215 0 216 4 216 8 C217 11 218 15 218 15 C218 15 206 15 206 15 C180 15 151 50 154 77 C154 77 204 361 204 361 C204 361 312 407 312 407 C312 407 313 413 313 413 C313 413 205 368 205 368 C205 368 247 610 247 610 C247 610 248 610 248 610 C248 610 267 720 267 720 C267 720 263 720 263 720 C263 720 167 695 167 695 C167 695 167 694 167 694 C167 690 166 686 166 686 C166 686 177 683 177 683 C211 675 231 647 228 612 C228 612 183 358 183 358 C183 358 75 313 75 313 C75 313 74 307 74 307 L74 307 Z " />
<glyph glyph-name="Nacute" unicode="&#x143;" horiz-adv-x="691" d="M438 692 C438 692 568 823 568 823 C591 847 623 880 623 881 C623 883 615 889 613 889 C613 889 582 856 559 831 C559 831 436 693 436 693 C436 693 438 692 438 692 L438 692 Z M609 645 C609 645 620 645 620 645 C646 645 676 610 672 582 C672 582 576 32 576 32 C576 32 257 660 257 660 C257 660 243 660 243 660 C243 660 242 651 242 651 C242 651 257 660 257 660 C257 660 241 650 241 650 C241 650 243 660 243 660 C243 660 240 660 240 660 C240 660 237 660 237 660 C237 660 162 660 162 660 C162 660 161 656 160 653 C160 649 159 645 159 645 C159 645 170 645 170 645 C196 645 225 610 223 583 C223 583 134 80 134 80 C134 80 134 80 134 80 C129 52 86 15 59 15 C59 15 48 15 48 15 C48 15 47 11 47 8 C47 8 45 0 45 0 C45 0 120 0 120 0 C120 0 124 0 124 0 C124 0 127 0 127 0 C127 0 202 0 202 0 C202 0 203 4 203 8 C204 11 205 15 205 15 C205 15 193 15 193 15 C167 15 137 50 141 78 C141 78 240 640 240 640 C240 640 561 9 561 9 C561 9 568 -4 568 -4 C568 -4 576 -4 576 -4 C576 -4 580 17 580 17 C580 17 679 580 679 580 C679 580 679 580 679 580 C684 608 727 645 754 645 C754 645 765 645 765 645 C765 645 767 653 767 653 C767 656 768 660 768 660 C768 660 693 660 693 660 C693 660 690 660 690 660 C690 660 686 660 686 660 C686 660 611 660 611 660 C611 659 609 645 609 645 L609 645 Z " />
<glyph glyph-name="nacute" unicode="&#x144;" horiz-adv-x="612" d="M324 532 C324 532 454 663 454 663 C478 687 509 720 510 721 C510 723 502 729 500 729 C499 729 468 696 446 671 C446 671 322 533 322 533 C322 533 324 532 324 532 L324 532 Z M216 431 C271 458 396 492 436 492 C502 492 549 401 537 333 C537 333 492 80 492 80 C492 80 492 80 492 80 C487 52 444 15 417 15 C417 15 406 15 406 15 C406 15 405 11 404 8 C404 4 403 0 403 0 C403 0 478 0 478 0 C478 0 488 0 488 0 C488 0 498 0 498 0 C498 0 573 0 573 0 C573 0 574 4 574 7 C575 11 575 15 576 15 C576 15 564 15 564 15 C538 15 508 50 512 78 C512 78 557 336 557 336 C570 408 522 505 454 505 C416 505 282 465 217 434 C217 434 228 500 228 500 C228 500 224 500 224 500 C224 500 129 475 129 475 C129 474 129 474 128 474 C128 470 127 466 127 466 C127 466 138 463 138 463 C173 456 192 427 189 392 C189 392 134 80 134 80 C134 80 134 80 134 80 C129 52 86 15 59 15 C59 15 48 15 48 15 C48 15 47 11 46 8 C46 4 45 0 45 0 C45 0 120 0 120 0 C120 0 130 0 130 0 C130 0 140 0 140 0 C140 0 215 0 215 0 C215 0 216 4 216 8 C217 11 217 15 218 15 C218 15 206 15 206 15 C180 15 151 50 154 78 C154 78 209 390 209 390 C209 390 209 390 209 390 C209 390 216 431 216 431 L216 431 Z " />
<glyph glyph-name="Ncaron" unicode="&#x147;" horiz-adv-x="691" d="M609 645 C609 645 620 645 620 645 C646 645 676 610 672 582 C672 582 576 32 576 32 C576 32 257 660 257 660 C257 660 243 660 243 660 C243 660 242 651 242 651 C242 651 257 660 257 660 C257 660 241 650 241 650 C241 650 243 660 243 660 C243 660 240 660 240 660 C240 660 237 660 237 660 C237 660 162 660 162 660 C162 660 161 656 160 653 C160 649 159 645 159 645 C159 645 170 645 170 645 C196 645 225 610 223 583 C223 583 134 80 134 80 C134 80 134 80 134 80 C129 52 86 15 59 15 C59 15 48 15 48 15 C48 15 47 11 47 8 C47 8 45 0 45 0 C45 0 120 0 120 0 C120 0 124 0 124 0 C124 0 127 0 127 0 C127 0 202 0 202 0 C202 0 203 4 203 8 C204 11 205 15 205 15 C205 15 193 15 193 15 C167 15 137 50 141 78 C141 78 240 640 240 640 C240 640 561 9 561 9 C561 9 568 -4 568 -4 C568 -4 576 -4 576 -4 C576 -4 580 17 580 17 C580 17 679 580 679 580 C679 580 679 580 679 580 C684 608 727 645 754 645 C754 645 765 645 765 645 C765 645 767 653 767 653 C767 656 768 660 768 660 C768 660 693 660 693 660 C693 660 690 660 690 660 C690 660 686 660 686 660 C686 660 611 660 611 660 C611 659 609 645 609 645 L609 645 Z M478 738 C478 738 626 926 626 926 C626 926 628 924 628 924 C628 924 482 721 482 721 C481 720 477 715 475 715 C472 715 470 719 469 721 C469 721 395 924 395 924 C395 924 398 926 398 926 C398 926 478 738 478 738 L478 738 Z " />
<glyph glyph-name="ncaron" unicode="&#x148;" horiz-adv-x="612" d="M410 578 C410 578 558 766 558 766 C558 766 560 764 560 764 C560 764 414 561 414 561 C413 560 409 555 407 555 C405 555 402 559 401 561 C401 561 327 764 327 764 C327 764 330 766 330 766 C330 766 410 578 410 578 L410 578 Z M216 431 C271 458 396 492 436 492 C502 492 549 401 537 333 C537 333 492 80 492 80 C492 80 492 80 492 80 C487 52 444 15 417 15 C417 15 406 15 406 15 C406 15 405 11 404 8 C404 4 403 0 403 0 C403 0 478 0 478 0 C478 0 488 0 488 0 C488 0 498 0 498 0 C498 0 573 0 573 0 C573 0 574 4 574 7 C575 11 575 15 576 15 C576 15 564 15 564 15 C538 15 508 50 512 78 C512 78 557 336 557 336 C570 408 522 505 454 505 C416 505 282 465 217 434 C217 434 228 500 228 500 C228 500 224 500 224 500 C224 500 129 475 129 475 C129 474 129 474 128 474 C128 470 127 466 127 466 C127 466 138 463 138 463 C173 456 192 427 189 392 C189 392 134 80 134 80 C134 80 134 80 134 80 C129 52 86 15 59 15 C59 15 48 15 48 15 C48 15 47 11 46 8 C46 4 45 0 45 0 C45 0 120 0 120 0 C120 0 130 0 130 0 C130 0 140 0 140 0 C140 0 215 0 215 0 C215 0 216 4 216 8 C217 11 217 15 218 15 C218 15 206 15 206 15 C180 15 151 50 154 78 C154 78 209 390 209 390 C209 390 209 390 209 390 C209 390 216 431 216 431 L216 431 Z " />
<glyph glyph-name="Omacron" unicode="&#x14c;" horiz-adv-x="759" d="M376 774 C376 774 676 774 676 774 C676 774 678 785 678 785 C678 785 378 785 378 785 C378 785 376 774 376 774 L376 774 Z M390 1 C251 1 131 203 154 330 C176 457 367 659 506 659 C645 659 765 457 743 330 C721 203 529 1 390 1 L390 1 Z M129 330 C106 201 239 -5 389 -5 C539 -5 744 201 767 330 C790 459 657 665 507 665 C357 665 152 459 129 330 L129 330 Z " />
<glyph glyph-name="omacron" unicode="&#x14d;" horiz-adv-x="580" d="M249 614 C249 614 549 614 549 614 C549 614 551 625 551 625 C551 625 251 625 251 625 C251 625 249 614 249 614 L249 614 Z M290 -1 C197 -1 97 143 116 250 C135 357 285 501 379 501 C472 501 571 357 552 250 C533 143 383 -1 290 -1 L290 -1 Z M94 250 C75 141 187 -5 289 -5 C392 -5 556 141 575 250 C594 359 482 505 379 505 C277 505 113 359 94 250 L94 250 Z " />
<glyph glyph-name="Obreve" unicode="&#x14e;" horiz-adv-x="759" d="M436 872 C432 834 485 783 528 783 C571 783 642 834 651 872 C651 872 648 872 648 872 C639 840 572 796 530 796 C488 796 436 840 440 872 C440 872 436 872 436 872 L436 872 Z M390 1 C251 1 131 203 154 330 C176 457 367 659 506 659 C645 659 765 457 743 330 C721 203 529 1 390 1 L390 1 Z M129 330 C106 201 239 -5 389 -5 C539 -5 744 201 767 330 C790 459 657 665 507 665 C357 665 152 459 129 330 L129 330 Z " />
<glyph glyph-name="obreve" unicode="&#x14f;" horiz-adv-x="580" d="M308 712 C304 674 357 623 400 623 C443 623 514 674 523 712 C523 712 520 712 520 712 C512 680 445 636 402 636 C360 636 309 680 312 712 C312 712 308 712 308 712 L308 712 Z M290 -1 C197 -1 97 143 116 250 C135 357 285 501 379 501 C472 501 571 357 552 250 C533 143 383 -1 290 -1 L290 -1 Z M94 250 C75 141 187 -5 289 -5 C392 -5 556 141 575 250 C594 359 482 505 379 505 C277 505 113 359 94 250 L94 250 Z " />
<glyph glyph-name="Racute" unicode="&#x154;" horiz-adv-x="606" d="M360 692 C360 692 490 823 490 823 C514 847 545 880 545 881 C546 883 538 889 535 889 C535 889 504 856 481 831 C481 831 358 693 358 693 C358 693 360 692 360 692 L360 692 Z M607 0 C607 0 608 4 608 4 C608 4 603 4 603 4 C597 4 570 35 520 102 C520 102 354 320 354 320 C446 329 573 421 585 490 C598 562 511 660 432 660 C432 660 273 660 273 660 C273 660 272 654 272 654 C272 654 431 654 431 654 C499 654 574 560 561 490 C549 419 423 324 341 324 C341 324 325 324 325 324 C325 324 214 324 214 324 C214 324 214 322 214 322 C214 322 273 660 273 660 C273 660 262 660 262 660 C262 660 251 660 251 660 C251 660 176 660 176 660 C176 660 175 656 174 653 C174 649 173 645 173 645 C173 645 184 645 184 645 C210 645 239 610 237 583 C237 583 147 74 147 74 C137 47 98 15 73 15 C73 15 62 15 62 15 C62 15 61 11 61 8 C61 8 59 0 59 0 C59 0 134 0 134 0 C134 0 146 0 146 0 C146 0 157 0 157 0 C157 0 232 0 232 0 C232 0 232 4 233 8 C233 11 234 15 234 15 C234 15 223 15 223 15 C197 15 167 50 171 78 C171 78 213 319 213 319 C213 319 329 319 329 319 C329 319 491 106 491 106 C546 33 579 0 595 0 C595 0 607 0 607 0 L607 0 Z " />
<glyph glyph-name="Rcaron" unicode="&#x158;" horiz-adv-x="535" d="M446 738 C446 738 594 926 594 926 C594 926 596 924 596 924 C596 924 450 721 450 721 C449 720 445 715 443 715 C440 715 438 719 437 721 C437 721 363 924 363 924 C363 924 366 926 366 926 C366 926 446 738 446 738 L446 738 Z M354 320 C445 329 573 421 585 490 C598 562 511 660 432 660 C432 660 273 660 273 660 C273 660 272 654 272 654 C272 654 431 654 431 654 C499 654 574 560 561 490 C549 419 423 324 341 324 C341 324 214 324 214 324 C214 324 214 322 214 322 C214 322 273 660 273 660 C273 660 262 660 262 660 C262 660 251 660 251 660 C251 660 176 660 176 660 C176 660 175 656 174 653 C174 649 173 645 173 645 C173 645 184 645 184 645 C210 645 239 610 237 583 C237 583 147 74 147 74 C137 47 98 15 73 15 C73 15 62 15 62 15 C62 15 61 11 61 8 C61 8 59 0 59 0 C59 0 134 0 134 0 C134 0 146 0 146 0 C146 0 157 0 157 0 C157 0 232 0 232 0 C232 0 232 4 233 8 C233 11 234 15 234 15 C234 15 223 15 223 15 C197 15 167 50 171 78 C171 78 213 319 213 319 C213 319 340 319 340 319 C361 208 469 2 529 -42 C529 -42 531 -39 531 -39 C479 -1 381 205 360 320 C360 320 354 320 354 320 L354 320 Z " />
<glyph glyph-name="rcaron" unicode="&#x159;" horiz-adv-x="404" d="M312 577 C312 577 459 766 459 766 C459 766 461 764 461 764 C461 764 315 561 315 561 C314 560 310 555 308 555 C306 555 303 559 302 561 C302 561 228 764 228 764 C228 764 231 766 231 766 C231 766 312 577 312 577 L312 577 Z M213 417 C213 417 225 500 225 500 C225 500 221 500 221 500 C221 500 129 475 129 475 C129 474 129 474 128 474 C128 470 127 466 127 466 C127 466 138 463 138 463 C173 456 192 427 189 392 C189 392 134 80 134 80 C134 80 134 80 134 80 C129 52 86 15 59 15 C59 15 48 15 48 15 C48 15 47 11 46 8 C46 4 45 0 45 0 C45 0 120 0 120 0 C120 0 130 0 130 0 C130 0 140 0 140 0 C140 0 215 0 215 0 C215 0 216 4 216 8 C217 11 217 15 218 15 C218 15 206 15 206 15 C180 15 151 50 154 78 C154 78 209 390 209 390 C209 390 209 390 209 390 C209 390 211 403 211 403 C211 403 213 415 213 415 C247 448 335 490 371 490 C394 490 442 460 466 460 C470 460 476 466 477 470 C480 485 437 505 389 505 C351 505 251 455 213 417 C213 417 213 417 213 417 L213 417 Z " />
<glyph glyph-name="Sacute" unicode="&#x15a;" horiz-adv-x="499" d="M304 692 C304 692 434 823 434 823 C458 847 489 880 489 881 C490 883 482 889 479 889 C479 889 448 856 425 831 C425 831 302 693 302 693 C302 693 304 692 304 692 L304 692 Z M76 180 C76 180 53 48 53 48 C53 48 55 52 55 52 C55 52 55 52 56 52 C56 52 53 48 53 48 C88 26 218 -5 281 -5 C355 -5 471 89 483 159 C492 212 400 315 322 339 C245 362 153 454 161 500 C173 568 279 660 346 660 C361 660 383 656 408 650 C437 640 477 596 482 569 C485 550 494 499 497 480 C497 480 510 480 510 480 C510 480 533 612 533 612 C498 634 392 665 348 665 C274 665 157 565 144 491 C135 441 225 344 301 321 C380 297 474 199 466 150 C454 86 349 1 282 1 C269 1 253 2 235 5 C235 5 235 5 235 5 C184 12 104 91 95 143 C94 151 90 172 89 180 C89 180 76 180 76 180 L76 180 Z " />
<glyph glyph-name="sacute" unicode="&#x15b;" horiz-adv-x="423" d="M220 532 C220 532 350 663 350 663 C374 687 405 720 406 721 C406 723 398 729 396 729 C395 729 364 696 342 671 C342 671 218 533 218 533 C218 533 220 532 220 532 L220 532 Z M72 128 C72 128 56 36 56 36 C56 36 58 40 58 40 C58 40 58 40 58 40 C58 40 56 36 56 36 C83 19 185 -5 233 -5 C293 -5 386 71 396 128 C402 161 336 235 281 257 C222 281 151 358 157 392 C165 439 243 501 293 501 C300 501 312 499 326 494 C326 494 326 494 326 494 C354 487 396 437 400 408 C400 401 403 384 404 377 C404 377 416 377 416 377 C416 377 430 459 430 459 C430 459 428 455 428 455 C428 455 428 455 427 455 C427 455 430 459 430 459 C399 478 321 505 294 505 C237 505 149 437 140 385 C134 348 205 267 265 243 C319 222 384 151 378 120 C369 69 287 0 235 0 C224 0 211 1 196 3 C158 11 98 66 89 102 C88 107 84 122 83 128 C83 128 72 128 72 128 L72 128 Z " />
<glyph glyph-name="Scircumflex" unicode="&#x15c;" horiz-adv-x="499" d="M76 180 C76 180 53 48 53 48 C53 48 55 52 55 52 C55 52 55 52 56 52 C56 52 53 48 53 48 C88 26 218 -5 281 -5 C355 -5 471 89 483 159 C492 212 400 315 322 339 C245 362 153 454 161 500 C173 568 279 660 346 660 C361 660 383 656 408 650 C437 640 477 596 482 569 C485 550 494 499 497 480 C497 480 510 480 510 480 C510 480 533 612 533 612 C498 634 392 665 348 665 C274 665 157 565 144 491 C135 441 225 344 301 321 C380 297 474 199 466 150 C454 86 349 1 282 1 C269 1 253 2 235 5 C235 5 235 5 235 5 C184 12 104 91 95 143 C94 151 90 172 89 180 C89 180 76 180 76 180 L76 180 Z M386 882 C386 882 467 694 467 694 C467 694 469 696 469 696 C469 696 395 899 395 899 C394 900 391 905 390 905 C386 905 384 902 383 899 C383 899 382 899 382 899 C382 899 236 696 236 696 C236 696 238 694 238 694 C238 694 386 882 386 882 L386 882 Z " />
<glyph glyph-name="Scedilla" unicode="&#x15e;" horiz-adv-x="499" d="M76 180 C76 180 53 48 53 48 C53 48 55 52 55 52 C55 52 55 52 56 52 C56 52 53 48 53 48 C88 26 218 -5 281 -5 C355 -5 471 89 483 159 C492 212 400 315 322 339 C245 362 153 454 161 500 C173 568 279 660 346 660 C361 660 383 656 408 650 C437 640 477 596 482 569 C485 550 494 499 497 480 C497 480 510 480 510 480 C510 480 533 612 533 612 C498 634 392 665 348 665 C274 665 157 565 144 491 C135 441 225 344 301 321 C380 297 474 199 466 150 C454 86 349 1 282 1 C269 1 253 2 235 5 C235 5 235 5 235 5 C184 12 104 91 95 143 C94 151 90 172 89 180 C89 180 76 180 76 180 L76 180 Z " />
<glyph glyph-name="scedilla" unicode="&#x15f;" horiz-adv-x="423" d="M72 128 C72 128 56 36 56 36 C56 36 58 40 58 40 C58 40 58 40 58 40 C58 40 56 36 56 36 C83 19 185 -5 233 -5 C293 -5 386 71 396 128 C402 161 336 235 281 257 C222 281 151 358 157 392 C165 439 243 501 293 501 C300 501 312 499 326 494 C326 494 326 494 326 494 C354 487 396 437 400 408 C400 401 403 384 404 377 C404 377 416 377 416 377 C416 377 430 459 430 459 C430 459 428 455 428 455 C428 455 428 455 427 455 C427 455 430 459 430 459 C399 478 321 505 294 505 C237 505 149 437 140 385 C134 348 205 267 265 243 C319 222 384 151 378 120 C369 69 287 0 235 0 C224 0 211 1 196 3 C158 11 98 66 89 102 C88 107 84 122 83 128 C83 128 72 128 72 128 L72 128 Z " />
<glyph glyph-name="Scaron" unicode="&#x160;" horiz-adv-x="499" d="M76 180 C76 180 53 48 53 48 C53 48 55 52 55 52 C55 52 55 52 56 52 C56 52 53 48 53 48 C88 26 218 -5 281 -5 C355 -5 471 89 483 159 C492 212 400 315 322 339 C245 362 153 454 161 500 C173 568 279 660 346 660 C361 660 383 656 408 650 C437 640 477 596 482 569 C485 550 494 499 497 480 C497 480 510 480 510 480 C510 480 533 612 533 612 C498 634 392 665 348 665 C274 665 157 565 144 491 C135 441 225 344 301 321 C380 297 474 199 466 150 C454 86 349 1 282 1 C269 1 253 2 235 5 C235 5 235 5 235 5 C184 12 104 91 95 143 C94 151 90 172 89 180 C89 180 76 180 76 180 L76 180 Z M360 738 C360 738 507 926 507 926 C507 926 509 924 509 924 C509 924 363 721 363 721 C363 720 358 715 356 715 C354 715 351 719 351 721 C351 721 277 924 277 924 C277 924 279 926 279 926 C279 926 360 738 360 738 L360 738 Z " />
<glyph glyph-name="scaron" unicode="&#x161;" horiz-adv-x="423" d="M72 128 C72 128 56 36 56 36 C56 36 58 40 58 40 C58 40 58 40 58 40 C58 40 56 36 56 36 C83 19 185 -5 233 -5 C293 -5 386 71 396 128 C402 161 336 235 281 257 C222 281 151 358 157 392 C165 439 243 501 293 501 C300 501 312 499 326 494 C326 494 326 494 326 494 C354 487 396 437 400 408 C400 401 403 384 404 377 C404 377 416 377 416 377 C416 377 430 459 430 459 C430 459 428 455 428 455 C428 455 428 455 427 455 C427 455 430 459 430 459 C399 478 321 505 294 505 C237 505 149 437 140 385 C134 348 205 267 265 243 C319 222 384 151 378 120 C369 69 287 0 235 0 C224 0 211 1 196 3 C158 11 98 66 89 102 C88 107 84 122 83 128 C83 128 72 128 72 128 L72 128 Z M307 577 C307 577 454 766 454 766 C454 766 456 764 456 764 C456 764 310 561 310 561 C309 560 305 555 303 555 C301 555 298 559 297 561 C297 561 223 764 223 764 C223 764 226 766 226 766 C226 766 307 577 307 577 L307 577 Z " />
<glyph glyph-name="Tcaron" unicode="&#x164;" horiz-adv-x="620" d="M440 738 C440 738 587 926 587 926 C587 926 589 924 589 924 C589 924 443 721 443 721 C443 720 438 715 436 715 C434 715 431 719 431 721 C431 721 357 924 357 924 C357 924 359 926 359 926 C359 926 440 738 440 738 L440 738 Z M701 657 C702 658 702 660 702 660 C702 660 696 660 696 660 C696 660 622 660 622 660 C622 660 231 660 231 660 C231 660 156 660 156 660 C156 660 151 660 151 660 C151 660 150 658 150 657 C142 625 119 537 110 504 C110 504 122 504 122 504 C122 504 163 574 163 574 C183 608 255 654 290 654 C290 654 414 654 414 654 C414 654 313 80 313 80 C313 80 313 80 313 80 C308 52 265 15 238 15 C238 15 227 15 227 15 C227 15 226 11 225 8 C225 4 224 0 224 0 C224 0 299 0 299 0 C299 0 310 0 310 0 C310 0 321 0 321 0 C321 0 396 0 396 0 C396 0 397 4 397 8 C398 11 399 15 399 15 C399 15 388 15 388 15 C361 15 333 49 335 76 C335 76 437 654 437 654 C437 654 561 654 561 654 C595 654 652 608 660 574 C660 574 676 504 676 504 C676 504 688 504 688 504 C691 537 699 625 701 657 L701 657 Z " />
<glyph glyph-name="tcaron" unicode="&#x165;" horiz-adv-x="350" d="M408 500 C408 500 220 500 220 500 C229 547 237 593 245 640 C245 640 242 640 242 640 C242 640 201 499 201 499 C201 499 201 499 201 499 C201 499 208 525 208 525 C205 514 150 496 112 494 C112 494 112 492 112 492 C112 492 199 492 199 492 C199 492 131 110 131 110 C120 46 149 -5 197 -5 C238 -5 309 23 338 45 C338 45 337 46 337 46 C312 28 248 4 209 4 C166 4 141 49 151 106 C174 235 196 363 219 492 C219 492 407 492 407 492 C407 492 408 500 408 500 L408 500 Z M528 614 C547 655 576 717 576 720 C576 722 567 724 564 724 C561 724 528 650 516 619 C516 619 450 458 450 458 C450 458 452 457 452 457 C452 457 528 614 528 614 L528 614 Z " />
<glyph glyph-name="Utilde" unicode="&#x168;" horiz-adv-x="693" d="M346 755 C352 786 386 827 407 827 C451 827 537 764 581 764 C605 764 645 806 650 837 C650 837 647 837 647 837 C642 812 608 777 587 777 C543 777 457 840 414 840 C390 840 349 791 343 755 C343 755 346 755 346 755 L346 755 Z M682 570 C682 570 682 570 682 570 C682 570 612 176 612 176 C599 102 476 3 365 3 C253 3 167 115 182 199 C182 199 249 580 249 580 C249 580 249 580 249 580 C254 608 297 645 324 645 C324 645 335 645 335 645 C335 645 337 653 337 653 C337 656 338 660 338 660 C338 660 263 660 263 660 C263 660 252 660 252 660 C252 660 241 660 241 660 C241 660 166 660 166 660 C166 660 165 656 164 653 C164 649 163 645 163 645 C163 645 174 645 174 645 C200 645 229 610 227 583 C227 583 160 203 160 203 C144 114 238 -5 360 -5 C477 -5 605 97 619 173 C619 173 688 570 688 570 C688 570 689 570 689 570 C694 602 743 645 774 645 C774 645 787 645 787 645 C787 645 788 649 788 653 C789 656 790 660 789 660 C789 660 704 660 704 660 C704 660 701 660 701 660 C701 660 698 660 698 660 C698 660 608 660 608 660 C608 660 607 656 606 653 C606 649 605 645 605 645 C605 645 620 645 620 645 C652 645 687 602 682 570 L682 570 Z " />
<glyph glyph-name="utilde" unicode="&#x169;" horiz-adv-x="577" d="M241 595 C246 626 281 667 301 667 C346 667 431 604 475 604 C499 604 539 646 545 677 C545 677 542 677 542 677 C537 652 503 617 482 617 C438 617 352 680 308 680 C284 680 244 631 237 595 C237 595 241 595 241 595 L241 595 Z M164 420 C164 420 164 420 164 420 C164 420 118 156 118 156 C105 87 175 -5 251 -5 C315 -5 421 33 459 62 C459 62 448 0 448 0 C448 0 452 0 452 0 C452 0 547 25 547 25 C547 25 547 26 548 26 C548 30 549 34 549 34 C549 34 538 37 538 37 C504 44 484 72 487 107 C487 107 556 500 556 500 C556 500 546 500 546 500 C546 500 536 500 536 500 C536 500 461 500 461 500 C461 500 460 496 460 493 C460 493 458 485 458 485 C458 485 470 485 470 485 C496 485 526 450 522 422 C522 422 467 110 467 110 C467 110 467 110 467 110 C467 110 459 65 459 65 C427 40 331 8 269 8 C195 8 126 94 138 159 C138 159 198 500 198 500 C198 500 188 500 188 500 C188 500 178 500 178 500 C178 500 103 500 103 500 C103 500 102 496 102 493 C102 493 100 485 100 485 C100 485 112 485 112 485 C139 485 169 448 164 420 C164 420 164 420 164 420 L164 420 Z " />
<glyph glyph-name="Umacron" unicode="&#x16a;" horiz-adv-x="693" d="M343 774 C343 774 643 774 643 774 C643 774 645 785 645 785 C645 785 345 785 345 785 C345 785 343 774 343 774 L343 774 Z M682 570 C682 570 682 570 682 570 C682 570 612 176 612 176 C599 102 476 3 365 3 C253 3 167 115 182 199 C182 199 249 580 249 580 C249 580 249 580 249 580 C254 608 297 645 324 645 C324 645 335 645 335 645 C335 645 337 653 337 653 C337 656 338 660 338 660 C338 660 263 660 263 660 C263 660 252 660 252 660 C252 660 241 660 241 660 C241 660 166 660 166 660 C166 660 165 656 164 653 C164 649 163 645 163 645 C163 645 174 645 174 645 C200 645 229 610 227 583 C227 583 160 203 160 203 C144 114 238 -5 360 -5 C477 -5 605 97 619 173 C619 173 688 570 688 570 C688 570 689 570 689 570 C694 602 743 645 774 645 C774 645 787 645 787 645 C787 645 788 649 788 653 C789 656 790 660 789 660 C789 660 704 660 704 660 C704 660 701 660 701 660 C701 660 698 660 698 660 C698 660 608 660 608 660 C608 660 607 656 606 653 C606 649 605 645 605 645 C605 645 620 645 620 645 C652 645 687 602 682 570 L682 570 Z " />
<glyph glyph-name="umacron" unicode="&#x16b;" horiz-adv-x="577" d="M237 614 C237 614 537 614 537 614 C537 614 539 625 539 625 C539 625 239 625 239 625 C239 625 237 614 237 614 L237 614 Z M164 420 C164 420 164 420 164 420 C164 420 118 156 118 156 C105 87 175 -5 251 -5 C315 -5 421 33 459 62 C459 62 448 0 448 0 C448 0 452 0 452 0 C452 0 547 25 547 25 C547 25 547 26 548 26 C548 30 549 34 549 34 C549 34 538 37 538 37 C504 44 484 72 487 107 C487 107 556 500 556 500 C556 500 546 500 546 500 C546 500 536 500 536 500 C536 500 461 500 461 500 C461 500 460 496 460 493 C460 493 458 485 458 485 C458 485 470 485 470 485 C496 485 526 450 522 422 C522 422 467 110 467 110 C467 110 467 110 467 110 C467 110 459 65 459 65 C427 40 331 8 269 8 C195 8 126 94 138 159 C138 159 198 500 198 500 C198 500 188 500 188 500 C188 500 178 500 178 500 C178 500 103 500 103 500 C103 500 102 496 102 493 C102 493 100 485 100 485 C100 485 112 485 112 485 C139 485 169 448 164 420 C164 420 164 420 164 420 L164 420 Z " />
<glyph glyph-name="Ubreve" unicode="&#x16c;" horiz-adv-x="693" d="M403 872 C399 834 451 783 494 783 C537 783 608 834 617 872 C617 872 614 872 614 872 C606 840 539 796 497 796 C455 796 403 840 406 872 C406 872 403 872 403 872 L403 872 Z M682 570 C682 570 682 570 682 570 C682 570 612 176 612 176 C599 102 476 3 365 3 C253 3 167 115 182 199 C182 199 249 580 249 580 C249 580 249 580 249 580 C254 608 297 645 324 645 C324 645 335 645 335 645 C335 645 337 653 337 653 C337 656 338 660 338 660 C338 660 263 660 263 660 C263 660 252 660 252 660 C252 660 241 660 241 660 C241 660 166 660 166 660 C166 660 165 656 164 653 C164 649 163 645 163 645 C163 645 174 645 174 645 C200 645 229 610 227 583 C227 583 160 203 160 203 C144 114 238 -5 360 -5 C477 -5 605 97 619 173 C619 173 688 570 688 570 C688 570 689 570 689 570 C694 602 743 645 774 645 C774 645 787 645 787 645 C787 645 788 649 788 653 C789 656 790 660 789 660 C789 660 704 660 704 660 C704 660 701 660 701 660 C701 660 698 660 698 660 C698 660 608 660 608 660 C608 660 607 656 606 653 C606 649 605 645 605 645 C605 645 620 645 620 645 C652 645 687 602 682 570 L682 570 Z " />
<glyph glyph-name="ubreve" unicode="&#x16d;" horiz-adv-x="577" d="M297 712 C293 674 346 623 389 623 C432 623 502 674 512 712 C512 712 508 712 508 712 C500 680 433 636 391 636 C349 636 297 680 301 712 C301 712 297 712 297 712 L297 712 Z M164 420 C164 420 164 420 164 420 C164 420 118 156 118 156 C105 87 175 -5 251 -5 C315 -5 421 33 459 62 C459 62 448 0 448 0 C448 0 452 0 452 0 C452 0 547 25 547 25 C547 25 547 26 548 26 C548 30 549 34 549 34 C549 34 538 37 538 37 C504 44 484 72 487 107 C487 107 556 500 556 500 C556 500 546 500 546 500 C546 500 536 500 536 500 C536 500 461 500 461 500 C461 500 460 496 460 493 C460 493 458 485 458 485 C458 485 470 485 470 485 C496 485 526 450 522 422 C522 422 467 110 467 110 C467 110 467 110 467 110 C467 110 459 65 459 65 C427 40 331 8 269 8 C195 8 126 94 138 159 C138 159 198 500 198 500 C198 500 188 500 188 500 C188 500 178 500 178 500 C178 500 103 500 103 500 C103 500 102 496 102 493 C102 493 100 485 100 485 C100 485 112 485 112 485 C139 485 169 448 164 420 C164 420 164 420 164 420 L164 420 Z " />
<glyph glyph-name="Uring" unicode="&#x16e;" horiz-adv-x="693" d="M480 699 C446 699 402 753 408 788 C414 825 473 876 511 876 C548 876 589 825 583 788 C577 753 513 699 480 699 L480 699 Z M402 788 C396 752 443 695 479 695 C515 695 582 752 588 788 C595 827 551 880 511 880 C472 880 409 827 402 788 L402 788 Z M682 570 C682 570 682 570 682 570 C682 570 612 176 612 176 C599 102 476 3 365 3 C253 3 167 115 182 199 C182 199 249 580 249 580 C249 580 249 580 249 580 C254 608 297 645 324 645 C324 645 335 645 335 645 C335 645 337 653 337 653 C337 656 338 660 338 660 C338 660 263 660 263 660 C263 660 252 660 252 660 C252 660 241 660 241 660 C241 660 166 660 166 660 C166 660 165 656 164 653 C164 649 163 645 163 645 C163 645 174 645 174 645 C200 645 229 610 227 583 C227 583 160 203 160 203 C144 114 238 -5 360 -5 C477 -5 605 97 619 173 C619 173 688 570 688 570 C688 570 689 570 689 570 C694 602 743 645 774 645 C774 645 787 645 787 645 C787 645 788 649 788 653 C789 656 790 660 789 660 C789 660 704 660 704 660 C704 660 701 660 701 660 C701 660 698 660 698 660 C698 660 608 660 608 660 C608 660 607 656 606 653 C606 649 605 645 605 645 C605 645 620 645 620 645 C652 645 687 602 682 570 L682 570 Z " />
<glyph glyph-name="uring" unicode="&#x16f;" horiz-adv-x="577" d="M374 539 C340 539 296 593 302 628 C309 665 368 716 405 716 C442 716 484 665 477 628 C471 593 407 539 374 539 L374 539 Z M296 628 C290 592 337 535 373 535 C409 535 476 592 483 628 C490 667 446 720 406 720 C366 720 303 667 296 628 L296 628 Z M164 420 C164 420 164 420 164 420 C164 420 118 156 118 156 C105 87 175 -5 251 -5 C315 -5 421 33 459 62 C459 62 448 0 448 0 C448 0 452 0 452 0 C452 0 547 25 547 25 C547 25 547 26 548 26 C548 30 549 34 549 34 C549 34 538 37 538 37 C504 44 484 72 487 107 C487 107 556 500 556 500 C556 500 546 500 546 500 C546 500 536 500 536 500 C536 500 461 500 461 500 C461 500 460 496 460 493 C460 493 458 485 458 485 C458 485 470 485 470 485 C496 485 526 450 522 422 C522 422 467 110 467 110 C467 110 467 110 467 110 C467 110 459 65 459 65 C427 40 331 8 269 8 C195 8 126 94 138 159 C138 159 198 500 198 500 C198 500 188 500 188 500 C188 500 178 500 178 500 C178 500 103 500 103 500 C103 500 102 496 102 493 C102 493 100 485 100 485 C100 485 112 485 112 485 C139 485 169 448 164 420 C164 420 164 420 164 420 L164 420 Z " />
<glyph glyph-name="Wcircumflex" unicode="&#x174;" horiz-adv-x="883" d="M883 584 C883 584 612 -15 612 -15 C612 -15 628 21 628 21 C628 21 557 670 557 670 C557 670 551 670 551 670 C551 670 268 19 268 19 C268 19 205 580 205 580 C205 580 205 580 205 580 C202 608 235 645 262 645 C262 645 283 645 283 645 C283 645 284 649 284 653 C285 656 286 660 286 660 C286 660 196 660 196 660 C196 660 183 660 183 660 C183 660 171 660 171 660 C171 660 116 660 116 660 C116 660 115 656 114 653 C114 649 113 645 113 645 C113 645 122 645 122 645 C143 645 174 613 180 585 C180 585 253 -15 253 -15 C253 -15 259 -15 259 -15 C259 -15 540 631 540 631 C540 631 612 -15 612 -15 C612 -15 618 -15 618 -15 C618 -15 891 586 891 586 C909 613 956 645 982 645 C982 645 993 645 993 645 C993 645 994 649 994 653 C995 656 995 660 996 660 C996 660 925 660 925 660 C925 660 921 660 921 660 C921 660 918 660 918 660 C918 660 813 660 813 660 C813 660 812 656 812 653 C812 653 810 645 810 645 C810 645 846 645 846 645 C873 645 892 611 883 584 L883 584 Z M592 882 C592 882 673 694 673 694 C673 694 675 696 675 696 C675 696 601 899 601 899 C600 900 597 905 596 905 C592 905 590 902 589 899 C589 899 588 899 588 899 C588 899 442 696 442 696 C442 696 444 694 444 694 C444 694 592 882 592 882 L592 882 Z " />
<glyph glyph-name="Ycircumflex" unicode="&#x176;" horiz-adv-x="568" d="M511 645 C511 645 528 645 528 645 C562 645 578 602 559 567 C559 567 349 260 349 260 C349 260 247 580 247 580 C247 580 247 580 247 580 C238 608 263 645 291 645 C291 645 309 645 309 645 C309 645 311 659 311 660 C311 660 221 660 221 660 C221 660 208 660 208 660 C208 660 195 660 195 660 C195 660 147 660 147 660 C147 660 146 656 146 653 C145 649 144 645 145 645 C145 645 153 645 153 645 C172 645 208 611 220 583 C220 583 328 247 328 247 C321 208 309 138 299 80 C299 80 299 80 299 80 C294 52 251 15 224 15 C224 15 213 15 213 15 C213 15 212 11 211 8 C211 4 210 0 210 0 C210 0 285 0 285 0 C285 0 296 0 296 0 C296 0 307 0 307 0 C307 0 382 0 382 0 C382 0 383 4 383 8 C384 11 385 15 385 15 C385 15 374 15 374 15 C348 15 319 48 320 75 C332 140 346 219 352 257 C352 257 575 580 575 580 C575 580 575 580 575 580 C594 608 651 645 675 645 C675 645 685 645 685 645 C685 645 686 649 686 653 C687 656 688 660 687 660 C687 660 630 660 630 660 C630 660 627 660 627 660 C627 660 623 660 623 660 C623 660 513 660 513 660 C513 659 511 645 511 645 C511 645 511 645 511 645 L511 645 Z M452 882 C452 882 533 694 533 694 C533 694 535 696 535 696 C535 696 461 899 461 899 C460 900 457 905 456 905 C452 905 450 902 449 899 C449 899 448 899 448 899 C448 899 303 696 303 696 C303 696 304 694 304 694 C304 694 452 882 452 882 L452 882 Z " />
<glyph glyph-name="Ydieresis" unicode="&#x178;" horiz-adv-x="568" d="M508 730 C517 730 530 741 532 750 C533 759 524 770 515 770 C507 770 493 759 492 750 C490 741 500 730 508 730 L508 730 Z M341 730 C350 730 363 741 365 750 C366 759 357 770 348 770 C339 770 326 759 325 750 C323 741 332 730 341 730 L341 730 Z M511 645 C511 645 528 645 528 645 C562 645 578 602 559 567 C559 567 349 260 349 260 C349 260 247 580 247 580 C247 580 247 580 247 580 C238 608 263 645 291 645 C291 645 309 645 309 645 C309 645 311 659 311 660 C311 660 221 660 221 660 C221 660 208 660 208 660 C208 660 195 660 195 660 C195 660 147 660 147 660 C147 660 146 656 146 653 C145 649 144 645 145 645 C145 645 153 645 153 645 C172 645 208 611 220 583 C220 583 328 247 328 247 C321 208 309 138 299 80 C299 80 299 80 299 80 C294 52 251 15 224 15 C224 15 213 15 213 15 C213 15 212 11 211 8 C211 4 210 0 210 0 C210 0 285 0 285 0 C285 0 296 0 296 0 C296 0 307 0 307 0 C307 0 382 0 382 0 C382 0 383 4 383 8 C384 11 385 15 385 15 C385 15 374 15 374 15 C348 15 319 48 320 75 C332 140 346 219 352 257 C352 257 575 580 575 580 C575 580 575 580 575 580 C594 608 651 645 675 645 C675 645 685 645 685 645 C685 645 686 649 686 653 C687 656 688 660 687 660 C687 660 630 660 630 660 C630 660 627 660 627 660 C627 660 623 660 623 660 C623 660 513 660 513 660 C513 659 511 645 511 645 C511 645 511 645 511 645 L511 645 Z " />
<glyph glyph-name="Zacute" unicode="&#x179;" horiz-adv-x="592" d="M455 692 C455 692 585 823 585 823 C609 847 640 880 640 881 C641 883 633 889 630 889 C630 889 599 856 576 831 C576 831 453 693 453 693 C453 693 455 692 455 692 L455 692 Z M559 156 C559 156 524 96 524 96 C501 57 419 6 381 6 C381 6 92 6 92 6 C92 6 645 660 645 660 C645 660 633 660 633 660 C633 660 620 660 620 660 C620 660 333 660 333 660 C333 660 258 660 258 660 C258 660 253 660 253 660 C253 660 252 658 252 657 C240 631 209 561 197 534 C197 534 209 534 209 534 C209 534 243 574 243 574 C271 608 356 654 390 654 C390 654 615 654 615 654 C615 654 62 0 62 0 C62 0 74 0 74 0 C74 0 87 0 87 0 C87 0 444 0 444 0 C444 0 523 0 523 0 C523 0 524 0 524 0 C524 0 524 2 525 3 C536 34 565 117 576 148 C572 149 559 156 559 156 L559 156 Z " />
<glyph glyph-name="zacute" unicode="&#x17a;" horiz-adv-x="483" d="M270 532 C270 532 401 663 401 663 C424 687 456 720 456 721 C456 723 448 729 446 729 C445 729 414 696 392 671 C392 671 268 533 268 533 C268 533 270 532 270 532 L270 532 Z M286 5 C286 5 286 5 286 5 C286 5 92 4 92 4 C92 4 522 500 522 500 C522 500 510 500 510 500 C510 500 499 500 499 500 C499 500 239 500 239 500 C239 500 164 500 164 500 C164 500 159 500 159 500 C159 500 158 498 158 498 C149 478 126 425 117 405 C117 405 129 405 129 405 C129 405 142 419 142 419 C174 451 263 495 297 495 C297 495 297 495 297 495 C297 495 495 496 495 496 C495 496 65 0 65 0 C65 0 77 0 77 0 C77 0 89 0 89 0 C89 0 349 0 349 0 C349 0 428 0 428 0 C428 0 429 0 429 0 C429 0 430 2 430 2 C441 33 470 116 481 147 C481 147 479 148 478 148 C472 151 464 154 464 155 C464 155 429 95 429 95 C406 56 324 4 286 5 C286 5 286 5 286 5 L286 5 Z " />
<glyph glyph-name="Zdotaccent" unicode="&#x17b;" horiz-adv-x="592" d="M464 730 C473 730 486 741 488 750 C489 759 480 770 471 770 C462 770 449 759 448 750 C446 741 455 730 464 730 L464 730 Z M559 156 C559 156 524 96 524 96 C501 57 419 6 381 6 C381 6 92 6 92 6 C92 6 645 660 645 660 C645 660 633 660 633 660 C633 660 620 660 620 660 C620 660 333 660 333 660 C333 660 258 660 258 660 C258 660 253 660 253 660 C253 660 252 658 252 657 C240 631 209 561 197 534 C197 534 209 534 209 534 C209 534 243 574 243 574 C271 608 356 654 390 654 C390 654 615 654 615 654 C615 654 62 0 62 0 C62 0 74 0 74 0 C74 0 87 0 87 0 C87 0 444 0 444 0 C444 0 523 0 523 0 C523 0 524 0 524 0 C524 0 524 2 525 3 C536 34 565 117 576 148 C572 149 559 156 559 156 L559 156 Z " />
<glyph glyph-name="zdotaccent" unicode="&#x17c;" horiz-adv-x="483" d="M356 570 C364 570 378 581 379 590 C381 599 371 610 363 610 C354 610 341 599 339 590 C338 581 347 570 356 570 L356 570 Z M286 5 C286 5 286 5 286 5 C286 5 92 4 92 4 C92 4 522 500 522 500 C522 500 510 500 510 500 C510 500 499 500 499 500 C499 500 239 500 239 500 C239 500 164 500 164 500 C164 500 159 500 159 500 C159 500 158 498 158 498 C149 478 126 425 117 405 C117 405 129 405 129 405 C129 405 142 419 142 419 C174 451 263 495 297 495 C297 495 297 495 297 495 C297 495 495 496 495 496 C495 496 65 0 65 0 C65 0 77 0 77 0 C77 0 89 0 89 0 C89 0 349 0 349 0 C349 0 428 0 428 0 C428 0 429 0 429 0 C429 0 430 2 430 2 C441 33 470 116 481 147 C481 147 479 148 478 148 C472 151 464 154 464 155 C464 155 429 95 429 95 C406 56 324 4 286 5 C286 5 286 5 286 5 L286 5 Z " />
<glyph glyph-name="Zcaron" unicode="&#x17d;" horiz-adv-x="592" d="M559 156 C559 156 524 96 524 96 C501 57 419 6 381 6 C381 6 92 6 92 6 C92 6 645 660 645 660 C645 660 633 660 633 660 C633 660 620 660 620 660 C620 660 333 660 333 660 C333 660 258 660 258 660 C258 660 253 660 253 660 C253 660 252 658 252 657 C240 631 209 561 197 534 C197 534 209 534 209 534 C209 534 243 574 243 574 C271 608 356 654 390 654 C390 654 615 654 615 654 C615 654 62 0 62 0 C62 0 74 0 74 0 C74 0 87 0 87 0 C87 0 444 0 444 0 C444 0 523 0 523 0 C523 0 524 0 524 0 C524 0 524 2 525 3 C536 34 565 117 576 148 C572 149 559 156 559 156 L559 156 Z M465 738 C465 738 613 926 613 926 C613 926 615 924 615 924 C615 924 469 721 469 721 C468 720 464 715 462 715 C459 715 457 719 456 721 C456 721 382 924 382 924 C382 924 384 926 384 926 C384 926 465 738 465 738 L465 738 Z " />
<glyph glyph-name="zcaron" unicode="&#x17e;" horiz-adv-x="483" d="M286 5 C286 5 286 5 286 5 C286 5 92 4 92 4 C92 4 522 500 522 500 C522 500 510 500 510 500 C510 500 499 500 499 500 C499 500 239 500 239 500 C239 500 164 500 164 500 C164 500 159 500 159 500 C159 500 158 498 158 498 C149 478 126 425 117 405 C117 405 129 405 129 405 C129 405 142 419 142 419 C174 451 263 495 297 495 C297 495 297 495 297 495 C297 495 495 496 495 496 C495 496 65 0 65 0 C65 0 77 0 77 0 C77 0 89 0 89 0 C89 0 349 0 349 0 C349 0 428 0 428 0 C428 0 429 0 429 0 C429 0 430 2 430 2 C441 33 470 116 481 147 C481 147 479 148 478 148 C472 151 464 154 464 155 C464 155 429 95 429 95 C406 56 324 4 286 5 C286 5 286 5 286 5 L286 5 Z M357 577 C357 577 504 766 504 766 C504 766 506 764 506 764 C506 764 360 561 360 561 C359 560 355 555 353 555 C351 555 348 559 348 561 C348 561 274 764 274 764 C274 764 276 766 276 766 C276 766 357 577 357 577 L357 577 Z " />
<glyph glyph-name="SmallLetterOwithogon" unicode="&#x1eb;" horiz-adv-x="699" d="M704 -50 C704 -50 702 -49 702 -49 C676 -75 594 -109 559 -109 C503 -109 402 -51 363 -5 C498 -2 679 169 698 277 C717 385 594 558 459 558 C323 558 140 385 120 277 C101 169 222 -2 356 -5 C400 -57 503 -122 554 -122 C587 -122 673 -81 704 -50 L704 -50 Z M360 0 C235 0 124 170 142 277 C161 383 333 553 458 553 C583 553 695 383 676 277 C657 170 486 0 360 0 L360 0 Z " />
<glyph glyph-name="CapitalLetterAwithdo" unicode="&#x226;" horiz-adv-x="595" d="M427 730 C436 730 450 741 451 750 C453 759 443 770 435 770 C426 770 413 759 411 750 C410 741 419 730 427 730 L427 730 Z M518 80 C518 80 518 80 518 80 C518 80 421 675 421 675 C421 675 415 675 415 675 C415 675 115 80 115 80 C115 80 115 80 115 80 C101 52 46 15 19 15 C19 15 8 15 8 15 C8 15 7 11 6 8 C6 4 5 0 5 0 C5 0 75 0 75 0 C75 0 79 0 79 0 C79 0 83 0 83 0 C83 0 193 0 193 0 C193 0 195 14 195 15 C195 15 170 15 170 15 C138 15 116 55 127 88 C127 88 203 239 203 239 C203 239 468 239 468 239 C468 239 494 74 494 74 C494 47 465 15 439 15 C439 15 404 15 404 15 C404 15 403 11 403 8 C403 8 401 0 401 0 C401 0 506 0 506 0 C506 0 519 0 519 0 C519 0 531 0 531 0 C531 0 591 0 591 0 C591 0 592 4 592 7 C593 11 593 15 593 15 C593 15 584 15 584 15 C560 15 522 52 518 80 C518 80 518 80 518 80 L518 80 Z M468 244 C468 244 205 244 205 244 C205 244 405 643 405 643 C405 643 468 244 468 244 L468 244 Z " />
<glyph glyph-name="LETTERSMALLCAPITALG" unicode="&#x262;" horiz-adv-x="762" d="M652 365 C652 365 673 492 673 492 C673 492 673 492 672 492 C672 492 674 495 674 495 C632 522 510 558 461 558 C337 558 142 397 120 277 C99 156 237 -5 361 -5 C413 -5 551 32 603 59 C603 59 613 117 624 182 C631 210 673 245 699 245 C699 245 710 245 710 245 C711 245 711 249 712 252 C712 256 713 260 713 260 C713 260 638 260 638 260 C638 260 629 260 629 260 C629 260 620 260 620 260 C620 260 545 260 545 260 C545 260 544 256 544 252 C543 249 542 245 542 245 C542 245 554 245 554 245 C580 245 608 212 606 184 C596 123 586 66 584 56 C525 30 408 0 362 0 C248 0 122 158 142 277 C163 395 345 553 460 553 C470 553 484 551 500 548 C551 534 623 455 632 403 C634 395 637 373 639 365 C639 365 652 365 652 365 L652 365 Z " />
<glyph glyph-name="LETTERSMALLCAPITALI" unicode="&#x26a;" horiz-adv-x="251" d="M126 0 C126 0 136 0 136 0 C136 0 211 0 211 0 C211 0 212 4 212 8 C213 11 214 15 214 15 C214 15 203 15 203 15 C176 15 147 49 150 77 C150 77 220 473 220 473 C220 473 220 473 220 473 C225 501 268 538 295 538 C295 538 306 538 306 538 C306 538 307 543 307 546 C308 549 309 553 309 553 C309 553 234 553 234 553 C234 553 224 553 224 553 C224 553 214 553 214 553 C214 553 139 553 139 553 C139 553 138 549 137 546 C137 543 136 538 136 538 C136 538 147 538 147 538 C174 538 202 503 200 476 C200 476 130 80 130 80 C130 80 130 80 130 80 C125 52 82 15 55 15 C55 15 44 15 44 15 C44 15 43 11 42 8 C42 4 41 0 41 0 C41 0 116 0 116 0 C116 0 126 0 126 0 L126 0 Z " />
<glyph glyph-name="LETTERSMALLCAPITALN" unicode="&#x274;" horiz-adv-x="631" d="M593 473 C593 473 594 473 594 473 C594 473 515 28 515 28 C515 28 236 553 236 553 C236 553 224 553 224 553 C224 553 223 545 223 545 C223 545 223 545 223 545 C223 545 224 553 224 553 C224 553 221 553 221 553 C221 553 218 553 218 553 C218 553 143 553 143 553 C143 552 141 538 140 538 C140 538 152 538 152 538 C178 538 208 502 204 475 C204 475 135 80 135 80 C135 80 135 80 135 80 C130 52 87 15 59 15 C59 15 48 15 48 15 C48 14 46 0 46 0 C46 0 121 0 121 0 C121 0 124 0 124 0 C124 0 127 0 127 0 C127 0 202 0 202 0 C202 0 204 14 204 15 C204 15 193 15 193 15 C167 15 137 51 141 78 C141 78 221 536 221 536 C221 536 502 8 502 8 C502 8 509 -4 509 -4 C509 -4 515 -4 515 -4 C515 -4 519 15 519 15 C519 15 601 481 601 481 C612 507 650 538 675 538 C675 538 686 538 686 538 C686 538 687 543 687 546 C688 549 689 553 689 553 C689 553 614 553 614 553 C614 553 611 553 611 553 C611 553 608 553 608 553 C608 553 533 553 533 553 C533 553 532 549 531 546 C531 543 530 538 530 538 C530 538 541 538 541 538 C568 538 598 501 593 473 C593 473 593 473 593 473 L593 473 Z " />
<glyph glyph-name="LETTERSMALLCAPITALR" unicode="&#x280;" horiz-adv-x="563" d="M218 473 C218 473 219 473 219 473 C219 473 149 80 149 80 C149 80 149 80 149 80 C144 52 101 15 74 15 C74 15 63 15 63 15 C63 15 62 11 61 8 C61 4 60 0 60 0 C60 0 135 0 135 0 C135 0 145 0 145 0 C145 0 155 0 155 0 C155 0 230 0 230 0 C230 0 231 4 231 8 C232 11 233 15 233 15 C233 15 221 15 221 15 C195 15 166 49 169 77 C169 77 202 267 202 267 C202 267 279 267 279 267 C279 267 431 106 431 106 C500 33 538 0 552 0 C552 0 563 0 563 0 C563 0 564 4 564 4 C564 4 559 4 559 4 C553 4 521 35 458 102 C458 102 302 268 302 268 C386 275 500 353 509 412 C520 472 436 553 362 553 C362 553 253 553 253 553 C253 553 243 553 243 553 C243 553 233 553 233 553 C233 553 158 553 158 553 C158 553 157 549 156 546 C156 543 155 538 155 538 C155 538 166 538 166 538 C193 538 223 501 218 473 C218 473 218 473 218 473 L218 473 Z M290 272 C290 272 274 272 274 272 C274 272 203 272 203 272 C203 272 252 548 252 548 C252 548 361 548 361 548 C426 548 499 470 488 412 C478 352 365 272 290 272 L290 272 Z " />
<glyph glyph-name="LETTERSMALLCAPITALY" unicode="&#x28f;" horiz-adv-x="506" d="M473 453 C473 453 473 453 473 453 C473 453 309 217 309 217 C309 217 225 480 225 480 C221 507 244 538 270 538 C270 538 288 538 288 538 C288 538 289 543 289 546 C290 549 291 553 291 553 C291 553 201 553 201 553 C201 553 189 553 189 553 C189 553 177 553 177 553 C177 553 129 553 129 553 C129 552 127 539 127 538 C127 538 135 538 135 538 C155 538 194 501 203 473 C203 473 204 473 204 473 C204 473 292 208 292 208 C286 177 277 126 269 80 C269 80 269 80 269 80 C264 52 221 15 194 15 C194 15 183 15 183 15 C183 15 182 11 182 8 C182 8 180 0 180 0 C180 0 255 0 255 0 C255 0 265 0 265 0 C265 0 275 0 275 0 C275 0 350 0 350 0 C350 0 352 8 352 8 C352 11 353 15 353 15 C353 15 342 15 342 15 C314 15 286 51 289 79 C298 130 308 187 313 215 C313 215 494 474 494 474 C515 502 570 538 594 538 C594 538 604 538 604 538 C604 538 605 543 605 546 C606 549 606 553 606 553 C606 553 549 553 549 553 C549 553 546 553 546 553 C546 553 543 553 543 553 C543 553 433 553 433 553 C433 553 432 549 432 546 C431 543 430 538 430 538 C430 538 448 538 448 538 C484 538 499 490 473 453 C473 453 473 453 473 453 L473 453 Z " />
<glyph glyph-name="LETTERSMALLCAPITALB" unicode="&#x299;" horiz-adv-x="506" d="M218 473 C218 473 219 473 219 473 C219 473 149 80 149 80 C149 80 149 80 149 80 C144 52 101 15 74 15 C74 15 63 15 63 15 C63 15 62 11 61 8 C61 4 60 0 60 0 C60 0 135 0 135 0 C135 0 145 0 145 0 C145 0 155 0 155 0 C155 0 207 293 207 293 C207 293 207 293 207 293 C207 293 294 293 294 293 C298 293 303 293 308 294 C402 283 502 207 492 150 C481 88 362 5 284 5 C284 5 156 5 156 5 C156 5 155 0 155 0 C155 0 285 0 285 0 C371 0 502 86 513 150 C524 207 423 282 326 296 C405 312 502 379 511 431 C520 483 435 553 361 553 C361 553 253 553 253 553 C253 553 243 553 243 553 C243 553 233 553 233 553 C233 553 158 553 158 553 C158 553 157 549 156 546 C156 543 155 538 155 538 C155 538 166 538 166 538 C193 538 223 501 218 473 L218 473 Z M315 298 C307 299 299 299 292 299 C292 299 208 298 208 298 C208 298 208 297 208 297 C208 297 252 548 252 548 C252 548 360 548 360 548 C425 548 500 481 491 431 C482 378 387 310 315 298 C315 298 315 298 315 298 L315 298 Z " />
<glyph glyph-name="LETTERSMALLCAPITALH" unicode="&#x29c;" horiz-adv-x="700" d="M585 538 C585 538 597 538 597 538 C623 538 653 502 649 475 C649 475 618 295 618 295 C618 295 188 295 188 295 C188 295 219 473 219 473 C219 473 219 473 219 473 C224 501 267 538 294 538 C294 538 305 538 305 538 C305 538 306 543 307 546 C307 549 308 553 308 553 C308 553 233 553 233 553 C233 553 223 553 223 553 C223 553 213 553 213 553 C213 553 138 553 138 553 C138 552 136 538 135 538 C135 538 147 538 147 538 C173 538 203 502 199 475 C199 475 130 80 130 80 C130 80 130 80 130 80 C125 52 82 15 54 15 C54 15 43 15 43 15 C43 15 43 11 42 8 C42 4 41 0 41 0 C41 0 116 0 116 0 C116 0 126 0 126 0 C126 0 136 0 136 0 C136 0 211 0 211 0 C210 0 211 4 212 8 C212 11 213 15 213 15 C213 15 202 15 202 15 C176 15 146 51 150 78 C150 78 187 290 187 290 C187 290 617 290 617 290 C617 290 580 80 580 80 C580 80 580 80 580 80 C575 52 532 15 504 15 C504 15 493 15 493 15 C493 15 493 11 492 8 C492 4 491 0 491 0 C491 0 566 0 566 0 C566 0 576 0 576 0 C576 0 586 0 586 0 C586 0 661 0 661 0 C660 0 661 4 662 8 C662 11 663 15 663 15 C663 15 652 15 652 15 C626 15 596 51 600 78 C600 78 669 473 669 473 C669 473 669 473 669 473 C674 501 717 538 744 538 C744 538 755 538 755 538 C755 538 756 543 757 546 C757 549 758 553 758 553 C758 553 683 553 683 553 C683 553 673 553 673 553 C673 553 663 553 663 553 C663 553 588 553 588 553 C588 552 586 538 585 538 L585 538 Z " />
<glyph glyph-name="LETTERSMALLCAPITALL" unicode="&#x29f;" horiz-adv-x="500" d="M422 155 C422 155 386 95 386 95 C364 57 282 5 243 5 C243 5 137 5 137 5 C137 5 219 473 219 473 C219 473 219 473 219 473 C224 501 267 538 294 538 C294 538 305 538 305 538 C305 538 306 543 307 546 C307 549 308 553 308 553 C308 553 233 553 233 553 C233 553 223 553 223 553 C223 553 213 553 213 553 C213 553 138 553 138 553 C138 552 136 538 135 538 C135 538 147 538 147 538 C173 538 203 502 199 475 C199 475 130 80 130 80 C130 80 130 80 130 80 C125 52 82 15 54 15 C54 15 43 15 43 15 C43 15 43 11 42 8 C42 4 41 0 41 0 C41 0 116 0 116 0 C116 0 126 0 126 0 C126 0 136 0 136 0 C136 0 306 0 306 0 C306 0 386 0 386 0 C387 0 387 2 387 3 C398 33 428 117 438 148 C438 148 438 148 438 148 C438 148 438 148 438 148 C438 148 428 152 422 155 C422 155 422 155 422 155 L422 155 Z " />
<glyph glyph-name="LETTERSMALLCAPITALA" unicode="&#x1d00;" horiz-adv-x="533" d="M414 200 C414 200 434 80 434 80 C434 80 433 80 433 80 C438 52 407 15 379 15 C379 15 344 15 344 15 C344 15 344 11 343 8 C343 4 342 0 342 0 C342 0 447 0 447 0 C447 0 457 0 457 0 C457 0 468 0 468 0 C468 0 528 0 528 0 C528 0 529 4 530 7 C530 11 531 15 531 15 C531 15 521 15 521 15 C498 15 462 49 455 77 C455 77 370 566 370 566 C370 566 365 566 365 566 C365 566 115 79 115 79 C100 51 46 15 19 15 C19 15 8 15 8 15 C8 15 7 11 7 8 C7 8 5 0 5 0 C5 0 75 0 75 0 C75 0 79 0 79 0 C79 0 82 0 82 0 C82 0 192 0 192 0 C192 0 193 4 193 8 C194 11 195 15 195 15 C195 15 170 15 170 15 C137 15 115 57 128 90 C128 90 184 200 184 200 C184 200 414 200 414 200 L414 200 Z M413 205 C413 205 186 205 186 205 C186 205 357 540 357 540 C357 540 413 205 413 205 L413 205 Z " />
</font>
</svg>
