<?xml version="1.0" encoding="UTF-8"?>
<svg xmlns="http://www.w3.org/2000/svg" xmlns:xlink="http://www.w3.org/1999/xlink" version="1.2" >
<font id="Aara Bold">
<font-face  font-family="Aara" units-per-em="1024" ascent="936" descent="-280" font-style="normal" font-weight="700" font-stretch="normal" cap-height="660" x-height="500" underline-position="0" underline-thickness="0" />
<missing-glyph  horiz-adv-x="472" d="M0 700 C0 700 432 700 432 700 C432 700 432 0 432 0 C432 0 0 0 0 0 C0 0 0 700 0 700 L0 700 Z M50 50 C50 50 382 50 382 50 C382 50 382 650 382 650 C382 650 50 650 50 650 C50 650 50 50 50 50 L50 50 Z " />
<glyph glyph-name="NULL" d="" />
<glyph glyph-name="CR" unicode="&#xd;" horiz-adv-x="256" d="" />
<glyph glyph-name="space" unicode="&#x20;" horiz-adv-x="250" d="" />
<glyph glyph-name="exclam" unicode="&#x21;" horiz-adv-x="265" d="M143 -5 C177 -5 223 41 223 75 C223 109 177 155 143 155 C109 155 63 109 63 75 C63 41 109 -5 143 -5 L143 -5 Z M206 583 C211 618 171 665 135 665 C98 665 58 618 65 583 C65 583 135 230 135 230 C135 230 151 230 151 230 C151 230 206 583 206 583 L206 583 Z " />
<glyph glyph-name="quotedbl" unicode="&#x22;" horiz-adv-x="403" d="M216 660 C216 660 280 400 280 400 C280 400 299 400 299 400 C299 400 363 660 363 660 C363 660 216 660 216 660 L216 660 Z M39 660 C39 660 103 400 103 400 C103 400 122 400 122 400 C122 400 186 660 186 660 C186 660 39 660 39 660 L39 660 Z " />
<glyph glyph-name="numbersign" unicode="&#x23;" horiz-adv-x="553" d="M390 656 C390 656 367 504 367 504 C367 504 237 504 237 504 C237 504 260 656 260 656 C260 656 215 656 215 656 C215 656 192 504 192 504 C192 504 71 504 71 504 C71 504 59 416 59 416 C59 416 178 416 178 416 C178 416 152 244 152 244 C152 244 28 244 28 244 C28 244 16 156 16 156 C16 156 139 156 139 156 C139 156 115 0 115 0 C115 0 159 0 159 0 C159 0 183 156 183 156 C183 156 314 156 314 156 C314 156 290 0 290 0 C290 0 334 0 334 0 C334 0 358 156 358 156 C358 156 473 156 473 156 C473 156 486 244 486 244 C486 244 372 244 372 244 C372 244 398 416 398 416 C398 416 522 416 522 416 C522 416 534 504 534 504 C534 504 412 504 412 504 C412 504 435 656 435 656 C435 656 390 656 390 656 L390 656 Z M223 416 C223 416 353 416 353 416 C353 416 327 244 327 244 C327 244 197 244 197 244 C197 244 223 416 223 416 L223 416 Z " />
<glyph glyph-name="dollar" unicode="&#x24;" horiz-adv-x="514" d="M275 735 C275 735 275 664 275 664 C269 665 264 665 260 665 C252 665 243 664 234 662 C234 662 234 735 234 735 C234 735 195 735 195 735 C195 735 195 650 195 650 C116 615 39 529 39 460 C39 408 127 309 195 282 C195 282 195 39 195 39 C145 64 81 125 65 168 C63 176 55 196 52 204 C52 204 39 204 39 204 C39 204 39 40 39 40 C65 26 137 8 195 -1 C195 -1 195 -75 195 -75 C195 -75 234 -75 234 -75 C234 -75 234 -5 234 -5 C238 -5 242 -5 245 -5 C255 -5 265 -4 275 -2 C275 -2 275 -75 275 -75 C275 -75 314 -75 314 -75 C314 -75 314 11 314 11 C393 44 469 125 469 189 C469 244 384 343 314 375 C314 375 314 614 314 614 C342 595 374 562 382 540 C388 522 406 474 412 456 C412 456 425 456 425 456 C425 456 425 620 425 620 C425 620 414 600 414 600 C414 600 414 600 414 600 C414 600 425 620 425 620 C403 632 355 648 314 657 C314 657 314 735 314 735 C314 735 275 735 275 735 L275 735 Z M234 411 C234 411 234 631 234 631 C241 633 248 634 255 634 C260 634 267 633 275 631 C275 631 275 390 275 390 C261 396 248 403 234 411 C234 411 234 411 234 411 L234 411 Z M195 436 C156 464 127 494 127 511 C127 546 158 587 195 612 C195 612 195 436 195 436 L195 436 Z M234 267 C248 260 262 252 275 244 C275 244 275 32 275 32 C265 29 255 27 245 27 C242 27 238 27 234 28 C234 28 234 267 234 267 L234 267 Z M314 216 C351 187 378 156 378 137 C378 108 349 73 314 51 C314 51 314 216 314 216 L314 216 Z " />
<glyph glyph-name="ampersand" unicode="&#x26;" horiz-adv-x="729" d="M656 380 C656 380 441 380 441 380 C441 380 441 365 441 365 C441 365 456 365 456 365 C488 365 531 327 531 270 C531 270 531 240 531 240 C531 215 520 188 502 161 C475 188 446 218 418 252 C387 289 352 338 321 387 C394 424 465 498 465 546 C465 597 376 665 310 665 C244 665 155 569 155 497 C155 472 180 417 215 357 C135 309 50 211 50 155 C50 86 167 -5 254 -5 C319 -5 395 30 455 79 C556 14 667 -11 730 0 C730 0 730 19 730 19 C698 13 615 56 519 146 C542 177 556 210 556 240 C556 240 556 270 556 270 C556 327 605 365 641 365 C641 365 656 365 656 365 C656 365 656 380 656 380 L656 380 Z M305 412 C269 472 243 525 243 548 C243 588 277 640 303 640 C334 640 376 583 376 540 C376 501 343 447 305 412 C305 412 305 412 305 412 L305 412 Z M435 92 C398 65 355 46 318 46 C250 46 159 133 159 199 C159 238 193 296 230 332 C263 278 301 223 335 183 C365 148 399 117 435 92 L435 92 Z " />
<glyph glyph-name="quotesingle" unicode="&#x27;" horiz-adv-x="226" d="M39 660 C39 660 103 400 103 400 C103 400 122 400 122 400 C122 400 186 660 186 660 C186 660 39 660 39 660 L39 660 Z " />
<glyph glyph-name="parenleft" unicode="&#x28;" horiz-adv-x="278" d="M257 690 C172 628 59 423 59 270 C59 117 172 -88 257 -150 C257 -150 268 -135 268 -135 C217 -97 149 94 149 270 C149 446 217 637 268 675 C268 675 257 690 257 690 L257 690 Z " />
<glyph glyph-name="parenright" unicode="&#x29;" horiz-adv-x="278" d="M10 -150 C95 -88 208 117 208 270 C208 423 95 628 10 690 C10 690 -1 675 -1 675 C50 637 118 446 118 270 C118 94 50 -97 -1 -135 C-1 -135 10 -150 10 -150 L10 -150 Z " />
<glyph glyph-name="asterisk" unicode="&#x2a;" horiz-adv-x="300" d="M137 540 C137 540 29 510 29 510 C14 506 6 479 16 462 C25 446 53 439 64 450 C64 450 144 529 144 529 C144 529 115 420 115 420 C111 405 131 385 150 385 C169 385 189 405 185 420 C185 420 156 529 156 529 C156 529 236 450 236 450 C247 439 275 446 284 462 C294 479 286 506 271 510 C271 510 163 540 163 540 C163 540 271 570 271 570 C286 574 294 601 284 617 C275 634 247 641 236 630 C236 630 156 551 156 551 C156 551 185 660 185 660 C189 675 169 695 150 695 C131 695 111 675 115 660 C115 660 144 551 144 551 C144 551 64 630 64 630 C53 641 25 634 16 617 C6 601 14 574 29 570 C29 570 137 540 137 540 L137 540 Z " />
<glyph glyph-name="plus" unicode="&#x2b;" horiz-adv-x="555" d="M247 450 C247 450 247 276 247 276 C247 276 75 276 75 276 C75 276 75 224 75 224 C75 224 247 224 247 224 C247 224 247 50 247 50 C247 50 303 50 303 50 C303 50 303 224 303 224 C303 224 475 224 475 224 C475 224 475 276 475 276 C475 276 303 276 303 276 C303 276 303 450 303 450 C303 450 247 450 247 450 L247 450 Z " />
<glyph glyph-name="comma" unicode="&#x2c;" horiz-adv-x="282" d="M201 31 C212 45 219 60 219 74 C219 108 173 154 139 154 C105 154 60 108 60 74 C60 57 71 37 87 22 C87 22 83 18 83 18 C119 -17 167 -49 167 -39 C167 -76 119 -143 83 -157 C83 -157 89 -174 89 -174 C151 -151 233 -42 233 16 C233 11 219 18 201 31 C201 31 201 31 201 31 L201 31 Z " />
<glyph glyph-name="hyphen" unicode="&#x2d;" horiz-adv-x="280" d="M20 190 C20 190 260 190 260 190 C260 190 260 280 260 280 C260 280 20 280 20 280 C20 280 20 190 20 190 L20 190 Z " />
<glyph glyph-name="period" unicode="&#x2e;" horiz-adv-x="265" d="M125 -5 C159 -5 205 41 205 75 C205 109 159 155 125 155 C91 155 45 109 45 75 C45 41 91 -5 125 -5 L125 -5 Z " />
<glyph glyph-name="slash" unicode="&#x2f;" horiz-adv-x="361" d="M0 -145 C0 -145 51 -145 51 -145 C51 -145 361 710 361 710 C361 710 310 710 310 710 C310 710 0 -145 0 -145 L0 -145 Z " />
<glyph glyph-name="zero" unicode="0" horiz-adv-x="616" d="M308 21 C253 21 178 152 178 250 C178 348 253 479 308 479 C364 479 439 348 439 250 C439 152 364 21 308 21 L308 21 Z M50 250 C50 141 198 -5 308 -5 C419 -5 567 141 567 250 C567 359 419 505 308 505 C198 505 50 359 50 250 L50 250 Z " />
<glyph glyph-name="one" unicode="1" horiz-adv-x="375" d="M320 500 C320 500 245 500 245 500 C245 500 188 500 188 500 C188 500 130 500 130 500 C130 500 55 500 55 500 C55 500 55 485 55 485 C55 485 66 485 66 485 C94 485 130 448 130 420 C130 420 130 80 130 80 C130 52 94 15 66 15 C66 15 55 15 55 15 C55 15 55 0 55 0 C55 0 130 0 130 0 C130 0 188 0 188 0 C188 0 245 0 245 0 C245 0 320 0 320 0 C320 0 320 15 320 15 C320 15 309 15 309 15 C281 15 245 52 245 80 C245 80 245 420 245 420 C245 448 281 485 309 485 C309 485 320 485 320 485 C320 485 320 500 320 500 L320 500 Z " />
<glyph glyph-name="two" unicode="2" horiz-adv-x="487" d="M455 115 C457 144 460 174 462 190 C462 190 447 190 447 190 C447 190 446 179 446 179 C443 151 403 115 375 115 C375 115 197 115 197 115 C327 206 442 300 442 355 C442 419 346 505 274 505 C212 505 94 422 69 359 C69 359 84 350 84 350 C96 380 172 420 217 420 C259 420 314 360 314 316 C314 219 149 106 25 26 C25 26 25 0 25 0 C25 0 445 0 445 0 C445 0 455 115 455 115 C455 115 455 115 455 115 L455 115 Z " />
<glyph glyph-name="three" unicode="3" horiz-adv-x="470" d="M24 -215 C193 -206 421 -59 421 41 C421 103 327 181 239 204 C322 258 392 327 392 367 C392 426 304 505 238 505 C179 505 48 427 9 369 C9 369 22 359 22 359 C40 386 130 421 180 421 C221 421 276 369 276 330 C276 298 239 249 193 210 C193 210 193 210 193 210 C193 210 193 210 193 210 C171 191 146 174 122 163 C116 161 110 158 103 156 C103 156 103 137 103 137 C105 138 107 138 109 139 C126 144 156 149 167 149 C224 149 300 84 300 35 C300 -57 141 -190 23 -196 C23 -196 24 -215 24 -215 L24 -215 Z " />
<glyph glyph-name="four" unicode="4" horiz-adv-x="490" d="M69 51 C69 51 255 309 255 309 C255 309 255 51 255 51 C255 51 69 51 69 51 L69 51 Z M255 0 C255 0 255 -150 255 -150 C255 -150 370 -150 370 -150 C370 -150 370 0 370 0 C370 0 480 0 480 0 C480 0 480 51 480 51 C480 51 370 51 370 51 C370 51 370 469 370 469 C370 469 371 470 371 470 C371 470 370 472 370 472 C370 472 370 505 370 505 C370 505 351 505 351 505 C351 505 4 20 4 20 C4 20 4 0 4 0 C4 0 29 0 29 0 C29 0 32 0 32 0 C32 0 255 0 255 0 L255 0 Z " />
<glyph glyph-name="five" unicode="5" horiz-adv-x="456" d="M64 173 C64 173 93 173 93 173 C93 173 107 173 107 173 C186 173 291 101 291 48 C291 -37 142 -156 30 -160 C30 -160 31 -182 31 -182 C192 -176 407 -24 407 85 C407 171 269 286 166 286 C166 286 102 286 102 286 C102 286 93 173 93 173 C93 173 118 500 118 500 C118 500 109 379 109 379 C109 379 355 379 355 379 C355 379 383 467 383 467 C395 502 411 553 418 575 C418 575 403 575 403 575 C403 575 400 564 400 564 C391 536 342 500 314 500 C314 500 314 500 314 500 C314 500 118 500 118 500 C118 500 84 500 84 500 C84 500 64 173 64 173 L64 173 Z " />
<glyph glyph-name="six" unicode="6" horiz-adv-x="568" d="M489 715 C302 709 53 467 53 293 C53 166 181 -5 277 -5 C385 -5 524 122 519 217 C519 309 404 432 318 432 C277 432 227 387 186 330 C186 331 186 331 186 332 C186 483 360 691 489 696 C489 696 489 715 489 715 L489 715 Z M186 290 C220 349 265 400 299 400 C341 400 398 291 398 210 C402 132 340 27 290 27 C245 27 184 116 184 183 C184 205 185 253 186 290 C186 290 186 290 186 290 L186 290 Z " />
<glyph glyph-name="seven" unicode="7" horiz-adv-x="443" d="M25 441 C22 412 16 336 13 307 C13 307 28 307 28 307 C28 307 29 319 29 319 C31 346 72 382 100 382 C100 382 382 382 382 382 C382 382 113 -140 113 -140 C113 -140 241 -140 241 -140 C305 70 369 280 434 489 C434 489 425 500 425 500 C425 500 30 500 30 500 C30 500 25 441 25 441 L25 441 Z " />
<glyph glyph-name="eight" unicode="8" horiz-adv-x="539" d="M317 375 C305 381 294 386 283 390 C236 407 173 489 173 534 C173 579 223 640 261 640 C304 640 361 560 361 501 C361 461 341 408 317 375 C317 375 317 375 317 375 L317 375 Z M339 361 C400 399 457 471 457 520 C457 582 348 665 267 665 C186 665 77 564 77 489 C77 441 130 361 186 313 C117 286 49 216 49 160 C49 90 175 -5 269 -5 C364 -5 490 101 490 180 C490 226 415 312 339 361 C339 361 339 361 339 361 L339 361 Z M206 298 C219 289 231 282 242 278 C302 257 382 178 382 141 C382 89 321 20 276 20 C225 20 157 111 157 179 C157 219 180 269 206 298 L206 298 Z " />
<glyph glyph-name="nine" unicode="9" horiz-adv-x="568" d="M80 -215 C267 -209 516 33 516 207 C516 334 388 505 292 505 C184 505 45 378 50 283 C50 191 165 68 251 68 C291 68 341 112 382 168 C382 168 382 168 382 168 C383 17 209 -191 80 -196 C80 -196 80 -215 80 -215 L80 -215 Z M383 210 C349 151 304 100 270 100 C228 100 171 209 171 290 C167 368 229 473 279 473 C324 473 385 384 385 317 C385 295 384 247 383 210 L383 210 Z " />
<glyph glyph-name="colon" unicode="&#x3a;" horiz-adv-x="265" d="M125 408 C159 408 205 454 205 488 C205 522 159 568 125 568 C91 568 45 522 45 488 C45 454 91 408 125 408 L125 408 Z M125 -5 C159 -5 205 41 205 75 C205 109 159 155 125 155 C91 155 45 109 45 75 C45 41 91 -5 125 -5 L125 -5 Z " />
<glyph glyph-name="semicolon" unicode="&#x3b;" horiz-adv-x="282" d="M139 411 C173 411 219 456 219 490 C219 524 173 569 139 569 C105 569 60 524 60 490 C60 456 105 411 139 411 L139 411 Z M201 31 C212 45 219 60 219 74 C219 108 173 154 139 154 C105 154 60 108 60 74 C60 57 71 37 87 22 C87 22 83 18 83 18 C119 -17 167 -49 167 -39 C167 -76 119 -143 83 -157 C83 -157 89 -174 89 -174 C151 -151 233 -42 233 16 C233 11 219 18 201 31 C201 31 201 31 201 31 L201 31 Z " />
<glyph glyph-name="less" unicode="&#x3c;" horiz-adv-x="540" d="M465 500 C465 500 50 309 50 309 C50 309 40 304 40 304 C40 304 40 246 40 246 C40 246 50 241 50 241 C50 241 465 50 465 50 C465 50 465 108 465 108 C465 108 88 275 88 275 C88 275 465 443 465 443 C465 443 465 500 465 500 L465 500 Z " />
<glyph glyph-name="equal" unicode="&#x3d;" horiz-adv-x="537" d="M88 226 C88 226 88 174 88 174 C88 174 468 174 468 174 C468 174 468 226 468 226 C468 226 88 226 88 226 L88 226 Z M88 326 C88 326 88 274 88 274 C88 274 468 274 468 274 C468 274 468 326 468 326 C468 326 88 326 88 326 L88 326 Z " />
<glyph glyph-name="greater" unicode="&#x3e;" horiz-adv-x="530" d="M440 275 C440 275 75 108 75 108 C75 108 75 50 75 50 C75 50 477 241 477 241 C477 241 490 247 490 247 C490 247 490 303 490 303 C490 303 477 309 477 309 C477 309 75 500 75 500 C75 500 75 443 75 443 C75 443 440 275 440 275 L440 275 Z " />
<glyph glyph-name="question" unicode="&#x3f;" horiz-adv-x="372" d="M139 -5 C173 -5 219 41 219 75 C219 109 173 155 139 155 C105 155 59 109 59 75 C59 41 105 -5 139 -5 L139 -5 Z M119 377 C112 377 104 367 106 360 C106 360 131 235 131 235 C131 235 147 235 147 235 C147 235 158 290 158 290 C158 290 193 290 193 290 C279 290 337 384 337 416 C337 522 212 665 118 665 C83 665 36 623 36 592 C36 571 64 542 85 542 C104 542 136 575 155 575 C221 575 311 491 311 429 C311 416 248 377 154 377 C154 377 119 377 119 377 L119 377 Z " />
<glyph glyph-name="at" unicode="&#x40;" horiz-adv-x="1177" d="M1039 0 C992 -100 748 -234 611 -234 C412 -234 145 48 145 259 C145 470 399 752 589 752 C779 752 1033 518 1033 343 C1033 201 933 10 859 10 C806 10 762 119 782 200 C782 200 852 480 852 480 C852 480 744 480 744 480 C744 480 725 403 725 403 C700 447 641 490 594 490 C461 490 282 317 282 188 C282 109 386 4 463 4 C529 4 629 65 675 126 C694 46 766 -30 838 -30 C960 -30 1123 184 1123 343 C1123 532 817 784 589 784 C361 784 56 483 56 259 C56 35 374 -266 611 -266 C757 -266 1024 -114 1077 0 C1077 0 1039 0 1039 0 L1039 0 Z M713 356 C713 356 674 200 674 200 C660 144 573 68 522 68 C473 68 408 149 408 210 C408 316 513 458 591 458 C643 458 712 400 713 356 L713 356 Z " />
<glyph glyph-name="A" unicode="A" horiz-adv-x="708" d="M703 15 C703 15 693 15 693 15 C669 15 620 52 608 80 C608 80 608 80 608 80 C608 80 347 675 347 675 C347 675 315 675 315 675 C315 675 93 74 93 74 C79 47 33 15 8 15 C8 15 -3 15 -3 15 C-3 15 -3 0 -3 0 C-3 0 66 0 66 0 C66 0 88 0 88 0 C88 0 109 0 109 0 C109 0 219 0 219 0 C219 0 219 15 219 15 C219 15 194 15 194 15 C162 15 134 56 140 89 C140 89 191 232 191 232 C191 232 406 232 406 232 C406 232 470 80 470 80 C470 80 470 80 470 80 C482 52 460 15 432 15 C432 15 400 15 400 15 C400 15 400 0 400 0 C400 0 504 0 504 0 C504 0 573 0 573 0 C573 0 643 0 643 0 C643 0 703 0 703 0 C703 0 703 15 703 15 L703 15 Z M392 264 C392 264 202 264 202 264 C202 264 289 509 289 509 C289 509 392 264 392 264 L392 264 Z " />
<glyph glyph-name="B" unicode="B" horiz-adv-x="672" d="M33 645 C33 645 44 645 44 645 C72 645 108 608 108 580 C108 580 108 80 108 80 C108 52 72 15 44 15 C44 15 33 15 33 15 C33 15 33 0 33 0 C33 0 108 0 108 0 C108 0 172 0 172 0 C172 0 236 0 236 0 C236 0 377 0 377 0 C495 0 652 105 652 184 C652 251 523 336 407 357 C503 383 597 450 597 502 C597 570 457 660 352 660 C352 660 236 660 236 660 C236 660 172 660 172 660 C172 660 108 660 108 660 C108 660 33 660 33 660 C33 660 33 645 33 645 L33 645 Z M236 364 C236 364 236 628 236 628 C236 628 352 628 352 628 C402 628 469 556 469 502 C469 443 389 364 329 364 C329 364 236 364 236 364 L236 364 Z M236 336 C236 336 321 336 321 336 C405 336 518 249 518 184 C518 119 430 32 364 32 C364 32 236 32 236 32 C236 32 236 336 236 336 L236 336 Z " />
<glyph glyph-name="C" unicode="C" horiz-adv-x="703" d="M644 453 C644 453 644 607 644 607 C601 632 456 665 391 665 C230 665 14 473 14 330 C14 187 230 -5 391 -5 C456 -5 601 28 644 53 C644 53 644 207 644 207 C644 207 631 207 631 207 C628 199 620 178 618 170 C599 118 492 41 424 29 C411 28 400 27 391 27 C289 27 154 200 154 330 C154 460 289 633 391 633 C409 633 433 630 459 626 C512 613 600 538 618 490 C620 482 628 461 631 453 C631 453 644 453 644 453 L644 453 Z " />
<glyph glyph-name="D" unicode="D" horiz-adv-x="766" d="M33 645 C33 645 44 645 44 645 C72 645 108 608 108 580 C108 580 108 80 108 80 C108 52 72 15 44 15 C44 15 33 15 33 15 C33 15 33 0 33 0 C33 0 108 0 108 0 C108 0 172 0 172 0 C172 0 236 0 236 0 C236 0 377 0 377 0 C522 0 717 189 717 330 C717 471 502 660 342 660 C342 660 236 660 236 660 C236 660 172 660 172 660 C172 660 108 660 108 660 C108 660 33 660 33 660 C33 660 33 645 33 645 L33 645 Z M236 32 C236 32 236 628 236 628 C236 628 342 628 342 628 C447 628 589 457 589 330 C589 203 468 32 377 32 C377 32 236 32 236 32 L236 32 Z " />
<glyph glyph-name="E" unicode="E" horiz-adv-x="652" d="M473 251 C473 251 473 336 473 336 C473 336 473 352 473 352 C473 352 473 368 473 368 C473 368 473 443 473 443 C473 443 461 443 461 443 C461 443 457 432 457 432 C449 404 389 368 353 368 C353 368 243 368 243 368 C243 368 243 628 243 628 C243 628 388 628 388 628 C431 628 507 571 521 528 C521 528 532 493 532 493 C532 493 543 493 543 493 C543 493 543 644 543 644 C543 644 543 660 543 660 C543 660 528 660 528 660 C528 660 463 660 463 660 C463 660 243 660 243 660 C243 660 179 660 179 660 C179 660 115 660 115 660 C115 660 40 660 40 660 C40 660 40 645 40 645 C40 645 51 645 51 645 C79 645 115 608 115 580 C115 580 115 80 115 80 C115 52 79 15 51 15 C51 15 40 15 40 15 C40 15 40 0 40 0 C40 0 115 0 115 0 C115 0 179 0 179 0 C179 0 243 0 243 0 C243 0 462 0 462 0 C462 0 538 0 538 0 C538 0 542 0 542 0 C543 3 545 13 545 16 C551 48 566 135 572 167 C572 167 561 167 561 167 C561 167 543 132 543 132 C522 89 436 32 393 32 C393 32 243 32 243 32 C243 32 243 336 243 336 C243 336 353 336 353 336 C389 336 449 295 457 264 C457 264 461 251 461 251 C461 251 473 251 473 251 L473 251 Z " />
<glyph glyph-name="F" unicode="F" horiz-adv-x="567" d="M463 246 C463 246 463 331 463 331 C463 331 463 347 463 347 C463 347 463 363 463 363 C463 363 463 438 463 438 C463 438 451 438 451 438 C451 438 447 427 447 427 C439 399 379 363 343 363 C343 363 243 363 243 363 C243 363 243 628 243 628 C243 628 418 628 418 628 C461 628 537 571 551 528 C551 528 562 493 562 493 C562 493 573 493 573 493 C573 493 573 644 573 644 C573 644 573 660 573 660 C573 660 558 660 558 660 C558 660 493 660 493 660 C493 660 243 660 243 660 C243 660 179 660 179 660 C179 660 115 660 115 660 C115 660 40 660 40 660 C40 660 40 645 40 645 C40 645 51 645 51 645 C79 645 115 608 115 580 C115 580 115 80 115 80 C115 52 79 15 51 15 C51 15 40 15 40 15 C40 15 40 0 40 0 C40 0 115 0 115 0 C115 0 179 0 179 0 C179 0 243 0 243 0 C243 0 328 0 328 0 C328 0 328 15 328 15 C328 15 308 15 308 15 C280 15 243 52 243 80 C243 80 243 331 243 331 C243 331 343 331 343 331 C379 331 439 290 447 259 C447 259 451 246 451 246 C451 246 463 246 463 246 L463 246 Z " />
<glyph glyph-name="G" unicode="G" horiz-adv-x="827" d="M732 310 C732 310 657 310 657 310 C657 310 600 310 600 310 C600 310 542 310 542 310 C542 310 467 310 467 310 C467 310 467 295 467 295 C467 295 478 295 478 295 C506 295 542 258 542 230 C542 230 542 48 542 48 C494 36 440 27 409 27 C312 27 182 200 182 330 C182 460 312 633 409 633 C424 633 445 631 468 627 C521 614 608 539 626 490 C628 482 636 461 639 453 C639 453 652 453 652 453 C652 453 652 607 652 607 C609 632 470 665 409 665 C252 665 42 473 42 330 C42 187 252 -5 409 -5 C472 -5 614 28 657 53 C657 53 657 230 657 230 C657 258 694 295 721 295 C721 295 732 295 732 295 C732 295 732 310 732 310 L732 310 Z " />
<glyph glyph-name="H" unicode="H" horiz-adv-x="786" d="M747 660 C747 660 672 660 672 660 C672 660 608 660 608 660 C608 660 544 660 544 660 C544 660 469 660 469 660 C469 660 469 645 469 645 C469 645 480 645 480 645 C508 645 544 608 544 580 C544 580 544 363 544 363 C544 363 243 363 243 363 C243 363 243 580 243 580 C243 608 279 645 307 645 C307 645 318 645 318 645 C318 645 318 660 318 660 C318 660 243 660 243 660 C243 660 179 660 179 660 C179 660 115 660 115 660 C115 660 40 660 40 660 C40 660 40 645 40 645 C40 645 51 645 51 645 C79 645 115 608 115 580 C115 580 115 80 115 80 C115 52 79 15 51 15 C51 15 40 15 40 15 C40 15 40 0 40 0 C40 0 115 0 115 0 C115 0 179 0 179 0 C179 0 243 0 243 0 C243 0 318 0 318 0 C318 0 318 15 318 15 C318 15 307 15 307 15 C279 15 243 52 243 80 C243 80 243 331 243 331 C243 331 544 331 544 331 C544 331 544 80 544 80 C544 52 508 15 480 15 C480 15 469 15 469 15 C469 15 469 0 469 0 C469 0 544 0 544 0 C544 0 608 0 608 0 C608 0 672 0 672 0 C672 0 747 0 747 0 C747 0 747 15 747 15 C747 15 736 15 736 15 C708 15 672 52 672 80 C672 80 672 580 672 580 C672 608 708 645 736 645 C736 645 747 645 747 645 C747 645 747 660 747 660 L747 660 Z " />
<glyph glyph-name="I" unicode="I" horiz-adv-x="357" d="M318 660 C318 660 243 660 243 660 C243 660 179 660 179 660 C179 660 115 660 115 660 C115 660 40 660 40 660 C40 660 40 645 40 645 C40 645 51 645 51 645 C79 645 115 608 115 580 C115 580 115 80 115 80 C115 52 79 15 51 15 C51 15 40 15 40 15 C40 15 40 0 40 0 C40 0 115 0 115 0 C115 0 179 0 179 0 C179 0 243 0 243 0 C243 0 318 0 318 0 C318 0 318 15 318 15 C318 15 307 15 307 15 C279 15 243 52 243 80 C243 80 243 580 243 580 C243 608 279 645 307 645 C307 645 318 645 318 645 C318 645 318 660 318 660 L318 660 Z " />
<glyph glyph-name="J" unicode="J" horiz-adv-x="444" d="M404 660 C404 660 329 660 329 660 C329 660 265 660 265 660 C265 660 201 660 201 660 C201 660 126 660 126 660 C126 660 126 645 126 645 C126 645 138 645 138 645 C165 645 201 608 201 580 C201 580 201 200 201 200 C201 106 181 16 159 16 C143 16 113 43 108 64 C103 86 70 115 51 115 C24 115 -6 86 0 64 C8 32 81 -10 128 -10 C231 -10 330 145 330 308 C330 308 329 584 329 584 C332 611 367 645 393 645 C393 645 404 645 404 645 C404 645 404 660 404 660 L404 660 Z " />
<glyph glyph-name="K" unicode="K" horiz-adv-x="686" d="M614 660 C614 660 553 660 553 660 C553 660 530 660 530 660 C530 660 507 660 507 660 C507 660 432 660 432 660 C431 660 431 656 432 653 C431 649 431 645 432 645 C432 645 441 645 441 645 C463 645 460 609 437 582 C437 582 236 355 236 355 C236 355 236 580 236 580 C236 608 272 645 300 645 C300 645 311 645 311 645 C311 645 311 660 311 660 C311 660 236 660 236 660 C236 660 172 660 172 660 C172 660 108 660 108 660 C108 660 33 660 33 660 C33 660 33 645 33 645 C33 645 44 645 44 645 C72 645 108 608 108 580 C108 580 108 80 108 80 C108 52 72 15 44 15 C44 15 33 15 33 15 C33 15 33 0 33 0 C33 0 108 0 108 0 C108 0 172 0 172 0 C172 0 236 0 236 0 C236 0 311 0 311 0 C311 0 311 15 311 15 C311 15 300 15 300 15 C272 15 236 52 236 80 C236 80 236 355 236 355 C236 355 394 115 394 115 C435 53 551 -5 633 -5 C633 -5 676 -5 676 -5 C676 -5 676 20 676 20 C676 20 671 20 671 20 C637 20 544 113 479 210 C479 210 339 422 339 422 C339 422 485 584 485 584 C512 611 577 645 603 645 C603 645 614 645 614 645 C614 645 614 660 614 660 L614 660 Z " />
<glyph glyph-name="L" unicode="L" horiz-adv-x="652" d="M555 182 C555 182 530 122 530 122 C514 83 441 32 403 32 C403 32 243 32 243 32 C243 32 243 580 243 580 C243 608 279 645 307 645 C307 645 318 645 318 645 C318 645 318 660 318 660 C318 660 243 660 243 660 C243 660 179 660 179 660 C179 660 115 660 115 660 C115 660 40 660 40 660 C40 660 40 645 40 645 C40 645 51 645 51 645 C79 645 115 608 115 580 C115 580 115 80 115 80 C115 52 79 15 51 15 C51 15 40 15 40 15 C40 15 40 0 40 0 C40 0 115 0 115 0 C115 0 179 0 179 0 C179 0 243 0 243 0 C243 0 462 0 462 0 C462 0 538 0 538 0 C538 0 542 0 542 0 C543 3 545 13 545 16 C551 50 567 140 573 174 C573 177 555 182 555 182 L555 182 Z " />
<glyph glyph-name="M" unicode="M" horiz-adv-x="896" d="M856 660 C856 660 782 660 782 660 C782 660 724 660 724 660 C724 660 711 660 711 660 C711 660 667 660 667 660 C667 660 462 146 462 146 C462 146 231 660 231 660 C231 660 171 660 171 660 C171 660 152 660 152 660 C152 660 132 660 132 660 C132 660 57 660 57 660 C58 660 58 656 57 653 C58 649 58 645 57 645 C57 645 69 645 69 645 C96 645 129 609 129 581 C129 581 110 80 110 80 C110 80 110 80 110 80 C109 52 71 15 44 15 C44 15 33 15 33 15 C33 15 33 0 33 0 C33 0 107 0 107 0 C107 0 127 0 127 0 C127 0 146 0 146 0 C146 0 256 0 256 0 C256 0 256 15 256 15 C256 15 226 15 226 15 C194 15 154 55 149 88 C149 88 165 502 165 502 C165 502 376 51 376 51 C376 51 402 -5 402 -5 C402 -5 460 141 460 141 C460 141 462 146 462 146 C462 146 462 146 462 146 C462 146 460 141 460 141 C460 141 402 -5 402 -5 C402 -5 434 -5 434 -5 C434 -5 670 561 670 561 C670 561 682 79 682 79 C681 51 647 15 620 15 C620 15 609 15 609 15 C609 15 609 0 609 0 C609 0 684 0 684 0 C684 0 748 0 748 0 C748 0 812 0 812 0 C812 0 886 0 886 0 C886 0 886 15 886 15 C886 15 875 15 875 15 C849 15 814 48 809 75 C809 75 785 586 785 586 C789 613 820 645 845 645 C845 645 856 645 856 645 C856 645 856 660 856 660 L856 660 Z " />
<glyph glyph-name="N" unicode="N" horiz-adv-x="723" d="M683 660 C683 660 608 660 608 660 C608 660 589 660 589 660 C589 660 570 660 570 660 C570 660 495 660 495 660 C495 660 495 645 495 645 C495 645 506 645 506 645 C534 645 570 608 570 580 C570 580 570 184 570 184 C570 184 227 660 227 660 C227 660 151 660 151 660 C151 660 132 660 132 660 C132 660 112 660 112 660 C112 660 37 660 37 660 C37 660 37 645 37 645 C37 645 49 645 49 645 C76 645 112 608 112 580 C112 580 112 80 112 80 C112 52 76 15 49 15 C49 15 37 15 37 15 C37 15 37 0 37 0 C37 0 112 0 112 0 C112 0 132 0 132 0 C132 0 151 0 151 0 C151 0 226 0 226 0 C226 0 226 15 226 15 C226 15 215 15 215 15 C187 15 151 52 151 80 C151 80 151 547 151 547 C151 547 512 51 512 51 C512 51 563 -20 563 -20 C563 -20 608 -20 608 -20 C608 -20 608 98 608 98 C608 98 608 580 608 580 C608 608 645 645 672 645 C672 645 683 645 683 645 C683 645 683 660 683 660 L683 660 Z " />
<glyph glyph-name="O" unicode="O" horiz-adv-x="759" d="M375 27 C284 27 182 213 182 330 C182 447 284 633 375 633 C466 633 568 447 568 330 C568 213 466 27 375 27 L375 27 Z M42 330 C42 201 219 -5 375 -5 C532 -5 709 201 709 330 C709 459 532 665 375 665 C219 665 42 459 42 330 L42 330 Z " />
<glyph glyph-name="P" unicode="P" horiz-adv-x="608" d="M33 645 C33 645 44 645 44 645 C72 645 108 608 108 580 C108 580 108 80 108 80 C108 52 72 15 44 15 C44 15 33 15 33 15 C33 15 33 0 33 0 C33 0 108 0 108 0 C108 0 172 0 172 0 C172 0 236 0 236 0 C236 0 311 0 311 0 C311 0 311 15 311 15 C311 15 300 15 300 15 C272 15 236 52 236 80 C236 80 236 293 236 293 C236 293 323 293 323 293 C437 293 589 399 589 478 C589 556 449 660 345 660 C345 660 236 660 236 660 C236 660 172 660 172 660 C172 660 108 660 108 660 C108 660 33 660 33 660 C33 660 33 645 33 645 L33 645 Z M236 325 C236 325 236 628 236 628 C236 628 345 628 345 628 C392 628 455 542 455 478 C455 412 380 325 323 325 C323 325 236 325 236 325 L236 325 Z " />
<glyph glyph-name="Q" unicode="Q" horiz-adv-x="759" d="M803 -28 C803 -28 790 -20 790 -20 C781 -36 692 -57 635 -57 C553 -57 448 -29 400 -3 C550 16 709 208 709 330 C709 459 532 665 375 665 C219 665 42 459 42 330 C42 208 200 17 349 -3 C420 -66 557 -140 622 -140 C670 -140 774 -76 803 -28 L803 -28 Z M375 27 C284 27 182 213 182 330 C182 447 284 633 375 633 C466 633 568 447 568 330 C568 213 466 27 375 27 L375 27 Z " />
<glyph glyph-name="R" unicode="R" horiz-adv-x="713" d="M33 645 C33 645 44 645 44 645 C72 645 108 608 108 580 C108 580 108 80 108 80 C108 52 72 15 44 15 C44 15 33 15 33 15 C33 15 33 0 33 0 C33 0 108 0 108 0 C108 0 172 0 172 0 C172 0 236 0 236 0 C236 0 311 0 311 0 C311 0 311 15 311 15 C311 15 300 15 300 15 C272 15 236 52 236 80 C236 80 236 312 236 312 C236 312 303 312 303 312 C303 312 449 106 449 106 C500 33 570 0 670 0 C670 0 713 0 713 0 C713 0 713 25 713 25 C713 25 708 25 708 25 C679 25 652 43 624 81 C624 81 440 336 440 336 C526 371 602 437 602 490 C602 562 459 660 352 660 C352 660 236 660 236 660 C236 660 172 660 172 660 C172 660 108 660 108 660 C108 660 33 660 33 660 C33 660 33 645 33 645 L33 645 Z M329 344 C329 344 280 344 280 344 C280 344 236 344 236 344 C236 344 236 628 236 628 C236 628 352 628 352 628 C402 628 468 549 468 490 C468 427 388 344 329 344 L329 344 Z " />
<glyph glyph-name="S" unicode="S" horiz-adv-x="514" d="M39 204 C39 204 39 40 39 40 C73 21 191 -5 245 -5 C341 -5 469 106 469 189 C469 247 373 356 301 380 C226 404 127 479 127 511 C127 564 200 634 255 634 C262 634 274 631 289 627 C289 627 289 627 289 627 C318 618 372 569 382 540 C388 522 406 474 412 456 C412 456 425 456 425 456 C425 456 425 620 425 620 C425 620 414 600 414 600 C414 600 414 600 414 600 C414 600 425 620 425 620 C392 639 297 665 260 665 C166 665 39 548 39 460 C39 406 132 303 201 280 C277 256 378 173 378 137 C378 90 302 27 245 27 C238 27 230 28 220 29 C169 42 84 117 65 168 C63 176 55 196 52 204 C52 204 39 204 39 204 L39 204 Z " />
<glyph glyph-name="T" unicode="T" horiz-adv-x="653" d="M449 15 C449 15 438 15 438 15 C410 15 374 52 374 80 C374 80 374 628 374 628 C374 628 474 628 474 628 C508 628 572 582 586 548 C586 548 615 478 615 478 C615 478 627 478 627 478 C624 514 615 609 612 644 C612 647 611 657 611 660 C611 660 580 660 580 660 C580 660 531 660 531 660 C531 660 89 660 89 660 C89 660 40 660 40 660 C40 660 9 660 9 660 C9 657 8 647 8 644 C5 609 -4 514 -7 478 C-7 478 5 478 5 478 C5 478 34 548 34 548 C48 582 112 628 146 628 C146 628 246 628 246 628 C246 628 246 80 246 80 C246 52 210 15 182 15 C182 15 171 15 171 15 C171 15 171 0 171 0 C171 0 246 0 246 0 C246 0 310 0 310 0 C310 0 374 0 374 0 C374 0 449 0 449 0 C449 0 449 15 449 15 L449 15 Z " />
<glyph glyph-name="U" unicode="U" horiz-adv-x="735" d="M502 645 C502 645 517 645 517 645 C549 645 592 602 592 570 C592 570 592 202 592 202 C592 133 501 40 405 40 C330 40 259 128 259 194 C259 194 259 580 259 580 C259 608 295 645 323 645 C323 645 334 645 334 645 C334 645 334 660 334 660 C334 660 259 660 259 660 C259 660 195 660 195 660 C195 660 131 660 131 660 C131 660 56 660 56 660 C56 660 56 645 56 645 C56 645 67 645 67 645 C95 645 131 608 131 580 C131 580 131 219 131 219 C131 123 255 -5 386 -5 C511 -5 630 106 630 189 C630 189 630 570 630 570 C631 602 672 645 703 645 C703 645 715 645 715 645 C716 645 716 649 715 653 C716 656 716 660 715 660 C715 660 630 660 630 660 C630 660 611 660 611 660 C611 660 592 660 592 660 C592 660 502 660 502 660 C502 660 502 645 502 645 L502 645 Z " />
<glyph glyph-name="V" unicode="V" horiz-adv-x="751" d="M751 660 C751 660 681 660 681 660 C681 660 662 660 662 660 C662 660 643 660 643 660 C643 660 523 660 523 660 C523 660 523 645 523 645 C523 645 542 645 542 645 C583 645 618 591 604 550 C604 550 604 550 604 550 C604 550 464 152 464 152 C464 152 277 580 277 580 C277 580 277 580 277 580 C265 608 286 645 314 645 C314 645 342 645 342 645 C343 645 343 649 342 653 C343 656 343 660 342 660 C342 660 242 660 242 660 C242 660 172 660 172 660 C172 660 102 660 102 660 C102 660 49 660 49 660 C49 660 49 645 49 645 C49 645 58 645 58 645 C78 645 123 610 137 582 C137 582 405 -15 405 -15 C405 -15 437 -15 437 -15 C437 -15 653 582 653 582 C665 610 713 645 739 645 C739 645 751 645 751 645 C751 645 751 660 751 660 L751 660 Z " />
<glyph glyph-name="W" unicode="W" horiz-adv-x="1079" d="M1042 660 C1042 660 971 660 971 660 C971 660 952 660 952 660 C952 660 933 660 933 660 C933 660 828 660 828 660 C828 660 828 645 828 645 C828 645 864 645 864 645 C891 645 917 608 909 580 C909 580 909 580 909 580 C909 580 732 -15 732 -15 C732 -15 789 177 789 177 C789 177 594 670 594 670 C594 670 562 670 562 670 C562 670 401 164 401 164 C401 164 256 580 256 580 C256 580 256 580 256 580 C246 608 270 645 298 645 C298 645 318 645 318 645 C318 645 318 660 318 660 C318 660 228 660 228 660 C228 660 158 660 158 660 C158 660 87 660 87 660 C87 660 33 660 33 660 C33 660 33 645 33 645 C33 645 42 645 42 645 C62 645 101 613 115 586 C115 586 344 -15 344 -15 C344 -15 376 -15 376 -15 C376 -15 529 466 529 466 C529 466 732 -15 732 -15 C732 -15 764 -15 764 -15 C764 -15 946 580 946 580 C946 580 947 580 947 580 C955 608 1003 645 1031 645 C1031 645 1042 645 1042 645 C1042 645 1042 660 1042 660 L1042 660 Z " />
<glyph glyph-name="X" unicode="X" horiz-adv-x="736" d="M666 660 C666 660 601 660 601 660 C601 660 577 660 577 660 C577 660 552 660 552 660 C552 660 442 660 442 660 C441 660 441 656 442 653 C441 649 441 645 442 645 C442 645 477 645 477 645 C505 645 518 608 500 580 C500 580 501 580 501 580 C501 580 388 404 388 404 C388 404 275 580 275 580 C275 580 275 580 275 580 C257 608 270 645 298 645 C298 645 323 645 323 645 C323 645 323 660 323 660 C323 660 223 660 223 660 C223 660 150 660 150 660 C150 660 78 660 78 660 C78 660 32 660 32 660 C32 660 32 645 32 645 C32 645 41 645 41 645 C60 645 111 608 129 580 C129 580 130 580 130 580 C130 580 303 311 303 311 C303 311 145 76 145 76 C124 49 66 15 40 15 C40 15 29 15 29 15 C29 15 29 0 29 0 C29 0 94 0 94 0 C94 0 117 0 117 0 C117 0 141 0 141 0 C141 0 251 0 251 0 C251 0 251 15 251 15 C251 15 231 15 231 15 C198 15 181 59 200 92 C200 92 322 281 322 281 C322 281 455 74 455 74 C468 47 455 15 429 15 C429 15 403 15 403 15 C403 15 403 0 403 0 C403 0 503 0 503 0 C503 0 576 0 576 0 C576 0 649 0 649 0 C649 0 694 0 694 0 C694 0 694 15 694 15 C694 15 686 15 686 15 C667 15 622 47 601 74 C601 74 407 375 407 375 C407 375 407 375 407 375 C407 375 547 580 547 580 C547 580 547 580 547 580 C566 608 628 645 655 645 C655 645 666 645 666 645 C666 645 666 660 666 660 L666 660 Z " />
<glyph glyph-name="Y" unicode="Y" horiz-adv-x="682" d="M204 0 C204 0 279 0 279 0 C279 0 343 0 343 0 C343 0 407 0 407 0 C407 0 482 0 482 0 C481 0 481 4 482 8 C481 11 481 15 482 15 C482 15 470 15 470 15 C444 15 408 50 407 78 C407 78 407 80 407 80 C407 80 407 330 407 330 C407 330 407 330 407 330 C407 330 579 586 579 586 C600 613 651 645 673 645 C673 645 683 645 683 645 C682 645 682 649 683 653 C682 656 682 660 683 660 C683 660 628 660 628 660 C628 660 608 660 608 660 C608 660 589 660 589 660 C589 660 479 660 479 660 C479 660 479 645 479 645 C479 645 494 645 494 645 C529 645 546 602 528 566 C528 566 390 356 390 356 C390 356 257 581 257 581 C243 609 257 645 285 645 C285 645 301 645 301 645 C301 645 301 660 301 660 C301 660 211 660 211 660 C211 660 134 660 134 660 C134 660 58 660 58 660 C58 660 12 660 12 660 C11 660 11 656 12 653 C11 649 11 645 12 645 C12 645 20 645 20 645 C40 645 89 608 105 580 C105 580 106 580 106 580 C106 580 279 289 279 289 C279 289 279 80 279 80 C279 52 242 15 215 15 C215 15 204 15 204 15 C204 15 204 0 204 0 L204 0 Z " />
<glyph glyph-name="Z" unicode="Z" horiz-adv-x="625" d="M544 183 C544 183 519 123 519 123 C503 85 430 33 391 33 C391 33 226 33 226 33 C226 33 563 660 563 660 C563 660 490 660 490 660 C490 660 417 660 417 660 C417 660 194 660 194 660 C194 660 145 660 145 660 C145 660 114 660 114 660 C114 657 111 647 110 644 C102 615 82 537 74 508 C74 508 86 508 86 508 C86 508 112 548 112 548 C135 582 212 628 246 628 C246 628 400 628 400 628 C400 628 65 0 65 0 C65 0 137 0 137 0 C137 0 208 0 208 0 C208 0 451 0 451 0 C451 0 526 0 526 0 C526 0 531 0 531 0 C531 3 533 13 533 17 C539 51 555 142 561 176 C556 179 544 183 544 183 L544 183 Z " />
<glyph glyph-name="bracketleft" unicode="&#x5b;" horiz-adv-x="269" d="M154 634 C154 634 259 634 259 634 C259 634 259 660 259 660 C259 660 154 660 154 660 C154 660 65 660 65 660 C65 660 65 -120 65 -120 C65 -120 154 -120 154 -120 C154 -120 259 -120 259 -120 C259 -120 259 -94 259 -94 C259 -94 154 -94 154 -94 C154 -94 154 634 154 634 L154 634 Z " />
<glyph glyph-name="backslash" unicode="&#x5c;" horiz-adv-x="270" d="M230 -145 C230 -145 270 -145 270 -145 C270 -145 -20 710 -20 710 C-20 710 -60 710 -60 710 C-60 710 230 -145 230 -145 L230 -145 Z " />
<glyph glyph-name="bracketright" unicode="&#x5d;" horiz-adv-x="268" d="M109 634 C109 634 109 -94 109 -94 C109 -94 4 -94 4 -94 C4 -94 4 -120 4 -120 C4 -120 109 -120 109 -120 C109 -120 199 -120 199 -120 C199 -120 199 660 199 660 C199 660 109 660 109 660 C109 660 4 660 4 660 C4 660 4 634 4 634 C4 634 109 634 109 634 L109 634 Z " />
<glyph glyph-name="underscore" unicode="&#x5f;" horiz-adv-x="455" d="M5 -50 C5 -50 5 -114 5 -114 C5 -114 450 -114 450 -114 C450 -114 450 -50 450 -50 C450 -50 5 -50 5 -50 L5 -50 Z " />
<glyph glyph-name="a" unicode="a" horiz-adv-x="511" d="M490 64 C484 56 463 45 445 45 C423 45 405 84 405 112 C405 112 405 352 405 352 C405 417 323 505 263 505 C181 505 59 438 49 388 C49 388 164 388 164 388 C171 424 213 473 237 473 C257 473 284 419 284 378 C284 378 284 262 284 262 C284 262 217 252 217 252 C140 240 36 156 36 105 C36 58 104 -5 154 -5 C193 -5 252 19 295 49 C310 17 336 -10 366 -10 C421 -10 486 23 503 48 C503 48 490 64 490 64 L490 64 Z M283 232 C283 232 283 100 283 100 C283 95 283 90 284 84 C260 77 233 72 212 72 C186 72 150 110 150 138 C150 164 188 209 217 216 C217 216 283 232 283 232 L283 232 Z " />
<glyph glyph-name="b" unicode="b" horiz-adv-x="569" d="M-11 660 C-11 660 1 658 1 658 C39 650 64 618 64 579 C64 579 64 0 64 0 C64 0 77 0 77 0 C85 14 119 32 137 32 C169 32 235 -5 278 -5 C382 -5 522 141 522 249 C522 359 414 505 334 505 C283 505 195 478 179 458 C179 458 179 610 179 610 C179 610 179 690 179 690 C179 690 179 720 179 720 C179 720 156 720 156 720 C156 720 -11 669 -11 669 C-11 669 -11 660 -11 660 L-11 660 Z M179 439 C184 445 222 454 245 454 C310 454 398 312 398 207 C398 130 329 27 278 27 C235 27 179 113 179 177 C179 177 179 439 179 439 L179 439 Z " />
<glyph glyph-name="c" unicode="c" horiz-adv-x="472" d="M438 79 C438 79 428 91 428 91 C414 80 355 65 324 65 C245 65 139 184 139 273 C139 359 208 473 260 473 C287 473 328 434 330 404 C332 380 365 348 388 348 C410 348 439 377 439 399 C435 444 340 505 273 505 C163 505 17 347 17 229 C17 129 138 -5 228 -5 C275 -5 396 43 438 79 L438 79 Z " />
<glyph glyph-name="d" unicode="d" horiz-adv-x="594" d="M560 60 C560 60 549 62 549 62 C511 71 485 102 485 141 C485 141 485 610 485 610 C485 610 485 690 485 690 C485 690 485 720 485 720 C485 720 462 720 462 720 C462 720 295 669 295 669 C295 669 295 660 295 660 C295 660 306 658 306 658 C344 650 370 618 370 579 C370 579 370 458 370 458 C339 483 299 505 272 505 C172 505 38 341 38 219 C38 123 146 -5 227 -5 C256 -5 329 31 370 62 C370 62 370 30 370 30 C370 30 370 0 370 0 C370 0 393 0 393 0 C393 0 560 51 560 51 C560 51 560 60 560 60 L560 60 Z M370 110 C370 110 370 81 370 81 C353 74 314 65 290 65 C234 65 158 178 158 263 C158 353 220 474 267 474 C296 474 344 444 370 415 C370 415 370 110 370 110 L370 110 Z " />
<glyph glyph-name="e" unicode="e" horiz-adv-x="502" d="M452 79 C452 79 442 91 442 91 C428 80 367 65 335 65 C255 65 147 184 147 273 C147 282 148 291 149 300 C149 300 453 300 453 300 C453 387 343 505 260 505 C160 505 25 347 25 229 C25 129 147 -5 239 -5 C288 -5 410 43 452 79 L452 79 Z M153 322 C169 397 216 473 254 473 C293 473 346 429 346 396 C346 396 346 395 346 395 C345 373 316 341 293 336 C293 336 153 322 153 322 L153 322 Z " />
<glyph glyph-name="f" unicode="f" horiz-adv-x="466" d="M303 15 C303 15 292 15 292 15 C265 15 228 52 228 80 C228 80 228 455 228 455 C228 455 363 455 363 455 C363 455 363 500 363 500 C363 500 228 500 228 500 C228 500 228 533 228 533 C228 602 284 694 326 694 C346 694 375 666 377 645 C379 623 412 594 435 594 C457 594 486 623 486 645 C483 677 409 720 358 720 C263 720 127 627 120 558 C120 558 113 500 113 500 C113 500 45 500 45 500 C45 500 45 455 45 455 C45 455 113 455 113 455 C113 455 113 80 113 80 C113 52 77 15 50 15 C50 15 38 15 38 15 C38 15 38 0 38 0 C38 0 113 0 113 0 C113 0 171 0 171 0 C171 0 228 0 228 0 C228 0 303 0 303 0 C303 0 303 15 303 15 L303 15 Z " />
<glyph glyph-name="g" unicode="g" horiz-adv-x="478" d="M479 500 C479 500 333 460 333 460 C301 487 262 505 228 505 C154 505 54 414 54 346 C54 297 106 235 163 205 C109 199 41 136 41 89 C41 53 89 10 141 -9 C82 -29 16 -92 16 -134 C16 -181 106 -243 173 -243 C295 -243 459 -120 459 -28 C459 24 355 94 278 94 C278 94 189 90 189 90 C159 89 118 114 118 134 C118 157 150 187 173 187 C173 187 228 187 228 187 C303 187 403 278 403 346 C403 370 391 396 372 421 C372 421 479 436 479 436 C479 436 479 500 479 500 L479 500 Z M162 346 C162 403 200 479 228 479 C257 479 295 403 295 346 C295 289 257 212 228 212 C200 212 162 289 162 346 L162 346 Z M168 -16 C177 -18 186 -18 195 -18 C195 -18 247 -15 247 -15 C302 -15 376 -56 376 -86 C376 -140 267 -211 186 -211 C146 -211 93 -159 93 -120 C93 -83 133 -28 168 -16 C168 -16 168 -16 168 -16 L168 -16 Z " />
<glyph glyph-name="h" unicode="h" horiz-adv-x="636" d="M596 15 C596 15 585 15 585 15 C558 15 521 52 521 80 C521 80 521 338 521 338 C521 409 467 505 410 505 C365 505 274 466 234 431 C234 431 234 610 234 610 C234 610 234 690 234 690 C234 690 234 720 234 720 C234 720 211 720 211 720 C211 720 44 669 44 669 C44 669 44 660 44 660 C44 660 56 658 56 658 C94 650 119 618 119 579 C119 579 119 80 119 80 C119 52 83 15 56 15 C56 15 44 15 44 15 C44 15 44 0 44 0 C44 0 119 0 119 0 C119 0 177 0 177 0 C177 0 234 0 234 0 C234 0 309 0 309 0 C310 0 310 4 309 8 C310 11 310 15 309 15 C309 15 298 15 298 15 C271 15 235 52 234 80 C234 80 234 414 234 414 C254 421 294 428 322 428 C365 428 406 370 406 326 C406 326 406 80 406 80 C406 52 370 15 342 15 C342 15 331 15 331 15 C331 15 331 0 331 0 C331 0 406 0 406 0 C406 0 464 0 464 0 C464 0 521 0 521 0 C521 0 596 0 596 0 C596 0 596 15 596 15 L596 15 Z " />
<glyph glyph-name="i" unicode="i" horiz-adv-x="355" d="M45 440 C45 440 56 438 56 438 C94 430 120 398 120 359 C120 359 120 80 120 80 C120 52 84 15 56 15 C56 15 45 15 45 15 C45 15 45 0 45 0 C45 0 120 0 120 0 C120 0 178 0 178 0 C178 0 235 0 235 0 C235 0 310 0 310 0 C310 0 310 15 310 15 C310 15 299 15 299 15 C271 15 235 52 235 80 C235 80 235 390 235 390 C235 390 235 470 235 470 C235 470 235 500 235 500 C235 500 212 500 212 500 C212 500 45 449 45 449 C45 449 45 440 45 440 L45 440 Z M171 570 C204 570 248 614 248 647 C248 679 204 723 171 723 C138 723 94 679 94 647 C94 614 138 570 171 570 L171 570 Z " />
<glyph glyph-name="j" unicode="j" horiz-adv-x="313" d="M45 440 C45 440 56 438 56 438 C92 430 117 401 120 365 C120 365 119 -1 119 -1 C119 -92 68 -186 9 -223 C9 -223 20 -239 20 -239 C136 -167 236 -50 236 31 C236 31 235 470 235 470 C235 470 235 500 235 500 C235 500 212 500 212 500 C212 500 45 449 45 449 C45 449 45 440 45 440 L45 440 Z M171 570 C204 570 248 614 248 647 C248 679 204 723 171 723 C138 723 94 679 94 647 C94 614 138 570 171 570 L171 570 Z " />
<glyph glyph-name="k" unicode="k" horiz-adv-x="608" d="M630 15 C630 15 619 15 619 15 C593 15 536 47 513 74 C513 74 323 337 323 337 C323 337 413 420 413 420 C413 420 414 421 414 421 C445 449 520 485 547 485 C547 485 558 485 558 485 C558 485 558 500 558 500 C558 500 500 500 500 500 C500 500 474 500 474 500 C474 500 448 500 448 500 C448 500 373 500 373 500 C374 500 374 496 373 493 C374 489 374 485 373 485 C373 485 383 485 383 485 C403 485 398 453 376 426 C376 426 227 275 227 275 C227 275 227 610 227 610 C227 610 227 690 227 690 C227 690 227 720 227 720 C227 720 204 720 204 720 C204 720 37 669 37 669 C37 669 37 660 37 660 C37 660 49 658 49 658 C87 650 112 618 112 579 C112 579 112 80 112 80 C112 52 76 15 49 15 C49 15 37 15 37 15 C37 15 37 0 37 0 C37 0 112 0 112 0 C112 0 170 0 170 0 C170 0 227 0 227 0 C227 0 302 0 302 0 C302 0 302 15 302 15 C302 15 291 15 291 15 C264 15 227 52 227 80 C227 80 227 275 227 275 C227 275 367 79 367 79 C386 51 381 15 357 15 C357 15 348 15 348 15 C348 15 348 0 348 0 C348 0 423 0 423 0 C423 0 494 0 494 0 C494 0 566 0 566 0 C566 0 630 0 630 0 C630 0 630 15 630 15 L630 15 Z " />
<glyph glyph-name="l" unicode="l" horiz-adv-x="355" d="M45 660 C45 660 56 658 56 658 C94 650 120 618 120 579 C120 579 120 80 120 80 C120 52 84 15 56 15 C56 15 45 15 45 15 C45 15 45 0 45 0 C45 0 120 0 120 0 C120 0 178 0 178 0 C178 0 235 0 235 0 C235 0 310 0 310 0 C310 0 310 15 310 15 C310 15 299 15 299 15 C271 15 235 52 235 80 C235 80 235 610 235 610 C235 610 235 690 235 690 C235 690 235 720 235 720 C235 720 212 720 212 720 C212 720 45 669 45 669 C45 669 45 660 45 660 L45 660 Z " />
<glyph glyph-name="m" unicode="m" horiz-adv-x="942" d="M903 15 C903 15 892 15 892 15 C864 15 828 52 828 80 C828 80 828 338 828 338 C828 409 757 505 708 505 C648 505 544 459 508 421 C484 467 446 505 417 505 C364 505 273 466 234 431 C234 431 234 500 234 500 C234 500 211 500 211 500 C211 500 44 449 44 449 C44 449 44 440 44 440 C44 440 56 438 56 438 C94 430 119 398 119 359 C119 359 119 80 119 80 C119 52 83 15 56 15 C56 15 44 15 44 15 C44 15 44 0 44 0 C44 0 119 0 119 0 C119 0 177 0 177 0 C177 0 234 0 234 0 C234 0 309 0 309 0 C310 0 310 4 309 8 C310 11 310 15 309 15 C309 15 298 15 298 15 C271 15 235 52 234 80 C234 80 234 390 234 390 C234 390 234 415 234 415 C255 425 296 435 327 435 C363 435 416 373 416 326 C416 326 416 80 416 80 C416 52 380 15 352 15 C352 15 341 15 341 15 C341 15 341 0 341 0 C341 0 416 0 416 0 C416 0 474 0 474 0 C474 0 531 0 531 0 C531 0 606 0 606 0 C606 0 606 15 606 15 C606 15 595 15 595 15 C568 15 531 52 531 80 C531 80 531 338 531 338 C531 359 525 382 516 404 C534 415 584 428 619 428 C657 428 713 370 713 326 C713 326 713 80 713 80 C713 52 676 15 649 15 C649 15 638 15 638 15 C638 15 638 0 638 0 C638 0 713 0 713 0 C713 0 770 0 770 0 C770 0 828 0 828 0 C828 0 903 0 903 0 C903 0 903 15 903 15 L903 15 Z " />
<glyph glyph-name="n" unicode="n" horiz-adv-x="619" d="M596 15 C596 15 585 15 585 15 C558 15 521 52 521 80 C521 80 521 338 521 338 C521 409 467 505 410 505 C365 505 274 466 234 431 C234 431 234 500 234 500 C234 500 211 500 211 500 C211 500 44 449 44 449 C44 449 44 440 44 440 C44 440 56 438 56 438 C94 430 119 398 119 359 C119 359 119 80 119 80 C119 52 83 15 56 15 C56 15 44 15 44 15 C44 15 44 0 44 0 C44 0 119 0 119 0 C119 0 177 0 177 0 C177 0 234 0 234 0 C234 0 309 0 309 0 C310 0 310 4 309 8 C310 11 310 15 309 15 C309 15 298 15 298 15 C271 15 235 52 234 80 C234 80 234 390 234 390 C234 390 234 414 234 414 C254 421 294 428 322 428 C365 428 406 370 406 326 C406 326 406 80 406 80 C406 52 370 15 342 15 C342 15 331 15 331 15 C331 15 331 0 331 0 C331 0 406 0 406 0 C406 0 464 0 464 0 C464 0 521 0 521 0 C521 0 596 0 596 0 C596 0 596 15 596 15 L596 15 Z " />
<glyph glyph-name="o" unicode="o" horiz-adv-x="573" d="M278 21 C225 21 153 152 153 250 C153 348 225 479 278 479 C332 479 404 348 404 250 C404 152 332 21 278 21 L278 21 Z M25 250 C25 141 170 -5 278 -5 C387 -5 532 141 532 250 C532 359 387 505 278 505 C170 505 25 359 25 250 L25 250 Z " />
<glyph glyph-name="p" unicode="p" horiz-adv-x="608" d="M19 440 C19 440 31 438 31 438 C69 430 94 398 94 359 C94 359 94 -150 94 -150 C94 -178 58 -215 31 -215 C31 -215 19 -215 19 -215 C19 -215 19 -230 19 -230 C19 -230 94 -230 94 -230 C94 -230 152 -230 152 -230 C152 -230 209 -230 209 -230 C209 -230 284 -230 284 -230 C285 -230 285 -226 284 -222 C285 -219 285 -215 284 -215 C284 -215 273 -215 273 -215 C246 -215 210 -178 209 -150 C209 -150 209 27 209 27 C242 8 279 -5 311 -5 C422 -5 570 151 570 268 C570 369 463 505 383 505 C323 505 231 464 203 428 C203 428 193 500 193 500 C193 500 170 500 170 500 C170 500 19 449 19 449 C19 449 19 440 19 440 L19 440 Z M207 407 C225 418 265 428 295 428 C362 428 451 290 451 187 C451 119 371 27 311 27 C272 27 213 89 209 135 C209 135 209 390 209 390 C209 390 207 407 207 407 L207 407 Z " />
<glyph glyph-name="q" unicode="q" horiz-adv-x="579" d="M535 -215 C535 -215 523 -215 523 -215 C496 -215 460 -178 460 -150 C460 -150 460 500 460 500 C460 500 447 500 447 500 C439 486 398 468 375 468 C345 468 286 505 246 505 C147 505 14 341 14 219 C14 123 114 -5 189 -5 C221 -5 301 34 345 70 C345 70 345 -150 345 -150 C345 -178 308 -215 281 -215 C281 -215 270 -215 270 -215 C270 -215 270 -230 270 -230 C270 -230 345 -230 345 -230 C345 -230 402 -230 402 -230 C402 -230 460 -230 460 -230 C460 -230 535 -230 535 -230 C535 -230 535 -215 535 -215 L535 -215 Z M345 90 C328 78 279 65 252 65 C202 65 134 178 134 263 C134 353 198 473 246 473 C288 473 345 387 345 323 C345 323 345 90 345 90 L345 90 Z " />
<glyph glyph-name="r" unicode="r" horiz-adv-x="437" d="M44 440 C44 440 56 438 56 438 C94 430 119 398 119 359 C119 359 119 80 119 80 C119 52 83 15 56 15 C56 15 44 15 44 15 C44 15 44 0 44 0 C44 0 119 0 119 0 C119 0 177 0 177 0 C177 0 234 0 234 0 C234 0 309 0 309 0 C310 0 310 4 309 8 C310 11 310 15 309 15 C309 15 298 15 298 15 C271 15 235 52 234 80 C234 80 234 390 234 390 C234 390 231 410 231 410 C240 416 255 420 265 420 C291 420 346 376 373 376 C396 376 428 408 428 431 C428 463 393 505 356 505 C321 505 254 464 228 429 C228 429 218 500 218 500 C218 500 195 500 195 500 C195 500 44 449 44 449 C44 449 44 440 44 440 L44 440 Z " />
<glyph glyph-name="s" unicode="s" horiz-adv-x="420" d="M45 150 C45 150 45 29 45 29 C70 15 150 -5 185 -5 C264 -5 371 86 371 153 C371 191 311 269 267 291 C212 317 138 380 138 402 C138 435 191 479 231 479 C233 479 239 476 249 472 C277 455 321 406 329 380 C331 375 335 361 337 355 C337 355 349 355 349 355 C349 355 349 466 349 466 C320 483 252 505 231 505 C154 505 50 423 50 362 C50 325 128 237 186 209 C224 191 275 135 275 111 C275 72 227 21 191 21 C189 21 186 21 183 22 C148 29 84 85 67 124 C64 130 58 144 56 150 C56 150 45 150 45 150 L45 150 Z " />
<glyph glyph-name="t" unicode="t" horiz-adv-x="370" d="M338 500 C338 500 203 500 203 500 C203 500 203 640 203 640 C203 640 184 640 184 640 C149 572 58 474 25 468 C25 468 25 455 25 455 C25 455 88 455 88 455 C88 455 88 125 88 125 C88 53 136 -5 196 -5 C242 -5 320 29 350 55 C350 55 342 65 342 65 C333 57 290 46 253 46 C225 46 203 72 203 105 C203 105 203 455 203 455 C203 455 338 455 338 455 C338 455 338 500 338 500 L338 500 Z " />
<glyph glyph-name="u" unicode="u" horiz-adv-x="601" d="M566 60 C566 60 555 62 555 62 C517 71 491 102 491 141 C491 141 491 500 491 500 C491 500 434 500 434 500 C434 500 376 500 376 500 C376 500 301 500 301 500 C301 500 301 485 301 485 C301 485 312 485 312 485 C340 485 376 448 376 420 C376 420 376 110 376 110 C376 110 376 92 376 92 C361 82 331 71 311 71 C261 71 204 125 204 166 C204 166 204 500 204 500 C204 500 147 500 147 500 C147 500 89 500 89 500 C89 500 14 500 14 500 C14 500 14 485 14 485 C14 485 26 485 26 485 C53 485 89 448 89 420 C89 420 89 420 89 420 C89 420 90 154 90 154 C90 86 159 -5 221 -5 C257 -5 332 37 376 74 C376 74 376 30 376 30 C376 30 376 0 376 0 C376 0 399 0 399 0 C399 0 566 51 566 51 C566 51 566 60 566 60 L566 60 Z " />
<glyph glyph-name="v" unicode="v" horiz-adv-x="616" d="M592 500 C592 500 523 500 523 500 C523 500 504 500 504 500 C504 500 485 500 485 500 C485 500 410 500 410 500 C410 500 410 485 410 485 C410 485 420 485 420 485 C445 485 464 448 453 420 C453 420 453 420 453 420 C453 420 341 137 341 137 C341 137 217 426 217 426 C209 453 227 485 249 485 C249 485 260 485 260 485 C260 485 260 500 260 500 C260 500 185 500 185 500 C185 500 119 500 119 500 C119 500 53 500 53 500 C53 500 -15 500 -15 500 C-15 500 -15 485 -15 485 C-15 485 -4 485 -4 485 C24 485 77 448 89 420 C89 420 89 420 89 420 C89 420 283 -10 283 -10 C283 -10 302 -10 302 -10 C302 -10 488 420 488 420 C488 420 489 420 489 420 C501 448 553 485 581 485 C581 485 592 485 592 485 C592 485 592 500 592 500 L592 500 Z " />
<glyph glyph-name="w" unicode="w" horiz-adv-x="960" d="M936 500 C936 500 883 500 883 500 C883 500 845 500 845 500 C845 500 740 500 740 500 C740 500 740 485 740 485 C740 485 758 485 758 485 C792 485 825 449 803 396 C803 396 804 396 804 396 C804 396 701 137 701 137 C701 137 583 411 583 411 C583 411 583 411 583 411 C563 455 591 485 622 485 C622 485 639 485 639 485 C639 485 639 500 639 500 C639 500 544 500 544 500 C544 500 413 500 413 500 C413 500 364 500 364 500 C364 500 364 485 364 485 C364 485 383 485 383 485 C398 485 433 454 454 408 C454 408 454 408 454 408 C454 408 468 377 468 377 C468 377 468 377 468 377 C468 377 373 135 373 135 C373 135 255 411 255 411 C255 411 255 411 255 411 C255 412 254 412 254 413 C236 456 258 485 286 485 C286 485 304 485 304 485 C304 485 304 500 304 500 C304 500 217 500 217 500 C217 500 85 500 85 500 C85 500 32 500 32 500 C32 500 32 485 32 485 C32 485 50 485 50 485 C67 485 100 459 122 419 C122 419 315 -10 315 -10 C315 -10 334 -10 334 -10 C334 -10 482 347 482 347 C482 347 643 -10 643 -10 C643 -10 662 -10 662 -10 C662 -10 849 422 849 422 C870 461 901 485 918 485 C918 485 936 485 936 485 C936 485 936 500 936 500 L936 500 Z " />
<glyph glyph-name="x" unicode="x" horiz-adv-x="612" d="M554 500 C554 500 491 500 491 500 C491 500 472 500 472 500 C472 500 453 500 453 500 C453 500 353 500 353 500 C352 500 352 496 353 493 C352 489 352 485 353 485 C353 485 376 485 376 485 C404 485 414 448 393 420 C393 420 393 420 393 420 C393 420 326 331 326 331 C326 331 271 420 271 420 C271 420 272 420 272 420 C255 448 269 485 297 485 C297 485 312 485 312 485 C313 485 313 489 312 493 C313 496 313 500 312 500 C312 500 222 500 222 500 C222 500 152 500 152 500 C152 500 82 500 82 500 C82 500 31 500 31 500 C31 500 31 485 31 485 C31 485 40 485 40 485 C62 485 114 448 131 420 C131 420 131 420 131 420 C131 420 248 231 248 231 C248 231 138 74 138 74 C115 47 59 15 33 15 C33 15 13 15 13 15 C13 15 13 0 13 0 C13 0 87 0 87 0 C87 0 106 0 106 0 C106 0 126 0 126 0 C126 0 246 0 246 0 C246 0 246 15 246 15 C246 15 201 15 201 15 C174 15 162 49 177 76 C177 76 263 206 263 206 C263 206 341 80 341 80 C341 80 340 80 340 80 C357 52 348 15 325 15 C325 15 315 15 315 15 C315 15 315 0 315 0 C315 0 390 0 390 0 C390 0 460 0 460 0 C460 0 530 0 530 0 C530 0 571 0 571 0 C571 0 571 15 571 15 C571 15 563 15 563 15 C545 15 498 52 481 80 C481 80 481 80 481 80 C481 80 339 311 339 311 C339 311 431 426 431 426 C457 453 517 485 543 485 C543 485 554 485 554 485 C554 485 554 500 554 500 L554 500 Z " />
<glyph glyph-name="y" unicode="y" horiz-adv-x="635" d="M616 500 C616 500 547 500 547 500 C547 500 528 500 528 500 C528 500 509 500 509 500 C509 500 434 500 434 500 C434 500 434 485 434 485 C434 485 444 485 444 485 C469 485 488 448 477 420 C477 420 477 420 477 420 C477 420 365 137 365 137 C365 137 241 426 241 426 C233 453 251 485 273 485 C273 485 284 485 284 485 C284 485 284 500 284 500 C284 500 209 500 209 500 C209 500 143 500 143 500 C143 500 77 500 77 500 C77 500 9 500 9 500 C9 500 9 485 9 485 C9 485 20 485 20 485 C48 485 101 448 113 420 C113 420 113 420 113 420 C113 420 300 6 300 6 C300 6 269 -62 269 -62 C249 -109 206 -154 181 -154 C160 -154 114 -129 93 -129 C68 -129 35 -157 35 -178 C35 -200 78 -230 110 -230 C172 -230 264 -153 300 -72 C300 -72 326 -10 326 -10 C326 -10 512 420 512 420 C512 420 513 420 513 420 C525 448 577 485 605 485 C605 485 616 485 616 485 C616 485 616 500 616 500 L616 500 Z " />
<glyph glyph-name="z" unicode="z" horiz-adv-x="491" d="M211 473 C211 473 211 473 211 473 C211 473 294 474 294 474 C294 474 45 0 45 0 C45 0 113 0 113 0 C113 0 181 0 181 0 C181 0 334 0 334 0 C334 0 408 0 408 0 C408 0 414 0 414 0 C414 3 415 10 416 13 C422 46 437 135 443 168 C443 171 425 176 425 176 C425 176 401 116 401 116 C385 77 312 26 273 26 C273 26 195 26 195 26 C195 26 441 500 441 500 C441 500 375 500 375 500 C375 500 308 500 308 500 C308 500 158 500 158 500 C158 500 109 500 109 500 C109 500 78 500 78 500 C77 497 75 489 75 487 C69 465 53 405 47 383 C47 383 59 383 59 383 C59 383 70 397 70 397 C96 429 177 473 211 473 C211 473 211 473 211 473 L211 473 Z " />
<glyph glyph-name="braceleft" unicode="&#x7b;" horiz-adv-x="254" d="M239 -120 C239 -120 239 -101 239 -101 C239 -101 225 -101 225 -101 C193 -101 149 -34 149 16 C149 16 149 139 149 139 C149 189 98 255 53 270 C98 285 149 351 149 402 C149 402 149 524 149 524 C149 574 193 641 225 641 C225 641 239 641 239 641 C239 641 239 660 239 660 C239 660 199 660 199 660 C140 660 60 582 60 524 C60 524 60 338 60 338 C60 313 32 280 10 280 C10 280 5 280 5 280 C5 280 5 260 5 260 C5 260 10 260 10 260 C32 260 60 227 60 203 C60 203 60 16 60 16 C60 -42 140 -120 199 -120 C199 -120 239 -120 239 -120 L239 -120 Z " />
<glyph glyph-name="bar" unicode="&#x7c;" horiz-adv-x="209" d="M60 770 C60 770 60 -234 60 -234 C60 -234 149 -234 149 -234 C149 -234 149 770 149 770 C149 770 60 770 60 770 L60 770 Z " />
<glyph glyph-name="braceright" unicode="&#x7d;" horiz-adv-x="254" d="M5 660 C5 660 5 641 5 641 C5 641 19 641 19 641 C52 641 95 574 95 524 C95 524 95 401 95 401 C95 351 146 285 191 270 C146 255 95 189 95 138 C95 138 95 16 95 16 C95 -34 52 -101 19 -101 C19 -101 5 -101 5 -101 C5 -101 5 -120 5 -120 C5 -120 45 -120 45 -120 C104 -120 184 -42 184 16 C184 16 184 202 184 202 C184 227 213 260 234 260 C234 260 239 260 239 260 C239 260 239 280 239 280 C239 280 234 280 234 280 C213 280 184 313 184 337 C184 337 184 524 184 524 C184 582 104 660 45 660 C45 660 5 660 5 660 L5 660 Z " />
<glyph glyph-name="[namenotfound]" unicode="&#xa0;" horiz-adv-x="220" d="" />
<glyph glyph-name="exclamdown" unicode="&#xa1;" horiz-adv-x="265" d="M123 505 C88 505 43 459 43 425 C43 391 88 345 123 345 C157 345 203 391 203 425 C203 459 157 505 123 505 L123 505 Z M60 -83 C55 -118 95 -165 130 -165 C167 -165 207 -118 201 -83 C201 -83 130 270 130 270 C130 270 115 270 115 270 C115 270 60 -83 60 -83 L60 -83 Z " />
<glyph glyph-name="cent" unicode="&#xa2;" horiz-adv-x="521" d="M272 575 C272 575 272 500 272 500 C168 474 50 335 50 229 C50 129 171 -5 261 -5 C264 -5 268 -5 272 -4 C272 -4 272 -75 272 -75 C272 -75 310 -75 310 -75 C310 -75 310 4 310 4 C366 19 440 52 471 79 C471 79 461 91 461 91 C447 80 388 65 357 65 C342 65 326 69 310 77 C310 77 310 469 310 469 C335 458 361 428 363 404 C365 380 398 348 421 348 C443 348 472 377 472 399 C468 443 377 503 310 505 C310 505 310 575 310 575 C310 575 272 575 272 575 L272 575 Z M272 101 C218 143 172 214 172 273 C172 348 224 444 272 468 C272 468 272 101 272 101 L272 101 Z " />
<glyph glyph-name="guillemotleft" unicode="&#xab;" horiz-adv-x="460" d="M297 250 C297 250 413 454 413 454 C413 454 400 466 400 466 C400 466 184 256 184 256 C184 256 184 244 184 244 C184 244 403 34 403 34 C403 34 416 46 416 46 C416 46 297 250 297 250 L297 250 Z M133 250 C133 250 248 454 248 454 C248 454 236 466 236 466 C236 466 20 256 20 256 C20 256 20 244 20 244 C20 244 239 34 239 34 C239 34 251 46 251 46 C251 46 133 250 133 250 L133 250 Z " />
<glyph glyph-name="guillemotright" unicode="&#xbb;" horiz-adv-x="460" d="M164 250 C164 250 48 454 48 454 C48 454 61 466 61 466 C61 466 276 256 276 256 C276 256 276 244 276 244 C276 244 58 34 58 34 C58 34 45 46 45 46 C45 46 164 250 164 250 L164 250 Z M328 250 C328 250 213 454 213 454 C213 454 225 466 225 466 C225 466 441 256 441 256 C441 256 441 244 441 244 C441 244 222 34 222 34 C222 34 209 46 209 46 C209 46 328 250 328 250 L328 250 Z " />
<glyph glyph-name="questiondown" unicode="&#xbf;" horiz-adv-x="372" d="M234 505 C199 505 153 459 154 425 C153 391 199 345 234 345 C268 345 313 391 314 425 C313 459 268 505 234 505 L234 505 Z M254 123 C261 123 268 133 267 140 C267 140 241 265 241 265 C241 265 226 265 226 265 C226 265 215 210 215 210 C215 210 180 210 180 210 C93 210 35 116 35 84 C35 -22 161 -165 254 -165 C289 -165 337 -123 337 -92 C337 -71 308 -42 287 -42 C269 -42 236 -75 218 -75 C151 -75 61 9 61 71 C61 84 125 123 219 123 C219 123 254 123 254 123 L254 123 Z " />
<glyph glyph-name="Agrave" unicode="&#xc0;" horiz-adv-x="708" d="M703 15 C703 15 693 15 693 15 C669 15 620 52 608 80 C608 80 608 80 608 80 C608 80 347 675 347 675 C347 675 315 675 315 675 C315 675 93 74 93 74 C79 47 33 15 8 15 C8 15 -3 15 -3 15 C-3 15 -3 0 -3 0 C-3 0 66 0 66 0 C66 0 88 0 88 0 C88 0 109 0 109 0 C109 0 219 0 219 0 C219 0 219 15 219 15 C219 15 194 15 194 15 C162 15 134 56 140 89 C140 89 191 232 191 232 C191 232 406 232 406 232 C406 232 470 80 470 80 C470 80 470 80 470 80 C482 52 460 15 432 15 C432 15 400 15 400 15 C400 15 400 0 400 0 C400 0 504 0 504 0 C504 0 573 0 573 0 C573 0 643 0 643 0 C643 0 703 0 703 0 C703 0 703 15 703 15 L703 15 Z M342 859 C332 881 316 909 312 909 C298 909 247 871 247 861 C247 856 268 830 283 814 C283 814 403 690 403 690 C403 690 415 699 415 699 C415 699 342 859 342 859 L342 859 Z M392 264 C392 264 202 264 202 264 C202 264 289 509 289 509 C289 509 392 264 392 264 L392 264 Z " />
<glyph glyph-name="Aacute" unicode="&#xc1;" horiz-adv-x="708" d="M270 690 C270 690 387 814 387 814 C402 830 422 856 422 861 C422 871 371 909 357 909 C353 909 338 881 328 859 C328 859 257 699 257 699 C257 699 270 690 270 690 L270 690 Z M703 15 C703 15 693 15 693 15 C669 15 620 52 608 80 C608 80 608 80 608 80 C608 80 347 675 347 675 C347 675 315 675 315 675 C315 675 93 74 93 74 C79 47 33 15 8 15 C8 15 -3 15 -3 15 C-3 15 -3 0 -3 0 C-3 0 66 0 66 0 C66 0 88 0 88 0 C88 0 109 0 109 0 C109 0 219 0 219 0 C219 0 219 15 219 15 C219 15 194 15 194 15 C162 15 134 56 140 89 C140 89 191 232 191 232 C191 232 406 232 406 232 C406 232 470 80 470 80 C470 80 470 80 470 80 C482 52 460 15 432 15 C432 15 400 15 400 15 C400 15 400 0 400 0 C400 0 504 0 504 0 C504 0 573 0 573 0 C573 0 643 0 643 0 C643 0 703 0 703 0 C703 0 703 15 703 15 L703 15 Z M392 264 C392 264 202 264 202 264 C202 264 289 509 289 509 C289 509 392 264 392 264 L392 264 Z " />
<glyph glyph-name="Acircumflex" unicode="&#xc2;" horiz-adv-x="708" d="M703 15 C703 15 693 15 693 15 C669 15 620 52 608 80 C608 80 608 80 608 80 C608 80 347 675 347 675 C347 675 315 675 315 675 C315 675 93 74 93 74 C79 47 33 15 8 15 C8 15 -3 15 -3 15 C-3 15 -3 0 -3 0 C-3 0 66 0 66 0 C66 0 88 0 88 0 C88 0 109 0 109 0 C109 0 219 0 219 0 C219 0 219 15 219 15 C219 15 194 15 194 15 C162 15 134 56 140 89 C140 89 191 232 191 232 C191 232 406 232 406 232 C406 232 470 80 470 80 C470 80 470 80 470 80 C482 52 460 15 432 15 C432 15 400 15 400 15 C400 15 400 0 400 0 C400 0 504 0 504 0 C504 0 573 0 573 0 C573 0 643 0 643 0 C643 0 703 0 703 0 C703 0 703 15 703 15 L703 15 Z M331 799 C331 799 441 691 441 691 C441 691 453 701 453 701 C453 701 368 872 368 872 C364 879 344 904 331 904 C317 904 298 879 294 872 C294 872 209 701 209 701 C209 701 221 691 221 691 C221 691 331 799 331 799 L331 799 Z M392 264 C392 264 202 264 202 264 C202 264 289 509 289 509 C289 509 392 264 392 264 L392 264 Z " />
<glyph glyph-name="Atilde" unicode="&#xc3;" horiz-adv-x="708" d="M192 755 C192 779 214 811 231 811 C272 811 359 748 400 748 C438 748 489 826 489 885 C489 885 470 885 470 885 C470 859 444 825 425 825 C384 825 297 887 255 887 C220 887 172 811 172 755 C172 755 192 755 192 755 L192 755 Z M703 15 C703 15 693 15 693 15 C669 15 620 52 608 80 C608 80 608 80 608 80 C608 80 347 675 347 675 C347 675 315 675 315 675 C315 675 93 74 93 74 C79 47 33 15 8 15 C8 15 -3 15 -3 15 C-3 15 -3 0 -3 0 C-3 0 66 0 66 0 C66 0 88 0 88 0 C88 0 109 0 109 0 C109 0 219 0 219 0 C219 0 219 15 219 15 C219 15 194 15 194 15 C162 15 134 56 140 89 C140 89 191 232 191 232 C191 232 406 232 406 232 C406 232 470 80 470 80 C470 80 470 80 470 80 C482 52 460 15 432 15 C432 15 400 15 400 15 C400 15 400 0 400 0 C400 0 504 0 504 0 C504 0 573 0 573 0 C573 0 643 0 643 0 C643 0 703 0 703 0 C703 0 703 15 703 15 L703 15 Z M392 264 C392 264 202 264 202 264 C202 264 289 509 289 509 C289 509 392 264 392 264 L392 264 Z " />
<glyph glyph-name="Adieresis" unicode="&#xc4;" horiz-adv-x="708" d="M431 730 C461 730 501 770 501 800 C501 831 461 871 431 871 C401 871 361 831 361 800 C361 770 401 730 431 730 L431 730 Z M231 730 C261 730 301 770 301 800 C301 831 261 871 231 871 C200 871 160 831 160 800 C160 770 200 730 231 730 L231 730 Z M703 15 C703 15 693 15 693 15 C669 15 620 52 608 80 C608 80 608 80 608 80 C608 80 347 675 347 675 C347 675 315 675 315 675 C315 675 93 74 93 74 C79 47 33 15 8 15 C8 15 -3 15 -3 15 C-3 15 -3 0 -3 0 C-3 0 66 0 66 0 C66 0 88 0 88 0 C88 0 109 0 109 0 C109 0 219 0 219 0 C219 0 219 15 219 15 C219 15 194 15 194 15 C162 15 134 56 140 89 C140 89 191 232 191 232 C191 232 406 232 406 232 C406 232 470 80 470 80 C470 80 470 80 470 80 C482 52 460 15 432 15 C432 15 400 15 400 15 C400 15 400 0 400 0 C400 0 504 0 504 0 C504 0 573 0 573 0 C573 0 643 0 643 0 C643 0 703 0 703 0 C703 0 703 15 703 15 L703 15 Z M392 264 C392 264 202 264 202 264 C202 264 289 509 289 509 C289 509 392 264 392 264 L392 264 Z " />
<glyph glyph-name="Aring" unicode="&#xc5;" horiz-adv-x="708" d="M331 721 C306 721 267 762 267 788 C267 816 304 854 331 854 C358 854 395 816 395 788 C395 762 356 721 331 721 L331 721 Z M235 788 C235 752 294 695 331 695 C368 695 427 752 427 788 C427 827 372 880 331 880 C290 880 235 827 235 788 L235 788 Z M703 15 C703 15 693 15 693 15 C669 15 620 52 608 80 C608 80 608 80 608 80 C608 80 347 675 347 675 C347 675 315 675 315 675 C315 675 93 74 93 74 C79 47 33 15 8 15 C8 15 -3 15 -3 15 C-3 15 -3 0 -3 0 C-3 0 66 0 66 0 C66 0 88 0 88 0 C88 0 109 0 109 0 C109 0 219 0 219 0 C219 0 219 15 219 15 C219 15 194 15 194 15 C162 15 134 56 140 89 C140 89 191 232 191 232 C191 232 406 232 406 232 C406 232 470 80 470 80 C470 80 470 80 470 80 C482 52 460 15 432 15 C432 15 400 15 400 15 C400 15 400 0 400 0 C400 0 504 0 504 0 C504 0 573 0 573 0 C573 0 643 0 643 0 C643 0 703 0 703 0 C703 0 703 15 703 15 L703 15 Z M392 264 C392 264 202 264 202 264 C202 264 289 509 289 509 C289 509 392 264 392 264 L392 264 Z " />
<glyph glyph-name="Ccedilla" unicode="&#xc7;" horiz-adv-x="731" d="M672 453 C672 453 672 607 672 607 C629 632 484 665 419 665 C258 665 42 473 42 330 C42 187 258 -5 419 -5 C484 -5 629 28 672 53 C672 53 672 207 672 207 C672 207 659 207 659 207 C656 199 648 178 646 170 C627 118 520 41 452 29 C439 28 428 27 419 27 C317 27 182 200 182 330 C182 460 317 633 419 633 C437 633 461 630 487 626 C540 613 628 538 646 490 C648 482 656 461 659 453 C659 453 672 453 672 453 L672 453 Z " />
<glyph glyph-name="Egrave" unicode="&#xc8;" horiz-adv-x="652" d="M473 251 C473 251 473 336 473 336 C473 336 473 352 473 352 C473 352 473 368 473 368 C473 368 473 443 473 443 C473 443 461 443 461 443 C461 443 457 432 457 432 C449 404 389 368 353 368 C353 368 243 368 243 368 C243 368 243 628 243 628 C243 628 388 628 388 628 C431 628 507 571 521 528 C521 528 532 493 532 493 C532 493 543 493 543 493 C543 493 543 644 543 644 C543 644 543 660 543 660 C543 660 528 660 528 660 C528 660 463 660 463 660 C463 660 243 660 243 660 C243 660 179 660 179 660 C179 660 115 660 115 660 C115 660 40 660 40 660 C40 660 40 645 40 645 C40 645 51 645 51 645 C79 645 115 608 115 580 C115 580 115 80 115 80 C115 52 79 15 51 15 C51 15 40 15 40 15 C40 15 40 0 40 0 C40 0 115 0 115 0 C115 0 179 0 179 0 C179 0 243 0 243 0 C243 0 462 0 462 0 C462 0 538 0 538 0 C538 0 542 0 542 0 C543 3 545 13 545 16 C551 48 566 135 572 167 C572 167 561 167 561 167 C561 167 543 132 543 132 C522 89 436 32 393 32 C393 32 243 32 243 32 C243 32 243 336 243 336 C243 336 353 336 353 336 C389 336 449 295 457 264 C457 264 461 251 461 251 C461 251 473 251 473 251 L473 251 Z M317 859 C307 881 291 909 287 909 C273 909 222 871 222 861 C221 856 242 830 258 814 C258 814 378 690 378 690 C378 690 390 699 390 699 C390 699 317 859 317 859 L317 859 Z " />
<glyph glyph-name="Eacute" unicode="&#xc9;" horiz-adv-x="652" d="M291 690 C291 690 408 814 408 814 C423 830 443 856 443 861 C443 871 392 909 377 909 C374 909 359 881 349 859 C349 859 278 699 278 699 C278 699 291 690 291 690 L291 690 Z M473 251 C473 251 473 336 473 336 C473 336 473 352 473 352 C473 352 473 368 473 368 C473 368 473 443 473 443 C473 443 461 443 461 443 C461 443 457 432 457 432 C449 404 389 368 353 368 C353 368 243 368 243 368 C243 368 243 628 243 628 C243 628 388 628 388 628 C431 628 507 571 521 528 C521 528 532 493 532 493 C532 493 543 493 543 493 C543 493 543 644 543 644 C543 644 543 660 543 660 C543 660 528 660 528 660 C528 660 463 660 463 660 C463 660 243 660 243 660 C243 660 179 660 179 660 C179 660 115 660 115 660 C115 660 40 660 40 660 C40 660 40 645 40 645 C40 645 51 645 51 645 C79 645 115 608 115 580 C115 580 115 80 115 80 C115 52 79 15 51 15 C51 15 40 15 40 15 C40 15 40 0 40 0 C40 0 115 0 115 0 C115 0 179 0 179 0 C179 0 243 0 243 0 C243 0 462 0 462 0 C462 0 538 0 538 0 C538 0 542 0 542 0 C543 3 545 13 545 16 C551 48 566 135 572 167 C572 167 561 167 561 167 C561 167 543 132 543 132 C522 89 436 32 393 32 C393 32 243 32 243 32 C243 32 243 336 243 336 C243 336 353 336 353 336 C389 336 449 295 457 264 C457 264 461 251 461 251 C461 251 473 251 473 251 L473 251 Z " />
<glyph glyph-name="Ecircumflex" unicode="&#xca;" horiz-adv-x="652" d="M473 251 C473 251 473 336 473 336 C473 336 473 352 473 352 C473 352 473 368 473 368 C473 368 473 443 473 443 C473 443 461 443 461 443 C461 443 457 432 457 432 C449 404 389 368 353 368 C353 368 243 368 243 368 C243 368 243 628 243 628 C243 628 388 628 388 628 C431 628 507 571 521 528 C521 528 532 493 532 493 C532 493 543 493 543 493 C543 493 543 644 543 644 C543 644 543 660 543 660 C543 660 528 660 528 660 C528 660 463 660 463 660 C463 660 243 660 243 660 C243 660 179 660 179 660 C179 660 115 660 115 660 C115 660 40 660 40 660 C40 660 40 645 40 645 C40 645 51 645 51 645 C79 645 115 608 115 580 C115 580 115 80 115 80 C115 52 79 15 51 15 C51 15 40 15 40 15 C40 15 40 0 40 0 C40 0 115 0 115 0 C115 0 179 0 179 0 C179 0 243 0 243 0 C243 0 462 0 462 0 C462 0 538 0 538 0 C538 0 542 0 542 0 C543 3 545 13 545 16 C551 48 566 135 572 167 C572 167 561 167 561 167 C561 167 543 132 543 132 C522 89 436 32 393 32 C393 32 243 32 243 32 C243 32 243 336 243 336 C243 336 353 336 353 336 C389 336 449 295 457 264 C457 264 461 251 461 251 C461 251 473 251 473 251 L473 251 Z M322 800 C322 800 432 691 432 691 C432 691 443 701 443 701 C443 701 358 872 358 872 C355 879 335 904 321 904 C308 904 288 879 285 872 C285 872 199 701 199 701 C199 701 211 691 211 691 C211 691 322 800 322 800 L322 800 Z " />
<glyph glyph-name="Edieresis" unicode="&#xcb;" horiz-adv-x="652" d="M422 730 C452 730 492 770 492 800 C492 831 452 871 422 871 C391 871 351 831 351 800 C351 770 391 730 422 730 L422 730 Z M221 730 C251 730 291 770 291 800 C291 831 251 871 221 871 C191 871 151 831 151 800 C151 770 191 730 221 730 L221 730 Z M473 251 C473 251 473 336 473 336 C473 336 473 352 473 352 C473 352 473 368 473 368 C473 368 473 443 473 443 C473 443 461 443 461 443 C461 443 457 432 457 432 C449 404 389 368 353 368 C353 368 243 368 243 368 C243 368 243 628 243 628 C243 628 388 628 388 628 C431 628 507 571 521 528 C521 528 532 493 532 493 C532 493 543 493 543 493 C543 493 543 644 543 644 C543 644 543 660 543 660 C543 660 528 660 528 660 C528 660 463 660 463 660 C463 660 243 660 243 660 C243 660 179 660 179 660 C179 660 115 660 115 660 C115 660 40 660 40 660 C40 660 40 645 40 645 C40 645 51 645 51 645 C79 645 115 608 115 580 C115 580 115 80 115 80 C115 52 79 15 51 15 C51 15 40 15 40 15 C40 15 40 0 40 0 C40 0 115 0 115 0 C115 0 179 0 179 0 C179 0 243 0 243 0 C243 0 462 0 462 0 C462 0 538 0 538 0 C538 0 542 0 542 0 C543 3 545 13 545 16 C551 48 566 135 572 167 C572 167 561 167 561 167 C561 167 543 132 543 132 C522 89 436 32 393 32 C393 32 243 32 243 32 C243 32 243 336 243 336 C243 336 353 336 353 336 C389 336 449 295 457 264 C457 264 461 251 461 251 C461 251 473 251 473 251 L473 251 Z " />
<glyph glyph-name="Igrave" unicode="&#xcc;" horiz-adv-x="357" d="M318 660 C318 660 243 660 243 660 C243 660 179 660 179 660 C179 660 115 660 115 660 C115 660 40 660 40 660 C40 660 40 645 40 645 C40 645 51 645 51 645 C79 645 115 608 115 580 C115 580 115 80 115 80 C115 52 79 15 51 15 C51 15 40 15 40 15 C40 15 40 0 40 0 C40 0 115 0 115 0 C115 0 179 0 179 0 C179 0 243 0 243 0 C243 0 318 0 318 0 C318 0 318 15 318 15 C318 15 307 15 307 15 C279 15 243 52 243 80 C243 80 243 580 243 580 C243 608 279 645 307 645 C307 645 318 645 318 645 C318 645 318 660 318 660 L318 660 Z M190 859 C181 881 164 909 160 909 C146 909 95 871 95 861 C95 856 116 830 131 814 C131 814 251 690 251 690 C251 690 263 699 263 699 C263 699 190 859 190 859 L190 859 Z " />
<glyph glyph-name="Iacute" unicode="&#xcd;" horiz-adv-x="357" d="M118 690 C118 690 235 814 235 814 C250 830 270 856 270 861 C270 871 219 909 205 909 C201 909 186 881 176 859 C176 859 106 699 106 699 C106 699 118 690 118 690 L118 690 Z M318 660 C318 660 243 660 243 660 C243 660 179 660 179 660 C179 660 115 660 115 660 C115 660 40 660 40 660 C40 660 40 645 40 645 C40 645 51 645 51 645 C79 645 115 608 115 580 C115 580 115 80 115 80 C115 52 79 15 51 15 C51 15 40 15 40 15 C40 15 40 0 40 0 C40 0 115 0 115 0 C115 0 179 0 179 0 C179 0 243 0 243 0 C243 0 318 0 318 0 C318 0 318 15 318 15 C318 15 307 15 307 15 C279 15 243 52 243 80 C243 80 243 580 243 580 C243 608 279 645 307 645 C307 645 318 645 318 645 C318 645 318 660 318 660 L318 660 Z " />
<glyph glyph-name="Icircumflex" unicode="&#xce;" horiz-adv-x="357" d="M318 660 C318 660 243 660 243 660 C243 660 179 660 179 660 C179 660 115 660 115 660 C115 660 40 660 40 660 C40 660 40 645 40 645 C40 645 51 645 51 645 C79 645 115 608 115 580 C115 580 115 80 115 80 C115 52 79 15 51 15 C51 15 40 15 40 15 C40 15 40 0 40 0 C40 0 115 0 115 0 C115 0 179 0 179 0 C179 0 243 0 243 0 C243 0 318 0 318 0 C318 0 318 15 318 15 C318 15 307 15 307 15 C279 15 243 52 243 80 C243 80 243 580 243 580 C243 608 279 645 307 645 C307 645 318 645 318 645 C318 645 318 660 318 660 L318 660 Z M179 799 C179 799 289 691 289 691 C289 691 301 701 301 701 C301 701 216 872 216 872 C212 879 192 904 179 904 C165 904 146 879 142 872 C142 872 57 701 57 701 C57 701 69 691 69 691 C69 691 179 799 179 799 L179 799 Z " />
<glyph glyph-name="Idieresis" unicode="&#xcf;" horiz-adv-x="357" d="M279 730 C309 730 349 770 349 800 C349 831 309 871 279 871 C249 871 209 831 209 800 C209 770 249 730 279 730 L279 730 Z M79 730 C109 730 149 770 149 800 C149 831 109 871 79 871 C48 871 8 831 8 800 C8 770 48 730 79 730 L79 730 Z M318 660 C318 660 243 660 243 660 C243 660 179 660 179 660 C179 660 115 660 115 660 C115 660 40 660 40 660 C40 660 40 645 40 645 C40 645 51 645 51 645 C79 645 115 608 115 580 C115 580 115 80 115 80 C115 52 79 15 51 15 C51 15 40 15 40 15 C40 15 40 0 40 0 C40 0 115 0 115 0 C115 0 179 0 179 0 C179 0 243 0 243 0 C243 0 318 0 318 0 C318 0 318 15 318 15 C318 15 307 15 307 15 C279 15 243 52 243 80 C243 80 243 580 243 580 C243 608 279 645 307 645 C307 645 318 645 318 645 C318 645 318 660 318 660 L318 660 Z " />
<glyph glyph-name="Ntilde" unicode="&#xd1;" horiz-adv-x="723" d="M221 755 C221 779 243 811 260 811 C301 811 388 748 429 748 C468 748 519 826 519 885 C519 885 500 885 500 885 C500 859 474 825 454 825 C413 825 326 887 285 887 C250 887 202 811 202 755 C202 755 221 755 221 755 L221 755 Z M683 660 C683 660 608 660 608 660 C608 660 589 660 589 660 C589 660 570 660 570 660 C570 660 495 660 495 660 C495 660 495 645 495 645 C495 645 506 645 506 645 C534 645 570 608 570 580 C570 580 570 184 570 184 C570 184 227 660 227 660 C227 660 151 660 151 660 C151 660 132 660 132 660 C132 660 112 660 112 660 C112 660 37 660 37 660 C37 660 37 645 37 645 C37 645 49 645 49 645 C76 645 112 608 112 580 C112 580 112 80 112 80 C112 52 76 15 49 15 C49 15 37 15 37 15 C37 15 37 0 37 0 C37 0 112 0 112 0 C112 0 132 0 132 0 C132 0 151 0 151 0 C151 0 226 0 226 0 C226 0 226 15 226 15 C226 15 215 15 215 15 C187 15 151 52 151 80 C151 80 151 547 151 547 C151 547 512 51 512 51 C512 51 563 -20 563 -20 C563 -20 608 -20 608 -20 C608 -20 608 98 608 98 C608 98 608 580 608 580 C608 608 645 645 672 645 C672 645 683 645 683 645 C683 645 683 660 683 660 L683 660 Z " />
<glyph glyph-name="Ograve" unicode="&#xd2;" horiz-adv-x="759" d="M375 27 C284 27 182 213 182 330 C182 447 284 633 375 633 C466 633 568 447 568 330 C568 213 466 27 375 27 L375 27 Z M42 330 C42 201 219 -5 375 -5 C532 -5 709 201 709 330 C709 459 532 665 375 665 C219 665 42 459 42 330 L42 330 Z M386 859 C377 881 361 909 357 909 C343 909 291 871 291 861 C291 856 312 830 328 814 C328 814 447 690 447 690 C447 690 460 699 460 699 C460 699 386 859 386 859 L386 859 Z " />
<glyph glyph-name="Oacute" unicode="&#xd3;" horiz-adv-x="759" d="M353 690 C353 690 469 814 469 814 C485 830 505 856 505 861 C505 871 453 909 439 909 C436 909 420 881 411 859 C411 859 340 699 340 699 C340 699 353 690 353 690 L353 690 Z M375 27 C284 27 182 213 182 330 C182 447 284 633 375 633 C466 633 568 447 568 330 C568 213 466 27 375 27 L375 27 Z M42 330 C42 201 219 -5 375 -5 C532 -5 709 201 709 330 C709 459 532 665 375 665 C219 665 42 459 42 330 L42 330 Z " />
<glyph glyph-name="Ocircumflex" unicode="&#xd4;" horiz-adv-x="759" d="M375 27 C284 27 182 213 182 330 C182 447 284 633 375 633 C466 633 568 447 568 330 C568 213 466 27 375 27 L375 27 Z M42 330 C42 201 219 -5 375 -5 C532 -5 709 201 709 330 C709 459 532 665 375 665 C219 665 42 459 42 330 L42 330 Z M376 800 C376 800 486 691 486 691 C486 691 497 701 497 701 C497 701 412 872 412 872 C409 879 389 904 375 904 C362 904 342 879 339 872 C339 872 253 701 253 701 C253 701 265 691 265 691 C265 691 376 800 376 800 L376 800 Z " />
<glyph glyph-name="Otilde" unicode="&#xd5;" horiz-adv-x="759" d="M236 755 C236 779 258 811 275 811 C316 811 403 748 445 748 C483 748 534 826 534 885 C534 885 515 885 515 885 C515 859 489 825 469 825 C428 825 341 887 300 887 C265 887 217 811 217 755 C217 755 236 755 236 755 L236 755 Z M375 27 C284 27 182 213 182 330 C182 447 284 633 375 633 C466 633 568 447 568 330 C568 213 466 27 375 27 L375 27 Z M42 330 C42 201 219 -5 375 -5 C532 -5 709 201 709 330 C709 459 532 665 375 665 C219 665 42 459 42 330 L42 330 Z " />
<glyph glyph-name="Odieresis" unicode="&#xd6;" horiz-adv-x="759" d="M476 730 C506 730 546 770 546 800 C546 831 506 871 476 871 C445 871 405 831 405 800 C405 770 445 730 476 730 L476 730 Z M275 730 C305 730 345 770 345 800 C345 831 305 871 275 871 C245 871 205 831 205 800 C205 770 245 730 275 730 L275 730 Z M375 27 C284 27 182 213 182 330 C182 447 284 633 375 633 C466 633 568 447 568 330 C568 213 466 27 375 27 L375 27 Z M42 330 C42 201 219 -5 375 -5 C532 -5 709 201 709 330 C709 459 532 665 375 665 C219 665 42 459 42 330 L42 330 Z " />
<glyph glyph-name="Oslash" unicode="&#xd8;" horiz-adv-x="759" d="M62 -25 C62 -25 175 89 175 89 C235 34 307 -5 375 -5 C532 -5 709 201 709 330 C709 390 671 466 615 530 C615 530 729 645 729 645 C729 645 689 685 689 685 C689 685 575 571 575 571 C516 626 443 665 375 665 C219 665 42 459 42 330 C42 270 80 195 136 130 C136 130 21 15 21 15 C21 15 62 -25 62 -25 L62 -25 Z M375 27 C326 27 274 81 236 150 C236 150 540 455 540 455 C558 412 568 368 568 330 C568 213 466 27 375 27 C375 27 375 27 375 27 L375 27 Z M210 204 C193 248 182 292 182 330 C182 447 284 633 375 633 C424 633 477 579 515 510 C515 510 210 204 210 204 L210 204 Z " />
<glyph glyph-name="Ugrave" unicode="&#xd9;" horiz-adv-x="702" d="M469 645 C469 645 484 645 484 645 C516 645 559 602 559 570 C559 570 559 202 559 202 C559 133 468 40 372 40 C297 40 226 128 226 194 C226 194 226 580 226 580 C226 608 262 645 290 645 C290 645 301 645 301 645 C301 645 301 660 301 660 C301 660 226 660 226 660 C226 660 162 660 162 660 C162 660 98 660 98 660 C98 660 23 660 23 660 C23 660 23 645 23 645 C23 645 34 645 34 645 C62 645 98 608 98 580 C98 580 98 219 98 219 C98 123 222 -5 353 -5 C478 -5 597 106 597 189 C597 189 597 570 597 570 C598 602 639 645 670 645 C670 645 682 645 682 645 C683 645 683 649 682 653 C683 656 683 660 682 660 C682 660 597 660 597 660 C597 660 578 660 578 660 C578 660 559 660 559 660 C559 660 469 660 469 660 C469 660 469 645 469 645 L469 645 Z M359 859 C349 881 333 909 329 909 C315 909 264 871 264 861 C264 856 285 830 300 814 C300 814 420 690 420 690 C420 690 432 699 432 699 C432 699 359 859 359 859 L359 859 Z " />
<glyph glyph-name="Uacute" unicode="&#xda;" horiz-adv-x="702" d="M348 690 C348 690 464 814 464 814 C480 830 500 856 500 861 C500 871 448 909 434 909 C431 909 415 881 406 859 C406 859 335 699 335 699 C335 699 348 690 348 690 L348 690 Z M469 645 C469 645 484 645 484 645 C516 645 559 602 559 570 C559 570 559 202 559 202 C559 133 468 40 372 40 C297 40 226 128 226 194 C226 194 226 580 226 580 C226 608 262 645 290 645 C290 645 301 645 301 645 C301 645 301 660 301 660 C301 660 226 660 226 660 C226 660 162 660 162 660 C162 660 98 660 98 660 C98 660 23 660 23 660 C23 660 23 645 23 645 C23 645 34 645 34 645 C62 645 98 608 98 580 C98 580 98 219 98 219 C98 123 222 -5 353 -5 C478 -5 597 106 597 189 C597 189 597 570 597 570 C598 602 639 645 670 645 C670 645 682 645 682 645 C683 645 683 649 682 653 C683 656 683 660 682 660 C682 660 597 660 597 660 C597 660 578 660 578 660 C578 660 559 660 559 660 C559 660 469 660 469 660 C469 660 469 645 469 645 L469 645 Z " />
<glyph glyph-name="Ucircumflex" unicode="&#xdb;" horiz-adv-x="702" d="M469 645 C469 645 484 645 484 645 C516 645 559 602 559 570 C559 570 559 202 559 202 C559 133 468 40 372 40 C297 40 226 128 226 194 C226 194 226 580 226 580 C226 608 262 645 290 645 C290 645 301 645 301 645 C301 645 301 660 301 660 C301 660 226 660 226 660 C226 660 162 660 162 660 C162 660 98 660 98 660 C98 660 23 660 23 660 C23 660 23 645 23 645 C23 645 34 645 34 645 C62 645 98 608 98 580 C98 580 98 219 98 219 C98 123 222 -5 353 -5 C478 -5 597 106 597 189 C597 189 597 570 597 570 C598 602 639 645 670 645 C670 645 682 645 682 645 C683 645 683 649 682 653 C683 656 683 660 682 660 C682 660 597 660 597 660 C597 660 578 660 578 660 C578 660 559 660 559 660 C559 660 469 660 469 660 C469 660 469 645 469 645 L469 645 Z M348 800 C348 800 458 691 458 691 C458 691 470 701 470 701 C470 701 384 872 384 872 C381 879 361 904 348 904 C334 904 315 879 311 872 C311 872 226 701 226 701 C226 701 237 691 237 691 C237 691 348 800 348 800 L348 800 Z " />
<glyph glyph-name="Udieresis" unicode="&#xdc;" horiz-adv-x="702" d="M448 730 C478 730 518 770 518 800 C518 831 478 871 448 871 C418 871 378 831 378 800 C378 770 418 730 448 730 L448 730 Z M247 730 C278 730 318 770 318 800 C318 831 278 871 247 871 C217 871 177 831 177 800 C177 770 217 730 247 730 L247 730 Z M469 645 C469 645 484 645 484 645 C516 645 559 602 559 570 C559 570 559 202 559 202 C559 133 468 40 372 40 C297 40 226 128 226 194 C226 194 226 580 226 580 C226 608 262 645 290 645 C290 645 301 645 301 645 C301 645 301 660 301 660 C301 660 226 660 226 660 C226 660 162 660 162 660 C162 660 98 660 98 660 C98 660 23 660 23 660 C23 660 23 645 23 645 C23 645 34 645 34 645 C62 645 98 608 98 580 C98 580 98 219 98 219 C98 123 222 -5 353 -5 C478 -5 597 106 597 189 C597 189 597 570 597 570 C598 602 639 645 670 645 C670 645 682 645 682 645 C683 645 683 649 682 653 C683 656 683 660 682 660 C682 660 597 660 597 660 C597 660 578 660 578 660 C578 660 559 660 559 660 C559 660 469 660 469 660 C469 660 469 645 469 645 L469 645 Z " />
<glyph glyph-name="Yacute" unicode="&#xdd;" horiz-adv-x="671" d="M332 690 C332 690 448 814 448 814 C464 830 484 856 484 861 C484 871 432 909 418 909 C415 909 399 881 390 859 C390 859 319 699 319 699 C319 699 332 690 332 690 L332 690 Z M193 0 C193 0 268 0 268 0 C268 0 332 0 332 0 C332 0 396 0 396 0 C396 0 471 0 471 0 C470 0 470 4 471 8 C470 11 470 15 471 15 C471 15 459 15 459 15 C433 15 397 50 396 78 C396 78 396 80 396 80 C396 80 396 330 396 330 C396 330 396 330 396 330 C396 330 568 586 568 586 C589 613 640 645 662 645 C662 645 672 645 672 645 C671 645 671 649 672 653 C671 656 671 660 672 660 C672 660 617 660 617 660 C617 660 597 660 597 660 C597 660 578 660 578 660 C578 660 468 660 468 660 C468 660 468 645 468 645 C468 645 483 645 483 645 C518 645 535 602 517 566 C517 566 379 356 379 356 C379 356 246 581 246 581 C232 609 246 645 274 645 C274 645 290 645 290 645 C290 645 290 660 290 660 C290 660 200 660 200 660 C200 660 123 660 123 660 C123 660 47 660 47 660 C47 660 1 660 1 660 C0 660 0 656 1 653 C0 649 0 645 1 645 C1 645 9 645 9 645 C29 645 78 608 94 580 C94 580 95 580 95 580 C95 580 268 289 268 289 C268 289 268 80 268 80 C268 52 231 15 204 15 C204 15 193 15 193 15 C193 15 193 0 193 0 L193 0 Z " />
<glyph glyph-name="agrave" unicode="&#xe0;" horiz-adv-x="589" d="M554 60 C554 60 543 62 543 62 C505 71 479 102 479 141 C479 141 479 500 479 500 C479 500 447 500 447 500 C447 500 386 426 386 426 C362 461 303 505 269 505 C177 505 54 341 54 219 C54 123 151 -5 224 -5 C255 -5 324 48 364 98 C364 98 364 0 364 0 C364 0 364 -5 364 -5 C364 -5 383 -5 383 -5 C383 -5 447 18 447 18 C447 18 554 51 554 51 C554 51 554 60 554 60 L554 60 Z M235 699 C226 721 209 749 206 749 C192 749 140 711 140 701 C140 696 161 670 177 654 C177 654 296 530 296 530 C296 530 309 539 309 539 C309 539 235 699 235 699 L235 699 Z M364 120 C344 94 305 65 288 65 C239 65 174 178 174 263 C174 353 225 474 264 474 C295 474 354 428 364 400 C364 400 364 120 364 120 L364 120 Z " />
<glyph glyph-name="aacute" unicode="&#xe1;" horiz-adv-x="511" d="M197 530 C197 530 313 654 313 654 C328 670 349 696 349 701 C349 711 297 749 283 749 C280 749 265 721 255 699 C255 699 184 539 184 539 C184 539 197 530 197 530 L197 530 Z M490 64 C484 56 463 45 445 45 C423 45 405 84 405 112 C405 112 405 352 405 352 C405 417 323 505 263 505 C181 505 59 438 49 388 C49 388 164 388 164 388 C171 424 213 473 237 473 C257 473 284 419 284 378 C284 378 284 262 284 262 C284 262 217 252 217 252 C140 240 36 156 36 105 C36 58 104 -5 154 -5 C193 -5 252 19 295 49 C310 17 336 -10 366 -10 C421 -10 486 23 503 48 C503 48 490 64 490 64 L490 64 Z M283 232 C283 232 283 100 283 100 C283 95 283 90 284 84 C260 77 233 72 212 72 C186 72 150 110 150 138 C150 164 188 209 217 216 C217 216 283 232 283 232 L283 232 Z " />
<glyph glyph-name="acircumflex" unicode="&#xe2;" horiz-adv-x="589" d="M554 60 C554 60 543 62 543 62 C505 71 479 102 479 141 C479 141 479 500 479 500 C479 500 447 500 447 500 C447 500 386 426 386 426 C362 461 303 505 269 505 C177 505 54 341 54 219 C54 123 151 -5 224 -5 C255 -5 324 48 364 98 C364 98 364 0 364 0 C364 0 364 -5 364 -5 C364 -5 383 -5 383 -5 C383 -5 447 18 447 18 C447 18 554 51 554 51 C554 51 554 60 554 60 L554 60 Z M225 640 C225 640 335 531 335 531 C335 531 346 541 346 541 C346 541 261 712 261 712 C258 719 238 744 224 744 C211 744 191 719 188 712 C188 712 102 541 102 541 C102 541 114 531 114 531 C114 531 225 640 225 640 L225 640 Z M364 120 C344 94 305 65 288 65 C239 65 174 178 174 263 C174 353 225 474 264 474 C295 474 354 428 364 400 C364 400 364 120 364 120 L364 120 Z " />
<glyph glyph-name="atilde" unicode="&#xe3;" horiz-adv-x="589" d="M85 595 C85 619 107 651 124 651 C165 651 252 588 293 588 C332 588 383 666 383 725 C383 725 363 725 363 725 C363 699 337 665 318 665 C277 665 190 727 149 727 C113 727 66 651 66 595 C66 595 85 595 85 595 L85 595 Z M554 60 C554 60 543 62 543 62 C505 71 479 102 479 141 C479 141 479 500 479 500 C479 500 447 500 447 500 C447 500 386 426 386 426 C362 461 303 505 269 505 C177 505 54 341 54 219 C54 123 151 -5 224 -5 C255 -5 324 48 364 98 C364 98 364 0 364 0 C364 0 364 -5 364 -5 C364 -5 383 -5 383 -5 C383 -5 447 18 447 18 C447 18 554 51 554 51 C554 51 554 60 554 60 L554 60 Z M364 120 C344 94 305 65 288 65 C239 65 174 178 174 263 C174 353 225 474 264 474 C295 474 354 428 364 400 C364 400 364 120 364 120 L364 120 Z " />
<glyph glyph-name="adieresis" unicode="&#xe4;" horiz-adv-x="589" d="M325 570 C355 570 395 610 395 640 C395 671 355 711 325 711 C294 711 254 671 254 640 C254 610 294 570 325 570 L325 570 Z M124 570 C154 570 194 610 194 640 C194 671 154 711 124 711 C94 711 54 671 54 640 C54 610 94 570 124 570 L124 570 Z M554 60 C554 60 543 62 543 62 C505 71 479 102 479 141 C479 141 479 500 479 500 C479 500 447 500 447 500 C447 500 386 426 386 426 C362 461 303 505 269 505 C177 505 54 341 54 219 C54 123 151 -5 224 -5 C255 -5 324 48 364 98 C364 98 364 0 364 0 C364 0 364 -5 364 -5 C364 -5 383 -5 383 -5 C383 -5 447 18 447 18 C447 18 554 51 554 51 C554 51 554 60 554 60 L554 60 Z M364 120 C344 94 305 65 288 65 C239 65 174 178 174 263 C174 353 225 474 264 474 C295 474 354 428 364 400 C364 400 364 120 364 120 L364 120 Z " />
<glyph glyph-name="aring" unicode="&#xe5;" horiz-adv-x="589" d="M224 561 C200 561 160 602 160 628 C160 656 197 694 224 694 C252 694 288 656 288 628 C288 602 249 561 224 561 L224 561 Z M128 628 C128 592 187 535 224 535 C261 535 320 592 320 628 C320 667 265 720 224 720 C183 720 128 667 128 628 L128 628 Z M554 60 C554 60 543 62 543 62 C505 71 479 102 479 141 C479 141 479 500 479 500 C479 500 447 500 447 500 C447 500 386 426 386 426 C362 461 303 505 269 505 C177 505 54 341 54 219 C54 123 151 -5 224 -5 C255 -5 324 48 364 98 C364 98 364 0 364 0 C364 0 364 -5 364 -5 C364 -5 383 -5 383 -5 C383 -5 447 18 447 18 C447 18 554 51 554 51 C554 51 554 60 554 60 L554 60 Z M364 120 C344 94 305 65 288 65 C239 65 174 178 174 263 C174 353 225 474 264 474 C295 474 354 428 364 400 C364 400 364 120 364 120 L364 120 Z " />
<glyph glyph-name="ccedilla" unicode="&#xe7;" horiz-adv-x="521" d="M471 79 C471 79 461 91 461 91 C447 80 388 65 357 65 C278 65 172 184 172 273 C172 359 241 473 293 473 C320 473 361 434 363 404 C365 380 398 348 421 348 C443 348 472 377 472 399 C468 444 373 505 306 505 C196 505 50 347 50 229 C50 129 171 -5 261 -5 C308 -5 429 43 471 79 L471 79 Z " />
<glyph glyph-name="egrave" unicode="&#xe8;" horiz-adv-x="527" d="M477 79 C477 79 467 91 467 91 C453 80 392 65 360 65 C280 65 172 184 172 273 C172 282 173 291 174 300 C174 300 478 300 478 300 C478 387 368 505 285 505 C185 505 50 347 50 229 C50 129 172 -5 264 -5 C313 -5 435 43 477 79 L477 79 Z M296 699 C287 721 270 749 266 749 C252 749 201 711 201 701 C201 696 222 670 237 654 C237 654 357 530 357 530 C357 530 370 539 370 539 C370 539 296 699 296 699 L296 699 Z M178 322 C194 397 241 473 279 473 C318 473 371 429 371 396 C371 396 371 395 371 395 C370 373 341 341 318 336 C318 336 178 322 178 322 L178 322 Z " />
<glyph glyph-name="eacute" unicode="&#xe9;" horiz-adv-x="527" d="M255 530 C255 530 371 654 371 654 C386 670 407 696 407 701 C407 711 355 749 341 749 C338 749 322 721 313 699 C313 699 242 539 242 539 C242 539 255 530 255 530 L255 530 Z M477 79 C477 79 467 91 467 91 C453 80 392 65 360 65 C280 65 172 184 172 273 C172 282 173 291 174 300 C174 300 478 300 478 300 C478 387 368 505 285 505 C185 505 50 347 50 229 C50 129 172 -5 264 -5 C313 -5 435 43 477 79 L477 79 Z M178 322 C194 397 241 473 279 473 C318 473 371 429 371 396 C371 396 371 395 371 395 C370 373 341 341 318 336 C318 336 178 322 178 322 L178 322 Z " />
<glyph glyph-name="ecircumflex" unicode="&#xea;" horiz-adv-x="527" d="M477 79 C477 79 467 91 467 91 C453 80 392 65 360 65 C280 65 172 184 172 273 C172 282 173 291 174 300 C174 300 478 300 478 300 C478 387 368 505 285 505 C185 505 50 347 50 229 C50 129 172 -5 264 -5 C313 -5 435 43 477 79 L477 79 Z M285 639 C285 639 395 531 395 531 C395 531 407 541 407 541 C407 541 322 712 322 712 C318 719 298 744 285 744 C272 744 252 719 249 712 C249 712 163 541 163 541 C163 541 175 531 175 531 C175 531 285 639 285 639 L285 639 Z M178 322 C194 397 241 473 279 473 C318 473 371 429 371 396 C371 396 371 395 371 395 C370 373 341 341 318 336 C318 336 178 322 178 322 L178 322 Z " />
<glyph glyph-name="edieresis" unicode="&#xeb;" horiz-adv-x="527" d="M385 570 C416 570 456 610 456 640 C456 671 416 711 385 711 C355 711 315 671 315 640 C315 610 355 570 385 570 L385 570 Z M185 570 C215 570 255 610 255 640 C255 671 215 711 185 711 C154 711 114 671 114 640 C114 610 154 570 185 570 L185 570 Z M477 79 C477 79 467 91 467 91 C453 80 392 65 360 65 C280 65 172 184 172 273 C172 282 173 291 174 300 C174 300 478 300 478 300 C478 387 368 505 285 505 C185 505 50 347 50 229 C50 129 172 -5 264 -5 C313 -5 435 43 477 79 L477 79 Z M178 322 C194 397 241 473 279 473 C318 473 371 429 371 396 C371 396 371 395 371 395 C370 373 341 341 318 336 C318 336 178 322 178 322 L178 322 Z " />
<glyph glyph-name="igrave" unicode="&#xec;" horiz-adv-x="355" d="M235 0 C235 0 310 0 310 0 C310 0 310 15 310 15 C310 15 295 15 295 15 C269 15 235 9 235 0 C235 0 235 420 235 420 C235 420 235 505 235 505 C235 505 229 505 229 505 C229 505 57 453 57 453 C57 453 57 443 57 443 C57 443 102 430 102 430 C109 428 120 410 120 387 C120 387 120 0 120 0 C120 0 45 0 45 0 C45 0 45 15 45 15 C45 15 60 15 60 15 C86 15 120 9 120 0 C120 0 235 0 235 0 L235 0 Z M188 699 C179 721 163 749 159 749 C145 749 93 711 93 701 C93 696 114 670 130 654 C130 654 249 530 249 530 C249 530 262 539 262 539 C262 539 188 699 188 699 L188 699 Z " />
<glyph glyph-name="iacute" unicode="&#xed;" horiz-adv-x="355" d="M102 530 C102 530 218 654 218 654 C233 670 254 696 254 701 C254 711 202 749 188 749 C185 749 169 721 160 699 C160 699 89 539 89 539 C89 539 102 530 102 530 L102 530 Z M235 0 C235 0 310 0 310 0 C310 0 310 15 310 15 C310 15 295 15 295 15 C269 15 235 9 235 0 C235 0 235 420 235 420 C235 420 235 505 235 505 C235 505 229 505 229 505 C229 505 57 453 57 453 C57 453 57 443 57 443 C57 443 102 430 102 430 C109 428 120 410 120 387 C120 387 120 0 120 0 C120 0 45 0 45 0 C45 0 45 15 45 15 C45 15 60 15 60 15 C86 15 120 9 120 0 C120 0 235 0 235 0 L235 0 Z " />
<glyph glyph-name="icircumflex" unicode="&#xee;" horiz-adv-x="355" d="M141 676 C141 676 178 640 178 640 C178 640 288 531 288 531 C288 531 300 541 300 541 C300 541 214 712 214 712 C211 719 191 744 178 744 C164 744 144 719 141 712 C141 712 55 541 55 541 C55 541 67 531 67 531 C67 531 178 640 178 640 C178 640 214 675 214 675 C214 675 141 676 141 676 L141 676 Z M235 0 C235 0 310 0 310 0 C310 0 310 15 310 15 C310 15 295 15 295 15 C269 15 235 9 235 0 C235 0 235 420 235 420 C235 420 235 505 235 505 C235 505 229 505 229 505 C229 505 57 453 57 453 C57 453 57 443 57 443 C57 443 102 430 102 430 C109 428 120 410 120 387 C120 387 120 0 120 0 C120 0 45 0 45 0 C45 0 45 15 45 15 C45 15 60 15 60 15 C86 15 120 9 120 0 C120 0 235 0 235 0 L235 0 Z " />
<glyph glyph-name="idieresis" unicode="&#xef;" horiz-adv-x="355" d="M278 570 C308 570 348 610 348 640 C348 671 308 711 278 711 C248 711 208 671 208 640 C208 610 248 570 278 570 L278 570 Z M77 570 C107 570 147 610 147 640 C147 671 107 711 77 711 C47 711 7 671 7 640 C7 610 47 570 77 570 L77 570 Z M235 0 C235 0 310 0 310 0 C310 0 310 15 310 15 C310 15 295 15 295 15 C269 15 235 9 235 0 C235 0 235 420 235 420 C235 420 235 505 235 505 C235 505 229 505 229 505 C229 505 57 453 57 453 C57 453 57 443 57 443 C57 443 102 430 102 430 C109 428 120 410 120 387 C120 387 120 0 120 0 C120 0 45 0 45 0 C45 0 45 15 45 15 C45 15 60 15 60 15 C86 15 120 9 120 0 C120 0 235 0 235 0 L235 0 Z " />
<glyph glyph-name="ntilde" unicode="&#xf1;" horiz-adv-x="636" d="M181 595 C181 619 203 651 220 651 C261 651 348 588 389 588 C428 588 479 666 479 725 C479 725 459 725 459 725 C459 699 433 665 414 665 C373 665 286 727 245 727 C209 727 162 651 162 595 C162 595 181 595 181 595 L181 595 Z M596 15 C596 15 585 15 585 15 C558 15 521 52 521 80 C521 80 521 338 521 338 C521 409 467 505 410 505 C365 505 274 466 234 431 C234 431 234 500 234 500 C234 500 211 500 211 500 C211 500 44 449 44 449 C44 449 44 440 44 440 C44 440 56 438 56 438 C94 430 119 398 119 359 C119 359 119 80 119 80 C119 52 83 15 56 15 C56 15 44 15 44 15 C44 15 44 0 44 0 C44 0 119 0 119 0 C119 0 177 0 177 0 C177 0 234 0 234 0 C234 0 309 0 309 0 C310 0 310 4 309 8 C310 11 310 15 309 15 C309 15 298 15 298 15 C271 15 235 52 234 80 C234 80 234 390 234 390 C234 390 234 414 234 414 C254 421 294 428 322 428 C365 428 406 370 406 326 C406 326 406 80 406 80 C406 52 370 15 342 15 C342 15 331 15 331 15 C331 15 331 0 331 0 C331 0 406 0 406 0 C406 0 464 0 464 0 C464 0 521 0 521 0 C521 0 596 0 596 0 C596 0 596 15 596 15 L596 15 Z " />
<glyph glyph-name="ograve" unicode="&#xf2;" horiz-adv-x="606" d="M303 21 C250 21 178 152 178 250 C178 348 250 479 303 479 C357 479 429 348 429 250 C429 152 357 21 303 21 L303 21 Z M50 250 C50 141 195 -5 303 -5 C412 -5 557 141 557 250 C557 359 412 505 303 505 C195 505 50 359 50 250 L50 250 Z M314 699 C305 721 289 749 285 749 C271 749 219 711 219 701 C219 696 240 670 256 654 C256 654 375 530 375 530 C375 530 388 539 388 539 C388 539 314 699 314 699 L314 699 Z " />
<glyph glyph-name="oacute" unicode="&#xf3;" horiz-adv-x="606" d="M273 530 C273 530 390 654 390 654 C405 670 425 696 425 701 C425 711 374 749 360 749 C357 749 341 721 331 699 C331 699 260 539 260 539 C260 539 273 530 273 530 L273 530 Z M303 21 C250 21 178 152 178 250 C178 348 250 479 303 479 C357 479 429 348 429 250 C429 152 357 21 303 21 L303 21 Z M50 250 C50 141 195 -5 303 -5 C412 -5 557 141 557 250 C557 359 412 505 303 505 C195 505 50 359 50 250 L50 250 Z " />
<glyph glyph-name="ocircumflex" unicode="&#xf4;" horiz-adv-x="606" d="M303 21 C250 21 178 152 178 250 C178 348 250 479 303 479 C357 479 429 348 429 250 C429 152 357 21 303 21 L303 21 Z M50 250 C50 141 195 -5 303 -5 C412 -5 557 141 557 250 C557 359 412 505 303 505 C195 505 50 359 50 250 L50 250 Z M304 640 C304 640 414 531 414 531 C414 531 426 541 426 541 C426 541 340 712 340 712 C337 719 317 744 303 744 C290 744 270 719 267 712 C267 712 181 541 181 541 C181 541 193 531 193 531 C193 531 304 640 304 640 L304 640 Z " />
<glyph glyph-name="otilde" unicode="&#xf5;" horiz-adv-x="606" d="M164 595 C164 619 186 651 203 651 C244 651 331 588 373 588 C411 588 462 666 462 725 C462 725 443 725 443 725 C443 699 417 665 397 665 C356 665 269 727 228 727 C193 727 145 651 145 595 C145 595 164 595 164 595 L164 595 Z M303 21 C250 21 178 152 178 250 C178 348 250 479 303 479 C357 479 429 348 429 250 C429 152 357 21 303 21 L303 21 Z M50 250 C50 141 195 -5 303 -5 C412 -5 557 141 557 250 C557 359 412 505 303 505 C195 505 50 359 50 250 L50 250 Z " />
<glyph glyph-name="odieresis" unicode="&#xf6;" horiz-adv-x="606" d="M404 570 C434 570 474 610 474 640 C474 671 434 711 404 711 C374 711 333 671 333 640 C333 610 374 570 404 570 L404 570 Z M203 570 C233 570 273 610 273 640 C273 671 233 711 203 711 C173 711 133 671 133 640 C133 610 173 570 203 570 L203 570 Z M303 21 C250 21 178 152 178 250 C178 348 250 479 303 479 C357 479 429 348 429 250 C429 152 357 21 303 21 L303 21 Z M50 250 C50 141 195 -5 303 -5 C412 -5 557 141 557 250 C557 359 412 505 303 505 C195 505 50 359 50 250 L50 250 Z " />
<glyph glyph-name="oslash" unicode="&#xf8;" horiz-adv-x="606" d="M64 -19 C64 -19 150 68 150 68 C198 25 254 -5 303 -5 C412 -5 557 141 557 250 C557 299 527 356 484 404 C484 404 571 491 571 491 C571 491 543 519 543 519 C543 519 457 432 457 432 C409 475 352 505 303 505 C195 505 50 359 50 250 C50 201 80 144 122 96 C122 96 36 9 36 9 C36 9 64 -19 64 -19 L64 -19 Z M303 21 C272 21 233 67 207 125 C207 125 415 334 415 334 C424 306 429 277 429 250 C429 152 357 21 303 21 L303 21 Z M192 166 C183 194 178 223 178 250 C178 348 250 479 303 479 C335 479 374 433 399 375 C399 375 192 166 192 166 L192 166 Z " />
<glyph glyph-name="ugrave" unicode="&#xf9;" horiz-adv-x="601" d="M566 60 C566 60 555 62 555 62 C517 71 491 102 491 141 C491 141 491 500 491 500 C491 500 434 500 434 500 C434 500 376 500 376 500 C376 500 301 500 301 500 C301 500 301 485 301 485 C301 485 312 485 312 485 C340 485 376 448 376 420 C376 420 376 110 376 110 C376 110 376 92 376 92 C361 82 331 71 311 71 C261 71 204 125 204 166 C204 166 204 500 204 500 C204 500 147 500 147 500 C147 500 89 500 89 500 C89 500 14 500 14 500 C14 500 14 485 14 485 C14 485 26 485 26 485 C53 485 89 448 89 420 C89 420 89 420 89 420 C89 420 90 154 90 154 C90 86 159 -5 221 -5 C257 -5 332 37 376 74 C376 74 376 30 376 30 C376 30 376 0 376 0 C376 0 399 0 399 0 C399 0 566 51 566 51 C566 51 566 60 566 60 L566 60 Z M301 699 C292 721 275 749 272 749 C258 749 206 711 206 701 C206 696 227 670 243 654 C243 654 362 530 362 530 C362 530 375 539 375 539 C375 539 301 699 301 699 L301 699 Z " />
<glyph glyph-name="uacute" unicode="&#xfa;" horiz-adv-x="601" d="M260 530 C260 530 377 654 377 654 C392 670 412 696 412 701 C412 711 360 749 346 749 C343 749 328 721 318 699 C318 699 247 539 247 539 C247 539 260 530 260 530 L260 530 Z M566 60 C566 60 555 62 555 62 C517 71 491 102 491 141 C491 141 491 500 491 500 C491 500 434 500 434 500 C434 500 376 500 376 500 C376 500 301 500 301 500 C301 500 301 485 301 485 C301 485 312 485 312 485 C340 485 376 448 376 420 C376 420 376 110 376 110 C376 110 376 92 376 92 C361 82 331 71 311 71 C261 71 204 125 204 166 C204 166 204 500 204 500 C204 500 147 500 147 500 C147 500 89 500 89 500 C89 500 14 500 14 500 C14 500 14 485 14 485 C14 485 26 485 26 485 C53 485 89 448 89 420 C89 420 89 420 89 420 C89 420 90 154 90 154 C90 86 159 -5 221 -5 C257 -5 332 37 376 74 C376 74 376 30 376 30 C376 30 376 0 376 0 C376 0 399 0 399 0 C399 0 566 51 566 51 C566 51 566 60 566 60 L566 60 Z " />
<glyph glyph-name="ucircumflex" unicode="&#xfb;" horiz-adv-x="601" d="M566 60 C566 60 555 62 555 62 C517 71 491 102 491 141 C491 141 491 500 491 500 C491 500 434 500 434 500 C434 500 376 500 376 500 C376 500 301 500 301 500 C301 500 301 485 301 485 C301 485 312 485 312 485 C340 485 376 448 376 420 C376 420 376 110 376 110 C376 110 376 92 376 92 C361 82 331 71 311 71 C261 71 204 125 204 166 C204 166 204 500 204 500 C204 500 147 500 147 500 C147 500 89 500 89 500 C89 500 14 500 14 500 C14 500 14 485 14 485 C14 485 26 485 26 485 C53 485 89 448 89 420 C89 420 89 420 89 420 C89 420 90 154 90 154 C90 86 159 -5 221 -5 C257 -5 332 37 376 74 C376 74 376 30 376 30 C376 30 376 0 376 0 C376 0 399 0 399 0 C399 0 566 51 566 51 C566 51 566 60 566 60 L566 60 Z M291 639 C291 639 401 531 401 531 C401 531 412 541 412 541 C412 541 327 712 327 712 C324 719 304 744 290 744 C277 744 257 719 254 712 C254 712 168 541 168 541 C168 541 180 531 180 531 C180 531 291 639 291 639 L291 639 Z " />
<glyph glyph-name="udieresis" unicode="&#xfc;" horiz-adv-x="601" d="M391 570 C421 570 461 610 461 640 C461 671 421 711 391 711 C360 711 320 671 320 640 C320 610 360 570 391 570 L391 570 Z M190 570 C220 570 260 610 260 640 C260 671 220 711 190 711 C160 711 120 671 120 640 C120 610 160 570 190 570 L190 570 Z M566 60 C566 60 555 62 555 62 C517 71 491 102 491 141 C491 141 491 500 491 500 C491 500 434 500 434 500 C434 500 376 500 376 500 C376 500 301 500 301 500 C301 500 301 485 301 485 C301 485 312 485 312 485 C340 485 376 448 376 420 C376 420 376 110 376 110 C376 110 376 92 376 92 C361 82 331 71 311 71 C261 71 204 125 204 166 C204 166 204 500 204 500 C204 500 147 500 147 500 C147 500 89 500 89 500 C89 500 14 500 14 500 C14 500 14 485 14 485 C14 485 26 485 26 485 C53 485 89 448 89 420 C89 420 89 420 89 420 C89 420 90 154 90 154 C90 86 159 -5 221 -5 C257 -5 332 37 376 74 C376 74 376 30 376 30 C376 30 376 0 376 0 C376 0 399 0 399 0 C399 0 566 51 566 51 C566 51 566 60 566 60 L566 60 Z " />
<glyph glyph-name="ydieresis" unicode="&#xff;" horiz-adv-x="536" d="M388 570 C419 570 459 610 459 640 C459 671 419 711 388 711 C358 711 318 671 318 640 C318 610 358 570 388 570 L388 570 Z M188 570 C218 570 258 610 258 640 C258 671 218 711 188 711 C158 711 118 671 118 640 C118 610 158 570 188 570 L188 570 Z M592 500 C592 500 523 500 523 500 C523 500 504 500 504 500 C504 500 485 500 485 500 C485 500 410 500 410 500 C410 500 410 485 410 485 C410 485 420 485 420 485 C445 485 464 448 453 420 C453 420 453 420 453 420 C453 420 341 137 341 137 C341 137 217 426 217 426 C209 453 227 485 249 485 C249 485 260 485 260 485 C260 485 260 500 260 500 C260 500 185 500 185 500 C185 500 119 500 119 500 C119 500 53 500 53 500 C53 500 -15 500 -15 500 C-15 500 -15 485 -15 485 C-15 485 -4 485 -4 485 C24 485 77 448 89 420 C89 420 89 420 89 420 C89 420 276 6 276 6 C276 6 245 -62 245 -62 C225 -109 182 -154 157 -154 C136 -154 90 -129 69 -129 C44 -129 11 -157 11 -178 C11 -200 54 -230 86 -230 C148 -230 240 -153 276 -72 C276 -72 302 -10 302 -10 C302 -10 488 420 488 420 C488 420 489 420 489 420 C501 448 553 485 581 485 C581 485 592 485 592 485 C592 485 592 500 592 500 L592 500 Z " />
<glyph glyph-name="Amacron" unicode="&#x100;" horiz-adv-x="708" d="M181 761 C181 761 481 761 481 761 C481 761 481 825 481 825 C481 825 181 825 181 825 C181 825 181 761 181 761 L181 761 Z M703 15 C703 15 693 15 693 15 C669 15 620 52 608 80 C608 80 608 80 608 80 C608 80 347 675 347 675 C347 675 315 675 315 675 C315 675 93 74 93 74 C79 47 33 15 8 15 C8 15 -3 15 -3 15 C-3 15 -3 0 -3 0 C-3 0 66 0 66 0 C66 0 88 0 88 0 C88 0 109 0 109 0 C109 0 219 0 219 0 C219 0 219 15 219 15 C219 15 194 15 194 15 C162 15 134 56 140 89 C140 89 191 232 191 232 C191 232 406 232 406 232 C406 232 470 80 470 80 C470 80 470 80 470 80 C482 52 460 15 432 15 C432 15 400 15 400 15 C400 15 400 0 400 0 C400 0 504 0 504 0 C504 0 573 0 573 0 C573 0 643 0 643 0 C643 0 703 0 703 0 C703 0 703 15 703 15 L703 15 Z M392 264 C392 264 202 264 202 264 C202 264 289 509 289 509 C289 509 392 264 392 264 L392 264 Z " />
<glyph glyph-name="amacron" unicode="&#x101;" horiz-adv-x="589" d="M74 601 C74 601 374 601 374 601 C374 601 374 665 374 665 C374 665 74 665 74 665 C74 665 74 601 74 601 L74 601 Z M554 60 C554 60 543 62 543 62 C505 71 479 102 479 141 C479 141 479 500 479 500 C479 500 447 500 447 500 C447 500 386 426 386 426 C362 461 303 505 269 505 C177 505 54 341 54 219 C54 123 151 -5 224 -5 C255 -5 324 48 364 98 C364 98 364 0 364 0 C364 0 364 -5 364 -5 C364 -5 383 -5 383 -5 C383 -5 447 18 447 18 C447 18 554 51 554 51 C554 51 554 60 554 60 L554 60 Z M364 120 C344 94 305 65 288 65 C239 65 174 178 174 263 C174 353 225 474 264 474 C295 474 354 428 364 400 C364 400 364 120 364 120 L364 120 Z " />
<glyph glyph-name="Abreve" unicode="&#x102;" horiz-adv-x="708" d="M199 870 C223 813 299 736 331 736 C363 736 439 813 463 870 C463 870 444 878 444 878 C432 850 367 812 331 812 C294 812 229 850 217 878 C217 878 199 870 199 870 L199 870 Z M703 15 C703 15 693 15 693 15 C669 15 620 52 608 80 C608 80 608 80 608 80 C608 80 347 675 347 675 C347 675 315 675 315 675 C315 675 93 74 93 74 C79 47 33 15 8 15 C8 15 -3 15 -3 15 C-3 15 -3 0 -3 0 C-3 0 66 0 66 0 C66 0 88 0 88 0 C88 0 109 0 109 0 C109 0 219 0 219 0 C219 0 219 15 219 15 C219 15 194 15 194 15 C162 15 134 56 140 89 C140 89 191 232 191 232 C191 232 406 232 406 232 C406 232 470 80 470 80 C470 80 470 80 470 80 C482 52 460 15 432 15 C432 15 400 15 400 15 C400 15 400 0 400 0 C400 0 504 0 504 0 C504 0 573 0 573 0 C573 0 643 0 643 0 C643 0 703 0 703 0 C703 0 703 15 703 15 L703 15 Z M392 264 C392 264 202 264 202 264 C202 264 289 509 289 509 C289 509 392 264 392 264 L392 264 Z " />
<glyph glyph-name="abreve" unicode="&#x103;" horiz-adv-x="589" d="M92 680 C116 623 192 546 224 546 C256 546 332 623 357 680 C357 680 338 688 338 688 C326 660 261 622 224 622 C188 622 123 660 111 688 C111 688 92 680 92 680 L92 680 Z M554 60 C554 60 543 62 543 62 C505 71 479 102 479 141 C479 141 479 500 479 500 C479 500 447 500 447 500 C447 500 386 426 386 426 C362 461 303 505 269 505 C177 505 54 341 54 219 C54 123 151 -5 224 -5 C255 -5 324 48 364 98 C364 98 364 0 364 0 C364 0 364 -5 364 -5 C364 -5 383 -5 383 -5 C383 -5 447 18 447 18 C447 18 554 51 554 51 C554 51 554 60 554 60 L554 60 Z M364 120 C344 94 305 65 288 65 C239 65 174 178 174 263 C174 353 225 474 264 474 C295 474 354 428 364 400 C364 400 364 120 364 120 L364 120 Z " />
<glyph glyph-name="Aogonek" unicode="&#x104;" horiz-adv-x="708" d="M703 15 C703 15 693 15 693 15 C669 15 620 52 608 80 C608 80 608 80 608 80 C608 80 347 675 347 675 C347 675 315 675 315 675 C315 675 93 74 93 74 C79 47 33 15 8 15 C8 15 -3 15 -3 15 C-3 15 -3 0 -3 0 C-3 0 66 0 66 0 C66 0 88 0 88 0 C88 0 109 0 109 0 C109 0 219 0 219 0 C219 0 219 15 219 15 C219 15 194 15 194 15 C162 15 134 56 140 89 C140 89 191 232 191 232 C191 232 406 232 406 232 C406 232 470 80 470 80 C470 80 470 80 470 80 C482 52 460 15 432 15 C432 15 400 15 400 15 C400 15 400 0 400 0 C400 0 462 0 462 0 C409 -40 331 -115 331 -152 C331 -188 410 -236 469 -236 C494 -236 543 -217 555 -202 C555 -202 547 -193 547 -193 C543 -197 513 -204 494 -204 C455 -204 401 -167 401 -140 C401 -96 482 -8 504 0 C504 0 573 0 573 0 C573 0 643 0 643 0 C643 0 703 0 703 0 C703 0 703 15 703 15 L703 15 Z M392 264 C392 264 202 264 202 264 C202 264 289 509 289 509 C289 509 392 264 392 264 L392 264 Z " />
<glyph glyph-name="aogonek" unicode="&#x105;" horiz-adv-x="511" d="M490 64 C488 61 483 58 478 55 C478 55 478 55 478 55 C475 54 470 52 466 49 C459 47 452 45 445 45 C423 45 405 84 405 112 C405 112 405 352 405 352 C405 417 323 505 263 505 C181 505 59 438 49 388 C49 388 164 388 164 388 C171 424 213 473 237 473 C257 473 284 419 284 378 C284 378 284 262 284 262 C284 262 217 252 217 252 C140 240 36 156 36 105 C36 58 104 -5 154 -5 C193 -5 252 19 295 49 C310 17 336 -10 366 -10 C375 -10 385 -9 394 -7 C349 -49 305 -102 305 -132 C305 -177 384 -236 443 -236 C468 -236 517 -217 529 -202 C529 -202 521 -193 521 -193 C517 -197 487 -204 468 -204 C428 -204 375 -156 375 -120 C375 -83 423 -18 456 13 C478 24 495 37 503 48 C503 48 490 64 490 64 L490 64 Z M283 232 C283 232 283 100 283 100 C283 95 283 90 284 84 C260 77 233 72 212 72 C186 72 150 110 150 138 C150 164 188 209 217 216 C217 216 283 232 283 232 L283 232 Z " />
<glyph glyph-name="Cacute" unicode="&#x106;" horiz-adv-x="731" d="M373 690 C373 690 490 814 490 814 C505 830 525 856 525 861 C525 871 474 909 460 909 C456 909 441 881 431 859 C431 859 361 699 361 699 C361 699 373 690 373 690 L373 690 Z M672 453 C672 453 672 607 672 607 C629 632 484 665 419 665 C258 665 42 473 42 330 C42 187 258 -5 419 -5 C484 -5 629 28 672 53 C672 53 672 207 672 207 C672 207 659 207 659 207 C656 199 648 178 646 170 C627 118 520 41 452 29 C439 28 428 27 419 27 C317 27 182 200 182 330 C182 460 317 633 419 633 C437 633 461 630 487 626 C540 613 628 538 646 490 C648 482 656 461 659 453 C659 453 672 453 672 453 L672 453 Z " />
<glyph glyph-name="cacute" unicode="&#x107;" horiz-adv-x="521" d="M230 530 C230 530 346 654 346 654 C362 670 382 696 382 701 C382 711 330 749 316 749 C313 749 297 721 288 699 C288 699 217 539 217 539 C217 539 230 530 230 530 L230 530 Z M471 79 C471 79 461 91 461 91 C447 80 388 65 357 65 C278 65 172 184 172 273 C172 359 241 473 293 473 C320 473 361 434 363 404 C365 380 398 348 421 348 C443 348 472 377 472 399 C468 444 373 505 306 505 C196 505 50 347 50 229 C50 129 171 -5 261 -5 C308 -5 429 43 471 79 L471 79 Z " />
<glyph glyph-name="Ccircumflex" unicode="&#x108;" horiz-adv-x="731" d="M672 453 C672 453 672 607 672 607 C629 632 484 665 419 665 C258 665 42 473 42 330 C42 187 258 -5 419 -5 C484 -5 629 28 672 53 C672 53 672 207 672 207 C672 207 659 207 659 207 C656 199 648 178 646 170 C627 118 520 41 452 29 C439 28 428 27 419 27 C317 27 182 200 182 330 C182 460 317 633 419 633 C437 633 461 630 487 626 C540 613 628 538 646 490 C648 482 656 461 659 453 C659 453 672 453 672 453 L672 453 Z M419 800 C419 800 529 691 529 691 C529 691 541 701 541 701 C541 701 455 872 455 872 C452 879 432 904 419 904 C405 904 386 879 382 872 C382 872 297 701 297 701 C297 701 308 691 308 691 C308 691 419 800 419 800 L419 800 Z " />
<glyph glyph-name="Cdotaccent" unicode="&#x10a;" horiz-adv-x="731" d="M419 730 C449 730 489 770 489 800 C489 831 449 871 419 871 C388 871 348 831 348 800 C348 770 388 730 419 730 L419 730 Z M672 453 C672 453 672 607 672 607 C629 632 484 665 419 665 C258 665 42 473 42 330 C42 187 258 -5 419 -5 C484 -5 629 28 672 53 C672 53 672 207 672 207 C672 207 659 207 659 207 C656 199 648 178 646 170 C627 118 520 41 452 29 C439 28 428 27 419 27 C317 27 182 200 182 330 C182 460 317 633 419 633 C437 633 461 630 487 626 C540 613 628 538 646 490 C648 482 656 461 659 453 C659 453 672 453 672 453 L672 453 Z " />
<glyph glyph-name="cdotaccent" unicode="&#x10b;" horiz-adv-x="521" d="M306 570 C336 570 376 610 376 640 C376 671 336 711 306 711 C275 711 235 671 235 640 C235 610 275 570 306 570 L306 570 Z M471 79 C471 79 461 91 461 91 C447 80 388 65 357 65 C278 65 172 184 172 273 C172 359 241 473 293 473 C320 473 361 434 363 404 C365 380 398 348 421 348 C443 348 472 377 472 399 C468 444 373 505 306 505 C196 505 50 347 50 229 C50 129 171 -5 261 -5 C308 -5 429 43 471 79 L471 79 Z " />
<glyph glyph-name="Ccaron" unicode="&#x10c;" horiz-adv-x="731" d="M672 453 C672 453 672 607 672 607 C629 632 484 665 419 665 C258 665 42 473 42 330 C42 187 258 -5 419 -5 C484 -5 629 28 672 53 C672 53 672 207 672 207 C672 207 659 207 659 207 C656 199 648 178 646 170 C627 118 520 41 452 29 C439 28 428 27 419 27 C317 27 182 200 182 330 C182 460 317 633 419 633 C437 633 461 630 487 626 C540 613 628 538 646 490 C648 482 656 461 659 453 C659 453 672 453 672 453 L672 453 Z M419 820 C419 820 529 929 529 929 C529 929 541 919 541 919 C541 919 455 748 455 748 C452 741 432 716 419 716 C405 716 386 741 382 748 C382 748 297 919 297 919 C297 919 308 929 308 929 C308 929 419 820 419 820 L419 820 Z " />
<glyph glyph-name="ccaron" unicode="&#x10d;" horiz-adv-x="521" d="M471 79 C471 79 461 91 461 91 C447 80 388 65 357 65 C278 65 172 184 172 273 C172 359 241 473 293 473 C320 473 361 434 363 404 C365 380 398 348 421 348 C443 348 472 377 472 399 C468 444 373 505 306 505 C196 505 50 347 50 229 C50 129 171 -5 261 -5 C308 -5 429 43 471 79 L471 79 Z M306 660 C306 660 416 769 416 769 C416 769 428 759 428 759 C428 759 343 588 343 588 C339 581 319 556 306 556 C292 556 273 581 269 588 C269 588 184 759 184 759 C184 759 195 769 195 769 C195 769 306 660 306 660 L306 660 Z " />
<glyph glyph-name="Dcaron" unicode="&#x10e;" horiz-adv-x="766" d="M33 645 C33 645 44 645 44 645 C72 645 108 608 108 580 C108 580 108 80 108 80 C108 52 72 15 44 15 C44 15 33 15 33 15 C33 15 33 0 33 0 C33 0 108 0 108 0 C108 0 172 0 172 0 C172 0 236 0 236 0 C236 0 377 0 377 0 C522 0 717 189 717 330 C717 471 502 660 342 660 C342 660 236 660 236 660 C236 660 172 660 172 660 C172 660 108 660 108 660 C108 660 33 660 33 660 C33 660 33 645 33 645 L33 645 Z M349 820 C349 820 459 929 459 929 C459 929 471 919 471 919 C471 919 385 748 385 748 C382 741 362 716 348 716 C335 716 315 741 312 748 C312 748 226 919 226 919 C226 919 238 929 238 929 C238 929 349 820 349 820 L349 820 Z M236 32 C236 32 236 628 236 628 C236 628 342 628 342 628 C447 628 589 457 589 330 C589 203 468 32 377 32 C377 32 236 32 236 32 L236 32 Z " />
<glyph glyph-name="dcaron" unicode="&#x10f;" horiz-adv-x="611" d="M576 60 C576 60 565 62 565 62 C527 71 501 102 501 141 C501 141 501 610 501 610 C501 610 501 690 501 690 C501 690 501 720 501 720 C501 720 478 720 478 720 C478 720 311 669 311 669 C311 669 311 660 311 660 C311 660 322 658 322 658 C360 650 386 618 386 579 C386 579 386 458 386 458 C355 483 315 505 288 505 C188 505 54 341 54 219 C54 123 162 -5 243 -5 C272 -5 345 31 386 62 C386 62 386 30 386 30 C386 30 386 0 386 0 C386 0 409 0 409 0 C409 0 576 51 576 51 C576 51 576 60 576 60 L576 60 Z M645 616 C665 650 692 719 692 725 C692 738 635 751 620 751 C603 751 578 675 573 643 C573 643 547 477 547 477 C547 477 562 472 562 472 C562 472 645 616 645 616 L645 616 Z M386 110 C386 110 386 81 386 81 C369 74 330 65 306 65 C250 65 174 178 174 263 C174 353 236 474 283 474 C312 474 360 444 386 415 C386 415 386 110 386 110 L386 110 Z " />
<glyph glyph-name="Emacron" unicode="&#x112;" horiz-adv-x="652" d="M171 761 C171 761 471 761 471 761 C471 761 471 825 471 825 C471 825 171 825 171 825 C171 825 171 761 171 761 L171 761 Z M473 251 C473 251 473 336 473 336 C473 336 473 352 473 352 C473 352 473 368 473 368 C473 368 473 443 473 443 C473 443 461 443 461 443 C461 443 457 432 457 432 C449 404 389 368 353 368 C353 368 243 368 243 368 C243 368 243 628 243 628 C243 628 388 628 388 628 C431 628 507 571 521 528 C521 528 532 493 532 493 C532 493 543 493 543 493 C543 493 543 644 543 644 C543 644 543 660 543 660 C543 660 528 660 528 660 C528 660 463 660 463 660 C463 660 243 660 243 660 C243 660 179 660 179 660 C179 660 115 660 115 660 C115 660 40 660 40 660 C40 660 40 645 40 645 C40 645 51 645 51 645 C79 645 115 608 115 580 C115 580 115 80 115 80 C115 52 79 15 51 15 C51 15 40 15 40 15 C40 15 40 0 40 0 C40 0 115 0 115 0 C115 0 179 0 179 0 C179 0 243 0 243 0 C243 0 462 0 462 0 C462 0 538 0 538 0 C538 0 542 0 542 0 C543 3 545 13 545 16 C551 48 566 135 572 167 C572 167 561 167 561 167 C561 167 543 132 543 132 C522 89 436 32 393 32 C393 32 243 32 243 32 C243 32 243 336 243 336 C243 336 353 336 353 336 C389 336 449 295 457 264 C457 264 461 251 461 251 C461 251 473 251 473 251 L473 251 Z " />
<glyph glyph-name="emacron" unicode="&#x113;" horiz-adv-x="527" d="M135 601 C135 601 435 601 435 601 C435 601 435 665 435 665 C435 665 135 665 135 665 C135 665 135 601 135 601 L135 601 Z M477 79 C477 79 467 91 467 91 C453 80 392 65 360 65 C280 65 172 184 172 273 C172 282 173 291 174 300 C174 300 478 300 478 300 C478 387 368 505 285 505 C185 505 50 347 50 229 C50 129 172 -5 264 -5 C313 -5 435 43 477 79 L477 79 Z M178 322 C194 397 241 473 279 473 C318 473 371 429 371 396 C371 396 371 395 371 395 C370 373 341 341 318 336 C318 336 178 322 178 322 L178 322 Z " />
<glyph glyph-name="Ebreve" unicode="&#x114;" horiz-adv-x="652" d="M189 870 C213 813 289 736 321 736 C354 736 429 813 454 870 C454 870 435 878 435 878 C423 850 358 812 321 812 C285 812 220 850 208 878 C208 878 189 870 189 870 L189 870 Z M473 251 C473 251 473 336 473 336 C473 336 473 352 473 352 C473 352 473 368 473 368 C473 368 473 443 473 443 C473 443 461 443 461 443 C461 443 457 432 457 432 C449 404 389 368 353 368 C353 368 243 368 243 368 C243 368 243 628 243 628 C243 628 388 628 388 628 C431 628 507 571 521 528 C521 528 532 493 532 493 C532 493 543 493 543 493 C543 493 543 644 543 644 C543 644 543 660 543 660 C543 660 528 660 528 660 C528 660 463 660 463 660 C463 660 243 660 243 660 C243 660 179 660 179 660 C179 660 115 660 115 660 C115 660 40 660 40 660 C40 660 40 645 40 645 C40 645 51 645 51 645 C79 645 115 608 115 580 C115 580 115 80 115 80 C115 52 79 15 51 15 C51 15 40 15 40 15 C40 15 40 0 40 0 C40 0 115 0 115 0 C115 0 179 0 179 0 C179 0 243 0 243 0 C243 0 462 0 462 0 C462 0 538 0 538 0 C538 0 542 0 542 0 C543 3 545 13 545 16 C551 48 566 135 572 167 C572 167 561 167 561 167 C561 167 543 132 543 132 C522 89 436 32 393 32 C393 32 243 32 243 32 C243 32 243 336 243 336 C243 336 353 336 353 336 C389 336 449 295 457 264 C457 264 461 251 461 251 C461 251 473 251 473 251 L473 251 Z " />
<glyph glyph-name="ebreve" unicode="&#x115;" horiz-adv-x="527" d="M153 710 C177 653 253 576 285 576 C317 576 393 653 417 710 C417 710 398 718 398 718 C386 690 321 652 285 652 C248 652 183 690 172 718 C172 718 153 710 153 710 L153 710 Z M477 79 C477 79 467 91 467 91 C453 80 392 65 360 65 C280 65 172 184 172 273 C172 282 173 291 174 300 C174 300 478 300 478 300 C478 387 368 505 285 505 C185 505 50 347 50 229 C50 129 172 -5 264 -5 C313 -5 435 43 477 79 L477 79 Z M178 322 C194 397 241 473 279 473 C318 473 371 429 371 396 C371 396 371 395 371 395 C370 373 341 341 318 336 C318 336 178 322 178 322 L178 322 Z " />
<glyph glyph-name="Edotaccent" unicode="&#x116;" horiz-adv-x="652" d="M321 730 C352 730 392 770 392 800 C392 831 352 871 321 871 C291 871 251 831 251 800 C251 770 291 730 321 730 L321 730 Z M473 251 C473 251 473 336 473 336 C473 336 473 352 473 352 C473 352 473 368 473 368 C473 368 473 443 473 443 C473 443 461 443 461 443 C461 443 457 432 457 432 C449 404 389 368 353 368 C353 368 243 368 243 368 C243 368 243 628 243 628 C243 628 388 628 388 628 C431 628 507 571 521 528 C521 528 532 493 532 493 C532 493 543 493 543 493 C543 493 543 644 543 644 C543 644 543 660 543 660 C543 660 528 660 528 660 C528 660 463 660 463 660 C463 660 243 660 243 660 C243 660 179 660 179 660 C179 660 115 660 115 660 C115 660 40 660 40 660 C40 660 40 645 40 645 C40 645 51 645 51 645 C79 645 115 608 115 580 C115 580 115 80 115 80 C115 52 79 15 51 15 C51 15 40 15 40 15 C40 15 40 0 40 0 C40 0 115 0 115 0 C115 0 179 0 179 0 C179 0 243 0 243 0 C243 0 462 0 462 0 C462 0 538 0 538 0 C538 0 542 0 542 0 C543 3 545 13 545 16 C551 48 566 135 572 167 C572 167 561 167 561 167 C561 167 543 132 543 132 C522 89 436 32 393 32 C393 32 243 32 243 32 C243 32 243 336 243 336 C243 336 353 336 353 336 C389 336 449 295 457 264 C457 264 461 251 461 251 C461 251 473 251 473 251 L473 251 Z " />
<glyph glyph-name="edotaccent" unicode="&#x117;" horiz-adv-x="527" d="M285 570 C315 570 355 610 355 640 C355 671 315 711 285 711 C255 711 215 671 215 640 C215 610 255 570 285 570 L285 570 Z M477 79 C477 79 467 91 467 91 C453 80 392 65 360 65 C280 65 172 184 172 273 C172 282 173 291 174 300 C174 300 478 300 478 300 C478 387 368 505 285 505 C185 505 50 347 50 229 C50 129 172 -5 264 -5 C313 -5 435 43 477 79 L477 79 Z M178 322 C194 397 241 473 279 473 C318 473 371 429 371 396 C371 396 371 395 371 395 C370 373 341 341 318 336 C318 336 178 322 178 322 L178 322 Z " />
<glyph glyph-name="Eogonek" unicode="&#x118;" horiz-adv-x="652" d="M473 251 C473 251 473 336 473 336 C473 336 473 352 473 352 C473 352 473 368 473 368 C473 368 473 443 473 443 C473 443 461 443 461 443 C461 443 457 432 457 432 C449 404 389 368 353 368 C353 368 243 368 243 368 C243 368 243 628 243 628 C243 628 388 628 388 628 C431 628 507 571 521 528 C521 528 532 493 532 493 C532 493 543 493 543 493 C543 493 543 644 543 644 C543 644 543 660 543 660 C543 660 528 660 528 660 C528 660 463 660 463 660 C463 660 243 660 243 660 C243 660 179 660 179 660 C179 660 115 660 115 660 C115 660 40 660 40 660 C40 660 40 645 40 645 C40 645 51 645 51 645 C79 645 115 608 115 580 C115 580 115 80 115 80 C115 52 79 15 51 15 C51 15 40 15 40 15 C40 15 40 0 40 0 C40 0 115 0 115 0 C115 0 179 0 179 0 C179 0 243 0 243 0 C243 0 462 0 462 0 C462 0 496 0 496 0 C443 -40 365 -115 365 -152 C365 -188 444 -236 503 -236 C528 -236 577 -217 589 -202 C589 -202 581 -193 581 -193 C577 -197 547 -204 528 -204 C488 -204 435 -167 435 -140 C435 -96 516 -8 538 0 C538 0 542 0 542 0 C543 3 545 13 545 16 C551 48 566 135 572 167 C572 167 561 167 561 167 C561 167 543 132 543 132 C522 89 436 32 393 32 C393 32 243 32 243 32 C243 32 243 336 243 336 C243 336 353 336 353 336 C389 336 449 295 457 264 C457 264 461 251 461 251 C461 251 473 251 473 251 L473 251 Z " />
<glyph glyph-name="eogonek" unicode="&#x119;" horiz-adv-x="527" d="M327 7 C327 7 327 7 327 7 C382 24 448 54 477 79 C477 79 467 91 467 91 C453 80 392 65 360 65 C280 65 172 184 172 273 C172 282 173 291 174 300 C174 300 478 300 478 300 C478 387 368 505 285 505 C185 505 50 347 50 229 C50 129 172 -5 264 -5 C266 -5 269 -5 271 -5 C219 -47 154 -113 154 -148 C154 -185 233 -236 292 -236 C317 -236 366 -217 378 -202 C378 -202 370 -193 370 -193 C366 -197 336 -204 317 -204 C277 -204 224 -165 224 -135 C224 -90 305 -1 327 7 L327 7 Z M178 322 C194 397 241 473 279 473 C318 473 371 429 371 396 C371 396 371 395 371 395 C370 373 341 341 318 336 C318 336 178 322 178 322 L178 322 Z " />
<glyph glyph-name="Ecaron" unicode="&#x11a;" horiz-adv-x="652" d="M473 251 C473 251 473 336 473 336 C473 336 473 352 473 352 C473 352 473 368 473 368 C473 368 473 443 473 443 C473 443 461 443 461 443 C461 443 457 432 457 432 C449 404 389 368 353 368 C353 368 243 368 243 368 C243 368 243 628 243 628 C243 628 388 628 388 628 C431 628 507 571 521 528 C521 528 532 493 532 493 C532 493 543 493 543 493 C543 493 543 644 543 644 C543 644 543 660 543 660 C543 660 528 660 528 660 C528 660 463 660 463 660 C463 660 243 660 243 660 C243 660 179 660 179 660 C179 660 115 660 115 660 C115 660 40 660 40 660 C40 660 40 645 40 645 C40 645 51 645 51 645 C79 645 115 608 115 580 C115 580 115 80 115 80 C115 52 79 15 51 15 C51 15 40 15 40 15 C40 15 40 0 40 0 C40 0 115 0 115 0 C115 0 179 0 179 0 C179 0 243 0 243 0 C243 0 462 0 462 0 C462 0 538 0 538 0 C538 0 542 0 542 0 C543 3 545 13 545 16 C551 48 566 135 572 167 C572 167 561 167 561 167 C561 167 543 132 543 132 C522 89 436 32 393 32 C393 32 243 32 243 32 C243 32 243 336 243 336 C243 336 353 336 353 336 C389 336 449 295 457 264 C457 264 461 251 461 251 C461 251 473 251 473 251 L473 251 Z M322 820 C322 820 432 929 432 929 C432 929 443 919 443 919 C443 919 358 748 358 748 C355 741 335 716 321 716 C308 716 288 741 285 748 C285 748 199 919 199 919 C199 919 211 929 211 929 C211 929 322 820 322 820 L322 820 Z " />
<glyph glyph-name="ecaron" unicode="&#x11b;" horiz-adv-x="527" d="M477 79 C477 79 467 91 467 91 C453 80 392 65 360 65 C280 65 172 184 172 273 C172 282 173 291 174 300 C174 300 478 300 478 300 C478 387 368 505 285 505 C185 505 50 347 50 229 C50 129 172 -5 264 -5 C313 -5 435 43 477 79 L477 79 Z M285 661 C285 661 395 769 395 769 C395 769 407 759 407 759 C407 759 322 588 322 588 C318 581 298 556 285 556 C272 556 252 581 249 588 C249 588 163 759 163 759 C163 759 175 769 175 769 C175 769 285 661 285 661 L285 661 Z M178 322 C194 397 241 473 279 473 C318 473 371 429 371 396 C371 396 371 395 371 395 C370 373 341 341 318 336 C318 336 178 322 178 322 L178 322 Z " />
<glyph glyph-name="Gcircumflex" unicode="&#x11c;" horiz-adv-x="827" d="M732 310 C732 310 657 310 657 310 C657 310 600 310 600 310 C600 310 542 310 542 310 C542 310 467 310 467 310 C467 310 467 295 467 295 C467 295 478 295 478 295 C506 295 542 258 542 230 C542 230 542 48 542 48 C494 36 440 27 409 27 C312 27 182 200 182 330 C182 460 312 633 409 633 C424 633 445 631 468 627 C521 614 608 539 626 490 C628 482 636 461 639 453 C639 453 652 453 652 453 C652 453 652 607 652 607 C609 632 470 665 409 665 C252 665 42 473 42 330 C42 187 252 -5 409 -5 C472 -5 614 28 657 53 C657 53 657 230 657 230 C657 258 694 295 721 295 C721 295 732 295 732 295 C732 295 732 310 732 310 L732 310 Z M409 800 C409 800 519 691 519 691 C519 691 531 701 531 701 C531 701 445 872 445 872 C442 879 422 904 409 904 C395 904 376 879 372 872 C372 872 287 701 287 701 C287 701 298 691 298 691 C298 691 409 800 409 800 L409 800 Z " />
<glyph glyph-name="Gbreve" unicode="&#x11e;" horiz-adv-x="827" d="M276 870 C301 813 377 736 409 736 C441 736 517 813 541 870 C541 870 522 878 522 878 C510 850 445 812 409 812 C372 812 307 850 295 878 C295 878 276 870 276 870 L276 870 Z M732 310 C732 310 657 310 657 310 C657 310 600 310 600 310 C600 310 542 310 542 310 C542 310 467 310 467 310 C467 310 467 295 467 295 C467 295 478 295 478 295 C506 295 542 258 542 230 C542 230 542 48 542 48 C494 36 440 27 409 27 C312 27 182 200 182 330 C182 460 312 633 409 633 C424 633 445 631 468 627 C521 614 608 539 626 490 C628 482 636 461 639 453 C639 453 652 453 652 453 C652 453 652 607 652 607 C609 632 470 665 409 665 C252 665 42 473 42 330 C42 187 252 -5 409 -5 C472 -5 614 28 657 53 C657 53 657 230 657 230 C657 258 694 295 721 295 C721 295 732 295 732 295 C732 295 732 310 732 310 L732 310 Z " />
<glyph glyph-name="gbreve" unicode="&#x11f;" horiz-adv-x="478" d="M96 710 C121 653 196 576 228 576 C261 576 336 653 361 710 C361 710 342 718 342 718 C330 690 265 652 228 652 C192 652 127 690 115 718 C115 718 96 710 96 710 L96 710 Z M479 500 C479 500 333 460 333 460 C301 487 262 505 228 505 C154 505 54 414 54 346 C54 297 106 235 163 205 C109 199 41 136 41 89 C41 58 76 23 118 1 C65 -30 16 -91 16 -134 C16 -181 106 -243 173 -243 C295 -243 459 -120 459 -28 C459 24 355 94 278 94 C278 94 189 90 189 90 C159 89 118 114 118 134 C118 157 150 187 173 187 C173 187 228 187 228 187 C303 187 403 278 403 346 C403 370 391 396 372 421 C372 421 479 436 479 436 C479 436 479 500 479 500 L479 500 Z M162 346 C162 403 200 479 228 479 C257 479 295 403 295 346 C295 289 257 212 228 212 C200 212 162 289 162 346 L162 346 Z M146 -10 C163 -16 179 -19 195 -18 C195 -18 247 -15 247 -15 C302 -15 376 -56 376 -86 C376 -140 267 -211 186 -211 C146 -211 93 -159 93 -120 C93 -85 118 -38 146 -10 C146 -10 146 -10 146 -10 L146 -10 Z " />
<glyph glyph-name="Gdotaccent" unicode="&#x120;" horiz-adv-x="827" d="M409 730 C439 730 479 770 479 800 C479 831 439 871 409 871 C378 871 338 831 338 800 C338 770 378 730 409 730 L409 730 Z M732 310 C732 310 657 310 657 310 C657 310 600 310 600 310 C600 310 542 310 542 310 C542 310 467 310 467 310 C467 310 467 295 467 295 C467 295 478 295 478 295 C506 295 542 258 542 230 C542 230 542 48 542 48 C494 36 440 27 409 27 C312 27 182 200 182 330 C182 460 312 633 409 633 C424 633 445 631 468 627 C521 614 608 539 626 490 C628 482 636 461 639 453 C639 453 652 453 652 453 C652 453 652 607 652 607 C609 632 470 665 409 665 C252 665 42 473 42 330 C42 187 252 -5 409 -5 C472 -5 614 28 657 53 C657 53 657 230 657 230 C657 258 694 295 721 295 C721 295 732 295 732 295 C732 295 732 310 732 310 L732 310 Z " />
<glyph glyph-name="gdotaccent" unicode="&#x121;" horiz-adv-x="478" d="M228 570 C259 570 299 610 299 640 C299 671 259 711 228 711 C198 711 158 671 158 640 C158 610 198 570 228 570 L228 570 Z M479 500 C479 500 333 460 333 460 C301 487 262 505 228 505 C154 505 54 414 54 346 C54 297 106 235 163 205 C109 199 41 136 41 89 C41 58 76 23 118 1 C65 -30 16 -91 16 -134 C16 -181 106 -243 173 -243 C295 -243 459 -120 459 -28 C459 24 355 94 278 94 C278 94 189 90 189 90 C159 89 118 114 118 134 C118 157 150 187 173 187 C173 187 228 187 228 187 C303 187 403 278 403 346 C403 370 391 396 372 421 C372 421 479 436 479 436 C479 436 479 500 479 500 L479 500 Z M162 346 C162 403 200 479 228 479 C257 479 295 403 295 346 C295 289 257 212 228 212 C200 212 162 289 162 346 L162 346 Z M146 -10 C163 -16 179 -19 195 -18 C195 -18 247 -15 247 -15 C302 -15 376 -56 376 -86 C376 -140 267 -211 186 -211 C146 -211 93 -159 93 -120 C93 -85 118 -38 146 -10 C146 -10 146 -10 146 -10 L146 -10 Z " />
<glyph glyph-name="Hcircumflex" unicode="&#x124;" horiz-adv-x="786" d="M747 660 C747 660 672 660 672 660 C672 660 608 660 608 660 C608 660 544 660 544 660 C544 660 469 660 469 660 C469 660 469 645 469 645 C469 645 480 645 480 645 C508 645 544 608 544 580 C544 580 544 363 544 363 C544 363 243 363 243 363 C243 363 243 580 243 580 C243 608 279 645 307 645 C307 645 318 645 318 645 C318 645 318 660 318 660 C318 660 243 660 243 660 C243 660 179 660 179 660 C179 660 115 660 115 660 C115 660 40 660 40 660 C40 660 40 645 40 645 C40 645 51 645 51 645 C79 645 115 608 115 580 C115 580 115 80 115 80 C115 52 79 15 51 15 C51 15 40 15 40 15 C40 15 40 0 40 0 C40 0 115 0 115 0 C115 0 179 0 179 0 C179 0 243 0 243 0 C243 0 318 0 318 0 C318 0 318 15 318 15 C318 15 307 15 307 15 C279 15 243 52 243 80 C243 80 243 331 243 331 C243 331 544 331 544 331 C544 331 544 80 544 80 C544 52 508 15 480 15 C480 15 469 15 469 15 C469 15 469 0 469 0 C469 0 544 0 544 0 C544 0 608 0 608 0 C608 0 672 0 672 0 C672 0 747 0 747 0 C747 0 747 15 747 15 C747 15 736 15 736 15 C708 15 672 52 672 80 C672 80 672 580 672 580 C672 608 708 645 736 645 C736 645 747 645 747 645 C747 645 747 660 747 660 L747 660 Z M394 800 C394 800 504 691 504 691 C504 691 516 701 516 701 C516 701 430 872 430 872 C427 879 407 904 393 904 C380 904 360 879 357 872 C357 872 271 701 271 701 C271 701 283 691 283 691 C283 691 394 800 394 800 L394 800 Z " />
<glyph glyph-name="Itilde" unicode="&#x128;" horiz-adv-x="357" d="M40 755 C40 779 62 811 79 811 C120 811 207 748 248 748 C286 748 337 826 337 885 C337 885 318 885 318 885 C318 859 292 825 273 825 C232 825 145 887 104 887 C68 887 21 811 21 755 C21 755 40 755 40 755 L40 755 Z M318 660 C318 660 243 660 243 660 C243 660 179 660 179 660 C179 660 115 660 115 660 C115 660 40 660 40 660 C40 660 40 645 40 645 C40 645 51 645 51 645 C79 645 115 608 115 580 C115 580 115 80 115 80 C115 52 79 15 51 15 C51 15 40 15 40 15 C40 15 40 0 40 0 C40 0 115 0 115 0 C115 0 179 0 179 0 C179 0 243 0 243 0 C243 0 318 0 318 0 C318 0 318 15 318 15 C318 15 307 15 307 15 C279 15 243 52 243 80 C243 80 243 580 243 580 C243 608 279 645 307 645 C307 645 318 645 318 645 C318 645 318 660 318 660 L318 660 Z " />
<glyph glyph-name="itilde" unicode="&#x129;" horiz-adv-x="355" d="M38 595 C38 619 60 651 77 651 C118 651 205 588 247 588 C285 588 336 666 336 725 C336 725 317 725 317 725 C317 699 291 665 272 665 C230 665 143 727 102 727 C67 727 19 651 19 595 C19 595 38 595 38 595 L38 595 Z M235 0 C235 0 310 0 310 0 C310 0 310 15 310 15 C310 15 295 15 295 15 C269 15 235 9 235 0 C235 0 235 420 235 420 C235 420 235 505 235 505 C235 505 229 505 229 505 C229 505 57 453 57 453 C57 453 57 443 57 443 C57 443 102 430 102 430 C109 428 120 410 120 387 C120 387 120 0 120 0 C120 0 45 0 45 0 C45 0 45 15 45 15 C45 15 60 15 60 15 C86 15 120 9 120 0 C120 0 235 0 235 0 L235 0 Z " />
<glyph glyph-name="Imacron" unicode="&#x12a;" horiz-adv-x="357" d="M29 761 C29 761 329 761 329 761 C329 761 329 825 329 825 C329 825 29 825 29 825 C29 825 29 761 29 761 L29 761 Z M318 660 C318 660 243 660 243 660 C243 660 179 660 179 660 C179 660 115 660 115 660 C115 660 40 660 40 660 C40 660 40 645 40 645 C40 645 51 645 51 645 C79 645 115 608 115 580 C115 580 115 80 115 80 C115 52 79 15 51 15 C51 15 40 15 40 15 C40 15 40 0 40 0 C40 0 115 0 115 0 C115 0 179 0 179 0 C179 0 243 0 243 0 C243 0 318 0 318 0 C318 0 318 15 318 15 C318 15 307 15 307 15 C279 15 243 52 243 80 C243 80 243 580 243 580 C243 608 279 645 307 645 C307 645 318 645 318 645 C318 645 318 660 318 660 L318 660 Z " />
<glyph glyph-name="imacron" unicode="&#x12b;" horiz-adv-x="355" d="M27 601 C27 601 328 601 328 601 C328 601 328 665 328 665 C328 665 28 665 28 665 C28 665 27 601 27 601 L27 601 Z M235 0 C235 0 310 0 310 0 C310 0 310 15 310 15 C310 15 295 15 295 15 C269 15 235 9 235 0 C235 0 235 420 235 420 C235 420 235 505 235 505 C235 505 229 505 229 505 C229 505 57 453 57 453 C57 453 57 443 57 443 C57 443 102 430 102 430 C109 428 120 410 120 387 C120 387 120 0 120 0 C120 0 45 0 45 0 C45 0 45 15 45 15 C45 15 60 15 60 15 C86 15 120 9 120 0 C120 0 235 0 235 0 L235 0 Z " />
<glyph glyph-name="Ibreve" unicode="&#x12c;" horiz-adv-x="357" d="M47 870 C71 813 147 736 179 736 C211 736 287 813 311 870 C311 870 292 878 292 878 C280 850 215 812 179 812 C142 812 77 850 65 878 C65 878 47 870 47 870 L47 870 Z M318 660 C318 660 243 660 243 660 C243 660 179 660 179 660 C179 660 115 660 115 660 C115 660 40 660 40 660 C40 660 40 645 40 645 C40 645 51 645 51 645 C79 645 115 608 115 580 C115 580 115 80 115 80 C115 52 79 15 51 15 C51 15 40 15 40 15 C40 15 40 0 40 0 C40 0 115 0 115 0 C115 0 179 0 179 0 C179 0 243 0 243 0 C243 0 318 0 318 0 C318 0 318 15 318 15 C318 15 307 15 307 15 C279 15 243 52 243 80 C243 80 243 580 243 580 C243 608 279 645 307 645 C307 645 318 645 318 645 C318 645 318 660 318 660 L318 660 Z " />
<glyph glyph-name="ibreve" unicode="&#x12d;" horiz-adv-x="355" d="M45 710 C70 653 145 576 178 576 C210 576 285 653 310 710 C310 710 291 718 291 718 C279 690 214 652 178 652 C141 652 76 690 64 718 C64 718 45 710 45 710 L45 710 Z M235 0 C235 0 310 0 310 0 C310 0 310 15 310 15 C310 15 295 15 295 15 C269 15 235 9 235 0 C235 0 235 420 235 420 C235 420 235 505 235 505 C235 505 229 505 229 505 C229 505 57 453 57 453 C57 453 57 443 57 443 C57 443 102 430 102 430 C109 428 120 410 120 387 C120 387 120 0 120 0 C120 0 45 0 45 0 C45 0 45 15 45 15 C45 15 60 15 60 15 C86 15 120 9 120 0 C120 0 235 0 235 0 L235 0 Z " />
<glyph glyph-name="Idotaccent" unicode="&#x130;" horiz-adv-x="357" d="M179 730 C209 730 249 770 249 800 C249 831 209 871 179 871 C149 871 109 831 109 800 C109 770 149 730 179 730 L179 730 Z M318 660 C318 660 243 660 243 660 C243 660 179 660 179 660 C179 660 115 660 115 660 C115 660 40 660 40 660 C40 660 40 645 40 645 C40 645 51 645 51 645 C79 645 115 608 115 580 C115 580 115 80 115 80 C115 52 79 15 51 15 C51 15 40 15 40 15 C40 15 40 0 40 0 C40 0 115 0 115 0 C115 0 179 0 179 0 C179 0 243 0 243 0 C243 0 318 0 318 0 C318 0 318 15 318 15 C318 15 307 15 307 15 C279 15 243 52 243 80 C243 80 243 580 243 580 C243 608 279 645 307 645 C307 645 318 645 318 645 C318 645 318 660 318 660 L318 660 Z " />
<glyph glyph-name="dotlessi" unicode="&#x131;" horiz-adv-x="355" d="M235 0 C235 0 310 0 310 0 C310 0 310 15 310 15 C310 15 295 15 295 15 C269 15 235 9 235 0 C235 0 235 420 235 420 C235 420 235 505 235 505 C235 505 229 505 229 505 C229 505 57 453 57 453 C57 453 57 443 57 443 C57 443 102 430 102 430 C109 428 120 410 120 387 C120 387 120 0 120 0 C120 0 45 0 45 0 C45 0 45 15 45 15 C45 15 60 15 60 15 C86 15 120 9 120 0 C120 0 235 0 235 0 L235 0 Z " />
<glyph glyph-name="Jcircumflex" unicode="&#x134;" horiz-adv-x="444" d="M404 660 C404 660 329 660 329 660 C329 660 265 660 265 660 C265 660 201 660 201 660 C201 660 126 660 126 660 C126 660 126 645 126 645 C126 645 138 645 138 645 C165 645 201 608 201 580 C201 580 201 200 201 200 C201 106 181 16 159 16 C143 16 113 43 108 64 C103 86 70 115 51 115 C24 115 -6 86 0 64 C8 32 81 -10 128 -10 C231 -10 330 145 330 308 C330 308 329 584 329 584 C332 611 367 645 393 645 C393 645 404 645 404 645 C404 645 404 660 404 660 L404 660 Z M266 799 C266 799 376 691 376 691 C376 691 387 701 387 701 C387 701 302 872 302 872 C299 879 279 904 265 904 C252 904 232 879 229 872 C229 872 143 701 143 701 C143 701 155 691 155 691 C155 691 266 799 266 799 L266 799 Z " />
<glyph glyph-name="Lacute" unicode="&#x139;" horiz-adv-x="652" d="M156 690 C156 690 273 814 273 814 C288 830 308 856 308 861 C308 871 257 909 243 909 C239 909 224 881 214 859 C214 859 143 699 143 699 C143 699 156 690 156 690 L156 690 Z M555 182 C555 182 530 122 530 122 C514 83 441 32 403 32 C403 32 243 32 243 32 C243 32 243 580 243 580 C243 608 279 645 307 645 C307 645 318 645 318 645 C318 645 318 660 318 660 C318 660 243 660 243 660 C243 660 179 660 179 660 C179 660 115 660 115 660 C115 660 40 660 40 660 C40 660 40 645 40 645 C40 645 51 645 51 645 C79 645 115 608 115 580 C115 580 115 80 115 80 C115 52 79 15 51 15 C51 15 40 15 40 15 C40 15 40 0 40 0 C40 0 115 0 115 0 C115 0 179 0 179 0 C179 0 243 0 243 0 C243 0 462 0 462 0 C462 0 538 0 538 0 C538 0 542 0 542 0 C543 3 545 13 545 16 C551 50 567 140 573 174 C573 177 555 182 555 182 L555 182 Z " />
<glyph glyph-name="Lcaron" unicode="&#x13d;" horiz-adv-x="652" d="M555 182 C555 182 530 122 530 122 C514 83 441 32 403 32 C403 32 243 32 243 32 C243 32 243 580 243 580 C243 608 279 645 307 645 C307 645 318 645 318 645 C318 645 318 660 318 660 C318 660 243 660 243 660 C243 660 179 660 179 660 C179 660 115 660 115 660 C115 660 40 660 40 660 C40 660 40 645 40 645 C40 645 51 645 51 645 C79 645 115 608 115 580 C115 580 115 80 115 80 C115 52 79 15 51 15 C51 15 40 15 40 15 C40 15 40 0 40 0 C40 0 115 0 115 0 C115 0 179 0 179 0 C179 0 243 0 243 0 C243 0 462 0 462 0 C462 0 538 0 538 0 C538 0 542 0 542 0 C543 3 545 13 545 16 C551 50 567 140 573 174 C573 177 555 182 555 182 L555 182 Z M462 556 C482 590 508 659 508 665 C508 678 452 691 436 691 C419 691 395 615 390 583 C390 583 364 417 364 417 C364 417 379 412 379 412 C379 412 462 556 462 556 L462 556 Z " />
<glyph glyph-name="lcaron" unicode="&#x13e;" horiz-adv-x="355" d="M45 660 C45 660 56 658 56 658 C94 650 120 618 120 579 C120 579 120 80 120 80 C120 52 84 15 56 15 C56 15 45 15 45 15 C45 15 45 0 45 0 C45 0 120 0 120 0 C120 0 178 0 178 0 C178 0 235 0 235 0 C235 0 310 0 310 0 C310 0 310 15 310 15 C310 15 299 15 299 15 C271 15 235 52 235 80 C235 80 235 610 235 610 C235 610 235 690 235 690 C235 690 235 720 235 720 C235 720 212 720 212 720 C212 720 45 669 45 669 C45 669 45 660 45 660 L45 660 Z M379 586 C399 620 425 689 425 695 C425 708 369 721 353 721 C337 721 312 645 307 613 C307 613 281 447 281 447 C281 447 296 442 296 442 C296 442 379 586 379 586 L379 586 Z " />
<glyph glyph-name="Lslash" unicode="&#x141;" horiz-adv-x="652" d="M65 261 C65 261 115 276 115 276 C115 276 115 80 115 80 C115 52 79 15 51 15 C51 15 40 15 40 15 C40 15 40 0 40 0 C40 0 115 0 115 0 C115 0 179 0 179 0 C179 0 243 0 243 0 C243 0 462 0 462 0 C462 0 538 0 538 0 C538 0 542 0 542 0 C543 3 545 13 545 16 C551 50 567 140 573 174 C573 177 555 182 555 182 C555 182 530 122 530 122 C514 83 441 32 403 32 C403 32 243 32 243 32 C243 32 243 316 243 316 C243 316 390 361 390 361 C390 361 390 399 390 399 C390 399 243 354 243 354 C243 354 243 580 243 580 C243 608 279 645 307 645 C307 645 318 645 318 645 C318 645 318 660 318 660 C318 660 243 660 243 660 C243 660 179 660 179 660 C179 660 115 660 115 660 C115 660 40 660 40 660 C40 660 40 645 40 645 C40 645 51 645 51 645 C79 645 115 608 115 580 C115 580 115 314 115 314 C115 314 65 299 65 299 C65 299 65 261 65 261 L65 261 Z " />
<glyph glyph-name="lslash" unicode="&#x142;" horiz-adv-x="355" d="M20 291 C20 291 120 323 120 323 C120 323 120 80 120 80 C120 52 84 15 56 15 C56 15 45 15 45 15 C45 15 45 0 45 0 C45 0 120 0 120 0 C120 0 178 0 178 0 C178 0 235 0 235 0 C235 0 310 0 310 0 C310 0 310 15 310 15 C310 15 299 15 299 15 C271 15 235 52 235 80 C235 80 235 359 235 359 C235 359 335 391 335 391 C335 391 335 429 335 429 C335 429 235 397 235 397 C235 397 235 610 235 610 C235 610 235 690 235 690 C235 690 235 720 235 720 C235 720 212 720 212 720 C212 720 45 669 45 669 C45 669 45 660 45 660 C45 660 56 658 56 658 C94 650 120 618 120 579 C120 579 120 361 120 361 C120 361 20 329 20 329 C20 329 20 291 20 291 L20 291 Z " />
<glyph glyph-name="Nacute" unicode="&#x143;" horiz-adv-x="723" d="M330 690 C330 690 447 814 447 814 C462 830 482 856 482 861 C482 871 431 909 416 909 C413 909 398 881 388 859 C388 859 317 699 317 699 C317 699 330 690 330 690 L330 690 Z M683 660 C683 660 608 660 608 660 C608 660 589 660 589 660 C589 660 570 660 570 660 C570 660 495 660 495 660 C495 660 495 645 495 645 C495 645 506 645 506 645 C534 645 570 608 570 580 C570 580 570 184 570 184 C570 184 227 660 227 660 C227 660 151 660 151 660 C151 660 132 660 132 660 C132 660 112 660 112 660 C112 660 37 660 37 660 C37 660 37 645 37 645 C37 645 49 645 49 645 C76 645 112 608 112 580 C112 580 112 80 112 80 C112 52 76 15 49 15 C49 15 37 15 37 15 C37 15 37 0 37 0 C37 0 112 0 112 0 C112 0 132 0 132 0 C132 0 151 0 151 0 C151 0 226 0 226 0 C226 0 226 15 226 15 C226 15 215 15 215 15 C187 15 151 52 151 80 C151 80 151 547 151 547 C151 547 512 51 512 51 C512 51 563 -20 563 -20 C563 -20 608 -20 608 -20 C608 -20 608 98 608 98 C608 98 608 580 608 580 C608 608 645 645 672 645 C672 645 683 645 683 645 C683 645 683 660 683 660 L683 660 Z " />
<glyph glyph-name="nacute" unicode="&#x144;" horiz-adv-x="636" d="M244 530 C244 530 361 654 361 654 C376 670 396 696 396 701 C396 711 345 749 331 749 C328 749 312 721 302 699 C302 699 232 539 232 539 C232 539 244 530 244 530 L244 530 Z M596 15 C596 15 585 15 585 15 C558 15 521 52 521 80 C521 80 521 338 521 338 C521 409 467 505 410 505 C365 505 274 466 234 431 C234 431 234 500 234 500 C234 500 211 500 211 500 C211 500 44 449 44 449 C44 449 44 440 44 440 C44 440 56 438 56 438 C94 430 119 398 119 359 C119 359 119 80 119 80 C119 52 83 15 56 15 C56 15 44 15 44 15 C44 15 44 0 44 0 C44 0 119 0 119 0 C119 0 177 0 177 0 C177 0 234 0 234 0 C234 0 309 0 309 0 C310 0 310 4 309 8 C310 11 310 15 309 15 C309 15 298 15 298 15 C271 15 235 52 234 80 C234 80 234 390 234 390 C234 390 234 414 234 414 C254 421 294 428 322 428 C365 428 406 370 406 326 C406 326 406 80 406 80 C406 52 370 15 342 15 C342 15 331 15 331 15 C331 15 331 0 331 0 C331 0 406 0 406 0 C406 0 464 0 464 0 C464 0 521 0 521 0 C521 0 596 0 596 0 C596 0 596 15 596 15 L596 15 Z " />
<glyph glyph-name="Ncaron" unicode="&#x147;" horiz-adv-x="723" d="M683 660 C683 660 608 660 608 660 C608 660 589 660 589 660 C589 660 570 660 570 660 C570 660 495 660 495 660 C495 660 495 645 495 645 C495 645 506 645 506 645 C534 645 570 608 570 580 C570 580 570 184 570 184 C570 184 227 660 227 660 C227 660 151 660 151 660 C151 660 132 660 132 660 C132 660 112 660 112 660 C112 660 37 660 37 660 C37 660 37 645 37 645 C37 645 49 645 49 645 C76 645 112 608 112 580 C112 580 112 80 112 80 C112 52 76 15 49 15 C49 15 37 15 37 15 C37 15 37 0 37 0 C37 0 112 0 112 0 C112 0 132 0 132 0 C132 0 151 0 151 0 C151 0 226 0 226 0 C226 0 226 15 226 15 C226 15 215 15 215 15 C187 15 151 52 151 80 C151 80 151 547 151 547 C151 547 512 51 512 51 C512 51 563 -20 563 -20 C563 -20 608 -20 608 -20 C608 -20 608 98 608 98 C608 98 608 580 608 580 C608 608 645 645 672 645 C672 645 683 645 683 645 C683 645 683 660 683 660 L683 660 Z M361 820 C361 820 471 929 471 929 C471 929 482 919 482 919 C482 919 397 748 397 748 C394 741 374 716 360 716 C347 716 327 741 324 748 C324 748 238 919 238 919 C238 919 250 929 250 929 C250 929 361 820 361 820 L361 820 Z " />
<glyph glyph-name="ncaron" unicode="&#x148;" horiz-adv-x="636" d="M596 15 C596 15 585 15 585 15 C558 15 521 52 521 80 C521 80 521 338 521 338 C521 409 467 505 410 505 C365 505 274 466 234 431 C234 431 234 500 234 500 C234 500 211 500 211 500 C211 500 44 449 44 449 C44 449 44 440 44 440 C44 440 56 438 56 438 C94 430 119 398 119 359 C119 359 119 80 119 80 C119 52 83 15 56 15 C56 15 44 15 44 15 C44 15 44 0 44 0 C44 0 119 0 119 0 C119 0 177 0 177 0 C177 0 234 0 234 0 C234 0 309 0 309 0 C310 0 310 4 309 8 C310 11 310 15 309 15 C309 15 298 15 298 15 C271 15 235 52 234 80 C234 80 234 390 234 390 C234 390 234 414 234 414 C254 421 294 428 322 428 C365 428 406 370 406 326 C406 326 406 80 406 80 C406 52 370 15 342 15 C342 15 331 15 331 15 C331 15 331 0 331 0 C331 0 406 0 406 0 C406 0 464 0 464 0 C464 0 521 0 521 0 C521 0 596 0 596 0 C596 0 596 15 596 15 L596 15 Z M321 661 C321 661 431 769 431 769 C431 769 442 759 442 759 C442 759 357 588 357 588 C354 581 334 556 320 556 C307 556 287 581 284 588 C284 588 198 759 198 759 C198 759 210 769 210 769 C210 769 321 661 321 661 L321 661 Z " />
<glyph glyph-name="Omacron" unicode="&#x14c;" horiz-adv-x="759" d="M225 761 C225 761 525 761 525 761 C525 761 525 825 525 825 C525 825 225 825 225 825 C225 825 225 761 225 761 L225 761 Z M375 27 C284 27 182 213 182 330 C182 447 284 633 375 633 C466 633 568 447 568 330 C568 213 466 27 375 27 L375 27 Z M42 330 C42 201 219 -5 375 -5 C532 -5 709 201 709 330 C709 459 532 665 375 665 C219 665 42 459 42 330 L42 330 Z " />
<glyph glyph-name="omacron" unicode="&#x14d;" horiz-adv-x="606" d="M153 601 C153 601 453 601 453 601 C453 601 453 665 453 665 C453 665 153 665 153 665 C153 665 153 601 153 601 L153 601 Z M303 21 C250 21 178 152 178 250 C178 348 250 479 303 479 C357 479 429 348 429 250 C429 152 357 21 303 21 L303 21 Z M50 250 C50 141 195 -5 303 -5 C412 -5 557 141 557 250 C557 359 412 505 303 505 C195 505 50 359 50 250 L50 250 Z " />
<glyph glyph-name="Obreve" unicode="&#x14e;" horiz-adv-x="759" d="M243 870 C267 813 343 736 375 736 C408 736 483 813 508 870 C508 870 489 878 489 878 C477 850 412 812 375 812 C339 812 274 850 262 878 C262 878 243 870 243 870 L243 870 Z M375 27 C284 27 182 213 182 330 C182 447 284 633 375 633 C466 633 568 447 568 330 C568 213 466 27 375 27 L375 27 Z M42 330 C42 201 219 -5 375 -5 C532 -5 709 201 709 330 C709 459 532 665 375 665 C219 665 42 459 42 330 L42 330 Z " />
<glyph glyph-name="obreve" unicode="&#x14f;" horiz-adv-x="606" d="M171 710 C195 653 271 576 303 576 C336 576 411 653 436 710 C436 710 417 718 417 718 C405 690 340 652 303 652 C267 652 202 690 190 718 C190 718 171 710 171 710 L171 710 Z M303 21 C250 21 178 152 178 250 C178 348 250 479 303 479 C357 479 429 348 429 250 C429 152 357 21 303 21 L303 21 Z M50 250 C50 141 195 -5 303 -5 C412 -5 557 141 557 250 C557 359 412 505 303 505 C195 505 50 359 50 250 L50 250 Z " />
<glyph glyph-name="Racute" unicode="&#x154;" horiz-adv-x="713" d="M279 690 C279 690 396 814 396 814 C411 830 431 856 431 861 C431 871 380 909 366 909 C363 909 347 881 337 859 C337 859 267 699 267 699 C267 699 279 690 279 690 L279 690 Z M33 645 C33 645 44 645 44 645 C72 645 108 608 108 580 C108 580 108 80 108 80 C108 52 72 15 44 15 C44 15 33 15 33 15 C33 15 33 0 33 0 C33 0 108 0 108 0 C108 0 172 0 172 0 C172 0 236 0 236 0 C236 0 311 0 311 0 C311 0 311 15 311 15 C311 15 300 15 300 15 C272 15 236 52 236 80 C236 80 236 312 236 312 C236 312 303 312 303 312 C303 312 449 106 449 106 C500 33 570 0 670 0 C670 0 713 0 713 0 C713 0 713 25 713 25 C713 25 708 25 708 25 C679 25 652 43 624 81 C624 81 440 336 440 336 C526 371 602 437 602 490 C602 562 459 660 352 660 C352 660 236 660 236 660 C236 660 172 660 172 660 C172 660 108 660 108 660 C108 660 33 660 33 660 C33 660 33 645 33 645 L33 645 Z M329 344 C329 344 280 344 280 344 C280 344 236 344 236 344 C236 344 236 628 236 628 C236 628 352 628 352 628 C402 628 468 549 468 490 C468 427 388 344 329 344 L329 344 Z " />
<glyph glyph-name="Rcaron" unicode="&#x158;" horiz-adv-x="637" d="M33 645 C33 645 44 645 44 645 C72 645 108 608 108 580 C108 580 108 80 108 80 C108 52 72 15 44 15 C44 15 33 15 33 15 C33 15 33 0 33 0 C33 0 108 0 108 0 C108 0 172 0 172 0 C172 0 236 0 236 0 C236 0 311 0 311 0 C311 0 311 15 311 15 C311 15 300 15 300 15 C272 15 236 52 236 80 C236 80 236 312 236 312 C236 312 329 312 329 312 C361 224 538 19 638 -46 C638 -46 649 -27 649 -27 C613 -4 500 207 451 341 C532 377 602 439 602 490 C602 562 459 660 352 660 C352 660 236 660 236 660 C236 660 172 660 172 660 C172 660 108 660 108 660 C108 660 33 660 33 660 C33 660 33 645 33 645 L33 645 Z M356 820 C356 820 466 929 466 929 C466 929 477 919 477 919 C477 919 392 748 392 748 C389 741 369 716 355 716 C342 716 322 741 319 748 C319 748 233 919 233 919 C233 919 245 929 245 929 C245 929 356 820 356 820 L356 820 Z M236 344 C236 344 236 628 236 628 C236 628 352 628 352 628 C402 628 468 549 468 490 C468 427 388 344 329 344 C329 344 236 344 236 344 L236 344 Z " />
<glyph glyph-name="rcaron" unicode="&#x159;" horiz-adv-x="437" d="M44 440 C44 440 56 438 56 438 C94 430 119 398 119 359 C119 359 119 80 119 80 C119 52 83 15 56 15 C56 15 44 15 44 15 C44 15 44 0 44 0 C44 0 119 0 119 0 C119 0 177 0 177 0 C177 0 234 0 234 0 C234 0 309 0 309 0 C310 0 310 4 309 8 C310 11 310 15 309 15 C309 15 298 15 298 15 C271 15 235 52 234 80 C234 80 234 390 234 390 C234 390 231 410 231 410 C240 416 255 420 265 420 C291 420 346 376 373 376 C396 376 428 408 428 431 C428 463 393 505 356 505 C321 505 254 464 228 429 C228 429 218 500 218 500 C218 500 195 500 195 500 C195 500 44 449 44 449 C44 449 44 440 44 440 L44 440 Z M238 660 C238 660 348 769 348 769 C348 769 360 759 360 759 C360 759 275 588 275 588 C271 581 251 556 238 556 C224 556 205 581 201 588 C201 588 116 759 116 759 C116 759 127 769 127 769 C127 769 238 660 238 660 L238 660 Z " />
<glyph glyph-name="Sacute" unicode="&#x15a;" horiz-adv-x="514" d="M209 690 C209 690 326 814 326 814 C341 830 361 856 361 861 C361 871 310 909 296 909 C292 909 277 881 267 859 C267 859 196 699 196 699 C196 699 209 690 209 690 L209 690 Z M39 204 C39 204 39 40 39 40 C73 21 191 -5 245 -5 C341 -5 469 106 469 189 C469 247 373 356 301 380 C226 404 127 479 127 511 C127 564 200 634 255 634 C262 634 274 631 289 627 C289 627 289 627 289 627 C318 618 372 569 382 540 C388 522 406 474 412 456 C412 456 425 456 425 456 C425 456 425 620 425 620 C425 620 414 600 414 600 C414 600 414 600 414 600 C414 600 425 620 425 620 C392 639 297 665 260 665 C166 665 39 548 39 460 C39 406 132 303 201 280 C277 256 378 173 378 137 C378 90 302 27 245 27 C238 27 230 28 220 29 C169 42 84 117 65 168 C63 176 55 196 52 204 C52 204 39 204 39 204 L39 204 Z " />
<glyph glyph-name="sacute" unicode="&#x15b;" horiz-adv-x="420" d="M155 530 C155 530 272 654 272 654 C287 670 307 696 307 701 C307 711 256 749 242 749 C239 749 223 721 213 699 C213 699 143 539 143 539 C143 539 155 530 155 530 L155 530 Z M45 150 C45 150 45 29 45 29 C70 15 150 -5 185 -5 C264 -5 371 86 371 153 C371 191 311 269 267 291 C212 317 138 380 138 402 C138 435 191 479 231 479 C233 479 239 476 249 472 C277 455 321 406 329 380 C331 375 335 361 337 355 C337 355 349 355 349 355 C349 355 349 466 349 466 C320 483 252 505 231 505 C154 505 50 423 50 362 C50 325 128 237 186 209 C224 191 275 135 275 111 C275 72 227 21 191 21 C189 21 186 21 183 22 C148 29 84 85 67 124 C64 130 58 144 56 150 C56 150 45 150 45 150 L45 150 Z " />
<glyph glyph-name="Scircumflex" unicode="&#x15c;" horiz-adv-x="514" d="M39 204 C39 204 39 40 39 40 C73 21 191 -5 245 -5 C341 -5 469 106 469 189 C469 247 373 356 301 380 C226 404 127 479 127 511 C127 564 200 634 255 634 C262 634 274 631 289 627 C289 627 289 627 289 627 C318 618 372 569 382 540 C388 522 406 474 412 456 C412 456 425 456 425 456 C425 456 425 620 425 620 C425 620 414 600 414 600 C414 600 414 600 414 600 C414 600 425 620 425 620 C392 639 297 665 260 665 C166 665 39 548 39 460 C39 406 132 303 201 280 C277 256 378 173 378 137 C378 90 302 27 245 27 C238 27 230 28 220 29 C169 42 84 117 65 168 C63 176 55 196 52 204 C52 204 39 204 39 204 L39 204 Z M255 800 C255 800 365 691 365 691 C365 691 377 701 377 701 C377 701 291 872 291 872 C288 879 268 904 255 904 C241 904 222 879 218 872 C218 872 133 701 133 701 C133 701 144 691 144 691 C144 691 255 800 255 800 L255 800 Z " />
<glyph glyph-name="Scedilla" unicode="&#x15e;" horiz-adv-x="514" d="M39 204 C39 204 39 40 39 40 C73 21 191 -5 245 -5 C341 -5 469 106 469 189 C469 247 373 356 301 380 C226 404 127 479 127 511 C127 564 200 634 255 634 C262 634 274 631 289 627 C289 627 289 627 289 627 C318 618 372 569 382 540 C388 522 406 474 412 456 C412 456 425 456 425 456 C425 456 425 620 425 620 C425 620 414 600 414 600 C414 600 414 600 414 600 C414 600 425 620 425 620 C392 639 297 665 260 665 C166 665 39 548 39 460 C39 406 132 303 201 280 C277 256 378 173 378 137 C378 90 302 27 245 27 C238 27 230 28 220 29 C169 42 84 117 65 168 C63 176 55 196 52 204 C52 204 39 204 39 204 L39 204 Z " />
<glyph glyph-name="scedilla" unicode="&#x15f;" horiz-adv-x="420" d="M45 150 C45 150 45 29 45 29 C70 15 150 -5 185 -5 C264 -5 371 86 371 153 C371 191 311 269 267 291 C212 317 138 380 138 402 C138 435 191 479 231 479 C233 479 239 476 249 472 C277 455 321 406 329 380 C331 375 335 361 337 355 C337 355 349 355 349 355 C349 355 349 466 349 466 C320 483 252 505 231 505 C154 505 50 423 50 362 C50 325 128 237 186 209 C224 191 275 135 275 111 C275 72 227 21 191 21 C189 21 186 21 183 22 C148 29 84 85 67 124 C64 130 58 144 56 150 C56 150 45 150 45 150 L45 150 Z " />
<glyph glyph-name="Scaron" unicode="&#x160;" horiz-adv-x="514" d="M39 204 C39 204 39 40 39 40 C73 21 191 -5 245 -5 C341 -5 469 106 469 189 C469 247 373 356 301 380 C226 404 127 479 127 511 C127 564 200 634 255 634 C262 634 274 631 289 627 C289 627 289 627 289 627 C318 618 372 569 382 540 C388 522 406 474 412 456 C412 456 425 456 425 456 C425 456 425 620 425 620 C425 620 414 600 414 600 C414 600 414 600 414 600 C414 600 425 620 425 620 C392 639 297 665 260 665 C166 665 39 548 39 460 C39 406 132 303 201 280 C277 256 378 173 378 137 C378 90 302 27 245 27 C238 27 230 28 220 29 C169 42 84 117 65 168 C63 176 55 196 52 204 C52 204 39 204 39 204 L39 204 Z M255 820 C255 820 365 929 365 929 C365 929 377 919 377 919 C377 919 291 748 291 748 C288 741 268 716 255 716 C241 716 222 741 218 748 C218 748 133 919 133 919 C133 919 144 929 144 929 C144 929 255 820 255 820 L255 820 Z " />
<glyph glyph-name="scaron" unicode="&#x161;" horiz-adv-x="420" d="M45 150 C45 150 45 29 45 29 C70 15 150 -5 185 -5 C264 -5 371 86 371 153 C371 191 311 269 267 291 C212 317 138 380 138 402 C138 435 191 479 231 479 C233 479 239 476 249 472 C277 455 321 406 329 380 C331 375 335 361 337 355 C337 355 349 355 349 355 C349 355 349 466 349 466 C320 483 252 505 231 505 C154 505 50 423 50 362 C50 325 128 237 186 209 C224 191 275 135 275 111 C275 72 227 21 191 21 C189 21 186 21 183 22 C148 29 84 85 67 124 C64 130 58 144 56 150 C56 150 45 150 45 150 L45 150 Z M231 661 C231 661 341 769 341 769 C341 769 353 759 353 759 C353 759 268 588 268 588 C265 581 245 556 231 556 C218 556 198 581 195 588 C195 588 109 759 109 759 C109 759 121 769 121 769 C121 769 231 661 231 661 L231 661 Z " />
<glyph glyph-name="Tcaron" unicode="&#x164;" horiz-adv-x="620" d="M449 15 C449 15 438 15 438 15 C410 15 374 52 374 80 C374 80 374 628 374 628 C374 628 474 628 474 628 C508 628 572 582 586 548 C586 548 615 478 615 478 C615 478 627 478 627 478 C624 514 615 609 612 644 C612 647 611 657 611 660 C611 660 580 660 580 660 C580 660 531 660 531 660 C531 660 89 660 89 660 C89 660 40 660 40 660 C40 660 9 660 9 660 C9 657 8 647 8 644 C5 609 -4 514 -7 478 C-7 478 5 478 5 478 C5 478 34 548 34 548 C48 582 112 628 146 628 C146 628 246 628 246 628 C246 628 246 80 246 80 C246 52 210 15 182 15 C182 15 171 15 171 15 C171 15 171 0 171 0 C171 0 246 0 246 0 C246 0 310 0 310 0 C310 0 374 0 374 0 C374 0 449 0 449 0 C449 0 449 15 449 15 L449 15 Z M310 821 C310 821 420 929 420 929 C420 929 432 919 432 919 C432 919 347 748 347 748 C343 741 323 716 310 716 C297 716 277 741 274 748 C274 748 188 919 188 919 C188 919 200 929 200 929 C200 929 310 821 310 821 L310 821 Z " />
<glyph glyph-name="tcaron" unicode="&#x165;" horiz-adv-x="370" d="M338 500 C338 500 203 500 203 500 C203 500 203 640 203 640 C203 640 184 640 184 640 C149 572 58 474 25 468 C25 468 25 455 25 455 C25 455 88 455 88 455 C88 455 88 125 88 125 C88 53 136 -5 196 -5 C242 -5 320 29 350 55 C350 55 342 65 342 65 C333 57 290 46 253 46 C225 46 203 72 203 105 C203 105 203 455 203 455 C203 455 338 455 338 455 C338 455 338 500 338 500 L338 500 Z M482 586 C502 620 529 689 529 695 C529 708 472 721 457 721 C440 721 415 645 410 613 C410 613 385 447 385 447 C385 447 399 442 399 442 C399 442 482 586 482 586 L482 586 Z " />
<glyph glyph-name="Utilde" unicode="&#x168;" horiz-adv-x="702" d="M209 755 C209 779 231 811 248 811 C289 811 376 748 417 748 C455 748 506 826 506 885 C506 885 487 885 487 885 C487 859 461 825 442 825 C401 825 314 887 272 887 C237 887 189 811 189 755 C189 755 209 755 209 755 L209 755 Z M469 645 C469 645 484 645 484 645 C516 645 559 602 559 570 C559 570 559 202 559 202 C559 133 468 40 372 40 C297 40 226 128 226 194 C226 194 226 580 226 580 C226 608 262 645 290 645 C290 645 301 645 301 645 C301 645 301 660 301 660 C301 660 226 660 226 660 C226 660 162 660 162 660 C162 660 98 660 98 660 C98 660 23 660 23 660 C23 660 23 645 23 645 C23 645 34 645 34 645 C62 645 98 608 98 580 C98 580 98 219 98 219 C98 123 222 -5 353 -5 C478 -5 597 106 597 189 C597 189 597 570 597 570 C598 602 639 645 670 645 C670 645 682 645 682 645 C683 645 683 649 682 653 C683 656 683 660 682 660 C682 660 597 660 597 660 C597 660 578 660 578 660 C578 660 559 660 559 660 C559 660 469 660 469 660 C469 660 469 645 469 645 L469 645 Z " />
<glyph glyph-name="utilde" unicode="&#x169;" horiz-adv-x="601" d="M151 595 C151 619 173 651 190 651 C231 651 318 588 359 588 C398 588 449 666 449 725 C449 725 429 725 429 725 C429 699 403 665 384 665 C343 665 256 727 215 727 C179 727 132 651 132 595 C132 595 151 595 151 595 L151 595 Z M566 60 C566 60 555 62 555 62 C517 71 491 102 491 141 C491 141 491 500 491 500 C491 500 434 500 434 500 C434 500 376 500 376 500 C376 500 301 500 301 500 C301 500 301 485 301 485 C301 485 312 485 312 485 C340 485 376 448 376 420 C376 420 376 110 376 110 C376 110 376 92 376 92 C361 82 331 71 311 71 C261 71 204 125 204 166 C204 166 204 500 204 500 C204 500 147 500 147 500 C147 500 89 500 89 500 C89 500 14 500 14 500 C14 500 14 485 14 485 C14 485 26 485 26 485 C53 485 89 448 89 420 C89 420 89 420 89 420 C89 420 90 154 90 154 C90 86 159 -5 221 -5 C257 -5 332 37 376 74 C376 74 376 30 376 30 C376 30 376 0 376 0 C376 0 399 0 399 0 C399 0 566 51 566 51 C566 51 566 60 566 60 L566 60 Z " />
<glyph glyph-name="Umacron" unicode="&#x16a;" horiz-adv-x="702" d="M198 761 C198 761 498 761 498 761 C498 761 498 825 498 825 C498 825 198 825 198 825 C198 825 198 761 198 761 L198 761 Z M469 645 C469 645 484 645 484 645 C516 645 559 602 559 570 C559 570 559 202 559 202 C559 133 468 40 372 40 C297 40 226 128 226 194 C226 194 226 580 226 580 C226 608 262 645 290 645 C290 645 301 645 301 645 C301 645 301 660 301 660 C301 660 226 660 226 660 C226 660 162 660 162 660 C162 660 98 660 98 660 C98 660 23 660 23 660 C23 660 23 645 23 645 C23 645 34 645 34 645 C62 645 98 608 98 580 C98 580 98 219 98 219 C98 123 222 -5 353 -5 C478 -5 597 106 597 189 C597 189 597 570 597 570 C598 602 639 645 670 645 C670 645 682 645 682 645 C683 645 683 649 682 653 C683 656 683 660 682 660 C682 660 597 660 597 660 C597 660 578 660 578 660 C578 660 559 660 559 660 C559 660 469 660 469 660 C469 660 469 645 469 645 L469 645 Z " />
<glyph glyph-name="umacron" unicode="&#x16b;" horiz-adv-x="601" d="M140 601 C140 601 440 601 440 601 C440 601 440 665 440 665 C440 665 140 665 140 665 C140 665 140 601 140 601 L140 601 Z M566 60 C566 60 555 62 555 62 C517 71 491 102 491 141 C491 141 491 500 491 500 C491 500 434 500 434 500 C434 500 376 500 376 500 C376 500 301 500 301 500 C301 500 301 485 301 485 C301 485 312 485 312 485 C340 485 376 448 376 420 C376 420 376 110 376 110 C376 110 376 92 376 92 C361 82 331 71 311 71 C261 71 204 125 204 166 C204 166 204 500 204 500 C204 500 147 500 147 500 C147 500 89 500 89 500 C89 500 14 500 14 500 C14 500 14 485 14 485 C14 485 26 485 26 485 C53 485 89 448 89 420 C89 420 89 420 89 420 C89 420 90 154 90 154 C90 86 159 -5 221 -5 C257 -5 332 37 376 74 C376 74 376 30 376 30 C376 30 376 0 376 0 C376 0 399 0 399 0 C399 0 566 51 566 51 C566 51 566 60 566 60 L566 60 Z " />
<glyph glyph-name="Ubreve" unicode="&#x16c;" horiz-adv-x="702" d="M215 870 C240 813 316 736 348 736 C380 736 456 813 480 870 C480 870 461 878 461 878 C449 850 384 812 348 812 C311 812 246 850 234 878 C234 878 215 870 215 870 L215 870 Z M469 645 C469 645 484 645 484 645 C516 645 559 602 559 570 C559 570 559 202 559 202 C559 133 468 40 372 40 C297 40 226 128 226 194 C226 194 226 580 226 580 C226 608 262 645 290 645 C290 645 301 645 301 645 C301 645 301 660 301 660 C301 660 226 660 226 660 C226 660 162 660 162 660 C162 660 98 660 98 660 C98 660 23 660 23 660 C23 660 23 645 23 645 C23 645 34 645 34 645 C62 645 98 608 98 580 C98 580 98 219 98 219 C98 123 222 -5 353 -5 C478 -5 597 106 597 189 C597 189 597 570 597 570 C598 602 639 645 670 645 C670 645 682 645 682 645 C683 645 683 649 682 653 C683 656 683 660 682 660 C682 660 597 660 597 660 C597 660 578 660 578 660 C578 660 559 660 559 660 C559 660 469 660 469 660 C469 660 469 645 469 645 L469 645 Z " />
<glyph glyph-name="ubreve" unicode="&#x16d;" horiz-adv-x="601" d="M158 710 C182 653 258 576 290 576 C322 576 398 653 422 710 C422 710 404 718 404 718 C392 690 327 652 290 652 C254 652 189 690 177 718 C177 718 158 710 158 710 L158 710 Z M566 60 C566 60 555 62 555 62 C517 71 491 102 491 141 C491 141 491 500 491 500 C491 500 434 500 434 500 C434 500 376 500 376 500 C376 500 301 500 301 500 C301 500 301 485 301 485 C301 485 312 485 312 485 C340 485 376 448 376 420 C376 420 376 110 376 110 C376 110 376 92 376 92 C361 82 331 71 311 71 C261 71 204 125 204 166 C204 166 204 500 204 500 C204 500 147 500 147 500 C147 500 89 500 89 500 C89 500 14 500 14 500 C14 500 14 485 14 485 C14 485 26 485 26 485 C53 485 89 448 89 420 C89 420 89 420 89 420 C89 420 90 154 90 154 C90 86 159 -5 221 -5 C257 -5 332 37 376 74 C376 74 376 30 376 30 C376 30 376 0 376 0 C376 0 399 0 399 0 C399 0 566 51 566 51 C566 51 566 60 566 60 L566 60 Z " />
<glyph glyph-name="Uring" unicode="&#x16e;" horiz-adv-x="702" d="M348 721 C323 721 284 762 284 788 C284 816 320 854 348 854 C375 854 412 816 412 788 C412 762 372 721 348 721 L348 721 Z M252 788 C252 752 311 695 348 695 C385 695 444 752 444 788 C444 827 389 880 348 880 C307 880 252 827 252 788 L252 788 Z M469 645 C469 645 484 645 484 645 C516 645 559 602 559 570 C559 570 559 202 559 202 C559 133 468 40 372 40 C297 40 226 128 226 194 C226 194 226 580 226 580 C226 608 262 645 290 645 C290 645 301 645 301 645 C301 645 301 660 301 660 C301 660 226 660 226 660 C226 660 162 660 162 660 C162 660 98 660 98 660 C98 660 23 660 23 660 C23 660 23 645 23 645 C23 645 34 645 34 645 C62 645 98 608 98 580 C98 580 98 219 98 219 C98 123 222 -5 353 -5 C478 -5 597 106 597 189 C597 189 597 570 597 570 C598 602 639 645 670 645 C670 645 682 645 682 645 C683 645 683 649 682 653 C683 656 683 660 682 660 C682 660 597 660 597 660 C597 660 578 660 578 660 C578 660 559 660 559 660 C559 660 469 660 469 660 C469 660 469 645 469 645 L469 645 Z " />
<glyph glyph-name="uring" unicode="&#x16f;" horiz-adv-x="601" d="M290 561 C266 561 226 602 226 628 C226 656 263 694 290 694 C317 694 354 656 354 628 C354 602 315 561 290 561 L290 561 Z M194 628 C194 592 253 535 290 535 C327 535 386 592 386 628 C386 667 331 720 290 720 C249 720 194 667 194 628 L194 628 Z M566 60 C566 60 555 62 555 62 C517 71 491 102 491 141 C491 141 491 500 491 500 C491 500 434 500 434 500 C434 500 376 500 376 500 C376 500 301 500 301 500 C301 500 301 485 301 485 C301 485 312 485 312 485 C340 485 376 448 376 420 C376 420 376 110 376 110 C376 110 376 92 376 92 C361 82 331 71 311 71 C261 71 204 125 204 166 C204 166 204 500 204 500 C204 500 147 500 147 500 C147 500 89 500 89 500 C89 500 14 500 14 500 C14 500 14 485 14 485 C14 485 26 485 26 485 C53 485 89 448 89 420 C89 420 89 420 89 420 C89 420 90 154 90 154 C90 86 159 -5 221 -5 C257 -5 332 37 376 74 C376 74 376 30 376 30 C376 30 376 0 376 0 C376 0 399 0 399 0 C399 0 566 51 566 51 C566 51 566 60 566 60 L566 60 Z " />
<glyph glyph-name="Wcircumflex" unicode="&#x174;" horiz-adv-x="1013" d="M1009 660 C1009 660 938 660 938 660 C938 660 919 660 919 660 C919 660 900 660 900 660 C900 660 795 660 795 660 C795 660 795 645 795 645 C795 645 831 645 831 645 C858 645 884 608 876 580 C876 580 876 580 876 580 C876 580 699 -15 699 -15 C699 -15 756 177 756 177 C756 177 561 670 561 670 C561 670 529 670 529 670 C529 670 368 164 368 164 C368 164 223 580 223 580 C223 580 223 580 223 580 C213 608 237 645 265 645 C265 645 285 645 285 645 C285 645 285 660 285 660 C285 660 195 660 195 660 C195 660 125 660 125 660 C125 660 54 660 54 660 C54 660 0 660 0 660 C0 660 0 645 0 645 C0 645 9 645 9 645 C29 645 68 613 82 586 C82 586 311 -15 311 -15 C311 -15 343 -15 343 -15 C343 -15 496 466 496 466 C496 466 699 -15 699 -15 C699 -15 731 -15 731 -15 C731 -15 913 580 913 580 C913 580 914 580 914 580 C922 608 970 645 998 645 C998 645 1009 645 1009 645 C1009 645 1009 660 1009 660 L1009 660 Z M545 799 C545 799 655 691 655 691 C655 691 667 701 667 701 C667 701 582 872 582 872 C578 879 558 904 545 904 C532 904 512 879 508 872 C508 872 423 701 423 701 C423 701 435 691 435 691 C435 691 545 799 545 799 L545 799 Z " />
<glyph glyph-name="Ycircumflex" unicode="&#x176;" horiz-adv-x="671" d="M193 0 C193 0 268 0 268 0 C268 0 332 0 332 0 C332 0 396 0 396 0 C396 0 471 0 471 0 C470 0 470 4 471 8 C470 11 470 15 471 15 C471 15 459 15 459 15 C433 15 397 50 396 78 C396 78 396 80 396 80 C396 80 396 330 396 330 C396 330 396 330 396 330 C396 330 568 586 568 586 C589 613 640 645 662 645 C662 645 672 645 672 645 C671 645 671 649 672 653 C671 656 671 660 672 660 C672 660 617 660 617 660 C617 660 597 660 597 660 C597 660 578 660 578 660 C578 660 468 660 468 660 C468 660 468 645 468 645 C468 645 483 645 483 645 C518 645 535 602 517 566 C517 566 379 356 379 356 C379 356 246 581 246 581 C232 609 246 645 274 645 C274 645 290 645 290 645 C290 645 290 660 290 660 C290 660 200 660 200 660 C200 660 123 660 123 660 C123 660 47 660 47 660 C47 660 1 660 1 660 C0 660 0 656 1 653 C0 649 0 645 1 645 C1 645 9 645 9 645 C29 645 78 608 94 580 C94 580 95 580 95 580 C95 580 268 289 268 289 C268 289 268 80 268 80 C268 52 231 15 204 15 C204 15 193 15 193 15 C193 15 193 0 193 0 L193 0 Z M332 800 C332 800 442 691 442 691 C442 691 454 701 454 701 C454 701 368 872 368 872 C365 879 345 904 332 904 C318 904 299 879 295 872 C295 872 210 701 210 701 C210 701 221 691 221 691 C221 691 332 800 332 800 L332 800 Z " />
<glyph glyph-name="Ydieresis" unicode="&#x178;" horiz-adv-x="671" d="M432 730 C462 730 502 770 502 800 C502 831 462 871 432 871 C402 871 362 831 362 800 C362 770 402 730 432 730 L432 730 Z M231 730 C262 730 302 770 302 800 C302 831 262 871 231 871 C201 871 161 831 161 800 C161 770 201 730 231 730 L231 730 Z M193 0 C193 0 268 0 268 0 C268 0 332 0 332 0 C332 0 396 0 396 0 C396 0 471 0 471 0 C470 0 470 4 471 8 C470 11 470 15 471 15 C471 15 459 15 459 15 C433 15 397 50 396 78 C396 78 396 80 396 80 C396 80 396 330 396 330 C396 330 396 330 396 330 C396 330 568 586 568 586 C589 613 640 645 662 645 C662 645 672 645 672 645 C671 645 671 649 672 653 C671 656 671 660 672 660 C672 660 617 660 617 660 C617 660 597 660 597 660 C597 660 578 660 578 660 C578 660 468 660 468 660 C468 660 468 645 468 645 C468 645 483 645 483 645 C518 645 535 602 517 566 C517 566 379 356 379 356 C379 356 246 581 246 581 C232 609 246 645 274 645 C274 645 290 645 290 645 C290 645 290 660 290 660 C290 660 200 660 200 660 C200 660 123 660 123 660 C123 660 47 660 47 660 C47 660 1 660 1 660 C0 660 0 656 1 653 C0 649 0 645 1 645 C1 645 9 645 9 645 C29 645 78 608 94 580 C94 580 95 580 95 580 C95 580 268 289 268 289 C268 289 268 80 268 80 C268 52 231 15 204 15 C204 15 193 15 193 15 C193 15 193 0 193 0 L193 0 Z " />
<glyph glyph-name="Zacute" unicode="&#x179;" horiz-adv-x="592" d="M321 690 C321 690 438 814 438 814 C453 830 473 856 473 861 C473 871 421 909 407 909 C404 909 388 881 379 859 C379 859 308 699 308 699 C308 699 321 690 321 690 L321 690 Z M511 183 C511 183 486 123 486 123 C470 85 397 33 358 33 C358 33 193 33 193 33 C193 33 530 660 530 660 C530 660 457 660 457 660 C457 660 384 660 384 660 C384 660 161 660 161 660 C161 660 112 660 112 660 C112 660 81 660 81 660 C81 657 78 647 77 644 C69 615 49 537 41 508 C41 508 53 508 53 508 C53 508 79 548 79 548 C102 582 179 628 213 628 C213 628 367 628 367 628 C367 628 32 0 32 0 C32 0 104 0 104 0 C104 0 175 0 175 0 C175 0 418 0 418 0 C418 0 493 0 493 0 C493 0 498 0 498 0 C498 3 500 13 500 17 C506 51 522 142 528 176 C523 179 511 183 511 183 L511 183 Z " />
<glyph glyph-name="zacute" unicode="&#x17a;" horiz-adv-x="483" d="M191 530 C191 530 308 654 308 654 C323 670 343 696 343 701 C343 711 292 749 278 749 C275 749 259 721 249 699 C249 699 179 539 179 539 C179 539 191 530 191 530 L191 530 Z M203 473 C203 473 203 473 203 473 C203 473 286 474 286 474 C286 474 37 0 37 0 C37 0 105 0 105 0 C105 0 173 0 173 0 C173 0 326 0 326 0 C326 0 400 0 400 0 C400 0 406 0 406 0 C406 3 407 10 408 13 C414 46 429 135 435 168 C435 171 417 176 417 176 C417 176 393 116 393 116 C377 77 304 26 265 26 C265 26 187 26 187 26 C187 26 433 500 433 500 C433 500 367 500 367 500 C367 500 300 500 300 500 C300 500 150 500 150 500 C150 500 101 500 101 500 C101 500 70 500 70 500 C69 497 67 489 67 487 C61 465 45 405 39 383 C39 383 51 383 51 383 C51 383 62 397 62 397 C88 429 169 473 203 473 C203 473 203 473 203 473 L203 473 Z " />
<glyph glyph-name="Zdotaccent" unicode="&#x17b;" horiz-adv-x="592" d="M321 730 C351 730 391 770 391 800 C391 831 351 871 321 871 C291 871 251 831 251 800 C251 770 291 730 321 730 L321 730 Z M511 183 C511 183 486 123 486 123 C470 85 397 33 358 33 C358 33 193 33 193 33 C193 33 530 660 530 660 C530 660 457 660 457 660 C457 660 384 660 384 660 C384 660 161 660 161 660 C161 660 112 660 112 660 C112 660 81 660 81 660 C81 657 78 647 77 644 C69 615 49 537 41 508 C41 508 53 508 53 508 C53 508 79 548 79 548 C102 582 179 628 213 628 C213 628 367 628 367 628 C367 628 32 0 32 0 C32 0 104 0 104 0 C104 0 175 0 175 0 C175 0 418 0 418 0 C418 0 493 0 493 0 C493 0 498 0 498 0 C498 3 500 13 500 17 C506 51 522 142 528 176 C523 179 511 183 511 183 L511 183 Z " />
<glyph glyph-name="zdotaccent" unicode="&#x17c;" horiz-adv-x="483" d="M267 570 C297 570 337 610 337 640 C337 671 297 711 267 711 C237 711 197 671 197 640 C197 610 237 570 267 570 L267 570 Z M203 473 C203 473 203 473 203 473 C203 473 286 474 286 474 C286 474 37 0 37 0 C37 0 105 0 105 0 C105 0 173 0 173 0 C173 0 326 0 326 0 C326 0 400 0 400 0 C400 0 406 0 406 0 C406 3 407 10 408 13 C414 46 429 135 435 168 C435 171 417 176 417 176 C417 176 393 116 393 116 C377 77 304 26 265 26 C265 26 187 26 187 26 C187 26 433 500 433 500 C433 500 367 500 367 500 C367 500 300 500 300 500 C300 500 150 500 150 500 C150 500 101 500 101 500 C101 500 70 500 70 500 C69 497 67 489 67 487 C61 465 45 405 39 383 C39 383 51 383 51 383 C51 383 62 397 62 397 C88 429 169 473 203 473 C203 473 203 473 203 473 L203 473 Z " />
<glyph glyph-name="Zcaron" unicode="&#x17d;" horiz-adv-x="592" d="M511 183 C511 183 486 123 486 123 C470 85 397 33 358 33 C358 33 193 33 193 33 C193 33 530 660 530 660 C530 660 457 660 457 660 C457 660 384 660 384 660 C384 660 161 660 161 660 C161 660 112 660 112 660 C112 660 81 660 81 660 C81 657 78 647 77 644 C69 615 49 537 41 508 C41 508 53 508 53 508 C53 508 79 548 79 548 C102 582 179 628 213 628 C213 628 367 628 367 628 C367 628 32 0 32 0 C32 0 104 0 104 0 C104 0 175 0 175 0 C175 0 418 0 418 0 C418 0 493 0 493 0 C493 0 498 0 498 0 C498 3 500 13 500 17 C506 51 522 142 528 176 C523 179 511 183 511 183 L511 183 Z M321 821 C321 821 431 929 431 929 C431 929 443 919 443 919 C443 919 358 748 358 748 C354 741 334 716 321 716 C308 716 288 741 284 748 C284 748 199 919 199 919 C199 919 211 929 211 929 C211 929 321 821 321 821 L321 821 Z " />
<glyph glyph-name="zcaron" unicode="&#x17e;" horiz-adv-x="483" d="M203 473 C203 473 203 473 203 473 C203 473 286 474 286 474 C286 474 37 0 37 0 C37 0 105 0 105 0 C105 0 173 0 173 0 C173 0 326 0 326 0 C326 0 400 0 400 0 C400 0 406 0 406 0 C406 3 407 10 408 13 C414 46 429 135 435 168 C435 171 417 176 417 176 C417 176 393 116 393 116 C377 77 304 26 265 26 C265 26 187 26 187 26 C187 26 433 500 433 500 C433 500 367 500 367 500 C367 500 300 500 300 500 C300 500 150 500 150 500 C150 500 101 500 101 500 C101 500 70 500 70 500 C69 497 67 489 67 487 C61 465 45 405 39 383 C39 383 51 383 51 383 C51 383 62 397 62 397 C88 429 169 473 203 473 C203 473 203 473 203 473 L203 473 Z M267 661 C267 661 377 769 377 769 C377 769 389 759 389 759 C389 759 304 588 304 588 C301 581 281 556 267 556 C254 556 234 581 231 588 C231 588 145 759 145 759 C145 759 157 769 157 769 C157 769 267 661 267 661 L267 661 Z " />
<glyph glyph-name="SmallLetterOwithogon" unicode="&#x1eb;" horiz-adv-x="699" d="M715 -39 C715 -39 704 -31 704 -31 C694 -45 618 -63 570 -63 C504 -63 411 -32 367 -4 C503 11 649 173 649 277 C649 385 489 558 347 558 C205 558 45 385 45 277 C45 174 188 14 323 -3 C390 -64 509 -138 558 -138 C595 -138 685 -81 715 -39 L715 -39 Z M347 24 C265 24 172 179 172 277 C172 374 265 530 347 530 C430 530 523 374 523 277 C523 179 430 24 347 24 L347 24 Z " />
<glyph glyph-name="CapitalLetterAwithdo" unicode="&#x226;" horiz-adv-x="708" d="M331 730 C361 730 401 770 401 800 C401 831 361 871 331 871 C301 871 261 831 261 800 C261 770 301 730 331 730 L331 730 Z M703 15 C703 15 693 15 693 15 C669 15 620 52 608 80 C608 80 608 80 608 80 C608 80 347 675 347 675 C347 675 315 675 315 675 C315 675 93 74 93 74 C79 47 33 15 8 15 C8 15 -3 15 -3 15 C-3 15 -3 0 -3 0 C-3 0 66 0 66 0 C66 0 88 0 88 0 C88 0 109 0 109 0 C109 0 219 0 219 0 C219 0 219 15 219 15 C219 15 194 15 194 15 C162 15 134 56 140 89 C140 89 191 232 191 232 C191 232 406 232 406 232 C406 232 470 80 470 80 C470 80 470 80 470 80 C482 52 460 15 432 15 C432 15 400 15 400 15 C400 15 400 0 400 0 C400 0 504 0 504 0 C504 0 573 0 573 0 C573 0 643 0 643 0 C643 0 703 0 703 0 C703 0 703 15 703 15 L703 15 Z M392 264 C392 264 202 264 202 264 C202 264 289 509 289 509 C289 509 392 264 392 264 L392 264 Z " />
<glyph glyph-name="LETTERSMALLCAPITALG" unicode="&#x262;" horiz-adv-x="756" d="M661 260 C661 260 586 260 586 260 C586 260 534 260 534 260 C534 260 483 260 483 260 C483 260 408 260 408 260 C408 260 408 245 408 245 C408 245 419 245 419 245 C446 245 483 208 483 180 C483 180 483 46 483 46 C440 33 394 24 369 24 C285 24 172 169 172 277 C172 385 285 530 369 530 C375 530 383 529 392 528 C392 528 392 528 392 528 C442 521 536 439 555 386 C557 378 565 357 568 349 C568 349 581 349 581 349 C581 349 581 500 581 500 C537 525 416 558 369 558 C230 558 45 397 45 277 C45 156 230 -5 369 -5 C418 -5 542 29 586 54 C586 54 586 180 586 180 C586 208 623 245 650 245 C650 245 661 245 661 245 C661 245 661 260 661 260 L661 260 Z " />
<glyph glyph-name="LETTERSMALLCAPITALI" unicode="&#x26a;" horiz-adv-x="351" d="M46 538 C46 538 58 538 58 538 C85 538 121 501 121 473 C121 473 121 80 121 80 C121 52 85 15 58 15 C58 15 46 15 46 15 C46 15 46 0 46 0 C46 0 121 0 121 0 C121 0 179 0 179 0 C179 0 236 0 236 0 C236 0 311 0 311 0 C312 0 312 4 311 8 C312 11 312 15 311 15 C311 15 300 15 300 15 C273 15 237 52 236 80 C236 80 236 473 236 473 C237 501 273 538 300 538 C300 538 311 538 311 538 C312 538 312 543 311 546 C312 549 312 553 311 553 C311 553 236 553 236 553 C236 553 179 553 179 553 C179 553 121 553 121 553 C121 553 46 553 46 553 C46 553 46 538 46 538 L46 538 Z " />
<glyph glyph-name="LETTERSMALLCAPITALN" unicode="&#x274;" horiz-adv-x="659" d="M435 538 C435 538 446 538 446 538 C474 538 510 501 510 473 C510 473 510 164 510 164 C510 164 216 553 216 553 C216 553 148 506 148 506 C148 506 148 506 148 506 C148 506 216 553 216 553 C216 553 148 553 148 553 C148 553 131 553 131 553 C131 553 113 553 113 553 C113 553 38 553 38 553 C38 553 38 538 38 538 C38 538 50 538 50 538 C77 538 113 501 113 473 C113 473 113 80 113 80 C113 52 77 15 50 15 C50 15 38 15 38 15 C38 15 38 0 38 0 C38 0 113 0 113 0 C113 0 131 0 131 0 C131 0 148 0 148 0 C148 0 223 0 223 0 C223 0 223 15 223 15 C223 15 212 15 212 15 C184 15 148 52 148 80 C148 80 148 454 148 454 C148 454 457 46 457 46 C457 46 507 -20 507 -20 C507 -20 545 -20 545 -20 C545 -20 545 88 545 88 C545 88 545 473 545 473 C545 473 545 475 545 475 C546 503 582 538 608 538 C608 538 620 538 620 538 C619 538 619 543 620 546 C619 549 619 553 620 553 C620 553 545 553 545 553 C545 553 527 553 527 553 C527 553 510 553 510 553 C510 553 435 553 435 553 C435 553 435 538 435 538 L435 538 Z " />
<glyph glyph-name="LETTERSMALLCAPITALR" unicode="&#x280;" horiz-adv-x="636" d="M36 538 C36 538 48 538 48 538 C75 538 111 501 111 473 C111 473 111 80 111 80 C111 52 75 15 48 15 C48 15 36 15 36 15 C36 15 36 0 36 0 C36 0 111 0 111 0 C111 0 169 0 169 0 C169 0 226 0 226 0 C226 0 301 0 301 0 C301 0 301 15 301 15 C301 15 290 15 290 15 C263 15 226 52 226 80 C226 80 226 261 226 261 C226 261 264 261 264 261 C264 261 385 106 385 106 C442 33 509 0 597 0 C597 0 637 0 637 0 C637 0 637 23 637 23 C637 23 632 23 632 23 C604 23 576 42 542 84 C542 84 385 283 385 283 C458 313 523 368 523 412 C523 472 395 553 300 553 C300 553 226 553 226 553 C226 553 169 553 169 553 C169 553 111 553 111 553 C111 553 36 553 36 553 C36 553 36 538 36 538 L36 538 Z M285 290 C285 290 241 290 241 290 C241 290 226 290 226 290 C226 290 226 525 226 525 C226 525 300 525 300 525 C343 525 402 461 402 412 C402 360 335 290 285 290 L285 290 Z " />
<glyph glyph-name="LETTERSMALLCAPITALY" unicode="&#x28f;" horiz-adv-x="599" d="M430 15 C430 15 419 15 419 15 C391 15 355 52 355 80 C355 80 355 280 355 280 C355 280 355 280 355 280 C355 280 488 473 488 473 C488 473 489 473 489 473 C508 501 565 538 589 538 C589 538 599 538 599 538 C599 538 599 553 599 553 C599 553 544 553 544 553 C544 553 527 553 527 553 C527 553 510 553 510 553 C510 553 400 553 400 553 C399 553 399 549 400 546 C399 543 399 538 400 538 C400 538 415 538 415 538 C451 538 466 490 442 453 C442 453 442 453 442 453 C442 453 335 295 335 295 C335 295 231 478 231 478 C220 505 236 538 262 538 C262 538 279 538 279 538 C278 538 278 543 279 546 C278 549 278 553 279 553 C279 553 189 553 189 553 C189 553 120 553 120 553 C120 553 51 553 51 553 C51 553 5 553 5 553 C5 553 5 538 5 538 C5 538 13 538 13 538 C33 538 83 501 99 473 C99 473 100 473 100 473 C100 473 240 244 240 244 C240 244 240 80 240 80 C240 52 203 15 176 15 C176 15 165 15 165 15 C165 15 165 0 165 0 C165 0 240 0 240 0 C240 0 297 0 297 0 C297 0 355 0 355 0 C355 0 430 0 430 0 C430 0 430 15 430 15 L430 15 Z " />
<glyph glyph-name="LETTERSMALLCAPITALB" unicode="&#x299;" horiz-adv-x="592" d="M36 538 C36 538 48 538 48 538 C75 538 111 501 111 473 C111 473 111 80 111 80 C111 52 75 15 48 15 C48 15 36 15 36 15 C36 15 36 0 36 0 C36 0 111 0 111 0 C111 0 169 0 169 0 C169 0 226 0 226 0 C226 0 321 0 321 0 C429 0 573 89 573 155 C573 211 461 283 359 300 C441 323 518 377 518 420 C518 477 393 553 300 553 C300 553 226 553 226 553 C226 553 169 553 169 553 C169 553 111 553 111 553 C111 553 36 553 36 553 C36 553 36 538 36 538 L36 538 Z M226 306 C226 306 226 525 226 525 C226 525 300 525 300 525 C344 525 403 465 403 420 C403 371 336 306 285 306 C285 306 226 306 226 306 L226 306 Z M226 281 C226 281 283 281 283 281 C355 281 452 209 452 155 C452 101 370 29 309 29 C309 29 226 29 226 29 C226 29 226 281 226 281 L226 281 Z " />
<glyph glyph-name="LETTERSMALLCAPITALH" unicode="&#x29c;" horiz-adv-x="726" d="M687 553 C687 553 612 553 612 553 C612 553 554 553 554 553 C554 553 497 553 497 553 C497 553 422 553 422 553 C422 553 422 538 422 538 C422 538 433 538 433 538 C460 538 497 501 497 473 C497 473 497 307 497 307 C497 307 233 307 233 307 C233 307 233 473 233 473 C233 501 270 538 297 538 C297 538 308 538 308 538 C308 538 308 553 308 553 C308 553 233 553 233 553 C233 553 176 553 176 553 C176 553 118 553 118 553 C118 553 43 553 43 553 C43 553 43 538 43 538 C43 538 54 538 54 538 C82 538 118 501 118 473 C118 473 118 80 118 80 C118 52 82 15 54 15 C54 15 43 15 43 15 C43 15 43 0 43 0 C43 0 118 0 118 0 C118 0 176 0 176 0 C176 0 233 0 233 0 C233 0 308 0 308 0 C308 0 308 15 308 15 C308 15 297 15 297 15 C270 15 233 52 233 80 C233 80 233 278 233 278 C233 278 497 278 497 278 C497 278 497 80 497 80 C497 52 460 15 433 15 C433 15 422 15 422 15 C422 15 422 0 422 0 C422 0 497 0 497 0 C497 0 554 0 554 0 C554 0 612 0 612 0 C612 0 687 0 687 0 C687 0 687 15 687 15 C687 15 676 15 676 15 C648 15 612 52 612 80 C612 80 612 473 612 473 C612 501 648 538 676 538 C676 538 687 538 687 538 C687 538 687 553 687 553 L687 553 Z " />
<glyph glyph-name="LETTERSMALLCAPITALL" unicode="&#x29f;" horiz-adv-x="598" d="M500 179 C500 179 475 119 475 119 C459 80 386 29 347 29 C347 29 233 29 233 29 C233 29 233 473 233 473 C233 501 270 538 297 538 C297 538 308 538 308 538 C308 538 308 553 308 553 C308 553 233 553 233 553 C233 553 176 553 176 553 C176 553 118 553 118 553 C118 553 43 553 43 553 C43 553 43 538 43 538 C43 538 54 538 54 538 C82 538 118 501 118 473 C118 473 118 80 118 80 C118 52 82 15 54 15 C54 15 43 15 43 15 C43 15 43 0 43 0 C43 0 118 0 118 0 C118 0 176 0 176 0 C176 0 233 0 233 0 C233 0 407 0 407 0 C407 0 483 0 483 0 C483 0 487 0 487 0 C488 3 489 11 490 14 C496 48 511 138 517 171 C513 172 500 179 500 179 L500 179 Z " />
<glyph glyph-name="LETTERSMALLCAPITALA" unicode="&#x1d00;" horiz-adv-x="634" d="M629 15 C629 15 619 15 619 15 C595 15 546 52 533 80 C533 80 533 80 533 80 C533 80 311 566 311 566 C311 566 283 566 283 566 C283 566 98 80 98 80 C98 80 98 80 98 80 C87 52 37 15 9 15 C9 15 -2 15 -2 15 C-2 15 -2 0 -2 0 C-2 0 68 0 68 0 C68 0 86 0 86 0 C86 0 105 0 105 0 C105 0 215 0 215 0 C215 0 215 15 215 15 C215 15 191 15 191 15 C157 15 128 61 140 95 C140 95 140 95 140 95 C140 95 176 194 176 194 C176 194 358 194 358 194 C358 194 411 74 411 74 C418 47 398 15 372 15 C372 15 341 15 341 15 C341 15 341 0 341 0 C341 0 444 0 444 0 C444 0 507 0 507 0 C507 0 569 0 569 0 C569 0 629 0 629 0 C629 0 629 15 629 15 L629 15 Z M345 222 C345 222 186 223 186 223 C186 223 258 419 258 419 C258 419 345 222 345 222 L345 222 Z " />
<glyph glyph-name="LETTERSMALLCAPITALC" unicode="&#x1d04;" horiz-adv-x="660" d="M601 349 C601 349 601 500 601 500 C557 525 430 558 379 558 C236 558 45 397 45 277 C45 156 236 -5 379 -5 C430 -5 557 29 601 54 C601 54 601 204 601 204 C601 204 588 204 588 204 C585 197 577 176 575 168 C553 107 441 24 379 24 C290 24 172 169 172 277 C172 385 290 530 379 530 C388 530 399 529 411 527 C411 527 411 527 411 527 C462 519 556 438 575 385 C577 378 585 357 588 349 C588 349 601 349 601 349 L601 349 Z " />
<glyph glyph-name="LETTERSMALLCAPITALD" unicode="&#x1d05;" horiz-adv-x="687" d="M36 538 C36 538 48 538 48 538 C75 538 111 501 111 473 C111 473 111 80 111 80 C111 52 75 15 48 15 C48 15 36 15 36 15 C36 15 36 0 36 0 C36 0 111 0 111 0 C111 0 169 0 169 0 C169 0 226 0 226 0 C226 0 325 0 325 0 C459 0 638 158 638 277 C638 395 445 553 301 553 C301 553 226 553 226 553 C226 553 169 553 169 553 C169 553 111 553 111 553 C111 553 36 553 36 553 C36 553 36 538 36 538 L36 538 Z M226 29 C226 29 226 525 226 525 C226 525 301 525 301 525 C396 525 523 383 523 277 C523 171 410 29 325 29 C325 29 226 29 226 29 L226 29 Z " />
<glyph glyph-name="LETTERSMALLCAPITALE" unicode="&#x1d07;" horiz-adv-x="598" d="M418 196 C418 196 418 281 418 281 C418 281 418 295 418 295 C418 295 418 309 418 309 C418 309 418 384 418 384 C418 385 417 385 416 384 C412 385 406 385 406 384 C406 384 403 373 403 373 C394 346 334 310 298 309 C298 309 233 309 233 309 C233 309 233 525 233 525 C233 525 332 525 332 525 C375 525 451 468 465 425 C465 425 476 390 476 390 C476 390 487 390 487 390 C487 390 487 539 487 539 C487 539 487 553 487 553 C487 553 473 553 473 553 C473 553 407 553 407 553 C407 553 233 553 233 553 C233 553 176 553 176 553 C176 553 118 553 118 553 C118 553 43 553 43 553 C43 553 43 538 43 538 C43 538 54 538 54 538 C82 538 118 501 118 473 C118 473 118 80 118 80 C118 52 82 15 54 15 C54 15 43 15 43 15 C43 15 43 0 43 0 C43 0 118 0 118 0 C118 0 176 0 176 0 C176 0 233 0 233 0 C233 0 407 0 407 0 C407 0 483 0 483 0 C483 0 487 0 487 0 C488 3 489 11 490 14 C495 46 510 132 516 164 C516 164 505 164 505 164 C505 164 488 129 488 129 C466 86 380 29 337 29 C337 29 233 29 233 29 C233 29 233 281 233 281 C233 281 298 281 298 281 C334 281 394 239 403 208 C403 208 406 196 406 196 C406 196 418 196 418 196 L418 196 Z " />
<glyph glyph-name="LETTERSMALLCAPITALJ" unicode="&#x1d0a;" horiz-adv-x="393" d="M354 553 C354 553 279 553 279 553 C279 553 221 553 221 553 C221 553 164 553 164 553 C164 553 89 553 89 553 C89 553 89 538 89 538 C89 538 100 538 100 538 C127 538 164 501 164 473 C164 473 164 168 164 168 C164 88 150 13 136 13 C122 13 100 38 97 57 C95 77 65 104 46 104 C23 104 -3 77 0 58 C4 29 66 -10 107 -10 C195 -10 279 124 279 265 C279 265 279 473 279 473 C279 501 315 538 342 538 C342 538 354 538 354 538 C354 538 354 553 354 553 L354 553 Z " />
<glyph glyph-name="LETTERSMALLCAPITALK" unicode="&#x1d0b;" horiz-adv-x="613" d="M374 538 C374 538 384 538 384 538 C404 538 404 508 386 481 C386 481 301 384 301 384 C301 384 301 385 301 385 C301 385 226 298 226 298 C226 298 226 473 226 473 C226 501 263 538 290 538 C290 538 301 538 301 538 C301 538 301 553 301 553 C301 553 226 553 226 553 C226 553 169 553 169 553 C169 553 111 553 111 553 C111 553 36 553 36 553 C36 553 36 538 36 538 C36 538 48 538 48 538 C75 538 111 501 111 473 C111 473 111 80 111 80 C111 52 75 15 48 15 C48 15 36 15 36 15 C36 15 36 0 36 0 C36 0 111 0 111 0 C111 0 169 0 169 0 C169 0 226 0 226 0 C226 0 301 0 301 0 C301 0 301 15 301 15 C301 15 290 15 290 15 C263 15 226 52 226 80 C226 80 226 298 226 298 C226 298 338 123 338 123 C380 57 490 -5 564 -5 C564 -5 604 -5 604 -5 C604 -5 604 18 604 18 C604 18 599 18 599 18 C567 18 476 111 413 210 C413 210 318 359 318 359 C318 359 420 479 420 479 C448 506 510 538 535 538 C535 538 546 538 546 538 C546 538 546 553 546 553 C546 553 484 553 484 553 C484 553 467 553 467 553 C467 553 449 553 449 553 C449 553 374 553 374 553 C374 553 374 538 374 538 L374 538 Z " />
<glyph glyph-name="LETTERSMALLCAPITALM" unicode="&#x1d0d;" horiz-adv-x="824" d="M783 553 C783 553 709 553 709 553 C709 553 657 553 657 553 C657 553 646 553 646 553 C646 553 606 553 606 553 C606 553 374 -5 374 -5 C374 -5 428 126 428 126 C428 126 427 130 427 130 C427 130 222 553 222 553 C222 553 168 553 168 553 C168 553 151 553 151 553 C151 553 133 553 133 553 C133 553 58 553 58 553 C59 553 59 549 58 546 C59 543 59 538 58 538 C58 538 70 538 70 538 C95 538 126 506 130 479 C130 479 111 75 111 75 C106 47 71 15 45 15 C45 15 34 15 34 15 C34 15 34 0 34 0 C34 0 108 0 108 0 C108 0 126 0 126 0 C126 0 143 0 143 0 C143 0 253 0 253 0 C253 0 253 15 253 15 C253 15 224 15 224 15 C191 15 150 57 147 91 C147 91 162 417 162 417 C162 417 348 46 348 46 C348 46 374 -5 374 -5 C374 -5 403 -5 403 -5 C403 -5 609 468 609 468 C609 468 621 80 621 80 C621 80 621 80 621 80 C623 52 588 15 560 15 C560 15 549 15 549 15 C549 15 549 0 549 0 C549 0 624 0 624 0 C624 0 682 0 682 0 C682 0 739 0 739 0 C739 0 813 0 813 0 C813 0 813 15 813 15 C813 15 802 15 802 15 C775 15 736 52 735 80 C735 80 735 80 735 80 C735 80 713 477 713 477 C715 505 747 538 772 538 C772 538 783 538 783 538 C783 538 783 553 783 553 L783 553 Z " />
<glyph glyph-name="LETTERSMALLCAPITALO" unicode="&#x1d0f;" horiz-adv-x="699" d="M347 24 C265 24 172 179 172 277 C172 374 265 530 347 530 C430 530 523 374 523 277 C523 179 430 24 347 24 L347 24 Z M45 277 C45 168 205 -5 347 -5 C489 -5 649 168 649 277 C649 385 489 558 347 558 C205 558 45 385 45 277 L45 277 Z " />
<glyph glyph-name="LETTERSMALLCAPITALP" unicode="&#x1d18;" horiz-adv-x="541" d="M36 538 C36 538 48 538 48 538 C75 538 111 501 111 473 C111 473 111 80 111 80 C111 52 75 15 48 15 C48 15 36 15 36 15 C36 15 36 0 36 0 C36 0 111 0 111 0 C111 0 169 0 169 0 C169 0 226 0 226 0 C226 0 301 0 301 0 C301 0 301 15 301 15 C301 15 290 15 290 15 C263 15 226 52 226 80 C226 80 226 246 226 246 C226 246 285 246 285 246 C386 246 522 334 522 400 C522 466 395 553 299 553 C299 553 226 553 226 553 C226 553 169 553 169 553 C169 553 111 553 111 553 C111 553 36 553 36 553 C36 553 36 538 36 538 L36 538 Z M226 275 C226 275 226 525 226 525 C226 525 299 525 299 525 C343 525 401 454 401 400 C401 347 334 275 285 275 C285 275 226 275 226 275 L226 275 Z " />
<glyph glyph-name="LETTERSMALLCAPITALT" unicode="&#x1d1b;" horiz-adv-x="560" d="M148 0 C148 0 223 0 223 0 C223 0 280 0 280 0 C280 0 338 0 338 0 C338 0 413 0 413 0 C412 0 412 4 413 8 C412 11 412 15 413 15 C413 15 401 15 401 15 C375 15 339 50 338 78 C338 78 338 80 338 80 C338 80 338 525 338 525 C338 525 410 525 410 525 C444 525 509 479 523 445 C523 445 551 375 551 375 C551 375 563 375 563 375 C560 410 552 504 549 539 C549 542 548 550 548 553 C548 553 520 553 520 553 C520 553 468 553 468 553 C468 553 92 553 92 553 C92 553 40 553 40 553 C40 553 12 553 12 553 C12 550 11 542 11 539 C8 504 0 410 -3 375 C-3 375 9 375 9 375 C9 375 37 445 37 445 C51 479 116 525 150 525 C150 525 223 525 223 525 C223 525 223 80 223 80 C223 52 186 15 159 15 C159 15 148 15 148 15 C148 15 148 0 148 0 L148 0 Z " />
<glyph glyph-name="LETTERSMALLCAPITALU" unicode="&#x1d1c;" horiz-adv-x="631" d="M612 553 C612 553 527 553 527 553 C527 553 510 553 510 553 C510 553 492 553 492 553 C492 553 402 553 402 553 C402 553 402 538 402 538 C402 538 417 538 417 538 C449 538 492 496 492 463 C492 463 492 164 492 164 C492 109 416 35 335 35 C274 35 216 104 216 155 C216 155 216 473 216 473 C216 501 253 538 280 538 C280 538 291 538 291 538 C291 538 291 553 291 553 C291 553 216 553 216 553 C216 553 159 553 159 553 C159 553 101 553 101 553 C101 553 26 553 26 553 C26 553 26 538 26 538 C26 538 38 538 38 538 C65 538 101 501 101 473 C101 473 101 178 101 178 C101 100 207 -5 318 -5 C425 -5 527 85 527 153 C527 153 527 463 527 463 C527 496 568 538 599 538 C599 538 612 538 612 538 C612 538 612 553 612 553 L612 553 Z " />
<glyph glyph-name="LETTERSMALLCAPITALV" unicode="&#x1d20;" horiz-adv-x="624" d="M624 553 C624 553 555 553 555 553 C555 553 537 553 537 553 C537 553 520 553 520 553 C520 553 400 553 400 553 C400 553 400 538 400 538 C400 538 420 538 420 538 C458 538 492 488 482 448 C482 448 367 124 367 124 C367 124 210 477 210 477 C202 505 222 538 249 538 C249 538 277 538 277 538 C277 538 277 553 277 553 C277 553 177 553 177 553 C177 553 114 553 114 553 C114 553 50 553 50 553 C50 553 -3 553 -3 553 C-2 553 -2 549 -3 546 C-2 543 -2 538 -3 538 C-3 538 6 538 6 538 C26 538 69 506 85 479 C85 479 317 -15 317 -15 C317 -15 345 -15 345 -15 C345 -15 528 479 528 479 C542 506 587 538 613 538 C613 538 624 538 624 538 C624 538 624 553 624 553 L624 553 Z " />
<glyph glyph-name="LETTERSMALLCAPITALW" unicode="&#x1d21;" horiz-adv-x="877" d="M873 553 C873 553 803 553 803 553 C803 553 785 553 785 553 C785 553 768 553 768 553 C768 553 663 553 663 553 C663 553 663 538 663 538 C663 538 699 538 699 538 C726 538 753 501 744 473 C744 473 744 473 744 473 C744 473 598 -15 598 -15 C598 -15 646 146 646 146 C646 146 486 563 486 563 C486 563 457 563 457 563 C457 563 275 -15 275 -15 C275 -15 322 136 322 136 C322 136 208 474 208 474 C200 502 223 538 251 538 C251 538 271 538 271 538 C271 538 271 553 271 553 C271 553 181 553 181 553 C181 553 118 553 118 553 C118 553 54 553 54 553 C54 553 0 553 0 553 C0 553 0 538 0 538 C0 538 9 538 9 538 C31 538 74 501 85 473 C85 473 85 473 85 473 C85 473 275 -15 275 -15 C275 -15 303 -15 303 -15 C303 -15 432 393 432 393 C432 393 598 -15 598 -15 C598 -15 627 -15 627 -15 C627 -15 779 476 779 476 C791 504 836 538 862 538 C862 538 873 538 873 538 C873 538 873 553 873 553 L873 553 Z " />
<glyph glyph-name="LETTERSMALLCAPITALZ" unicode="&#x1d22;" horiz-adv-x="532" d="M453 180 C453 180 428 120 428 120 C412 81 339 30 301 30 C301 30 182 30 182 30 C182 30 470 553 470 553 C470 553 404 553 404 553 C404 553 338 553 338 553 C338 553 168 553 168 553 C168 553 116 553 116 553 C116 553 88 553 88 553 C87 550 85 542 84 539 C76 510 56 433 48 405 C48 405 60 405 60 405 C60 405 87 445 87 445 C110 479 186 525 220 525 C220 525 323 525 323 525 C323 525 36 0 36 0 C36 0 100 0 100 0 C100 0 165 0 165 0 C165 0 361 0 361 0 C361 0 437 0 437 0 C437 0 441 0 441 0 C441 3 443 12 443 15 C449 49 465 139 471 172 C471 175 453 180 453 180 L453 180 Z " />
<glyph glyph-name="Wgrave" unicode="&#x1e80;" horiz-adv-x="1013" d="M1009 660 C1009 660 938 660 938 660 C938 660 919 660 919 660 C919 660 900 660 900 660 C900 660 795 660 795 660 C795 660 795 645 795 645 C795 645 831 645 831 645 C858 645 884 608 876 580 C876 580 876 580 876 580 C876 580 699 -15 699 -15 C699 -15 756 177 756 177 C756 177 561 670 561 670 C561 670 529 670 529 670 C529 670 368 164 368 164 C368 164 223 580 223 580 C223 580 223 580 223 580 C213 608 237 645 265 645 C265 645 285 645 285 645 C285 645 285 660 285 660 C285 660 195 660 195 660 C195 660 125 660 125 660 C125 660 54 660 54 660 C54 660 0 660 0 660 C0 660 0 645 0 645 C0 645 9 645 9 645 C29 645 68 613 82 586 C82 586 311 -15 311 -15 C311 -15 343 -15 343 -15 C343 -15 496 466 496 466 C496 466 699 -15 699 -15 C699 -15 731 -15 731 -15 C731 -15 913 580 913 580 C913 580 914 580 914 580 C922 608 970 645 998 645 C998 645 1009 645 1009 645 C1009 645 1009 660 1009 660 L1009 660 Z M556 859 C547 881 530 909 526 909 C512 909 461 871 461 861 C461 856 482 830 497 814 C497 814 617 690 617 690 C617 690 630 699 630 699 C630 699 556 859 556 859 L556 859 Z " />
<glyph glyph-name="Wacute" unicode="&#x1e82;" horiz-adv-x="1013" d="M1009 660 C1009 660 938 660 938 660 C938 660 919 660 919 660 C919 660 900 660 900 660 C900 660 795 660 795 660 C795 660 795 645 795 645 C795 645 831 645 831 645 C858 645 884 608 876 580 C876 580 876 580 876 580 C876 580 699 -15 699 -15 C699 -15 756 177 756 177 C756 177 561 670 561 670 C561 670 529 670 529 670 C529 670 368 164 368 164 C368 164 223 580 223 580 C223 580 223 580 223 580 C213 608 237 645 265 645 C265 645 285 645 285 645 C285 645 285 660 285 660 C285 660 195 660 195 660 C195 660 125 660 125 660 C125 660 54 660 54 660 C54 660 0 660 0 660 C0 660 0 645 0 645 C0 645 9 645 9 645 C29 645 68 613 82 586 C82 586 311 -15 311 -15 C311 -15 343 -15 343 -15 C343 -15 496 466 496 466 C496 466 699 -15 699 -15 C699 -15 731 -15 731 -15 C731 -15 913 580 913 580 C913 580 914 580 914 580 C922 608 970 645 998 645 C998 645 1009 645 1009 645 C1009 645 1009 660 1009 660 L1009 660 Z M484 690 C484 690 601 814 601 814 C616 830 636 856 636 861 C636 871 585 909 571 909 C567 909 552 881 542 859 C542 859 472 699 472 699 C472 699 484 690 484 690 L484 690 Z " />
<glyph glyph-name="Wdieresis" unicode="&#x1e84;" horiz-adv-x="1013" d="M1009 660 C1009 660 938 660 938 660 C938 660 919 660 919 660 C919 660 900 660 900 660 C900 660 795 660 795 660 C795 660 795 645 795 645 C795 645 831 645 831 645 C858 645 884 608 876 580 C876 580 876 580 876 580 C876 580 699 -15 699 -15 C699 -15 756 177 756 177 C756 177 561 670 561 670 C561 670 529 670 529 670 C529 670 368 164 368 164 C368 164 223 580 223 580 C223 580 223 580 223 580 C213 608 237 645 265 645 C265 645 285 645 285 645 C285 645 285 660 285 660 C285 660 195 660 195 660 C195 660 125 660 125 660 C125 660 54 660 54 660 C54 660 0 660 0 660 C0 660 0 645 0 645 C0 645 9 645 9 645 C29 645 68 613 82 586 C82 586 311 -15 311 -15 C311 -15 343 -15 343 -15 C343 -15 496 466 496 466 C496 466 699 -15 699 -15 C699 -15 731 -15 731 -15 C731 -15 913 580 913 580 C913 580 914 580 914 580 C922 608 970 645 998 645 C998 645 1009 645 1009 645 C1009 645 1009 660 1009 660 L1009 660 Z M645 730 C675 730 716 770 716 800 C716 831 675 871 645 871 C615 871 575 831 575 800 C575 770 615 730 645 730 L645 730 Z M445 730 C475 730 515 770 515 800 C515 831 475 871 445 871 C414 871 374 831 374 800 C374 770 414 730 445 730 L445 730 Z " />
<glyph glyph-name="CapitalLetterEWITHTI" unicode="&#x1ebc;" horiz-adv-x="652" d="M182 755 C182 779 204 811 221 811 C262 811 349 748 391 748 C429 748 480 826 480 885 C480 885 461 885 461 885 C461 859 435 825 415 825 C374 825 287 887 246 887 C211 887 163 811 163 755 C163 755 182 755 182 755 L182 755 Z M473 251 C473 251 473 336 473 336 C473 336 473 352 473 352 C473 352 473 368 473 368 C473 368 473 443 473 443 C473 443 461 443 461 443 C461 443 457 432 457 432 C449 404 389 368 353 368 C353 368 243 368 243 368 C243 368 243 628 243 628 C243 628 388 628 388 628 C431 628 507 571 521 528 C521 528 532 493 532 493 C532 493 543 493 543 493 C543 493 543 644 543 644 C543 644 543 660 543 660 C543 660 528 660 528 660 C528 660 463 660 463 660 C463 660 243 660 243 660 C243 660 179 660 179 660 C179 660 115 660 115 660 C115 660 40 660 40 660 C40 660 40 645 40 645 C40 645 51 645 51 645 C79 645 115 608 115 580 C115 580 115 80 115 80 C115 52 79 15 51 15 C51 15 40 15 40 15 C40 15 40 0 40 0 C40 0 115 0 115 0 C115 0 179 0 179 0 C179 0 243 0 243 0 C243 0 462 0 462 0 C462 0 538 0 538 0 C538 0 542 0 542 0 C543 3 545 13 545 16 C551 48 566 135 572 167 C572 167 561 167 561 167 C561 167 543 132 543 132 C522 89 436 32 393 32 C393 32 243 32 243 32 C243 32 243 336 243 336 C243 336 353 336 353 336 C389 336 449 295 457 264 C457 264 461 251 461 251 C461 251 473 251 473 251 L473 251 Z " />
<glyph glyph-name="Ygrave" unicode="&#x1ef2;" horiz-adv-x="671" d="M193 0 C193 0 268 0 268 0 C268 0 332 0 332 0 C332 0 396 0 396 0 C396 0 471 0 471 0 C470 0 470 4 471 8 C470 11 470 15 471 15 C471 15 459 15 459 15 C433 15 397 50 396 78 C396 78 396 80 396 80 C396 80 396 330 396 330 C396 330 396 330 396 330 C396 330 568 586 568 586 C589 613 640 645 662 645 C662 645 672 645 672 645 C671 645 671 649 672 653 C671 656 671 660 672 660 C672 660 617 660 617 660 C617 660 597 660 597 660 C597 660 578 660 578 660 C578 660 468 660 468 660 C468 660 468 645 468 645 C468 645 483 645 483 645 C518 645 535 602 517 566 C517 566 379 356 379 356 C379 356 246 581 246 581 C232 609 246 645 274 645 C274 645 290 645 290 645 C290 645 290 660 290 660 C290 660 200 660 200 660 C200 660 123 660 123 660 C123 660 47 660 47 660 C47 660 1 660 1 660 C0 660 0 656 1 653 C0 649 0 645 1 645 C1 645 9 645 9 645 C29 645 78 608 94 580 C94 580 95 580 95 580 C95 580 268 289 268 289 C268 289 268 80 268 80 C268 52 231 15 204 15 C204 15 193 15 193 15 C193 15 193 0 193 0 L193 0 Z M343 859 C333 881 317 909 313 909 C299 909 247 871 247 861 C247 856 268 830 284 814 C284 814 403 690 403 690 C403 690 416 699 416 699 C416 699 343 859 343 859 L343 859 Z " />
<glyph glyph-name="quoteleft" unicode="&#x2018;" horiz-adv-x="282" d="M139 501 C133 501 126 499 120 497 C115 502 112 505 112 505 C112 555 160 639 196 652 C196 652 189 669 189 669 C128 646 46 521 46 450 C46 450 52 443 62 433 C61 429 60 425 60 421 C60 387 105 342 139 342 C173 342 219 387 219 421 C219 455 173 501 139 501 L139 501 Z " />
<glyph glyph-name="quoteright" unicode="&#x2019;" horiz-adv-x="282" d="M139 506 C145 506 152 508 159 510 C164 505 167 502 167 501 C167 452 119 368 83 355 C83 355 89 337 89 337 C151 360 233 486 233 556 C233 557 227 564 217 574 C218 578 219 582 219 586 C219 620 173 665 139 665 C105 665 60 620 60 586 C60 552 105 506 139 506 L139 506 Z " />
<glyph glyph-name="quotedblleft" unicode="&#x201c;" horiz-adv-x="505" d="M139 501 C133 501 126 499 120 497 C115 502 112 505 112 505 C112 555 160 639 196 652 C196 652 189 669 189 669 C128 646 46 521 46 450 C46 450 52 443 62 433 C61 429 60 425 60 421 C60 387 105 342 139 342 C173 342 219 387 219 421 C219 455 173 501 139 501 L139 501 Z M295 455 C288 444 283 432 283 421 C283 387 328 342 362 342 C380 342 401 355 418 372 C422 367 427 363 432 358 C432 358 492 419 492 419 C425 486 334 535 334 505 C334 555 383 639 419 652 C419 652 412 669 412 669 C351 646 269 521 269 450 C269 460 279 461 295 455 L295 455 Z " />
<glyph glyph-name="quotedblright" unicode="&#x201d;" horiz-adv-x="505" d="M139 506 C145 506 152 508 159 510 C164 505 167 502 167 501 C167 452 119 368 83 355 C83 355 89 337 89 337 C151 360 233 486 233 556 C233 557 227 564 217 574 C218 578 219 582 219 586 C219 620 173 665 139 665 C105 665 60 620 60 586 C60 552 105 506 139 506 L139 506 Z M430 551 C437 563 442 575 442 586 C442 620 396 665 362 665 C344 665 322 652 306 635 C301 639 297 643 292 648 C292 648 232 587 232 587 C300 521 390 472 390 501 C390 452 342 368 306 355 C306 355 312 337 312 337 C374 360 456 486 456 556 C456 546 446 546 430 551 C430 551 430 551 430 551 L430 551 Z " />
<glyph glyph-name="ellipsis" unicode="&#x2026;" horiz-adv-x="645" d="M538 0 C572 0 618 46 618 80 C618 114 572 160 538 160 C504 160 458 114 458 80 C458 46 504 0 538 0 L538 0 Z M323 0 C357 0 403 46 403 80 C403 114 357 160 323 160 C289 160 243 114 243 80 C243 46 289 0 323 0 L323 0 Z M108 0 C142 0 188 46 188 80 C188 114 142 160 108 160 C74 160 28 114 28 80 C28 46 74 0 108 0 L108 0 Z " />
<glyph glyph-name="guilsinglleft" unicode="&#x2039;" horiz-adv-x="299" d="M134 252 C134 252 251 454 251 454 C251 454 239 466 239 466 C239 466 20 258 20 258 C20 258 20 245 20 245 C20 245 242 37 242 37 C242 37 255 50 255 50 C255 50 134 252 134 252 L134 252 Z " />
<glyph glyph-name="guilsinglright" unicode="&#x203a;" horiz-adv-x="299" d="M166 252 C166 252 48 454 48 454 C48 454 61 466 61 466 C61 466 280 258 280 258 C280 258 280 245 280 245 C280 245 58 37 58 37 C58 37 45 50 45 50 C45 50 166 252 166 252 L166 252 Z " />
</font>
</svg>
