<?xml version="1.0" encoding="UTF-8"?>
<svg xmlns="http://www.w3.org/2000/svg" xmlns:xlink="http://www.w3.org/1999/xlink" version="1.2" >
<font id="Zisel Light">
<font-face  font-family="Zisel" units-per-em="1024" ascent="975" descent="-358" font-style="normal" font-weight="300" font-stretch="normal" cap-height="750" x-height="520" underline-position="0" underline-thickness="0" />
<missing-glyph  horiz-adv-x="472" d="M0 700 C0 700 432 700 432 700 C432 700 432 0 432 0 C432 0 0 0 0 0 C0 0 0 700 0 700 L0 700 Z M50 50 C50 50 382 50 382 50 C382 50 382 650 382 650 C382 650 50 650 50 650 C50 650 50 50 50 50 L50 50 Z " />
<glyph glyph-name="NULL" d="" />
<glyph glyph-name="CR" unicode="&#xd;" horiz-adv-x="256" d="" />
<glyph glyph-name="space" unicode="&#x20;" horiz-adv-x="281" d="" />
<glyph glyph-name="exclam" unicode="&#x21;" horiz-adv-x="148" d="M44 0 C44 0 104 0 104 0 C104 0 104 60 104 60 C104 60 44 60 44 60 C44 60 44 0 44 0 L44 0 Z M45 750 C45 750 45 440 45 440 C45 440 67 193 67 193 C67 193 82 193 82 193 C82 193 104 440 104 440 C104 440 104 750 104 750 C104 750 45 750 45 750 L45 750 Z " />
<glyph glyph-name="quotedbl" unicode="&#x22;" horiz-adv-x="270" d="M167 750 C167 750 167 695 167 695 C167 695 183 650 183 650 C183 650 207 650 207 650 C207 650 223 695 223 695 C223 695 223 750 223 750 C223 750 167 750 167 750 L167 750 Z M77 750 C77 750 77 695 77 695 C77 695 93 650 93 650 C93 650 117 650 117 650 C117 650 133 695 133 695 C133 695 133 750 133 750 C133 750 77 750 77 750 L77 750 Z " />
<glyph glyph-name="numbersign" unicode="&#x23;" horiz-adv-x="723" d="M508 750 C508 750 481 540 481 540 C481 540 297 540 297 540 C297 540 324 750 324 750 C324 750 274 750 274 750 C274 750 247 540 247 540 C247 540 69 540 69 540 C69 540 63 500 63 500 C63 500 242 500 242 500 C242 500 210 250 210 250 C210 250 25 250 25 250 C25 250 19 210 19 210 C19 210 205 210 205 210 C205 210 178 0 178 0 C178 0 229 0 229 0 C229 0 256 210 256 210 C256 210 440 210 440 210 C440 210 413 0 413 0 C413 0 463 0 463 0 C463 0 490 210 490 210 C490 210 654 210 654 210 C654 210 660 250 660 250 C660 250 495 250 495 250 C495 250 527 500 527 500 C527 500 697 500 697 500 C697 500 703 540 703 540 C703 540 532 540 532 540 C532 540 559 750 559 750 C559 750 508 750 508 750 L508 750 Z M292 500 C292 500 476 500 476 500 C476 500 445 250 445 250 C445 250 261 250 261 250 C261 250 292 500 292 500 L292 500 Z " />
<glyph glyph-name="dollar" unicode="&#x24;" horiz-adv-x="575" d="M324 825 C324 825 324 749 324 749 C302 756 281 760 262 760 C252 760 242 759 232 758 C232 758 232 825 232 825 C232 825 199 825 199 825 C199 825 199 752 199 752 C111 728 56 652 56 547 C56 467 104 410 199 378 C199 378 199 82 199 82 C161 109 128 151 102 206 C102 206 77 189 77 189 C77 189 77 189 77 189 C77 189 51 171 51 171 C86 97 138 45 199 16 C199 16 199 -75 199 -75 C199 -75 232 -75 232 -75 C232 -75 232 3 232 3 C259 -6 287 -10 316 -10 C319 -10 321 -10 324 -10 C324 -10 324 -75 324 -75 C324 -75 357 -75 357 -75 C357 -75 357 -8 357 -8 C478 7 541 91 541 209 C541 306 479 371 357 402 C357 402 357 672 357 672 C390 651 426 620 462 580 C462 580 504 617 504 617 C502 619 501 621 499 623 C499 623 499 623 499 623 C499 623 499 623 499 623 C452 675 403 712 357 735 C357 735 357 825 357 825 C357 825 324 825 324 825 L324 825 Z M324 410 C316 411 308 413 299 414 C274 418 252 423 232 429 C232 429 232 705 232 705 C242 706 252 707 262 707 C280 707 301 702 324 691 C324 691 324 410 324 410 L324 410 Z M199 441 C142 466 113 504 113 554 C113 622 146 673 199 695 C199 695 199 441 199 441 L199 441 Z M232 368 C248 364 266 361 284 358 C298 356 311 353 324 350 C324 350 324 42 324 42 C321 42 319 42 316 42 C287 42 259 49 232 62 C232 62 232 368 232 368 L232 368 Z M357 342 C442 315 485 270 485 208 C485 121 441 60 357 45 C357 45 357 342 357 342 L357 342 Z " />
<glyph glyph-name="percent" unicode="&#x25;" horiz-adv-x="782" d="M700 140 C700 67 666 18 600 18 C534 18 500 67 500 140 C500 213 534 262 600 262 C666 262 700 213 700 140 L700 140 Z M600 -10 C684 -10 728 50 728 140 C728 230 684 290 600 290 C515 290 471 230 471 140 C471 50 515 -10 600 -10 L600 -10 Z M82 610 C82 683 117 732 182 732 C249 732 282 683 282 610 C282 537 249 488 182 488 C117 488 82 537 82 610 L82 610 Z M182 760 C97 760 54 700 54 610 C54 520 97 460 182 460 C267 460 311 520 311 610 C311 700 267 760 182 760 L182 760 Z M171 0 C171 0 189 0 189 0 C189 0 611 750 611 750 C611 750 593 750 593 750 C593 750 171 0 171 0 L171 0 Z " />
<glyph glyph-name="ampersand" unicode="&#x26;" horiz-adv-x="731" d="M671 2 C671 2 664 47 664 47 C651 41 633 38 617 38 C584 38 554 57 522 88 C569 152 595 242 593 348 C593 348 544 359 544 359 C546 264 525 184 487 127 C479 136 471 146 463 156 C383 252 322 326 291 364 C421 418 508 483 508 528 C508 628 440 695 339 695 C232 695 160 629 160 529 C160 468 184 406 221 371 C119 328 52 254 52 182 C52 61 153 -20 305 -20 C379 -20 443 6 491 53 C532 13 571 -10 613 -10 C630 -10 653 -5 671 2 L671 2 Z M266 394 C231 426 207 480 207 533 C207 604 260 651 339 651 C415 651 465 601 465 526 C465 495 386 443 267 395 C267 395 266 394 266 394 L266 394 Z M246 342 C274 309 332 239 407 147 C424 126 440 107 456 90 C418 53 369 32 313 32 C187 32 104 95 104 189 C104 246 156 305 234 336 C234 336 246 342 246 342 L246 342 Z " />
<glyph glyph-name="quotesingle" unicode="&#x27;" horiz-adv-x="180" d="M77 750 C77 750 77 695 77 695 C77 695 93 650 93 650 C93 650 117 650 117 650 C117 650 133 695 133 695 C133 695 133 750 133 750 C133 750 77 750 77 750 L77 750 Z " />
<glyph glyph-name="parenleft" unicode="&#x28;" horiz-adv-x="354" d="M317 795 C181 681 111 524 111 335 C111 152 181 -1 317 -115 C317 -115 335 -96 335 -96 C208 10 143 157 143 335 C143 520 208 670 335 776 C335 776 317 795 317 795 L317 795 Z " />
<glyph glyph-name="parenright" unicode="&#x29;" horiz-adv-x="337" d="M37 -115 C173 -1 244 156 244 345 C244 528 173 681 37 795 C37 795 20 776 20 776 C146 670 211 523 211 345 C211 160 146 10 20 -96 C20 -96 37 -115 37 -115 L37 -115 Z " />
<glyph glyph-name="asterisk" unicode="&#x2a;" horiz-adv-x="351" d="M322 669 C322 669 189 618 189 618 C189 618 197 760 197 760 C197 760 155 760 155 760 C155 760 162 619 162 619 C162 619 30 669 30 669 C30 669 17 630 17 630 C17 630 154 593 154 593 C154 593 65 483 65 483 C65 483 99 458 99 458 C99 458 176 577 176 577 C176 577 253 458 253 458 C253 458 287 483 287 483 C287 483 198 593 198 593 C198 593 334 630 334 630 C334 630 322 669 322 669 L322 669 Z " />
<glyph glyph-name="plus" unicode="&#x2b;" horiz-adv-x="590" d="M279 245 C279 245 279 0 279 0 C279 0 311 0 311 0 C311 0 311 245 311 245 C311 245 565 245 565 245 C565 245 565 275 565 275 C565 275 311 275 311 275 C311 275 311 520 311 520 C311 520 279 520 279 520 C279 520 279 275 279 275 C279 275 25 275 25 275 C25 275 25 245 25 245 C25 245 279 245 279 245 L279 245 Z " />
<glyph glyph-name="comma" unicode="&#x2c;" horiz-adv-x="160" d="M50 60 C50 60 50 0 50 0 C50 0 77 0 77 0 C77 -43 69 -60 50 -60 C50 -60 50 -86 50 -86 C93 -86 110 -62 110 0 C110 0 110 60 110 60 C110 60 50 60 50 60 L50 60 Z " />
<glyph glyph-name="hyphen" unicode="&#x2d;" horiz-adv-x="389" d="M50 242 C50 242 340 242 340 242 C340 242 340 284 340 284 C340 284 50 284 50 284 C50 284 50 242 50 242 L50 242 Z " />
<glyph glyph-name="period" unicode="&#x2e;" horiz-adv-x="160" d="M50 0 C50 0 110 0 110 0 C110 0 110 60 110 60 C110 60 50 60 50 60 C50 60 50 0 50 0 L50 0 Z " />
<glyph glyph-name="slash" unicode="&#x2f;" horiz-adv-x="263" d="M0 0 C0 0 22 0 22 0 C22 0 263 750 263 750 C263 750 242 750 242 750 C242 750 0 0 0 0 L0 0 Z " />
<glyph glyph-name="zero" unicode="0" horiz-adv-x="724" d="M370 38 C210 38 128 153 128 375 C128 587 218 712 370 712 C523 712 612 587 612 375 C612 153 530 38 370 38 L370 38 Z M71 375 C71 121 173 -10 370 -10 C568 -10 670 121 670 375 C670 618 559 760 370 760 C182 760 71 618 71 375 L71 375 Z " />
<glyph glyph-name="one" unicode="1" horiz-adv-x="388" d="M232 0 C232 0 233 0 233 0 C233 0 260 0 260 0 C260 0 288 0 288 0 C288 0 288 5 288 5 C288 5 288 750 288 750 C288 750 245 750 245 750 C245 750 50 557 50 557 C50 557 50 485 50 485 C50 485 233 668 233 668 C233 668 233 5 233 5 C233 5 232 5 232 5 C232 5 232 0 232 0 L232 0 Z " />
<glyph glyph-name="two" unicode="2" horiz-adv-x="604" d="M63 0 C63 0 127 0 127 0 C127 0 570 0 570 0 C570 0 570 27 570 27 C570 27 570 54 570 54 C570 54 565 54 565 54 C565 54 132 54 132 54 C150 142 218 203 357 295 C476 374 555 464 555 521 C555 664 461 760 319 760 C178 760 84 670 84 535 C84 483 101 427 127 393 C127 393 179 420 179 420 C156 449 141 495 141 535 C141 643 213 715 321 715 C428 715 499 640 499 526 C499 480 413 392 285 307 C125 201 63 134 63 0 L63 0 Z " />
<glyph glyph-name="three" unicode="3" horiz-adv-x="623" d="M65 245 C65 92 168 -10 321 -10 C475 -10 578 78 578 209 C578 309 503 386 387 408 C485 425 550 485 550 564 C550 682 462 760 330 760 C198 760 110 672 110 540 C110 540 165 540 165 540 C165 643 230 712 328 712 C431 712 499 651 499 560 C499 480 426 427 316 427 C316 427 236 427 236 427 C236 427 236 414 236 414 C236 414 236 405 236 405 C236 405 236 384 236 384 C236 384 296 384 296 384 C430 384 519 315 519 212 C519 110 440 43 321 43 C202 43 122 124 122 245 C122 245 65 245 65 245 L65 245 Z " />
<glyph glyph-name="four" unicode="4" horiz-adv-x="619" d="M25 322 C25 322 25 276 25 276 C25 276 404 276 404 276 C404 276 404 5 404 5 C404 5 404 0 404 0 C404 0 431 0 431 0 C431 0 459 0 459 0 C460 0 460 1 459 3 C460 4 460 5 459 5 C459 5 459 276 459 276 C459 276 600 276 600 276 C600 276 600 329 600 329 C600 329 459 329 459 329 C459 329 459 734 459 734 C459 734 461 736 461 736 C461 736 459 737 459 737 C459 737 459 750 459 750 C459 750 416 750 416 750 C416 750 25 322 25 322 L25 322 Z M87 329 C87 329 412 683 412 683 C412 683 404 553 404 553 C404 553 404 329 404 329 C404 329 87 329 87 329 L87 329 Z " />
<glyph glyph-name="five" unicode="5" horiz-adv-x="619" d="M109 346 C109 346 166 333 166 333 C217 390 292 428 353 428 C453 428 520 351 520 235 C520 120 441 43 322 43 C203 43 123 124 123 245 C123 245 66 245 66 245 C66 92 169 -10 322 -10 C476 -10 579 88 579 235 C579 378 493 473 363 473 C298 473 222 438 171 386 C171 386 200 700 200 700 C200 700 556 696 556 696 C556 696 556 696 556 696 C556 696 561 696 561 696 C561 696 562 714 562 714 C562 717 563 720 563 723 C563 723 563 723 563 723 C563 723 564 750 564 750 C564 750 143 750 143 750 C143 750 109 346 109 346 L109 346 Z " />
<glyph glyph-name="six" unicode="6" horiz-adv-x="635" d="M585 626 C537 706 445 760 356 760 C170 760 75 605 75 372 C75 120 169 -10 351 -10 C503 -10 604 92 604 245 C604 388 510 484 370 484 C260 484 180 440 133 340 C133 340 133 340 133 340 C132 354 132 368 132 383 C132 581 208 714 356 714 C425 714 500 667 542 598 C542 598 585 626 585 626 L585 626 Z M138 279 C178 364 250 436 359 436 C471 436 545 360 545 245 C545 121 467 38 351 38 C230 38 158 120 138 279 C138 279 138 279 138 279 L138 279 Z " />
<glyph glyph-name="seven" unicode="7" horiz-adv-x="514" d="M30 750 C30 750 30 723 30 723 C30 723 30 696 30 696 C30 696 35 696 35 696 C35 696 448 696 448 696 C261 600 188 405 188 0 C188 0 250 0 250 0 C250 408 321 602 505 696 C505 696 505 750 505 750 C505 750 30 750 30 750 L30 750 Z " />
<glyph glyph-name="eight" unicode="8" horiz-adv-x="653" d="M337 426 C212 426 155 479 155 559 C155 660 228 712 337 712 C457 712 518 651 518 559 C518 467 446 426 337 426 L337 426 Z M103 563 C103 482 148 422 245 400 C141 378 76 315 76 204 C76 76 157 -10 337 -10 C494 -10 599 56 599 204 C599 304 546 376 429 400 C516 420 570 473 570 563 C570 681 491 760 337 760 C197 760 103 693 103 563 L103 563 Z M337 38 C198 38 136 106 136 208 C136 323 217 374 337 374 C477 374 539 308 539 209 C539 91 458 38 337 38 L337 38 Z " />
<glyph glyph-name="nine" unicode="9" horiz-adv-x="635" d="M69 124 C117 44 209 -10 299 -10 C484 -10 580 145 580 378 C580 630 486 760 304 760 C152 760 50 658 50 505 C50 362 144 266 284 266 C395 266 475 310 521 410 C521 410 521 410 521 410 C522 396 522 382 522 367 C522 169 446 36 299 36 C229 36 155 83 113 152 C113 152 69 124 69 124 L69 124 Z M516 471 C476 386 405 314 295 314 C184 314 110 390 110 505 C110 629 187 712 304 712 C424 712 496 630 516 471 C516 471 516 471 516 471 L516 471 Z " />
<glyph glyph-name="colon" unicode="&#x3a;" horiz-adv-x="160" d="M50 460 C50 460 110 460 110 460 C110 460 110 520 110 520 C110 520 50 520 50 520 C50 520 50 460 50 460 L50 460 Z M50 0 C50 0 110 0 110 0 C110 0 110 60 110 60 C110 60 50 60 50 60 C50 60 50 0 50 0 L50 0 Z " />
<glyph glyph-name="semicolon" unicode="&#x3b;" horiz-adv-x="160" d="M50 460 C50 460 110 460 110 460 C110 460 110 520 110 520 C110 520 50 520 50 520 C50 520 50 460 50 460 L50 460 Z M50 60 C50 60 50 0 50 0 C50 0 77 0 77 0 C77 -43 69 -60 50 -60 C50 -60 50 -86 50 -86 C93 -86 110 -62 110 0 C110 0 110 60 110 60 C110 60 50 60 50 60 L50 60 Z " />
<glyph glyph-name="less" unicode="&#x3c;" horiz-adv-x="610" d="M551 480 C551 480 45 278 45 278 C45 278 45 242 45 242 C45 242 551 40 551 40 C551 40 551 81 551 81 C551 81 91 260 91 260 C91 260 551 439 551 439 C551 439 551 480 551 480 L551 480 Z " />
<glyph glyph-name="equal" unicode="&#x3d;" horiz-adv-x="628" d="M39 180 C39 180 39 150 39 150 C39 150 579 150 579 150 C579 150 579 180 579 180 C579 180 39 180 39 180 L39 180 Z M39 380 C39 380 39 350 39 350 C39 350 579 350 579 350 C579 350 579 380 579 380 C579 380 39 380 39 380 L39 380 Z " />
<glyph glyph-name="greater" unicode="&#x3e;" horiz-adv-x="610" d="M520 260 C520 260 60 81 60 81 C60 81 60 40 60 40 C60 40 566 242 566 242 C566 242 566 278 566 278 C566 278 60 480 60 480 C60 480 60 439 60 439 C60 439 520 260 520 260 L520 260 Z " />
<glyph glyph-name="question" unicode="&#x3f;" horiz-adv-x="588" d="M267 0 C267 0 327 0 327 0 C327 0 327 60 327 60 C327 60 267 60 267 60 C267 60 267 0 267 0 L267 0 Z M31 557 C31 557 79 549 79 549 C88 652 177 721 301 721 C412 721 487 655 487 555 C487 478 464 437 403 409 C294 358 273 323 273 193 C273 193 321 193 321 193 C321 301 340 330 438 376 C511 410 539 460 539 555 C539 678 444 760 301 760 C150 760 42 679 31 557 L31 557 Z " />
<glyph glyph-name="at" unicode="&#x40;" horiz-adv-x="1196" d="M1014 -118 C916 -187 754 -233 610 -233 C300 -233 94 -32 94 269 C94 570 300 771 608 771 C906 771 1105 605 1105 357 C1105 156 1039 23 940 23 C840 23 783 97 796 208 C796 208 831 499 831 499 C831 499 785 499 785 499 C785 499 769 367 769 367 C749 468 687 510 599 510 C459 510 353 414 336 269 C317 113 400 9 544 9 C638 9 714 56 751 132 C766 45 829 -8 923 -8 C1055 -8 1142 138 1142 357 C1142 626 929 806 608 806 C278 806 57 591 57 269 C57 -53 278 -268 610 -268 C758 -268 927 -219 1032 -145 C1032 -145 1014 -118 1014 -118 L1014 -118 Z M750 208 C739 116 659 54 549 54 C436 54 370 140 386 269 C400 386 483 464 594 464 C706 464 772 392 750 208 L750 208 Z " />
<glyph glyph-name="A" unicode="A" horiz-adv-x="748" d="M60 0 C60 0 92 0 92 0 C92 0 93 1 93 2 C93 2 94 4 94 4 C94 4 94 4 94 4 C94 4 185 216 185 216 C185 216 586 216 586 216 C586 216 678 0 678 0 C678 0 709 0 709 0 C709 0 739 0 739 0 C739 0 739 0 739 0 C738 1 737 5 737 5 C737 5 737 5 737 5 C737 5 415 750 415 750 C415 750 385 750 385 750 C385 750 357 750 357 750 C357 750 354 750 354 750 C354 750 30 5 30 5 C30 5 30 5 30 5 C30 5 28 0 28 0 C28 0 60 0 60 0 L60 0 Z M194 237 C194 237 386 682 386 682 C386 682 567 260 567 260 C567 260 204 260 204 260 C204 260 194 237 194 237 L194 237 Z " />
<glyph glyph-name="B" unicode="B" horiz-adv-x="698" d="M464 416 C565 435 627 483 627 548 C627 694 547 750 340 750 C340 750 161 750 161 750 C161 750 133 750 133 750 C133 750 105 750 105 750 C105 750 105 745 105 745 C105 745 105 5 105 5 C105 5 105 0 105 0 C105 0 133 0 133 0 C133 0 161 0 161 0 C161 0 376 0 376 0 C583 0 663 67 663 238 C663 333 585 400 464 416 C464 416 464 416 464 416 L464 416 Z M161 432 C161 432 161 704 161 704 C161 704 342 704 342 704 C506 704 570 659 570 544 C570 477 478 432 340 432 C340 432 161 432 161 432 L161 432 Z M161 46 C161 46 161 387 161 387 C161 387 367 387 367 387 C508 387 603 330 603 244 C603 101 535 46 359 46 C359 46 161 46 161 46 L161 46 Z " />
<glyph glyph-name="C" unicode="C" horiz-adv-x="745" d="M682 200 C639 103 529 38 407 38 C241 38 131 193 131 375 C131 557 241 712 407 712 C516 712 626 647 682 550 C682 550 704 568 704 568 C704 568 726 586 726 586 C665 690 538 760 407 760 C205 760 71 583 71 375 C71 167 205 -10 407 -10 C551 -10 679 60 726 164 C726 164 682 200 682 200 L682 200 Z " />
<glyph glyph-name="D" unicode="D" horiz-adv-x="788" d="M133 0 C133 0 161 0 161 0 C161 0 361 0 361 0 C614 0 734 121 734 375 C734 623 597 750 331 750 C331 750 161 750 161 750 C161 750 133 750 133 750 C133 750 105 750 105 750 C105 750 105 745 105 745 C105 745 105 5 105 5 C105 5 105 0 105 0 C105 0 133 0 133 0 L133 0 Z M161 46 C161 46 161 704 161 704 C161 704 334 704 334 704 C558 704 674 592 674 375 C674 152 572 46 357 46 C357 46 161 46 161 46 L161 46 Z " />
<glyph glyph-name="E" unicode="E" horiz-adv-x="610" d="M561 24 C561 24 561 48 561 48 C561 48 556 48 556 48 C556 48 161 48 161 48 C161 48 161 364 161 364 C161 364 521 364 521 364 C521 364 526 364 526 364 C526 364 526 387 526 387 C526 387 526 410 526 410 C526 410 521 410 521 410 C521 410 161 410 161 410 C161 410 161 702 161 702 C161 702 541 702 541 702 C541 702 546 702 546 702 C546 702 546 726 546 726 C546 726 546 750 546 750 C546 750 161 750 161 750 C161 750 160 750 160 750 C160 750 133 750 133 750 C133 750 105 750 105 750 C105 750 105 745 105 745 C105 745 105 5 105 5 C105 5 105 0 105 0 C105 0 133 0 133 0 C133 0 160 0 160 0 C160 0 161 0 161 0 C161 0 561 0 561 0 C561 0 561 24 561 24 L561 24 Z " />
<glyph glyph-name="F" unicode="F" horiz-adv-x="575" d="M511 364 C511 364 516 364 516 364 C516 364 516 387 516 387 C516 387 516 410 516 410 C516 410 511 410 511 410 C511 410 161 410 161 410 C161 410 161 702 161 702 C161 702 541 702 541 702 C541 702 546 702 546 702 C546 702 546 726 546 726 C546 726 546 750 546 750 C546 750 161 750 161 750 C161 750 160 750 160 750 C160 750 133 750 133 750 C133 750 105 750 105 750 C105 750 105 745 105 745 C105 745 105 5 105 5 C105 5 105 0 105 0 C105 0 133 0 133 0 C133 0 161 0 161 0 C161 0 161 5 161 5 C161 5 161 364 161 364 C161 364 511 364 511 364 L511 364 Z " />
<glyph glyph-name="G" unicode="G" horiz-adv-x="799" d="M455 371 C455 371 697 371 697 371 C697 371 697 128 697 128 C634 74 540 38 442 38 C255 38 131 173 131 375 C131 577 255 712 442 712 C538 712 640 647 696 550 C696 550 739 586 739 586 C679 690 560 760 442 760 C219 760 71 606 71 375 C71 144 219 -10 442 -10 C562 -10 676 34 754 99 C754 99 754 419 754 419 C754 419 455 419 455 419 C455 419 455 371 455 371 L455 371 Z " />
<glyph glyph-name="H" unicode="H" horiz-adv-x="736" d="M623 0 C623 0 651 0 651 0 C651 0 651 5 651 5 C651 5 651 745 651 745 C651 745 651 750 651 750 C651 750 623 750 623 750 C623 750 595 750 595 750 C595 750 595 745 595 745 C595 745 595 419 595 419 C595 419 161 419 161 419 C161 419 161 745 161 745 C161 745 161 750 161 750 C161 750 133 750 133 750 C133 750 105 750 105 750 C105 750 105 745 105 745 C105 745 105 5 105 5 C105 5 105 0 105 0 C105 0 133 0 133 0 C133 0 161 0 161 0 C161 0 161 5 161 5 C161 5 161 371 161 371 C161 371 595 371 595 371 C595 371 595 5 595 5 C595 5 595 0 595 0 C595 0 623 0 623 0 L623 0 Z " />
<glyph glyph-name="I" unicode="I" horiz-adv-x="227" d="M114 0 C114 0 142 0 142 0 C142 0 142 5 142 5 C142 5 142 745 142 745 C142 745 142 750 142 750 C142 750 114 750 114 750 C114 750 86 750 86 750 C86 750 86 745 86 745 C86 745 86 5 86 5 C86 5 86 0 86 0 C86 0 114 0 114 0 L114 0 Z " />
<glyph glyph-name="J" unicode="J" horiz-adv-x="517" d="M67 283 C67 283 67 221 67 221 C67 62 124 -10 250 -10 C371 -10 433 82 433 220 C433 220 433 745 433 745 C433 745 433 748 433 748 C433 748 433 750 433 750 C433 750 405 750 405 750 C405 750 377 750 377 750 C377 750 377 745 377 745 C377 745 377 220 377 220 C377 115 334 45 250 45 C162 45 123 105 123 237 C123 237 123 292 123 292 C123 292 67 283 67 283 L67 283 Z " />
<glyph glyph-name="K" unicode="K" horiz-adv-x="632" d="M589 0 C589 0 623 0 623 0 C623 0 335 469 335 469 C335 469 295 424 295 424 C295 424 555 0 555 0 C555 0 589 0 589 0 L589 0 Z M579 749 C579 749 580 750 580 750 C580 750 543 750 543 750 C543 750 506 750 506 750 C506 750 161 345 161 345 C161 345 161 745 161 745 C161 745 161 750 161 750 C161 750 133 750 133 750 C133 750 105 750 105 750 C105 750 105 745 105 745 C105 745 105 5 105 5 C105 5 105 0 105 0 C105 0 133 0 133 0 C133 0 161 0 161 0 C161 0 161 5 161 5 C161 5 161 272 161 272 C161 272 162 272 162 272 C162 272 576 745 576 745 C576 745 576 745 576 745 C576 745 578 748 579 749 L579 749 Z " />
<glyph glyph-name="L" unicode="L" horiz-adv-x="521" d="M492 24 C492 24 492 48 492 48 C492 48 487 48 487 48 C487 48 142 48 142 48 C142 48 142 745 142 745 C142 745 142 750 142 750 C142 750 114 750 114 750 C114 750 86 750 86 750 C86 750 86 745 86 745 C86 745 86 5 86 5 C86 5 86 0 86 0 C86 0 114 0 114 0 C114 0 142 0 142 0 C142 0 492 0 492 0 C492 0 492 24 492 24 L492 24 Z " />
<glyph glyph-name="M" unicode="M" horiz-adv-x="861" d="M749 0 C749 0 776 0 776 0 C776 0 776 5 776 5 C776 5 776 745 776 745 C776 745 776 750 776 750 C776 750 749 750 749 750 C749 750 741 750 741 750 C741 750 722 750 722 750 C722 750 687 750 687 750 C687 750 440 72 440 72 C440 72 191 750 191 750 C191 750 162 750 162 750 C162 750 140 750 140 750 C140 750 133 750 133 750 C133 750 105 750 105 750 C105 750 105 745 105 745 C105 745 105 5 105 5 C105 5 105 0 105 0 C105 0 133 0 133 0 C133 0 162 0 162 0 C162 0 162 5 162 5 C162 5 162 690 162 690 C162 690 415 4 415 4 C415 4 414 0 414 0 C414 0 417 0 417 0 C417 0 467 0 467 0 C467 0 722 698 722 698 C722 698 722 5 722 5 C722 5 722 0 722 0 C722 0 749 0 749 0 L749 0 Z " />
<glyph glyph-name="N" unicode="N" horiz-adv-x="707" d="M563 745 C563 745 563 72 563 72 C563 72 169 750 169 750 C169 750 163 750 163 750 C163 750 134 750 134 750 C134 750 104 750 104 750 C104 750 104 745 104 745 C104 745 104 5 104 5 C104 5 104 0 104 0 C104 0 134 0 134 0 C134 0 163 0 163 0 C164 0 164 1 163 3 C164 4 164 5 163 5 C163 5 163 649 163 649 C163 649 541 0 541 0 C541 0 563 0 563 0 C563 0 605 0 605 0 C605 0 622 0 622 0 C622 0 622 745 622 745 C622 745 622 750 622 750 C622 750 593 750 593 750 C593 750 563 750 563 750 C563 750 563 745 563 745 L563 745 Z " />
<glyph glyph-name="O" unicode="O" horiz-adv-x="838" d="M430 38 C254 38 136 173 136 375 C136 567 262 712 430 712 C598 712 724 567 724 375 C724 173 606 38 430 38 L430 38 Z M76 375 C76 144 218 -10 430 -10 C642 -10 784 144 784 375 C784 594 632 760 430 760 C228 760 76 594 76 375 L76 375 Z " />
<glyph glyph-name="P" unicode="P" horiz-adv-x="648" d="M133 0 C133 0 161 0 161 0 C161 0 161 5 161 5 C161 5 161 315 161 315 C161 315 423 315 423 315 C549 315 614 386 614 525 C614 674 549 750 423 750 C423 750 161 750 161 750 C161 750 133 750 133 750 C133 750 119 750 119 750 C119 750 105 750 105 750 C105 750 105 745 105 745 C105 745 105 5 105 5 C105 5 105 0 105 0 C105 0 133 0 133 0 L133 0 Z M161 360 C161 360 161 704 161 704 C161 704 421 704 421 704 C511 704 558 643 558 525 C558 416 513 360 426 360 C426 360 161 360 161 360 L161 360 Z " />
<glyph glyph-name="Q" unicode="Q" horiz-adv-x="838" d="M76 375 C76 144 218 -10 430 -10 C474 -10 514 -3 551 9 C551 9 719 -111 719 -111 C719 -111 752 -80 752 -80 C752 -80 601 30 601 30 C715 90 784 214 784 375 C784 594 632 760 430 760 C228 760 76 594 76 375 C76 375 76 375 76 375 L76 375 Z M500 46 C478 41 455 38 430 38 C254 38 136 173 136 375 C136 567 262 712 430 712 C598 712 724 567 724 375 C724 225 659 112 554 64 C554 64 480 118 480 118 C480 118 445 85 445 85 C445 85 500 46 500 46 L500 46 Z " />
<glyph glyph-name="R" unicode="R" horiz-adv-x="648" d="M595 0 C595 0 627 0 627 0 C627 0 462 337 462 337 C562 350 614 414 614 525 C614 674 549 750 423 750 C423 750 161 750 161 750 C161 750 133 750 133 750 C133 750 119 750 119 750 C119 750 105 750 105 750 C105 750 105 745 105 745 C105 745 105 5 105 5 C105 5 105 0 105 0 C105 0 133 0 133 0 C133 0 161 0 161 0 C161 0 161 5 161 5 C161 5 161 335 161 335 C161 335 399 335 399 335 C399 335 563 0 563 0 C563 0 595 0 595 0 L595 0 Z M161 380 C161 380 161 704 161 704 C161 704 421 704 421 704 C511 704 558 643 558 525 C558 429 513 380 425 380 C425 380 161 380 161 380 L161 380 Z " />
<glyph glyph-name="S" unicode="S" horiz-adv-x="575" d="M499 623 C499 623 499 623 499 623 C499 623 499 623 499 623 C416 714 329 760 262 760 C138 760 56 675 56 547 C56 446 133 381 284 358 C417 337 485 286 485 208 C485 108 427 42 316 42 C233 42 152 98 102 206 C102 206 77 189 77 189 C77 189 77 189 77 189 C77 189 51 171 51 171 C107 52 208 -10 316 -10 C464 -10 541 78 541 209 C541 320 459 390 299 414 C176 433 113 481 113 554 C113 646 173 707 262 707 C313 707 386 664 462 580 C462 580 504 617 504 617 C502 619 501 621 499 623 C499 623 499 623 499 623 L499 623 Z " />
<glyph glyph-name="T" unicode="T" horiz-adv-x="651" d="M326 0 C326 0 354 0 354 0 C354 0 354 5 354 5 C354 5 354 702 354 702 C354 702 621 702 621 702 C621 702 626 702 626 702 C626 702 626 726 626 726 C626 726 626 750 626 750 C626 750 354 750 354 750 C354 750 298 750 298 750 C298 750 26 750 26 750 C26 750 26 726 26 726 C26 726 26 702 26 702 C26 702 31 702 31 702 C31 702 298 702 298 702 C298 702 298 5 298 5 C298 5 298 0 298 0 C298 0 326 0 326 0 L326 0 Z " />
<glyph glyph-name="U" unicode="U" horiz-adv-x="684" d="M98 745 C98 745 98 293 98 293 C98 93 184 -10 351 -10 C518 -10 604 93 604 292 C604 292 604 745 604 745 C605 745 605 746 604 748 C605 749 605 750 604 750 C604 750 575 750 575 750 C575 750 545 750 545 750 C545 750 545 745 545 745 C545 745 545 303 545 303 C545 133 479 45 351 45 C221 45 154 133 154 302 C154 302 154 745 154 745 C154 745 154 750 154 750 C154 750 126 750 126 750 C126 750 98 750 98 750 C98 750 98 745 98 745 L98 745 Z " />
<glyph glyph-name="V" unicode="V" horiz-adv-x="612" d="M571 750 C571 750 539 750 539 750 C539 750 507 750 507 750 C507 750 507 749 507 749 C506 749 506 748 506 748 C506 747 506 746 506 745 C506 745 300 85 300 85 C300 85 93 745 93 745 C93 745 93 745 93 745 C93 745 92 746 92 748 C92 748 92 749 91 749 C91 749 91 750 91 750 C91 750 61 750 61 750 C61 750 31 750 31 750 C31 750 274 2 274 2 C274 2 274 0 274 0 C274 0 275 0 275 0 C275 0 327 0 327 0 C327 0 329 0 329 0 C329 0 571 750 571 750 L571 750 Z " />
<glyph glyph-name="W" unicode="W" horiz-adv-x="823" d="M792 745 C792 745 792 745 792 745 C792 745 792 745 792 745 C792 745 793 750 793 750 C793 750 761 750 761 750 C761 750 729 750 729 750 C729 750 599 119 599 119 C599 119 454 744 454 744 C454 744 456 750 456 750 C456 750 453 750 453 750 C453 750 399 750 399 750 C399 750 255 121 255 121 C255 121 123 750 123 750 C123 750 93 750 93 750 C93 750 63 750 63 750 C63 750 63 750 63 749 C63 749 64 745 64 745 C64 745 64 745 64 745 C64 745 64 745 64 745 C64 745 226 0 226 0 C226 0 227 0 227 0 C227 0 280 0 280 0 C280 0 427 628 427 628 C427 628 574 0 574 0 C574 0 575 0 575 0 C575 0 627 0 627 0 C627 0 792 745 792 745 L792 745 Z " />
<glyph glyph-name="X" unicode="X" horiz-adv-x="667" d="M71 5 C71 5 71 5 71 5 C70 4 68 1 68 0 C68 0 100 0 100 0 C100 0 133 0 133 0 C133 0 136 4 137 5 C137 5 136 5 136 5 C136 5 364 344 364 344 C364 344 573 0 573 0 C573 0 603 0 603 0 C603 0 632 0 632 0 C632 0 630 3 630 3 C630 4 629 5 629 5 C629 5 629 5 629 5 C629 5 394 390 394 390 C394 390 633 745 633 745 C633 745 633 745 633 745 C633 745 634 747 635 748 C635 748 636 750 636 750 C636 750 603 750 603 750 C603 750 570 750 570 750 C570 750 569 749 569 749 C569 748 568 748 568 748 C568 748 568 747 568 747 C568 747 363 441 363 441 C363 441 178 745 178 745 C179 745 176 750 175 750 C175 750 146 750 146 750 C146 750 117 750 117 750 C117 749 120 745 120 745 C120 745 120 745 120 745 C120 745 333 395 333 395 C333 395 71 5 71 5 L71 5 Z " />
<glyph glyph-name="Y" unicode="Y" horiz-adv-x="667" d="M571 745 C571 745 572 745 572 745 C572 745 339 376 339 376 C339 376 104 750 104 750 C104 750 75 750 75 750 C75 750 45 750 45 750 C45 750 313 330 313 330 C313 330 313 5 313 5 C313 5 313 0 313 0 C313 0 340 0 340 0 C340 0 368 0 368 0 C369 0 369 1 368 3 C369 4 369 5 368 5 C368 5 368 329 368 329 C368 329 633 745 633 745 C633 745 633 745 633 745 C633 745 637 750 636 750 C636 750 605 750 605 750 C605 750 575 750 575 750 C575 750 574 750 574 750 C574 749 571 745 571 745 C571 745 571 745 571 745 L571 745 Z " />
<glyph glyph-name="Z" unicode="Z" horiz-adv-x="679" d="M635 24 C635 24 635 48 635 48 C635 48 630 48 630 48 C630 48 112 48 112 48 C112 48 635 702 635 702 C635 702 635 750 635 750 C635 750 60 750 60 750 C60 750 60 726 60 726 C60 726 60 702 60 702 C60 702 65 702 65 702 C65 702 568 702 568 702 C568 702 45 48 45 48 C45 48 45 0 45 0 C45 0 635 0 635 0 C635 0 635 24 635 24 L635 24 Z " />
<glyph glyph-name="bracketleft" unicode="&#x5b;" horiz-adv-x="344" d="M168 722 C168 722 315 722 315 722 C315 722 315 750 315 750 C315 750 168 750 168 750 C168 750 136 750 136 750 C136 750 136 -115 136 -115 C136 -115 168 -115 168 -115 C168 -115 315 -115 315 -115 C315 -115 315 -87 315 -87 C315 -87 168 -87 168 -87 C168 -87 168 722 168 722 L168 722 Z " />
<glyph glyph-name="backslash" unicode="&#x5c;" horiz-adv-x="311" d="M290 0 C290 0 312 0 312 0 C312 0 22 750 22 750 C22 750 0 750 0 750 C0 750 290 0 290 0 L290 0 Z " />
<glyph glyph-name="bracketright" unicode="&#x5d;" horiz-adv-x="333" d="M176 722 C176 722 176 -87 176 -87 C176 -87 30 -87 30 -87 C30 -87 30 -115 30 -115 C30 -115 176 -115 176 -115 C176 -115 209 -115 209 -115 C209 -115 209 750 209 750 C209 750 176 750 176 750 C176 750 30 750 30 750 C30 750 30 722 30 722 C30 722 176 722 176 722 L176 722 Z " />
<glyph glyph-name="underscore" unicode="&#x5f;" horiz-adv-x="704" d="M50 -115 C50 -115 655 -115 655 -115 C655 -115 655 -85 655 -85 C655 -85 50 -85 50 -85 C50 -85 50 -115 50 -115 L50 -115 Z " />
<glyph glyph-name="a" unicode="a" horiz-adv-x="574" d="M69 386 C69 386 117 370 117 370 C140 440 207 486 284 486 C384 486 450 457 450 381 C450 302 370 271 250 257 C134 243 57 185 57 112 C57 39 113 -10 256 -10 C350 -10 420 12 450 82 C450 82 450 48 450 48 C450 2 454 0 545 0 C545 0 545 37 545 37 C502 37 500 37 500 48 C500 48 500 360 500 360 C500 482 414 530 284 530 C183 530 97 472 69 386 L69 386 Z M450 290 C450 290 450 174 450 174 C450 59 379 27 272 27 C153 27 106 62 106 114 C106 167 176 210 281 223 C358 232 418 251 450 290 L450 290 Z " />
<glyph glyph-name="b" unicode="b" horiz-adv-x="614" d="M86 745 C86 745 87 745 87 745 C87 745 87 740 87 740 C87 740 87 5 87 5 C87 5 86 5 86 5 C86 5 86 0 86 0 C86 0 87 0 87 0 C87 0 112 0 112 0 C112 0 137 0 137 0 C137 0 137 121 137 121 C172 32 247 -10 343 -10 C481 -10 573 98 573 260 C573 422 481 530 343 530 C247 530 172 488 137 399 C137 399 137 740 137 740 C137 740 137 750 137 750 C137 750 112 750 112 750 C112 750 87 750 87 750 C87 750 86 750 86 750 C86 750 86 745 86 745 L86 745 Z M325 33 C212 33 137 103 137 260 C137 416 212 486 325 486 C442 486 519 396 519 260 C519 124 442 33 325 33 L325 33 Z " />
<glyph glyph-name="c" unicode="c" horiz-adv-x="582" d="M505 152 C478 81 402 34 313 34 C198 34 122 104 122 260 C122 418 198 489 313 489 C403 489 465 434 505 351 C505 351 529 363 529 363 C529 363 529 362 529 362 C529 362 552 374 552 374 C550 377 549 381 547 384 C547 384 547 384 547 384 C547 384 547 384 547 384 C500 471 426 530 313 530 C165 530 67 446 67 260 C67 74 165 -10 313 -10 C426 -10 522 46 552 129 C552 129 505 152 505 152 L505 152 Z " />
<glyph glyph-name="d" unicode="d" horiz-adv-x="598" d="M67 260 C67 98 154 -10 284 -10 C374 -10 444 42 478 128 C478 128 478 10 478 10 C478 10 478 0 478 0 C478 0 503 0 503 0 C503 0 528 0 528 0 C528 0 528 5 528 5 C528 5 528 10 528 10 C528 10 528 740 528 740 C528 740 528 750 528 750 C528 750 503 750 503 750 C503 750 478 750 478 750 C478 750 478 745 478 745 C478 745 478 740 478 740 C478 740 478 392 478 392 C444 478 374 530 284 530 C154 530 67 422 67 260 L67 260 Z M478 260 C478 124 408 34 302 34 C194 34 122 124 122 260 C122 396 194 486 302 486 C408 486 478 396 478 260 L478 260 Z " />
<glyph glyph-name="e" unicode="e" horiz-adv-x="588" d="M509 149 C490 80 412 34 313 34 C200 34 125 101 122 250 C122 250 516 250 516 250 C516 250 566 250 566 250 C566 418 496 530 317 530 C167 530 67 446 67 260 C67 74 165 -10 313 -10 C438 -10 536 46 559 130 C559 130 509 149 509 149 L509 149 Z M515 287 C515 287 123 287 123 287 C131 426 207 489 317 489 C447 489 505 409 515 287 L515 287 Z " />
<glyph glyph-name="f" unicode="f" horiz-adv-x="385" d="M161 0 C161 0 186 0 186 0 C187 0 187 1 186 3 C187 4 187 5 186 5 C186 5 186 479 186 479 C186 479 315 479 315 479 C315 479 315 520 315 520 C315 520 186 520 186 520 C186 520 186 670 186 670 C186 697 196 707 221 707 C221 707 310 706 310 706 C310 706 310 706 310 706 C310 706 315 706 315 706 C315 706 315 728 315 728 C315 728 315 750 315 750 C315 750 206 750 206 750 C156 750 136 728 136 670 C136 670 136 520 136 520 C136 520 30 520 30 520 C30 520 30 479 30 479 C30 479 136 479 136 479 C136 479 136 5 136 5 C136 5 136 0 136 0 C136 0 161 0 161 0 L161 0 Z " />
<glyph glyph-name="g" unicode="g" horiz-adv-x="588" d="M67 -120 C67 -194 157 -223 292 -223 C455 -223 518 -144 518 -25 C518 -25 518 515 518 515 C518 515 518 520 518 520 C518 520 493 520 493 520 C493 520 468 520 468 520 C468 520 468 393 468 393 C435 478 367 530 279 530 C152 530 67 454 67 260 C67 73 152 0 279 0 C367 0 435 50 468 132 C468 132 468 -47 468 -47 C468 -127 418 -180 288 -180 C189 -180 124 -163 124 -120 C124 -120 67 -120 67 -120 L67 -120 Z M297 486 C400 486 468 396 468 260 C468 130 400 44 297 44 C192 44 122 104 122 260 C122 423 192 486 297 486 L297 486 Z " />
<glyph glyph-name="h" unicode="h" horiz-adv-x="563" d="M86 745 C86 745 87 745 87 745 C87 745 87 5 87 5 C87 5 86 5 86 5 C86 5 86 0 86 0 C86 0 87 0 87 0 C87 0 112 0 112 0 C112 0 137 0 137 0 C137 0 137 5 137 5 C137 5 137 348 137 348 C137 426 204 477 304 477 C388 477 443 422 443 315 C443 315 443 5 443 5 C443 5 443 0 443 0 C443 0 468 0 468 0 C468 0 493 0 493 0 C494 0 494 1 493 3 C494 4 494 5 493 5 C493 5 493 315 493 315 C493 454 426 525 325 525 C235 525 168 488 137 427 C137 427 137 740 137 740 C137 740 137 750 137 750 C137 750 112 750 112 750 C112 750 99 750 99 750 C99 750 87 750 87 750 C87 750 86 750 86 750 C86 750 86 745 86 745 L86 745 Z " />
<glyph glyph-name="i" unicode="i" horiz-adv-x="222" d="M97 584 C97 584 157 584 157 584 C157 584 157 644 157 644 C157 644 97 644 97 644 C97 644 97 584 97 584 L97 584 Z M127 0 C127 0 152 0 152 0 C152 0 152 5 152 5 C152 5 152 510 152 510 C152 510 152 520 152 520 C152 520 127 520 127 520 C127 520 102 520 102 520 C102 520 102 515 102 515 C102 515 102 5 102 5 C102 5 102 0 102 0 C102 0 127 0 127 0 L127 0 Z " />
<glyph glyph-name="j" unicode="j" horiz-adv-x="240" d="M116 584 C116 584 176 584 176 584 C176 584 176 644 176 644 C176 644 116 644 116 644 C116 644 116 584 116 584 L116 584 Z M25 -92 C25 -92 25 -136 25 -136 C25 -136 85 -136 85 -136 C152 -136 171 -106 171 0 C171 0 171 510 171 510 C171 510 171 520 171 520 C171 520 146 520 146 520 C146 520 121 520 121 520 C121 520 121 515 121 515 C121 515 121 0 121 0 C121 -72 110 -92 71 -92 C71 -92 25 -92 25 -92 L25 -92 Z " />
<glyph glyph-name="k" unicode="k" horiz-adv-x="541" d="M86 745 C86 745 87 745 87 745 C87 745 87 5 87 5 C87 5 86 5 86 5 C86 5 86 0 86 0 C86 0 87 0 87 0 C87 0 112 0 112 0 C112 0 137 0 137 0 C137 0 137 5 137 5 C137 5 137 195 137 195 C137 195 256 302 256 302 C256 302 471 0 471 0 C471 0 501 0 501 0 C501 0 532 0 532 0 C532 0 530 3 530 3 C530 3 530 3 530 3 C530 3 530 3 530 3 C530 3 298 339 298 339 C298 339 274 318 274 318 C274 318 499 520 499 520 C499 520 465 520 465 520 C465 520 431 520 431 520 C431 520 427 517 427 517 C426 516 425 515 425 515 C425 515 425 515 425 515 C425 515 137 259 137 259 C137 259 137 740 137 740 C137 740 137 750 137 750 C137 750 112 750 112 750 C112 750 99 750 99 750 C99 750 87 750 87 750 C87 750 86 750 86 750 C86 750 86 745 86 745 L86 745 Z " />
<glyph glyph-name="l" unicode="l" horiz-adv-x="222" d="M127 0 C127 0 152 0 152 0 C152 0 152 5 152 5 C152 5 152 740 152 740 C152 740 152 750 152 750 C152 750 127 750 127 750 C127 750 102 750 102 750 C102 750 102 745 102 745 C102 745 102 5 102 5 C102 5 102 0 102 0 C102 0 127 0 127 0 L127 0 Z " />
<glyph glyph-name="m" unicode="m" horiz-adv-x="839" d="M86 515 C86 515 87 515 87 515 C87 515 87 5 87 5 C87 5 86 5 86 5 C86 5 86 0 86 0 C86 0 87 0 87 0 C87 0 112 0 112 0 C112 0 137 0 137 0 C137 0 137 5 137 5 C137 5 137 348 137 348 C137 426 199 477 292 477 C369 477 421 422 421 315 C421 315 421 5 421 5 C421 5 421 0 421 0 C421 0 446 0 446 0 C446 0 471 0 471 0 C471 0 471 5 471 5 C471 5 471 315 471 315 C471 326 471 337 470 348 C470 348 471 348 471 348 C471 426 526 477 609 477 C678 477 724 422 724 315 C724 315 724 5 724 5 C724 5 724 0 724 0 C724 0 749 0 749 0 C749 0 774 0 774 0 C774 0 774 5 774 5 C774 5 774 315 774 315 C774 454 716 525 630 525 C544 525 481 478 460 404 C439 484 385 525 312 525 C229 525 166 489 137 430 C137 430 137 510 137 510 C137 510 137 520 137 520 C137 520 112 520 112 520 C112 520 99 520 99 520 C99 520 87 520 87 520 C87 520 86 520 86 520 C86 520 86 515 86 515 L86 515 Z " />
<glyph glyph-name="n" unicode="n" horiz-adv-x="558" d="M86 515 C86 515 87 515 87 515 C87 515 87 5 87 5 C87 5 86 5 86 5 C86 5 86 0 86 0 C86 0 87 0 87 0 C87 0 112 0 112 0 C112 0 137 0 137 0 C137 0 137 5 137 5 C137 5 137 348 137 348 C137 426 204 477 304 477 C388 477 443 422 443 315 C443 315 443 5 443 5 C443 5 443 0 443 0 C443 0 468 0 468 0 C468 0 493 0 493 0 C494 0 494 1 493 3 C494 4 494 5 493 5 C493 5 493 315 493 315 C493 454 426 525 325 525 C235 525 168 488 137 427 C137 427 137 510 137 510 C137 510 137 520 137 520 C137 520 112 520 112 520 C112 520 99 520 99 520 C99 520 87 520 87 520 C87 520 86 520 86 520 C86 520 86 515 86 515 L86 515 Z " />
<glyph glyph-name="o" unicode="o" horiz-adv-x="614" d="M316 29 C182 29 122 121 122 260 C122 419 200 491 316 491 C451 491 511 399 511 260 C511 101 433 29 316 29 L316 29 Z M67 260 C67 98 144 -10 316 -10 C465 -10 565 74 565 260 C565 422 488 530 316 530 C167 530 67 446 67 260 L67 260 Z " />
<glyph glyph-name="p" unicode="p" horiz-adv-x="622" d="M86 515 C86 515 87 515 87 515 C87 515 87 -186 87 -186 C87 -186 86 -186 86 -186 C86 -186 86 -191 86 -191 C86 -191 87 -191 87 -191 C87 -191 112 -191 112 -191 C112 -191 137 -191 137 -191 C137 -191 137 -186 137 -186 C137 -186 137 121 137 121 C172 32 247 -10 343 -10 C481 -10 573 98 573 260 C573 422 481 530 343 530 C247 530 172 488 137 399 C137 399 137 510 137 510 C137 510 137 520 137 520 C137 520 112 520 112 520 C112 520 99 520 99 520 C99 520 87 520 87 520 C87 520 86 520 86 520 C86 520 86 515 86 515 L86 515 Z M325 34 C212 34 137 104 137 260 C137 416 212 486 325 486 C442 486 519 396 519 260 C519 124 442 34 325 34 L325 34 Z " />
<glyph glyph-name="q" unicode="q" horiz-adv-x="598" d="M67 260 C67 98 154 -10 284 -10 C374 -10 444 42 478 128 C478 128 478 -186 478 -186 C478 -186 478 -191 478 -191 C478 -191 503 -191 503 -191 C503 -191 528 -191 528 -191 C528 -191 528 -186 528 -186 C528 -186 528 515 528 515 C528 515 528 520 528 520 C528 520 503 520 503 520 C503 520 478 520 478 520 C478 520 478 392 478 392 C444 478 374 530 284 530 C154 530 67 422 67 260 L67 260 Z M478 260 C478 124 408 34 302 34 C194 34 122 124 122 260 C122 396 194 486 302 486 C408 486 478 396 478 260 L478 260 Z " />
<glyph glyph-name="r" unicode="r" horiz-adv-x="396" d="M86 515 C86 515 87 515 87 515 C87 515 87 5 87 5 C87 5 86 5 86 5 C86 5 86 0 86 0 C86 0 87 0 87 0 C87 0 112 0 112 0 C112 0 137 0 137 0 C137 0 137 5 137 5 C137 5 137 258 137 258 C137 381 199 463 360 463 C360 463 376 463 376 463 C376 463 376 520 376 520 C376 520 365 520 365 520 C239 520 168 467 137 379 C137 379 137 510 137 510 C137 510 137 520 137 520 C137 520 112 520 112 520 C112 520 99 520 99 520 C99 520 87 520 87 520 C87 520 86 520 86 520 C86 520 86 515 86 515 L86 515 Z " />
<glyph glyph-name="s" unicode="s" horiz-adv-x="524" d="M461 372 C461 372 461 372 461 372 C461 372 483 382 483 382 C444 468 363 525 278 525 C156 525 74 467 74 379 C74 300 141 245 272 238 C385 232 444 192 444 137 C444 76 377 36 277 36 C191 36 116 83 89 154 C89 154 65 145 65 145 C65 145 65 145 65 145 C65 145 41 135 41 135 C73 51 168 -5 277 -5 C407 -5 494 53 494 141 C494 219 422 275 283 282 C177 288 122 328 122 383 C122 445 185 486 278 486 C342 486 406 437 439 363 C439 363 461 372 461 372 L461 372 Z " />
<glyph glyph-name="t" unicode="t" horiz-adv-x="385" d="M340 520 C340 520 183 520 183 520 C183 520 183 697 183 697 C183 697 133 655 133 655 C133 655 133 520 133 520 C133 520 10 520 10 520 C10 520 10 479 10 479 C10 479 133 479 133 479 C133 479 133 137 133 137 C133 34 137 0 237 0 C237 0 340 0 340 0 C340 0 340 44 340 44 C340 44 260 44 260 44 C186 44 183 67 183 137 C183 137 183 479 183 479 C183 479 340 479 340 479 C340 479 340 520 340 520 L340 520 Z " />
<glyph glyph-name="u" unicode="u" horiz-adv-x="542" d="M81 515 C81 515 82 515 82 515 C82 515 82 172 82 172 C82 52 122 -10 266 -10 C341 -10 398 23 423 77 C423 77 423 10 423 10 C423 10 423 0 423 0 C423 0 448 0 448 0 C448 0 473 0 473 0 C473 0 473 5 473 5 C473 5 473 10 473 10 C473 10 473 520 473 520 C473 520 448 520 448 520 C448 520 423 520 423 520 C423 520 423 515 423 515 C423 515 423 144 423 144 C423 80 367 38 282 38 C165 38 132 83 132 172 C132 172 132 520 132 520 C132 520 107 520 107 520 C107 520 82 520 82 520 C82 520 81 520 81 520 C81 520 81 515 81 515 L81 515 Z " />
<glyph glyph-name="v" unicode="v" horiz-adv-x="547" d="M512 515 C512 515 514 520 514 520 C514 520 484 520 484 520 C484 520 454 520 454 520 C454 520 453 519 453 518 C452 516 452 515 452 515 C452 515 452 515 452 515 C452 515 273 46 273 46 C273 46 94 515 94 515 C94 515 94 515 94 515 C95 515 94 516 93 518 C93 519 93 520 92 520 C92 520 64 520 64 520 C64 520 36 520 36 520 C36 520 36 519 37 518 C37 518 37 517 37 517 C37 516 38 515 38 515 C38 515 38 515 38 515 C38 515 246 0 246 0 C246 0 255 0 255 0 C255 0 290 0 290 0 C290 0 301 0 301 0 C301 0 512 515 512 515 C512 515 512 515 512 515 C512 515 512 515 512 515 L512 515 Z " />
<glyph glyph-name="w" unicode="w" horiz-adv-x="783" d="M758 520 C758 520 730 520 730 520 C730 520 701 520 701 520 C701 520 565 50 565 50 C565 50 422 517 422 517 C422 517 423 520 423 520 C423 520 421 520 421 520 C421 520 377 520 377 520 C377 520 233 50 233 50 C233 50 97 517 97 517 C97 517 97 518 97 518 C97 518 96 519 96 519 C96 519 96 520 96 520 C96 520 69 520 69 520 C69 520 43 520 43 520 C43 520 43 519 43 519 C43 519 44 517 44 517 C44 517 44 515 44 515 C44 515 45 515 45 515 C45 515 209 0 209 0 C209 0 218 0 218 0 C218 0 248 0 248 0 C248 0 259 0 259 0 C259 0 400 447 400 447 C400 447 541 0 541 0 C541 0 550 0 550 0 C550 0 580 0 580 0 C580 0 592 0 592 0 C592 0 758 520 758 520 L758 520 Z " />
<glyph glyph-name="x" unicode="x" horiz-adv-x="534" d="M434 515 C434 515 278 313 278 313 C278 313 117 520 117 520 C117 520 85 520 85 520 C85 520 53 520 53 520 C53 520 246 272 246 272 C246 272 37 0 37 0 C37 0 71 0 71 0 C71 0 105 0 105 0 C105 0 105 0 106 1 C106 1 280 228 280 228 C280 228 454 5 454 5 C454 5 454 5 454 5 C454 5 455 4 455 3 C455 3 458 1 458 1 C458 0 458 0 458 0 C458 0 490 0 490 0 C490 0 521 0 521 0 C521 0 520 1 520 1 C520 2 519 2 519 3 C519 3 518 4 518 4 C518 4 312 269 312 269 C312 269 501 515 501 515 C503 517 505 520 505 520 C505 520 472 520 472 520 C472 520 438 520 438 520 C437 519 434 515 434 515 C434 515 434 515 434 515 L434 515 Z " />
<glyph glyph-name="y" unicode="y" horiz-adv-x="562" d="M87 -247 C87 -247 137 -247 137 -247 C203 -247 240 -201 305 -39 C305 -39 527 515 527 515 C527 515 527 515 527 515 C527 515 527 515 527 515 C527 515 529 520 529 520 C529 520 499 520 499 520 C499 520 469 520 469 520 C469 520 468 519 468 518 C467 516 467 515 467 515 C467 515 467 515 467 515 C467 515 293 61 293 61 C293 61 110 515 110 515 C111 515 110 516 109 518 C109 519 109 520 108 520 C108 520 80 520 80 520 C80 520 52 520 52 520 C52 520 52 519 53 518 C53 518 53 517 53 517 C53 516 54 515 54 515 C54 515 54 515 54 515 C54 515 265 -12 265 -12 C265 -12 263 -18 263 -18 C207 -161 179 -201 137 -201 C137 -201 87 -201 87 -201 C87 -201 87 -247 87 -247 L87 -247 Z " />
<glyph glyph-name="z" unicode="z" horiz-adv-x="484" d="M45 520 C45 520 45 499 45 499 C45 499 45 479 45 479 C45 479 50 479 50 479 C50 479 384 479 384 479 C384 479 30 32 30 32 C30 32 30 0 30 0 C30 0 465 0 465 0 C465 0 465 21 465 21 C465 21 465 41 465 41 C465 42 464 42 462 41 C461 42 460 42 460 41 C460 41 91 41 91 41 C91 41 449 488 449 488 C449 488 449 520 449 520 C449 520 45 520 45 520 L45 520 Z " />
<glyph glyph-name="braceleft" unicode="&#x7b;" horiz-adv-x="345" d="M315 750 C315 750 236 750 236 750 C182 750 145 708 145 644 C145 644 145 374 145 374 C145 339 113 316 66 316 C66 316 55 316 55 316 C55 316 55 292 55 292 C55 292 66 292 66 292 C113 292 145 269 145 234 C145 234 145 -36 145 -36 C145 -100 182 -142 236 -142 C236 -142 315 -142 315 -142 C315 -142 315 -114 315 -114 C315 -114 236 -114 236 -114 C201 -114 177 -83 177 -36 C177 -36 177 227 177 227 C177 260 147 290 101 304 C147 318 177 348 177 381 C177 381 177 644 177 644 C177 691 201 722 236 722 C236 722 315 722 315 722 C315 722 315 750 315 750 L315 750 Z " />
<glyph glyph-name="bar" unicode="&#x7c;" horiz-adv-x="122" d="M45 800 C45 800 45 -297 45 -297 C45 -297 78 -297 78 -297 C78 -297 78 800 78 800 C78 800 45 800 45 800 L45 800 Z " />
<glyph glyph-name="braceright" unicode="&#x7d;" horiz-adv-x="345" d="M30 750 C30 750 109 750 109 750 C164 750 200 708 201 644 C200 483 200 375 201 374 C200 339 232 316 279 316 C279 316 290 316 290 316 C290 316 290 292 290 292 C290 292 279 292 279 292 C232 292 200 269 201 234 C201 234 201 -36 201 -36 C200 -100 164 -142 109 -142 C109 -142 30 -142 30 -142 C30 -142 30 -114 30 -114 C30 -114 109 -114 109 -114 C144 -114 168 -83 168 -36 C168 -36 168 227 168 227 C168 260 198 290 245 304 C198 318 168 348 168 381 C168 381 168 644 168 644 C168 691 144 722 109 722 C109 722 30 722 30 722 C30 722 30 750 30 750 L30 750 Z " />
<glyph glyph-name="[namenotfound]" unicode="&#xa0;" horiz-adv-x="247" d="" />
<glyph glyph-name="exclamdown" unicode="&#xa1;" horiz-adv-x="148" d="M104 520 C104 520 44 520 44 520 C44 520 44 460 44 460 C44 460 104 460 104 460 C104 460 104 520 104 520 L104 520 Z M104 -230 C104 -230 104 80 104 80 C104 80 82 327 82 327 C82 327 67 327 67 327 C67 327 45 80 45 80 C45 80 45 -230 45 -230 C45 -230 104 -230 104 -230 L104 -230 Z " />
<glyph glyph-name="cent" unicode="&#xa2;" horiz-adv-x="578" d="M295 595 C295 595 295 530 295 530 C158 524 67 439 67 260 C67 81 158 -4 295 -10 C295 -10 295 -75 295 -75 C295 -75 327 -75 327 -75 C327 -75 327 -10 327 -10 C432 -5 519 50 548 129 C548 129 501 152 501 152 C476 85 408 40 327 35 C327 35 327 489 327 489 C407 484 458 444 486 383 C480 376 477 366 477 354 C477 332 489 318 508 318 C540 318 556 336 548 364 C521 459 454 525 327 530 C327 530 327 595 327 595 C327 595 295 595 295 595 L295 595 Z M295 34 C191 41 122 111 122 260 C122 410 191 482 295 489 C295 489 295 34 295 34 L295 34 Z " />
<glyph glyph-name="guillemotleft" unicode="&#xab;" horiz-adv-x="517" d="M419 470 C419 470 261 260 261 260 C261 260 419 50 419 50 C419 50 462 50 462 50 C462 50 305 260 305 260 C305 260 462 470 462 470 C462 470 419 470 419 470 L419 470 Z M242 470 C242 470 84 260 84 260 C84 260 242 50 242 50 C242 50 285 50 285 50 C285 50 128 260 128 260 C128 260 285 470 285 470 C285 470 242 470 242 470 L242 470 Z " />
<glyph glyph-name="logicalnot" unicode="&#xac;" horiz-adv-x="477" d="M428 91 C428 91 428 241 428 241 C428 241 428 285 428 285 C428 285 375 285 375 285 C375 285 50 285 50 285 C50 285 50 241 50 241 C50 241 375 241 375 241 C375 241 375 91 375 91 C375 91 428 91 428 91 L428 91 Z " />
<glyph glyph-name="periodcentered" unicode="&#xb7;" horiz-adv-x="160" d="M50 230 C50 230 110 230 110 230 C110 230 110 290 110 290 C110 290 50 290 50 290 C50 290 50 230 50 230 L50 230 Z " />
<glyph glyph-name="guillemotright" unicode="&#xbb;" horiz-adv-x="499" d="M271 470 C271 470 429 260 429 260 C429 260 271 50 271 50 C271 50 315 50 315 50 C315 50 472 260 472 260 C472 260 315 470 315 470 C315 470 271 470 271 470 L271 470 Z M94 470 C94 470 252 260 252 260 C252 260 94 50 94 50 C94 50 138 50 138 50 C138 50 295 260 295 260 C295 260 138 470 138 470 C138 470 94 470 94 470 L94 470 Z " />
<glyph glyph-name="questiondown" unicode="&#xbf;" horiz-adv-x="573" d="M307 520 C307 520 247 520 247 520 C247 520 247 460 247 460 C247 460 307 460 307 460 C307 460 307 520 307 520 L307 520 Z M543 -37 C543 -37 495 -29 495 -29 C486 -132 397 -201 273 -201 C161 -201 87 -135 87 -35 C87 42 110 83 171 111 C280 162 301 197 301 327 C301 327 253 327 253 327 C253 219 234 190 136 144 C63 110 35 60 35 -35 C35 -158 130 -240 273 -240 C424 -240 532 -159 543 -37 L543 -37 Z " />
<glyph glyph-name="Agrave" unicode="&#xc0;" horiz-adv-x="748" d="M363 814 C363 814 409 814 409 814 C409 814 334 964 334 964 C334 964 269 964 269 964 C269 964 363 814 363 814 L363 814 Z M60 0 C60 0 92 0 92 0 C92 0 93 1 93 2 C93 2 94 4 94 4 C94 4 94 4 94 4 C94 4 185 216 185 216 C185 216 586 216 586 216 C586 216 678 0 678 0 C678 0 709 0 709 0 C709 0 739 0 739 0 C739 0 739 0 739 0 C738 1 737 5 737 5 C737 5 737 5 737 5 C737 5 415 750 415 750 C415 750 385 750 385 750 C385 750 357 750 357 750 C357 750 354 750 354 750 C354 750 30 5 30 5 C30 5 30 5 30 5 C30 5 28 0 28 0 C28 0 60 0 60 0 L60 0 Z M194 237 C194 237 386 682 386 682 C386 682 567 260 567 260 C567 260 204 260 204 260 C204 260 194 237 194 237 L194 237 Z " />
<glyph glyph-name="Aacute" unicode="&#xc1;" horiz-adv-x="748" d="M363 814 C363 814 409 814 409 814 C409 814 503 964 503 964 C503 964 438 964 438 964 C438 964 363 814 363 814 L363 814 Z M60 0 C60 0 92 0 92 0 C92 0 93 1 93 2 C93 2 94 4 94 4 C94 4 94 4 94 4 C94 4 185 216 185 216 C185 216 586 216 586 216 C586 216 678 0 678 0 C678 0 709 0 709 0 C709 0 739 0 739 0 C739 0 739 0 739 0 C738 1 737 5 737 5 C737 5 737 5 737 5 C737 5 415 750 415 750 C415 750 385 750 385 750 C385 750 357 750 357 750 C357 750 354 750 354 750 C354 750 30 5 30 5 C30 5 30 5 30 5 C30 5 28 0 28 0 C28 0 60 0 60 0 L60 0 Z M194 237 C194 237 386 682 386 682 C386 682 567 260 567 260 C567 260 204 260 204 260 C204 260 194 237 194 237 L194 237 Z " />
<glyph glyph-name="Acircumflex" unicode="&#xc2;" horiz-adv-x="748" d="M386 925 C386 925 518 814 518 814 C518 814 564 814 564 814 C564 814 411 964 411 964 C411 964 361 964 361 964 C361 964 208 814 208 814 C208 814 254 814 254 814 C254 814 386 925 386 925 L386 925 Z M60 0 C60 0 92 0 92 0 C92 0 93 1 93 2 C93 2 94 4 94 4 C94 4 94 4 94 4 C94 4 185 216 185 216 C185 216 586 216 586 216 C586 216 678 0 678 0 C678 0 709 0 709 0 C709 0 739 0 739 0 C739 0 739 0 739 0 C738 1 737 5 737 5 C737 5 737 5 737 5 C737 5 415 750 415 750 C415 750 385 750 385 750 C385 750 357 750 357 750 C357 750 354 750 354 750 C354 750 30 5 30 5 C30 5 30 5 30 5 C30 5 28 0 28 0 C28 0 60 0 60 0 L60 0 Z M194 237 C194 237 386 682 386 682 C386 682 567 260 567 260 C567 260 204 260 204 260 C204 260 194 237 194 237 L194 237 Z " />
<glyph glyph-name="Atilde" unicode="&#xc3;" horiz-adv-x="748" d="M296 814 C296 852 311 878 333 878 C376 878 389 804 442 804 C485 804 513 845 513 907 C513 907 476 907 476 907 C476 869 461 843 439 843 C396 843 383 917 330 917 C287 917 259 876 259 814 C259 814 296 814 296 814 L296 814 Z M60 0 C60 0 92 0 92 0 C92 0 93 1 93 2 C93 2 94 4 94 4 C94 4 94 4 94 4 C94 4 185 216 185 216 C185 216 586 216 586 216 C586 216 678 0 678 0 C678 0 709 0 709 0 C709 0 739 0 739 0 C739 0 739 0 739 0 C738 1 737 5 737 5 C737 5 737 5 737 5 C737 5 415 750 415 750 C415 750 385 750 385 750 C385 750 357 750 357 750 C357 750 354 750 354 750 C354 750 30 5 30 5 C30 5 30 5 30 5 C30 5 28 0 28 0 C28 0 60 0 60 0 L60 0 Z M194 237 C194 237 386 682 386 682 C386 682 567 260 567 260 C567 260 204 260 204 260 C204 260 194 237 194 237 L194 237 Z " />
<glyph glyph-name="Adieresis" unicode="&#xc4;" horiz-adv-x="748" d="M426 814 C426 814 486 814 486 814 C486 814 486 874 486 874 C486 874 426 874 426 874 C426 874 426 814 426 814 L426 814 Z M286 814 C286 814 346 814 346 814 C346 814 346 874 346 874 C346 874 286 874 286 874 C286 874 286 814 286 814 L286 814 Z M60 0 C60 0 92 0 92 0 C92 0 93 1 93 2 C93 2 94 4 94 4 C94 4 94 4 94 4 C94 4 185 216 185 216 C185 216 586 216 586 216 C586 216 678 0 678 0 C678 0 709 0 709 0 C709 0 739 0 739 0 C739 0 739 0 739 0 C738 1 737 5 737 5 C737 5 737 5 737 5 C737 5 415 750 415 750 C415 750 385 750 385 750 C385 750 357 750 357 750 C357 750 354 750 354 750 C354 750 30 5 30 5 C30 5 30 5 30 5 C30 5 28 0 28 0 C28 0 60 0 60 0 L60 0 Z M194 237 C194 237 386 682 386 682 C386 682 567 260 567 260 C567 260 204 260 204 260 C204 260 194 237 194 237 L194 237 Z " />
<glyph glyph-name="Aring" unicode="&#xc5;" horiz-adv-x="748" d="M386 837 C349 837 330 858 330 899 C330 938 351 961 386 961 C421 961 442 938 442 899 C442 858 423 837 386 837 L386 837 Z M305 899 C305 843 333 814 386 814 C439 814 467 843 467 899 C467 953 437 984 386 984 C335 984 305 953 305 899 L305 899 Z M60 0 C60 0 92 0 92 0 C92 0 93 1 93 2 C93 2 94 4 94 4 C94 4 94 4 94 4 C94 4 185 216 185 216 C185 216 586 216 586 216 C586 216 678 0 678 0 C678 0 709 0 709 0 C709 0 739 0 739 0 C739 0 739 0 739 0 C738 1 737 5 737 5 C737 5 737 5 737 5 C737 5 415 750 415 750 C415 750 385 750 385 750 C385 750 357 750 357 750 C357 750 354 750 354 750 C354 750 30 5 30 5 C30 5 30 5 30 5 C30 5 28 0 28 0 C28 0 60 0 60 0 L60 0 Z M194 237 C194 237 386 682 386 682 C386 682 567 260 567 260 C567 260 204 260 204 260 C204 260 194 237 194 237 L194 237 Z " />
<glyph glyph-name="Ccedilla" unicode="&#xc7;" horiz-adv-x="745" d="M682 200 C639 103 529 38 407 38 C241 38 131 193 131 375 C131 557 241 712 407 712 C516 712 626 647 682 550 C682 550 704 568 704 568 C704 568 726 586 726 586 C665 690 538 760 407 760 C205 760 71 583 71 375 C71 175 195 4 383 -9 C383 -9 355 -103 355 -103 C355 -103 371 -112 371 -112 C371 -112 372 -110 372 -110 C375 -101 394 -96 418 -96 C447 -96 467 -116 467 -147 C467 -178 447 -198 416 -198 C389 -198 368 -185 365 -164 C365 -164 344 -181 344 -181 C348 -205 378 -222 418 -222 C464 -222 495 -192 495 -147 C495 -101 466 -71 422 -71 C404 -71 388 -76 380 -84 C380 -84 402 -10 402 -10 C404 -10 405 -10 407 -10 C551 -10 679 60 726 164 C726 164 682 200 682 200 L682 200 Z " />
<glyph glyph-name="Egrave" unicode="&#xc8;" horiz-adv-x="610" d="M303 814 C303 814 348 814 348 814 C348 814 274 964 274 964 C274 964 208 964 208 964 C208 964 303 814 303 814 L303 814 Z M561 24 C561 24 561 48 561 48 C561 48 556 48 556 48 C556 48 161 48 161 48 C161 48 161 364 161 364 C161 364 521 364 521 364 C521 364 526 364 526 364 C526 364 526 387 526 387 C526 387 526 410 526 410 C526 410 521 410 521 410 C521 410 161 410 161 410 C161 410 161 702 161 702 C161 702 541 702 541 702 C541 702 546 702 546 702 C546 702 546 726 546 726 C546 726 546 750 546 750 C546 750 161 750 161 750 C161 750 160 750 160 750 C160 750 133 750 133 750 C133 750 105 750 105 750 C105 750 105 745 105 745 C105 745 105 5 105 5 C105 5 105 0 105 0 C105 0 133 0 133 0 C133 0 160 0 160 0 C160 0 161 0 161 0 C161 0 561 0 561 0 C561 0 561 24 561 24 L561 24 Z " />
<glyph glyph-name="Eacute" unicode="&#xc9;" horiz-adv-x="610" d="M303 814 C303 814 348 814 348 814 C348 814 442 964 442 964 C442 964 377 964 377 964 C377 964 303 814 303 814 L303 814 Z M561 24 C561 24 561 48 561 48 C561 48 556 48 556 48 C556 48 161 48 161 48 C161 48 161 364 161 364 C161 364 521 364 521 364 C521 364 526 364 526 364 C526 364 526 387 526 387 C526 387 526 410 526 410 C526 410 521 410 521 410 C521 410 161 410 161 410 C161 410 161 702 161 702 C161 702 541 702 541 702 C541 702 546 702 546 702 C546 702 546 726 546 726 C546 726 546 750 546 750 C546 750 161 750 161 750 C161 750 160 750 160 750 C160 750 133 750 133 750 C133 750 105 750 105 750 C105 750 105 745 105 745 C105 745 105 5 105 5 C105 5 105 0 105 0 C105 0 133 0 133 0 C133 0 160 0 160 0 C160 0 161 0 161 0 C161 0 561 0 561 0 C561 0 561 24 561 24 L561 24 Z " />
<glyph glyph-name="Ecircumflex" unicode="&#xca;" horiz-adv-x="610" d="M325 925 C325 925 458 814 458 814 C458 814 503 814 503 814 C503 814 351 964 351 964 C351 964 300 964 300 964 C300 964 147 814 147 814 C147 814 193 814 193 814 C193 814 325 925 325 925 L325 925 Z M561 24 C561 24 561 48 561 48 C561 48 556 48 556 48 C556 48 161 48 161 48 C161 48 161 364 161 364 C161 364 521 364 521 364 C521 364 526 364 526 364 C526 364 526 387 526 387 C526 387 526 410 526 410 C526 410 521 410 521 410 C521 410 161 410 161 410 C161 410 161 702 161 702 C161 702 541 702 541 702 C541 702 546 702 546 702 C546 702 546 726 546 726 C546 726 546 750 546 750 C546 750 161 750 161 750 C161 750 160 750 160 750 C160 750 133 750 133 750 C133 750 105 750 105 750 C105 750 105 745 105 745 C105 745 105 5 105 5 C105 5 105 0 105 0 C105 0 133 0 133 0 C133 0 160 0 160 0 C160 0 161 0 161 0 C161 0 561 0 561 0 C561 0 561 24 561 24 L561 24 Z " />
<glyph glyph-name="Edieresis" unicode="&#xcb;" horiz-adv-x="610" d="M365 814 C365 814 425 814 425 814 C425 814 425 874 425 874 C425 874 365 874 365 874 C365 874 365 814 365 814 L365 814 Z M225 814 C225 814 285 814 285 814 C285 814 285 874 285 874 C285 874 225 874 225 874 C225 874 225 814 225 814 L225 814 Z M561 24 C561 24 561 48 561 48 C561 48 556 48 556 48 C556 48 161 48 161 48 C161 48 161 364 161 364 C161 364 521 364 521 364 C521 364 526 364 526 364 C526 364 526 387 526 387 C526 387 526 410 526 410 C526 410 521 410 521 410 C521 410 161 410 161 410 C161 410 161 702 161 702 C161 702 541 702 541 702 C541 702 546 702 546 702 C546 702 546 726 546 726 C546 726 546 750 546 750 C546 750 161 750 161 750 C161 750 160 750 160 750 C160 750 133 750 133 750 C133 750 105 750 105 750 C105 750 105 745 105 745 C105 745 105 5 105 5 C105 5 105 0 105 0 C105 0 133 0 133 0 C133 0 160 0 160 0 C160 0 161 0 161 0 C161 0 561 0 561 0 C561 0 561 24 561 24 L561 24 Z " />
<glyph glyph-name="Igrave" unicode="&#xcc;" horiz-adv-x="227" d="M91 814 C91 814 137 814 137 814 C137 814 62 964 62 964 C62 964 -3 964 -3 964 C-3 964 91 814 91 814 L91 814 Z M114 0 C114 0 142 0 142 0 C142 0 142 5 142 5 C142 5 142 745 142 745 C142 745 142 750 142 750 C142 750 114 750 114 750 C114 750 86 750 86 750 C86 750 86 745 86 745 C86 745 86 5 86 5 C86 5 86 0 86 0 C86 0 114 0 114 0 L114 0 Z " />
<glyph glyph-name="Iacute" unicode="&#xcd;" horiz-adv-x="227" d="M91 814 C91 814 137 814 137 814 C137 814 231 964 231 964 C231 964 166 964 166 964 C166 964 91 814 91 814 L91 814 Z M114 0 C114 0 142 0 142 0 C142 0 142 5 142 5 C142 5 142 745 142 745 C142 745 142 750 142 750 C142 750 114 750 114 750 C114 750 86 750 86 750 C86 750 86 745 86 745 C86 745 86 5 86 5 C86 5 86 0 86 0 C86 0 114 0 114 0 L114 0 Z " />
<glyph glyph-name="Icircumflex" unicode="&#xce;" horiz-adv-x="283" d="M142 925 C142 925 275 814 275 814 C275 814 320 814 320 814 C320 814 167 964 167 964 C167 964 117 964 117 964 C117 964 -36 814 -36 814 C-36 814 10 814 10 814 C10 814 142 925 142 925 L142 925 Z M142 0 C142 0 170 0 170 0 C170 0 170 5 170 5 C170 5 170 745 170 745 C170 745 170 750 170 750 C170 750 142 750 142 750 C142 750 114 750 114 750 C114 750 114 745 114 745 C114 745 114 5 114 5 C114 5 114 0 114 0 C114 0 142 0 142 0 L142 0 Z " />
<glyph glyph-name="Idieresis" unicode="&#xcf;" horiz-adv-x="227" d="M154 814 C154 814 214 814 214 814 C214 814 214 874 214 874 C214 874 154 874 154 874 C154 874 154 814 154 814 L154 814 Z M14 814 C14 814 74 814 74 814 C74 814 74 874 74 874 C74 874 14 874 14 874 C14 874 14 814 14 814 L14 814 Z M114 0 C114 0 142 0 142 0 C142 0 142 5 142 5 C142 5 142 745 142 745 C142 745 142 750 142 750 C142 750 114 750 114 750 C114 750 86 750 86 750 C86 750 86 745 86 745 C86 745 86 5 86 5 C86 5 86 0 86 0 C86 0 114 0 114 0 L114 0 Z " />
<glyph glyph-name="Ntilde" unicode="&#xd1;" horiz-adv-x="707" d="M273 814 C273 852 288 878 310 878 C353 878 367 804 420 804 C462 804 490 845 490 907 C490 907 453 907 453 907 C453 869 438 843 416 843 C373 843 360 917 307 917 C264 917 236 876 236 814 C236 814 273 814 273 814 L273 814 Z M563 745 C563 745 563 72 563 72 C563 72 169 750 169 750 C169 750 163 750 163 750 C163 750 134 750 134 750 C134 750 104 750 104 750 C104 750 104 745 104 745 C104 745 104 5 104 5 C104 5 104 0 104 0 C104 0 134 0 134 0 C134 0 163 0 163 0 C164 0 164 1 163 3 C164 4 164 5 163 5 C163 5 163 649 163 649 C163 649 541 0 541 0 C541 0 563 0 563 0 C563 0 605 0 605 0 C605 0 622 0 622 0 C622 0 622 745 622 745 C622 745 622 750 622 750 C622 750 593 750 593 750 C593 750 563 750 563 750 C563 750 563 745 563 745 L563 745 Z " />
<glyph glyph-name="Ograve" unicode="&#xd2;" horiz-adv-x="838" d="M407 814 C407 814 453 814 453 814 C453 814 378 964 378 964 C378 964 313 964 313 964 C313 964 407 814 407 814 L407 814 Z M430 38 C254 38 136 173 136 375 C136 567 262 712 430 712 C598 712 724 567 724 375 C724 173 606 38 430 38 L430 38 Z M76 375 C76 144 218 -10 430 -10 C642 -10 784 144 784 375 C784 594 632 760 430 760 C228 760 76 594 76 375 L76 375 Z " />
<glyph glyph-name="Oacute" unicode="&#xd3;" horiz-adv-x="838" d="M407 814 C407 814 453 814 453 814 C453 814 547 964 547 964 C547 964 482 964 482 964 C482 964 407 814 407 814 L407 814 Z M430 38 C254 38 136 173 136 375 C136 567 262 712 430 712 C598 712 724 567 724 375 C724 173 606 38 430 38 L430 38 Z M76 375 C76 144 218 -10 430 -10 C642 -10 784 144 784 375 C784 594 632 760 430 760 C228 760 76 594 76 375 L76 375 Z " />
<glyph glyph-name="Ocircumflex" unicode="&#xd4;" horiz-adv-x="838" d="M430 925 C430 925 562 814 562 814 C562 814 608 814 608 814 C608 814 455 964 455 964 C455 964 405 964 405 964 C405 964 252 814 252 814 C252 814 298 814 298 814 C298 814 430 925 430 925 L430 925 Z M430 38 C254 38 136 173 136 375 C136 567 262 712 430 712 C598 712 724 567 724 375 C724 173 606 38 430 38 L430 38 Z M76 375 C76 144 218 -10 430 -10 C642 -10 784 144 784 375 C784 594 632 760 430 760 C228 760 76 594 76 375 L76 375 Z " />
<glyph glyph-name="Otilde" unicode="&#xd5;" horiz-adv-x="838" d="M340 814 C340 852 355 878 377 878 C420 878 433 804 486 804 C529 804 557 845 557 907 C557 907 520 907 520 907 C520 869 505 843 483 843 C440 843 427 917 374 917 C331 917 303 876 303 814 C303 814 340 814 340 814 L340 814 Z M430 38 C254 38 136 173 136 375 C136 567 262 712 430 712 C598 712 724 567 724 375 C724 173 606 38 430 38 L430 38 Z M76 375 C76 144 218 -10 430 -10 C642 -10 784 144 784 375 C784 594 632 760 430 760 C228 760 76 594 76 375 L76 375 Z " />
<glyph glyph-name="Odieresis" unicode="&#xd6;" horiz-adv-x="838" d="M470 814 C470 814 530 814 530 814 C530 814 530 874 530 874 C530 874 470 874 470 874 C470 874 470 814 470 814 L470 814 Z M330 814 C330 814 390 814 390 814 C390 814 390 874 390 874 C390 874 330 874 330 874 C330 874 330 814 330 814 L330 814 Z M430 38 C254 38 136 173 136 375 C136 567 262 712 430 712 C598 712 724 567 724 375 C724 173 606 38 430 38 L430 38 Z M76 375 C76 144 218 -10 430 -10 C642 -10 784 144 784 375 C784 594 632 760 430 760 C228 760 76 594 76 375 L76 375 Z " />
<glyph glyph-name="Oslash" unicode="&#xd8;" horiz-adv-x="838" d="M430 38 C346 38 275 69 224 123 C224 123 648 606 648 606 C696 546 724 466 724 375 C724 173 606 38 430 38 C430 38 430 38 430 38 L430 38 Z M76 375 C76 261 111 166 171 98 C171 98 76 -10 76 -10 C76 -10 107 -10 107 -10 C107 -10 188 82 188 82 C249 23 332 -10 430 -10 C642 -10 784 144 784 375 C784 483 747 579 685 647 C685 647 784 760 784 760 C784 760 753 760 753 760 C753 760 669 664 669 664 C607 724 524 760 430 760 C228 760 76 594 76 375 C76 375 76 375 76 375 L76 375 Z M209 141 C162 199 136 280 136 375 C136 567 262 712 430 712 C510 712 581 679 633 623 C633 623 209 141 209 141 L209 141 Z " />
<glyph glyph-name="Ugrave" unicode="&#xd9;" horiz-adv-x="684" d="M328 804 C328 804 374 804 374 804 C374 804 300 954 300 954 C300 954 234 954 234 954 C234 954 328 804 328 804 L328 804 Z M98 745 C98 745 98 293 98 293 C98 93 184 -10 351 -10 C518 -10 604 93 604 292 C604 292 604 745 604 745 C605 745 605 746 604 748 C605 749 605 750 604 750 C604 750 575 750 575 750 C575 750 545 750 545 750 C545 750 545 745 545 745 C545 745 545 303 545 303 C545 133 479 45 351 45 C221 45 154 133 154 302 C154 302 154 745 154 745 C154 745 154 750 154 750 C154 750 126 750 126 750 C126 750 98 750 98 750 C98 750 98 745 98 745 L98 745 Z " />
<glyph glyph-name="Uacute" unicode="&#xda;" horiz-adv-x="684" d="M328 804 C328 804 374 804 374 804 C374 804 468 954 468 954 C468 954 403 954 403 954 C403 954 328 804 328 804 L328 804 Z M98 745 C98 745 98 293 98 293 C98 93 184 -10 351 -10 C518 -10 604 93 604 292 C604 292 604 745 604 745 C605 745 605 746 604 748 C605 749 605 750 604 750 C604 750 575 750 575 750 C575 750 545 750 545 750 C545 750 545 745 545 745 C545 745 545 303 545 303 C545 133 479 45 351 45 C221 45 154 133 154 302 C154 302 154 745 154 745 C154 745 154 750 154 750 C154 750 126 750 126 750 C126 750 98 750 98 750 C98 750 98 745 98 745 L98 745 Z " />
<glyph glyph-name="Ucircumflex" unicode="&#xdb;" horiz-adv-x="684" d="M351 915 C351 915 484 804 484 804 C484 804 529 804 529 804 C529 804 376 954 376 954 C376 954 326 954 326 954 C326 954 173 804 173 804 C173 804 219 804 219 804 C219 804 351 915 351 915 L351 915 Z M98 745 C98 745 98 293 98 293 C98 93 184 -10 351 -10 C518 -10 604 93 604 292 C604 292 604 745 604 745 C605 745 605 746 604 748 C605 749 605 750 604 750 C604 750 575 750 575 750 C575 750 545 750 545 750 C545 750 545 745 545 745 C545 745 545 303 545 303 C545 133 479 45 351 45 C221 45 154 133 154 302 C154 302 154 745 154 745 C154 745 154 750 154 750 C154 750 126 750 126 750 C126 750 98 750 98 750 C98 750 98 745 98 745 L98 745 Z " />
<glyph glyph-name="Udieresis" unicode="&#xdc;" horiz-adv-x="684" d="M391 804 C391 804 451 804 451 804 C451 804 451 864 451 864 C451 864 391 864 391 864 C391 864 391 804 391 804 L391 804 Z M251 804 C251 804 311 804 311 804 C311 804 311 864 311 864 C311 864 251 864 251 864 C251 864 251 804 251 804 L251 804 Z M98 745 C98 745 98 293 98 293 C98 93 184 -10 351 -10 C518 -10 604 93 604 292 C604 292 604 745 604 745 C605 745 605 746 604 748 C605 749 605 750 604 750 C604 750 575 750 575 750 C575 750 545 750 545 750 C545 750 545 745 545 745 C545 745 545 303 545 303 C545 133 479 45 351 45 C221 45 154 133 154 302 C154 302 154 745 154 745 C154 745 154 750 154 750 C154 750 126 750 126 750 C126 750 98 750 98 750 C98 750 98 745 98 745 L98 745 Z " />
<glyph glyph-name="Yacute" unicode="&#xdd;" horiz-adv-x="635" d="M307 814 C307 814 353 814 353 814 C353 814 447 964 447 964 C447 964 382 964 382 964 C382 964 307 814 307 814 L307 814 Z M560 745 C560 745 561 745 561 745 C561 745 328 376 328 376 C328 376 93 750 93 750 C93 750 64 750 64 750 C64 750 34 750 34 750 C34 750 302 330 302 330 C302 330 302 5 302 5 C302 5 302 0 302 0 C302 0 329 0 329 0 C329 0 357 0 357 0 C358 0 358 1 357 3 C358 4 358 5 357 5 C357 5 357 329 357 329 C357 329 622 745 622 745 C622 745 622 745 622 745 C622 745 626 750 625 750 C625 750 594 750 594 750 C594 750 564 750 564 750 C564 750 563 750 563 750 C563 749 560 745 560 745 C560 745 560 745 560 745 L560 745 Z " />
<glyph glyph-name="Thorn" unicode="&#xde;" horiz-adv-x="648" d="M133 0 C133 0 161 0 161 0 C161 0 161 5 161 5 C161 5 161 150 161 150 C161 150 423 150 423 150 C549 150 614 227 614 375 C614 524 549 600 423 600 C423 600 161 600 161 600 C161 600 161 745 161 745 C161 745 161 750 161 750 C161 750 133 750 133 750 C133 750 105 750 105 750 C105 750 105 745 105 745 C105 745 105 5 105 5 C105 5 105 0 105 0 C105 0 133 0 133 0 L133 0 Z M161 196 C161 196 161 554 161 554 C161 554 421 554 421 554 C511 554 558 493 558 375 C558 257 513 196 426 196 C426 196 161 196 161 196 L161 196 Z " />
<glyph glyph-name="agrave" unicode="&#xe0;" horiz-adv-x="574" d="M262 584 C262 584 307 584 307 584 C307 584 233 734 233 734 C233 734 167 734 167 734 C167 734 262 584 262 584 L262 584 Z M69 386 C69 386 117 370 117 370 C140 440 207 486 284 486 C384 486 450 457 450 381 C450 302 370 271 250 257 C134 243 57 185 57 112 C57 39 113 -10 256 -10 C350 -10 420 12 450 82 C450 82 450 48 450 48 C450 2 454 0 545 0 C545 0 545 37 545 37 C502 37 500 37 500 48 C500 48 500 360 500 360 C500 482 414 530 284 530 C183 530 97 472 69 386 L69 386 Z M450 290 C450 290 450 174 450 174 C450 59 379 27 272 27 C153 27 106 62 106 114 C106 167 176 210 281 223 C358 232 418 251 450 290 L450 290 Z " />
<glyph glyph-name="aacute" unicode="&#xe1;" horiz-adv-x="574" d="M262 584 C262 584 307 584 307 584 C307 584 401 734 401 734 C401 734 336 734 336 734 C336 734 262 584 262 584 L262 584 Z M69 386 C69 386 117 370 117 370 C140 440 207 486 284 486 C384 486 450 457 450 381 C450 302 370 271 250 257 C134 243 57 185 57 112 C57 39 113 -10 256 -10 C350 -10 420 12 450 82 C450 82 450 48 450 48 C450 2 454 0 545 0 C545 0 545 37 545 37 C502 37 500 37 500 48 C500 48 500 360 500 360 C500 482 414 530 284 530 C183 530 97 472 69 386 L69 386 Z M450 290 C450 290 450 174 450 174 C450 59 379 27 272 27 C153 27 106 62 106 114 C106 167 176 210 281 223 C358 232 418 251 450 290 L450 290 Z " />
<glyph glyph-name="acircumflex" unicode="&#xe2;" horiz-adv-x="574" d="M284 695 C284 695 417 584 417 584 C417 584 463 584 463 584 C463 584 310 734 310 734 C310 734 259 734 259 734 C259 734 106 584 106 584 C106 584 152 584 152 584 C152 584 284 695 284 695 L284 695 Z M69 386 C69 386 117 370 117 370 C140 440 207 486 284 486 C384 486 450 457 450 381 C450 302 370 271 250 257 C134 243 57 185 57 112 C57 39 113 -10 256 -10 C350 -10 420 12 450 82 C450 82 450 48 450 48 C450 2 454 0 545 0 C545 0 545 37 545 37 C502 37 500 37 500 48 C500 48 500 360 500 360 C500 482 414 530 284 530 C183 530 97 472 69 386 L69 386 Z M450 290 C450 290 450 174 450 174 C450 59 379 27 272 27 C153 27 106 62 106 114 C106 167 176 210 281 223 C358 232 418 251 450 290 L450 290 Z " />
<glyph glyph-name="atilde" unicode="&#xe3;" horiz-adv-x="648" d="M233 584 C233 622 248 648 270 648 C313 648 326 574 379 574 C422 574 450 615 450 677 C450 677 413 677 413 677 C413 639 398 613 376 613 C333 613 319 687 266 687 C224 687 196 646 196 584 C196 584 233 584 233 584 L233 584 Z M67 260 C67 98 174 -10 333 -10 C424 -10 494 42 528 129 C528 129 528 0 528 0 C528 0 578 0 578 0 C578 0 578 520 578 520 C578 520 528 520 528 520 C528 520 528 391 528 391 C494 478 424 530 333 530 C174 530 67 422 67 260 L67 260 Z M528 260 C528 124 457 34 351 34 C214 34 122 124 122 260 C122 396 214 486 351 486 C457 486 528 396 528 260 L528 260 Z " />
<glyph glyph-name="adieresis" unicode="&#xe4;" horiz-adv-x="574" d="M332 584 C332 584 392 584 392 584 C392 584 392 644 392 644 C392 644 332 644 332 644 C332 644 332 584 332 584 L332 584 Z M177 584 C177 584 237 584 237 584 C237 584 237 644 237 644 C237 644 177 644 177 644 C177 644 177 584 177 584 L177 584 Z M69 386 C69 386 117 370 117 370 C140 440 207 486 284 486 C384 486 450 457 450 381 C450 302 370 271 250 257 C134 243 57 185 57 112 C57 39 113 -10 256 -10 C350 -10 420 12 450 82 C450 82 450 48 450 48 C450 2 454 0 545 0 C545 0 545 37 545 37 C502 37 500 37 500 48 C500 48 500 360 500 360 C500 482 414 530 284 530 C183 530 97 472 69 386 L69 386 Z M450 290 C450 290 450 174 450 174 C450 59 379 27 272 27 C153 27 106 62 106 114 C106 167 176 210 281 223 C358 232 418 251 450 290 L450 290 Z " />
<glyph glyph-name="aring" unicode="&#xe5;" horiz-adv-x="574" d="M284 607 C247 607 228 628 228 669 C228 708 249 731 284 731 C319 731 340 708 340 669 C340 628 321 607 284 607 L284 607 Z M204 669 C204 613 231 584 284 584 C338 584 365 613 365 669 C365 723 335 754 284 754 C234 754 204 723 204 669 L204 669 Z M69 386 C69 386 117 370 117 370 C140 440 207 486 284 486 C384 486 450 457 450 381 C450 302 370 271 250 257 C134 243 57 185 57 112 C57 39 113 -10 256 -10 C350 -10 420 12 450 82 C450 82 450 48 450 48 C450 2 454 0 545 0 C545 0 545 37 545 37 C502 37 500 37 500 48 C500 48 500 360 500 360 C500 482 414 530 284 530 C183 530 97 472 69 386 L69 386 Z M450 290 C450 290 450 174 450 174 C450 59 379 27 272 27 C153 27 106 62 106 114 C106 167 176 210 281 223 C358 232 418 251 450 290 L450 290 Z " />
<glyph glyph-name="ccedilla" unicode="&#xe7;" horiz-adv-x="582" d="M505 152 C478 81 402 34 313 34 C198 34 122 104 122 260 C122 418 198 489 313 489 C403 489 465 434 505 351 C505 351 552 374 552 374 C506 467 430 530 313 530 C165 530 67 446 67 260 C67 81 157 -3 295 -10 C295 -10 266 -103 266 -103 C266 -103 282 -112 282 -112 C285 -102 304 -96 329 -96 C358 -96 378 -116 378 -147 C378 -178 358 -198 328 -198 C300 -198 280 -185 276 -164 C276 -164 256 -181 256 -181 C259 -205 289 -222 329 -222 C376 -222 407 -192 407 -147 C407 -101 378 -71 334 -71 C315 -71 299 -76 290 -85 C290 -85 313 -10 313 -10 C426 -10 522 46 552 129 C552 129 505 152 505 152 L505 152 Z " />
<glyph glyph-name="egrave" unicode="&#xe8;" horiz-adv-x="588" d="M294 584 C294 584 339 584 339 584 C339 584 265 734 265 734 C265 734 200 734 200 734 C200 734 294 584 294 584 L294 584 Z M509 149 C490 80 412 34 313 34 C200 34 125 101 122 250 C122 250 516 250 516 250 C516 250 566 250 566 250 C566 418 496 530 317 530 C167 530 67 446 67 260 C67 74 165 -10 313 -10 C438 -10 536 46 559 130 C559 130 509 149 509 149 L509 149 Z M515 287 C515 287 123 287 123 287 C131 426 207 489 317 489 C447 489 505 409 515 287 L515 287 Z " />
<glyph glyph-name="eacute" unicode="&#xe9;" horiz-adv-x="588" d="M294 584 C294 584 339 584 339 584 C339 584 434 734 434 734 C434 734 368 734 368 734 C368 734 294 584 294 584 L294 584 Z M509 149 C490 80 412 34 313 34 C200 34 125 101 122 250 C122 250 516 250 516 250 C516 250 566 250 566 250 C566 418 496 530 317 530 C167 530 67 446 67 260 C67 74 165 -10 313 -10 C438 -10 536 46 559 130 C559 130 509 149 509 149 L509 149 Z M515 287 C515 287 123 287 123 287 C131 426 207 489 317 489 C447 489 505 409 515 287 L515 287 Z " />
<glyph glyph-name="ecircumflex" unicode="&#xea;" horiz-adv-x="588" d="M317 695 C317 695 449 584 449 584 C449 584 495 584 495 584 C495 584 342 734 342 734 C342 734 291 734 291 734 C291 734 138 584 138 584 C138 584 184 584 184 584 C184 584 317 695 317 695 L317 695 Z M509 149 C490 80 412 34 313 34 C200 34 125 101 122 250 C122 250 516 250 516 250 C516 250 566 250 566 250 C566 418 496 530 317 530 C167 530 67 446 67 260 C67 74 165 -10 313 -10 C438 -10 536 46 559 130 C559 130 509 149 509 149 L509 149 Z M515 287 C515 287 123 287 123 287 C131 426 207 489 317 489 C447 489 505 409 515 287 L515 287 Z " />
<glyph glyph-name="edieresis" unicode="&#xeb;" horiz-adv-x="588" d="M356 584 C356 584 416 584 416 584 C416 584 416 644 416 644 C416 644 356 644 356 644 C356 644 356 584 356 584 L356 584 Z M217 584 C217 584 277 584 277 584 C277 584 277 644 277 644 C277 644 217 644 217 644 C217 644 217 584 217 584 L217 584 Z M509 149 C490 80 412 34 313 34 C200 34 125 101 122 250 C122 250 516 250 516 250 C516 250 566 250 566 250 C566 418 496 530 317 530 C167 530 67 446 67 260 C67 74 165 -10 313 -10 C438 -10 536 46 559 130 C559 130 509 149 509 149 L509 149 Z M515 287 C515 287 123 287 123 287 C131 426 207 489 317 489 C447 489 505 409 515 287 L515 287 Z " />
<glyph glyph-name="igrave" unicode="&#xec;" horiz-adv-x="165" d="M47 584 C47 584 93 584 93 584 C93 584 18 734 18 734 C18 734 -47 734 -47 734 C-47 734 47 584 47 584 L47 584 Z M70 0 C70 0 95 0 95 0 C95 0 95 5 95 5 C95 5 95 520 95 520 C95 520 70 520 70 520 C70 520 45 520 45 520 C45 520 45 515 45 515 C45 515 45 5 45 5 C45 5 45 0 45 0 C45 0 70 0 70 0 L70 0 Z " />
<glyph glyph-name="iacute" unicode="&#xed;" horiz-adv-x="165" d="M47 584 C47 584 93 584 93 584 C93 584 187 734 187 734 C187 734 122 734 122 734 C122 734 47 584 47 584 L47 584 Z M70 0 C70 0 95 0 95 0 C95 0 95 5 95 5 C95 5 95 520 95 520 C95 520 70 520 70 520 C70 520 45 520 45 520 C45 520 45 515 45 515 C45 515 45 5 45 5 C45 5 45 0 45 0 C45 0 70 0 70 0 L70 0 Z " />
<glyph glyph-name="icircumflex" unicode="&#xee;" horiz-adv-x="165" d="M70 695 C70 695 202 584 202 584 C202 584 248 584 248 584 C248 584 95 734 95 734 C95 734 45 734 45 734 C45 734 -108 584 -108 584 C-108 584 -62 584 -62 584 C-62 584 70 695 70 695 L70 695 Z M70 0 C70 0 95 0 95 0 C95 0 95 5 95 5 C95 5 95 520 95 520 C95 520 70 520 70 520 C70 520 45 520 45 520 C45 520 45 515 45 515 C45 515 45 5 45 5 C45 5 45 0 45 0 C45 0 70 0 70 0 L70 0 Z " />
<glyph glyph-name="idieresis" unicode="&#xef;" horiz-adv-x="165" d="M118 584 C118 584 178 584 178 584 C178 584 178 644 178 644 C178 644 118 644 118 644 C118 644 118 584 118 584 L118 584 Z M-37 584 C-37 584 23 584 23 584 C23 584 23 644 23 644 C23 644 -37 644 -37 644 C-37 644 -37 584 -37 584 L-37 584 Z M70 0 C70 0 95 0 95 0 C95 0 95 5 95 5 C95 5 95 520 95 520 C95 520 70 520 70 520 C70 520 45 520 45 520 C45 520 45 515 45 515 C45 515 45 5 45 5 C45 5 45 0 45 0 C45 0 70 0 70 0 L70 0 Z " />
<glyph glyph-name="ntilde" unicode="&#xf1;" horiz-adv-x="558" d="M200 584 C200 622 215 648 237 648 C280 648 293 574 346 574 C389 574 417 615 417 677 C417 677 380 677 380 677 C380 639 365 613 343 613 C300 613 287 687 234 687 C191 687 163 646 163 584 C163 584 200 584 200 584 L200 584 Z M86 515 C86 515 87 515 87 515 C87 515 87 5 87 5 C87 5 86 5 86 5 C86 5 86 0 86 0 C86 0 87 0 87 0 C87 0 112 0 112 0 C112 0 137 0 137 0 C137 0 137 5 137 5 C137 5 137 348 137 348 C137 426 204 477 304 477 C388 477 443 422 443 315 C443 315 443 5 443 5 C443 5 443 0 443 0 C443 0 468 0 468 0 C468 0 493 0 493 0 C494 0 494 1 493 3 C494 4 494 5 493 5 C493 5 493 315 493 315 C493 454 426 525 325 525 C235 525 168 488 137 427 C137 427 137 510 137 510 C137 510 137 520 137 520 C137 520 112 520 112 520 C112 520 99 520 99 520 C99 520 87 520 87 520 C87 520 86 520 86 520 C86 520 86 515 86 515 L86 515 Z " />
<glyph glyph-name="ograve" unicode="&#xf2;" horiz-adv-x="614" d="M293 584 C293 584 339 584 339 584 C339 584 264 734 264 734 C264 734 199 734 199 734 C199 734 293 584 293 584 L293 584 Z M316 29 C182 29 122 121 122 260 C122 419 200 491 316 491 C451 491 511 399 511 260 C511 101 433 29 316 29 L316 29 Z M67 260 C67 98 144 -10 316 -10 C465 -10 565 74 565 260 C565 422 488 530 316 530 C167 530 67 446 67 260 L67 260 Z " />
<glyph glyph-name="oacute" unicode="&#xf3;" horiz-adv-x="614" d="M293 584 C293 584 339 584 339 584 C339 584 433 734 433 734 C433 734 368 734 368 734 C368 734 293 584 293 584 L293 584 Z M316 29 C182 29 122 121 122 260 C122 419 200 491 316 491 C451 491 511 399 511 260 C511 101 433 29 316 29 L316 29 Z M67 260 C67 98 144 -10 316 -10 C465 -10 565 74 565 260 C565 422 488 530 316 530 C167 530 67 446 67 260 L67 260 Z " />
<glyph glyph-name="ocircumflex" unicode="&#xf4;" horiz-adv-x="614" d="M316 695 C316 695 449 584 449 584 C449 584 494 584 494 584 C494 584 341 734 341 734 C341 734 291 734 291 734 C291 734 138 584 138 584 C138 584 184 584 184 584 C184 584 316 695 316 695 L316 695 Z M316 29 C182 29 122 121 122 260 C122 419 200 491 316 491 C451 491 511 399 511 260 C511 101 433 29 316 29 L316 29 Z M67 260 C67 98 144 -10 316 -10 C465 -10 565 74 565 260 C565 422 488 530 316 530 C167 530 67 446 67 260 L67 260 Z " />
<glyph glyph-name="otilde" unicode="&#xf5;" horiz-adv-x="614" d="M226 584 C226 622 241 648 263 648 C306 648 319 574 372 574 C415 574 443 615 443 677 C443 677 406 677 406 677 C406 639 391 613 369 613 C326 613 313 687 260 687 C217 687 189 646 189 584 C189 584 226 584 226 584 L226 584 Z M316 29 C182 29 122 121 122 260 C122 419 200 491 316 491 C451 491 511 399 511 260 C511 101 433 29 316 29 L316 29 Z M67 260 C67 98 144 -10 316 -10 C465 -10 565 74 565 260 C565 422 488 530 316 530 C167 530 67 446 67 260 L67 260 Z " />
<glyph glyph-name="odieresis" unicode="&#xf6;" horiz-adv-x="614" d="M356 584 C356 584 416 584 416 584 C416 584 416 644 416 644 C416 644 356 644 356 644 C356 644 356 584 356 584 L356 584 Z M216 584 C216 584 276 584 276 584 C276 584 276 644 276 644 C276 644 216 644 216 644 C216 644 216 584 216 584 L216 584 Z M316 29 C182 29 122 121 122 260 C122 419 200 491 316 491 C451 491 511 399 511 260 C511 101 433 29 316 29 L316 29 Z M67 260 C67 98 144 -10 316 -10 C465 -10 565 74 565 260 C565 422 488 530 316 530 C167 530 67 446 67 260 L67 260 Z " />
<glyph glyph-name="oslash" unicode="&#xf8;" horiz-adv-x="614" d="M316 29 C252 29 206 50 174 86 C174 86 469 421 469 421 C498 381 511 326 511 260 C511 101 433 29 316 29 C316 29 316 29 316 29 L316 29 Z M67 260 C67 177 87 109 130 61 C130 61 67 -10 67 -10 C67 -10 89 -10 89 -10 C89 -10 141 49 141 49 C182 11 240 -10 316 -10 C465 -10 565 74 565 260 C565 343 545 411 502 459 C502 459 565 530 565 530 C565 530 543 530 543 530 C543 530 491 471 491 471 C450 509 392 530 316 530 C167 530 67 446 67 260 L67 260 Z M163 99 C135 139 122 194 122 260 C122 419 200 491 316 491 C380 491 427 471 459 434 C459 434 163 99 163 99 L163 99 Z " />
<glyph glyph-name="ugrave" unicode="&#xf9;" horiz-adv-x="542" d="M254 584 C254 584 300 584 300 584 C300 584 225 734 225 734 C225 734 160 734 160 734 C160 734 254 584 254 584 L254 584 Z M81 515 C81 515 82 515 82 515 C82 515 82 172 82 172 C82 52 122 -10 266 -10 C341 -10 398 23 423 77 C423 77 423 10 423 10 C423 10 423 0 423 0 C423 0 448 0 448 0 C448 0 473 0 473 0 C473 0 473 5 473 5 C473 5 473 10 473 10 C473 10 473 520 473 520 C473 520 448 520 448 520 C448 520 423 520 423 520 C423 520 423 515 423 515 C423 515 423 144 423 144 C423 80 367 38 282 38 C165 38 132 83 132 172 C132 172 132 520 132 520 C132 520 107 520 107 520 C107 520 82 520 82 520 C82 520 81 520 81 520 C81 520 81 515 81 515 L81 515 Z " />
<glyph glyph-name="uacute" unicode="&#xfa;" horiz-adv-x="542" d="M254 584 C254 584 300 584 300 584 C300 584 394 734 394 734 C394 734 329 734 329 734 C329 734 254 584 254 584 L254 584 Z M81 515 C81 515 82 515 82 515 C82 515 82 172 82 172 C82 52 122 -10 266 -10 C341 -10 398 23 423 77 C423 77 423 10 423 10 C423 10 423 0 423 0 C423 0 448 0 448 0 C448 0 473 0 473 0 C473 0 473 5 473 5 C473 5 473 10 473 10 C473 10 473 520 473 520 C473 520 448 520 448 520 C448 520 423 520 423 520 C423 520 423 515 423 515 C423 515 423 144 423 144 C423 80 367 38 282 38 C165 38 132 83 132 172 C132 172 132 520 132 520 C132 520 107 520 107 520 C107 520 82 520 82 520 C82 520 81 520 81 520 C81 520 81 515 81 515 L81 515 Z " />
<glyph glyph-name="ucircumflex" unicode="&#xfb;" horiz-adv-x="542" d="M277 695 C277 695 410 584 410 584 C410 584 455 584 455 584 C455 584 302 734 302 734 C302 734 252 734 252 734 C252 734 99 584 99 584 C99 584 145 584 145 584 C145 584 277 695 277 695 L277 695 Z M81 515 C81 515 82 515 82 515 C82 515 82 172 82 172 C82 52 122 -10 266 -10 C341 -10 398 23 423 77 C423 77 423 10 423 10 C423 10 423 0 423 0 C423 0 448 0 448 0 C448 0 473 0 473 0 C473 0 473 5 473 5 C473 5 473 10 473 10 C473 10 473 520 473 520 C473 520 448 520 448 520 C448 520 423 520 423 520 C423 520 423 515 423 515 C423 515 423 144 423 144 C423 80 367 38 282 38 C165 38 132 83 132 172 C132 172 132 520 132 520 C132 520 107 520 107 520 C107 520 82 520 82 520 C82 520 81 520 81 520 C81 520 81 515 81 515 L81 515 Z " />
<glyph glyph-name="udieresis" unicode="&#xfc;" horiz-adv-x="542" d="M317 584 C317 584 377 584 377 584 C377 584 377 644 377 644 C377 644 317 644 317 644 C317 644 317 584 317 584 L317 584 Z M177 584 C177 584 237 584 237 584 C237 584 237 644 237 644 C237 644 177 644 177 644 C177 644 177 584 177 584 L177 584 Z M81 515 C81 515 82 515 82 515 C82 515 82 172 82 172 C82 52 122 -10 266 -10 C341 -10 398 23 423 77 C423 77 423 10 423 10 C423 10 423 0 423 0 C423 0 448 0 448 0 C448 0 473 0 473 0 C473 0 473 5 473 5 C473 5 473 10 473 10 C473 10 473 520 473 520 C473 520 448 520 448 520 C448 520 423 520 423 520 C423 520 423 515 423 515 C423 515 423 144 423 144 C423 80 367 38 282 38 C165 38 132 83 132 172 C132 172 132 520 132 520 C132 520 107 520 107 520 C107 520 82 520 82 520 C82 520 81 520 81 520 C81 520 81 515 81 515 L81 515 Z " />
<glyph glyph-name="yacute" unicode="&#xfd;" horiz-adv-x="514" d="M243 584 C243 584 289 584 289 584 C289 584 383 734 383 734 C383 734 318 734 318 734 C318 734 243 584 243 584 L243 584 Z M443 515 C443 515 443 515 443 515 C443 515 269 61 269 61 C269 61 86 515 86 515 C87 515 86 516 85 518 C85 519 85 520 84 520 C84 520 56 520 56 520 C56 520 28 520 28 520 C28 520 28 519 29 518 C29 518 29 517 29 517 C29 516 30 515 30 515 C30 515 30 515 30 515 C30 515 241 -12 241 -12 C241 -12 239 -18 239 -18 C183 -161 155 -201 113 -201 C113 -201 63 -201 63 -201 C63 -201 63 -247 63 -247 C63 -247 113 -247 113 -247 C179 -247 216 -201 281 -39 C281 -39 503 515 503 515 C503 515 503 515 503 515 C503 515 503 515 503 515 C503 515 505 520 505 520 C505 520 475 520 475 520 C475 520 445 520 445 520 C445 520 444 519 444 518 C443 516 443 515 443 515 C443 515 443 515 443 515 L443 515 Z " />
<glyph glyph-name="thorn" unicode="&#xfe;" horiz-adv-x="622" d="M112 750 C112 750 87 750 87 750 C87 750 86 750 86 750 C86 750 86 745 86 745 C86 745 87 745 87 745 C87 745 87 -303 87 -303 C87 -303 86 -303 86 -303 C86 -303 86 -308 86 -308 C86 -308 87 -308 87 -308 C87 -308 112 -308 112 -308 C112 -308 137 -308 137 -308 C137 -308 137 -303 137 -303 C137 -303 137 121 137 121 C172 32 247 -10 343 -10 C481 -10 573 98 573 260 C573 422 481 530 343 530 C247 530 172 488 137 399 C137 399 137 750 137 750 C137 750 112 750 112 750 L112 750 Z M325 33 C212 33 137 103 137 260 C137 416 212 486 325 486 C442 486 519 396 519 260 C519 124 442 33 325 33 L325 33 Z " />
<glyph glyph-name="ydieresis" unicode="&#xff;" horiz-adv-x="514" d="M306 584 C306 584 366 584 366 584 C366 584 366 644 366 644 C366 644 306 644 306 644 C306 644 306 584 306 584 L306 584 Z M166 584 C166 584 226 584 226 584 C226 584 226 644 226 644 C226 644 166 644 166 644 C166 644 166 584 166 584 L166 584 Z M443 515 C443 515 443 515 443 515 C443 515 269 61 269 61 C269 61 86 515 86 515 C87 515 86 516 85 518 C85 519 85 520 84 520 C84 520 56 520 56 520 C56 520 28 520 28 520 C28 520 28 519 29 518 C29 518 29 517 29 517 C29 516 30 515 30 515 C30 515 30 515 30 515 C30 515 241 -12 241 -12 C241 -12 239 -18 239 -18 C183 -161 155 -201 113 -201 C113 -201 63 -201 63 -201 C63 -201 63 -247 63 -247 C63 -247 113 -247 113 -247 C179 -247 216 -201 281 -39 C281 -39 503 515 503 515 C503 515 503 515 503 515 C503 515 503 515 503 515 C503 515 505 520 505 520 C505 520 475 520 475 520 C475 520 445 520 445 520 C445 520 444 519 444 518 C443 516 443 515 443 515 C443 515 443 515 443 515 L443 515 Z " />
<glyph glyph-name="Amacron" unicode="&#x100;" horiz-adv-x="748" d="M229 814 C229 814 543 814 543 814 C543 814 543 849 543 849 C543 849 229 849 229 849 C229 849 229 814 229 814 L229 814 Z M60 0 C60 0 92 0 92 0 C92 0 93 1 93 2 C93 2 94 4 94 4 C94 4 94 4 94 4 C94 4 185 216 185 216 C185 216 586 216 586 216 C586 216 678 0 678 0 C678 0 709 0 709 0 C709 0 739 0 739 0 C739 0 739 0 739 0 C738 1 737 5 737 5 C737 5 737 5 737 5 C737 5 415 750 415 750 C415 750 385 750 385 750 C385 750 357 750 357 750 C357 750 354 750 354 750 C354 750 30 5 30 5 C30 5 30 5 30 5 C30 5 28 0 28 0 C28 0 60 0 60 0 L60 0 Z M194 237 C194 237 386 682 386 682 C386 682 567 260 567 260 C567 260 204 260 204 260 C204 260 194 237 194 237 L194 237 Z " />
<glyph glyph-name="amacron" unicode="&#x101;" horiz-adv-x="574" d="M127 584 C127 584 442 584 442 584 C442 584 442 619 442 619 C442 619 127 619 127 619 C127 619 127 584 127 584 L127 584 Z M69 386 C69 386 117 370 117 370 C140 440 207 486 284 486 C384 486 450 457 450 381 C450 302 370 271 250 257 C134 243 57 185 57 112 C57 39 113 -10 256 -10 C350 -10 420 12 450 82 C450 82 450 48 450 48 C450 2 454 0 545 0 C545 0 545 37 545 37 C502 37 500 37 500 48 C500 48 500 360 500 360 C500 482 414 530 284 530 C183 530 97 472 69 386 L69 386 Z M450 290 C450 290 450 174 450 174 C450 59 379 27 272 27 C153 27 106 62 106 114 C106 167 176 210 281 223 C358 232 418 251 450 290 L450 290 Z " />
<glyph glyph-name="Abreve" unicode="&#x102;" horiz-adv-x="748" d="M231 929 C231 854 293 804 386 804 C479 804 541 854 541 929 C541 929 504 929 504 929 C504 875 457 839 386 839 C315 839 268 875 268 929 C268 929 231 929 231 929 L231 929 Z M60 0 C60 0 92 0 92 0 C92 0 93 1 93 2 C93 2 94 4 94 4 C94 4 94 4 94 4 C94 4 185 216 185 216 C185 216 586 216 586 216 C586 216 678 0 678 0 C678 0 709 0 709 0 C709 0 739 0 739 0 C739 0 739 0 739 0 C738 1 737 5 737 5 C737 5 737 5 737 5 C737 5 415 750 415 750 C415 750 385 750 385 750 C385 750 357 750 357 750 C357 750 354 750 354 750 C354 750 30 5 30 5 C30 5 30 5 30 5 C30 5 28 0 28 0 C28 0 60 0 60 0 L60 0 Z M194 237 C194 237 386 682 386 682 C386 682 567 260 567 260 C567 260 204 260 204 260 C204 260 194 237 194 237 L194 237 Z " />
<glyph glyph-name="abreve" unicode="&#x103;" horiz-adv-x="574" d="M129 699 C129 624 191 574 284 574 C378 574 440 624 440 699 C440 699 403 699 403 699 C403 645 356 609 284 609 C213 609 166 645 166 699 C166 699 129 699 129 699 L129 699 Z M69 386 C69 386 117 370 117 370 C140 440 207 486 284 486 C384 486 450 457 450 381 C450 302 370 271 250 257 C134 243 57 185 57 112 C57 39 113 -10 256 -10 C350 -10 420 12 450 82 C450 82 450 48 450 48 C450 2 454 0 545 0 C545 0 545 37 545 37 C502 37 500 37 500 48 C500 48 500 360 500 360 C500 482 414 530 284 530 C183 530 97 472 69 386 L69 386 Z M450 290 C450 290 450 174 450 174 C450 59 379 27 272 27 C153 27 106 62 106 114 C106 167 176 210 281 223 C358 232 418 251 450 290 L450 290 Z " />
<glyph glyph-name="Aogonek" unicode="&#x104;" horiz-adv-x="748" d="M60 0 C60 0 92 0 92 0 C92 0 93 1 93 2 C93 2 94 4 94 4 C94 4 94 4 94 4 C94 4 185 216 185 216 C185 216 586 216 586 216 C586 216 678 0 678 0 C678 0 709 0 709 0 C709 0 710 0 710 0 C682 -24 648 -66 648 -97 C648 -162 689 -206 749 -206 C782 -206 813 -194 829 -175 C829 -175 824 -146 824 -146 C810 -163 781 -174 752 -174 C707 -174 676 -141 676 -92 C676 -58 720 -11 739 0 C739 0 739 0 739 0 C738 1 737 5 737 5 C737 5 737 5 737 5 C737 5 415 750 415 750 C415 750 385 750 385 750 C385 750 357 750 357 750 C357 750 354 750 354 750 C354 750 30 5 30 5 C30 5 30 5 30 5 C30 5 28 0 28 0 C28 0 60 0 60 0 L60 0 Z M194 237 C194 237 386 682 386 682 C386 682 567 260 567 260 C567 260 204 260 204 260 C204 260 194 237 194 237 L194 237 Z " />
<glyph glyph-name="aogonek" unicode="&#x105;" horiz-adv-x="625" d="M67 260 C67 98 169 -10 321 -10 C407 -10 473 41 506 126 C506 126 506 0 506 0 C506 0 531 0 531 0 C531 0 531 0 531 0 C502 -25 465 -68 465 -96 C465 -162 506 -206 566 -206 C599 -206 630 -194 646 -175 C646 -175 641 -146 641 -146 C627 -163 598 -174 569 -174 C523 -174 493 -141 493 -91 C493 -58 537 -11 556 0 C556 0 556 5 556 5 C556 5 556 18 556 18 C556 18 556 515 556 515 C556 515 556 520 556 520 C556 520 531 520 531 520 C531 520 506 520 506 520 C506 520 506 394 506 394 C473 479 407 530 321 530 C169 530 67 422 67 260 C67 260 67 260 67 260 L67 260 Z M506 260 C506 124 439 34 339 34 C209 34 122 124 122 260 C122 396 209 486 339 486 C439 486 506 396 506 260 L506 260 Z " />
<glyph glyph-name="Cacute" unicode="&#x106;" horiz-adv-x="745" d="M376 814 C376 814 421 814 421 814 C421 814 515 964 515 964 C515 964 450 964 450 964 C450 964 376 814 376 814 L376 814 Z M682 200 C639 103 529 38 407 38 C241 38 131 193 131 375 C131 557 241 712 407 712 C516 712 626 647 682 550 C682 550 704 568 704 568 C704 568 726 586 726 586 C665 690 538 760 407 760 C205 760 71 583 71 375 C71 167 205 -10 407 -10 C551 -10 679 60 726 164 C726 164 682 200 682 200 L682 200 Z " />
<glyph glyph-name="cacute" unicode="&#x107;" horiz-adv-x="582" d="M290 584 C290 584 336 584 336 584 C336 584 430 734 430 734 C430 734 365 734 365 734 C365 734 290 584 290 584 L290 584 Z M505 152 C478 81 402 34 313 34 C198 34 122 104 122 260 C122 418 198 489 313 489 C403 489 465 434 505 351 C505 351 552 374 552 374 C506 467 430 530 313 530 C165 530 67 446 67 260 C67 74 165 -10 313 -10 C426 -10 522 46 552 129 C552 129 505 152 505 152 L505 152 Z " />
<glyph glyph-name="Ccircumflex" unicode="&#x108;" horiz-adv-x="745" d="M398 925 C398 925 531 814 531 814 C531 814 576 814 576 814 C576 814 424 964 424 964 C424 964 373 964 373 964 C373 964 220 814 220 814 C220 814 266 814 266 814 C266 814 398 925 398 925 L398 925 Z M682 200 C639 103 529 38 407 38 C241 38 131 193 131 375 C131 557 241 712 407 712 C516 712 626 647 682 550 C682 550 704 568 704 568 C704 568 726 586 726 586 C665 690 538 760 407 760 C205 760 71 583 71 375 C71 167 205 -10 407 -10 C551 -10 679 60 726 164 C726 164 682 200 682 200 L682 200 Z " />
<glyph glyph-name="Cdotaccent" unicode="&#x10a;" horiz-adv-x="745" d="M368 814 C368 814 428 814 428 814 C428 814 428 874 428 874 C428 874 368 874 368 874 C368 874 368 814 368 814 L368 814 Z M682 200 C639 103 529 38 407 38 C241 38 131 193 131 375 C131 557 241 712 407 712 C516 712 626 647 682 550 C682 550 704 568 704 568 C704 568 726 586 726 586 C665 690 538 760 407 760 C205 760 71 583 71 375 C71 167 205 -10 407 -10 C551 -10 679 60 726 164 C726 164 682 200 682 200 L682 200 Z " />
<glyph glyph-name="cdotaccent" unicode="&#x10b;" horiz-adv-x="582" d="M283 584 C283 584 343 584 343 584 C343 584 343 644 343 644 C343 644 283 644 283 644 C283 644 283 584 283 584 L283 584 Z M505 152 C478 81 402 34 313 34 C198 34 122 104 122 260 C122 418 198 489 313 489 C403 489 465 434 505 351 C505 351 552 374 552 374 C506 467 430 530 313 530 C165 530 67 446 67 260 C67 74 165 -10 313 -10 C426 -10 522 46 552 129 C552 129 505 152 505 152 L505 152 Z " />
<glyph glyph-name="Ccaron" unicode="&#x10c;" horiz-adv-x="745" d="M398 853 C398 853 531 964 531 964 C531 964 576 964 576 964 C576 964 424 814 424 814 C424 814 373 814 373 814 C373 814 220 964 220 964 C220 964 266 964 266 964 C266 964 398 853 398 853 L398 853 Z M682 200 C639 103 529 38 407 38 C241 38 131 193 131 375 C131 557 241 712 407 712 C516 712 626 647 682 550 C682 550 704 568 704 568 C704 568 726 586 726 586 C665 690 538 760 407 760 C205 760 71 583 71 375 C71 167 205 -10 407 -10 C551 -10 679 60 726 164 C726 164 682 200 682 200 L682 200 Z " />
<glyph glyph-name="ccaron" unicode="&#x10d;" horiz-adv-x="582" d="M313 623 C313 623 446 734 446 734 C446 734 491 734 491 734 C491 734 338 584 338 584 C338 584 288 584 288 584 C288 584 135 734 135 734 C135 734 181 734 181 734 C181 734 313 623 313 623 L313 623 Z M505 152 C478 81 402 34 313 34 C198 34 122 104 122 260 C122 418 198 489 313 489 C403 489 465 434 505 351 C505 351 552 374 552 374 C506 467 430 530 313 530 C165 530 67 446 67 260 C67 74 165 -10 313 -10 C426 -10 522 46 552 129 C552 129 505 152 505 152 L505 152 Z " />
<glyph glyph-name="Dcaron" unicode="&#x10e;" horiz-adv-x="788" d="M390 853 C390 853 522 964 522 964 C522 964 568 964 568 964 C568 964 415 814 415 814 C415 814 364 814 364 814 C364 814 211 964 211 964 C211 964 257 964 257 964 C257 964 390 853 390 853 L390 853 Z M133 0 C133 0 161 0 161 0 C161 0 361 0 361 0 C614 0 734 121 734 375 C734 623 597 750 331 750 C331 750 161 750 161 750 C161 750 133 750 133 750 C133 750 105 750 105 750 C105 750 105 745 105 745 C105 745 105 5 105 5 C105 5 105 0 105 0 C105 0 133 0 133 0 L133 0 Z M161 46 C161 46 161 704 161 704 C161 704 334 704 334 704 C558 704 674 592 674 375 C674 152 572 46 357 46 C357 46 161 46 161 46 L161 46 Z " />
<glyph glyph-name="dcaron" unicode="&#x10f;" horiz-adv-x="598" d="M578 760 C578 760 564 610 564 610 C564 610 601 610 601 610 C601 610 632 760 632 760 C632 760 578 760 578 760 L578 760 Z M67 260 C67 98 154 -10 284 -10 C374 -10 444 42 478 128 C478 128 478 10 478 10 C478 10 478 0 478 0 C478 0 503 0 503 0 C503 0 528 0 528 0 C528 0 528 5 528 5 C528 5 528 10 528 10 C528 10 528 740 528 740 C528 740 528 750 528 750 C528 750 503 750 503 750 C503 750 478 750 478 750 C478 750 478 745 478 745 C478 745 478 740 478 740 C478 740 478 392 478 392 C444 478 374 530 284 530 C154 530 67 422 67 260 L67 260 Z M478 260 C478 124 408 34 302 34 C194 34 122 124 122 260 C122 396 194 486 302 486 C408 486 478 396 478 260 L478 260 Z " />
<glyph glyph-name="Dcroat" unicode="&#x110;" horiz-adv-x="788" d="M25 357 C25 357 105 357 105 357 C105 357 105 5 105 5 C105 5 105 0 105 0 C105 0 133 0 133 0 C133 0 161 0 161 0 C161 0 361 0 361 0 C614 0 734 121 734 375 C734 623 597 750 331 750 C331 750 161 750 161 750 C161 750 133 750 133 750 C133 750 105 750 105 750 C105 750 105 745 105 745 C105 745 105 393 105 393 C105 393 25 393 25 393 C25 393 25 357 25 357 L25 357 Z M161 46 C161 46 161 357 161 357 C161 357 390 357 390 357 C390 357 390 393 390 393 C390 393 161 393 161 393 C161 393 161 704 161 704 C161 704 334 704 334 704 C558 704 674 592 674 375 C674 152 572 46 357 46 C357 46 161 46 161 46 L161 46 Z " />
<glyph glyph-name="dcroat" unicode="&#x111;" horiz-adv-x="598" d="M284 622 C284 622 478 622 478 622 C478 622 478 392 478 392 C444 478 374 530 284 530 C154 530 67 422 67 260 C67 98 154 -10 284 -10 C374 -10 444 42 478 128 C478 128 478 10 478 10 C478 10 478 0 478 0 C478 0 503 0 503 0 C503 0 528 0 528 0 C528 0 528 5 528 5 C528 5 528 10 528 10 C528 10 528 622 528 622 C528 622 605 622 605 622 C605 622 605 658 605 658 C605 658 528 658 528 658 C528 658 528 740 528 740 C528 740 528 750 528 750 C528 750 503 750 503 750 C503 750 478 750 478 750 C478 750 478 745 478 745 C478 745 478 740 478 740 C478 740 478 658 478 658 C478 658 284 658 284 658 C284 658 284 622 284 622 L284 622 Z M478 260 C478 124 408 34 302 34 C194 34 122 124 122 260 C122 396 194 486 302 486 C408 486 478 396 478 260 L478 260 Z " />
<glyph glyph-name="Emacron" unicode="&#x112;" horiz-adv-x="610" d="M168 814 C168 814 483 814 483 814 C483 814 483 849 483 849 C483 849 168 849 168 849 C168 849 168 814 168 814 L168 814 Z M561 24 C561 24 561 48 561 48 C561 48 556 48 556 48 C556 48 161 48 161 48 C161 48 161 364 161 364 C161 364 521 364 521 364 C521 364 526 364 526 364 C526 364 526 387 526 387 C526 387 526 410 526 410 C526 410 521 410 521 410 C521 410 161 410 161 410 C161 410 161 702 161 702 C161 702 541 702 541 702 C541 702 546 702 546 702 C546 702 546 726 546 726 C546 726 546 750 546 750 C546 750 161 750 161 750 C161 750 160 750 160 750 C160 750 133 750 133 750 C133 750 105 750 105 750 C105 750 105 745 105 745 C105 745 105 5 105 5 C105 5 105 0 105 0 C105 0 133 0 133 0 C133 0 160 0 160 0 C160 0 161 0 161 0 C161 0 561 0 561 0 C561 0 561 24 561 24 L561 24 Z " />
<glyph glyph-name="emacron" unicode="&#x113;" horiz-adv-x="588" d="M159 584 C159 584 474 584 474 584 C474 584 474 619 474 619 C474 619 159 619 159 619 C159 619 159 584 159 584 L159 584 Z M509 149 C490 80 412 34 313 34 C200 34 125 101 122 250 C122 250 516 250 516 250 C516 250 566 250 566 250 C566 418 496 530 317 530 C167 530 67 446 67 260 C67 74 165 -10 313 -10 C438 -10 536 46 559 130 C559 130 509 149 509 149 L509 149 Z M515 287 C515 287 123 287 123 287 C131 426 207 489 317 489 C447 489 505 409 515 287 L515 287 Z " />
<glyph glyph-name="Ebreve" unicode="&#x114;" horiz-adv-x="610" d="M170 929 C170 854 232 804 325 804 C419 804 481 854 481 929 C481 929 444 929 444 929 C444 875 397 839 325 839 C254 839 207 875 207 929 C207 929 170 929 170 929 L170 929 Z M561 24 C561 24 561 48 561 48 C561 48 556 48 556 48 C556 48 161 48 161 48 C161 48 161 364 161 364 C161 364 521 364 521 364 C521 364 526 364 526 364 C526 364 526 387 526 387 C526 387 526 410 526 410 C526 410 521 410 521 410 C521 410 161 410 161 410 C161 410 161 702 161 702 C161 702 541 702 541 702 C541 702 546 702 546 702 C546 702 546 726 546 726 C546 726 546 750 546 750 C546 750 161 750 161 750 C161 750 160 750 160 750 C160 750 133 750 133 750 C133 750 105 750 105 750 C105 750 105 745 105 745 C105 745 105 5 105 5 C105 5 105 0 105 0 C105 0 133 0 133 0 C133 0 160 0 160 0 C160 0 161 0 161 0 C161 0 561 0 561 0 C561 0 561 24 561 24 L561 24 Z " />
<glyph glyph-name="ebreve" unicode="&#x115;" horiz-adv-x="588" d="M161 699 C161 624 223 574 317 574 C410 574 472 624 472 699 C472 699 435 699 435 699 C435 645 388 609 317 609 C245 609 198 645 198 699 C198 699 161 699 161 699 L161 699 Z M509 149 C490 80 412 34 313 34 C200 34 125 101 122 250 C122 250 516 250 516 250 C516 250 566 250 566 250 C566 418 496 530 317 530 C167 530 67 446 67 260 C67 74 165 -10 313 -10 C438 -10 536 46 559 130 C559 130 509 149 509 149 L509 149 Z M515 287 C515 287 123 287 123 287 C131 426 207 489 317 489 C447 489 505 409 515 287 L515 287 Z " />
<glyph glyph-name="Edotaccent" unicode="&#x116;" horiz-adv-x="610" d="M295 814 C295 814 355 814 355 814 C355 814 355 874 355 874 C355 874 295 874 295 874 C295 874 295 814 295 814 L295 814 Z M561 24 C561 24 561 48 561 48 C561 48 556 48 556 48 C556 48 161 48 161 48 C161 48 161 364 161 364 C161 364 521 364 521 364 C521 364 526 364 526 364 C526 364 526 387 526 387 C526 387 526 410 526 410 C526 410 521 410 521 410 C521 410 161 410 161 410 C161 410 161 702 161 702 C161 702 541 702 541 702 C541 702 546 702 546 702 C546 702 546 726 546 726 C546 726 546 750 546 750 C546 750 161 750 161 750 C161 750 160 750 160 750 C160 750 133 750 133 750 C133 750 105 750 105 750 C105 750 105 745 105 745 C105 745 105 5 105 5 C105 5 105 0 105 0 C105 0 133 0 133 0 C133 0 160 0 160 0 C160 0 161 0 161 0 C161 0 561 0 561 0 C561 0 561 24 561 24 L561 24 Z " />
<glyph glyph-name="edotaccent" unicode="&#x117;" horiz-adv-x="588" d="M287 584 C287 584 347 584 347 584 C347 584 347 644 347 644 C347 644 287 644 287 644 C287 644 287 584 287 584 L287 584 Z M509 149 C490 80 412 34 313 34 C200 34 125 101 122 250 C122 250 516 250 516 250 C516 250 566 250 566 250 C566 418 496 530 317 530 C167 530 67 446 67 260 C67 74 165 -10 313 -10 C438 -10 536 46 559 130 C559 130 509 149 509 149 L509 149 Z M515 287 C515 287 123 287 123 287 C131 426 207 489 317 489 C447 489 505 409 515 287 L515 287 Z " />
<glyph glyph-name="Eogonek" unicode="&#x118;" horiz-adv-x="610" d="M315 0 C286 -25 249 -68 249 -96 C249 -162 290 -206 350 -206 C383 -206 414 -194 430 -175 C430 -175 425 -146 425 -146 C411 -163 382 -174 353 -174 C307 -174 277 -141 277 -91 C277 -58 321 -11 340 0 C340 0 561 0 561 0 C561 0 561 24 561 24 C561 24 561 48 561 48 C561 48 556 48 556 48 C556 48 161 48 161 48 C161 48 161 364 161 364 C161 364 521 364 521 364 C521 364 526 364 526 364 C526 364 526 387 526 387 C526 387 526 410 526 410 C526 410 521 410 521 410 C521 410 161 410 161 410 C161 410 161 702 161 702 C161 702 541 702 541 702 C541 702 546 702 546 702 C546 702 546 726 546 726 C546 726 546 750 546 750 C546 750 161 750 161 750 C161 750 160 750 160 750 C160 750 133 750 133 750 C133 750 105 750 105 750 C105 750 105 745 105 745 C105 745 105 5 105 5 C105 5 105 0 105 0 C105 0 133 0 133 0 C133 0 160 0 160 0 C160 0 161 0 161 0 C161 0 315 0 315 0 L315 0 Z " />
<glyph glyph-name="eogonek" unicode="&#x119;" horiz-adv-x="588" d="M509 149 C490 80 412 34 313 34 C200 34 125 101 122 250 C122 250 516 250 516 250 C516 250 566 250 566 250 C566 418 496 530 317 530 C167 530 67 446 67 260 C67 74 165 -10 313 -10 C356 -10 397 -3 431 9 C407 -18 384 -53 384 -81 C384 -156 425 -206 486 -206 C518 -206 550 -194 566 -175 C566 -175 560 -146 560 -146 C546 -163 518 -174 489 -174 C443 -174 412 -135 412 -76 C412 -36 454 15 473 28 C517 53 547 88 559 130 C559 130 509 149 509 149 L509 149 Z M515 287 C515 287 123 287 123 287 C131 426 207 489 317 489 C447 489 505 409 515 287 L515 287 Z " />
<glyph glyph-name="Ecaron" unicode="&#x11a;" horiz-adv-x="610" d="M325 853 C325 853 458 964 458 964 C458 964 503 964 503 964 C503 964 351 814 351 814 C351 814 300 814 300 814 C300 814 147 964 147 964 C147 964 193 964 193 964 C193 964 325 853 325 853 L325 853 Z M561 24 C561 24 561 48 561 48 C561 48 556 48 556 48 C556 48 161 48 161 48 C161 48 161 364 161 364 C161 364 521 364 521 364 C521 364 526 364 526 364 C526 364 526 387 526 387 C526 387 526 410 526 410 C526 410 521 410 521 410 C521 410 161 410 161 410 C161 410 161 702 161 702 C161 702 541 702 541 702 C541 702 546 702 546 702 C546 702 546 726 546 726 C546 726 546 750 546 750 C546 750 161 750 161 750 C161 750 160 750 160 750 C160 750 133 750 133 750 C133 750 105 750 105 750 C105 750 105 745 105 745 C105 745 105 5 105 5 C105 5 105 0 105 0 C105 0 133 0 133 0 C133 0 160 0 160 0 C160 0 161 0 161 0 C161 0 561 0 561 0 C561 0 561 24 561 24 L561 24 Z " />
<glyph glyph-name="ecaron" unicode="&#x11b;" horiz-adv-x="588" d="M317 623 C317 623 449 734 449 734 C449 734 495 734 495 734 C495 734 342 584 342 584 C342 584 291 584 291 584 C291 584 138 734 138 734 C138 734 184 734 184 734 C184 734 317 623 317 623 L317 623 Z M509 149 C490 80 412 34 313 34 C200 34 125 101 122 250 C122 250 516 250 516 250 C516 250 566 250 566 250 C566 418 496 530 317 530 C167 530 67 446 67 260 C67 74 165 -10 313 -10 C438 -10 536 46 559 130 C559 130 509 149 509 149 L509 149 Z M515 287 C515 287 123 287 123 287 C131 426 207 489 317 489 C447 489 505 409 515 287 L515 287 Z " />
<glyph glyph-name="Gcircumflex" unicode="&#x11c;" horiz-adv-x="799" d="M442 925 C442 925 574 814 574 814 C574 814 620 814 620 814 C620 814 467 964 467 964 C467 964 416 964 416 964 C416 964 264 814 264 814 C264 814 309 814 309 814 C309 814 442 925 442 925 L442 925 Z M455 371 C455 371 697 371 697 371 C697 371 697 128 697 128 C634 74 540 38 442 38 C255 38 131 173 131 375 C131 577 255 712 442 712 C538 712 640 647 696 550 C696 550 739 586 739 586 C679 690 560 760 442 760 C219 760 71 606 71 375 C71 144 219 -10 442 -10 C562 -10 676 34 754 99 C754 99 754 419 754 419 C754 419 455 419 455 419 C455 419 455 371 455 371 L455 371 Z " />
<glyph glyph-name="Gbreve" unicode="&#x11e;" horiz-adv-x="799" d="M286 929 C286 854 348 804 442 804 C535 804 597 854 597 929 C597 929 560 929 560 929 C560 875 513 839 442 839 C370 839 323 875 323 929 C323 929 286 929 286 929 L286 929 Z M455 371 C455 371 697 371 697 371 C697 371 697 128 697 128 C634 74 540 38 442 38 C255 38 131 173 131 375 C131 577 255 712 442 712 C538 712 640 647 696 550 C696 550 739 586 739 586 C679 690 560 760 442 760 C219 760 71 606 71 375 C71 144 219 -10 442 -10 C562 -10 676 34 754 99 C754 99 754 419 754 419 C754 419 455 419 455 419 C455 419 455 371 455 371 L455 371 Z " />
<glyph glyph-name="gbreve" unicode="&#x11f;" horiz-adv-x="588" d="M137 699 C137 624 199 574 293 574 C386 574 448 624 448 699 C448 699 411 699 411 699 C411 645 364 609 293 609 C221 609 174 645 174 699 C174 699 137 699 137 699 L137 699 Z M67 -120 C67 -194 157 -223 292 -223 C455 -223 518 -144 518 -25 C518 -25 518 515 518 515 C518 515 518 520 518 520 C518 520 493 520 493 520 C493 520 468 520 468 520 C468 520 468 393 468 393 C435 478 367 530 279 530 C152 530 67 454 67 260 C67 73 152 0 279 0 C367 0 435 50 468 132 C468 132 468 -47 468 -47 C468 -127 418 -180 288 -180 C189 -180 124 -163 124 -120 C124 -120 67 -120 67 -120 L67 -120 Z M297 486 C400 486 468 396 468 260 C468 130 400 44 297 44 C192 44 122 104 122 260 C122 423 192 486 297 486 L297 486 Z " />
<glyph glyph-name="Gdotaccent" unicode="&#x120;" horiz-adv-x="799" d="M412 814 C412 814 472 814 472 814 C472 814 472 874 472 874 C472 874 412 874 412 874 C412 874 412 814 412 814 L412 814 Z M455 371 C455 371 697 371 697 371 C697 371 697 128 697 128 C634 74 540 38 442 38 C255 38 131 173 131 375 C131 577 255 712 442 712 C538 712 640 647 696 550 C696 550 739 586 739 586 C679 690 560 760 442 760 C219 760 71 606 71 375 C71 144 219 -10 442 -10 C562 -10 676 34 754 99 C754 99 754 419 754 419 C754 419 455 419 455 419 C455 419 455 371 455 371 L455 371 Z " />
<glyph glyph-name="gdotaccent" unicode="&#x121;" horiz-adv-x="588" d="M263 584 C263 584 323 584 323 584 C323 584 323 644 323 644 C323 644 263 644 263 644 C263 644 263 584 263 584 L263 584 Z M67 -120 C67 -194 157 -223 292 -223 C455 -223 518 -144 518 -25 C518 -25 518 515 518 515 C518 515 518 520 518 520 C518 520 493 520 493 520 C493 520 468 520 468 520 C468 520 468 393 468 393 C435 478 367 530 279 530 C152 530 67 454 67 260 C67 73 152 0 279 0 C367 0 435 50 468 132 C468 132 468 -47 468 -47 C468 -127 418 -180 288 -180 C189 -180 124 -163 124 -120 C124 -120 67 -120 67 -120 L67 -120 Z M297 486 C400 486 468 396 468 260 C468 130 400 44 297 44 C192 44 122 104 122 260 C122 423 192 486 297 486 L297 486 Z " />
<glyph glyph-name="Hcircumflex" unicode="&#x124;" horiz-adv-x="736" d="M378 925 C378 925 511 814 511 814 C511 814 556 814 556 814 C556 814 403 964 403 964 C403 964 353 964 353 964 C353 964 200 814 200 814 C200 814 246 814 246 814 C246 814 378 925 378 925 L378 925 Z M623 0 C623 0 651 0 651 0 C651 0 651 5 651 5 C651 5 651 745 651 745 C651 745 651 750 651 750 C651 750 623 750 623 750 C623 750 595 750 595 750 C595 750 595 745 595 745 C595 745 595 419 595 419 C595 419 161 419 161 419 C161 419 161 745 161 745 C161 745 161 750 161 750 C161 750 133 750 133 750 C133 750 105 750 105 750 C105 750 105 745 105 745 C105 745 105 5 105 5 C105 5 105 0 105 0 C105 0 133 0 133 0 C133 0 161 0 161 0 C161 0 161 5 161 5 C161 5 161 371 161 371 C161 371 595 371 595 371 C595 371 595 5 595 5 C595 5 595 0 595 0 C595 0 623 0 623 0 L623 0 Z " />
<glyph glyph-name="Itilde" unicode="&#x128;" horiz-adv-x="227" d="M24 814 C24 852 39 878 61 878 C104 878 117 804 170 804 C213 804 241 845 241 907 C241 907 204 907 204 907 C204 869 189 843 167 843 C124 843 111 917 58 917 C15 917 -13 876 -13 814 C-13 814 24 814 24 814 L24 814 Z M114 0 C114 0 142 0 142 0 C142 0 142 5 142 5 C142 5 142 745 142 745 C142 745 142 750 142 750 C142 750 114 750 114 750 C114 750 86 750 86 750 C86 750 86 745 86 745 C86 745 86 5 86 5 C86 5 86 0 86 0 C86 0 114 0 114 0 L114 0 Z " />
<glyph glyph-name="itilde" unicode="&#x129;" horiz-adv-x="165" d="M-20 584 C-20 622 -5 648 17 648 C60 648 73 574 126 574 C169 574 197 615 197 677 C197 677 160 677 160 677 C160 639 145 613 123 613 C80 613 67 687 14 687 C-29 687 -57 646 -57 584 C-57 584 -20 584 -20 584 L-20 584 Z M45 520 C45 520 45 515 45 515 C45 515 45 0 45 0 C45 0 95 0 95 0 C95 0 95 520 95 520 C95 520 70 520 70 520 C70 520 45 520 45 520 L45 520 Z " />
<glyph glyph-name="Imacron" unicode="&#x12a;" horiz-adv-x="227" d="M-43 814 C-43 814 272 814 272 814 C272 814 272 849 272 849 C272 849 -43 849 -43 849 C-43 849 -43 814 -43 814 L-43 814 Z M114 0 C114 0 142 0 142 0 C142 0 142 5 142 5 C142 5 142 745 142 745 C142 745 142 750 142 750 C142 750 114 750 114 750 C114 750 86 750 86 750 C86 750 86 745 86 745 C86 745 86 5 86 5 C86 5 86 0 86 0 C86 0 114 0 114 0 L114 0 Z " />
<glyph glyph-name="imacron" unicode="&#x12b;" horiz-adv-x="165" d="M-87 584 C-87 584 227 584 227 584 C227 584 227 619 227 619 C227 619 -87 619 -87 619 C-87 619 -87 584 -87 584 L-87 584 Z M70 0 C70 0 95 0 95 0 C95 0 95 5 95 5 C95 5 95 520 95 520 C95 520 70 520 70 520 C70 520 45 520 45 520 C45 520 45 515 45 515 C45 515 45 5 45 5 C45 5 45 0 45 0 C45 0 70 0 70 0 L70 0 Z " />
<glyph glyph-name="Ibreve" unicode="&#x12c;" horiz-adv-x="227" d="M-41 929 C-41 854 21 804 114 804 C208 804 270 854 270 929 C270 929 233 929 233 929 C233 875 185 839 114 839 C43 839 -4 875 -4 929 C-4 929 -41 929 -41 929 L-41 929 Z M114 0 C114 0 142 0 142 0 C142 0 142 5 142 5 C142 5 142 745 142 745 C142 745 142 750 142 750 C142 750 114 750 114 750 C114 750 86 750 86 750 C86 750 86 745 86 745 C86 745 86 5 86 5 C86 5 86 0 86 0 C86 0 114 0 114 0 L114 0 Z " />
<glyph glyph-name="ibreve" unicode="&#x12d;" horiz-adv-x="165" d="M-85 699 C-85 624 -23 574 70 574 C163 574 225 624 225 699 C225 699 188 699 188 699 C188 645 141 609 70 609 C-1 609 -48 645 -48 699 C-48 699 -85 699 -85 699 L-85 699 Z M70 0 C70 0 95 0 95 0 C95 0 95 5 95 5 C95 5 95 520 95 520 C95 520 70 520 70 520 C70 520 45 520 45 520 C45 520 45 515 45 515 C45 515 45 5 45 5 C45 5 45 0 45 0 C45 0 70 0 70 0 L70 0 Z " />
<glyph glyph-name="Idotaccent" unicode="&#x130;" horiz-adv-x="227" d="M84 814 C84 814 144 814 144 814 C144 814 144 874 144 874 C144 874 84 874 84 874 C84 874 84 814 84 814 L84 814 Z M114 0 C114 0 142 0 142 0 C142 0 142 5 142 5 C142 5 142 745 142 745 C142 745 142 750 142 750 C142 750 114 750 114 750 C114 750 86 750 86 750 C86 750 86 745 86 745 C86 745 86 5 86 5 C86 5 86 0 86 0 C86 0 114 0 114 0 L114 0 Z " />
<glyph glyph-name="dotlessi" unicode="&#x131;" horiz-adv-x="262" d="M142 0 C142 0 192 0 192 0 C192 0 192 520 192 520 C192 520 142 520 142 520 C142 520 142 0 142 0 L142 0 Z " />
<glyph glyph-name="Jcircumflex" unicode="&#x134;" horiz-adv-x="517" d="M405 925 C405 925 537 814 537 814 C537 814 583 814 583 814 C583 814 430 964 430 964 C430 964 380 964 380 964 C380 964 227 814 227 814 C227 814 272 814 272 814 C272 814 405 925 405 925 L405 925 Z M67 283 C67 283 67 221 67 221 C67 62 124 -10 250 -10 C371 -10 433 82 433 220 C433 220 433 745 433 745 C433 745 433 748 433 748 C433 748 433 750 433 750 C433 750 405 750 405 750 C405 750 377 750 377 750 C377 750 377 745 377 745 C377 745 377 220 377 220 C377 115 334 45 250 45 C162 45 123 105 123 237 C123 237 123 292 123 292 C123 292 67 283 67 283 L67 283 Z " />
<glyph glyph-name="Lacute" unicode="&#x139;" horiz-adv-x="521" d="M91 814 C91 814 137 814 137 814 C137 814 231 964 231 964 C231 964 166 964 166 964 C166 964 91 814 91 814 L91 814 Z M492 24 C492 24 492 48 492 48 C492 48 487 48 487 48 C487 48 142 48 142 48 C142 48 142 745 142 745 C142 745 142 750 142 750 C142 750 114 750 114 750 C114 750 86 750 86 750 C86 750 86 745 86 745 C86 745 86 5 86 5 C86 5 86 0 86 0 C86 0 114 0 114 0 C114 0 142 0 142 0 C142 0 492 0 492 0 C492 0 492 24 492 24 L492 24 Z " />
<glyph glyph-name="lacute" unicode="&#x13a;" horiz-adv-x="222" d="M92 782 C92 782 137 782 137 782 C137 782 231 932 231 932 C231 932 166 932 166 932 C166 932 92 782 92 782 L92 782 Z M127 0 C127 0 152 0 152 0 C152 0 152 5 152 5 C152 5 152 740 152 740 C152 740 152 750 152 750 C152 750 127 750 127 750 C127 750 102 750 102 750 C102 750 102 745 102 745 C102 745 102 5 102 5 C102 5 102 0 102 0 C102 0 127 0 127 0 L127 0 Z " />
<glyph glyph-name="Lcaron" unicode="&#x13d;" horiz-adv-x="521" d="M290 760 C290 760 276 610 276 610 C276 610 313 610 313 610 C313 610 344 760 344 760 C344 760 290 760 290 760 L290 760 Z M492 24 C492 24 492 48 492 48 C492 48 487 48 487 48 C487 48 142 48 142 48 C142 48 142 745 142 745 C142 745 142 750 142 750 C142 750 114 750 114 750 C114 750 86 750 86 750 C86 750 86 745 86 745 C86 745 86 5 86 5 C86 5 86 0 86 0 C86 0 114 0 114 0 C114 0 142 0 142 0 C142 0 492 0 492 0 C492 0 492 24 492 24 L492 24 Z " />
<glyph glyph-name="lcaron" unicode="&#x13e;" horiz-adv-x="222" d="M202 760 C202 760 188 610 188 610 C188 610 225 610 225 610 C225 610 256 760 256 760 C256 760 202 760 202 760 L202 760 Z M127 0 C127 0 152 0 152 0 C152 0 152 5 152 5 C152 5 152 740 152 740 C152 740 152 750 152 750 C152 750 127 750 127 750 C127 750 102 750 102 750 C102 750 102 745 102 745 C102 745 102 5 102 5 C102 5 102 0 102 0 C102 0 127 0 127 0 L127 0 Z " />
<glyph glyph-name="Lslash" unicode="&#x141;" horiz-adv-x="521" d="M6 305 C6 305 86 331 86 331 C86 331 86 5 86 5 C86 5 86 0 86 0 C86 0 114 0 114 0 C114 0 142 0 142 0 C142 0 492 0 492 0 C492 0 492 24 492 24 C492 24 492 48 492 48 C492 48 487 48 487 48 C487 48 142 48 142 48 C142 48 142 349 142 349 C142 349 317 405 317 405 C317 405 317 445 317 445 C317 445 142 389 142 389 C142 389 142 745 142 745 C142 745 142 750 142 750 C142 750 114 750 114 750 C114 750 86 750 86 750 C86 750 86 745 86 745 C86 745 86 371 86 371 C86 371 6 345 6 345 C6 345 6 305 6 305 L6 305 Z " />
<glyph glyph-name="lslash" unicode="&#x142;" horiz-adv-x="222" d="M22 305 C22 305 102 343 102 343 C102 343 102 5 102 5 C102 5 102 0 102 0 C102 0 127 0 127 0 C127 0 152 0 152 0 C152 0 152 5 152 5 C152 5 152 367 152 367 C152 367 232 405 232 405 C232 405 232 445 232 445 C232 445 152 407 152 407 C152 407 152 740 152 740 C152 740 152 750 152 750 C152 750 127 750 127 750 C127 750 102 750 102 750 C102 750 102 745 102 745 C102 745 102 383 102 383 C102 383 22 345 22 345 C22 345 22 305 22 305 L22 305 Z " />
<glyph glyph-name="Nacute" unicode="&#x143;" horiz-adv-x="707" d="M240 814 C240 814 286 814 286 814 C286 814 380 964 380 964 C380 964 315 964 315 964 C315 964 240 814 240 814 L240 814 Z M563 745 C563 745 563 72 563 72 C563 72 169 750 169 750 C169 750 163 750 163 750 C163 750 134 750 134 750 C134 750 104 750 104 750 C104 750 104 745 104 745 C104 745 104 5 104 5 C104 5 104 0 104 0 C104 0 134 0 134 0 C134 0 163 0 163 0 C164 0 164 1 163 3 C164 4 164 5 163 5 C163 5 163 649 163 649 C163 649 541 0 541 0 C541 0 563 0 563 0 C563 0 605 0 605 0 C605 0 622 0 622 0 C622 0 622 745 622 745 C622 745 622 750 622 750 C622 750 593 750 593 750 C593 750 563 750 563 750 C563 750 563 745 563 745 L563 745 Z " />
<glyph glyph-name="nacute" unicode="&#x144;" horiz-adv-x="558" d="M267 584 C267 584 313 584 313 584 C313 584 407 734 407 734 C407 734 342 734 342 734 C342 734 267 584 267 584 L267 584 Z M86 515 C86 515 87 515 87 515 C87 515 87 5 87 5 C87 5 86 5 86 5 C86 5 86 0 86 0 C86 0 87 0 87 0 C87 0 112 0 112 0 C112 0 137 0 137 0 C137 0 137 5 137 5 C137 5 137 348 137 348 C137 426 204 477 304 477 C388 477 443 422 443 315 C443 315 443 5 443 5 C443 5 443 0 443 0 C443 0 468 0 468 0 C468 0 493 0 493 0 C494 0 494 1 493 3 C494 4 494 5 493 5 C493 5 493 315 493 315 C493 454 426 525 325 525 C235 525 168 488 137 427 C137 427 137 510 137 510 C137 510 137 520 137 520 C137 520 112 520 112 520 C112 520 99 520 99 520 C99 520 87 520 87 520 C87 520 86 520 86 520 C86 520 86 515 86 515 L86 515 Z " />
<glyph glyph-name="Ncaron" unicode="&#x147;" horiz-adv-x="707" d="M363 853 C363 853 496 964 496 964 C496 964 541 964 541 964 C541 964 388 814 388 814 C388 814 338 814 338 814 C338 814 185 964 185 964 C185 964 231 964 231 964 C231 964 363 853 363 853 L363 853 Z M563 745 C563 745 563 72 563 72 C563 72 169 750 169 750 C169 750 163 750 163 750 C163 750 134 750 134 750 C134 750 104 750 104 750 C104 750 104 745 104 745 C104 745 104 5 104 5 C104 5 104 0 104 0 C104 0 134 0 134 0 C134 0 163 0 163 0 C164 0 164 1 163 3 C164 4 164 5 163 5 C163 5 163 649 163 649 C163 649 541 0 541 0 C541 0 563 0 563 0 C563 0 605 0 605 0 C605 0 622 0 622 0 C622 0 622 745 622 745 C622 745 622 750 622 750 C622 750 593 750 593 750 C593 750 563 750 563 750 C563 750 563 745 563 745 L563 745 Z " />
<glyph glyph-name="ncaron" unicode="&#x148;" horiz-adv-x="558" d="M290 623 C290 623 422 734 422 734 C422 734 468 734 468 734 C468 734 315 584 315 584 C315 584 265 584 265 584 C265 584 112 734 112 734 C112 734 158 734 158 734 C158 734 290 623 290 623 L290 623 Z M86 515 C86 515 87 515 87 515 C87 515 87 5 87 5 C87 5 86 5 86 5 C86 5 86 0 86 0 C86 0 87 0 87 0 C87 0 112 0 112 0 C112 0 137 0 137 0 C137 0 137 5 137 5 C137 5 137 348 137 348 C137 426 204 477 304 477 C388 477 443 422 443 315 C443 315 443 5 443 5 C443 5 443 0 443 0 C443 0 468 0 468 0 C468 0 493 0 493 0 C494 0 494 1 493 3 C494 4 494 5 493 5 C493 5 493 315 493 315 C493 454 426 525 325 525 C235 525 168 488 137 427 C137 427 137 510 137 510 C137 510 137 520 137 520 C137 520 112 520 112 520 C112 520 99 520 99 520 C99 520 87 520 87 520 C87 520 86 520 86 520 C86 520 86 515 86 515 L86 515 Z " />
<glyph glyph-name="Omacron" unicode="&#x14c;" horiz-adv-x="838" d="M273 814 C273 814 587 814 587 814 C587 814 587 849 587 849 C587 849 273 849 273 849 C273 849 273 814 273 814 L273 814 Z M430 38 C254 38 136 173 136 375 C136 567 262 712 430 712 C598 712 724 567 724 375 C724 173 606 38 430 38 L430 38 Z M76 375 C76 144 218 -10 430 -10 C642 -10 784 144 784 375 C784 594 632 760 430 760 C228 760 76 594 76 375 L76 375 Z " />
<glyph glyph-name="omacron" unicode="&#x14d;" horiz-adv-x="614" d="M159 584 C159 584 474 584 474 584 C474 584 474 619 474 619 C474 619 159 619 159 619 C159 619 159 584 159 584 L159 584 Z M316 29 C182 29 122 121 122 260 C122 419 200 491 316 491 C451 491 511 399 511 260 C511 101 433 29 316 29 L316 29 Z M67 260 C67 98 144 -10 316 -10 C465 -10 565 74 565 260 C565 422 488 530 316 530 C167 530 67 446 67 260 L67 260 Z " />
<glyph glyph-name="Obreve" unicode="&#x14e;" horiz-adv-x="838" d="M275 929 C275 854 337 804 430 804 C523 804 585 854 585 929 C585 929 548 929 548 929 C548 875 501 839 430 839 C359 839 311 875 311 929 C311 929 275 929 275 929 L275 929 Z M430 38 C254 38 136 173 136 375 C136 567 262 712 430 712 C598 712 724 567 724 375 C724 173 606 38 430 38 L430 38 Z M76 375 C76 144 218 -10 430 -10 C642 -10 784 144 784 375 C784 594 632 760 430 760 C228 760 76 594 76 375 L76 375 Z " />
<glyph glyph-name="obreve" unicode="&#x14f;" horiz-adv-x="614" d="M161 699 C161 624 223 574 316 574 C410 574 472 624 472 699 C472 699 435 699 435 699 C435 645 387 609 316 609 C245 609 198 645 198 699 C198 699 161 699 161 699 L161 699 Z M316 29 C182 29 122 121 122 260 C122 419 200 491 316 491 C451 491 511 399 511 260 C511 101 433 29 316 29 L316 29 Z M67 260 C67 98 144 -10 316 -10 C465 -10 565 74 565 260 C565 422 488 530 316 530 C167 530 67 446 67 260 L67 260 Z " />
<glyph glyph-name="Racute" unicode="&#x154;" horiz-adv-x="648" d="M337 814 C337 814 382 814 382 814 C382 814 476 964 476 964 C476 964 411 964 411 964 C411 964 337 814 337 814 L337 814 Z M595 0 C595 0 627 0 627 0 C627 0 462 337 462 337 C562 350 614 414 614 525 C614 674 549 750 423 750 C423 750 161 750 161 750 C161 750 133 750 133 750 C133 750 119 750 119 750 C119 750 105 750 105 750 C105 750 105 745 105 745 C105 745 105 5 105 5 C105 5 105 0 105 0 C105 0 133 0 133 0 C133 0 161 0 161 0 C161 0 161 5 161 5 C161 5 161 335 161 335 C161 335 399 335 399 335 C399 335 563 0 563 0 C563 0 595 0 595 0 L595 0 Z M161 380 C161 380 161 704 161 704 C161 704 421 704 421 704 C511 704 558 643 558 525 C558 429 513 380 425 380 C425 380 161 380 161 380 L161 380 Z " />
<glyph glyph-name="racute" unicode="&#x155;" horiz-adv-x="396" d="M208 584 C208 584 254 584 254 584 C254 584 348 734 348 734 C348 734 283 734 283 734 C283 734 208 584 208 584 L208 584 Z M86 515 C86 515 87 515 87 515 C87 515 87 5 87 5 C87 5 86 5 86 5 C86 5 86 0 86 0 C86 0 87 0 87 0 C87 0 112 0 112 0 C112 0 137 0 137 0 C137 0 137 5 137 5 C137 5 137 258 137 258 C137 381 199 463 360 463 C360 463 376 463 376 463 C376 463 376 520 376 520 C376 520 365 520 365 520 C239 520 168 467 137 379 C137 379 137 510 137 510 C137 510 137 520 137 520 C137 520 112 520 112 520 C112 520 99 520 99 520 C99 520 87 520 87 520 C87 520 86 520 86 520 C86 520 86 515 86 515 L86 515 Z " />
<glyph glyph-name="Rcaron" unicode="&#x158;" horiz-adv-x="648" d="M359 853 C359 853 492 964 492 964 C492 964 538 964 538 964 C538 964 385 814 385 814 C385 814 334 814 334 814 C334 814 181 964 181 964 C181 964 227 964 227 964 C227 964 359 853 359 853 L359 853 Z M595 0 C595 0 627 0 627 0 C627 0 462 337 462 337 C562 350 614 414 614 525 C614 674 549 750 423 750 C423 750 161 750 161 750 C161 750 133 750 133 750 C133 750 119 750 119 750 C119 750 105 750 105 750 C105 750 105 745 105 745 C105 745 105 5 105 5 C105 5 105 0 105 0 C105 0 133 0 133 0 C133 0 161 0 161 0 C161 0 161 5 161 5 C161 5 161 335 161 335 C161 335 399 335 399 335 C399 335 563 0 563 0 C563 0 595 0 595 0 L595 0 Z M161 380 C161 380 161 704 161 704 C161 704 421 704 421 704 C511 704 558 643 558 525 C558 429 513 380 425 380 C425 380 161 380 161 380 L161 380 Z " />
<glyph glyph-name="rcaron" unicode="&#x159;" horiz-adv-x="396" d="M231 623 C231 623 364 734 364 734 C364 734 409 734 409 734 C409 734 257 584 257 584 C257 584 206 584 206 584 C206 584 53 734 53 734 C53 734 99 734 99 734 C99 734 231 623 231 623 L231 623 Z M86 515 C86 515 87 515 87 515 C87 515 87 5 87 5 C87 5 86 5 86 5 C86 5 86 0 86 0 C86 0 87 0 87 0 C87 0 112 0 112 0 C112 0 137 0 137 0 C137 0 137 5 137 5 C137 5 137 258 137 258 C137 381 199 463 360 463 C360 463 376 463 376 463 C376 463 376 520 376 520 C376 520 365 520 365 520 C239 520 168 467 137 379 C137 379 137 510 137 510 C137 510 137 520 137 520 C137 520 112 520 112 520 C112 520 99 520 99 520 C99 520 87 520 87 520 C87 520 86 520 86 520 C86 520 86 515 86 515 L86 515 Z " />
<glyph glyph-name="Sacute" unicode="&#x15a;" horiz-adv-x="575" d="M255 814 C255 814 301 814 301 814 C301 814 395 964 395 964 C395 964 330 964 330 964 C330 964 255 814 255 814 L255 814 Z M499 623 C499 623 499 623 499 623 C499 623 499 623 499 623 C416 714 329 760 262 760 C138 760 56 675 56 547 C56 446 133 381 284 358 C417 337 485 286 485 208 C485 108 427 42 316 42 C233 42 152 98 102 206 C102 206 77 189 77 189 C77 189 77 189 77 189 C77 189 51 171 51 171 C107 52 208 -10 316 -10 C464 -10 541 78 541 209 C541 320 459 390 299 414 C176 433 113 481 113 554 C113 646 173 707 262 707 C313 707 386 664 462 580 C462 580 504 617 504 617 C502 619 501 621 499 623 C499 623 499 623 499 623 L499 623 Z " />
<glyph glyph-name="sacute" unicode="&#x15b;" horiz-adv-x="524" d="M256 584 C256 584 301 584 301 584 C301 584 395 734 395 734 C395 734 330 734 330 734 C330 734 256 584 256 584 L256 584 Z M461 372 C461 372 461 372 461 372 C461 372 483 382 483 382 C444 468 363 525 278 525 C156 525 74 467 74 379 C74 300 141 245 272 238 C385 232 444 192 444 137 C444 76 377 36 277 36 C191 36 116 83 89 154 C89 154 65 145 65 145 C65 145 65 145 65 145 C65 145 41 135 41 135 C73 51 168 -5 277 -5 C407 -5 494 53 494 141 C494 219 422 275 283 282 C177 288 122 328 122 383 C122 445 185 486 278 486 C342 486 406 437 439 363 C439 363 461 372 461 372 L461 372 Z " />
<glyph glyph-name="Scircumflex" unicode="&#x15c;" horiz-adv-x="575" d="M278 925 C278 925 410 814 410 814 C410 814 456 814 456 814 C456 814 303 964 303 964 C303 964 253 964 253 964 C253 964 100 814 100 814 C100 814 146 814 146 814 C146 814 278 925 278 925 L278 925 Z M499 623 C499 623 499 623 499 623 C499 623 499 623 499 623 C416 714 329 760 262 760 C138 760 56 675 56 547 C56 446 133 381 284 358 C417 337 485 286 485 208 C485 108 427 42 316 42 C233 42 152 98 102 206 C102 206 77 189 77 189 C77 189 77 189 77 189 C77 189 51 171 51 171 C107 52 208 -10 316 -10 C464 -10 541 78 541 209 C541 320 459 390 299 414 C176 433 113 481 113 554 C113 646 173 707 262 707 C313 707 386 664 462 580 C462 580 504 617 504 617 C502 619 501 621 499 623 C499 623 499 623 499 623 L499 623 Z " />
<glyph glyph-name="Scedilla" unicode="&#x15e;" horiz-adv-x="575" d="M295 -85 C295 -85 316 -10 316 -10 C464 -10 541 78 541 209 C541 320 459 390 299 414 C176 433 113 481 113 554 C113 646 173 707 262 707 C313 707 386 664 462 580 C462 580 504 617 504 617 C502 619 501 621 499 623 C499 623 499 623 499 623 C499 623 499 623 499 623 C416 714 329 760 262 760 C138 760 56 675 56 547 C56 446 133 381 284 358 C417 337 485 286 485 208 C485 108 427 42 316 42 C233 42 152 98 102 206 C102 206 77 189 77 189 C77 189 77 189 77 189 C77 189 51 171 51 171 C104 58 197 -3 298 -9 C298 -9 272 -103 272 -103 C272 -103 288 -112 288 -112 C288 -112 288 -111 288 -111 C292 -101 310 -96 335 -96 C364 -96 384 -116 384 -147 C384 -178 364 -198 334 -198 C306 -198 285 -185 282 -164 C282 -164 262 -181 262 -181 C265 -205 295 -222 335 -222 C382 -222 413 -192 413 -147 C413 -101 384 -71 340 -71 C320 -71 303 -76 295 -85 C295 -85 295 -85 295 -85 L295 -85 Z " />
<glyph glyph-name="scedilla" unicode="&#x15f;" horiz-adv-x="524" d="M257 -85 C257 -85 279 -5 279 -5 C408 -4 494 53 494 141 C494 219 422 275 283 282 C177 288 122 328 122 383 C122 445 185 486 278 486 C342 486 406 437 439 363 C439 363 461 372 461 372 C461 372 461 372 461 372 C461 372 483 382 483 382 C444 468 363 525 278 525 C156 525 74 467 74 379 C74 300 141 245 272 238 C385 232 444 192 444 137 C444 76 377 36 277 36 C191 36 116 83 89 154 C89 154 65 145 65 145 C65 145 65 145 65 145 C65 145 41 135 41 135 C71 55 158 1 260 -5 C260 -5 233 -103 233 -103 C233 -103 249 -112 249 -112 C249 -112 249 -111 249 -111 C253 -101 271 -96 296 -96 C325 -96 345 -116 345 -147 C345 -178 325 -198 295 -198 C267 -198 246 -185 243 -164 C243 -164 223 -181 223 -181 C226 -205 256 -222 296 -222 C343 -222 374 -192 374 -147 C374 -101 345 -71 300 -71 C281 -71 265 -76 257 -85 C257 -85 257 -85 257 -85 L257 -85 Z " />
<glyph glyph-name="Scaron" unicode="&#x160;" horiz-adv-x="575" d="M278 853 C278 853 410 964 410 964 C410 964 456 964 456 964 C456 964 303 814 303 814 C303 814 253 814 253 814 C253 814 100 964 100 964 C100 964 146 964 146 964 C146 964 278 853 278 853 L278 853 Z M499 623 C499 623 499 623 499 623 C499 623 499 623 499 623 C416 714 329 760 262 760 C138 760 56 675 56 547 C56 446 133 381 284 358 C417 337 485 286 485 208 C485 108 427 42 316 42 C233 42 152 98 102 206 C102 206 77 189 77 189 C77 189 77 189 77 189 C77 189 51 171 51 171 C107 52 208 -10 316 -10 C464 -10 541 78 541 209 C541 320 459 390 299 414 C176 433 113 481 113 554 C113 646 173 707 262 707 C313 707 386 664 462 580 C462 580 504 617 504 617 C502 619 501 621 499 623 C499 623 499 623 499 623 L499 623 Z " />
<glyph glyph-name="scaron" unicode="&#x161;" horiz-adv-x="524" d="M278 623 C278 623 411 734 411 734 C411 734 456 734 456 734 C456 734 304 584 304 584 C304 584 253 584 253 584 C253 584 100 734 100 734 C100 734 146 734 146 734 C146 734 278 623 278 623 L278 623 Z M461 372 C461 372 461 372 461 372 C461 372 483 382 483 382 C444 468 363 525 278 525 C156 525 74 467 74 379 C74 300 141 245 272 238 C385 232 444 192 444 137 C444 76 377 36 277 36 C191 36 116 83 89 154 C89 154 65 145 65 145 C65 145 65 145 65 145 C65 145 41 135 41 135 C73 51 168 -5 277 -5 C407 -5 494 53 494 141 C494 219 422 275 283 282 C177 288 122 328 122 383 C122 445 185 486 278 486 C342 486 406 437 439 363 C439 363 461 372 461 372 L461 372 Z " />
<glyph glyph-name="Tcaron" unicode="&#x164;" horiz-adv-x="619" d="M310 853 C310 853 442 964 442 964 C442 964 488 964 488 964 C488 964 335 814 335 814 C335 814 285 814 285 814 C285 814 132 964 132 964 C132 964 178 964 178 964 C178 964 310 853 310 853 L310 853 Z M310 0 C310 0 338 0 338 0 C338 0 338 5 338 5 C338 5 338 702 338 702 C338 702 605 702 605 702 C605 702 610 702 610 702 C610 702 610 726 610 726 C610 726 610 750 610 750 C610 750 338 750 338 750 C338 750 282 750 282 750 C282 750 10 750 10 750 C10 750 10 726 10 726 C10 726 10 702 10 702 C10 702 15 702 15 702 C15 702 282 702 282 702 C282 702 282 5 282 5 C282 5 282 0 282 0 C282 0 310 0 310 0 L310 0 Z " />
<glyph glyph-name="tcaron" unicode="&#x165;" horiz-adv-x="369" d="M233 760 C233 760 220 610 220 610 C220 610 257 610 257 610 C257 610 288 760 288 760 C288 760 233 760 233 760 L233 760 Z M340 520 C340 520 183 520 183 520 C183 520 183 697 183 697 C183 697 133 655 133 655 C133 655 133 520 133 520 C133 520 10 520 10 520 C10 520 10 479 10 479 C10 479 133 479 133 479 C133 479 133 137 133 137 C133 34 137 0 237 0 C237 0 340 0 340 0 C340 0 340 44 340 44 C340 44 260 44 260 44 C186 44 183 67 183 137 C183 137 183 479 183 479 C183 479 340 479 340 479 C340 479 340 520 340 520 L340 520 Z " />
<glyph glyph-name="Utilde" unicode="&#x168;" horiz-adv-x="684" d="M261 804 C261 842 276 868 298 868 C341 868 355 794 408 794 C450 794 478 835 478 897 C478 897 441 897 441 897 C441 859 426 833 404 833 C361 833 348 907 295 907 C252 907 224 866 224 804 C224 804 261 804 261 804 L261 804 Z M98 745 C98 745 98 293 98 293 C98 93 184 -10 351 -10 C518 -10 604 93 604 292 C604 292 604 745 604 745 C605 745 605 746 604 748 C605 749 605 750 604 750 C604 750 575 750 575 750 C575 750 545 750 545 750 C545 750 545 745 545 745 C545 745 545 303 545 303 C545 133 479 45 351 45 C221 45 154 133 154 302 C154 302 154 745 154 745 C154 745 154 750 154 750 C154 750 126 750 126 750 C126 750 98 750 98 750 C98 750 98 745 98 745 L98 745 Z " />
<glyph glyph-name="utilde" unicode="&#x169;" horiz-adv-x="542" d="M187 584 C187 622 202 648 224 648 C267 648 281 574 334 574 C376 574 404 615 404 677 C404 677 367 677 367 677 C367 639 352 613 330 613 C287 613 274 687 221 687 C178 687 150 646 150 584 C150 584 187 584 187 584 L187 584 Z M81 515 C81 515 82 515 82 515 C82 515 82 172 82 172 C82 52 122 -10 266 -10 C341 -10 398 23 423 77 C423 77 423 10 423 10 C423 10 423 0 423 0 C423 0 448 0 448 0 C448 0 473 0 473 0 C473 0 473 5 473 5 C473 5 473 10 473 10 C473 10 473 520 473 520 C473 520 448 520 448 520 C448 520 423 520 423 520 C423 520 423 515 423 515 C423 515 423 144 423 144 C423 80 367 38 282 38 C165 38 132 83 132 172 C132 172 132 520 132 520 C132 520 107 520 107 520 C107 520 82 520 82 520 C82 520 81 520 81 520 C81 520 81 515 81 515 L81 515 Z " />
<glyph glyph-name="Umacron" unicode="&#x16a;" horiz-adv-x="684" d="M194 804 C194 804 509 804 509 804 C509 804 509 839 509 839 C509 839 194 839 194 839 C194 839 194 804 194 804 L194 804 Z M98 745 C98 745 98 293 98 293 C98 93 184 -10 351 -10 C518 -10 604 93 604 292 C604 292 604 745 604 745 C605 745 605 746 604 748 C605 749 605 750 604 750 C604 750 575 750 575 750 C575 750 545 750 545 750 C545 750 545 745 545 745 C545 745 545 303 545 303 C545 133 479 45 351 45 C221 45 154 133 154 302 C154 302 154 745 154 745 C154 745 154 750 154 750 C154 750 126 750 126 750 C126 750 98 750 98 750 C98 750 98 745 98 745 L98 745 Z " />
<glyph glyph-name="umacron" unicode="&#x16b;" horiz-adv-x="542" d="M120 584 C120 584 435 584 435 584 C435 584 435 619 435 619 C435 619 120 619 120 619 C120 619 120 584 120 584 L120 584 Z M81 515 C81 515 82 515 82 515 C82 515 82 172 82 172 C82 52 122 -10 266 -10 C341 -10 398 23 423 77 C423 77 423 10 423 10 C423 10 423 0 423 0 C423 0 448 0 448 0 C448 0 473 0 473 0 C473 0 473 5 473 5 C473 5 473 10 473 10 C473 10 473 520 473 520 C473 520 448 520 448 520 C448 520 423 520 423 520 C423 520 423 515 423 515 C423 515 423 144 423 144 C423 80 367 38 282 38 C165 38 132 83 132 172 C132 172 132 520 132 520 C132 520 107 520 107 520 C107 520 82 520 82 520 C82 520 81 520 81 520 C81 520 81 515 81 515 L81 515 Z " />
<glyph glyph-name="Ubreve" unicode="&#x16c;" horiz-adv-x="684" d="M196 919 C196 844 258 794 351 794 C445 794 507 844 507 919 C507 919 470 919 470 919 C470 865 423 829 351 829 C280 829 233 865 233 919 C233 919 196 919 196 919 L196 919 Z M98 745 C98 745 98 293 98 293 C98 93 184 -10 351 -10 C518 -10 604 93 604 292 C604 292 604 745 604 745 C605 745 605 746 604 748 C605 749 605 750 604 750 C604 750 575 750 575 750 C575 750 545 750 545 750 C545 750 545 745 545 745 C545 745 545 303 545 303 C545 133 479 45 351 45 C221 45 154 133 154 302 C154 302 154 745 154 745 C154 745 154 750 154 750 C154 750 126 750 126 750 C126 750 98 750 98 750 C98 750 98 745 98 745 L98 745 Z " />
<glyph glyph-name="ubreve" unicode="&#x16d;" horiz-adv-x="542" d="M122 699 C122 624 184 574 277 574 C371 574 433 624 433 699 C433 699 396 699 396 699 C396 645 348 609 277 609 C206 609 159 645 159 699 C159 699 122 699 122 699 L122 699 Z M81 515 C81 515 82 515 82 515 C82 515 82 172 82 172 C82 52 122 -10 266 -10 C341 -10 398 23 423 77 C423 77 423 10 423 10 C423 10 423 0 423 0 C423 0 448 0 448 0 C448 0 473 0 473 0 C473 0 473 5 473 5 C473 5 473 10 473 10 C473 10 473 520 473 520 C473 520 448 520 448 520 C448 520 423 520 423 520 C423 520 423 515 423 515 C423 515 423 144 423 144 C423 80 367 38 282 38 C165 38 132 83 132 172 C132 172 132 520 132 520 C132 520 107 520 107 520 C107 520 82 520 82 520 C82 520 81 520 81 520 C81 520 81 515 81 515 L81 515 Z " />
<glyph glyph-name="Uring" unicode="&#x16e;" horiz-adv-x="684" d="M351 827 C314 827 295 848 295 889 C295 928 316 951 351 951 C386 951 407 928 407 889 C407 848 388 827 351 827 L351 827 Z M270 889 C270 833 298 804 351 804 C405 804 432 833 432 889 C432 943 402 974 351 974 C300 974 270 943 270 889 L270 889 Z M98 745 C98 745 98 293 98 293 C98 93 184 -10 351 -10 C518 -10 604 93 604 292 C604 292 604 745 604 745 C605 745 605 746 604 748 C605 749 605 750 604 750 C604 750 575 750 575 750 C575 750 545 750 545 750 C545 750 545 745 545 745 C545 745 545 303 545 303 C545 133 479 45 351 45 C221 45 154 133 154 302 C154 302 154 745 154 745 C154 745 154 750 154 750 C154 750 126 750 126 750 C126 750 98 750 98 750 C98 750 98 745 98 745 L98 745 Z " />
<glyph glyph-name="uring" unicode="&#x16f;" horiz-adv-x="542" d="M277 607 C240 607 221 628 221 669 C221 708 242 731 277 731 C312 731 333 708 333 669 C333 628 314 607 277 607 L277 607 Z M196 669 C196 613 224 584 277 584 C331 584 358 613 358 669 C358 723 328 754 277 754 C226 754 196 723 196 669 L196 669 Z M81 515 C81 515 82 515 82 515 C82 515 82 172 82 172 C82 52 122 -10 266 -10 C341 -10 398 23 423 77 C423 77 423 10 423 10 C423 10 423 0 423 0 C423 0 448 0 448 0 C448 0 473 0 473 0 C473 0 473 5 473 5 C473 5 473 10 473 10 C473 10 473 520 473 520 C473 520 448 520 448 520 C448 520 423 520 423 520 C423 520 423 515 423 515 C423 515 423 144 423 144 C423 80 367 38 282 38 C165 38 132 83 132 172 C132 172 132 520 132 520 C132 520 107 520 107 520 C107 520 82 520 82 520 C82 520 81 520 81 520 C81 520 81 515 81 515 L81 515 Z " />
<glyph glyph-name="Wcircumflex" unicode="&#x174;" horiz-adv-x="770" d="M396 925 C396 925 528 814 528 814 C528 814 574 814 574 814 C574 814 421 964 421 964 C421 964 371 964 371 964 C371 964 218 814 218 814 C218 814 263 814 263 814 C263 814 396 925 396 925 L396 925 Z M760 745 C760 745 760 745 760 745 C760 745 760 745 760 745 C760 745 761 750 761 750 C761 750 729 750 729 750 C729 750 697 750 697 750 C697 750 567 119 567 119 C567 119 422 744 422 744 C422 744 424 750 424 750 C424 750 421 750 421 750 C421 750 367 750 367 750 C367 750 223 121 223 121 C223 121 91 750 91 750 C91 750 61 750 61 750 C61 750 31 750 31 750 C31 750 31 750 31 749 C31 749 32 745 32 745 C32 745 32 745 32 745 C32 745 32 745 32 745 C32 745 194 0 194 0 C194 0 195 0 195 0 C195 0 248 0 248 0 C248 0 395 628 395 628 C395 628 542 0 542 0 C542 0 543 0 543 0 C543 0 595 0 595 0 C595 0 760 745 760 745 L760 745 Z " />
<glyph glyph-name="Ycircumflex" unicode="&#x176;" horiz-adv-x="635" d="M330 925 C330 925 462 814 462 814 C462 814 508 814 508 814 C508 814 355 964 355 964 C355 964 305 964 305 964 C305 964 152 814 152 814 C152 814 197 814 197 814 C197 814 330 925 330 925 L330 925 Z M560 745 C560 745 561 745 561 745 C561 745 328 376 328 376 C328 376 93 750 93 750 C93 750 64 750 64 750 C64 750 34 750 34 750 C34 750 302 330 302 330 C302 330 302 5 302 5 C302 5 302 0 302 0 C302 0 329 0 329 0 C329 0 357 0 357 0 C358 0 358 1 357 3 C358 4 358 5 357 5 C357 5 357 329 357 329 C357 329 622 745 622 745 C622 745 622 745 622 745 C622 745 626 750 625 750 C625 750 594 750 594 750 C594 750 564 750 564 750 C564 750 563 750 563 750 C563 749 560 745 560 745 C560 745 560 745 560 745 L560 745 Z " />
<glyph glyph-name="Ydieresis" unicode="&#x178;" horiz-adv-x="635" d="M370 814 C370 814 430 814 430 814 C430 814 430 874 430 874 C430 874 370 874 370 874 C370 874 370 814 370 814 L370 814 Z M230 814 C230 814 290 814 290 814 C290 814 290 874 290 874 C290 874 230 874 230 874 C230 874 230 814 230 814 L230 814 Z M560 745 C560 745 561 745 561 745 C561 745 328 376 328 376 C328 376 93 750 93 750 C93 750 64 750 64 750 C64 750 34 750 34 750 C34 750 302 330 302 330 C302 330 302 5 302 5 C302 5 302 0 302 0 C302 0 329 0 329 0 C329 0 357 0 357 0 C358 0 358 1 357 3 C358 4 358 5 357 5 C357 5 357 329 357 329 C357 329 622 745 622 745 C622 745 622 745 622 745 C622 745 626 750 625 750 C625 750 594 750 594 750 C594 750 564 750 564 750 C564 750 563 750 563 750 C563 749 560 745 560 745 C560 745 560 745 560 745 L560 745 Z " />
<glyph glyph-name="Zacute" unicode="&#x179;" horiz-adv-x="679" d="M325 814 C325 814 370 814 370 814 C370 814 464 964 464 964 C464 964 399 964 399 964 C399 964 325 814 325 814 L325 814 Z M635 24 C635 24 635 48 635 48 C635 48 630 48 630 48 C630 48 112 48 112 48 C112 48 635 702 635 702 C635 702 635 750 635 750 C635 750 60 750 60 750 C60 750 60 726 60 726 C60 726 60 702 60 702 C60 702 65 702 65 702 C65 702 568 702 568 702 C568 702 45 48 45 48 C45 48 45 0 45 0 C45 0 635 0 635 0 C635 0 635 24 635 24 L635 24 Z " />
<glyph glyph-name="zacute" unicode="&#x17a;" horiz-adv-x="484" d="M232 584 C232 584 278 584 278 584 C278 584 372 734 372 734 C372 734 307 734 307 734 C307 734 232 584 232 584 L232 584 Z M45 520 C45 520 45 499 45 499 C45 499 45 479 45 479 C45 479 50 479 50 479 C50 479 384 479 384 479 C384 479 30 32 30 32 C30 32 30 0 30 0 C30 0 465 0 465 0 C465 0 465 21 465 21 C465 21 465 41 465 41 C465 42 464 42 462 41 C461 42 460 42 460 41 C460 41 91 41 91 41 C91 41 449 488 449 488 C449 488 449 520 449 520 C449 520 45 520 45 520 L45 520 Z " />
<glyph glyph-name="Zdotaccent" unicode="&#x17b;" horiz-adv-x="679" d="M317 814 C317 814 377 814 377 814 C377 814 377 874 377 874 C377 874 317 874 317 874 C317 874 317 814 317 814 L317 814 Z M635 24 C635 24 635 48 635 48 C635 48 630 48 630 48 C630 48 112 48 112 48 C112 48 635 702 635 702 C635 702 635 750 635 750 C635 750 60 750 60 750 C60 750 60 726 60 726 C60 726 60 702 60 702 C60 702 65 702 65 702 C65 702 568 702 568 702 C568 702 45 48 45 48 C45 48 45 0 45 0 C45 0 635 0 635 0 C635 0 635 24 635 24 L635 24 Z " />
<glyph glyph-name="zdotaccent" unicode="&#x17c;" horiz-adv-x="484" d="M225 584 C225 584 285 584 285 584 C285 584 285 644 285 644 C285 644 225 644 225 644 C225 644 225 584 225 584 L225 584 Z M45 520 C45 520 45 499 45 499 C45 499 45 479 45 479 C45 479 50 479 50 479 C50 479 384 479 384 479 C384 479 30 32 30 32 C30 32 30 0 30 0 C30 0 465 0 465 0 C465 0 465 21 465 21 C465 21 465 41 465 41 C465 42 464 42 462 41 C461 42 460 42 460 41 C460 41 91 41 91 41 C91 41 449 488 449 488 C449 488 449 520 449 520 C449 520 45 520 45 520 L45 520 Z " />
<glyph glyph-name="Zcaron" unicode="&#x17d;" horiz-adv-x="679" d="M347 853 C347 853 480 964 480 964 C480 964 526 964 526 964 C526 964 373 814 373 814 C373 814 322 814 322 814 C322 814 169 964 169 964 C169 964 215 964 215 964 C215 964 347 853 347 853 L347 853 Z M635 24 C635 24 635 48 635 48 C635 48 630 48 630 48 C630 48 112 48 112 48 C112 48 635 702 635 702 C635 702 635 750 635 750 C635 750 60 750 60 750 C60 750 60 726 60 726 C60 726 60 702 60 702 C60 702 65 702 65 702 C65 702 568 702 568 702 C568 702 45 48 45 48 C45 48 45 0 45 0 C45 0 635 0 635 0 C635 0 635 24 635 24 L635 24 Z " />
<glyph glyph-name="zcaron" unicode="&#x17e;" horiz-adv-x="484" d="M255 623 C255 623 387 734 387 734 C387 734 433 734 433 734 C433 734 280 584 280 584 C280 584 230 584 230 584 C230 584 77 734 77 734 C77 734 123 734 123 734 C123 734 255 623 255 623 L255 623 Z M45 520 C45 520 45 499 45 499 C45 499 45 479 45 479 C45 479 50 479 50 479 C50 479 384 479 384 479 C384 479 30 32 30 32 C30 32 30 0 30 0 C30 0 465 0 465 0 C465 0 465 21 465 21 C465 21 465 41 465 41 C465 42 464 42 462 41 C461 42 460 42 460 41 C460 41 91 41 91 41 C91 41 449 488 449 488 C449 488 449 520 449 520 C449 520 45 520 45 520 L45 520 Z " />
<glyph glyph-name="SmallLetterOwithogon" unicode="&#x1eb;" horiz-adv-x="771" d="M78 298 C78 113 206 -10 397 -10 C437 -10 474 -5 507 5 C507 5 658 -111 658 -111 C658 -111 689 -85 689 -85 C689 -85 552 22 552 22 C654 70 716 169 716 298 C716 474 579 607 397 607 C215 607 78 474 78 298 C78 298 78 298 78 298 L78 298 Z M463 39 C442 35 420 33 397 33 C237 33 131 139 131 298 C131 449 245 563 397 563 C549 563 663 449 663 298 C663 181 605 92 511 54 C511 54 446 105 446 105 C446 105 413 78 413 78 C413 78 463 39 463 39 L463 39 Z " />
<glyph glyph-name="CapitalLetterAwithdo" unicode="&#x226;" horiz-adv-x="748" d="M356 814 C356 814 416 814 416 814 C416 814 416 874 416 874 C416 874 356 874 356 874 C356 874 356 814 356 814 L356 814 Z M60 0 C60 0 92 0 92 0 C92 0 93 1 93 2 C93 2 94 4 94 4 C94 4 94 4 94 4 C94 4 185 216 185 216 C185 216 586 216 586 216 C586 216 678 0 678 0 C678 0 709 0 709 0 C709 0 739 0 739 0 C739 0 739 0 739 0 C738 1 737 5 737 5 C737 5 737 5 737 5 C737 5 415 750 415 750 C415 750 385 750 385 750 C385 750 357 750 357 750 C357 750 354 750 354 750 C354 750 30 5 30 5 C30 5 30 5 30 5 C30 5 28 0 28 0 C28 0 60 0 60 0 L60 0 Z M194 237 C194 237 386 682 386 682 C386 682 567 260 567 260 C567 260 204 260 204 260 C204 260 194 237 194 237 L194 237 Z " />
<glyph glyph-name="LETTERSMALLCAPITALG" unicode="&#x262;" horiz-adv-x="731" d="M427 308 C427 308 636 308 636 308 C636 308 636 125 636 125 C570 70 485 33 405 33 C237 33 126 139 126 298 C126 457 237 563 405 563 C484 563 575 497 632 399 C632 399 652 416 652 416 C652 416 652 415 652 415 C652 415 671 432 671 432 C610 537 504 607 405 607 C206 607 73 484 73 298 C73 113 206 -10 405 -10 C505 -10 608 34 687 100 C687 100 687 351 687 351 C687 351 427 351 427 351 C427 351 427 308 427 308 L427 308 Z " />
<glyph glyph-name="LETTERSMALLCAPITALI" unicode="&#x26a;" horiz-adv-x="224" d="M114 0 C114 0 139 0 139 0 C139 0 139 5 139 5 C139 5 139 592 139 592 C139 592 139 597 139 597 C139 597 114 597 114 597 C114 597 89 597 89 597 C89 597 89 592 89 592 C89 592 89 5 89 5 C89 5 89 0 89 0 C89 0 114 0 114 0 L114 0 Z " />
<glyph glyph-name="LETTERSMALLCAPITALN" unicode="&#x274;" horiz-adv-x="611" d="M473 592 C473 592 473 64 473 64 C473 64 159 594 159 594 C159 594 159 597 159 597 C159 597 157 597 157 597 C157 597 132 597 132 597 C132 597 106 597 106 597 C106 597 106 592 106 592 C106 592 106 5 106 5 C106 5 106 0 106 0 C106 0 132 0 132 0 C132 0 159 0 159 0 C159 0 159 5 159 5 C159 5 159 508 159 508 C159 508 460 0 460 0 C460 0 473 0 473 0 C473 0 511 0 511 0 C511 0 527 0 527 0 C527 0 527 592 527 592 C527 592 527 597 527 597 C527 597 500 597 500 597 C500 597 473 597 473 597 C473 597 473 592 473 592 L473 592 Z " />
<glyph glyph-name="LETTERSMALLCAPITALR" unicode="&#x280;" horiz-adv-x="581" d="M529 0 C529 0 558 0 558 0 C558 0 556 3 556 3 C556 4 555 5 555 5 C555 5 396 272 396 272 C495 281 546 330 546 418 C546 536 483 597 361 597 C361 597 157 597 157 597 C157 597 132 597 132 597 C132 597 119 597 119 597 C119 597 106 597 106 597 C106 597 106 592 106 592 C106 592 106 5 106 5 C106 5 106 0 106 0 C106 0 132 0 132 0 C132 0 157 0 157 0 C157 0 157 3 157 3 C157 3 157 5 157 5 C157 5 157 270 157 270 C157 270 340 270 340 270 C340 270 500 0 500 0 C500 0 529 0 529 0 L529 0 Z M157 312 C157 312 157 555 157 555 C157 555 359 555 359 555 C449 555 496 508 496 418 C496 348 451 312 363 312 C363 312 157 312 157 312 L157 312 Z " />
<glyph glyph-name="LETTERSMALLCAPITALY" unicode="&#x28f;" horiz-adv-x="567" d="M493 592 C492 592 492 592 492 592 C492 592 493 592 493 592 L493 592 Z M271 5 C271 5 271 0 271 0 C271 0 296 0 296 0 C296 0 321 0 321 0 C321 0 321 5 321 5 C321 5 321 328 321 328 C321 328 554 592 554 592 C554 592 554 592 554 592 C554 592 558 596 558 597 C558 597 527 597 527 597 C527 597 496 597 496 597 C496 597 295 367 295 367 C295 367 93 597 93 597 C93 597 64 597 64 597 C64 597 34 597 34 597 C34 597 34 597 34 597 C35 596 37 593 38 592 C38 592 271 330 271 330 C271 330 271 5 271 5 L271 5 Z " />
<glyph glyph-name="LETTERSMALLCAPITALB" unicode="&#x299;" horiz-adv-x="681" d="M452 337 C530 354 577 390 577 438 C577 553 506 597 323 597 C323 597 157 597 157 597 C157 597 132 597 132 597 C132 597 106 597 106 597 C106 597 106 592 106 592 C106 592 106 5 106 5 C106 5 106 0 106 0 C106 0 132 0 132 0 C132 0 157 0 157 0 C157 0 393 0 393 0 C575 0 646 49 646 174 C646 265 570 328 452 337 C452 337 452 337 452 337 L452 337 Z M157 348 C157 348 157 555 157 555 C157 555 325 555 325 555 C469 555 525 521 525 435 C525 383 445 348 325 348 C325 348 157 348 157 348 L157 348 Z M157 41 C157 41 157 308 157 308 C157 308 387 308 387 308 C510 308 592 257 592 179 C592 80 532 41 378 41 C378 41 157 41 157 41 L157 41 Z " />
<glyph glyph-name="LETTERSMALLCAPITALH" unicode="&#x29c;" horiz-adv-x="648" d="M156 592 C156 592 157 592 157 592 C156 591 156 592 156 592 L156 592 Z M538 0 C538 0 563 0 563 0 C563 0 563 5 563 5 C563 5 563 592 563 592 C563 592 563 597 563 597 C563 597 538 597 538 597 C538 597 513 597 513 597 C513 597 513 592 513 592 C513 592 513 325 513 325 C513 325 157 325 157 325 C157 325 157 592 157 592 C157 592 157 594 157 594 C157 594 157 597 157 597 C157 597 132 597 132 597 C132 597 106 597 106 597 C106 597 106 592 106 592 C106 592 106 5 106 5 C106 5 106 0 106 0 C106 0 132 0 132 0 C132 0 157 0 157 0 C157 0 157 3 157 3 C157 3 157 5 157 5 C157 5 157 281 157 281 C157 281 513 281 513 281 C513 281 513 5 513 5 C513 5 513 0 513 0 C513 0 538 0 538 0 L538 0 Z " />
<glyph glyph-name="LETTERSMALLCAPITALL" unicode="&#x29f;" horiz-adv-x="451" d="M422 22 C422 22 422 43 422 43 C422 44 421 44 419 43 C418 44 417 44 417 43 C417 43 139 43 139 43 C139 43 139 592 139 592 C139 592 139 597 139 597 C139 597 114 597 114 597 C114 597 89 597 89 597 C89 597 89 592 89 592 C89 592 89 5 89 5 C89 5 89 0 89 0 C89 0 114 0 114 0 C114 0 139 0 139 0 C139 0 422 0 422 0 C422 0 422 22 422 22 L422 22 Z " />
<glyph glyph-name="LETTERSMALLCAPITALA" unicode="&#x1d00;" horiz-adv-x="681" d="M58 0 C58 0 86 0 86 0 C86 0 86 1 87 2 C87 2 352 546 352 546 C352 546 518 207 518 207 C518 207 187 207 187 207 C187 207 168 168 168 168 C168 168 537 168 537 168 C537 168 619 0 619 0 C619 0 645 0 645 0 C645 0 672 0 672 0 C672 0 378 597 378 597 C378 597 377 597 377 597 C377 597 351 597 351 597 C351 597 327 597 327 597 C327 597 324 597 324 597 C324 597 32 4 32 4 C32 4 31 3 31 3 C31 3 31 2 31 2 C31 2 30 0 30 0 C30 0 58 0 58 0 L58 0 Z " />
<glyph glyph-name="LETTERSMALLCAPITALC" unicode="&#x1d04;" horiz-adv-x="678" d="M620 198 C576 99 477 33 373 33 C225 33 126 155 126 298 C126 441 225 563 373 563 C464 563 563 497 620 399 C620 399 639 415 639 415 C639 415 639 415 639 415 C639 415 659 432 659 432 C598 537 484 607 373 607 C193 607 73 465 73 298 C73 132 193 -10 373 -10 C498 -10 612 60 659 165 C659 165 620 198 620 198 L620 198 Z " />
<glyph glyph-name="LETTERSMALLCAPITALD" unicode="&#x1d05;" horiz-adv-x="721" d="M132 0 C132 0 157 0 157 0 C157 0 328 0 328 0 C557 0 666 96 666 298 C666 495 541 597 298 597 C298 597 157 597 157 597 C157 597 132 597 132 597 C132 597 106 597 106 597 C106 597 106 592 106 592 C106 592 106 5 106 5 C106 5 106 0 106 0 C106 0 132 0 132 0 L132 0 Z M157 41 C157 41 157 555 157 555 C157 555 300 555 300 555 C506 555 612 468 612 298 C612 124 519 41 324 41 C324 41 157 41 157 41 L157 41 Z " />
<glyph glyph-name="LETTERSMALLCAPITALE" unicode="&#x1d07;" horiz-adv-x="539" d="M489 22 C489 22 489 43 489 43 C489 44 488 44 487 43 C485 44 484 44 484 43 C484 43 157 43 157 43 C157 43 157 287 157 287 C157 287 449 287 449 287 C449 287 454 287 454 287 C454 287 454 308 454 308 C454 308 454 329 454 329 C454 329 452 329 452 329 C452 329 449 329 449 329 C449 329 157 329 157 329 C157 329 157 553 157 553 C157 553 469 553 469 553 C469 553 474 553 474 553 C474 553 474 575 474 575 C474 575 474 597 474 597 C474 597 157 597 157 597 C157 597 156 597 156 597 C156 597 132 597 132 597 C132 597 106 597 106 597 C106 597 106 592 106 592 C106 592 106 5 106 5 C106 5 106 0 106 0 C106 0 132 0 132 0 C132 0 156 0 156 0 C156 0 157 0 157 0 C157 0 489 0 489 0 C489 0 489 22 489 22 L489 22 Z " />
<glyph glyph-name="LETTERSMALLCAPITALJ" unicode="&#x1d0a;" horiz-adv-x="444" d="M68 283 C68 283 68 221 68 221 C68 62 113 -10 214 -10 C310 -10 360 64 360 175 C360 175 360 592 360 592 C359 591 359 592 359 592 C359 592 360 592 360 592 C360 592 360 594 360 594 C360 594 360 597 360 597 C360 597 334 597 334 597 C334 597 309 597 309 597 C309 597 309 592 309 592 C309 592 309 175 309 175 C309 93 277 39 214 39 C148 39 119 100 119 236 C119 236 119 292 119 292 C119 292 68 283 68 283 L68 283 Z " />
<glyph glyph-name="LETTERSMALLCAPITALK" unicode="&#x1d0b;" horiz-adv-x="558" d="M545 5 C545 5 545 5 545 5 C545 5 295 368 295 368 C295 368 498 592 498 592 C498 592 499 592 499 592 C500 593 503 595 503 597 C503 597 472 597 472 597 C472 597 440 597 440 597 C440 597 157 280 157 280 C157 280 157 592 157 592 C156 591 156 592 156 592 C156 592 157 592 157 592 C157 592 157 594 157 594 C157 594 157 597 157 597 C157 597 132 597 132 597 C132 597 106 597 106 597 C106 597 106 592 106 592 C106 592 106 5 106 5 C106 5 106 0 106 0 C106 0 132 0 132 0 C132 0 157 0 157 0 C157 0 157 3 157 3 C157 3 157 5 157 5 C157 5 157 217 157 217 C157 217 158 217 158 217 C158 217 285 356 285 356 C285 356 259 328 259 328 C259 328 487 5 487 5 C487 5 487 5 487 5 C488 4 491 0 491 0 C491 0 520 0 520 0 C520 0 548 0 548 0 C548 0 548 1 548 1 C547 1 547 2 547 3 C547 3 545 5 545 5 L545 5 Z M436 592 C436 592 436 592 436 592 C436 592 436 592 436 592 L436 592 Z " />
<glyph glyph-name="LETTERSMALLCAPITALM" unicode="&#x1d0d;" horiz-adv-x="787" d="M679 0 C679 0 703 0 703 0 C703 0 703 5 703 5 C703 5 703 592 703 592 C703 592 703 597 703 597 C703 597 679 597 679 597 C679 597 672 597 672 597 C672 597 655 597 655 597 C655 597 623 597 623 597 C623 597 404 58 404 58 C404 58 184 597 184 597 C184 597 157 597 157 597 C157 597 138 597 138 597 C138 597 132 597 132 597 C132 597 106 597 106 597 C106 597 106 592 106 592 C106 592 106 5 106 5 C106 5 106 0 106 0 C106 0 132 0 132 0 C132 0 157 0 157 0 C158 0 158 1 157 3 C158 4 158 5 157 5 C157 5 157 551 157 551 C157 551 382 4 382 4 C382 4 381 0 381 0 C381 0 384 0 384 0 C384 0 428 0 428 0 C428 0 655 555 655 555 C655 555 655 5 655 5 C655 5 655 0 655 0 C655 0 679 0 679 0 L679 0 Z " />
<glyph glyph-name="LETTERSMALLCAPITALO" unicode="&#x1d0f;" horiz-adv-x="771" d="M397 33 C237 33 131 139 131 298 C131 449 245 563 397 563 C549 563 663 449 663 298 C663 139 557 33 397 33 L397 33 Z M78 298 C78 113 206 -10 397 -10 C588 -10 716 113 716 298 C716 474 579 607 397 607 C215 607 78 474 78 298 L78 298 Z " />
<glyph glyph-name="LETTERSMALLCAPITALP" unicode="&#x1d18;" horiz-adv-x="581" d="M132 0 C132 0 157 0 157 0 C157 0 157 3 157 3 C157 3 157 5 157 5 C157 5 157 254 157 254 C157 254 361 254 361 254 C483 254 546 310 546 418 C546 536 483 597 361 597 C361 597 157 597 157 597 C157 597 132 597 132 597 C132 597 119 597 119 597 C119 597 106 597 106 597 C106 597 106 592 106 592 C106 592 106 5 106 5 C106 5 106 0 106 0 C106 0 132 0 132 0 L132 0 Z M157 296 C157 296 157 555 157 555 C157 555 359 555 359 555 C449 555 496 508 496 418 C496 337 451 296 363 296 C363 296 157 296 157 296 L157 296 Z " />
<glyph glyph-name="LETTERSMALLCAPITALT" unicode="&#x1d1b;" horiz-adv-x="552" d="M276 0 C276 0 301 0 301 0 C301 0 301 5 301 5 C301 5 301 553 301 553 C301 553 537 553 537 553 C537 553 542 553 542 553 C542 553 542 575 542 575 C542 575 542 597 542 597 C542 597 301 597 301 597 C301 597 251 597 251 597 C251 597 10 597 10 597 C10 597 10 575 10 575 C10 575 10 553 10 553 C10 553 15 553 15 553 C15 553 251 553 251 553 C251 553 251 5 251 5 C251 5 251 0 251 0 C251 0 276 0 276 0 L276 0 Z " />
<glyph glyph-name="LETTERSMALLCAPITALU" unicode="&#x1d1c;" horiz-adv-x="611" d="M149 592 C149 592 150 592 150 592 C149 591 149 592 149 592 L149 592 Z M99 592 C99 592 99 232 99 232 C99 72 173 -10 315 -10 C458 -10 531 72 531 232 C531 232 531 592 531 592 C532 591 532 592 531 594 C532 595 532 596 531 597 C531 597 505 597 505 597 C505 597 478 597 478 597 C478 597 478 592 478 592 C478 592 478 242 478 242 C478 108 423 39 315 39 C206 39 150 108 150 241 C150 241 150 592 150 592 C150 592 150 594 150 594 C150 594 150 597 150 597 C150 597 125 597 125 597 C125 597 99 597 99 597 C99 597 99 592 99 592 L99 592 Z " />
<glyph glyph-name="LETTERSMALLCAPITALV" unicode="&#x1d20;" horiz-adv-x="507" d="M495 592 C496 592 496 593 496 594 C497 595 497 596 497 597 C497 597 469 597 469 597 C469 597 440 597 440 597 C440 597 439 594 439 594 C439 593 438 593 438 592 C438 592 438 592 438 592 C438 592 264 70 264 70 C264 70 88 592 88 592 C88 592 88 592 88 592 C88 592 87 594 87 594 C87 594 87 594 87 594 C87 595 87 596 86 597 C86 597 59 597 59 597 C59 597 33 597 33 597 C32 596 33 595 33 594 C33 594 34 592 34 592 C34 592 35 592 35 592 C35 592 241 1 241 1 C241 1 241 0 241 0 C241 0 242 0 242 0 C242 0 288 0 288 0 C288 0 290 0 290 0 C290 0 495 592 495 592 L495 592 Z " />
<glyph glyph-name="LETTERSMALLCAPITALW" unicode="&#x1d21;" horiz-adv-x="697" d="M686 592 C686 592 686 592 686 592 C686 592 687 594 687 594 C687 594 687 597 687 597 C687 597 659 597 659 597 C659 597 630 597 630 597 C630 597 629 594 629 594 C629 594 629 594 629 594 C629 594 629 593 629 593 C629 593 514 97 514 97 C514 97 384 593 384 593 C384 593 385 597 385 597 C385 597 383 597 383 597 C383 597 334 597 334 597 C334 597 205 95 205 95 C205 95 87 592 87 592 C87 592 88 592 88 592 C88 592 87 594 87 594 C87 595 87 596 86 597 C86 597 59 597 59 597 C59 597 33 597 33 597 C32 596 32 595 33 594 C33 594 34 592 34 592 C34 592 34 592 34 592 C34 592 179 0 179 0 C179 0 180 0 180 0 C180 0 227 0 227 0 C227 0 359 500 359 500 C359 500 490 0 490 0 C490 0 491 0 491 0 C491 0 539 0 539 0 C539 0 686 592 686 592 L686 592 Z " />
<glyph glyph-name="LETTERSMALLCAPITALZ" unicode="&#x1d22;" horiz-adv-x="612" d="M567 22 C567 22 567 43 567 43 C567 44 566 44 565 43 C563 44 562 44 562 43 C562 43 102 43 102 43 C102 43 567 553 567 553 C567 553 567 597 567 597 C567 597 60 597 60 597 C60 597 60 575 60 575 C60 575 60 553 60 553 C60 553 65 553 65 553 C65 553 509 553 509 553 C509 553 45 43 45 43 C45 43 45 0 45 0 C45 0 567 0 567 0 C567 0 567 22 567 22 L567 22 Z " />
<glyph glyph-name="Wgrave" unicode="&#x1e80;" horiz-adv-x="770" d="M373 814 C373 814 419 814 419 814 C419 814 344 964 344 964 C344 964 279 964 279 964 C279 964 373 814 373 814 L373 814 Z M760 745 C760 745 760 745 760 745 C760 745 760 745 760 745 C760 745 761 750 761 750 C761 750 729 750 729 750 C729 750 697 750 697 750 C697 750 567 119 567 119 C567 119 422 744 422 744 C422 744 424 750 424 750 C424 750 421 750 421 750 C421 750 367 750 367 750 C367 750 223 121 223 121 C223 121 91 750 91 750 C91 750 61 750 61 750 C61 750 31 750 31 750 C31 750 31 750 31 749 C31 749 32 745 32 745 C32 745 32 745 32 745 C32 745 32 745 32 745 C32 745 194 0 194 0 C194 0 195 0 195 0 C195 0 248 0 248 0 C248 0 395 628 395 628 C395 628 542 0 542 0 C542 0 543 0 543 0 C543 0 595 0 595 0 C595 0 760 745 760 745 L760 745 Z " />
<glyph glyph-name="Wacute" unicode="&#x1e82;" horiz-adv-x="770" d="M373 814 C373 814 419 814 419 814 C419 814 513 964 513 964 C513 964 448 964 448 964 C448 964 373 814 373 814 L373 814 Z M760 745 C760 745 760 745 760 745 C760 745 760 745 760 745 C760 745 761 750 761 750 C761 750 729 750 729 750 C729 750 697 750 697 750 C697 750 567 119 567 119 C567 119 422 744 422 744 C422 744 424 750 424 750 C424 750 421 750 421 750 C421 750 367 750 367 750 C367 750 223 121 223 121 C223 121 91 750 91 750 C91 750 61 750 61 750 C61 750 31 750 31 750 C31 750 31 750 31 749 C31 749 32 745 32 745 C32 745 32 745 32 745 C32 745 32 745 32 745 C32 745 194 0 194 0 C194 0 195 0 195 0 C195 0 248 0 248 0 C248 0 395 628 395 628 C395 628 542 0 542 0 C542 0 543 0 543 0 C543 0 595 0 595 0 C595 0 760 745 760 745 L760 745 Z " />
<glyph glyph-name="Wdieresis" unicode="&#x1e84;" horiz-adv-x="770" d="M436 814 C436 814 496 814 496 814 C496 814 496 874 496 874 C496 874 436 874 436 874 C436 874 436 814 436 814 L436 814 Z M296 814 C296 814 356 814 356 814 C356 814 356 874 356 874 C356 874 296 874 296 874 C296 874 296 814 296 814 L296 814 Z M760 745 C760 745 760 745 760 745 C760 745 760 745 760 745 C760 745 761 750 761 750 C761 750 729 750 729 750 C729 750 697 750 697 750 C697 750 567 119 567 119 C567 119 422 744 422 744 C422 744 424 750 424 750 C424 750 421 750 421 750 C421 750 367 750 367 750 C367 750 223 121 223 121 C223 121 91 750 91 750 C91 750 61 750 61 750 C61 750 31 750 31 750 C31 750 31 750 31 749 C31 749 32 745 32 745 C32 745 32 745 32 745 C32 745 32 745 32 745 C32 745 194 0 194 0 C194 0 195 0 195 0 C195 0 248 0 248 0 C248 0 395 628 395 628 C395 628 542 0 542 0 C542 0 543 0 543 0 C543 0 595 0 595 0 C595 0 760 745 760 745 L760 745 Z " />
<glyph glyph-name="CapitalLetterEWITHTI" unicode="&#x1ebc;" horiz-adv-x="610" d="M235 814 C235 852 250 878 272 878 C315 878 329 804 382 804 C424 804 452 845 452 907 C452 907 415 907 415 907 C415 869 400 843 378 843 C335 843 322 917 269 917 C226 917 198 876 198 814 C198 814 235 814 235 814 L235 814 Z M561 24 C561 24 561 48 561 48 C561 48 556 48 556 48 C556 48 161 48 161 48 C161 48 161 364 161 364 C161 364 521 364 521 364 C521 364 526 364 526 364 C526 364 526 387 526 387 C526 387 526 410 526 410 C526 410 521 410 521 410 C521 410 161 410 161 410 C161 410 161 702 161 702 C161 702 541 702 541 702 C541 702 546 702 546 702 C546 702 546 726 546 726 C546 726 546 750 546 750 C546 750 161 750 161 750 C161 750 160 750 160 750 C160 750 133 750 133 750 C133 750 105 750 105 750 C105 750 105 745 105 745 C105 745 105 5 105 5 C105 5 105 0 105 0 C105 0 133 0 133 0 C133 0 160 0 160 0 C160 0 161 0 161 0 C161 0 561 0 561 0 C561 0 561 24 561 24 L561 24 Z " />
<glyph glyph-name="Ygrave" unicode="&#x1ef2;" horiz-adv-x="635" d="M307 814 C307 814 353 814 353 814 C353 814 278 964 278 964 C278 964 213 964 213 964 C213 964 307 814 307 814 L307 814 Z M560 745 C560 745 561 745 561 745 C561 745 328 376 328 376 C328 376 93 750 93 750 C93 750 64 750 64 750 C64 750 34 750 34 750 C34 750 302 330 302 330 C302 330 302 5 302 5 C302 5 302 0 302 0 C302 0 329 0 329 0 C329 0 357 0 357 0 C358 0 358 1 357 3 C358 4 358 5 357 5 C357 5 357 329 357 329 C357 329 622 745 622 745 C622 745 622 745 622 745 C622 745 626 750 625 750 C625 750 594 750 594 750 C594 750 564 750 564 750 C564 750 563 750 563 750 C563 749 560 745 560 745 C560 745 560 745 560 745 L560 745 Z " />
<glyph glyph-name="endash" unicode="&#x2013;" horiz-adv-x="434" d="M5 242 C5 242 430 242 430 242 C430 242 430 284 430 284 C430 284 5 284 5 284 C5 284 5 242 5 242 L5 242 Z " />
<glyph glyph-name="emdash" unicode="&#x2014;" horiz-adv-x="724" d="M50 242 C50 242 675 242 675 242 C675 242 675 284 675 284 C675 284 50 284 50 284 C50 284 50 242 50 242 L50 242 Z " />
<glyph glyph-name="quoteleft" unicode="&#x2018;" horiz-adv-x="160" d="M110 760 C67 760 50 726 50 674 C50 674 50 614 50 614 C50 614 110 614 110 614 C110 614 110 674 110 674 C110 674 83 674 83 674 C83 710 91 734 110 734 C110 734 110 760 110 760 L110 760 Z " />
<glyph glyph-name="quoteright" unicode="&#x2019;" horiz-adv-x="160" d="M80 760 C80 760 80 700 80 700 C80 700 107 700 107 700 C107 657 99 640 80 640 C80 640 80 614 80 614 C123 614 140 638 140 700 C140 700 140 760 140 760 C140 760 80 760 80 760 L80 760 Z " />
<glyph glyph-name="quotedblleft" unicode="&#x201c;" horiz-adv-x="280" d="M230 760 C187 760 170 726 170 674 C170 674 170 614 170 614 C170 614 230 614 230 614 C230 614 230 674 230 674 C230 674 203 674 203 674 C203 710 211 734 230 734 C230 734 230 760 230 760 L230 760 Z M140 760 C97 760 80 726 80 674 C80 674 80 614 80 614 C80 614 140 614 140 614 C140 614 140 674 140 674 C140 674 113 674 113 674 C113 710 121 734 140 734 C140 734 140 760 140 760 L140 760 Z " />
<glyph glyph-name="quotedblright" unicode="&#x201d;" horiz-adv-x="280" d="M170 760 C170 760 170 700 170 700 C170 700 197 700 197 700 C197 657 189 640 170 640 C170 640 170 614 170 614 C213 614 230 638 230 700 C230 700 230 760 230 760 C230 760 170 760 170 760 L170 760 Z M80 760 C80 760 80 700 80 700 C80 700 107 700 107 700 C107 657 99 640 80 640 C80 640 80 614 80 614 C123 614 140 638 140 700 C140 700 140 760 140 760 C140 760 80 760 80 760 L80 760 Z " />
<glyph glyph-name="dagger" unicode="&#x2020;" horiz-adv-x="510" d="M450 580 C450 580 280 580 280 580 C280 580 280 750 280 750 C280 750 230 750 230 750 C230 750 230 580 230 580 C230 580 60 580 60 580 C60 580 60 537 60 537 C60 537 230 537 230 537 C230 537 230 -62 230 -62 C230 -62 280 -62 280 -62 C280 -62 280 537 280 537 C280 537 450 537 450 537 C450 537 450 580 450 580 L450 580 Z " />
<glyph glyph-name="daggerdbl" unicode="&#x2021;" horiz-adv-x="510" d="M60 108 C60 108 230 108 230 108 C230 108 230 -62 230 -62 C230 -62 280 -62 280 -62 C280 -62 280 108 280 108 C280 108 450 108 450 108 C450 108 450 152 450 152 C450 152 280 152 280 152 C280 152 280 537 280 537 C280 537 450 537 450 537 C450 537 450 580 450 580 C450 580 280 580 280 580 C280 580 280 750 280 750 C280 750 230 750 230 750 C230 750 230 580 230 580 C230 580 60 580 60 580 C60 580 60 537 60 537 C60 537 230 537 230 537 C230 537 230 152 230 152 C230 152 60 152 60 152 C60 152 60 108 60 108 L60 108 Z " />
<glyph glyph-name="bullet" unicode="&#x2022;" horiz-adv-x="160" d="M43 230 C43 230 118 230 118 230 C118 230 118 305 118 305 C118 305 43 305 43 305 C43 305 43 230 43 230 L43 230 Z " />
<glyph glyph-name="ellipsis" unicode="&#x2026;" horiz-adv-x="430" d="M320 0 C320 0 380 0 380 0 C380 0 380 60 380 60 C380 60 320 60 320 60 C320 60 320 0 320 0 L320 0 Z M185 0 C185 0 245 0 245 0 C245 0 245 60 245 60 C245 60 185 60 185 60 C185 60 185 0 185 0 L185 0 Z M50 0 C50 0 110 0 110 0 C110 0 110 60 110 60 C110 60 50 60 50 60 C50 60 50 0 50 0 L50 0 Z " />
<glyph glyph-name="perthousand" unicode="&#x2030;" horiz-adv-x="782" d="M973 140 C973 67 939 18 873 18 C807 18 773 67 773 140 C773 213 807 262 873 262 C939 262 973 213 973 140 L973 140 Z M873 -10 C957 -10 1001 50 1001 140 C1001 230 957 290 873 290 C788 290 745 230 745 140 C745 50 788 -10 873 -10 L873 -10 Z M700 140 C700 67 666 18 600 18 C534 18 500 67 500 140 C500 213 534 262 600 262 C666 262 700 213 700 140 L700 140 Z M600 -10 C684 -10 728 50 728 140 C728 230 684 290 600 290 C515 290 471 230 471 140 C471 50 515 -10 600 -10 L600 -10 Z M82 610 C82 683 117 732 182 732 C249 732 282 683 282 610 C282 537 249 488 182 488 C117 488 82 537 82 610 L82 610 Z M182 760 C97 760 54 700 54 610 C54 520 97 460 182 460 C267 460 311 520 311 610 C311 700 267 760 182 760 L182 760 Z M171 0 C171 0 189 0 189 0 C189 0 611 750 611 750 C611 750 593 750 593 750 C593 750 171 0 171 0 L171 0 Z " />
<glyph glyph-name="guilsinglleft" unicode="&#x2039;" horiz-adv-x="282" d="M222 470 C222 470 64 260 64 260 C64 260 222 50 222 50 C222 50 265 50 265 50 C265 50 108 260 108 260 C108 260 265 470 265 470 C265 470 222 470 222 470 L222 470 Z " />
<glyph glyph-name="guilsinglright" unicode="&#x203a;" horiz-adv-x="282" d="M92 470 C92 470 250 260 250 260 C250 260 92 50 92 50 C92 50 136 50 136 50 C136 50 293 260 293 260 C293 260 136 470 136 470 C136 470 92 470 92 470 L92 470 Z " />
<glyph glyph-name="fraction" unicode="&#x2044;" horiz-adv-x="534" d="M60 0 C60 0 77 0 77 0 C77 0 475 750 475 750 C475 750 457 750 457 750 C457 750 60 0 60 0 L60 0 Z " />
<glyph glyph-name="Euro" unicode="&#x20ac;" horiz-adv-x="745" d="M17 317 C17 317 75 317 75 317 C97 135 224 -10 407 -10 C551 -10 679 60 726 164 C726 164 682 200 682 200 C639 103 529 38 407 38 C259 38 155 161 135 317 C135 317 458 317 458 317 C458 317 462 345 462 345 C462 345 132 345 132 345 C131 355 131 365 131 375 C131 385 131 395 132 405 C132 405 462 405 462 405 C462 405 466 433 466 433 C466 433 135 433 135 433 C155 589 259 712 407 712 C516 712 626 647 682 550 C682 550 726 586 726 586 C665 690 538 760 407 760 C224 760 97 615 75 433 C75 433 25 433 25 433 C25 433 21 405 21 405 C21 405 72 405 72 405 C71 395 71 385 71 375 C71 365 71 355 72 345 C72 345 21 345 21 345 C21 345 17 317 17 317 L17 317 Z " />
<glyph glyph-name="minus" unicode="&#x2212;" horiz-adv-x="639" d="M50 248 C50 248 590 248 590 248 C590 248 590 278 590 278 C590 278 50 278 50 278 C50 278 50 248 50 248 L50 248 Z " />
<glyph glyph-name="DIVISIONSLASH" unicode="&#x2215;" horiz-adv-x="414" d="M0 0 C0 0 17 0 17 0 C17 0 415 750 415 750 C415 750 397 750 397 750 C397 750 0 0 0 0 L0 0 Z " />
<glyph glyph-name="BULLETOPERATOR" unicode="&#x2219;" horiz-adv-x="160" d="M50 230 C50 230 110 230 110 230 C110 230 110 290 110 290 C110 290 50 290 50 290 C50 290 50 230 50 230 L50 230 Z " />
<glyph glyph-name="LETTERSMALLCAPITALF" unicode="&#xa730;" horiz-adv-x="504" d="M439 287 C439 287 444 287 444 287 C444 287 444 308 444 308 C444 308 444 329 444 329 C444 329 442 329 442 329 C442 329 439 329 439 329 C439 329 157 329 157 329 C157 329 157 553 157 553 C157 553 469 553 469 553 C469 553 474 553 474 553 C474 553 474 575 474 575 C474 575 474 597 474 597 C474 597 157 597 157 597 C157 597 156 597 156 597 C156 597 132 597 132 597 C132 597 106 597 106 597 C106 597 106 592 106 592 C106 592 106 5 106 5 C106 5 106 0 106 0 C106 0 132 0 132 0 C132 0 157 0 157 0 C157 0 157 3 157 3 C157 3 157 5 157 5 C157 5 157 287 157 287 C157 287 439 287 439 287 L439 287 Z " />
<glyph glyph-name="LETTERSMALLCAPITALS" unicode="&#xa731;" horiz-adv-x="502" d="M411 446 C411 446 430 463 430 463 C428 465 427 467 425 469 C425 469 425 469 425 469 C425 469 425 469 425 469 C342 560 271 607 229 607 C126 607 57 539 57 436 C57 351 122 298 248 282 C360 267 418 228 418 165 C418 88 370 36 277 36 C216 36 149 93 98 204 C98 204 75 188 75 188 C75 188 75 188 75 188 C75 188 53 172 53 172 C109 52 194 -10 277 -10 C403 -10 468 61 468 167 C468 258 398 314 261 332 C161 345 109 382 109 442 C109 512 157 559 229 559 C256 559 315 515 392 429 C392 429 411 446 411 446 L411 446 Z " />
<glyph glyph-name="[namenotfound]001" unicode="&#xf078;" horiz-adv-x="545" d="M469 592 C468 592 468 592 468 592 C468 592 297 357 297 357 C297 357 143 594 143 594 C143 594 143 594 143 594 C143 594 143 594 143 594 C143 594 141 597 141 597 C141 597 114 597 114 597 C114 597 87 597 87 597 C87 596 89 594 90 592 C90 592 269 318 269 318 C269 318 41 5 41 5 C41 5 40 5 40 5 C40 5 39 4 39 3 C39 3 39 2 38 2 C38 2 37 0 37 0 C37 0 67 0 67 0 C67 0 98 0 98 0 C98 0 101 4 102 5 C102 5 102 5 102 5 C102 5 298 274 298 274 C298 274 474 5 474 5 C474 5 473 5 473 5 C474 4 477 0 477 0 C477 0 504 0 504 0 C504 0 530 0 530 0 C530 0 530 1 529 3 C529 3 527 5 527 5 C527 5 527 5 527 5 C527 5 326 313 326 313 C326 313 529 592 529 592 C529 592 530 592 530 592 C530 592 534 596 533 597 C533 597 503 597 503 597 C503 597 472 597 472 597 C472 597 468 592 468 592 C468 592 469 592 469 592 L469 592 Z M468 592 C468 592 468 592 468 592 C468 592 468 592 468 592 C468 592 468 592 468 592 L468 592 Z " />
</font>
</svg>
