<?xml version="1.0" encoding="UTF-8"?>
<svg xmlns="http://www.w3.org/2000/svg" xmlns:xlink="http://www.w3.org/1999/xlink" version="1.2" >
<font id="Zisel Blur">
<font-face  font-family="Zisel" units-per-em="1024" ascent="975" descent="-358" font-style="normal" font-weight="400" font-stretch="normal" cap-height="750" x-height="520" underline-position="0" underline-thickness="0" />
<missing-glyph  horiz-adv-x="472" d="M27 14 Q24 16 15.5 25 Q7 34 7 41 L7 655 Q7 668 22 678.5 Q37 689 48 689 L375 689 Q392 689 407.5 674 Q423 659 423 642 L423 55 Q423 49 420.5 41 Q418 33 413 25.5 Q408 18 402 12.5 Q396 7 389 7 L41 7 Q40 7 34.5 9.5 Q29 12 27 14 Z M75 55 Q79 52 87 46.5 Q95 41 96 41 L328 41 Q335 41 344.5 46.5 Q354 52 362.5 60.5 Q371 69 376.5 78.5 Q382 88 382 96 L382 601 Q382 609 374 618.5 Q366 628 355 636 Q344 644 332.5 649.5 Q321 655 314 655 L109 655 Q101 655 89 649 Q77 643 66.5 634 Q56 625 48.5 614 Q41 603 41 594 L41 96 Q41 92 46 85.5 Q51 79 57 72.5 Q63 66 68.5 61 Q74 56 75 55 Z " />
<glyph glyph-name="null" d="" />
<glyph glyph-name="nonmarkingreturn" unicode="&#xd;" horiz-adv-x="256" d="" />
<glyph glyph-name="space" unicode="&#x20;" horiz-adv-x="281" d="" />
<glyph glyph-name="exclam" unicode="&#x21;" horiz-adv-x="251" d="M54 72 Q54 107 70 125.5 Q86 144 123 144 Q160 144 176 125.5 Q192 107 192 72 Q192 37 176 18 Q160 -1 123 -1 Q86 -1 70 18 Q54 37 54 72 Z M123 745 Q132 745 145 743.5 Q158 742 169.5 737.5 Q181 733 189.5 724.5 Q198 716 198 703 L198 437 Q198 421 194 389 Q190 357 181 325 Q172 293 158 269 Q144 245 123 245 Q102 245 87.5 269 Q73 293 64 324.5 Q55 356 51.5 386.5 Q48 417 48 430 L48 703 Q48 716 56 724.5 Q64 733 76 737.5 Q88 742 101 743.5 Q114 745 123 745 Z " />
<glyph glyph-name="quotedbl" unicode="&#x22;" horiz-adv-x="539" d="M81 653 Q81 670 83 687 Q85 704 92 716.5 Q99 729 112 736.5 Q125 744 147 744 Q173 744 187.5 731.5 Q202 719 212 696 Q212 692 212 676 Q212 660 212 655 Q212 640 210.5 611.5 Q209 583 202.5 554.5 Q196 526 183 504.5 Q170 483 146 483 Q122 483 108.5 503.5 Q95 524 89 551.5 Q83 579 82 607.5 Q81 636 81 653 Z M307 653 Q307 671 309 687.5 Q311 704 317.5 716.5 Q324 729 337 736.5 Q350 744 372 744 Q411 744 424 718.5 Q437 693 437 660 Q437 643 436 613.5 Q435 584 428.5 555 Q422 526 409 504.5 Q396 483 372 483 Q347 483 334 504 Q321 525 315 553 Q309 581 308 609.5 Q307 638 307 653 Z " />
<glyph glyph-name="numbersign" unicode="&#x23;" horiz-adv-x="772" d="M137 137 Q129 158 111 164 Q93 170 74 174 Q55 178 41 187 Q27 196 27 222 Q27 247 38 258 Q49 269 66 274.5 Q83 280 102.5 284 Q122 288 139 299.5 Q156 311 167 334 Q178 357 178 400 Q178 430 162 441 Q146 452 126.5 459 Q107 466 91 476 Q75 486 75 512 Q75 538 89.5 549.5 Q104 561 124 567 Q144 573 164.5 579 Q185 585 198 601 Q213 620 217 644.5 Q221 669 226 691.5 Q231 714 245 729.5 Q259 745 294 745 Q323 745 336.5 730 Q350 715 354.5 693 Q359 671 357.5 646 Q356 621 355 601 Q366 584 380 578.5 Q394 573 413 573 Q441 573 455.5 585.5 Q470 598 477.5 617.5 Q485 637 489.5 659 Q494 681 501.5 700 Q509 719 523.5 732 Q538 745 567 745 Q575 745 585.5 742 Q596 739 605.5 734 Q615 729 621.5 721.5 Q628 714 628 703 L628 608 Q628 586 645 579.5 Q662 573 682.5 568.5 Q703 564 720.5 554.5 Q738 545 738 518 Q738 495 726.5 485 Q715 475 698.5 470 Q682 465 662.5 460.5 Q643 456 626 444.5 Q609 433 598 410 Q587 387 587 344 Q587 315 603 303.5 Q619 292 638.5 283.5 Q658 275 674 264.5 Q690 254 690 229 Q690 203 675 192.5 Q660 182 639.5 176 Q619 170 598.5 164 Q578 158 567 143 Q553 125 549.5 100.5 Q546 76 540.5 53.5 Q535 31 522 15 Q509 -1 476 -1 Q467 -1 455.5 1.5 Q444 4 434 9 Q424 14 417 21.5 Q410 29 410 41 L410 137 Q410 146 403.5 152.5 Q397 159 388 163 Q379 167 369 169 Q359 171 353 171 Q324 171 309 158.5 Q294 146 286.5 127 Q279 108 274.5 85.5 Q270 63 262.5 44 Q255 25 240.5 12.5 Q226 0 198 0 Q170 0 156 13.5 Q142 27 137.5 48 Q133 69 134 93 Q135 117 137 137 Z M313 347 Q313 314 328 300 Q343 286 375 286 Q400 286 415 296 Q430 306 438 322 Q446 338 448.5 358.5 Q451 379 451 400 Q451 432 435.5 445 Q420 458 389 458 Q365 458 350 448.5 Q335 439 327 423.5 Q319 408 316 388.5 Q313 369 313 347 Z " />
<glyph glyph-name="dollar" unicode="&#x24;" horiz-adv-x="676" d="M54 135 Q54 162 69 179 Q84 196 106 206 Q128 216 153 220.5 Q178 225 198 225 Q210 235 214.5 245 Q219 255 219 269 Q219 292 205 309.5 Q191 327 170.5 343.5 Q150 360 126 377 Q102 394 81.5 417 Q61 440 47 471 Q33 502 33 545 Q33 588 47.5 617 Q62 646 85 668 Q108 690 137.5 709 Q167 728 198 751 Q206 757 212.5 766.5 Q219 776 225.5 785 Q232 794 240 800.5 Q248 807 259 807 Q268 807 276 803.5 Q284 800 291.5 795.5 Q299 791 307 787.5 Q315 784 324 784 Q333 784 340 787.5 Q347 791 353.5 795.5 Q360 800 367 803.5 Q374 807 383 807 Q386 807 402.5 795 Q419 783 441.5 764.5 Q464 746 490 724.5 Q516 703 537.5 684 Q559 665 573.5 651 Q588 637 588 634 Q588 604 576 589.5 Q564 575 545.5 568.5 Q527 562 505.5 560 Q484 558 466 553 Q448 548 435.5 537 Q423 526 423 502 Q423 475 438.5 457 Q454 439 476.5 423.5 Q499 408 526 391.5 Q553 375 576 351.5 Q599 328 614 293.5 Q629 259 629 208 Q629 164 618 135.5 Q607 107 589 87 Q571 67 547.5 52.5 Q524 38 498.5 22.5 Q473 7 448.5 -12.5 Q424 -32 403 -61 Q401 -62 394.5 -62 Q388 -62 386 -62 Q377 -62 369.5 -59 Q362 -56 354.5 -52 Q347 -48 340 -44.5 Q333 -41 324 -41 Q315 -41 307.5 -44 Q300 -47 292 -51.5 Q284 -56 276 -59 Q268 -62 259 -62 Q257 -62 241.5 -50 Q226 -38 203 -19 Q180 0 154 23.5 Q128 47 105.5 69 Q83 91 68.5 109 Q54 127 54 135 Z M321 260 Q318 260 312.5 259 Q307 258 307 253 L307 184 Q307 183 312.5 178 Q318 173 321 171 Q321 170 324 170 Q332 170 335.5 176.5 Q339 183 340.5 191 Q342 199 342 207 Q342 215 342 218 Q342 222 341.5 232.5 Q341 243 341 246 Q337 255 333 257.5 Q329 260 321 260 Z M429 205 Q429 194 433.5 185.5 Q438 177 451 177 Q463 177 467.5 185.5 Q472 194 472 204 Q472 215 466.5 223.5 Q461 232 447 232 Q435 232 432 222.5 Q429 213 429 205 Z M306 538 Q306 529 308 517 Q310 505 324 505 Q336 505 339 519 Q342 533 342 540 Q342 550 337.5 558.5 Q333 567 321 567 Q308 567 307 558 Q306 549 306 538 Z " />
<glyph glyph-name="percent" unicode="&#x25;" horiz-adv-x="843" d="M505 137 Q505 198 539.5 239 Q574 280 638 280 Q670 280 695 269 Q720 258 737 238.5 Q754 219 763 193 Q772 167 772 137 Q772 106 763 80 Q754 54 737 34.5 Q720 15 695 4 Q670 -7 638 -7 Q574 -7 539.5 34 Q505 75 505 137 Z M580 137 Q580 112 595.5 90 Q611 68 638 68 Q665 68 681 90 Q697 112 697 137 Q697 161 681 183 Q665 205 638 205 Q611 205 595.5 183 Q580 161 580 137 Z M61 608 Q61 637 71 663 Q81 689 99 709 Q117 729 142.5 740 Q168 751 198 751 Q228 751 253.5 740 Q279 729 297 709 Q315 689 325 663 Q335 637 335 608 Q335 577 325.5 551 Q316 525 299 505.5 Q282 486 257 475 Q232 464 202 464 Q138 464 99.5 503.5 Q61 543 61 608 Z M143 605 Q143 581 155.5 560 Q168 539 198 539 Q229 539 241 561 Q253 583 253 609 Q253 670 197 670 Q167 670 155 651.5 Q143 633 143 605 Z " />
<glyph glyph-name="ampersand" unicode="&#x26;" horiz-adv-x="729" d="M34 174 Q34 213 49 241.5 Q64 270 82 294.5 Q100 319 115 342.5 Q130 366 130 394 Q130 424 126 451.5 Q122 479 122 509 Q122 512 122 520 Q122 528 122.5 537.5 Q123 547 123 555 Q123 563 123 567 Q141 626 187.5 654.5 Q234 683 294 683 Q329 683 361.5 673.5 Q394 664 418.5 644.5 Q443 625 457.5 596 Q472 567 472 529 Q472 495 455.5 469.5 Q439 444 420 422.5 Q401 401 384.5 382 Q368 363 368 342 Q368 322 381.5 303.5 Q395 285 416 285 Q432 285 441.5 296 Q451 307 459 320 Q467 333 478 344 Q489 355 509 355 Q536 355 558.5 335.5 Q581 316 581 288 Q581 257 570 227.5 Q559 198 559 167 Q559 145 574 133.5 Q589 122 607 111.5 Q625 101 640 87.5 Q655 74 655 48 Q655 18 635.5 5.5 Q616 -7 591 -7 Q573 -7 556 -2.5 Q539 2 522.5 7.5 Q506 13 489 17.5 Q472 22 454 22 Q428 22 403.5 15 Q379 8 354.5 0.5 Q330 -7 304.5 -14 Q279 -21 253 -21 Q209 -21 169.5 -8 Q130 5 99.5 30 Q69 55 51.5 91 Q34 127 34 174 Z M170 212 Q170 171 199 146.5 Q228 122 267 122 Q286 122 300.5 130 Q315 138 315 160 Q315 176 305 192 Q295 208 282 222 Q269 236 255 247 Q241 258 232 266 Q231 266 225.5 266.5 Q220 267 218 267 Q196 267 183 250.5 Q170 234 170 212 Z M245 505 Q245 482 259.5 469 Q274 456 295 456 Q321 456 335 474.5 Q349 493 349 517 Q349 538 336 549.5 Q323 561 303 561 Q277 561 261 547 Q245 533 245 505 Z " />
<glyph glyph-name="quotesingle" unicode="&#x27;" horiz-adv-x="269" d="M81 653 Q81 670 83 687 Q85 704 92 716.5 Q99 729 112 736.5 Q125 744 147 744 Q173 744 187.5 731.5 Q202 719 212 696 Q212 692 212 676 Q212 660 212 655 Q212 640 210.5 611.5 Q209 583 202.5 554.5 Q196 526 183 504.5 Q170 483 146 483 Q122 483 108.5 503.5 Q95 524 89 551.5 Q83 579 82 607.5 Q81 636 81 653 Z " />
<glyph glyph-name="parenleft" unicode="&#x28;" horiz-adv-x="370" d="M102 335 Q102 459 141 565.5 Q180 672 273 758 Q275 758 281.5 758 Q288 758 290 758 Q307 758 311 754.5 Q315 751 315 734 Q315 714 305 695.5 Q295 677 281.5 659 Q268 641 254 623.5 Q240 606 232 587 Q204 525 194 461.5 Q184 398 184 331 Q184 226 214 133.5 Q244 41 314 -41 Q314 -43 314.5 -49.5 Q315 -56 315 -58 Q315 -71 310.5 -80 Q306 -89 291 -89 Q260 -89 234 -64.5 Q208 -40 187 -0.5 Q166 39 150 87.5 Q134 136 123.5 183 Q113 230 107.5 270.5 Q102 311 102 335 Z " />
<glyph glyph-name="parenright" unicode="&#x29;" horiz-adv-x="322" d="M47 -62 Q47 -43 57 -24.5 Q67 -6 80.5 11.5 Q94 29 108 46.5 Q122 64 130 82 Q158 145 168 207.5 Q178 270 178 338 Q178 396 172.5 450.5 Q167 505 143 560 Q136 576 120.5 598 Q105 620 88.5 644 Q72 668 59.5 691.5 Q47 715 47 734 Q47 741 48 746.5 Q49 752 55 758 Q57 758 63.5 758 Q70 758 72 758 Q103 758 129.5 734 Q156 710 178 672 Q200 634 216.5 587 Q233 540 244 493.5 Q255 447 261 406.5 Q267 366 267 342 Q267 320 261 279.5 Q255 239 244 191 Q233 143 216.5 93 Q200 43 178.5 2.5 Q157 -38 130 -63.5 Q103 -89 71 -89 Q58 -89 52.5 -81.5 Q47 -74 47 -62 Z " />
<glyph glyph-name="asterisk" unicode="&#x2a;" horiz-adv-x="424" d="M61 631 Q61 638 82 657.5 Q103 677 129.5 698 Q156 719 179.5 735 Q203 751 208 751 Q213 751 236.5 734.5 Q260 718 286.5 696.5 Q313 675 334.5 656 Q356 637 356 633 Q356 610 346.5 597.5 Q337 585 321 567 Q320 552 320 534 Q320 516 316.5 500.5 Q313 485 303 474.5 Q293 464 273 464 Q255 464 240.5 471.5 Q226 479 208 479 Q190 479 175.5 471.5 Q161 464 144 464 Q122 464 113.5 474.5 Q105 485 102.5 500.5 Q100 516 100 534 Q100 552 96 567 Q93 577 87 584.5 Q81 592 75.5 599 Q70 606 65.5 613.5 Q61 621 61 631 Z " />
<glyph glyph-name="plus" unicode="&#x2b;" horiz-adv-x="590" d="M33 256 Q33 261 36.5 268 Q40 275 45.5 281.5 Q51 288 57 292.5 Q63 297 68 297 L205 297 Q210 297 217.5 303 Q225 309 232 317.5 Q239 326 244 334.5 Q249 343 249 348 L249 471 Q249 477 254 483.5 Q259 490 266 495 Q273 500 280.5 503 Q288 506 293 506 Q310 506 324 490 Q338 474 338 457 L338 335 Q338 334 342 329 Q346 324 348 321 Q349 320 351.5 317 Q354 314 355 314 Q361 310 371.5 303.5 Q382 297 382 297 L512 297 Q528 297 537.5 283.5 Q547 270 547 257 Q547 243 539.5 229 Q532 215 512 215 L375 215 Q374 215 369.5 211.5 Q365 208 360.5 203.5 Q356 199 352.5 195.5 Q349 192 348 191 Q346 188 342 183 Q338 178 338 177 L338 55 Q338 35 322.5 20.5 Q307 6 289 6 Q285 6 278 9.5 Q271 13 264.5 18.5 Q258 24 253.5 30 Q249 36 249 41 L249 164 Q249 169 244 177.5 Q239 186 232 194.5 Q225 203 217.5 209 Q210 215 205 215 L75 215 Q62 215 47.5 229 Q33 243 33 256 Z " />
<glyph glyph-name="comma" unicode="&#x2c;" horiz-adv-x="249" d="M61 -96 Q61 -87 64.5 -79 Q68 -71 72 -63.5 Q76 -56 79.5 -48 Q83 -40 83 -30 Q83 -17 78 -5 Q73 7 67.5 19 Q62 31 57.5 43.5 Q53 56 53 72 Q53 76 53.5 90.5 Q54 105 55 109 Q64 131 83 137.5 Q102 144 123 144 Q145 144 165 135.5 Q185 127 191 102 Q191 99 191 89.5 Q191 80 191.5 70 Q192 60 192 50.5 Q192 41 192 38 Q192 14 189.5 -14 Q187 -42 177.5 -66.5 Q168 -91 149.5 -107.5 Q131 -124 98 -124 Q85 -124 73 -118 Q61 -112 61 -96 Z " />
<glyph glyph-name="hyphen" unicode="&#x2d;" horiz-adv-x="389" d="M53 259 Q53 279 67 296.5 Q81 314 102 314 L280 314 Q306 314 317.5 296.5 Q329 279 329 257 Q329 238 315 221.5 Q301 205 280 205 L102 205 Q81 205 67 222.5 Q53 240 53 259 Z " />
<glyph glyph-name="period" unicode="&#x2e;" horiz-adv-x="249" d="M123 144 Q160 144 176 125.5 Q192 107 192 72 Q192 37 176 18 Q160 -1 123 -1 Q116 -1 104.5 0.5 Q93 2 82 6 Q71 10 63 16.5 Q55 23 55 34 L55 109 Q55 120 63 127 Q71 134 82 137.5 Q93 141 104.5 142.5 Q116 144 123 144 Z " />
<glyph glyph-name="slash" unicode="&#x2f;" horiz-adv-x="339" d="M27 48 Q27 56 27.5 61.5 Q28 67 29.5 72.5 Q31 78 34 84.5 Q37 91 41 102 Q49 124 65.5 168 Q82 212 103 268 Q124 324 147 385.5 Q170 447 190.5 503 Q211 559 228 603.5 Q245 648 253 669 Q254 675 258 683 Q262 691 267.5 698.5 Q273 706 279.5 711.5 Q286 717 293 717 Q304 717 306 711.5 Q308 706 308 697 Q308 684 307 680.5 Q306 677 300 662 Q292 640 275.5 595 Q259 550 238 494 Q217 438 194 376.5 Q171 315 150 259.5 Q129 204 112.5 160 Q96 116 89 96 Q86 89 82 77.5 Q78 66 72.5 54.5 Q67 43 59 35 Q51 27 41 27 Q31 27 29 33 Q27 39 27 48 Z " />
<glyph glyph-name="zero" unicode="0" horiz-adv-x="724" d="M47 369 Q47 442 64.5 511 Q82 580 119.5 633.5 Q157 687 215 719 Q273 751 355 751 Q436 751 494.5 719 Q553 687 590 633.5 Q627 580 645 511 Q663 442 663 369 Q663 294 646 226 Q629 158 591.5 106 Q554 54 496 23.5 Q438 -7 355 -7 Q271 -7 212.5 23 Q154 53 117.5 105 Q81 157 64 225 Q47 293 47 369 Z M204 369 Q204 331 209 287.5 Q214 244 230 207.5 Q246 171 276 146.5 Q306 122 355 122 Q403 122 432.5 146.5 Q462 171 478.5 208 Q495 245 500.5 288 Q506 331 506 369 Q506 404 500.5 448 Q495 492 478.5 530.5 Q462 569 432.5 595.5 Q403 622 355 622 Q306 622 276 596 Q246 570 230 531.5 Q214 493 209 449 Q204 405 204 369 Z " />
<glyph glyph-name="one" unicode="1" horiz-adv-x="461" d="M172 479 Q158 479 147 472 Q136 465 126 457 Q116 449 105.5 442.5 Q95 436 81 436 Q75 436 65 437.5 Q55 439 55 451 L55 567 Q55 587 82 617.5 Q109 648 147 676 Q185 704 225 724 Q265 744 290 744 Q300 744 311 741 Q322 738 332 732 Q342 726 348.5 717 Q355 708 355 696 L355 48 Q355 35 348 25.5 Q341 16 330.5 10.5 Q320 5 307.5 2 Q295 -1 285 -1 Q277 -1 264 1 Q251 3 238.5 8 Q226 13 217 21 Q208 29 208 41 L208 444 Q208 458 196 468.5 Q184 479 172 479 Z " />
<glyph glyph-name="two" unicode="2" horiz-adv-x="629" d="M40 67 Q40 134 68 180.5 Q96 227 138 261 Q180 295 229 322.5 Q278 350 319.5 379.5 Q361 409 389 445 Q417 481 417 534 Q417 557 407 575 Q397 593 381 605 Q365 617 344.5 623 Q324 629 304 629 Q289 629 269.5 624 Q250 619 232.5 609.5 Q215 600 203 585.5 Q191 571 191 553 L191 464 Q191 451 180 440 Q169 429 153.5 420.5 Q138 412 122 407 Q106 402 95 402 Q73 402 60.5 416 Q48 430 42 450 Q36 470 35 492 Q34 514 34 529 Q34 585 56.5 626.5 Q79 668 116.5 696 Q154 724 202 737.5 Q250 751 300 751 Q351 751 399 736.5 Q447 722 484.5 693.5 Q522 665 544.5 622.5 Q567 580 567 525 Q567 471 545.5 429 Q524 387 491 355 Q458 323 420 298.5 Q382 274 349 253.5 Q316 233 294.5 215 Q273 197 273 177 Q273 162 285.5 151 Q298 140 314 140 L553 140 Q563 140 570 131 Q577 122 581 109.5 Q585 97 586.5 85 Q588 73 588 67 Q588 58 585 46 Q582 34 576 24 Q570 14 561 7 Q552 0 539 0 L82 0 Q67 0 58.5 7 Q50 14 46 24 Q42 34 41 46 Q40 58 40 67 Z " />
<glyph glyph-name="three" unicode="3" horiz-adv-x="624" d="M47 188 Q47 220 69.5 229.5 Q92 239 119 239 Q152 239 173 223 Q194 207 212.5 187.5 Q231 168 252.5 152 Q274 136 307 136 Q347 136 375 156 Q403 176 403 218 Q403 253 390 273.5 Q377 294 357 305.5 Q337 317 314 324 Q291 331 271 338.5 Q251 346 238 358 Q225 370 225 392 Q225 417 237.5 429.5 Q250 442 269.5 449 Q289 456 311 460.5 Q333 465 352 473.5 Q371 482 384 497.5 Q397 513 397 543 Q397 561 389 576 Q381 591 367.5 601 Q354 611 337.5 616.5 Q321 622 304 622 Q277 622 257.5 609 Q238 596 220 580.5 Q202 565 182.5 552 Q163 539 137 539 Q125 539 113 541 Q101 543 91 548 Q81 553 74.5 562.5 Q68 572 68 587 Q68 629 92 660 Q116 691 151 711.5 Q186 732 226.5 741.5 Q267 751 300 751 Q342 751 384.5 740 Q427 729 461.5 706 Q496 683 517.5 647.5 Q539 612 539 563 Q539 541 530.5 521.5 Q522 502 511.5 484 Q501 466 492 448 Q483 430 483 411 Q483 386 496.5 364 Q510 342 525.5 319 Q541 296 554 269.5 Q567 243 567 209 Q567 154 545.5 113.5 Q524 73 488.5 46 Q453 19 406.5 6 Q360 -7 311 -7 Q269 -7 223 4.5 Q177 16 138 40 Q99 64 73 100.5 Q47 137 47 188 Z " />
<glyph glyph-name="four" unicode="4" horiz-adv-x="619" d="M335 34 Q334 40 333.5 54.5 Q333 69 332 85.5 Q331 102 329.5 116.5 Q328 131 328 137 Q327 144 323 154 Q319 164 312.5 173 Q306 182 297.5 188.5 Q289 195 280 195 L68 195 Q55 195 46.5 203 Q38 211 33.5 222.5 Q29 234 28 246.5 Q27 259 27 268 Q27 305 40 329.5 Q53 354 75 382 Q84 393 102 416 Q120 439 143 468 Q166 497 191 529 Q216 561 239 590 Q262 619 280 642 Q298 665 307 676 Q320 690 331 702.5 Q342 715 354 724 Q366 733 380 738.5 Q394 744 413 744 Q424 744 436 740.5 Q448 737 458 730 Q468 723 474.5 712.5 Q481 702 481 689 L481 375 Q481 357 499 350 Q517 343 538 335 Q559 327 576.5 312 Q594 297 594 263 Q594 232 579.5 220 Q565 208 546.5 201.5 Q528 195 510 187.5 Q492 180 485 157 Q484 133 484 105.5 Q484 78 478 54 Q472 30 456 14.5 Q440 -1 408 -1 Q386 -1 364.5 5 Q343 11 335 34 Z M232 372 Q232 353 241.5 347 Q251 341 270 341 Q293 341 310.5 357.5 Q328 374 328 399 Q328 407 327 416 Q326 425 322.5 433 Q319 441 313.5 446 Q308 451 298 451 Q284 451 272 443.5 Q260 436 251 424 Q242 412 237 398 Q232 384 232 372 Z " />
<glyph glyph-name="five" unicode="5" horiz-adv-x="620" d="M47 188 Q47 204 53.5 214 Q60 224 70.5 230 Q81 236 94 237.5 Q107 239 119 239 Q152 239 173 223 Q194 207 213 187.5 Q232 168 253.5 152 Q275 136 309 136 Q352 136 381 166 Q410 196 410 239 Q410 289 380 322.5 Q350 356 301 356 Q285 356 271 351.5 Q257 347 244 341.5 Q231 336 217 331.5 Q203 327 187 327 Q167 327 145.5 330.5 Q124 334 107 343 Q90 352 79 367.5 Q68 383 68 407 Q68 411 68 420 Q68 429 68 430 L102 683 Q105 704 122.5 724 Q140 744 164 744 L478 744 Q491 744 500.5 738 Q510 732 515.5 722.5 Q521 713 523.5 701.5 Q526 690 526 680 Q526 671 524.5 658.5 Q523 646 518.5 634.5 Q514 623 506 615.5 Q498 608 485 608 L321 608 Q292 608 272 586 Q252 564 252 536 Q252 515 275.5 505 Q299 495 334 486.5 Q369 478 410 465 Q451 452 486 426 Q521 400 544 354.5 Q567 309 567 236 Q567 178 547 132.5 Q527 87 492.5 56 Q458 25 410 9 Q362 -7 307 -7 Q267 -7 221.5 5 Q176 17 137 41.5 Q98 66 72.5 102.5 Q47 139 47 188 Z " />
<glyph glyph-name="six" unicode="6" horiz-adv-x="629" d="M48 362 Q48 431 63.5 500.5 Q79 570 113.5 625.5 Q148 681 203 716 Q258 751 338 751 Q359 751 394 745.5 Q429 740 463 727.5 Q497 715 522 695 Q547 675 547 645 Q547 632 539 620 Q531 608 519 599 Q507 590 493.5 585 Q480 580 468 580 Q450 580 434.5 586.5 Q419 593 403.5 601 Q388 609 371.5 615.5 Q355 622 336 622 Q313 622 293 613 Q273 604 257.5 588.5 Q242 573 233 552.5 Q224 532 224 509 Q224 506 224.5 496.5 Q225 487 225 485 Q227 483 232 477.5 Q237 472 239 471 Q239 471 242 471 Q256 471 269 474 Q282 477 295.5 481.5 Q309 486 322.5 489 Q336 492 351 492 Q405 492 450 473.5 Q495 455 527 422 Q559 389 577 343 Q595 297 595 242 Q595 185 574 138.5 Q553 92 517 60 Q481 28 432.5 10.5 Q384 -7 328 -7 Q250 -7 196.5 24.5 Q143 56 110 108 Q77 160 62.5 226.5 Q48 293 48 362 Z M218 266 Q218 243 226 217.5 Q234 192 248.5 171 Q263 150 284 136 Q305 122 331 122 Q357 122 376 133 Q395 144 407 161.5 Q419 179 425 201 Q431 223 431 245 Q431 295 401 329 Q371 363 318 363 Q277 363 247.5 337 Q218 311 218 266 Z " />
<glyph glyph-name="seven" unicode="7" horiz-adv-x="514" d="M109 41 Q109 44 109 50.5 Q109 57 109 64.5 Q109 72 109 79 Q109 86 109 89 Q109 160 118.5 238 Q128 316 157 382 Q164 398 183 425.5 Q202 453 222 481.5 Q242 510 258 535 Q274 560 274 571 Q274 577 271.5 587 Q269 597 259 597 L82 597 Q67 597 57.5 605.5 Q48 614 42.5 626.5 Q37 639 35 652.5 Q33 666 33 676 Q33 680 33.5 693 Q34 706 34 710 Q41 720 54 732 Q67 744 82 744 L444 744 Q460 744 470.5 736.5 Q481 729 487.5 717.5 Q494 706 496.5 692 Q499 678 499 666 Q499 644 494 628.5 Q489 613 478 594 Q430 549 395.5 503.5 Q361 458 337 408.5 Q313 359 299 304 Q285 249 280 184 Q277 154 277.5 121 Q278 88 271.5 61 Q265 34 246.5 16.5 Q228 -1 188 -1 Q164 -1 140.5 6 Q117 13 109 41 Z " />
<glyph glyph-name="eight" unicode="8" horiz-adv-x="653" d="M54 201 Q54 259 76 299.5 Q98 340 137 382 Q137 385 137.5 392.5 Q138 400 138 403 Q138 423 129 442 Q120 461 109.5 480 Q99 499 90.5 519.5 Q82 540 82 563 Q82 613 103 648.5 Q124 684 158 707 Q192 730 234.5 740.5 Q277 751 321 751 Q366 751 409 740.5 Q452 730 486 706.5 Q520 683 540 646 Q560 609 560 558 Q560 534 551.5 514.5 Q543 495 532.5 477 Q522 459 513.5 441 Q505 423 505 403 Q505 382 518 362 Q531 342 546.5 318 Q562 294 575 264.5 Q588 235 588 195 Q588 137 565 98.5 Q542 60 504.5 36.5 Q467 13 419 3 Q371 -7 321 -7 Q269 -7 220.5 3.5 Q172 14 135 38.5 Q98 63 76 103 Q54 143 54 201 Z M218 220 Q218 172 245.5 147 Q273 122 321 122 Q366 122 395 147 Q424 172 424 218 Q424 264 396 292.5 Q368 321 321 321 Q275 321 246.5 293.5 Q218 266 218 220 Z M225 546 Q225 527 233.5 513 Q242 499 256 489.5 Q270 480 287 475.5 Q304 471 321 471 Q338 471 355.5 475.5 Q373 480 386.5 489 Q400 498 408.5 512.5 Q417 527 417 546 Q417 566 408.5 580.5 Q400 595 386.5 604 Q373 613 356 617.5 Q339 622 321 622 Q304 622 287 617.5 Q270 613 256 603.5 Q242 594 233.5 580 Q225 566 225 546 Z " />
<glyph glyph-name="nine" unicode="9" horiz-adv-x="629" d="M102 99 Q102 112 110.5 124 Q119 136 131.5 144.5 Q144 153 158 158.5 Q172 164 184 164 Q201 164 216 156.5 Q231 149 246 140 Q261 131 277 123.5 Q293 116 311 116 Q333 116 353.5 126.5 Q374 137 390 154 Q406 171 415 192.5 Q424 214 424 236 Q424 238 424 247.5 Q424 257 423 259 Q422 267 412 267 Q402 267 399 267 Q372 267 347 256 Q322 245 294 245 Q238 245 193.5 266 Q149 287 118 322 Q87 357 70.5 403.5 Q54 450 54 502 Q54 560 75 606 Q96 652 132 684.5 Q168 717 216.5 734 Q265 751 321 751 Q401 751 453.5 719 Q506 687 537.5 635 Q569 583 582 516.5 Q595 450 595 382 Q595 312 581 242.5 Q567 173 533.5 117.5 Q500 62 445 27 Q390 -8 308 -8 Q287 -8 252.5 -2.5 Q218 3 184.5 15.5 Q151 28 126.5 48.5 Q102 69 102 99 Z M218 502 Q218 447 247.5 414.5 Q277 382 333 382 Q376 382 403 409.5 Q430 437 430 481 Q430 507 422 531 Q414 555 399 574 Q384 593 363 604 Q342 615 316 615 Q264 615 241 582 Q218 549 218 502 Z " />
<glyph glyph-name="colon" unicode="&#x3a;" horiz-adv-x="249" d="M123 144 Q160 144 176 125.5 Q192 107 192 72 Q192 37 176 18 Q160 -1 123 -1 Q116 -1 104.5 0.5 Q93 2 82 6 Q71 10 63 16.5 Q55 23 55 34 L55 109 Q55 120 63 127 Q71 134 82 137.5 Q93 141 104.5 142.5 Q116 144 123 144 Z M121 513 Q158 513 175 495 Q192 477 192 440 Q192 368 119 368 Q113 368 102 369.5 Q91 371 80.5 375 Q70 379 62.5 386 Q55 393 55 403 L55 478 Q55 489 62.5 495.5 Q70 502 81 506 Q92 510 103 511.5 Q114 513 121 513 Z " />
<glyph glyph-name="semicolon" unicode="&#x3b;" horiz-adv-x="249" d="M61 -96 Q61 -87 64.5 -79 Q68 -71 72 -63.5 Q76 -56 79.5 -48 Q83 -40 83 -30 Q83 -17 78 -5 Q73 7 67.5 19 Q62 31 57.5 43.5 Q53 56 53 72 Q53 76 53.5 90.5 Q54 105 55 109 Q64 131 83 137.5 Q102 144 123 144 Q145 144 165 135.5 Q185 127 191 102 Q191 99 191 89.5 Q191 80 191.5 70 Q192 60 192 50.5 Q192 41 192 38 Q192 14 189.5 -14 Q187 -42 177.5 -66.5 Q168 -91 149.5 -107.5 Q131 -124 98 -124 Q85 -124 73 -118 Q61 -112 61 -96 Z M121 513 Q158 513 175 495 Q192 477 192 440 Q192 368 119 368 Q113 368 102 369.5 Q91 371 80.5 375 Q70 379 62.5 386 Q55 393 55 403 L55 478 Q55 489 62.5 495.5 Q70 502 81 506 Q92 510 103 511.5 Q114 513 121 513 Z " />
<glyph glyph-name="less" unicode="&#x3c;" horiz-adv-x="610" d="M47 257 Q47 284 63 301 Q79 318 102 328 Q116 333 145 343.5 Q174 354 210.5 367.5 Q247 381 287 396 Q327 411 363.5 424.5 Q400 438 428.5 448.5 Q457 459 471 464 Q482 468 486 469.5 Q490 471 498 471 Q521 471 530.5 459 Q540 447 540 427 Q540 398 518.5 380 Q497 362 465 349.5 Q433 337 395.5 328.5 Q358 320 326 310.5 Q294 301 273 288.5 Q252 276 252 256 Q252 236 273 223.5 Q294 211 326 201.5 Q358 192 395.5 183.5 Q433 175 465 162.5 Q497 150 518.5 132 Q540 114 540 85 Q540 62 530 54.5 Q520 47 498 47 Q487 47 481 47.5 Q475 48 470 49.5 Q465 51 458 53.5 Q451 56 437 61 Q427 65 404 73.5 Q381 82 350.5 93.5 Q320 105 286 117.5 Q252 130 220 141.5 Q188 153 162.5 162.5 Q137 172 123 177 Q95 188 71 206 Q47 224 47 257 Z " />
<glyph glyph-name="equal" unicode="&#x3d;" horiz-adv-x="628" d="M47 159 Q47 174 55.5 186 Q64 198 82 198 L532 198 Q547 198 554 185.5 Q561 173 561 161 Q561 147 553.5 135 Q546 123 526 123 L89 123 Q75 123 61 134 Q47 145 47 159 Z M47 362 Q47 371 55 383.5 Q63 396 75 396 L532 396 Q545 396 553 384 Q561 372 561 361 Q561 352 557.5 340 Q554 328 539 328 L75 328 Q63 328 55 340 Q47 352 47 362 Z " />
<glyph glyph-name="greater" unicode="&#x3e;" horiz-adv-x="610" d="M61 85 Q61 108 78.5 125.5 Q96 143 116 150 Q128 155 158 165.5 Q188 176 222 188 Q256 200 286 210.5 Q316 221 328 225 Q340 232 344.5 238.5 Q349 245 349 256 Q349 277 328 290.5 Q307 304 275 314.5 Q243 325 205.5 333.5 Q168 342 136 354.5 Q104 367 82.5 384.5 Q61 402 61 430 Q61 445 74 458 Q87 471 102 471 Q104 471 106.5 471 Q109 471 109 471 Q111 471 116 469 Q121 467 127.5 465 Q134 463 140.5 461 Q147 459 150 457 Q160 454 183.5 445.5 Q207 437 237 425.5 Q267 414 301 401.5 Q335 389 367 377.5 Q399 366 424.5 356 Q450 346 464 341 Q478 336 495 329 Q512 322 526.5 312 Q541 302 550.5 288.5 Q560 275 560 256 Q560 230 540 211 Q520 192 498 184 L130 48 L82 48 Q77 48 73 52.5 Q69 57 66.5 63 Q64 69 62.5 75.5 Q61 82 61 85 Z " />
<glyph glyph-name="question" unicode="&#x3f;" horiz-adv-x="590" d="M197 72 Q197 107 213.5 125.5 Q230 144 266 144 Q273 144 284.5 142.5 Q296 141 307 137.5 Q318 134 326.5 127 Q335 120 335 109 L335 34 Q335 23 326.5 16.5 Q318 10 307 6 Q296 2 284.5 0.5 Q273 -1 266 -1 Q230 -1 213.5 18 Q197 37 197 72 Z M211 286 Q211 322 224 349 Q237 376 256 397.5 Q275 419 297.5 437.5 Q320 456 339 474.5 Q358 493 370.5 513.5 Q383 534 383 560 Q383 583 374 599 Q365 615 350 624.5 Q335 634 316 638 Q297 642 276 642 Q240 642 216.5 627 Q193 612 174 594 Q155 576 136.5 561 Q118 546 92 546 Q68 546 47 560 Q26 574 26 600 Q26 642 53 671 Q80 700 119 717.5 Q158 735 201 743 Q244 751 276 751 Q321 751 366.5 739.5 Q412 728 449 704 Q486 680 509.5 642.5 Q533 605 533 553 Q533 512 514 482.5 Q495 453 468.5 428 Q442 403 412.5 379.5 Q383 356 362 328 Q351 313 344.5 294 Q338 275 330 258 Q322 241 308.5 229.5 Q295 218 271 218 Q235 218 223 235.5 Q211 253 211 286 Z " />
<glyph glyph-name="at" unicode="&#x40;" horiz-adv-x="1305" d="M61 266 Q61 399 110 505.5 Q159 612 243.5 686.5 Q328 761 440.5 800.5 Q553 840 680 840 Q789 840 891 809 Q993 778 1071 716.5 Q1149 655 1196 563.5 Q1243 472 1243 352 Q1243 288 1226 221.5 Q1209 155 1173.5 101.5 Q1138 48 1083.5 13.5 Q1029 -21 956 -21 Q930 -21 908.5 -10 Q887 1 867 14 Q847 27 827 37.5 Q807 48 785 48 Q784 48 778.5 48 Q773 48 771 48 Q744 33 723 22.5 Q702 12 681.5 5.5 Q661 -1 639 -4 Q617 -7 587 -7 Q536 -7 492.5 9 Q449 25 416.5 54.5 Q384 84 366 126.5 Q348 169 348 222 Q348 285 371 336 Q394 387 434 423.5 Q474 460 527.5 479.5 Q581 499 642 499 Q662 499 681 494.5 Q700 490 718.5 484.5 Q737 479 755 474.5 Q773 470 793 470 Q815 470 834.5 481 Q854 492 877 492 Q910 492 928 464 Q929 460 929 445.5 Q929 431 929 427 Q929 365 918.5 305.5 Q908 246 908 184 Q908 162 913 141 Q918 120 928.5 103.5 Q939 87 956.5 77 Q974 67 998 67 Q1046 67 1074.5 97 Q1103 127 1117.5 169.5 Q1132 212 1136.5 259.5 Q1141 307 1141 341 Q1141 442 1103.5 518.5 Q1066 595 1002.5 647 Q939 699 854.5 725 Q770 751 676 751 Q567 751 473.5 717 Q380 683 311 619.5 Q242 556 202.5 466.5 Q163 377 163 266 Q163 151 204.5 61 Q246 -29 317.5 -91.5 Q389 -154 484.5 -186.5 Q580 -219 689 -219 Q752 -219 810 -210.5 Q868 -202 928 -184 Q944 -180 959 -173 Q974 -166 989 -159 Q1004 -152 1019.5 -147.5 Q1035 -143 1052 -143 Q1068 -143 1081 -151.5 Q1094 -160 1094 -178 Q1094 -202 1067.5 -221 Q1041 -240 1000 -255 Q959 -270 910 -281 Q861 -292 816 -299.5 Q771 -307 735.5 -310.5 Q700 -314 686 -314 Q559 -314 445.5 -273.5 Q332 -233 246.5 -157.5 Q161 -82 111 25.5 Q61 133 61 266 Z M484 243 Q484 180 522.5 147.5 Q561 115 621 115 Q655 115 684.5 122.5 Q714 130 735 146 Q756 162 767.5 187.5 Q779 213 779 250 Q779 316 738.5 346 Q698 376 638 376 Q609 376 581 367.5 Q553 359 531.5 342 Q510 325 497 300.5 Q484 276 484 243 Z " />
<glyph glyph-name="A" unicode="A" horiz-adv-x="747" d="M20 44 Q20 47 20 48 Q21 50 23 56 Q25 62 27 68.5 Q29 75 31 81 Q33 87 34 89 L266 689 Q279 724 307.5 734.5 Q336 745 368 745 Q406 745 436 731.5 Q466 718 478 676 Q486 654 503 608 Q520 562 541.5 504 Q563 446 587 382 Q611 318 632.5 260.5 Q654 203 671 157 Q688 111 696 89 Q697 86 699 80 Q701 74 703.5 67.5 Q706 61 707.5 55.5 Q709 50 710 48 Q710 47 710 44 Q710 28 703 19 Q696 10 685 5.5 Q674 1 661 0 Q648 -1 636 -1 Q602 -1 583.5 19.5 Q565 40 551.5 64.5 Q538 89 522.5 109.5 Q507 130 478 130 L259 130 Q232 130 219.5 109.5 Q207 89 194 64.5 Q181 40 160 19.5 Q139 -1 96 -1 Q84 -1 70.5 0 Q57 1 46 5.5 Q35 10 27.5 19 Q20 28 20 44 Z M293 299 Q293 288 299 273.5 Q305 259 321 259 L416 259 Q431 259 441 275.5 Q451 292 451 304 Q451 313 444.5 339 Q438 365 427 393 Q416 421 401 443 Q386 465 369 465 Q352 465 337.5 444.5 Q323 424 313 396.5 Q303 369 298 341.5 Q293 314 293 299 Z " />
<glyph glyph-name="B" unicode="B" horiz-adv-x="700" d="M137 744 Q143 744 158.5 744 Q174 744 191.5 744.5 Q209 745 224.5 745 Q240 745 246 745 Q280 745 321 745 Q362 745 403 741 Q444 737 482.5 727 Q521 717 550.5 697 Q580 677 597.5 644.5 Q615 612 615 563 Q615 539 606.5 521 Q598 503 587.5 486.5 Q577 470 568 453.5 Q559 437 559 416 Q559 415 559.5 409.5 Q560 404 560 403 Q582 382 600 362.5 Q618 343 630.5 321.5 Q643 300 649.5 276 Q656 252 656 222 Q656 138 620.5 93 Q585 48 529 27 Q473 6 405.5 2.5 Q338 -1 273 -1 Q265 -1 244.5 -0.5 Q224 0 201.5 0 Q179 0 158.5 0 Q138 0 130 0 Q113 1 97.5 15.5 Q82 30 82 48 L82 696 Q82 719 100.5 729 Q119 739 137 744 Z M273 335 Q262 332 247 319 Q232 306 232 294 L232 171 Q232 156 240.5 146.5 Q249 137 261.5 131.5 Q274 126 288 124 Q302 122 313 122 Q342 122 373.5 126.5 Q405 131 431.5 143 Q458 155 475 177.5 Q492 200 492 237 Q492 268 473 287.5 Q454 307 426.5 317.5 Q399 328 368 331.5 Q337 335 314 335 Q309 335 293.5 335 Q278 335 273 335 Z M231 539 Q231 517 236.5 495 Q242 473 266 464 Q269 464 276 464 Q283 464 290.5 464 Q298 464 304.5 464 Q311 464 314 464 Q333 464 358 466 Q383 468 405 476 Q427 484 442.5 500 Q458 516 458 543 Q458 570 443.5 586 Q429 602 407.5 610 Q386 618 361.5 620 Q337 622 316 622 Q272 622 251.5 604 Q231 586 231 539 Z " />
<glyph glyph-name="C" unicode="C" horiz-adv-x="738" d="M47 372 Q47 448 73 517 Q99 586 146 638 Q193 690 258.5 720.5 Q324 751 403 751 Q431 751 479.5 743.5 Q528 736 575 718.5 Q622 701 656 673 Q690 645 690 605 Q690 592 682 578.5 Q674 565 661.5 553 Q649 541 634.5 533.5 Q620 526 608 526 Q581 526 557.5 541 Q534 556 510 574 Q486 592 460 607 Q434 622 403 622 Q353 622 317 599 Q281 576 257.5 540 Q234 504 222.5 459.5 Q211 415 211 372 Q211 329 222 284.5 Q233 240 256 204 Q279 168 315.5 145 Q352 122 403 122 Q436 122 463.5 136 Q491 150 515 167 Q539 184 561.5 198 Q584 212 608 212 Q622 212 636.5 205 Q651 198 663 187 Q675 176 682.5 162 Q690 148 690 133 Q690 91 656.5 64 Q623 37 576.5 21 Q530 5 481 -1 Q432 -7 402 -7 Q323 -7 257.5 23 Q192 53 145 105 Q98 157 72.5 226 Q47 295 47 372 Z " />
<glyph glyph-name="D" unicode="D" horiz-adv-x="790" d="M137 744 Q142 744 156.5 744 Q171 744 187.5 744.5 Q204 745 218.5 745 Q233 745 239 745 Q284 745 337.5 741.5 Q391 738 445 727 Q499 716 549 696.5 Q599 677 638 645 Q677 613 700.5 567 Q724 521 724 457 L724 280 Q724 217 702.5 172 Q681 127 645 96 Q609 65 562 46 Q515 27 463.5 16.5 Q412 6 360.5 2.5 Q309 -1 263 -1 Q255 -1 236 -0.5 Q217 0 196 0 Q175 0 156 0 Q137 0 130 0 Q113 1 97.5 15.5 Q82 30 82 48 L82 696 Q82 719 100.5 729 Q119 739 137 744 Z M313 622 Q303 622 289 620 Q275 618 262.5 613 Q250 608 241 598.5 Q232 589 232 573 L232 171 Q232 151 248.5 139.5 Q265 128 280 123 Q282 123 288.5 123 Q295 123 302 122.5 Q309 122 315.5 122 Q322 122 324 122 Q447 122 507 187 Q567 252 567 372 Q567 432 549 478.5 Q531 525 498 557 Q465 589 418 605.5 Q371 622 313 622 Z " />
<glyph glyph-name="E" unicode="E" horiz-adv-x="684" d="M609 686 Q609 680 607.5 668.5 Q606 657 602 645.5 Q598 634 591.5 626 Q585 618 573 618 L287 618 Q267 618 256 608.5 Q245 599 239.5 585 Q234 571 232.5 555 Q231 539 231 527 Q231 520 232 506.5 Q233 493 236.5 480 Q240 467 247 457 Q254 447 266 447 L539 447 Q568 447 578 426.5 Q588 406 588 386 Q588 379 586 369 Q584 359 580 349 Q576 339 569.5 331.5 Q563 324 553 324 L287 324 Q266 324 254.5 313.5 Q243 303 238 288 Q233 273 232 255.5 Q231 238 231 225 Q231 215 232 198 Q233 181 237 165 Q241 149 251 137.5 Q261 126 280 126 L587 126 Q596 126 603.5 119 Q611 112 616.5 102.5 Q622 93 625 82.5 Q628 72 628 65 Q628 56 625 44.5 Q622 33 616 23 Q610 13 601 6.5 Q592 0 580 0 L130 0 Q113 0 97.5 15.5 Q82 31 82 48 L82 696 Q82 705 87.5 714 Q93 723 101 729.5 Q109 736 118.5 740 Q128 744 137 744 L560 744 Q584 744 596.5 725.5 Q609 707 609 686 Z " />
<glyph glyph-name="F" unicode="F" horiz-adv-x="649" d="M609 686 Q609 680 607.5 668.5 Q606 657 602 645.5 Q598 634 591.5 626 Q585 618 573 618 L287 618 Q267 618 256 608.5 Q245 599 239.5 585 Q234 571 232.5 555 Q231 539 231 527 Q231 520 232 506.5 Q233 493 236.5 480 Q240 467 247 457 Q254 447 266 447 L532 447 Q544 447 552.5 440.5 Q561 434 567.5 425 Q574 416 577.5 405 Q581 394 581 385 Q581 379 578.5 369 Q576 359 572 349 Q568 339 561.5 331.5 Q555 324 546 324 L287 324 Q280 324 270.5 319 Q261 314 251.5 306.5 Q242 299 235.5 290 Q229 281 229 273 L229 41 Q229 29 220 21 Q211 13 199 8 Q187 3 174.5 1 Q162 -1 154 -1 Q143 -1 130 1.5 Q117 4 106.5 9 Q96 14 89 23.5 Q82 33 82 48 L82 696 Q82 705 87.5 714 Q93 723 101 729.5 Q109 736 118.5 740 Q128 744 137 744 L560 744 Q584 744 596.5 725.5 Q609 707 609 686 Z " />
<glyph glyph-name="G" unicode="G" horiz-adv-x="797" d="M47 372 Q47 454 76 523.5 Q105 593 156 644 Q207 695 277.5 723 Q348 751 430 751 Q461 751 509.5 744 Q558 737 604.5 719.5 Q651 702 684 674 Q717 646 717 604 Q717 602 717 595.5 Q717 589 717 587 Q712 582 703 571.5 Q694 561 683 551 Q672 541 659.5 533.5 Q647 526 635 526 Q612 526 590 541 Q568 556 544 574 Q520 592 492.5 607 Q465 622 430 622 Q377 622 336 601 Q295 580 267.5 545.5 Q240 511 225.5 466 Q211 421 211 372 Q211 319 227 273.5 Q243 228 272.5 194 Q302 160 345.5 141 Q389 122 444 122 Q471 122 498 126.5 Q525 131 546.5 142.5 Q568 154 581 175 Q594 196 594 229 Q594 237 592 249.5 Q590 262 585.5 274 Q581 286 573 295 Q565 304 553 304 L403 304 Q390 304 381 311 Q372 318 366 328.5 Q360 339 357 351 Q354 363 354 373 Q354 391 363.5 410.5 Q373 430 396 430 L710 430 Q716 430 722 425 Q728 420 733 413.5 Q738 407 741 400 Q744 393 744 389 L744 109 Q744 86 725.5 68 Q707 50 678.5 37 Q650 24 615 15.5 Q580 7 546 2 Q512 -3 483.5 -5 Q455 -7 440 -7 Q356 -7 284.5 20 Q213 47 160 96.5 Q107 146 77 216 Q47 286 47 372 Z " />
<glyph glyph-name="H" unicode="H" horiz-adv-x="834" d="M154 745 Q161 745 173.5 742.5 Q186 740 198.5 734.5 Q211 729 220 721.5 Q229 714 229 703 L229 505 Q229 498 234.5 489.5 Q240 481 248 474 Q256 467 265 462 Q274 457 280 457 L539 457 Q545 457 553.5 461.5 Q562 466 570.5 472 Q579 478 585 485 Q591 492 591 498 L591 689 Q591 705 598.5 715.5 Q606 726 618 732.5 Q630 739 644 742 Q658 745 669 745 Q676 745 687.5 743.5 Q699 742 710 738 Q721 734 729 727.5 Q737 721 737 710 L737 34 Q737 23 728.5 16 Q720 9 708 5.5 Q696 2 683.5 0.5 Q671 -1 664 -1 Q653 -1 640 2.5 Q627 6 616 12.5 Q605 19 598 29.5 Q591 40 591 55 L591 287 Q591 290 586.5 296 Q582 302 575.5 307.5 Q569 313 563 317 Q557 321 553 321 L266 321 Q261 321 254.5 315.5 Q248 310 242 303 Q236 296 232.5 289.5 Q229 283 229 280 L229 41 Q229 29 220 21 Q211 13 199 8 Q187 3 174.5 1 Q162 -1 154 -1 Q143 -1 130 1.5 Q117 4 106.5 9 Q96 14 89 23.5 Q82 33 82 48 L82 696 Q82 710 89.5 719 Q97 728 107.5 733.5 Q118 739 130.5 742 Q143 745 154 745 Z " />
<glyph glyph-name="I" unicode="I" horiz-adv-x="327" d="M164 745 Q172 745 184 743 Q196 741 206.5 736 Q217 731 224.5 723 Q232 715 232 703 L232 41 Q232 28 224 20 Q216 12 205 7.5 Q194 3 181.5 1 Q169 -1 160 -1 Q149 -1 136.5 1.5 Q124 4 113.5 9 Q103 14 96 23.5 Q89 33 89 48 L89 696 Q89 710 96.5 719.5 Q104 729 115.5 734.5 Q127 740 140 742.5 Q153 745 164 745 Z " />
<glyph glyph-name="J" unicode="J" horiz-adv-x="615" d="M47 195 Q47 197 47 203.5 Q47 210 47.5 217 Q48 224 48 230 Q48 236 48 239 Q52 253 61.5 262.5 Q71 272 83.5 277.5 Q96 283 110.5 285 Q125 287 137 287 Q158 287 170 276.5 Q182 266 189.5 250 Q197 234 202.5 215 Q208 196 217 180 Q226 164 241 153.5 Q256 143 282 143 Q294 143 310 146.5 Q326 150 339.5 157.5 Q353 165 362.5 177 Q372 189 372 205 L372 689 Q372 705 380 715.5 Q388 726 400 732.5 Q412 739 425.5 742 Q439 745 451 745 Q457 745 469 743.5 Q481 742 492 738 Q503 734 511 727.5 Q519 721 519 710 L519 171 Q519 124 496 90.5 Q473 57 437.5 35 Q402 13 360 3 Q318 -7 280 -7 Q231 -7 188 4.5 Q145 16 114 40.5 Q83 65 65 103.5 Q47 142 47 195 Z " />
<glyph glyph-name="K" unicode="K" horiz-adv-x="735" d="M154 745 Q161 745 173.5 742.5 Q186 740 198.5 734.5 Q211 729 220 721.5 Q229 714 229 703 L229 526 Q229 525 233 520 Q237 515 239 512 Q242 508 248 503 Q254 498 259 498 Q262 498 270 501 Q278 504 280 505 Q313 537 345.5 578.5 Q378 620 413.5 657 Q449 694 490.5 719.5 Q532 745 584 745 Q586 745 597.5 744.5 Q609 744 622 743 Q635 742 645 739 Q655 736 655 730 L655 696 Q646 687 624 664 Q602 641 577 615 Q552 589 529.5 565.5 Q507 542 498 532 Q485 518 478 505.5 Q471 493 471 475 Q471 435 487 398 Q503 361 527.5 325.5 Q552 290 580.5 255 Q609 220 633 185 Q657 150 673.5 113.5 Q690 77 690 37 Q690 25 678 14 Q666 3 655 0 Q651 0 636.5 -0.5 Q622 -1 618 -1 Q599 -1 584.5 1 Q570 3 558.5 8.5 Q547 14 536 23.5 Q525 33 512 48 Q506 60 489.5 90 Q473 120 454.5 153.5 Q436 187 419.5 217.5 Q403 248 396 259 Q391 269 384 282 Q377 295 368.5 307 Q360 319 349.5 327 Q339 335 324 335 Q310 335 293 324 Q276 313 262 297.5 Q248 282 238.5 264 Q229 246 229 232 L229 41 Q229 29 220 21 Q211 13 199 8 Q187 3 174.5 1 Q162 -1 154 -1 Q143 -1 130 1.5 Q117 4 106.5 9 Q96 14 89 23.5 Q82 33 82 48 L82 696 Q82 710 89.5 719 Q97 728 107.5 733.5 Q118 739 130.5 742 Q143 745 154 745 Z " />
<glyph glyph-name="L" unicode="L" horiz-adv-x="621" d="M164 745 Q172 745 184 742.5 Q196 740 207.5 735 Q219 730 227.5 722 Q236 714 236 703 L236 177 Q236 172 242 163.5 Q248 155 256 146.5 Q264 138 272.5 132 Q281 126 287 126 L546 126 Q557 126 563.5 118.5 Q570 111 574 100.5 Q578 90 579.5 79 Q581 68 581 61 Q581 39 571 19.5 Q561 0 532 0 L137 0 Q120 0 104.5 15.5 Q89 31 89 48 L89 696 Q89 710 96.5 719.5 Q104 729 115.5 734.5 Q127 740 140 742.5 Q153 745 164 745 Z " />
<glyph glyph-name="M" unicode="M" horiz-adv-x="959" d="M475 307 Q496 307 510.5 339.5 Q525 372 536.5 420.5 Q548 469 559 525.5 Q570 582 585.5 630.5 Q601 679 622.5 711.5 Q644 744 676 744 L812 744 Q821 744 830.5 740 Q840 736 848 729 Q856 722 861.5 713.5 Q867 705 867 696 L867 48 Q867 34 860.5 24.5 Q854 15 843.5 9.5 Q833 4 821 1.5 Q809 -1 799 -1 Q791 -1 778.5 1.5 Q766 4 754.5 9 Q743 14 735 22 Q727 30 727 41 L727 389 Q727 392 725.5 400 Q724 408 720.5 416 Q717 424 712 430.5 Q707 437 700 437 Q678 437 664.5 405 Q651 373 640.5 324 Q630 275 618.5 218.5 Q607 162 589 113 Q571 64 543.5 31.5 Q516 -1 473 -1 Q449 -1 426.5 11 Q404 23 396 48 L294 369 Q292 373 288.5 381 Q285 389 279.5 397 Q274 405 268 411 Q262 417 256 417 Q253 417 253 416 Q250 415 244.5 409.5 Q239 404 239 403 L229 348 L229 34 Q229 23 219.5 16.5 Q210 10 197 6 Q184 2 172 0.5 Q160 -1 154 -1 Q145 -1 132.5 1 Q120 3 109 7.5 Q98 12 90 20 Q82 28 82 41 L82 703 Q82 711 88 718 Q94 725 103 731 Q112 737 121 740.5 Q130 744 137 744 L266 744 Q299 744 320.5 711.5 Q342 679 357.5 630.5 Q373 582 384 525.5 Q395 469 407.5 420.5 Q420 372 435.5 339.5 Q451 307 475 307 Z " />
<glyph glyph-name="N" unicode="N" horiz-adv-x="814" d="M164 745 Q183 745 197.5 743 Q212 741 224.5 736 Q237 731 248.5 721.5 Q260 712 273 696 Q281 682 298 652.5 Q315 623 336.5 586 Q358 549 382 508.5 Q406 468 427.5 431 Q449 394 466 364.5 Q483 335 492 321 Q495 315 500 307 Q505 299 511 291.5 Q517 284 524.5 278.5 Q532 273 539 273 Q544 273 553.5 280.5 Q563 288 563 294 L563 689 Q563 706 571.5 716.5 Q580 727 592.5 733.5 Q605 740 619 742.5 Q633 745 645 745 Q658 745 671.5 742.5 Q685 740 697 733.5 Q709 727 716.5 716.5 Q724 706 724 689 L724 55 Q724 46 719.5 36.5 Q715 27 708.5 19 Q702 11 693.5 5.5 Q685 0 676 0 L546 0 Q538 0 528.5 4 Q519 8 510.5 14.5 Q502 21 495 28 Q488 35 485 41 L300 355 Q291 371 284 377 Q277 383 264 383 Q253 383 244.5 375.5 Q236 368 236 355 L236 41 Q236 28 226.5 20 Q217 12 204.5 7.5 Q192 3 178.5 1 Q165 -1 157 -1 Q150 -1 137.5 0 Q125 1 112.5 4.5 Q100 8 91 15 Q82 22 82 34 L82 703 Q82 718 91.5 726.5 Q101 735 114 739 Q127 743 141 744 Q155 745 164 745 Z " />
<glyph glyph-name="O" unicode="O" horiz-adv-x="838" d="M54 369 Q54 446 80 515.5 Q106 585 153.5 637.5 Q201 690 267 720.5 Q333 751 413 751 Q492 751 558 721 Q624 691 671.5 639.5 Q719 588 745.5 519.5 Q772 451 772 373 Q772 292 747.5 222.5 Q723 153 676.5 102 Q630 51 563.5 22 Q497 -7 413 -7 Q330 -7 264 21.5 Q198 50 151 100.5 Q104 151 79 220 Q54 289 54 369 Z M211 369 Q211 324 224 279.5 Q237 235 262.5 200 Q288 165 325.5 143.5 Q363 122 413 122 Q464 122 502 144 Q540 166 565 201.5 Q590 237 602.5 282 Q615 327 615 372 Q615 416 601.5 460.5 Q588 505 562.5 541 Q537 577 499.5 599.5 Q462 622 413 622 Q364 622 326 598.5 Q288 575 262.5 538.5 Q237 502 224 457 Q211 412 211 369 Z " />
<glyph glyph-name="P" unicode="P" horiz-adv-x="648" d="M137 744 Q142 744 156 744 Q170 744 186 744.5 Q202 745 216 745 Q230 745 236 745 Q286 745 344 742.5 Q402 740 454.5 724.5 Q507 709 547 675.5 Q587 642 601 580 Q601 577 601 569 Q601 561 601 551.5 Q601 542 601 534 Q601 526 601 522 Q601 453 573.5 410.5 Q546 368 504.5 343.5 Q463 319 415 307.5 Q367 296 325.5 288.5 Q284 281 256.5 273 Q229 265 229 246 L229 41 Q229 29 220 21 Q211 13 199 8 Q187 3 174.5 1 Q162 -1 154 -1 Q143 -1 130 1.5 Q117 4 106.5 9 Q96 14 89 23.5 Q82 33 82 48 L82 696 Q82 719 100.5 729 Q119 739 137 744 Z M303 622 Q293 622 280.5 619 Q268 616 257.5 610.5 Q247 605 239.5 596 Q232 587 232 573 L232 464 Q232 451 239.5 442 Q247 433 258 427 Q269 421 281 418.5 Q293 416 303 416 Q330 416 357 421 Q384 426 404.5 438 Q425 450 438 470.5 Q451 491 451 523 Q451 552 437 571 Q423 590 401 601 Q379 612 353 617 Q327 622 303 622 Z " />
<glyph glyph-name="Q" unicode="Q" horiz-adv-x="838" d="M519 -7 Q417 -10 331.5 7 Q246 24 184.5 68 Q123 112 88.5 185.5 Q54 259 54 369 Q54 446 80 515.5 Q106 585 153.5 637.5 Q201 690 267 720.5 Q333 751 413 751 Q492 751 558 721 Q624 691 671.5 639.5 Q719 588 745.5 519.5 Q772 451 772 373 Q772 347 771.5 325.5 Q771 304 768 283.5 Q765 263 759.5 242.5 Q754 222 744 198 Q737 180 724.5 163 Q712 146 699.5 128.5 Q687 111 677.5 93 Q668 75 668 55 Q668 34 679 15.5 Q690 -3 690 -24 Q690 -36 684.5 -47.5 Q679 -59 669.5 -68.5 Q660 -78 648.5 -83.5 Q637 -89 624 -89 Q607 -89 594.5 -78 Q582 -67 570.5 -53 Q559 -39 547 -25.5 Q535 -12 519 -7 Z M211 372 Q211 334 222 290 Q233 246 255.5 209 Q278 172 312 147 Q346 122 393 122 Q411 122 420 132 Q429 142 434 156.5 Q439 171 442 188 Q445 205 451.5 219.5 Q458 234 470 243.5 Q482 253 505 253 Q520 253 534.5 249 Q549 245 565 245 Q584 245 594.5 259.5 Q605 274 609.5 294 Q614 314 614.5 335 Q615 356 615 369 Q615 412 602 457.5 Q589 503 564 539 Q539 575 501 598.5 Q463 622 413 622 Q364 622 326.5 599 Q289 576 263.5 540 Q238 504 224.5 459.5 Q211 415 211 372 Z " />
<glyph glyph-name="R" unicode="R" horiz-adv-x="648" d="M137 744 Q142 744 156 744 Q170 744 186 744.5 Q202 745 216 745 Q230 745 236 745 Q286 745 344 742.5 Q402 740 454.5 724.5 Q507 709 547 675.5 Q587 642 601 580 Q601 577 601 569.5 Q601 562 601.5 553 Q602 544 602 536.5 Q602 529 602 526 Q602 471 582.5 438.5 Q563 406 539.5 384 Q516 362 496.5 343.5 Q477 325 477 297 Q477 260 497.5 228.5 Q518 197 542.5 166.5 Q567 136 587.5 104.5 Q608 73 608 36 Q608 22 602 14.5 Q596 7 586.5 3.5 Q577 0 565.5 -0.5 Q554 -1 543 -1 Q494 -1 459.5 27.5 Q425 56 399 96.5 Q373 137 353 182 Q333 227 314 259 Q303 279 293.5 287 Q284 295 267 295 Q258 295 243.5 286.5 Q229 278 229 266 L229 41 Q229 29 220 21 Q211 13 199 8 Q187 3 174.5 1 Q162 -1 154 -1 Q143 -1 130 1.5 Q117 4 106.5 9 Q96 14 89 23.5 Q82 33 82 48 L82 696 Q82 719 100.5 729 Q119 739 137 744 Z M231 529 Q231 484 246 460 Q261 436 310 436 Q332 436 357 440 Q382 444 403 453.5 Q424 463 437.5 480.5 Q451 498 451 526 Q451 554 436.5 572.5 Q422 591 400 602 Q378 613 352 617.5 Q326 622 303 622 Q280 622 266 615 Q252 608 244.5 595.5 Q237 583 234 566 Q231 549 231 529 Z " />
<glyph glyph-name="S" unicode="S" horiz-adv-x="676" d="M54 135 Q54 153 63 168.5 Q72 184 86 195 Q100 206 117.5 212.5 Q135 219 152 219 Q175 219 197 205 Q219 191 243.5 174 Q268 157 296 143 Q324 129 358 129 Q376 129 396.5 132.5 Q417 136 435.5 145 Q454 154 466 168.5 Q478 183 478 205 Q478 242 445 261.5 Q412 281 362.5 294.5 Q313 308 255.5 322 Q198 336 148.5 361.5 Q99 387 66 430 Q33 473 33 545 Q33 599 57.5 638.5 Q82 678 121 703 Q160 728 208 739.5 Q256 751 304 751 Q319 751 345.5 748.5 Q372 746 404 740 Q436 734 468.5 724.5 Q501 715 527.5 702 Q554 689 571 672 Q588 655 588 634 Q588 617 580 602.5 Q572 588 559.5 577 Q547 566 531.5 559 Q516 552 500 552 Q476 552 452.5 561 Q429 570 405 580.5 Q381 591 356 599.5 Q331 608 303 608 Q291 608 273 607 Q255 606 238 600.5 Q221 595 209 584.5 Q197 574 197 554 Q197 518 229 499 Q261 480 309 466.5 Q357 453 413 439 Q469 425 517 398.5 Q565 372 597 327.5 Q629 283 629 208 Q629 149 606 108 Q583 67 545 41.5 Q507 16 457.5 4.5 Q408 -7 355 -7 Q336 -7 306.5 -4.5 Q277 -2 243.5 4 Q210 10 176.5 20.5 Q143 31 115.5 46.5 Q88 62 71 84 Q54 106 54 135 Z " />
<glyph glyph-name="T" unicode="T" horiz-adv-x="619" d="M48 621 Q26 627 19.5 643.5 Q13 660 13 679 Q13 690 15.5 701.5 Q18 713 24 722.5 Q30 732 39 738 Q48 744 61 744 L546 744 Q576 744 588.5 724 Q601 704 601 679 Q601 673 599.5 662.5 Q598 652 594 642 Q590 632 583.5 625 Q577 618 567 618 L437 618 Q428 618 417.5 611 Q407 604 398.5 594 Q390 584 384.5 573 Q379 562 379 553 L379 34 Q379 23 369 16.5 Q359 10 346.5 6 Q334 2 321 0.5 Q308 -1 302 -1 Q291 -1 278 2.5 Q265 6 254 12.5 Q243 19 236 29.5 Q229 40 229 55 L229 573 Q229 582 222 589 Q215 596 206 601.5 Q197 607 187 610.5 Q177 614 171 614 Q164 615 146.5 616 Q129 617 109.5 618 Q90 619 72.5 620 Q55 621 48 621 Z " />
<glyph glyph-name="U" unicode="U" horiz-adv-x="783" d="M147 745 Q154 745 166.5 742.5 Q179 740 191.5 734.5 Q204 729 213 721.5 Q222 714 222 703 L222 280 Q222 247 237 221 Q252 195 275.5 178 Q299 161 328 152 Q357 143 386 143 Q388 143 394.5 143 Q401 143 408 143 Q415 143 421.5 143 Q428 143 430 143 Q446 148 464 159.5 Q482 171 498 187 Q514 203 525 222 Q536 241 536 259 L536 683 Q536 700 543.5 712 Q551 724 563 731 Q575 738 589.5 741.5 Q604 745 618 745 Q628 745 642 743 Q656 741 668 735.5 Q680 730 688 720.5 Q696 711 696 696 L696 246 Q696 180 669 132.5 Q642 85 598 54 Q554 23 498.5 8 Q443 -7 386 -7 Q328 -7 272.5 7.5 Q217 22 173 53 Q129 84 102 132 Q75 180 75 246 L75 696 Q75 710 82.5 719 Q90 728 101 733.5 Q112 739 124.5 742 Q137 745 147 745 Z " />
<glyph glyph-name="V" unicode="V" horiz-adv-x="719" d="M246 61 Q238 83 222 128.5 Q206 174 186 231 Q166 288 143.5 351.5 Q121 415 101 472 Q81 529 65 574.5 Q49 620 41 642 Q37 654 34 661 Q31 668 29.5 673.5 Q28 679 27 685 Q26 691 26 701 Q26 715 32.5 723.5 Q39 732 48.5 737 Q58 742 69.5 743.5 Q81 745 92 745 Q125 745 149.5 730.5 Q174 716 184 683 L300 328 Q304 317 313 305 Q322 293 335 293 Q355 293 362 314 L485 689 Q496 723 520 734 Q544 745 577 745 Q589 745 602 743.5 Q615 742 625.5 737.5 Q636 733 643 724.5 Q650 716 650 700 Q650 697 649.5 690.5 Q649 684 649 683 L437 68 Q424 30 402 14.5 Q380 -1 341 -1 Q308 -1 282.5 13 Q257 27 246 61 Z " />
<glyph glyph-name="W" unicode="W" horiz-adv-x="930" d="M55 662 L55 717 Q55 727 63 732.5 Q71 738 81.5 740.5 Q92 743 103 744 Q114 745 119 745 Q162 745 184.5 721 Q207 697 218 661 Q229 625 233 583.5 Q237 542 241 506 Q245 470 254 446.5 Q263 423 284 423 Q294 423 300.5 429 Q307 435 310.5 443.5 Q314 452 316.5 461.5 Q319 471 321 478 Q324 490 332 520 Q340 550 348.5 583.5 Q357 617 365 647.5 Q373 678 375 689 Q386 720 408 732.5 Q430 745 461 745 Q490 745 514 733 Q538 721 546 689 L608 457 Q610 448 619.5 435.5 Q629 423 638 423 Q659 423 667 446.5 Q675 470 679 506 Q683 542 686.5 583.5 Q690 625 701 661 Q712 697 735.5 721 Q759 745 802 745 Q815 745 828.5 743 Q842 741 854 735.5 Q866 730 873.5 720 Q881 710 881 693 Q881 691 881 689 Q876 668 866 622.5 Q856 577 843 519.5 Q830 462 816 399 Q802 336 789 279 Q776 222 766 176.5 Q756 131 751 109 Q746 87 740.5 67.5 Q735 48 725 32.5 Q715 17 699 8 Q683 -1 657 -1 Q624 -1 601 10.5 Q578 22 567 55 Q560 81 552 116 Q544 151 535 189.5 Q526 228 515 265.5 Q504 303 492 335 Q487 345 480.5 354 Q474 363 461 363 Q446 363 441 352 Q436 341 430 328 Q426 313 416.5 277.5 Q407 242 396 201.5 Q385 161 375.5 125 Q366 89 362 75 Q351 37 330 18 Q309 -1 270 -1 Q237 -1 214.5 13 Q192 27 184 61 L55 662 Z " />
<glyph glyph-name="X" unicode="X" horiz-adv-x="715" d="M68 34 Q68 38 71 45 Q74 52 77.5 60 Q81 68 84.5 74 Q88 80 89 82 Q98 97 121 135 Q144 173 170.5 215.5 Q197 258 220 295.5 Q243 333 253 348 Q259 359 259.5 369 Q260 379 260 391 Q260 402 259.5 407.5 Q259 413 257 418.5 Q255 424 250.5 431 Q246 438 239 451 Q231 464 210.5 498 Q190 532 167.5 570 Q145 608 124.5 642 Q104 676 96 689 Q95 691 94.5 698 Q94 705 94 707 Q94 733 113 739 Q132 745 154 745 Q184 745 205 731 Q226 717 242 696.5 Q258 676 270.5 651.5 Q283 627 295.5 606.5 Q308 586 322.5 572 Q337 558 358 558 Q378 558 392.5 572 Q407 586 420 606.5 Q433 627 446.5 651.5 Q460 676 477.5 696.5 Q495 717 519 731 Q543 745 577 745 Q588 745 601 744.5 Q614 744 625 740.5 Q636 737 643 729.5 Q650 722 650 707 Q650 705 649.5 698 Q649 691 649 689 Q639 675 615.5 637 Q592 599 566 556.5 Q540 514 517 476 Q494 438 485 423 Q477 411 470.5 396 Q464 381 464 365 Q464 319 491 279.5 Q518 240 550 201 Q582 162 609 122.5 Q636 83 636 37 Q636 12 619 5.5 Q602 -1 581 -1 Q549 -1 526.5 14 Q504 29 487.5 51 Q471 73 458 99 Q445 125 432.5 147 Q420 169 406 183.5 Q392 198 372 198 Q350 198 335 183.5 Q320 169 306.5 147 Q293 125 279.5 99 Q266 73 248 51 Q230 29 205 14 Q180 -1 143 -1 Q139 -1 123 -0.5 Q107 0 102 0 Q93 3 80.5 13 Q68 23 68 34 Z " />
<glyph glyph-name="Y" unicode="Y" horiz-adv-x="692" d="M55 689 Q54 691 54 696.5 Q54 702 54 703 Q54 727 70.5 736 Q87 745 109 745 Q142 745 165 727 Q188 709 205.5 682.5 Q223 656 236.5 624.5 Q250 593 264.5 566.5 Q279 540 295.5 522 Q312 504 336 504 Q351 504 358.5 509 Q366 514 375 532 Q389 557 406 593.5 Q423 630 445 663.5 Q467 697 496 721 Q525 745 563 745 Q586 745 604 736.5 Q622 728 622 703 Q622 670 606.5 635.5 Q591 601 567.5 566 Q544 531 517 497 Q490 463 467 431 Q444 399 428.5 369.5 Q413 340 413 314 L413 48 Q413 34 405 24.5 Q397 15 385.5 9.5 Q374 4 361 1.5 Q348 -1 338 -1 Q330 -1 317 1 Q304 3 292 8 Q280 13 271.5 21 Q263 29 263 41 L263 307 Q263 308 259 319 Q255 330 253 335 Q250 339 245 349.5 Q240 360 235 370.5 Q230 381 225 390.5 Q220 400 218 403 Q212 414 199.5 436.5 Q187 459 171 487 Q155 515 137 546.5 Q119 578 103 606 Q87 634 74 656.5 Q61 679 55 689 Z " />
<glyph glyph-name="Z" unicode="Z" horiz-adv-x="679" d="M47 75 Q47 109 57 133 Q67 157 89 184 Q95 193 116 219 Q137 245 165.5 280 Q194 315 225.5 355 Q257 395 285 430 Q313 465 334 491 Q355 517 362 526 Q373 540 381.5 551.5 Q390 563 390 581 Q390 597 377 607.5 Q364 618 348 618 L96 618 Q87 618 80.5 625.5 Q74 633 69.5 642.5 Q65 652 63 662.5 Q61 673 61 678 Q61 702 74.5 723 Q88 744 116 744 L573 744 Q602 744 615.5 721 Q629 698 629 674 Q629 637 616 609.5 Q603 582 580 553 Q570 540 548 512.5 Q526 485 498.5 451 Q471 417 440.5 379 Q410 341 382.5 306.5 Q355 272 333 245 Q311 218 300 205 Q295 199 287.5 186 Q280 173 280 164 Q280 151 290 138.5 Q300 126 314 126 L587 126 Q597 126 604.5 119 Q612 112 617.5 101.5 Q623 91 625.5 80 Q628 69 628 61 Q628 52 625 41 Q622 30 616 21 Q610 12 601 6 Q592 0 580 0 L96 0 Q80 0 70.5 7.5 Q61 15 55.5 26 Q50 37 48.5 50.5 Q47 64 47 75 Z " />
<glyph glyph-name="bracketleft" unicode="&#x5b;" horiz-adv-x="387" d="M342 707 Q342 683 321.5 677.5 Q301 672 276.5 669.5 Q252 667 232 660.5 Q212 654 212 628 L212 0 Q212 -26 232 -32.5 Q252 -39 276.5 -41.5 Q301 -44 321.5 -49.5 Q342 -55 342 -79 Q342 -93 328 -104.5 Q314 -116 300 -116 L177 -116 Q169 -116 159.5 -112 Q150 -108 141.5 -101.5 Q133 -95 128 -86 Q123 -77 123 -68 L123 696 Q123 705 128 714 Q133 723 141.5 729.5 Q150 736 159.5 740 Q169 744 177 744 L300 744 Q314 744 328 732.5 Q342 721 342 707 Z " />
<glyph glyph-name="backslash" unicode="&#x5c;" horiz-adv-x="349" d="M27 697 Q27 706 29 711.5 Q31 717 41 717 Q49 717 55.5 711.5 Q62 706 67 698.5 Q72 691 76 683 Q80 675 82 669 L314 68 Q314 68 314.5 62 Q315 56 315 53 Q315 42 313.5 34.5 Q312 27 300 27 Q287 27 278.5 39 Q270 51 266 61 L34 662 Q29 676 28 680 Q27 684 27 697 Z " />
<glyph glyph-name="bracketright" unicode="&#x5d;" horiz-adv-x="390" d="M40 -83 Q40 -57 60.5 -50.5 Q81 -44 105.5 -40.5 Q130 -37 150.5 -29 Q171 -21 171 7 L171 621 Q171 649 150.5 657 Q130 665 105.5 668.5 Q81 672 60.5 678.5 Q40 685 40 711 Q40 724 55 734 Q70 744 82 744 L205 744 Q225 744 242 727 Q259 710 259 689 L259 -61 Q259 -82 242 -99 Q225 -116 205 -116 L82 -116 Q70 -116 55 -105.5 Q40 -95 40 -83 Z " />
<glyph glyph-name="underscore" unicode="&#x5f;" horiz-adv-x="704" d="M60 -103 Q60 -92 68 -80 Q76 -68 89 -68 L608 -68 Q622 -68 629 -81 Q636 -94 636 -105 Q636 -122 624.5 -132.5 Q613 -143 594 -143 L102 -143 Q86 -143 73 -131 Q60 -119 60 -103 Z " />
<glyph glyph-name="a" unicode="a" horiz-adv-x="574" d="M40 140 Q40 189 62 218 Q84 247 117 264 Q150 281 188 290.5 Q226 300 259 309 Q292 318 314 330.5 Q336 343 336 368 Q336 391 319 397 Q302 403 284 403 Q265 403 248.5 397.5 Q232 392 216 385.5 Q200 379 183.5 373 Q167 367 148 367 Q137 367 124 368.5 Q111 370 100 375 Q89 380 81.5 388.5 Q74 397 74 412 Q74 444 96.5 465 Q119 486 150 498 Q181 510 215 514.5 Q249 519 273 519 Q308 519 347.5 510 Q387 501 419.5 481 Q452 461 473.5 430 Q495 399 495 355 L495 143 Q505 128 512.5 117 Q520 106 524.5 96 Q529 86 531 76 Q533 66 533 53 Q533 29 518.5 14.5 Q504 0 478 0 Q445 0 416 10.5 Q387 21 355 21 Q336 21 318 16.5 Q300 12 282.5 7 Q265 2 246.5 -2.5 Q228 -7 208 -7 Q173 -7 142.5 2 Q112 11 89 29 Q66 47 53 75 Q40 103 40 140 Z M184 138 Q184 126 190.5 116.5 Q197 107 207 101 Q217 95 229.5 91.5 Q242 88 253 88 Q269 88 286 94 Q303 100 317 110.5 Q331 121 340 135.5 Q349 150 349 167 Q349 192 338.5 198.5 Q328 205 305 205 Q287 205 266 203 Q245 201 227 193.5 Q209 186 196.5 173 Q184 160 184 138 Z " />
<glyph glyph-name="b" unicode="b" horiz-adv-x="616" d="M222 14 Q198 14 176 7 Q154 0 130 0 Q122 0 111 2.5 Q100 5 90.5 10 Q81 15 74.5 22.5 Q68 30 68 41 L68 703 Q68 714 74.5 721.5 Q81 729 90.5 734 Q100 739 111 742 Q122 745 130 745 Q150 745 168 734.5 Q186 724 191 703 Q191 694 192 672 Q193 650 194 625 Q195 600 196 577.5 Q197 555 198 546 Q200 524 208.5 514 Q217 504 238 504 Q266 504 291.5 512 Q317 520 346 520 Q402 520 443.5 497.5 Q485 475 512.5 438.5 Q540 402 553.5 354.5 Q567 307 567 256 Q567 207 554 159.5 Q541 112 514 75 Q487 38 446.5 15.5 Q406 -7 352 -7 Q334 -7 318 -4 Q302 -1 286.5 3.5 Q271 8 255 11 Q239 14 222 14 Z M307 403 Q291 403 273 396 Q255 389 240 377 Q225 365 215 348.5 Q205 332 205 314 L205 198 Q205 180 215 163.5 Q225 147 240 135 Q255 123 273 116 Q291 109 307 109 Q337 109 357.5 122.5 Q378 136 391.5 157.5 Q405 179 411 205 Q417 231 417 256 Q417 281 411 307 Q405 333 391.5 354.5 Q378 376 357.5 389.5 Q337 403 307 403 Z " />
<glyph glyph-name="c" unicode="c" horiz-adv-x="579" d="M47 256 Q47 315 63 363.5 Q79 412 110.5 446.5 Q142 481 189 500.5 Q236 520 297 520 Q320 520 357.5 514.5 Q395 509 431 495.5 Q467 482 493 459.5 Q519 437 519 403 Q519 389 511.5 377.5 Q504 366 492 358 Q480 350 466.5 345.5 Q453 341 441 341 Q420 341 404 351.5 Q388 362 372.5 375 Q357 388 340 399 Q323 410 300 410 Q270 410 249 395 Q228 380 215 357.5 Q202 335 196.5 308 Q191 281 191 256 Q191 230 197.5 204 Q204 178 217.5 157 Q231 136 252.5 122.5 Q274 109 304 109 Q323 109 339.5 116.5 Q356 124 371.5 133 Q387 142 403 150 Q419 158 438 158 Q449 158 463 153 Q477 148 489.5 139.5 Q502 131 510.5 120 Q519 109 519 96 Q519 64 493 44 Q467 24 431.5 12.5 Q396 1 360 -3 Q324 -7 304 -7 Q180 -7 113.5 63.5 Q47 134 47 256 Z " />
<glyph glyph-name="d" unicode="d" horiz-adv-x="631" d="M47 256 Q47 306 60 353.5 Q73 401 99.5 438 Q126 475 166.5 497 Q207 519 263 519 Q279 519 293 516 Q307 513 321 508.5 Q335 504 349 501 Q363 498 378 498 Q382 498 389 498.5 Q396 499 403 501 Q410 503 415 507.5 Q420 512 420 519 L420 689 Q420 702 426.5 712.5 Q433 723 443 730 Q453 737 465 740.5 Q477 744 488 744 Q496 744 507.5 742 Q519 740 529 735 Q539 730 546 722 Q553 714 553 703 L553 41 Q553 30 546 22 Q539 14 528.5 9 Q518 4 507 1.5 Q496 -1 487 -1 Q463 -1 441.5 10 Q420 21 396 21 Q378 21 361.5 16.5 Q345 12 328.5 7 Q312 2 295 -2.5 Q278 -7 259 -7 Q204 -7 164 16 Q124 39 98 76 Q72 113 59.5 160.5 Q47 208 47 256 Z M191 256 Q191 231 198.5 205 Q206 179 220.5 157.5 Q235 136 257 122.5 Q279 109 307 109 Q337 109 358 122.5 Q379 136 392 157.5 Q405 179 411 205 Q417 231 417 256 Q417 281 411 307.5 Q405 334 392 355 Q379 376 358 389.5 Q337 403 307 403 Q278 403 256 389.5 Q234 376 219.5 355 Q205 334 198 307.5 Q191 281 191 256 Z " />
<glyph glyph-name="e" unicode="e" horiz-adv-x="586" d="M47 256 Q47 381 114.5 450 Q182 519 307 519 Q354 519 399.5 507 Q445 495 480.5 469 Q516 443 538.5 404 Q561 365 561 311 Q561 307 560.5 295 Q560 283 560 280 Q558 277 550 269.5 Q542 262 539 259 Q537 257 531.5 253 Q526 249 526 249 L239 249 Q231 249 224 243.5 Q217 238 211 230.5 Q205 223 201.5 214 Q198 205 198 198 Q198 179 208 162.5 Q218 146 233.5 134 Q249 122 268 115.5 Q287 109 304 109 Q323 109 339.5 115.5 Q356 122 372 130 Q388 138 404 144.5 Q420 151 439 151 Q450 151 465.5 147.5 Q481 144 494.5 137.5 Q508 131 517.5 120.5 Q527 110 527 96 Q527 63 499.5 42.5 Q472 22 435.5 11 Q399 0 360.5 -3.5 Q322 -7 300 -7 Q239 -7 192 11.5 Q145 30 112.5 64 Q80 98 63.5 146.5 Q47 195 47 256 Z M252 375 Q252 364 258 358 Q264 352 273 349.5 Q282 347 292 347.5 Q302 348 311 348 Q318 348 328 348.5 Q338 349 347 351.5 Q356 354 362.5 359.5 Q369 365 369 376 Q369 386 363 393 Q357 400 348 403.5 Q339 407 328.5 408.5 Q318 410 311 410 Q302 410 292 408.5 Q282 407 273 403.5 Q264 400 258 393 Q252 386 252 375 Z " />
<glyph glyph-name="f" unicode="f" horiz-adv-x="450" d="M34 461 Q34 477 41 488 Q48 499 58.5 508 Q69 517 81 526 Q93 535 102 546 Q107 552 109.5 560.5 Q112 569 113 578.5 Q114 588 114.5 596 Q115 604 116 608 Q128 686 175.5 715.5 Q223 745 298 745 Q312 745 325.5 742 Q339 739 350.5 732 Q362 725 369 714 Q376 703 376 686 Q376 657 356.5 645.5 Q337 634 314 626 Q291 618 271.5 606.5 Q252 595 252 566 Q252 538 270.5 529 Q289 520 311 514 Q333 508 351 497 Q369 486 369 455 Q369 429 350.5 420 Q332 411 309.5 405.5 Q287 400 268 392.5 Q249 385 249 362 L249 55 Q249 42 242.5 31.5 Q236 21 226 14 Q216 7 204 3 Q192 -1 182 -1 Q172 -1 160 2 Q148 5 137.5 11 Q127 17 120 26 Q113 35 113 48 L113 362 Q113 377 100.5 387 Q88 397 73 407 Q58 417 46 429.5 Q34 442 34 461 Z " />
<glyph glyph-name="g" unicode="g" horiz-adv-x="621" d="M54 -134 Q54 -104 72 -96 Q90 -88 117 -88 Q142 -88 163 -96.5 Q184 -105 204 -115.5 Q224 -126 245 -135 Q266 -144 290 -144 Q342 -144 376 -114 Q410 -84 410 -30 Q410 -8 402.5 6.5 Q395 21 370 21 Q355 21 341 18 Q327 15 313.5 11 Q300 7 285.5 3.5 Q271 0 256 0 Q197 0 157 21.5 Q117 43 92.5 79 Q68 115 57.5 162 Q47 209 47 259 Q47 311 58 358 Q69 405 93 441 Q117 477 156.5 498 Q196 519 253 519 Q271 519 287.5 516 Q304 513 320 508.5 Q336 504 352 500.5 Q368 497 385 497 Q410 497 431.5 505 Q453 513 477 513 Q501 513 523.5 500 Q546 487 546 457 L546 0 Q546 -61 528 -109 Q510 -157 476 -190.5 Q442 -224 394 -242 Q346 -260 287 -260 Q258 -260 218 -255 Q178 -250 141.5 -236.5 Q105 -223 79.5 -198.5 Q54 -174 54 -134 Z M191 259 Q191 234 197 209.5 Q203 185 216.5 165.5 Q230 146 251 134 Q272 122 300 122 Q328 122 348.5 133.5 Q369 145 382.5 164 Q396 183 403 207 Q410 231 410 256 Q410 280 403.5 306.5 Q397 333 384 354.5 Q371 376 350 389.5 Q329 403 300 403 Q271 403 250.5 390 Q230 377 216.5 356.5 Q203 336 197 310 Q191 284 191 259 Z " />
<glyph glyph-name="h" unicode="h" horiz-adv-x="602" d="M130 745 Q137 745 148 742 Q159 739 169.5 733.5 Q180 728 187.5 720.5 Q195 713 195 703 L195 532 Q195 527 199 519.5 Q203 512 209 506 Q215 500 222 495.5 Q229 491 235 491 Q265 491 292.5 502 Q320 513 351 513 Q390 513 422 500 Q454 487 477 464 Q500 441 513 408 Q526 375 526 335 L526 48 Q526 35 519.5 26 Q513 17 503.5 11 Q494 5 482.5 2.5 Q471 0 461 0 Q451 0 439 2.5 Q427 5 417 11 Q407 17 400 26 Q393 35 393 48 L393 314 Q393 333 383.5 346 Q374 359 359.5 367.5 Q345 376 328.5 379.5 Q312 383 298 383 Q281 383 262.5 377 Q244 371 229 359.5 Q214 348 204.5 331 Q195 314 195 294 L195 34 Q195 25 187 18.5 Q179 12 168.5 8 Q158 4 147 2 Q136 0 130 0 Q122 0 111 2.5 Q100 5 90.5 10 Q81 15 74.5 23 Q68 31 68 41 L68 703 Q68 714 74.5 721.5 Q81 729 90.5 734 Q100 739 111 742 Q122 745 130 745 Z " />
<glyph glyph-name="i" unicode="i" horiz-adv-x="265" d="M123 513 Q130 513 140.5 511 Q151 509 160.5 505 Q170 501 177 494.5 Q184 488 184 478 L184 34 Q184 25 177 18 Q170 11 160 7 Q150 3 139.5 1.5 Q129 0 123 0 Q115 0 104 2.5 Q93 5 84 10 Q75 15 68 23 Q61 31 61 41 L61 478 Q61 488 68 495 Q75 502 85 506 Q95 510 105.5 511.5 Q116 513 123 513 Z M54 655 Q54 695 68.5 709.5 Q83 724 123 724 Q163 724 177.5 709.5 Q192 695 192 655 Q192 616 177.5 601 Q163 586 123 586 Q83 586 68.5 601 Q54 616 54 655 Z " />
<glyph glyph-name="j" unicode="j" horiz-adv-x="284" d="M-20 -157 Q-20 -131 -5 -116 Q10 -101 29 -85 Q48 -69 63.5 -47.5 Q79 -26 79 14 L79 478 Q79 487 86.5 493.5 Q94 500 105 504.5 Q116 509 127 511 Q138 513 143 513 Q150 513 160.5 511.5 Q171 510 181 506 Q191 502 198 495 Q205 488 205 478 L205 -82 Q205 -114 193 -138.5 Q181 -163 160.5 -179.5 Q140 -196 113.5 -204 Q87 -212 57 -212 Q45 -212 31 -210 Q17 -208 5.5 -201.5 Q-6 -195 -13 -184.5 Q-20 -174 -20 -157 Z M74 655 Q74 695 89 709.5 Q104 724 143 724 Q181 724 196.5 710.5 Q212 697 212 659 Q212 618 198 602 Q184 586 143 586 Q104 586 89 601 Q74 616 74 655 Z " />
<glyph glyph-name="k" unicode="k" horiz-adv-x="546" d="M130 745 Q137 745 148 742 Q159 739 169.5 733.5 Q180 728 187.5 720.5 Q195 713 195 703 L195 451 Q195 439 206 427.5 Q217 416 228 416 Q252 416 271 431 Q290 446 309.5 464 Q329 482 353.5 497.5 Q378 513 413 513 Q417 513 431.5 512.5 Q446 512 451 512 Q458 509 468 502 Q478 495 478 485 Q478 482 475.5 474 Q473 466 471 464 Q462 455 447 441 Q432 427 417.5 410 Q403 393 392.5 374.5 Q382 356 382 338 Q382 299 401.5 262 Q421 225 444 189 Q467 153 486.5 116.5 Q506 80 506 41 Q506 27 499 19 Q492 11 481.5 6.5 Q471 2 459 0.5 Q447 -1 437 -1 Q403 -1 381 15 Q359 31 345 54.5 Q331 78 321.5 105.5 Q312 133 302 157 Q292 181 279.5 196.5 Q267 212 246 212 Q233 212 224.5 205 Q216 198 210.5 187.5 Q205 177 202 165 Q199 153 198 143 Q197 137 196 121.5 Q195 106 194 88.5 Q193 71 192 55.5 Q191 40 191 34 Q178 16 164.5 8 Q151 0 130 0 Q122 0 111 2.5 Q100 5 90.5 10 Q81 15 74.5 23 Q68 31 68 41 L68 703 Q68 714 74.5 721.5 Q81 729 90.5 734 Q100 739 111 742 Q122 745 130 745 Z " />
<glyph glyph-name="l" unicode="l" horiz-adv-x="265" d="M123 745 Q130 745 140 743 Q150 741 160 737 Q170 733 177 726 Q184 719 184 710 L184 34 Q184 25 177 18 Q170 11 160 7 Q150 3 139.5 1.5 Q129 0 123 0 Q115 0 104 2.5 Q93 5 84 10 Q75 15 68 23 Q61 31 61 41 L61 703 Q61 714 68 721.5 Q75 729 84 734 Q93 739 104 742 Q115 745 123 745 Z " />
<glyph glyph-name="m" unicode="m" horiz-adv-x="922" d="M130 513 Q143 513 155 509.5 Q167 506 179 502 Q191 498 203.5 494.5 Q216 491 229 491 Q245 491 260 494.5 Q275 498 290.5 502 Q306 506 321.5 509.5 Q337 513 354 513 Q378 513 398 504.5 Q418 496 436.5 485.5 Q455 475 473 466 Q491 457 512 457 Q533 457 552.5 465.5 Q572 474 591.5 484.5 Q611 495 631.5 504 Q652 513 677 513 Q708 513 738.5 502.5 Q769 492 793 472.5 Q817 453 832 425 Q847 397 847 362 L847 41 Q847 31 840 23 Q833 15 823.5 10 Q814 5 803.5 2.5 Q793 0 785 0 Q778 0 766.5 2.5 Q755 5 745 10.5 Q735 16 727.5 23.5 Q720 31 720 41 L720 300 Q720 320 711.5 335.5 Q703 351 689.5 361.5 Q676 372 658.5 377.5 Q641 383 625 383 Q611 383 594.5 379 Q578 375 563.5 366.5 Q549 358 539 345 Q529 332 529 314 L529 55 Q529 42 522.5 31.5 Q516 21 506 14 Q496 7 484 3 Q472 -1 462 -1 Q454 -1 442 1.5 Q430 4 419 9.5 Q408 15 400.5 22.5 Q393 30 393 41 L393 314 Q393 333 383.5 346 Q374 359 359.5 367.5 Q345 376 328.5 379.5 Q312 383 298 383 Q281 383 262.5 377 Q244 371 229 359.5 Q214 348 204.5 331 Q195 314 195 294 L195 34 Q195 25 187 18.5 Q179 12 168.5 8 Q158 4 147 2 Q136 0 130 0 Q122 0 111 2.5 Q100 5 90.5 10 Q81 15 74.5 23 Q68 31 68 41 L68 478 Q68 488 75 495 Q82 502 92 506 Q102 510 112.5 511.5 Q123 513 130 513 Z " />
<glyph glyph-name="n" unicode="n" horiz-adv-x="597" d="M130 513 Q143 513 155 509.5 Q167 506 179 502 Q191 498 203.5 494.5 Q216 491 229 491 Q245 491 259.5 494.5 Q274 498 289 502 Q304 506 319 509.5 Q334 513 351 513 Q390 513 422 500 Q454 487 477 464 Q500 441 513 408 Q526 375 526 335 L526 48 Q526 35 519.5 26 Q513 17 503.5 11 Q494 5 482.5 2.5 Q471 0 461 0 Q451 0 439 2.5 Q427 5 417 11 Q407 17 400 26 Q393 35 393 48 L393 314 Q393 333 383.5 346 Q374 359 359.5 367.5 Q345 376 328.5 379.5 Q312 383 298 383 Q281 383 262.5 377 Q244 371 229 359.5 Q214 348 204.5 331 Q195 314 195 294 L195 34 Q195 25 187 18.5 Q179 12 168.5 8 Q158 4 147 2 Q136 0 130 0 Q122 0 111 2.5 Q100 5 90.5 10 Q81 15 74.5 23 Q68 31 68 41 L68 478 Q68 488 75 495 Q82 502 92 506 Q102 510 112.5 511.5 Q123 513 130 513 Z " />
<glyph glyph-name="o" unicode="o" horiz-adv-x="614" d="M47 256 Q47 317 63.5 365.5 Q80 414 112.5 448 Q145 482 192 500.5 Q239 519 300 519 Q363 519 410.5 500 Q458 481 490 446.5 Q522 412 538 362.5 Q554 313 554 252 Q554 131 488 62 Q422 -7 300 -7 Q239 -7 191.5 11.5 Q144 30 112 64.5 Q80 99 63.5 147.5 Q47 196 47 256 Z M191 259 Q191 233 196 205 Q201 177 213.5 154 Q226 131 247 116 Q268 101 300 101 Q332 101 353 115.5 Q374 130 386.5 152 Q399 174 404.5 201.5 Q410 229 410 256 Q410 281 405 309.5 Q400 338 387.5 361.5 Q375 385 353.5 400.5 Q332 416 300 416 Q270 416 249 401 Q228 386 215 363 Q202 340 196.5 312 Q191 284 191 259 Z " />
<glyph glyph-name="p" unicode="p" horiz-adv-x="624" d="M129 513 Q153 513 175.5 505.5 Q198 498 222 498 Q238 498 253 501.5 Q268 505 283 509 Q298 513 313 516.5 Q328 520 345 520 Q400 520 442 498 Q484 476 511.5 439.5 Q539 403 553 355.5 Q567 308 567 256 Q567 206 553.5 159 Q540 112 513 75 Q486 38 445.5 15 Q405 -8 350 -8 Q320 -8 293.5 0 Q267 8 238 8 Q213 8 202.5 -14.5 Q192 -37 189.5 -65.5 Q187 -94 189 -121 Q191 -148 191 -157 Q178 -175 164.5 -183.5 Q151 -192 130 -192 Q122 -192 111 -189 Q100 -186 90.5 -181 Q81 -176 74.5 -168.5 Q68 -161 68 -150 L68 478 Q68 488 75 494.5 Q82 501 91.5 505 Q101 509 111.5 511 Q122 513 129 513 Z M307 403 Q291 403 273 396 Q255 389 240 377 Q225 365 215 348.5 Q205 332 205 314 L205 198 Q205 180 215 164 Q225 148 240 135.5 Q255 123 273 116 Q291 109 307 109 Q337 109 357.5 123 Q378 137 391.5 158.5 Q405 180 411 206 Q417 232 417 256 Q417 281 411 307 Q405 333 391.5 354.5 Q378 376 357.5 389.5 Q337 403 307 403 Z " />
<glyph glyph-name="q" unicode="q" horiz-adv-x="631" d="M382 14 Q366 14 351 11 Q336 8 321 3.5 Q306 -1 291 -4 Q276 -7 259 -7 Q204 -7 164 16 Q124 39 98 76 Q72 113 59.5 160.5 Q47 208 47 256 Q47 306 60 353.5 Q73 401 99.5 438 Q126 475 166.5 497 Q207 519 263 519 Q281 519 297.5 515 Q314 511 330.5 505.5 Q347 500 363 495.5 Q379 491 396 491 Q421 491 443 502 Q465 513 491 513 Q499 513 509.5 510.5 Q520 508 530 503 Q540 498 546.5 490 Q553 482 553 471 L553 -150 Q553 -162 546 -170 Q539 -178 528.5 -182.5 Q518 -187 507 -189.5 Q496 -192 487 -192 Q477 -192 465 -188 Q453 -184 443 -177 Q433 -170 426.5 -159.5 Q420 -149 420 -137 L420 -7 Q420 0 415.5 4.5 Q411 9 405 11 Q399 13 392.5 13.5 Q386 14 382 14 Z M191 256 Q191 231 198.5 205 Q206 179 220.5 157.5 Q235 136 257 122.5 Q279 109 307 109 Q337 109 358 122.5 Q379 136 392 157.5 Q405 179 411 205 Q417 231 417 256 Q417 281 411 307.5 Q405 334 392 355 Q379 376 358 389.5 Q337 403 307 403 Q278 403 256 389.5 Q234 376 219.5 355 Q205 334 198 307.5 Q191 281 191 256 Z " />
<glyph glyph-name="r" unicode="r" horiz-adv-x="407" d="M131 513 Q157 513 173.5 505.5 Q190 498 218 478 Q224 477 229 477 Q242 477 254.5 481.5 Q267 486 279.5 491.5 Q292 497 305 501.5 Q318 506 331 506 Q362 506 372.5 485 Q383 464 383 437 Q383 398 362 380.5 Q341 363 313 351 Q285 339 256 325 Q227 311 212 280 Q206 269 202.5 248 Q199 227 198 218 Q197 208 196 182 Q195 156 194 126.5 Q193 97 192 71 Q191 45 191 34 Q178 16 164.5 8 Q151 0 130 0 Q122 0 111 2.5 Q100 5 90.5 10 Q81 15 74.5 23 Q68 31 68 41 L68 478 Q68 488 75 495 Q82 502 92 506 Q102 510 113 511.5 Q124 513 131 513 Z " />
<glyph glyph-name="s" unicode="s" horiz-adv-x="524" d="M47 104 Q47 116 55 126 Q63 136 74.5 143 Q86 150 99 153.5 Q112 157 123 157 Q143 157 160.5 149.5 Q178 142 195.5 133 Q213 124 231 116.5 Q249 109 270 109 Q279 109 289.5 109.5 Q300 110 308.5 113.5 Q317 117 323 124 Q329 131 329 143 Q329 162 308.5 173.5 Q288 185 257.5 195 Q227 205 191.5 216 Q156 227 125.5 246 Q95 265 74.5 294 Q54 323 54 369 Q54 410 73.5 438 Q93 466 122.5 482.5 Q152 499 187.5 506 Q223 513 256 513 Q259 513 267.5 512.5 Q276 512 285 512 Q294 512 302.5 512 Q311 512 314 512 Q330 508 353 499 Q376 490 398 477 Q420 464 435.5 447 Q451 430 451 410 Q451 396 444 386 Q437 376 426.5 369 Q416 362 403 358 Q390 354 379 354 Q360 354 345 363 Q330 372 315 382.5 Q300 393 284.5 401.5 Q269 410 249 410 Q230 410 217 401.5 Q204 393 204 372 Q204 352 224.5 340 Q245 328 276.5 318 Q308 308 344.5 296.5 Q381 285 412.5 266 Q444 247 464.5 218 Q485 189 485 143 Q485 100 463.5 72 Q442 44 409.5 28 Q377 12 338.5 5.5 Q300 -1 266 -1 Q243 -1 206 3 Q169 7 133.5 18 Q98 29 72.5 49.5 Q47 70 47 104 Z " />
<glyph glyph-name="t" unicode="t" horiz-adv-x="385" d="M82 362 Q79 378 67.5 388.5 Q56 399 44 409.5 Q32 420 22.5 431.5 Q13 443 13 461 Q13 477 19.5 487 Q26 497 35.5 505 Q45 513 56 520.5 Q67 528 75 539 Q89 558 93.5 588.5 Q98 619 105.5 647.5 Q113 676 130.5 697 Q148 718 187 718 Q195 718 208.5 714 Q222 710 222 696 L222 560 Q222 538 238.5 529 Q255 520 275 512.5 Q295 505 312 493.5 Q329 482 329 455 Q329 431 312.5 421.5 Q296 412 277 404.5 Q258 397 241.5 387.5 Q225 378 225 355 L225 164 Q225 141 242 130.5 Q259 120 279.5 112 Q300 104 317.5 92.5 Q335 81 335 55 Q335 32 319.5 19.5 Q304 7 287 0 Q284 0 277 0 Q270 0 262.5 0 Q255 0 248.5 -0.5 Q242 -1 239 -1 Q188 -1 156.5 14.5 Q125 30 108 56.5 Q91 83 85 118.5 Q79 154 78.5 194.5 Q78 235 80 278 Q82 321 82 362 Z " />
<glyph glyph-name="u" unicode="u" horiz-adv-x="586" d="M123 513 Q134 513 146.5 510 Q159 507 170 500 Q181 493 188 482.5 Q195 472 195 457 L195 177 Q212 156 227 139 Q242 122 273 122 Q294 122 313 132.5 Q332 143 346.5 160 Q361 177 370 197.5 Q379 218 379 239 L379 478 Q379 487 386.5 494 Q394 501 404.5 505 Q415 509 426 511 Q437 513 444 513 Q451 513 461.5 511 Q472 509 481.5 505 Q491 501 498 494.5 Q505 488 505 478 L505 34 Q505 25 498 18 Q491 11 481 7 Q471 3 460.5 1.5 Q450 0 444 0 Q431 0 419.5 4 Q408 8 397 13.5 Q386 19 375 23 Q364 27 352 27 Q335 27 319.5 22 Q304 17 288 10.5 Q272 4 256 -1.5 Q240 -7 222 -7 Q187 -7 157.5 5 Q128 17 106.5 39 Q85 61 73 91 Q61 121 61 157 L61 471 Q61 482 67.5 490 Q74 498 83.5 503 Q93 508 103.5 510.5 Q114 513 123 513 Z " />
<glyph glyph-name="v" unicode="v" horiz-adv-x="549" d="M34 444 L34 492 Q34 500 42.5 504.5 Q51 509 62 511 Q73 513 83.5 513 Q94 513 97 513 Q131 513 151 494 Q171 475 182 447 Q193 419 198.5 386 Q204 353 210.5 324.5 Q217 296 226.5 277.5 Q236 259 255 259 Q275 259 284.5 277.5 Q294 296 300 324.5 Q306 353 312 386 Q318 419 329.5 447 Q341 475 362 494 Q383 513 420 513 Q433 513 445 512 Q457 511 466 507 Q475 503 480.5 494.5 Q486 486 486 470 Q486 467 485.5 459 Q485 451 485 451 L355 68 Q341 28 318.5 13.5 Q296 -1 256 -1 Q225 -1 200 10.5 Q175 22 164 55 L34 444 Z " />
<glyph glyph-name="w" unicode="w" horiz-adv-x="785" d="M150 61 Q146 76 137.5 105 Q129 134 118 171 Q107 208 95.5 249 Q84 290 73 327 Q62 364 53.5 393.5 Q45 423 41 437 Q39 442 36.5 452.5 Q34 463 34 464 Q34 493 52.5 503 Q71 513 96 513 Q129 513 147.5 494.5 Q166 476 176 448.5 Q186 421 190.5 389 Q195 357 200 329.5 Q205 302 213.5 283.5 Q222 265 239 265 Q256 265 264.5 283.5 Q273 302 279 329.5 Q285 357 290.5 389 Q296 421 306.5 448.5 Q317 476 334.5 494.5 Q352 513 382 513 Q412 513 430 494.5 Q448 476 458 449 Q468 422 473.5 390 Q479 358 485 330.5 Q491 303 500 284.5 Q509 266 526 266 Q544 266 552 284.5 Q560 303 564.5 330.5 Q569 358 573 389.5 Q577 421 587 448.5 Q597 476 615.5 494.5 Q634 513 667 513 Q679 513 691.5 511.5 Q704 510 714 505.5 Q724 501 730.5 492 Q737 483 737 468 Q737 465 737 464 Q737 462 734 451.5 Q731 441 730 437 Q726 420 717 390 Q708 360 698 324 Q688 288 676.5 249.5 Q665 211 655.5 177 Q646 143 638.5 117.5 Q631 92 628 82 Q617 44 597 21.5 Q577 -1 536 -1 Q504 -1 485 14.5 Q466 30 455 53 Q444 76 438.5 102.5 Q433 129 427 152 Q421 175 412 190.5 Q403 206 386 206 Q368 206 359 190.5 Q350 175 344 152 Q338 129 332.5 102.5 Q327 76 316 53 Q305 30 286.5 14.5 Q268 -1 236 -1 Q204 -1 182 14 Q160 29 150 61 Z " />
<glyph glyph-name="x" unicode="x" horiz-adv-x="587" d="M20 34 Q20 70 43.5 100.5 Q67 131 95.5 160.5 Q124 190 147.5 221.5 Q171 253 171 290 Q171 310 158 334.5 Q145 359 127.5 383 Q110 407 93 427 Q76 447 68 457 Q68 460 68 468 Q68 476 68 478 Q68 493 73 500 Q78 507 87 510 Q96 513 107.5 513 Q119 513 132 513 Q156 513 173.5 502 Q191 491 206.5 478 Q222 465 237.5 454 Q253 443 273 443 Q275 443 280 443.5 Q285 444 287 444 Q306 463 320 476 Q334 489 348 497 Q362 505 378.5 509 Q395 513 420 513 Q424 513 438.5 512.5 Q453 512 457 512 Q486 504 486 474 Q486 473 485.5 466 Q485 459 485 457 Q473 441 455.5 420 Q438 399 421.5 376 Q405 353 393 329.5 Q381 306 381 283 Q381 247 404 216.5 Q427 186 454.5 157.5 Q482 129 504.5 99 Q527 69 527 32 Q527 20 522 13 Q517 6 508.5 3 Q500 0 490 -0.5 Q480 -1 470 -1 Q429 -1 404.5 19.5 Q380 40 361 65 Q342 90 324 110.5 Q306 131 280 131 Q254 131 236.5 110.5 Q219 90 199.5 65 Q180 40 154.5 19.5 Q129 -1 89 -1 Q79 -1 67 -0.5 Q55 0 44.5 3 Q34 6 27 13 Q20 20 20 34 Z " />
<glyph glyph-name="y" unicode="y" horiz-adv-x="564" d="M61 -188 Q61 -166 71 -153.5 Q81 -141 96.5 -133 Q112 -125 130 -119.5 Q148 -114 163 -106 Q178 -98 188 -84.5 Q198 -71 198 -48 Q198 -31 197.5 -24.5 Q197 -18 191 0 L48 451 Q48 451 47.5 457 Q47 463 47 466 Q47 495 64 504 Q81 513 107 513 Q139 513 160 501.5 Q181 490 191 457 Q193 448 199 425 Q205 402 211.5 375.5 Q218 349 224 326 Q230 303 232 294 Q234 288 236.5 279.5 Q239 271 243 263.5 Q247 256 252.5 250.5 Q258 245 266 245 Q273 245 278.5 250 Q284 255 288.5 261.5 Q293 268 296 275 Q299 282 300 287 L348 457 Q357 490 381 501.5 Q405 513 435 513 Q447 513 459 512 Q471 511 481.5 506.5 Q492 502 498.5 492.5 Q505 483 505 468 Q505 465 505 464 Q504 461 502.5 454.5 Q501 448 498.5 440 Q496 432 494 425.5 Q492 419 492 416 Q485 396 471 354 Q457 312 439.5 258.5 Q422 205 403 146.5 Q384 88 366.5 35 Q349 -18 335 -60.5 Q321 -103 314 -123 Q290 -187 246 -216.5 Q202 -246 132 -246 Q104 -246 82.5 -233 Q61 -220 61 -188 Z " />
<glyph glyph-name="z" unicode="z" horiz-adv-x="484" d="M33 55 Q33 78 44 98 Q55 118 68 137 Q77 148 98 176 Q119 204 143 235.5 Q167 267 188.5 295 Q210 323 218 335 Q222 340 227 352 Q232 364 232 369 Q232 382 217 392 Q202 402 191 403 Q185 403 169.5 404.5 Q154 406 136.5 407 Q119 408 103.5 408.5 Q88 409 82 410 Q65 414 56 427.5 Q47 441 47 457 Q47 465 50 474.5 Q53 484 59 492.5 Q65 501 72.5 506.5 Q80 512 89 512 L396 512 Q420 512 429 493.5 Q438 475 438 456 Q438 425 423 398.5 Q408 372 386 347.5 Q364 323 338 300 Q312 277 290 253 Q268 229 253 203 Q238 177 238 147 Q238 127 249 119 Q260 111 280 109 Q288 109 308.5 107.5 Q329 106 351.5 105 Q374 104 394.5 103.5 Q415 103 423 102 Q438 97 448 84 Q458 71 458 55 Q458 36 444 18 Q430 0 410 0 L82 0 Q58 0 45.5 17 Q33 34 33 55 Z " />
<glyph glyph-name="braceleft" unicode="&#x7b;" horiz-adv-x="373" d="M68 300 Q68 314 77 325 Q86 336 97 346 Q108 356 117 366 Q126 376 126 389 L126 608 Q126 637 139.5 662.5 Q153 688 174 706 Q195 724 222 734 Q249 744 277 744 Q283 744 291.5 742 Q300 740 308 736 Q316 732 322 725.5 Q328 719 328 710 Q328 688 310 679 Q292 670 271 662.5 Q250 655 232.5 644 Q215 633 215 608 L215 396 Q215 384 210 372.5 Q205 361 199.5 349 Q194 337 189 325 Q184 313 184 300 Q184 288 189 276 Q194 264 199.5 252 Q205 240 210 228.5 Q215 217 215 205 L215 -7 Q215 -32 232.5 -42.5 Q250 -53 271 -61 Q292 -69 310 -78.5 Q328 -88 328 -109 Q328 -116 322.5 -122.5 Q317 -129 309 -133.5 Q301 -138 293 -140.5 Q285 -143 280 -143 Q252 -143 224.5 -133.5 Q197 -124 175 -106 Q153 -88 139.5 -62.5 Q126 -37 126 -7 L126 212 Q126 224 117 234.5 Q108 245 97 255 Q86 265 77 276 Q68 287 68 300 Z " />
<glyph glyph-name="bar" unicode="&#x7c;" horiz-adv-x="179" d="M90 786 Q106 786 118 769.5 Q130 753 130 737 L130 -239 Q130 -259 118 -273.5 Q106 -288 86 -288 Q74 -288 61 -281 Q48 -274 48 -259 L48 751 Q48 771 61.5 778.5 Q75 786 90 786 Z " />
<glyph glyph-name="braceright" unicode="&#x7d;" horiz-adv-x="373" d="M40 -110 Q40 -88 58 -78 Q76 -68 97 -60 Q118 -52 136 -39.5 Q154 -27 154 0 L154 212 Q154 212 158 222.5 Q162 233 164 239 Q169 251 177 268.5 Q185 286 185 300 Q185 315 177 332.5 Q169 350 164 362 Q162 368 158 378.5 Q154 389 154 389 L154 601 Q154 628 136 640 Q118 652 97 660.5 Q76 669 58 678.5 Q40 688 40 711 Q40 727 58 735.5 Q76 744 89 744 Q108 744 133 737 Q158 730 181 717 Q204 704 220 685 Q236 666 236 642 L236 416 Q236 397 246 383 Q256 369 268 356.5 Q280 344 290 331 Q300 318 300 300 Q300 284 290 271.5 Q280 259 268 247 Q256 235 246 222 Q236 209 236 191 L236 -34 Q236 -60 222 -79.5 Q208 -99 187.5 -111.5 Q167 -124 143 -130.5 Q119 -137 99 -137 Q95 -137 80.5 -137 Q66 -137 61 -137 Q50 -130 45 -125 Q40 -120 40 -110 Z " />
<glyph glyph-name="[namenotfound]" unicode="&#xa0;" horiz-adv-x="247" d="" />
<glyph glyph-name="exclamdown" unicode="&#xa1;" horiz-adv-x="251" d="M123 273 Q143 273 157 246 Q171 219 180.5 184.5 Q190 150 194 117.5 Q198 85 198 75 L198 -191 Q198 -200 185.5 -212.5 Q173 -225 164 -225 L82 -225 Q73 -225 60.5 -212.5 Q48 -200 48 -191 L48 82 Q48 95 52 127 Q56 159 65.5 191 Q75 223 89 248 Q103 273 123 273 Z M54 444 Q54 448 54 461 Q54 474 55 478 Q62 501 82.5 507 Q103 513 123 513 Q160 513 176 496 Q192 479 192 442 Q192 407 176.5 387.5 Q161 368 123 368 Q84 368 69 388 Q54 408 54 444 Z " />
<glyph glyph-name="cent" unicode="&#xa2;" horiz-adv-x="575" d="M47 256 Q47 322 58 360 Q69 398 91.5 424 Q114 450 149 471.5 Q184 493 232 526 Q244 534 251.5 542.5 Q259 551 265 558 Q271 565 279 569.5 Q287 574 300 574 Q314 574 322 569.5 Q330 565 336 558 Q342 551 349 542.5 Q356 534 369 526 Q396 507 426.5 491.5 Q457 476 482 456 Q507 436 523.5 409 Q540 382 540 341 Q540 329 534.5 313.5 Q529 298 520 284.5 Q511 271 498.5 262 Q486 253 471 253 L362 253 Q354 253 349.5 245.5 Q345 238 343 228.5 Q341 219 341 210 Q341 201 341 198 Q341 174 346.5 162 Q352 150 379 150 Q393 150 404.5 153.5 Q416 157 430 157 Q443 157 457.5 153 Q472 149 484.5 141 Q497 133 505 121.5 Q513 110 513 96 Q513 65 488 44.5 Q463 24 430 7 Q397 -10 364 -25.5 Q331 -41 314 -61 L287 -61 Q255 -24 225 -3.5 Q195 17 168 32 Q141 47 119 60.5 Q97 74 81 97 Q65 120 56 157 Q47 194 47 256 Z M191 256 Q191 246 191.5 229 Q192 212 196.5 196 Q201 180 209.5 168 Q218 156 235 156 Q243 156 251 161.5 Q259 167 259 177 L259 341 Q259 350 251 356 Q243 362 236 362 Q219 362 209.5 349.5 Q200 337 196 319.5 Q192 302 191.5 284 Q191 266 191 256 Z " />
<glyph glyph-name="guillemotleft" unicode="&#xab;" horiz-adv-x="628" d="M82 260 Q82 281 100 314.5 Q118 348 144.5 380 Q171 412 202.5 435 Q234 458 260 458 Q278 458 286.5 452 Q295 446 295 427 Q295 425 294.5 418.5 Q294 412 294 410 Q282 395 267.5 377.5 Q253 360 239.5 340.5 Q226 321 214.5 300.5 Q203 280 198 259 Q198 259 198 256 Q198 246 206 229 Q214 212 218 205 Q222 199 233 184.5 Q244 170 256 153.5 Q268 137 278.5 122.5 Q289 108 294 102 Q294 100 294.5 93.5 Q295 87 295 85 Q295 66 286.5 60 Q278 54 260 54 Q233 54 201.5 76.5 Q170 99 143.5 131.5 Q117 164 99.5 199.5 Q82 235 82 260 Z M293 255 Q293 280 311 314.5 Q329 349 356 381 Q383 413 414 435.5 Q445 458 472 458 Q490 458 498 452 Q506 446 506 427 Q506 425 505.5 418.5 Q505 412 505 410 Q500 403 484.5 385 Q469 367 452 344.5 Q435 322 422 298 Q409 274 409 255 Q409 240 413.5 231 Q418 222 430 205 Q434 199 444.5 184.5 Q455 170 467 153.5 Q479 137 490 122.5 Q501 108 505 102 Q505 100 505.5 93.5 Q506 87 506 85 Q506 66 498 60 Q490 54 472 54 Q447 54 416 78 Q385 102 357.5 135.5 Q330 169 311.5 202.5 Q293 236 293 255 Z " />
<glyph glyph-name="logicalnot" unicode="&#xac;" horiz-adv-x="570" d="M54 259 Q54 266 55.5 275.5 Q57 285 61.5 293.5 Q66 302 72.5 308 Q79 314 89 314 L471 314 Q485 314 498.5 300.5 Q512 287 512 273 L512 96 Q512 83 504.5 75 Q497 67 486.5 62.5 Q476 58 464 56 Q452 54 444 54 Q416 54 401.5 65 Q387 76 380 92.5 Q373 109 370.5 128 Q368 147 364.5 163.5 Q361 180 353 190.5 Q345 201 328 201 L96 201 Q84 201 76.5 207 Q69 213 64 222 Q59 231 56.5 241 Q54 251 54 259 Z " />
<glyph glyph-name="periodcentered" unicode="&#xb7;" horiz-adv-x="249" d="M118 328 Q192 328 192 256 Q192 221 176 202.5 Q160 184 123 184 Q116 184 104.5 185 Q93 186 82 190 Q71 194 63 200.5 Q55 207 55 218 L55 294 Q55 304 62 310.5 Q69 317 79 321 Q89 325 100 326.5 Q111 328 118 328 Z " />
<glyph glyph-name="guillemotright" unicode="&#xbb;" horiz-adv-x="610" d="M74 81 Q74 107 89.5 127.5 Q105 148 123 168.5 Q141 189 156 210.5 Q171 232 171 258 Q171 284 156 305 Q141 326 123 345.5 Q105 365 90 385 Q75 405 75 430 Q75 449 87.5 453.5 Q100 458 116 458 Q142 458 172 436 Q202 414 227.5 383 Q253 352 270.5 317 Q288 282 288 256 Q288 229 270.5 194 Q253 159 226.5 128 Q200 97 169 75.5 Q138 54 111 54 Q98 54 86 60 Q74 66 74 81 Z M286 82 Q286 107 301.5 127.5 Q317 148 335 168 Q353 188 368 209 Q383 230 383 256 Q383 282 368 303 Q353 324 335 344 Q317 364 301.5 384.5 Q286 405 286 430 Q286 449 299 453.5 Q312 458 328 458 Q353 458 383.5 436 Q414 414 439.5 383 Q465 352 482 317 Q499 282 499 256 Q499 229 481.5 194 Q464 159 438 128 Q412 97 381.5 75.5 Q351 54 324 54 Q309 54 297.5 59 Q286 64 286 82 Z " />
<glyph glyph-name="questiondown" unicode="&#xbf;" horiz-adv-x="575" d="M40 -44 Q40 -1 58 30 Q76 61 101.5 86.5 Q127 112 157 136.5 Q187 161 212 191 Q223 206 229.5 223.5 Q236 241 243.5 257 Q251 273 263.5 283.5 Q276 294 300 294 Q326 294 344 278.5 Q362 263 362 236 Q362 199 349 171 Q336 143 316 120.5 Q296 98 273 78.5 Q250 59 230 40 Q210 21 197 0 Q184 -21 184 -47 Q184 -70 193.5 -85.5 Q203 -101 219 -111 Q235 -121 254.5 -125.5 Q274 -130 294 -130 Q325 -130 347.5 -115 Q370 -100 389.5 -82 Q409 -64 429.5 -49 Q450 -34 477 -34 Q502 -34 524.5 -47.5 Q547 -61 547 -89 Q547 -129 518.5 -157.5 Q490 -186 450 -204 Q410 -222 366.5 -230.5 Q323 -239 294 -239 Q249 -239 203.5 -228 Q158 -217 122 -193 Q86 -169 63 -132 Q40 -95 40 -44 Z M231 440 Q231 477 248 495 Q265 513 302 513 Q322 513 342 507 Q362 501 369 478 Q369 474 369 461 Q369 448 369 444 Q369 408 354.5 388 Q340 368 300 368 Q264 368 247.5 387.5 Q231 407 231 440 Z " />
<glyph glyph-name="Agrave" unicode="&#xc0;" horiz-adv-x="747" d="M20 44 Q20 47 20 48 Q21 50 23 56 Q25 62 27 68.5 Q29 75 31 81 Q33 87 34 89 L266 689 Q279 724 307.5 734.5 Q336 745 368 745 Q406 745 436 731.5 Q466 718 478 676 Q486 654 503 608 Q520 562 541.5 504 Q563 446 587 382 Q611 318 632.5 260.5 Q654 203 671 157 Q688 111 696 89 Q697 86 699 80 Q701 74 703.5 67.5 Q706 61 707.5 55.5 Q709 50 710 48 Q710 47 710 44 Q710 28 703 19 Q696 10 685 5.5 Q674 1 661 0 Q648 -1 636 -1 Q602 -1 583.5 19.5 Q565 40 551.5 64.5 Q538 89 522.5 109.5 Q507 130 478 130 L259 130 Q232 130 219.5 109.5 Q207 89 194 64.5 Q181 40 160 19.5 Q139 -1 96 -1 Q84 -1 70.5 0 Q57 1 46 5.5 Q35 10 27.5 19 Q20 28 20 44 Z M293 299 Q293 288 299 273.5 Q305 259 321 259 L416 259 Q431 259 441 275.5 Q451 292 451 304 Q451 313 444.5 339 Q438 365 427 393 Q416 421 401 443 Q386 465 369 465 Q352 465 337.5 444.5 Q323 424 313 396.5 Q303 369 298 341.5 Q293 314 293 299 Z M239 922 Q239 935 247 943.5 Q255 952 266 956 Q270 956 285 956.5 Q300 957 304 957 Q348 957 379 931 Q410 905 410 857 Q410 835 389 819 Q386 819 374 819 Q362 819 358 819 Q340 819 319 827 Q298 835 280.5 849.5 Q263 864 251 882.5 Q239 901 239 922 Z " />
<glyph glyph-name="Aacute" unicode="&#xc1;" horiz-adv-x="747" d="M20 44 Q20 47 20 48 Q21 50 23 56 Q25 62 27 68.5 Q29 75 31 81 Q33 87 34 89 L266 689 Q279 724 307.5 734.5 Q336 745 368 745 Q406 745 436 731.5 Q466 718 478 676 Q486 654 503 608 Q520 562 541.5 504 Q563 446 587 382 Q611 318 632.5 260.5 Q654 203 671 157 Q688 111 696 89 Q697 86 699 80 Q701 74 703.5 67.5 Q706 61 707.5 55.5 Q709 50 710 48 Q710 47 710 44 Q710 28 703 19 Q696 10 685 5.5 Q674 1 661 0 Q648 -1 636 -1 Q602 -1 583.5 19.5 Q565 40 551.5 64.5 Q538 89 522.5 109.5 Q507 130 478 130 L259 130 Q232 130 219.5 109.5 Q207 89 194 64.5 Q181 40 160 19.5 Q139 -1 96 -1 Q84 -1 70.5 0 Q57 1 46 5.5 Q35 10 27.5 19 Q20 28 20 44 Z M293 299 Q293 288 299 273.5 Q305 259 321 259 L416 259 Q431 259 441 275.5 Q451 292 451 304 Q451 313 444.5 339 Q438 365 427 393 Q416 421 401 443 Q386 465 369 465 Q352 465 337.5 444.5 Q323 424 313 396.5 Q303 369 298 341.5 Q293 314 293 299 Z M334 857 Q334 905 365 931 Q396 957 440 957 Q445 957 459.5 956.5 Q474 956 478 956 Q489 952 497.5 943.5 Q506 935 506 922 Q506 901 494 882.5 Q482 864 464.5 850 Q447 836 425.5 827.5 Q404 819 386 819 Q382 819 370 819 Q358 819 355 819 Q334 835 334 857 Z " />
<glyph glyph-name="Acircumflex" unicode="&#xc2;" horiz-adv-x="747" d="M20 44 Q20 47 20 48 Q21 50 23 56 Q25 62 27 68.5 Q29 75 31 81 Q33 87 34 89 L266 689 Q279 724 307.5 734.5 Q336 745 368 745 Q406 745 436 731.5 Q466 718 478 676 Q486 654 503 608 Q520 562 541.5 504 Q563 446 587 382 Q611 318 632.5 260.5 Q654 203 671 157 Q688 111 696 89 Q697 86 699 80 Q701 74 703.5 67.5 Q706 61 707.5 55.5 Q709 50 710 48 Q710 47 710 44 Q710 28 703 19 Q696 10 685 5.5 Q674 1 661 0 Q648 -1 636 -1 Q602 -1 583.5 19.5 Q565 40 551.5 64.5 Q538 89 522.5 109.5 Q507 130 478 130 L259 130 Q232 130 219.5 109.5 Q207 89 194 64.5 Q181 40 160 19.5 Q139 -1 96 -1 Q84 -1 70.5 0 Q57 1 46 5.5 Q35 10 27.5 19 Q20 28 20 44 Z M293 299 Q293 288 299 273.5 Q305 259 321 259 L416 259 Q431 259 441 275.5 Q451 292 451 304 Q451 313 444.5 339 Q438 365 427 393 Q416 421 401 443 Q386 465 369 465 Q352 465 337.5 444.5 Q323 424 313 396.5 Q303 369 298 341.5 Q293 314 293 299 Z M238 850 Q238 875 251 895 Q264 915 283.5 928.5 Q303 942 327 949 Q351 956 372 956 Q393 956 416.5 949 Q440 942 460 928 Q480 914 493 894.5 Q506 875 506 850 Q506 841 505 832 Q504 823 492 819 Q488 819 477.5 818.5 Q467 818 464 818 Q440 818 418 825.5 Q396 833 372 833 Q348 833 326 825.5 Q304 818 280 818 Q277 818 266.5 818.5 Q256 819 253 819 Q241 823 239.5 832 Q238 841 238 850 Z " />
<glyph glyph-name="Atilde" unicode="&#xc3;" horiz-adv-x="747" d="M20 44 Q20 47 20 48 Q21 50 23 56 Q25 62 27 68.5 Q29 75 31 81 Q33 87 34 89 L266 689 Q279 724 307.5 734.5 Q336 745 368 745 Q406 745 436 731.5 Q466 718 478 676 Q486 654 503 608 Q520 562 541.5 504 Q563 446 587 382 Q611 318 632.5 260.5 Q654 203 671 157 Q688 111 696 89 Q697 86 699 80 Q701 74 703.5 67.5 Q706 61 707.5 55.5 Q709 50 710 48 Q710 47 710 44 Q710 28 703 19 Q696 10 685 5.5 Q674 1 661 0 Q648 -1 636 -1 Q602 -1 583.5 19.5 Q565 40 551.5 64.5 Q538 89 522.5 109.5 Q507 130 478 130 L259 130 Q232 130 219.5 109.5 Q207 89 194 64.5 Q181 40 160 19.5 Q139 -1 96 -1 Q84 -1 70.5 0 Q57 1 46 5.5 Q35 10 27.5 19 Q20 28 20 44 Z M293 299 Q293 288 299 273.5 Q305 259 321 259 L416 259 Q431 259 441 275.5 Q451 292 451 304 Q451 313 444.5 339 Q438 365 427 393 Q416 421 401 443 Q386 465 369 465 Q352 465 337.5 444.5 Q323 424 313 396.5 Q303 369 298 341.5 Q293 314 293 299 Z M321 848 Q309 848 298.5 843 Q288 838 278 832.5 Q268 827 257.5 822.5 Q247 818 235 818 Q216 818 203.5 831 Q191 844 191 864 Q191 884 201 902 Q211 920 226.5 933.5 Q242 947 261.5 955 Q281 963 300 963 Q317 963 331.5 957.5 Q346 952 360 945 Q374 938 388.5 932.5 Q403 927 419 927 Q432 927 443 931.5 Q454 936 464.5 941.5 Q475 947 485.5 951.5 Q496 956 509 956 Q527 956 541 941.5 Q555 927 553 908 Q548 861 515.5 836 Q483 811 440 811 Q423 811 408.5 817 Q394 823 380 829.5 Q366 836 351.5 842 Q337 848 321 848 Z " />
<glyph glyph-name="Adieresis" unicode="&#xc4;" horiz-adv-x="747" d="M20 44 Q20 47 20 48 Q21 50 23 56 Q25 62 27 68.5 Q29 75 31 81 Q33 87 34 89 L266 689 Q279 724 307.5 734.5 Q336 745 368 745 Q406 745 436 731.5 Q466 718 478 676 Q486 654 503 608 Q520 562 541.5 504 Q563 446 587 382 Q611 318 632.5 260.5 Q654 203 671 157 Q688 111 696 89 Q697 86 699 80 Q701 74 703.5 67.5 Q706 61 707.5 55.5 Q709 50 710 48 Q710 47 710 44 Q710 28 703 19 Q696 10 685 5.5 Q674 1 661 0 Q648 -1 636 -1 Q602 -1 583.5 19.5 Q565 40 551.5 64.5 Q538 89 522.5 109.5 Q507 130 478 130 L259 130 Q232 130 219.5 109.5 Q207 89 194 64.5 Q181 40 160 19.5 Q139 -1 96 -1 Q84 -1 70.5 0 Q57 1 46 5.5 Q35 10 27.5 19 Q20 28 20 44 Z M293 299 Q293 288 299 273.5 Q305 259 321 259 L416 259 Q431 259 441 275.5 Q451 292 451 304 Q451 313 444.5 339 Q438 365 427 393 Q416 421 401 443 Q386 465 369 465 Q352 465 337.5 444.5 Q323 424 313 396.5 Q303 369 298 341.5 Q293 314 293 299 Z M211 884 Q211 923 231 939.5 Q251 956 288 956 Q310 956 330 949 Q350 942 372 942 Q394 942 414 949 Q434 956 456 956 Q491 956 512 940.5 Q533 925 533 888 Q533 852 513 832 Q493 812 457 812 Q435 812 415 819.5 Q395 827 372 827 Q349 827 329 819.5 Q309 812 287 812 Q253 812 232 831 Q211 850 211 884 Z " />
<glyph glyph-name="Aring" unicode="&#xc5;" horiz-adv-x="747" d="M20 44 Q20 47 20 48 Q21 50 23 56 Q25 62 27 68.5 Q29 75 31 81 Q33 87 34 89 L266 689 Q279 724 307.5 734.5 Q336 745 368 745 Q406 745 436 731.5 Q466 718 478 676 Q486 654 503 608 Q520 562 541.5 504 Q563 446 587 382 Q611 318 632.5 260.5 Q654 203 671 157 Q688 111 696 89 Q697 86 699 80 Q701 74 703.5 67.5 Q706 61 707.5 55.5 Q709 50 710 48 Q710 47 710 44 Q710 28 703 19 Q696 10 685 5.5 Q674 1 661 0 Q648 -1 636 -1 Q602 -1 583.5 19.5 Q565 40 551.5 64.5 Q538 89 522.5 109.5 Q507 130 478 130 L259 130 Q232 130 219.5 109.5 Q207 89 194 64.5 Q181 40 160 19.5 Q139 -1 96 -1 Q84 -1 70.5 0 Q57 1 46 5.5 Q35 10 27.5 19 Q20 28 20 44 Z M293 299 Q293 288 299 273.5 Q305 259 321 259 L416 259 Q431 259 441 275.5 Q451 292 451 304 Q451 313 444.5 339 Q438 365 427 393 Q416 421 401 443 Q386 465 369 465 Q352 465 337.5 444.5 Q323 424 313 396.5 Q303 369 298 341.5 Q293 314 293 299 Z M293 895 Q293 931 315.5 950.5 Q338 970 372 970 Q406 970 428.5 950.5 Q451 931 451 895 Q451 861 428 840 Q405 819 372 819 Q338 819 315.5 840 Q293 861 293 895 Z " />
<glyph glyph-name="Ccedilla" unicode="&#xc7;" horiz-adv-x="738" d="M313 -212 Q313 -203 315 -195.5 Q317 -188 328 -184 Q335 -185 349 -186 Q363 -187 377 -184.5 Q391 -182 401 -175 Q411 -168 411 -153 Q411 -142 405 -135 Q399 -128 390 -124 Q381 -120 371.5 -117 Q362 -114 355 -109 Q338 -99 332.5 -84.5 Q327 -70 324 -55 Q321 -40 316 -25.5 Q311 -11 294 0 Q239 37 193.5 73.5 Q148 110 115.5 153.5 Q83 197 65 250 Q47 303 47 372 Q47 448 73 516.5 Q99 585 146 637.5 Q193 690 258.5 720.5 Q324 751 403 751 Q432 751 480.5 742 Q529 733 575.5 714.5 Q622 696 656 668.5 Q690 641 690 605 Q690 592 681.5 578 Q673 564 660 552 Q647 540 632 532.5 Q617 525 604 525 Q583 525 561 540.5 Q539 556 514.5 574 Q490 592 462.5 607 Q435 622 403 622 Q353 622 317 599 Q281 576 257.5 540 Q234 504 222.5 459.5 Q211 415 211 372 Q211 329 222 284.5 Q233 240 256.5 204 Q280 168 316.5 145 Q353 122 403 122 Q436 122 463.5 136 Q491 150 515 167 Q539 184 561.5 198 Q584 212 608 212 Q622 212 636.5 205 Q651 198 663 187 Q675 176 682.5 162 Q690 148 690 133 Q690 106 671.5 85.5 Q653 65 626 50 Q599 35 567 24 Q535 13 507.5 3.5 Q480 -6 461.5 -14.5 Q443 -23 443 -34 Q443 -50 452 -63.5 Q461 -77 471 -90.5 Q481 -104 489.5 -119.5 Q498 -135 498 -154 Q498 -177 489 -195.5 Q480 -214 465 -227 Q450 -240 430 -247 Q410 -254 389 -254 Q379 -254 365.5 -252.5 Q352 -251 340.5 -247 Q329 -243 321 -234.5 Q313 -226 313 -212 Z " />
<glyph glyph-name="Egrave" unicode="&#xc8;" horiz-adv-x="684" d="M609 686 Q609 680 607.5 668.5 Q606 657 602 645.5 Q598 634 591.5 626 Q585 618 573 618 L287 618 Q267 618 256 608.5 Q245 599 239.5 585 Q234 571 232.5 555 Q231 539 231 527 Q231 520 232 506.5 Q233 493 236.5 480 Q240 467 247 457 Q254 447 266 447 L539 447 Q568 447 578 426.5 Q588 406 588 386 Q588 379 586 369 Q584 359 580 349 Q576 339 569.5 331.5 Q563 324 553 324 L287 324 Q266 324 254.5 313.5 Q243 303 238 288 Q233 273 232 255.5 Q231 238 231 225 Q231 215 232 198 Q233 181 237 165 Q241 149 251 137.5 Q261 126 280 126 L587 126 Q596 126 603.5 119 Q611 112 616.5 102.5 Q622 93 625 82.5 Q628 72 628 65 Q628 56 625 44.5 Q622 33 616 23 Q610 13 601 6.5 Q592 0 580 0 L130 0 Q113 0 97.5 15.5 Q82 31 82 48 L82 696 Q82 705 87.5 714 Q93 723 101 729.5 Q109 736 118.5 740 Q128 744 137 744 L560 744 Q584 744 596.5 725.5 Q609 707 609 686 Z M218 925 Q218 939 224 945.5 Q230 952 239 954.5 Q248 957 259.5 957 Q271 957 282 957 Q325 957 354 929 Q383 901 383 856 Q383 843 380.5 834 Q378 825 362 819 Q358 819 346.5 819 Q335 819 331 819 Q311 819 290.5 827.5 Q270 836 254 850.5 Q238 865 228 884.5 Q218 904 218 925 Z " />
<glyph glyph-name="Eacute" unicode="&#xc9;" horiz-adv-x="684" d="M609 686 Q609 680 607.5 668.5 Q606 657 602 645.5 Q598 634 591.5 626 Q585 618 573 618 L287 618 Q267 618 256 608.5 Q245 599 239.5 585 Q234 571 232.5 555 Q231 539 231 527 Q231 520 232 506.5 Q233 493 236.5 480 Q240 467 247 457 Q254 447 266 447 L539 447 Q568 447 578 426.5 Q588 406 588 386 Q588 379 586 369 Q584 359 580 349 Q576 339 569.5 331.5 Q563 324 553 324 L287 324 Q266 324 254.5 313.5 Q243 303 238 288 Q233 273 232 255.5 Q231 238 231 225 Q231 215 232 198 Q233 181 237 165 Q241 149 251 137.5 Q261 126 280 126 L587 126 Q596 126 603.5 119 Q611 112 616.5 102.5 Q622 93 625 82.5 Q628 72 628 65 Q628 56 625 44.5 Q622 33 616 23 Q610 13 601 6.5 Q592 0 580 0 L130 0 Q113 0 97.5 15.5 Q82 31 82 48 L82 696 Q82 705 87.5 714 Q93 723 101 729.5 Q109 736 118.5 740 Q128 744 137 744 L560 744 Q584 744 596.5 725.5 Q609 707 609 686 Z M307 857 Q307 881 316 900 Q325 919 340.5 931.5 Q356 944 375.5 950 Q395 956 417 956 Q425 956 435.5 956 Q446 956 455.5 953 Q465 950 472 944 Q479 938 479 925 Q479 905 467.5 886 Q456 867 439 852 Q422 837 402 827.5 Q382 818 363 818 Q343 818 325 824 Q307 830 307 857 Z " />
<glyph glyph-name="Ecircumflex" unicode="&#xca;" horiz-adv-x="684" d="M609 686 Q609 680 607.5 668.5 Q606 657 602 645.5 Q598 634 591.5 626 Q585 618 573 618 L287 618 Q267 618 256 608.5 Q245 599 239.5 585 Q234 571 232.5 555 Q231 539 231 527 Q231 520 232 506.5 Q233 493 236.5 480 Q240 467 247 457 Q254 447 266 447 L539 447 Q568 447 578 426.5 Q588 406 588 386 Q588 379 586 369 Q584 359 580 349 Q576 339 569.5 331.5 Q563 324 553 324 L287 324 Q266 324 254.5 313.5 Q243 303 238 288 Q233 273 232 255.5 Q231 238 231 225 Q231 215 232 198 Q233 181 237 165 Q241 149 251 137.5 Q261 126 280 126 L587 126 Q596 126 603.5 119 Q611 112 616.5 102.5 Q622 93 625 82.5 Q628 72 628 65 Q628 56 625 44.5 Q622 33 616 23 Q610 13 601 6.5 Q592 0 580 0 L130 0 Q113 0 97.5 15.5 Q82 31 82 48 L82 696 Q82 705 87.5 714 Q93 723 101 729.5 Q109 736 118.5 740 Q128 744 137 744 L560 744 Q584 744 596.5 725.5 Q609 707 609 686 Z M211 845 Q211 871 223.5 891.5 Q236 912 256 926.5 Q276 941 299.5 948.5 Q323 956 345 956 Q365 956 389.5 949 Q414 942 435 928 Q456 914 470.5 894.5 Q485 875 485 850 Q485 841 478 832.5 Q471 824 464 819 Q461 819 450.5 818.5 Q440 818 437 818 Q412 818 390.5 826 Q369 834 345 834 Q321 834 300.5 826 Q280 818 256 818 Q253 818 241 818.5 Q229 819 225 819 Q214 823 212.5 830 Q211 837 211 845 Z " />
<glyph glyph-name="Edieresis" unicode="&#xcb;" horiz-adv-x="684" d="M609 686 Q609 680 607.5 668.5 Q606 657 602 645.5 Q598 634 591.5 626 Q585 618 573 618 L287 618 Q267 618 256 608.5 Q245 599 239.5 585 Q234 571 232.5 555 Q231 539 231 527 Q231 520 232 506.5 Q233 493 236.5 480 Q240 467 247 457 Q254 447 266 447 L539 447 Q568 447 578 426.5 Q588 406 588 386 Q588 379 586 369 Q584 359 580 349 Q576 339 569.5 331.5 Q563 324 553 324 L287 324 Q266 324 254.5 313.5 Q243 303 238 288 Q233 273 232 255.5 Q231 238 231 225 Q231 215 232 198 Q233 181 237 165 Q241 149 251 137.5 Q261 126 280 126 L587 126 Q596 126 603.5 119 Q611 112 616.5 102.5 Q622 93 625 82.5 Q628 72 628 65 Q628 56 625 44.5 Q622 33 616 23 Q610 13 601 6.5 Q592 0 580 0 L130 0 Q113 0 97.5 15.5 Q82 31 82 48 L82 696 Q82 705 87.5 714 Q93 723 101 729.5 Q109 736 118.5 740 Q128 744 137 744 L560 744 Q584 744 596.5 725.5 Q609 707 609 686 Z M191 887 Q191 891 191 904.5 Q191 918 191 922 Q198 945 218.5 951 Q239 957 259 957 Q283 957 304 949 Q325 941 348 941 Q371 941 390 948.5 Q409 956 432 956 Q470 956 488 938.5 Q506 921 506 882 Q506 847 486.5 829.5 Q467 812 433 812 Q410 812 389 819.5 Q368 827 345 827 Q322 827 302 819.5 Q282 812 260 812 Q222 812 206.5 832.5 Q191 853 191 887 Z " />
<glyph glyph-name="Igrave" unicode="&#xcc;" horiz-adv-x="327" d="M164 745 Q172 745 184 743 Q196 741 206.5 736 Q217 731 224.5 723 Q232 715 232 703 L232 41 Q232 28 224 20 Q216 12 205 7.5 Q194 3 181.5 1 Q169 -1 160 -1 Q149 -1 136.5 1.5 Q124 4 113.5 9 Q103 14 96 23.5 Q89 33 89 48 L89 696 Q89 710 96.5 719.5 Q104 729 115.5 734.5 Q127 740 140 742.5 Q153 745 164 745 Z M33 920 Q33 937 36 943.5 Q39 950 55 956 Q59 956 73.5 956.5 Q88 957 92 957 Q138 957 168.5 930.5 Q199 904 199 856 Q199 843 196.5 834 Q194 825 177 819 Q174 819 162 819 Q150 819 147 819 Q127 819 107 827 Q87 835 70.5 849 Q54 863 43.5 881.5 Q33 900 33 920 Z " />
<glyph glyph-name="Iacute" unicode="&#xcd;" horiz-adv-x="327" d="M164 745 Q172 745 184 743 Q196 741 206.5 736 Q217 731 224.5 723 Q232 715 232 703 L232 41 Q232 28 224 20 Q216 12 205 7.5 Q194 3 181.5 1 Q169 -1 160 -1 Q149 -1 136.5 1.5 Q124 4 113.5 9 Q103 14 96 23.5 Q89 33 89 48 L89 696 Q89 710 96.5 719.5 Q104 729 115.5 734.5 Q127 740 140 742.5 Q153 745 164 745 Z M123 860 Q123 884 132.5 902 Q142 920 157.5 932 Q173 944 192.5 950 Q212 956 232 956 Q240 956 251 956 Q262 956 271.5 953 Q281 950 287.5 944 Q294 938 294 926 Q294 906 283 887 Q272 868 255 852.5 Q238 837 217.5 827.5 Q197 818 179 818 Q155 818 139 825 Q123 832 123 860 Z " />
<glyph glyph-name="Icircumflex" unicode="&#xce;" horiz-adv-x="383" d="M191 745 Q200 745 211.5 743 Q223 741 234 736 Q245 731 252 723 Q259 715 259 703 L259 34 Q259 22 250.5 15 Q242 8 230 4.5 Q218 1 205.5 0 Q193 -1 186 -1 Q176 -1 163.5 2 Q151 5 140.5 10.5 Q130 16 123 25.5 Q116 35 116 48 L116 696 Q116 710 124 719.5 Q132 729 143.5 734.5 Q155 740 168 742.5 Q181 745 191 745 Z M54 845 Q54 869 66.5 889.5 Q79 910 98.5 925 Q118 940 141 948.5 Q164 957 185 957 Q207 957 232 949.5 Q257 942 278.5 928 Q300 914 314 893 Q328 872 328 846 Q328 836 323 831 Q318 826 307 819 Q304 819 293.5 818.5 Q283 818 280 818 Q255 818 233.5 826 Q212 834 188 834 Q164 834 143.5 826 Q123 818 99 818 Q96 818 84 818.5 Q72 819 68 819 Q57 823 55.5 830 Q54 837 54 845 Z " />
<glyph glyph-name="Idieresis" unicode="&#xcf;" horiz-adv-x="327" d="M164 745 Q172 745 184 743 Q196 741 206.5 736 Q217 731 224.5 723 Q232 715 232 703 L232 41 Q232 28 224 20 Q216 12 205 7.5 Q194 3 181.5 1 Q169 -1 160 -1 Q149 -1 136.5 1.5 Q124 4 113.5 9 Q103 14 96 23.5 Q89 33 89 48 L89 696 Q89 710 96.5 719.5 Q104 729 115.5 734.5 Q127 740 140 742.5 Q153 745 164 745 Z M6 887 Q6 924 20 940.5 Q34 957 74 957 Q98 957 119 949.5 Q140 942 164 942 Q186 942 206 949 Q226 956 248 956 Q321 956 321 884 Q321 812 249 812 Q226 812 205 819.5 Q184 827 160 827 Q138 827 118 819.5 Q98 812 76 812 Q36 812 21 832 Q6 852 6 887 Z " />
<glyph glyph-name="Ntilde" unicode="&#xd1;" horiz-adv-x="814" d="M164 745 Q183 745 197.5 743 Q212 741 224.5 736 Q237 731 248.5 721.5 Q260 712 273 696 Q281 682 298 652.5 Q315 623 336.5 586 Q358 549 382 508.5 Q406 468 427.5 431 Q449 394 466 364.5 Q483 335 492 321 Q495 315 500 307 Q505 299 511 291.5 Q517 284 524.5 278.5 Q532 273 539 273 Q544 273 553.5 280.5 Q563 288 563 294 L563 689 Q563 706 571.5 716.5 Q580 727 592.5 733.5 Q605 740 619 742.5 Q633 745 645 745 Q658 745 671.5 742.5 Q685 740 697 733.5 Q709 727 716.5 716.5 Q724 706 724 689 L724 55 Q724 46 719.5 36.5 Q715 27 708.5 19 Q702 11 693.5 5.5 Q685 0 676 0 L546 0 Q538 0 528.5 4 Q519 8 510.5 14.5 Q502 21 495 28 Q488 35 485 41 L300 355 Q291 371 284 377 Q277 383 264 383 Q253 383 244.5 375.5 Q236 368 236 355 L236 41 Q236 28 226.5 20 Q217 12 204.5 7.5 Q192 3 178.5 1 Q165 -1 157 -1 Q150 -1 137.5 0 Q125 1 112.5 4.5 Q100 8 91 15 Q82 22 82 34 L82 703 Q82 718 91.5 726.5 Q101 735 114 739 Q127 743 141 744 Q155 745 164 745 Z M348 848 Q336 848 325.5 843 Q315 838 305 832.5 Q295 827 285 822.5 Q275 818 262 818 Q241 818 232.5 829.5 Q224 841 224 861 Q224 882 232.5 900.5 Q241 919 255 933 Q269 947 288 955 Q307 963 328 963 Q345 963 360 957.5 Q375 952 389.5 945 Q404 938 419 932.5 Q434 927 451 927 Q463 927 473.5 931.5 Q484 936 494 941.5 Q504 947 514 951.5 Q524 956 536 956 Q554 956 567.5 943 Q581 930 581 912 Q581 888 571.5 869.5 Q562 851 546 838 Q530 825 510 818 Q490 811 469 811 Q452 811 437 816.5 Q422 822 408 829 Q394 836 379.5 842 Q365 848 348 848 Z " />
<glyph glyph-name="Ograve" unicode="&#xd2;" horiz-adv-x="838" d="M54 369 Q54 446 80 515.5 Q106 585 153.5 637.5 Q201 690 267 720.5 Q333 751 413 751 Q492 751 558 721 Q624 691 671.5 639.5 Q719 588 745.5 519.5 Q772 451 772 373 Q772 292 747.5 222.5 Q723 153 676.5 102 Q630 51 563.5 22 Q497 -7 413 -7 Q330 -7 263.5 21.5 Q197 50 150.5 101 Q104 152 79 220.5 Q54 289 54 369 Z M211 372 Q211 327 223.5 282 Q236 237 261.5 201.5 Q287 166 324.5 144 Q362 122 413 122 Q464 122 502 144 Q540 166 565 201.5 Q590 237 602.5 282 Q615 327 615 372 Q615 416 602 460.5 Q589 505 563.5 540.5 Q538 576 500 599 Q462 622 413 622 Q364 622 326.5 599 Q289 576 263.5 540 Q238 504 224.5 459.5 Q211 415 211 372 Z M280 925 Q280 937 289 944.5 Q298 952 307 956 Q311 956 325.5 956.5 Q340 957 345 957 Q389 957 420 931 Q451 905 451 857 Q451 837 436.5 824.5 Q422 812 403 812 Q384 812 362.5 822.5 Q341 833 322.5 849.5 Q304 866 292 886 Q280 906 280 925 Z " />
<glyph glyph-name="Oacute" unicode="&#xd3;" horiz-adv-x="838" d="M54 369 Q54 446 80 515.5 Q106 585 153.5 637.5 Q201 690 267 720.5 Q333 751 413 751 Q492 751 558 721 Q624 691 671.5 639.5 Q719 588 745.5 519.5 Q772 451 772 373 Q772 292 747.5 222.5 Q723 153 676.5 102 Q630 51 563.5 22 Q497 -7 413 -7 Q330 -7 263.5 21.5 Q197 50 150.5 101 Q104 152 79 220.5 Q54 289 54 369 Z M211 372 Q211 327 223.5 282 Q236 237 261.5 201.5 Q287 166 324.5 144 Q362 122 413 122 Q464 122 502 144 Q540 166 565 201.5 Q590 237 602.5 282 Q615 327 615 372 Q615 416 602 460.5 Q589 505 563.5 540.5 Q538 576 500 599 Q462 622 413 622 Q364 622 326.5 599 Q289 576 263.5 540 Q238 504 224.5 459.5 Q211 415 211 372 Z M375 857 Q375 905 406 931 Q437 957 481 957 Q486 957 500.5 956.5 Q515 956 519 956 Q530 952 538.5 943.5 Q547 935 547 922 Q547 904 534.5 884.5 Q522 865 504 849 Q486 833 465 822.5 Q444 812 427 812 Q406 812 390.5 823.5 Q375 835 375 857 Z " />
<glyph glyph-name="Ocircumflex" unicode="&#xd4;" horiz-adv-x="838" d="M54 369 Q54 446 80 515.5 Q106 585 153.5 637.5 Q201 690 267 720.5 Q333 751 413 751 Q492 751 558 721 Q624 691 671.5 639.5 Q719 588 745.5 519.5 Q772 451 772 373 Q772 292 747.5 222.5 Q723 153 676.5 102 Q630 51 563.5 22 Q497 -7 413 -7 Q330 -7 263.5 21.5 Q197 50 150.5 101 Q104 152 79 220.5 Q54 289 54 369 Z M211 372 Q211 327 223.5 282 Q236 237 261.5 201.5 Q287 166 324.5 144 Q362 122 413 122 Q464 122 502 144 Q540 166 565 201.5 Q590 237 602.5 282 Q615 327 615 372 Q615 416 602 460.5 Q589 505 563.5 540.5 Q538 576 500 599 Q462 622 413 622 Q364 622 326.5 599 Q289 576 263.5 540 Q238 504 224.5 459.5 Q211 415 211 372 Z M279 850 Q279 875 292 894.5 Q305 914 325 928 Q345 942 368.5 949 Q392 956 413 956 Q435 956 458.5 949 Q482 942 501.5 928.5 Q521 915 534 895 Q547 875 547 850 Q547 841 546 832 Q545 823 532 819 Q529 819 518.5 818.5 Q508 818 505 818 Q481 818 459 825.5 Q437 833 413 833 Q389 833 367 825.5 Q345 818 321 818 Q318 818 307.5 818.5 Q297 819 294 819 Q281 823 280 832 Q279 841 279 850 Z " />
<glyph glyph-name="Otilde" unicode="&#xd5;" horiz-adv-x="838" d="M54 369 Q54 449 81 518.5 Q108 588 156.5 640 Q205 692 273 722 Q341 752 423 752 Q501 752 565 720.5 Q629 689 675 636.5 Q721 584 746.5 516 Q772 448 772 373 Q772 292 747.5 222.5 Q723 153 676.5 102 Q630 51 563.5 22 Q497 -7 413 -7 Q330 -7 263.5 21.5 Q197 50 150.5 101 Q104 152 79 220.5 Q54 289 54 369 Z M211 372 Q211 327 223.5 282 Q236 237 261.5 201.5 Q287 166 324.5 144 Q362 122 413 122 Q464 122 502 144 Q540 166 565 201.5 Q590 237 602.5 282 Q615 327 615 372 Q615 416 602 460.5 Q589 505 563.5 540.5 Q538 576 500 599 Q462 622 413 622 Q364 622 326.5 599 Q289 576 263.5 540 Q238 504 224.5 459.5 Q211 415 211 372 Z M362 848 Q350 848 339.5 843 Q329 838 319 832.5 Q309 827 298.5 822.5 Q288 818 276 818 Q257 818 244.5 831 Q232 844 232 864 Q232 884 242 902 Q252 920 267.5 933.5 Q283 947 302.5 955 Q322 963 341 963 Q358 963 373 957.5 Q388 952 402.5 945 Q417 938 432 932.5 Q447 927 464 927 Q476 927 486.5 931.5 Q497 936 507 941.5 Q517 947 527.5 951.5 Q538 956 550 956 Q570 956 582 941.5 Q594 927 594 908 Q594 887 583.5 868.5 Q573 850 557 836 Q541 822 520.5 813.5 Q500 805 481 805 Q465 805 450.5 811.5 Q436 818 421.5 826 Q407 834 392.5 841 Q378 848 362 848 Z " />
<glyph glyph-name="Odieresis" unicode="&#xd6;" horiz-adv-x="838" d="M54 369 Q54 446 80 515.5 Q106 585 153.5 637.5 Q201 690 267 720.5 Q333 751 413 751 Q492 751 558 721 Q624 691 671.5 639.5 Q719 588 745.5 519.5 Q772 451 772 373 Q772 292 747.5 222.5 Q723 153 676.5 102 Q630 51 563.5 22 Q497 -7 413 -7 Q330 -7 263.5 21.5 Q197 50 150.5 101 Q104 152 79 220.5 Q54 289 54 369 Z M211 372 Q211 327 223.5 282 Q236 237 261.5 201.5 Q287 166 324.5 144 Q362 122 413 122 Q464 122 502 144 Q540 166 565 201.5 Q590 237 602.5 282 Q615 327 615 372 Q615 416 602 460.5 Q589 505 563.5 540.5 Q538 576 500 599 Q462 622 413 622 Q364 622 326.5 599 Q289 576 263.5 540 Q238 504 224.5 459.5 Q211 415 211 372 Z M327 957 Q350 957 370.5 949.5 Q391 942 413 942 Q435 942 455 949 Q475 956 497 956 Q534 956 554 939.5 Q574 923 574 884 Q574 850 553 831 Q532 812 498 812 Q476 812 456 819.5 Q436 827 413 827 Q390 827 370 819.5 Q350 812 328 812 Q321 812 309.5 813.5 Q298 815 287 818.5 Q276 822 267.5 829 Q259 836 259 847 L259 922 Q259 933 267 939.5 Q275 946 286 950 Q297 954 308.5 955.5 Q320 957 327 957 Z " />
<glyph glyph-name="Oslash" unicode="&#xd8;" horiz-adv-x="838" d="M200 35 Q187 35 178 33.5 Q169 32 160 28 Q151 24 141 17 Q131 10 116 0 Q106 4 100.5 8.5 Q95 13 95 24 Q95 35 99.5 44.5 Q104 54 109 63 Q114 72 118.5 81.5 Q123 91 123 102 Q123 126 112.5 154.5 Q102 183 89 216.5 Q76 250 65 288 Q54 326 54 369 Q54 446 80 515.5 Q106 585 153.5 637.5 Q201 690 267 720.5 Q333 751 413 751 Q441 751 467 743.5 Q493 736 519 727 Q545 718 570.5 710.5 Q596 703 621 703 Q634 703 645 708.5 Q656 714 666 720.5 Q676 727 687 732.5 Q698 738 710 738 Q724 738 727.5 734 Q731 730 731 716 Q731 705 726.5 696 Q722 687 716.5 678.5 Q711 670 707 660.5 Q703 651 703 639 Q703 608 713.5 579 Q724 550 737 519 Q750 488 761 452.5 Q772 417 772 373 Q772 293 748 223.5 Q724 154 678 103 Q632 52 566 22.5 Q500 -7 417 -7 Q388 -7 360.5 -0.5 Q333 6 306.5 14 Q280 22 253.5 28.5 Q227 35 200 35 Z M313 181 Q313 162 323 150.5 Q333 139 348 132.5 Q363 126 380.5 124 Q398 122 413 122 Q464 122 502 144 Q540 166 565 201.5 Q590 237 602.5 282 Q615 327 615 372 Q615 386 614.5 404.5 Q614 423 610 439.5 Q606 456 596 467 Q586 478 567 478 Q552 478 543.5 473 Q535 468 526 457 Q515 444 488 412.5 Q461 381 432 346.5 Q403 312 377 281 Q351 250 341 239 Q328 223 320.5 211.5 Q313 200 313 181 Z M211 369 Q211 357 211.5 338.5 Q212 320 216.5 302 Q221 284 231 271.5 Q241 259 259 259 Q277 259 291.5 275 Q306 291 314 300 Q324 312 349.5 342 Q375 372 403 406 Q431 440 456.5 470 Q482 500 492 512 Q502 526 507.5 537 Q513 548 513 565 Q513 582 502.5 593 Q492 604 476.5 610.5 Q461 617 443.5 619.5 Q426 622 413 622 Q364 622 326 598.5 Q288 575 262.5 538.5 Q237 502 224 457 Q211 412 211 369 Z " />
<glyph glyph-name="Ugrave" unicode="&#xd9;" horiz-adv-x="783" d="M147 745 Q154 745 166.5 742.5 Q179 740 191.5 734.5 Q204 729 213 721.5 Q222 714 222 703 L222 280 Q222 247 237 221 Q252 195 275.5 178 Q299 161 328 152 Q357 143 386 143 Q388 143 394.5 143 Q401 143 408 143 Q415 143 421.5 143 Q428 143 430 143 Q446 148 464 159.5 Q482 171 498 187 Q514 203 525 222 Q536 241 536 259 L536 683 Q536 700 543.5 712 Q551 724 563 731 Q575 738 589.5 741.5 Q604 745 618 745 Q628 745 642 743 Q656 741 668 735.5 Q680 730 688 720.5 Q696 711 696 696 L696 253 Q696 186 670 137 Q644 88 600.5 56 Q557 24 501 8.5 Q445 -7 386 -7 Q328 -7 272.5 7.5 Q217 22 173 53 Q129 84 102 132 Q75 180 75 246 L75 696 Q75 710 82.5 719 Q90 728 101 733.5 Q112 739 124.5 742 Q137 745 147 745 Z M252 915 Q252 923 257 932.5 Q262 942 273 942 L362 942 Q374 942 385 931 Q396 920 405 905.5 Q414 891 419 875.5 Q424 860 424 850 Q424 828 408 816.5 Q392 805 372 805 Q354 805 332.5 815 Q311 825 293.5 840.5 Q276 856 264 875.5 Q252 895 252 915 Z " />
<glyph glyph-name="Uacute" unicode="&#xda;" horiz-adv-x="783" d="M147 745 Q154 745 166.5 742.5 Q179 740 191.5 734.5 Q204 729 213 721.5 Q222 714 222 703 L222 280 Q222 247 237 221 Q252 195 275.5 178 Q299 161 328 152 Q357 143 386 143 Q388 143 394.5 143 Q401 143 408 143 Q415 143 421.5 143 Q428 143 430 143 Q446 148 464 159.5 Q482 171 498 187 Q514 203 525 222 Q536 241 536 259 L536 683 Q536 700 543.5 712 Q551 724 563 731 Q575 738 589.5 741.5 Q604 745 618 745 Q628 745 642 743 Q656 741 668 735.5 Q680 730 688 720.5 Q696 711 696 696 L696 253 Q696 186 670 137 Q644 88 600.5 56 Q557 24 501 8.5 Q445 -7 386 -7 Q328 -7 272.5 7.5 Q217 22 173 53 Q129 84 102 132 Q75 180 75 246 L75 696 Q75 710 82.5 719 Q90 728 101 733.5 Q112 739 124.5 742 Q137 745 147 745 Z M348 846 Q348 857 352.5 873.5 Q357 890 365 905 Q373 920 384.5 931 Q396 942 410 942 L498 942 Q500 942 508 934 Q516 926 519 922 Q519 921 519 918.5 Q519 916 519 915 Q519 895 507.5 875.5 Q496 856 478 840.5 Q460 825 438.5 815 Q417 805 398 805 Q377 805 362.5 814.5 Q348 824 348 846 Z " />
<glyph glyph-name="Ucircumflex" unicode="&#xdb;" horiz-adv-x="783" d="M147 745 Q154 745 166.5 742.5 Q179 740 191.5 734.5 Q204 729 213 721.5 Q222 714 222 703 L222 280 Q222 247 237 221 Q252 195 275.5 178 Q299 161 328 152 Q357 143 386 143 Q388 143 394.5 143 Q401 143 408 143 Q415 143 421.5 143 Q428 143 430 143 Q446 148 464 159.5 Q482 171 498 187 Q514 203 525 222 Q536 241 536 259 L536 683 Q536 700 543.5 712 Q551 724 563 731 Q575 738 589.5 741.5 Q604 745 618 745 Q628 745 642 743 Q656 741 668 735.5 Q680 730 688 720.5 Q696 711 696 696 L696 253 Q696 186 670 137 Q644 88 600.5 56 Q557 24 501 8.5 Q445 -7 386 -7 Q328 -7 272.5 7.5 Q217 22 173 53 Q129 84 102 132 Q75 180 75 246 L75 696 Q75 710 82.5 719 Q90 728 101 733.5 Q112 739 124.5 742 Q137 745 147 745 Z M252 841 Q252 854 260 871 Q268 888 280.5 904 Q293 920 307.5 931 Q322 942 335 942 L437 942 Q450 942 464.5 930.5 Q479 919 491 902 Q503 885 511 867 Q519 849 519 836 Q519 816 508 810.5 Q497 805 478 805 Q454 805 432 812.5 Q410 820 386 820 Q360 820 337.5 812.5 Q315 805 290 805 Q268 805 260 812.5 Q252 820 252 841 Z " />
<glyph glyph-name="Udieresis" unicode="&#xdc;" horiz-adv-x="783" d="M147 745 Q154 745 166.5 742.5 Q179 740 191.5 734.5 Q204 729 213 721.5 Q222 714 222 703 L222 280 Q222 247 237 221 Q252 195 275.5 178 Q299 161 328 152 Q357 143 386 143 Q388 143 394.5 143 Q401 143 408 143 Q415 143 421.5 143 Q428 143 430 143 Q446 148 464 159.5 Q482 171 498 187 Q514 203 525 222 Q536 241 536 259 L536 683 Q536 700 543.5 712 Q551 724 563 731 Q575 738 589.5 741.5 Q604 745 618 745 Q628 745 642 743 Q656 741 668 735.5 Q680 730 688 720.5 Q696 711 696 696 L696 253 Q696 186 670 137 Q644 88 600.5 56 Q557 24 501 8.5 Q445 -7 386 -7 Q328 -7 272.5 7.5 Q217 22 173 53 Q129 84 102 132 Q75 180 75 246 L75 696 Q75 710 82.5 719 Q90 728 101 733.5 Q112 739 124.5 742 Q137 745 147 745 Z M232 915 L259 942 Q260 942 271.5 942.5 Q283 943 290 943 Q315 943 338 939 Q361 935 386 935 Q411 935 433.5 939 Q456 943 482 943 Q488 943 500 942.5 Q512 942 512 942 L539 915 L539 840 Q539 827 531 820 Q523 813 512 810 Q501 807 489 806 Q477 805 470 805 Q447 805 427.5 812.5 Q408 820 386 820 Q364 820 344 812.5 Q324 805 302 805 Q294 805 282 806 Q270 807 259 810 Q248 813 240 820 Q232 827 232 840 L232 915 Z " />
<glyph glyph-name="Yacute" unicode="&#xdd;" horiz-adv-x="660" d="M41 707 Q41 718 47 725 Q53 732 61.5 736.5 Q70 741 80.5 743 Q91 745 99 745 Q131 745 154.5 727 Q178 709 195.5 682.5 Q213 656 227 624.5 Q241 593 254.5 566.5 Q268 540 283.5 522 Q299 504 320 504 Q330 504 339.5 507 Q349 510 355 519 Q369 542 386 580.5 Q403 619 426 655.5 Q449 692 479.5 718.5 Q510 745 550 745 Q575 745 592 737.5 Q609 730 609 701 Q609 698 608.5 690.5 Q608 683 608 683 L423 362 Q423 361 417.5 348 Q412 335 410 328 Q407 322 403 311.5 Q399 301 399 300 L399 41 Q399 29 390.5 21 Q382 13 369.5 8 Q357 3 344 1 Q331 -1 323 -1 Q314 -1 301.5 2 Q289 5 277.5 11 Q266 17 257.5 26 Q249 35 249 48 L249 321 Q249 345 233.5 375 Q218 405 195 437.5 Q172 470 145 505 Q118 540 95 574.5 Q72 609 56.5 642.5 Q41 676 41 707 Z M293 862 Q293 910 323.5 933 Q354 956 396 956 Q406 956 417 955.5 Q428 955 437 952 Q446 949 452 942 Q458 935 458 922 Q458 903 446.5 884.5 Q435 866 418 851 Q401 836 380.5 827 Q360 818 343 818 Q315 818 304 825.5 Q293 833 293 862 Z " />
<glyph glyph-name="Thorn" unicode="&#xde;" horiz-adv-x="648" d="M154 745 Q180 745 193.5 736 Q207 727 213.5 712.5 Q220 698 222 681 Q224 664 227.5 648 Q231 632 239 619.5 Q247 607 266 601 Q288 600 321.5 597 Q355 594 392.5 588 Q430 582 467 570.5 Q504 559 534 540.5 Q564 522 582.5 495 Q601 468 601 430 L601 314 Q601 266 580.5 238.5 Q560 211 528 196 Q496 181 456.5 175 Q417 169 379 165 Q341 161 309 156 Q277 151 259 137 Q238 119 232.5 95.5 Q227 72 222 50.5 Q217 29 204 14 Q191 -1 154 -1 Q143 -1 130 1.5 Q117 4 106.5 9 Q96 14 89 23.5 Q82 33 82 48 L82 696 Q82 710 89.5 719 Q97 728 107.5 733.5 Q118 739 130.5 742 Q143 745 154 745 Z M303 471 Q293 471 281 468.5 Q269 466 258 460.5 Q247 455 239.5 445.5 Q232 436 232 423 L232 321 Q232 306 240 297 Q248 288 259.5 282.5 Q271 277 284 274.5 Q297 272 308 272 Q332 272 357.5 276.5 Q383 281 404 292 Q425 303 438 322 Q451 341 451 371 Q451 400 437 419.5 Q423 439 401.5 450.5 Q380 462 354 466.5 Q328 471 303 471 Z " />
<glyph glyph-name="agrave" unicode="&#xe0;" horiz-adv-x="574" d="M40 140 Q40 189 62 218 Q84 247 117 264 Q150 281 188 290.5 Q226 300 259 309 Q292 318 314 330.5 Q336 343 336 368 Q336 391 319 397 Q302 403 284 403 Q265 403 248.5 397.5 Q232 392 216 385.5 Q200 379 183.5 373 Q167 367 148 367 Q137 367 124 368.5 Q111 370 100 375 Q89 380 81.5 388.5 Q74 397 74 412 Q74 444 96.5 465 Q119 486 150 498 Q181 510 215 514.5 Q249 519 273 519 Q308 519 347.5 510 Q387 501 419.5 481 Q452 461 473.5 430 Q495 399 495 355 L495 143 Q505 128 512.5 117 Q520 106 524.5 96 Q529 86 531 76 Q533 66 533 53 Q533 29 518.5 14.5 Q504 0 478 0 Q445 0 416 10.5 Q387 21 355 21 Q336 21 318 16.5 Q300 12 282.5 7 Q265 2 246.5 -2.5 Q228 -7 208 -7 Q173 -7 142.5 2 Q112 11 89 29 Q66 47 53 75 Q40 103 40 140 Z M184 138 Q184 126 190.5 116.5 Q197 107 207 101 Q217 95 229.5 91.5 Q242 88 253 88 Q269 88 286 94 Q303 100 317 110.5 Q331 121 340 135.5 Q349 150 349 167 Q349 192 338.5 198.5 Q328 205 305 205 Q287 205 266 203 Q245 201 227 193.5 Q209 186 196.5 173 Q184 160 184 138 Z M137 696 Q137 698 139.5 703 Q142 708 145 712.5 Q148 717 151.5 720.5 Q155 724 157 724 L246 724 Q259 724 270 712.5 Q281 701 289.5 685.5 Q298 670 303 654 Q308 638 308 628 Q308 603 293 594.5 Q278 586 255 586 Q237 586 216.5 596 Q196 606 178 622 Q160 638 148.5 657.5 Q137 677 137 696 Z " />
<glyph glyph-name="aacute" unicode="&#xe1;" horiz-adv-x="574" d="M40 140 Q40 189 62 218 Q84 247 117 264 Q150 281 188 290.5 Q226 300 259 309 Q292 318 314 330.5 Q336 343 336 368 Q336 391 319 397 Q302 403 284 403 Q265 403 248.5 397.5 Q232 392 216 385.5 Q200 379 183.5 373 Q167 367 148 367 Q137 367 124 368.5 Q111 370 100 375 Q89 380 81.5 388.5 Q74 397 74 412 Q74 444 96.5 465 Q119 486 150 498 Q181 510 215 514.5 Q249 519 273 519 Q308 519 347.5 510 Q387 501 419.5 481 Q452 461 473.5 430 Q495 399 495 355 L495 143 Q505 128 512.5 117 Q520 106 524.5 96 Q529 86 531 76 Q533 66 533 53 Q533 29 518.5 14.5 Q504 0 478 0 Q445 0 416 10.5 Q387 21 355 21 Q336 21 318 16.5 Q300 12 282.5 7 Q265 2 246.5 -2.5 Q228 -7 208 -7 Q173 -7 142.5 2 Q112 11 89 29 Q66 47 53 75 Q40 103 40 140 Z M184 138 Q184 126 190.5 116.5 Q197 107 207 101 Q217 95 229.5 91.5 Q242 88 253 88 Q269 88 286 94 Q303 100 317 110.5 Q331 121 340 135.5 Q349 150 349 167 Q349 192 338.5 198.5 Q328 205 305 205 Q287 205 266 203 Q245 201 227 193.5 Q209 186 196.5 173 Q184 160 184 138 Z M232 628 Q232 638 237 654 Q242 670 250.5 685.5 Q259 701 270 712.5 Q281 724 294 724 L382 724 Q396 724 399.5 713.5 Q403 703 403 694 Q403 674 391.5 654.5 Q380 635 362 620 Q344 605 323 596 Q302 587 283 587 Q261 587 246.5 594.5 Q232 602 232 628 Z " />
<glyph glyph-name="acircumflex" unicode="&#xe2;" horiz-adv-x="574" d="M40 140 Q40 189 62 218 Q84 247 117 264 Q150 281 188 290.5 Q226 300 259 309 Q292 318 314 330.5 Q336 343 336 368 Q336 391 319 397 Q302 403 284 403 Q265 403 248.5 397.5 Q232 392 216 385.5 Q200 379 183.5 373 Q167 367 148 367 Q137 367 124 368.5 Q111 370 100 375 Q89 380 81.5 388.5 Q74 397 74 412 Q74 444 96.5 465 Q119 486 150 498 Q181 510 215 514.5 Q249 519 273 519 Q308 519 347.5 510 Q387 501 419.5 481 Q452 461 473.5 430 Q495 399 495 355 L495 143 Q505 128 512.5 117 Q520 106 524.5 96 Q529 86 531 76 Q533 66 533 53 Q533 29 518.5 14.5 Q504 0 478 0 Q445 0 416 10.5 Q387 21 355 21 Q336 21 318 16.5 Q300 12 282.5 7 Q265 2 246.5 -2.5 Q228 -7 208 -7 Q173 -7 142.5 2 Q112 11 89 29 Q66 47 53 75 Q40 103 40 140 Z M184 138 Q184 126 190.5 116.5 Q197 107 207 101 Q217 95 229.5 91.5 Q242 88 253 88 Q269 88 286 94 Q303 100 317 110.5 Q331 121 340 135.5 Q349 150 349 167 Q349 192 338.5 198.5 Q328 205 305 205 Q287 205 266 203 Q245 201 227 193.5 Q209 186 196.5 173 Q184 160 184 138 Z M136 619 Q136 631 144.5 649 Q153 667 166.5 683.5 Q180 700 195.5 712 Q211 724 225 724 L314 724 Q329 724 344.5 712.5 Q360 701 373 684.5 Q386 668 394.5 649.5 Q403 631 403 618 Q403 597 392 591.5 Q381 586 361 586 Q337 586 315.5 594 Q294 602 270 602 Q245 602 223.5 594 Q202 586 178 586 Q157 586 146.5 592 Q136 598 136 619 Z " />
<glyph glyph-name="atilde" unicode="&#xe3;" horiz-adv-x="681" d="M47 256 Q47 315 66.5 363.5 Q86 412 121 447 Q156 482 204.5 501 Q253 520 312 520 Q330 520 346.5 515.5 Q363 511 378.5 505.5 Q394 500 410 495.5 Q426 491 443 491 Q469 491 491.5 502 Q514 513 540 513 Q547 513 557 511 Q567 509 577 505 Q587 501 594 494.5 Q601 488 601 478 L601 34 Q601 25 594 18 Q587 11 577 7 Q567 3 556.5 1.5 Q546 0 540 0 Q514 0 491.5 10.5 Q469 21 444 21 Q427 21 410 16.5 Q393 12 376.5 6.5 Q360 1 343 -3 Q326 -7 307 -7 Q250 -7 202 12.5 Q154 32 119.5 67 Q85 102 66 150.5 Q47 199 47 256 Z M191 256 Q191 224 204 197 Q217 170 239 150.5 Q261 131 289.5 120 Q318 109 348 109 Q366 109 386.5 116 Q407 123 424 136 Q441 149 452.5 166.5 Q464 184 464 205 L464 307 Q464 329 453 347 Q442 365 424.5 377.5 Q407 390 386 396.5 Q365 403 347 403 Q316 403 288 392 Q260 381 238.5 361.5 Q217 342 204 315 Q191 288 191 256 Z M273 616 Q261 616 250.5 611.5 Q240 607 230 601.5 Q220 596 210 591 Q200 586 188 586 Q170 586 156.5 599.5 Q143 613 143 631 Q143 653 153 671 Q163 689 178.5 702.5 Q194 716 213.5 723.5 Q233 731 253 731 Q270 731 285 725.5 Q300 720 314.5 713 Q329 706 344 700.5 Q359 695 375 695 Q388 695 398 699.5 Q408 704 418 709.5 Q428 715 438 719.5 Q448 724 460 724 Q478 724 491.5 711 Q505 698 505 679 Q505 659 495.5 641 Q486 623 470 609.5 Q454 596 435 588 Q416 580 398 580 Q380 580 364.5 585.5 Q349 591 334.5 597.5 Q320 604 305 610 Q290 616 273 616 Z " />
<glyph glyph-name="adieresis" unicode="&#xe4;" horiz-adv-x="574" d="M40 140 Q40 189 62 218 Q84 247 117 264 Q150 281 188 290.5 Q226 300 259 309 Q292 318 314 330.5 Q336 343 336 368 Q336 391 319 397 Q302 403 284 403 Q265 403 248.5 397.5 Q232 392 216 385.5 Q200 379 183.5 373 Q167 367 148 367 Q137 367 124 368.5 Q111 370 100 375 Q89 380 81.5 388.5 Q74 397 74 412 Q74 444 96.5 465 Q119 486 150 498 Q181 510 215 514.5 Q249 519 273 519 Q308 519 347.5 510 Q387 501 419.5 481 Q452 461 473.5 430 Q495 399 495 355 L495 143 Q505 128 512.5 117 Q520 106 524.5 96 Q529 86 531 76 Q533 66 533 53 Q533 29 518.5 14.5 Q504 0 478 0 Q445 0 416 10.5 Q387 21 355 21 Q336 21 318 16.5 Q300 12 282.5 7 Q265 2 246.5 -2.5 Q228 -7 208 -7 Q173 -7 142.5 2 Q112 11 89 29 Q66 47 53 75 Q40 103 40 140 Z M184 138 Q184 126 190.5 116.5 Q197 107 207 101 Q217 95 229.5 91.5 Q242 88 253 88 Q269 88 286 94 Q303 100 317 110.5 Q331 121 340 135.5 Q349 150 349 167 Q349 192 338.5 198.5 Q328 205 305 205 Q287 205 266 203 Q245 201 227 193.5 Q209 186 196.5 173 Q184 160 184 138 Z M81 655 Q81 695 96 709.5 Q111 724 150 724 Q154 724 167 724 Q180 724 184 724 Q207 717 213 697 Q219 677 219 657 Q219 620 201 603 Q183 586 147 586 Q108 586 94.5 602 Q81 618 81 655 Z M320 655 Q320 692 339 708 Q358 724 393 724 Q427 724 446 708 Q465 692 465 655 Q465 619 446 602.5 Q427 586 393 586 Q358 586 339 602.5 Q320 619 320 655 Z " />
<glyph glyph-name="aring" unicode="&#xe5;" horiz-adv-x="574" d="M40 140 Q40 189 62 218 Q84 247 117 264 Q150 281 188 290.5 Q226 300 259 309 Q292 318 314 330.5 Q336 343 336 368 Q336 391 319 397 Q302 403 284 403 Q265 403 248.5 397.5 Q232 392 216 385.5 Q200 379 183.5 373 Q167 367 148 367 Q137 367 124 368.5 Q111 370 100 375 Q89 380 81.5 388.5 Q74 397 74 412 Q74 444 96.5 465 Q119 486 150 498 Q181 510 215 514.5 Q249 519 273 519 Q308 519 347.5 510 Q387 501 419.5 481 Q452 461 473.5 430 Q495 399 495 355 L495 143 Q505 128 512.5 117 Q520 106 524.5 96 Q529 86 531 76 Q533 66 533 53 Q533 29 518.5 14.5 Q504 0 478 0 Q445 0 416 10.5 Q387 21 355 21 Q336 21 318 16.5 Q300 12 282.5 7 Q265 2 246.5 -2.5 Q228 -7 208 -7 Q173 -7 142.5 2 Q112 11 89 29 Q66 47 53 75 Q40 103 40 140 Z M184 138 Q184 126 190.5 116.5 Q197 107 207 101 Q217 95 229.5 91.5 Q242 88 253 88 Q269 88 286 94 Q303 100 317 110.5 Q331 121 340 135.5 Q349 150 349 167 Q349 192 338.5 198.5 Q328 205 305 205 Q287 205 266 203 Q245 201 227 193.5 Q209 186 196.5 173 Q184 160 184 138 Z M191 667 Q191 698 214.5 721 Q238 744 270 744 Q303 744 326 721 Q349 698 349 666 Q349 635 328 611 Q307 587 274 587 Q239 587 215 609.5 Q191 632 191 667 Z " />
<glyph glyph-name="ccedilla" unicode="&#xe7;" horiz-adv-x="579" d="M224 -209 Q224 -189 240.5 -186 Q257 -183 276.5 -183.5 Q296 -184 312 -180 Q328 -176 328 -154 Q328 -142 319 -133.5 Q310 -125 298 -119 Q286 -113 274.5 -109 Q263 -105 259 -102 Q250 -97 246.5 -87.5 Q243 -78 241.5 -67.5 Q240 -57 239 -46 Q238 -35 232 -27 Q223 -15 216.5 -9 Q210 -3 202.5 1.5 Q195 6 186 9.5 Q177 13 164 20 Q130 39 107.5 64.5 Q85 90 71.5 120.5 Q58 151 52.5 185.5 Q47 220 47 256 Q47 315 63 363.5 Q79 412 110.5 446.5 Q142 481 189 500.5 Q236 520 297 520 Q320 520 357.5 514.5 Q395 509 431 495.5 Q467 482 493 459.5 Q519 437 519 403 Q519 389 511.5 377.5 Q504 366 492 358 Q480 350 466.5 345.5 Q453 341 441 341 Q420 341 404 351.5 Q388 362 372.5 375 Q357 388 340 399 Q323 410 300 410 Q270 410 249 395.5 Q228 381 215 358 Q202 335 196.5 308 Q191 281 191 256 Q191 230 197.5 204 Q204 178 217.5 157 Q231 136 252.5 122.5 Q274 109 304 109 Q323 109 339.5 116.5 Q356 124 371.5 133 Q387 142 403 150 Q419 158 438 158 Q449 158 463 153 Q477 148 489.5 139.5 Q502 131 510.5 120 Q519 109 519 96 Q519 67 493.5 49.5 Q468 32 437 19 Q406 6 380 -6 Q354 -18 354 -34 Q354 -49 363 -62 Q372 -75 382.5 -88 Q393 -101 401.5 -115.5 Q410 -130 410 -148 Q410 -200 380 -226.5 Q350 -253 300 -253 Q290 -253 277 -252 Q264 -251 252.5 -246.5 Q241 -242 232.5 -233 Q224 -224 224 -209 Z " />
<glyph glyph-name="egrave" unicode="&#xe8;" horiz-adv-x="586" d="M47 256 Q47 381 114.5 450 Q182 519 307 519 Q354 519 399.5 507 Q445 495 480.5 469 Q516 443 538.5 404 Q561 365 561 311 Q561 307 560.5 295 Q560 283 560 280 Q558 277 550 269.5 Q542 262 539 259 Q537 257 531.5 253 Q526 249 526 249 L239 249 Q231 249 224 243.5 Q217 238 211 230.5 Q205 223 201.5 214 Q198 205 198 198 Q198 179 208 162.5 Q218 146 233.5 134 Q249 122 268 115.5 Q287 109 304 109 Q323 109 339.5 115.5 Q356 122 372 130 Q388 138 404 144.5 Q420 151 439 151 Q450 151 465.5 147.5 Q481 144 494.5 137.5 Q508 131 517.5 120.5 Q527 110 527 96 Q527 63 499.5 42.5 Q472 22 435.5 11 Q399 0 360.5 -3.5 Q322 -7 300 -7 Q239 -7 192 11.5 Q145 30 112.5 64 Q80 98 63.5 146.5 Q47 195 47 256 Z M252 375 Q252 364 258 358 Q264 352 273 349.5 Q282 347 292 347.5 Q302 348 311 348 Q318 348 328 348.5 Q338 349 347 351.5 Q356 354 362.5 359.5 Q369 365 369 376 Q369 386 363 393 Q357 400 348 403.5 Q339 407 328.5 408.5 Q318 410 311 410 Q302 410 292 408.5 Q282 407 273 403.5 Q264 400 258 393 Q252 386 252 375 Z M177 692 Q177 702 180.5 713 Q184 724 198 724 L280 724 Q294 724 305.5 713 Q317 702 325 686.5 Q333 671 337.5 654.5 Q342 638 342 628 Q342 602 327 594 Q312 586 289 586 Q271 586 251 595.5 Q231 605 214.5 620.5 Q198 636 187.5 654.5 Q177 673 177 692 Z " />
<glyph glyph-name="eacute" unicode="&#xe9;" horiz-adv-x="586" d="M47 256 Q47 381 114.5 450 Q182 519 307 519 Q354 519 399.5 507 Q445 495 480.5 469 Q516 443 538.5 404 Q561 365 561 311 Q561 307 560.5 295 Q560 283 560 280 Q558 277 550 269.5 Q542 262 539 259 Q537 257 531.5 253 Q526 249 526 249 L239 249 Q231 249 224 243.5 Q217 238 211 230.5 Q205 223 201.5 214 Q198 205 198 198 Q198 179 208 162.5 Q218 146 233.5 134 Q249 122 268 115.5 Q287 109 304 109 Q323 109 339.5 115.5 Q356 122 372 130 Q388 138 404 144.5 Q420 151 439 151 Q450 151 465.5 147.5 Q481 144 494.5 137.5 Q508 131 517.5 120.5 Q527 110 527 96 Q527 63 499.5 42.5 Q472 22 435.5 11 Q399 0 360.5 -3.5 Q322 -7 300 -7 Q239 -7 192 11.5 Q145 30 112.5 64 Q80 98 63.5 146.5 Q47 195 47 256 Z M252 375 Q252 364 258 358 Q264 352 273 349.5 Q282 347 292 347.5 Q302 348 311 348 Q318 348 328 348.5 Q338 349 347 351.5 Q356 354 362.5 359.5 Q369 365 369 376 Q369 386 363 393 Q357 400 348 403.5 Q339 407 328.5 408.5 Q318 410 311 410 Q302 410 292 408.5 Q282 407 273 403.5 Q264 400 258 393 Q252 386 252 375 Z M272 626 Q272 637 276 654 Q280 671 287.5 686.5 Q295 702 307 713 Q319 724 335 724 L416 724 Q429 724 433 713 Q437 702 437 693 Q437 671 425 652 Q413 633 395 618.5 Q377 604 355.5 595 Q334 586 315 586 Q294 586 283 595 Q272 604 272 626 Z " />
<glyph glyph-name="ecircumflex" unicode="&#xea;" horiz-adv-x="586" d="M47 256 Q47 381 114.5 450 Q182 519 307 519 Q354 519 399.5 507 Q445 495 480.5 469 Q516 443 538.5 404 Q561 365 561 311 Q561 307 560.5 295 Q560 283 560 280 Q558 277 550 269.5 Q542 262 539 259 Q537 257 531.5 253 Q526 249 526 249 L239 249 Q231 249 224 243.5 Q217 238 211 230.5 Q205 223 201.5 214 Q198 205 198 198 Q198 179 208 162.5 Q218 146 233.5 134 Q249 122 268 115.5 Q287 109 304 109 Q323 109 339.5 115.5 Q356 122 372 130 Q388 138 404 144.5 Q420 151 439 151 Q450 151 465.5 147.5 Q481 144 494.5 137.5 Q508 131 517.5 120.5 Q527 110 527 96 Q527 63 499.5 42.5 Q472 22 435.5 11 Q399 0 360.5 -3.5 Q322 -7 300 -7 Q239 -7 192 11.5 Q145 30 112.5 64 Q80 98 63.5 146.5 Q47 195 47 256 Z M252 375 Q252 364 258 358 Q264 352 273 349.5 Q282 347 292 347.5 Q302 348 311 348 Q318 348 328 348.5 Q338 349 347 351.5 Q356 354 362.5 359.5 Q369 365 369 376 Q369 386 363 393 Q357 400 348 403.5 Q339 407 328.5 408.5 Q318 410 311 410 Q302 410 292 408.5 Q282 407 273 403.5 Q264 400 258 393 Q252 386 252 375 Z M170 617 Q170 632 178.5 649 Q187 666 200 681.5 Q213 697 229 708 Q245 719 259 724 Q262 724 268.5 724 Q275 724 282 724 Q289 724 295 724 Q301 724 304 724 Q325 724 350 717 Q375 710 396 696.5 Q417 683 430.5 663 Q444 643 444 617 Q444 597 430.5 591.5 Q417 586 401 586 Q375 586 352 594 Q329 602 304 602 Q279 602 258.5 594 Q238 586 213 586 Q198 586 184 591.5 Q170 597 170 617 Z " />
<glyph glyph-name="edieresis" unicode="&#xeb;" horiz-adv-x="586" d="M47 256 Q47 381 114.5 450 Q182 519 307 519 Q354 519 399.5 507 Q445 495 480.5 469 Q516 443 538.5 404 Q561 365 561 311 Q561 307 560.5 295 Q560 283 560 280 Q558 277 550 269.5 Q542 262 539 259 Q537 257 531.5 253 Q526 249 526 249 L239 249 Q231 249 224 243.5 Q217 238 211 230.5 Q205 223 201.5 214 Q198 205 198 198 Q198 179 208 162.5 Q218 146 233.5 134 Q249 122 268 115.5 Q287 109 304 109 Q323 109 339.5 115.5 Q356 122 372 130 Q388 138 404 144.5 Q420 151 439 151 Q450 151 465.5 147.5 Q481 144 494.5 137.5 Q508 131 517.5 120.5 Q527 110 527 96 Q527 63 499.5 42.5 Q472 22 435.5 11 Q399 0 360.5 -3.5 Q322 -7 300 -7 Q239 -7 192 11.5 Q145 30 112.5 64 Q80 98 63.5 146.5 Q47 195 47 256 Z M252 375 Q252 364 258 358 Q264 352 273 349.5 Q282 347 292 347.5 Q302 348 311 348 Q318 348 328 348.5 Q338 349 347 351.5 Q356 354 362.5 359.5 Q369 365 369 376 Q369 386 363 393 Q357 400 348 403.5 Q339 407 328.5 408.5 Q318 410 311 410 Q302 410 292 408.5 Q282 407 273 403.5 Q264 400 258 393 Q252 386 252 375 Z M149 654 Q149 694 164.5 709 Q180 724 220 724 Q242 724 262 717 Q282 710 304 710 Q327 710 349 717 Q371 724 396 724 Q400 724 413 724 Q426 724 430 724 Q453 717 459 697 Q465 677 465 657 Q465 619 446.5 602.5 Q428 586 391 586 Q369 586 349 593.5 Q329 601 307 601 Q285 601 264 593.5 Q243 586 220 586 Q183 586 166 599.5 Q149 613 149 654 Z " />
<glyph glyph-name="igrave" unicode="&#xec;" horiz-adv-x="208" d="M69 513 Q77 513 87.5 510.5 Q98 508 107.5 503 Q117 498 123.5 490 Q130 482 130 471 L130 41 Q130 29 122.5 21.5 Q115 14 105 9 Q95 4 83.5 1.5 Q72 -1 64 -1 Q41 -1 20.5 14 Q0 29 0 55 L0 457 Q0 487 22 500 Q44 513 69 513 Z M-62 693 Q-62 703 -58.5 713.5 Q-55 724 -41 724 L41 724 Q54 724 65.5 713 Q77 702 85.5 686.5 Q94 671 98.5 655 Q103 639 103 628 Q103 602 88 594 Q73 586 50 586 Q31 586 11 595.5 Q-9 605 -25 620 Q-41 635 -51.5 654.5 Q-62 674 -62 693 Z " />
<glyph glyph-name="iacute" unicode="&#xed;" horiz-adv-x="208" d="M69 513 Q77 513 87.5 510.5 Q98 508 107.5 503 Q117 498 123.5 490 Q130 482 130 471 L130 41 Q130 29 122.5 21.5 Q115 14 105 9 Q95 4 83.5 1.5 Q72 -1 64 -1 Q41 -1 20.5 14 Q0 29 0 55 L0 457 Q0 487 22 500 Q44 513 69 513 Z M27 625 Q27 635 32.5 652 Q38 669 47 685 Q56 701 68.5 712.5 Q81 724 96 724 L177 724 Q190 724 194 713 Q198 702 198 693 Q198 679 189 664 Q180 649 167.5 635.5 Q155 622 142.5 611 Q130 600 123 594 Q112 587 100 586.5 Q88 586 76 586 Q60 586 43.5 595.5 Q27 605 27 625 Z " />
<glyph glyph-name="icircumflex" unicode="&#xee;" horiz-adv-x="208" d="M69 513 Q77 513 87.5 510.5 Q98 508 107.5 503 Q117 498 123.5 490 Q130 482 130 471 L130 41 Q130 29 122.5 21.5 Q115 14 105 9 Q95 4 83.5 1.5 Q72 -1 64 -1 Q41 -1 20.5 14 Q0 29 0 55 L0 457 Q0 487 22 500 Q44 513 69 513 Z M-69 622 Q-69 636 -60 652.5 Q-51 669 -37.5 683.5 Q-24 698 -8 709 Q8 720 20 724 Q23 724 29.5 724 Q36 724 43 724 Q50 724 56 724 Q62 724 65 724 Q86 724 110.5 717 Q135 710 156 696.5 Q177 683 191 663.5 Q205 644 205 618 Q205 598 188 592 Q171 586 157 586 Q132 586 110.5 594 Q89 602 65 602 Q41 602 21 594 Q1 586 -23 586 Q-45 586 -57 592 Q-69 598 -69 622 Z " />
<glyph glyph-name="idieresis" unicode="&#xef;" horiz-adv-x="208" d="M69 513 Q77 513 87.5 510.5 Q98 508 107.5 503 Q117 498 123.5 490 Q130 482 130 471 L130 41 Q130 29 122.5 21.5 Q115 14 105 9 Q95 4 83.5 1.5 Q72 -1 64 -1 Q41 -1 20.5 14 Q0 29 0 55 L0 457 Q0 487 22 500 Q44 513 69 513 Z M-124 655 Q-124 695 -109 709.5 Q-94 724 -55 724 Q-17 724 -1.5 710.5 Q14 697 14 659 Q14 618 0 602 Q-14 586 -55 586 Q-94 586 -109 601 Q-124 616 -124 655 Z M122 655 Q122 695 137 709.5 Q152 724 191 724 Q195 724 208 724 Q221 724 225 724 Q248 717 254 697 Q260 677 260 657 Q260 620 242 603 Q224 586 188 586 Q149 586 135.5 602 Q122 618 122 655 Z " />
<glyph glyph-name="ntilde" unicode="&#xf1;" horiz-adv-x="597" d="M130 513 Q143 513 155 509.5 Q167 506 179 502 Q191 498 203.5 494.5 Q216 491 229 491 Q245 491 260.5 495.5 Q276 500 291.5 505 Q307 510 322.5 514.5 Q338 519 355 519 Q393 519 424 504 Q455 489 478 463.5 Q501 438 513.5 404.5 Q526 371 526 335 L526 48 Q526 35 519.5 26 Q513 17 503.5 11 Q494 5 482.5 2.5 Q471 0 461 0 Q451 0 439 2.5 Q427 5 417 11 Q407 17 400 26 Q393 35 393 48 L393 314 Q393 333 383.5 346 Q374 359 359.5 367.5 Q345 376 328.5 379.5 Q312 383 298 383 Q281 383 262.5 377 Q244 371 229 359.5 Q214 348 204.5 331 Q195 314 195 294 L195 34 Q195 25 187 18.5 Q179 12 168.5 8 Q158 4 147 2 Q136 0 130 0 Q122 0 111 2.5 Q100 5 90.5 10 Q81 15 74.5 23 Q68 31 68 41 L68 478 Q68 488 75 495 Q82 502 92 506 Q102 510 112.5 511.5 Q123 513 130 513 Z M246 616 Q233 616 222.5 611.5 Q212 607 201.5 601.5 Q191 596 180 591.5 Q169 587 157 587 Q140 587 128 601 Q116 615 116 631 Q116 653 125 671 Q134 689 149 702.5 Q164 716 183 723.5 Q202 731 222 731 Q239 731 254.5 725.5 Q270 720 284.5 713 Q299 706 313.5 700.5 Q328 695 345 695 Q357 695 368 699.5 Q379 704 389 709.5 Q399 715 410 719.5 Q421 724 433 724 Q454 724 463 711 Q472 698 472 680 Q472 659 463.5 640.5 Q455 622 441.5 608.5 Q428 595 409.5 587.5 Q391 580 370 580 Q353 580 337.5 585.5 Q322 591 307.5 597.5 Q293 604 278 610 Q263 616 246 616 Z " />
<glyph glyph-name="ograve" unicode="&#xf2;" horiz-adv-x="614" d="M47 256 Q47 317 63.5 365.5 Q80 414 112.5 448 Q145 482 192 500.5 Q239 519 300 519 Q363 519 410.5 500 Q458 481 490 446.5 Q522 412 538 362.5 Q554 313 554 252 Q554 131 488 62 Q422 -7 300 -7 Q239 -7 191.5 11.5 Q144 30 112 64.5 Q80 99 63.5 147.5 Q47 196 47 256 Z M191 259 Q191 233 196 205 Q201 177 213.5 154 Q226 131 247 116 Q268 101 300 101 Q332 101 353 115.5 Q374 130 386.5 152 Q399 174 404.5 201.5 Q410 229 410 256 Q410 281 405 309.5 Q400 338 387.5 361.5 Q375 385 353.5 400.5 Q332 416 300 416 Q270 416 249 401 Q228 386 215 363 Q202 340 196.5 312 Q191 284 191 259 Z M170 692 Q170 702 173.5 713 Q177 724 191 724 L273 724 Q289 724 300.5 713 Q312 702 320 686.5 Q328 671 331.5 654.5 Q335 638 335 626 Q335 603 321.5 595 Q308 587 287 587 Q268 587 247.5 596 Q227 605 209.5 619.5 Q192 634 181 653 Q170 672 170 692 Z " />
<glyph glyph-name="oacute" unicode="&#xf3;" horiz-adv-x="614" d="M47 256 Q47 317 63.5 365.5 Q80 414 112.5 448 Q145 482 192 500.5 Q239 519 300 519 Q363 519 410.5 500 Q458 481 490 446.5 Q522 412 538 362.5 Q554 313 554 252 Q554 131 488 62 Q422 -7 300 -7 Q239 -7 191.5 11.5 Q144 30 112 64.5 Q80 99 63.5 147.5 Q47 196 47 256 Z M191 259 Q191 233 196 205 Q201 177 213.5 154 Q226 131 247 116 Q268 101 300 101 Q332 101 353 115.5 Q374 130 386.5 152 Q399 174 404.5 201.5 Q410 229 410 256 Q410 281 405 309.5 Q400 338 387.5 361.5 Q375 385 353.5 400.5 Q332 416 300 416 Q270 416 249 401 Q228 386 215 363 Q202 340 196.5 312 Q191 284 191 259 Z M265 628 Q265 638 269.5 654.5 Q274 671 282.5 686.5 Q291 702 302.5 713 Q314 724 328 724 L410 724 Q424 724 427.5 713 Q431 702 431 692 Q431 673 420 654 Q409 635 392.5 620 Q376 605 356 595.5 Q336 586 317 586 Q294 586 279.5 594 Q265 602 265 628 Z " />
<glyph glyph-name="ocircumflex" unicode="&#xf4;" horiz-adv-x="614" d="M47 256 Q47 317 63.5 365.5 Q80 414 112.5 448 Q145 482 192 500.5 Q239 519 300 519 Q363 519 410.5 500 Q458 481 490 446.5 Q522 412 538 362.5 Q554 313 554 252 Q554 131 488 62 Q422 -7 300 -7 Q239 -7 191.5 11.5 Q144 30 112 64.5 Q80 99 63.5 147.5 Q47 196 47 256 Z M191 259 Q191 233 196 205 Q201 177 213.5 154 Q226 131 247 116 Q268 101 300 101 Q332 101 353 115.5 Q374 130 386.5 152 Q399 174 404.5 201.5 Q410 229 410 256 Q410 281 405 309.5 Q400 338 387.5 361.5 Q375 385 353.5 400.5 Q332 416 300 416 Q270 416 249 401 Q228 386 215 363 Q202 340 196.5 312 Q191 284 191 259 Z M163 617 Q163 629 172 647 Q181 665 194.5 682 Q208 699 223.5 711.5 Q239 724 253 724 L348 724 Q361 724 377 712 Q393 700 406.5 683 Q420 666 429 647.5 Q438 629 438 617 Q438 597 424 591.5 Q410 586 394 586 Q370 586 349 594 Q328 602 304 602 Q278 602 255 594 Q232 586 206 586 Q191 586 177 591.5 Q163 597 163 617 Z " />
<glyph glyph-name="otilde" unicode="&#xf5;" horiz-adv-x="614" d="M47 256 Q47 380 113 449.5 Q179 519 304 519 Q366 519 413 500 Q460 481 491 445.5 Q522 410 538 361 Q554 312 554 252 Q554 131 488 62 Q422 -7 300 -7 Q239 -7 191.5 11.5 Q144 30 112 64.5 Q80 99 63.5 147.5 Q47 196 47 256 Z M191 259 Q191 233 196 205 Q201 177 213.5 154 Q226 131 247 116 Q268 101 300 101 Q332 101 353 115.5 Q374 130 386.5 152 Q399 174 404.5 201.5 Q410 229 410 256 Q410 281 405 309.5 Q400 338 387.5 361.5 Q375 385 353.5 400.5 Q332 416 300 416 Q270 416 249 401 Q228 386 215 363 Q202 340 196.5 312 Q191 284 191 259 Z M253 616 Q240 616 228.5 611.5 Q217 607 206 601.5 Q195 596 184 591.5 Q173 587 160 587 Q138 587 130 601 Q122 615 122 633 Q122 655 131.5 673.5 Q141 692 156 705 Q171 718 190.5 725 Q210 732 230 732 Q247 732 262 726 Q277 720 291.5 713.5 Q306 707 320.5 701 Q335 695 351 695 Q364 695 374.5 699.5 Q385 704 395.5 709.5 Q406 715 417 719.5 Q428 724 441 724 Q462 724 470.5 710.5 Q479 697 479 678 Q479 656 469.5 637.5 Q460 619 445 606 Q430 593 410.5 586 Q391 579 370 579 Q353 579 339 584.5 Q325 590 311.5 597 Q298 604 284 610 Q270 616 253 616 Z " />
<glyph glyph-name="odieresis" unicode="&#xf6;" horiz-adv-x="614" d="M47 256 Q47 317 63.5 365.5 Q80 414 112.5 448 Q145 482 192 500.5 Q239 519 300 519 Q363 519 410.5 500 Q458 481 490 446.5 Q522 412 538 362.5 Q554 313 554 252 Q554 131 488 62 Q422 -7 300 -7 Q239 -7 191.5 11.5 Q144 30 112 64.5 Q80 99 63.5 147.5 Q47 196 47 256 Z M191 259 Q191 233 196 205 Q201 177 213.5 154 Q226 131 247 116 Q268 101 300 101 Q332 101 353 115.5 Q374 130 386.5 152 Q399 174 404.5 201.5 Q410 229 410 256 Q410 281 405 309.5 Q400 338 387.5 361.5 Q375 385 353.5 400.5 Q332 416 300 416 Q270 416 249 401 Q228 386 215 363 Q202 340 196.5 312 Q191 284 191 259 Z M142 655 Q142 676 148 696 Q154 716 177 724 Q181 724 194.5 724 Q208 724 212 724 Q236 724 258 717 Q280 710 304 710 Q326 710 345.5 717 Q365 724 388 724 Q426 724 442 710 Q458 696 458 655 Q458 635 452 614.5 Q446 594 423 587 Q419 587 406 586.5 Q393 586 389 586 Q365 586 344 593.5 Q323 601 300 601 Q278 601 257.5 593.5 Q237 586 214 586 Q177 586 159.5 601.5 Q142 617 142 655 Z " />
<glyph glyph-name="oslash" unicode="&#xf8;" horiz-adv-x="614" d="M102 20 Q91 28 81 60.5 Q71 93 63.5 131.5 Q56 170 51.5 206 Q47 242 47 256 Q47 317 63.5 365.5 Q80 414 112.5 448 Q145 482 192 500.5 Q239 519 300 519 Q309 519 340 516.5 Q371 514 406.5 510 Q442 506 471.5 501 Q501 496 505 492 Q515 482 524 448 Q533 414 539.5 375 Q546 336 550 300.5 Q554 265 554 252 Q554 131 488 62 Q422 -7 300 -7 Q275 -7 250.5 -3.5 Q226 0 201.5 5 Q177 10 152.5 14.5 Q128 19 102 20 Z M245 151 Q245 134 252 123.5 Q259 113 273 102 Q276 102 286.5 101.5 Q297 101 300 101 Q329 101 349.5 114 Q370 127 383.5 147 Q397 167 403.5 192.5 Q410 218 410 243 Q410 265 402.5 279.5 Q395 294 370 294 Q348 294 326 279.5 Q304 265 286 243 Q268 221 256.5 196 Q245 171 245 151 Z M191 273 Q191 250 198 234 Q205 218 231 218 Q250 218 272 233 Q294 248 312.5 270.5 Q331 293 343.5 318 Q356 343 356 362 Q356 387 340.5 401.5 Q325 416 300 416 Q273 416 252.5 402.5 Q232 389 218 368 Q204 347 197.5 321.5 Q191 296 191 273 Z " />
<glyph glyph-name="ugrave" unicode="&#xf9;" horiz-adv-x="586" d="M123 513 Q134 513 146.5 510 Q159 507 170 500 Q181 493 188 482.5 Q195 472 195 457 L195 177 Q212 156 227 139 Q242 122 273 122 Q294 122 313 132.5 Q332 143 346.5 160 Q361 177 370 197.5 Q379 218 379 239 L379 478 Q379 487 386.5 494 Q394 501 404.5 505 Q415 509 426 511 Q437 513 444 513 Q451 513 461.5 511 Q472 509 481.5 505 Q491 501 498 494.5 Q505 488 505 478 L505 34 Q505 25 498 18 Q491 11 481 7 Q471 3 460.5 1.5 Q450 0 444 0 Q431 0 419.5 4 Q408 8 397 13.5 Q386 19 375 23 Q364 27 352 27 Q335 27 319.5 22 Q304 17 288 10.5 Q272 4 256 -1.5 Q240 -7 222 -7 Q187 -7 157.5 5 Q128 17 106.5 39 Q85 61 73 91 Q61 121 61 157 L61 471 Q61 482 67.5 490 Q74 498 83.5 503 Q93 508 103.5 510.5 Q114 513 123 513 Z M156 694 Q156 700 157.5 712 Q159 724 171 724 L259 724 Q273 724 284.5 713 Q296 702 304 686.5 Q312 671 316.5 655 Q321 639 321 628 Q321 602 306 594 Q291 586 268 586 Q249 586 229 595.5 Q209 605 193 620.5 Q177 636 166.5 655 Q156 674 156 694 Z " />
<glyph glyph-name="uacute" unicode="&#xfa;" horiz-adv-x="586" d="M123 513 Q134 513 146.5 510 Q159 507 170 500 Q181 493 188 482.5 Q195 472 195 457 L195 177 Q212 156 227 139 Q242 122 273 122 Q294 122 313 132.5 Q332 143 346.5 160 Q361 177 370 197.5 Q379 218 379 239 L379 478 Q379 487 386.5 494 Q394 501 404.5 505 Q415 509 426 511 Q437 513 444 513 Q451 513 461.5 511 Q472 509 481.5 505 Q491 501 498 494.5 Q505 488 505 478 L505 34 Q505 25 498 18 Q491 11 481 7 Q471 3 460.5 1.5 Q450 0 444 0 Q431 0 419.5 4 Q408 8 397 13.5 Q386 19 375 23 Q364 27 352 27 Q335 27 319.5 22 Q304 17 288 10.5 Q272 4 256 -1.5 Q240 -7 222 -7 Q187 -7 157.5 5 Q128 17 106.5 39 Q85 61 73 91 Q61 121 61 157 L61 471 Q61 482 67.5 490 Q74 498 83.5 503 Q93 508 103.5 510.5 Q114 513 123 513 Z M245 628 Q245 639 250.5 655.5 Q256 672 265.5 687 Q275 702 287.5 713 Q300 724 314 724 L396 724 Q410 724 413.5 713.5 Q417 703 417 694 Q417 673 405 653.5 Q393 634 375 619 Q357 604 335.5 595 Q314 586 294 586 Q276 586 260.5 596.5 Q245 607 245 628 Z " />
<glyph glyph-name="ucircumflex" unicode="&#xfb;" horiz-adv-x="586" d="M123 513 Q134 513 146.5 510 Q159 507 170 500 Q181 493 188 482.5 Q195 472 195 457 L195 177 Q212 156 227 139 Q242 122 273 122 Q294 122 313 132.5 Q332 143 346.5 160 Q361 177 370 197.5 Q379 218 379 239 L379 478 Q379 487 386.5 494 Q394 501 404.5 505 Q415 509 426 511 Q437 513 444 513 Q451 513 461.5 511 Q472 509 481.5 505 Q491 501 498 494.5 Q505 488 505 478 L505 34 Q505 25 498 18 Q491 11 481 7 Q471 3 460.5 1.5 Q450 0 444 0 Q431 0 419.5 4 Q408 8 397 13.5 Q386 19 375 23 Q364 27 352 27 Q335 27 319.5 22 Q304 17 288 10.5 Q272 4 256 -1.5 Q240 -7 222 -7 Q187 -7 157.5 5 Q128 17 106.5 39 Q85 61 73 91 Q61 121 61 157 L61 471 Q61 482 67.5 490 Q74 498 83.5 503 Q93 508 103.5 510.5 Q114 513 123 513 Z M149 619 Q149 634 158 650.5 Q167 667 180.5 682 Q194 697 209.5 708.5 Q225 720 239 724 Q241 724 247.5 724 Q254 724 261 724 Q268 724 274.5 724 Q281 724 283 724 Q306 724 330.5 717 Q355 710 375.5 696 Q396 682 409.5 661.5 Q423 641 423 614 Q423 605 418 599.5 Q413 594 405 591 Q397 588 389 587 Q381 586 375 586 Q351 586 329 594 Q307 602 283 602 Q259 602 239 594 Q219 586 195 586 Q174 586 161.5 591 Q149 596 149 619 Z " />
<glyph glyph-name="udieresis" unicode="&#xfc;" horiz-adv-x="586" d="M123 513 Q134 513 146.5 510 Q159 507 170 500 Q181 493 188 482.5 Q195 472 195 457 L195 177 Q212 156 227 139 Q242 122 273 122 Q294 122 313 132.5 Q332 143 346.5 160 Q361 177 370 197.5 Q379 218 379 239 L379 478 Q379 487 386.5 494 Q394 501 404.5 505 Q415 509 426 511 Q437 513 444 513 Q451 513 461.5 511 Q472 509 481.5 505 Q491 501 498 494.5 Q505 488 505 478 L505 34 Q505 25 498 18 Q491 11 481 7 Q471 3 460.5 1.5 Q450 0 444 0 Q431 0 419.5 4 Q408 8 397 13.5 Q386 19 375 23 Q364 27 352 27 Q335 27 319.5 22 Q304 17 288 10.5 Q272 4 256 -1.5 Q240 -7 222 -7 Q187 -7 157.5 5 Q128 17 106.5 39 Q85 61 73 91 Q61 121 61 157 L61 471 Q61 482 67.5 490 Q74 498 83.5 503 Q93 508 103.5 510.5 Q114 513 123 513 Z M129 655 Q129 696 144 710 Q159 724 199 724 Q222 724 242 717 Q262 710 283 710 Q306 710 327 717 Q348 724 371 724 Q406 724 425 708 Q444 692 444 655 Q444 618 425 602 Q406 586 371 586 Q348 586 328.5 593.5 Q309 601 287 601 Q264 601 243.5 593.5 Q223 586 199 586 Q159 586 144 600.5 Q129 615 129 655 Z " />
<glyph glyph-name="yacute" unicode="&#xfd;" horiz-adv-x="516" d="M40 -185 Q40 -163 50 -150.5 Q60 -138 74.5 -130.5 Q89 -123 106 -117.5 Q123 -112 137.5 -103.5 Q152 -95 162 -80.5 Q172 -66 172 -41 Q172 -35 171.5 -24.5 Q171 -14 171 -14 L20 457 Q20 458 20 460.5 Q20 463 20 464 Q20 495 40 504 Q60 513 85 513 Q125 513 147.5 486 Q170 459 182.5 422 Q195 385 200 345 Q205 305 212 280 Q215 269 221.5 257.5 Q228 246 242 246 Q261 246 270 265.5 Q279 285 285.5 314.5 Q292 344 299 379 Q306 414 319 443.5 Q332 473 354.5 493 Q377 513 415 513 Q443 513 461 504.5 Q479 496 479 466 Q479 463 478.5 457 Q478 451 478 451 L280 -150 Q271 -178 252.5 -196.5 Q234 -215 210 -226 Q186 -237 159 -241.5 Q132 -246 107 -246 Q75 -246 57.5 -232.5 Q40 -219 40 -185 Z M218 626 Q218 638 221.5 655 Q225 672 232.5 687 Q240 702 252 713 Q264 724 280 724 L362 724 Q374 724 378.5 713 Q383 702 383 693 Q383 671 371 652 Q359 633 340.5 618.5 Q322 604 300.5 595 Q279 586 260 586 Q239 586 228.5 595 Q218 604 218 626 Z " />
<glyph glyph-name="thorn" unicode="&#xfe;" horiz-adv-x="624" d="M130 745 Q150 745 168 734.5 Q186 724 191 703 Q191 694 192 672 Q193 650 194 625 Q195 600 196 577.5 Q197 555 198 546 Q200 524 208.5 514 Q217 504 238 504 Q266 504 291.5 512 Q317 520 346 520 Q402 520 443.5 497.5 Q485 475 512.5 438.5 Q540 402 553.5 354.5 Q567 307 567 256 Q567 205 553.5 157.5 Q540 110 512 73.5 Q484 37 443 15 Q402 -7 346 -7 Q318 -7 292 0.5 Q266 8 238 8 Q220 8 207.5 -2.5 Q195 -13 195 -34 L195 -273 Q195 -283 187 -289.5 Q179 -296 168.5 -300 Q158 -304 147 -306 Q136 -308 130 -308 Q121 -308 110 -306 Q99 -304 90 -299.5 Q81 -295 74.5 -287 Q68 -279 68 -266 L68 703 Q68 714 74.5 721.5 Q81 729 90.5 734 Q100 739 111 742 Q122 745 130 745 Z M307 403 Q291 403 273 396 Q255 389 240 377 Q225 365 215 348.5 Q205 332 205 314 L205 198 Q205 180 215 163.5 Q225 147 240 135 Q255 123 273 116 Q291 109 307 109 Q337 109 357.5 122.5 Q378 136 391.5 157.5 Q405 179 411 205 Q417 231 417 256 Q417 281 411 307 Q405 333 391.5 354.5 Q378 376 357.5 389.5 Q337 403 307 403 Z " />
<glyph glyph-name="ydieresis" unicode="&#xff;" horiz-adv-x="516" d="M40 -185 Q40 -163 50 -150.5 Q60 -138 74.5 -130.5 Q89 -123 106 -117.5 Q123 -112 137.5 -103.5 Q152 -95 162 -80.5 Q172 -66 172 -41 Q172 -35 171.5 -24.5 Q171 -14 171 -14 L20 457 Q20 458 20 460.5 Q20 463 20 464 Q20 495 40 504 Q60 513 85 513 Q125 513 147.5 486 Q170 459 182.5 422 Q195 385 200 345 Q205 305 212 280 Q215 269 221.5 257.5 Q228 246 242 246 Q261 246 270 265.5 Q279 285 285.5 314.5 Q292 344 299 379 Q306 414 319 443.5 Q332 473 354.5 493 Q377 513 415 513 Q443 513 461 504.5 Q479 496 479 466 Q479 463 478.5 457 Q478 451 478 451 L280 -150 Q271 -178 252.5 -196.5 Q234 -215 210 -226 Q186 -237 159 -241.5 Q132 -246 107 -246 Q75 -246 57.5 -232.5 Q40 -219 40 -185 Z M95 655 Q95 696 110 710 Q125 724 165 724 Q188 724 207.5 717 Q227 710 249 710 Q273 710 295 717 Q317 724 341 724 Q345 724 358.5 724 Q372 724 375 724 Q387 714 393.5 707.5 Q400 701 404 694 Q408 687 409 678 Q410 669 410 655 Q410 618 391.5 602 Q373 586 337 586 Q314 586 294 593.5 Q274 601 253 601 Q230 601 209.5 593.5 Q189 586 165 586 Q125 586 110 600.5 Q95 615 95 655 Z " />
<glyph glyph-name="Amacron" unicode="&#x100;" horiz-adv-x="747" d="M20 44 Q20 47 20 48 Q21 50 23 56 Q25 62 27 68.5 Q29 75 31 81 Q33 87 34 89 L266 689 Q279 724 307.5 734.5 Q336 745 368 745 Q406 745 436 731.5 Q466 718 478 676 Q486 654 503 608 Q520 562 541.5 504 Q563 446 587 382 Q611 318 632.5 260.5 Q654 203 671 157 Q688 111 696 89 Q697 86 699 80 Q701 74 703.5 67.5 Q706 61 707.5 55.5 Q709 50 710 48 Q710 47 710 44 Q710 28 703 19 Q696 10 685 5.5 Q674 1 661 0 Q648 -1 636 -1 Q602 -1 583.5 19.5 Q565 40 551.5 64.5 Q538 89 522.5 109.5 Q507 130 478 130 L259 130 Q232 130 219.5 109.5 Q207 89 194 64.5 Q181 40 160 19.5 Q139 -1 96 -1 Q84 -1 70.5 0 Q57 1 46 5.5 Q35 10 27.5 19 Q20 28 20 44 Z M293 299 Q293 288 299 273.5 Q305 259 321 259 L416 259 Q431 259 441 275.5 Q451 292 451 304 Q451 313 444.5 339 Q438 365 427 393 Q416 421 401 443 Q386 465 369 465 Q352 465 337.5 444.5 Q323 424 313 396.5 Q303 369 298 341.5 Q293 314 293 299 Z M225 862 Q225 874 235.5 887.5 Q246 901 259 901 L485 901 Q498 901 509 887.5 Q520 874 520 862 Q520 842 506 827 Q492 812 471 812 L273 812 Q252 812 238.5 827 Q225 842 225 862 Z " />
<glyph glyph-name="amacron" unicode="&#x101;" horiz-adv-x="574" d="M40 140 Q40 189 62 218 Q84 247 117 264 Q150 281 188 290.5 Q226 300 259 309 Q292 318 314 330.5 Q336 343 336 368 Q336 391 319 397 Q302 403 284 403 Q265 403 248.5 397.5 Q232 392 216 385.5 Q200 379 183.5 373 Q167 367 148 367 Q137 367 124 368.5 Q111 370 100 375 Q89 380 81.5 388.5 Q74 397 74 412 Q74 444 96.5 465 Q119 486 150 498 Q181 510 215 514.5 Q249 519 273 519 Q308 519 347.5 510 Q387 501 419.5 481 Q452 461 473.5 430 Q495 399 495 355 L495 143 Q505 128 512.5 117 Q520 106 524.5 96 Q529 86 531 76 Q533 66 533 53 Q533 29 518.5 14.5 Q504 0 478 0 Q445 0 416 10.5 Q387 21 355 21 Q336 21 318 16.5 Q300 12 282.5 7 Q265 2 246.5 -2.5 Q228 -7 208 -7 Q173 -7 142.5 2 Q112 11 89 29 Q66 47 53 75 Q40 103 40 140 Z M184 138 Q184 126 190.5 116.5 Q197 107 207 101 Q217 95 229.5 91.5 Q242 88 253 88 Q269 88 286 94 Q303 100 317 110.5 Q331 121 340 135.5 Q349 150 349 167 Q349 192 338.5 198.5 Q328 205 305 205 Q287 205 266 203 Q245 201 227 193.5 Q209 186 196.5 173 Q184 160 184 138 Z M122 627 Q122 638 128 653.5 Q134 669 150 669 L389 669 Q405 669 411 653.5 Q417 638 417 627 Q417 614 406.5 600.5 Q396 587 382 587 L157 587 Q143 587 132.5 600.5 Q122 614 122 627 Z " />
<glyph glyph-name="Abreve" unicode="&#x102;" horiz-adv-x="747" d="M20 44 Q20 47 20 48 Q21 50 23 56 Q25 62 27 68.5 Q29 75 31 81 Q33 87 34 89 L266 689 Q279 724 307.5 734.5 Q336 745 368 745 Q406 745 436 731.5 Q466 718 478 676 Q486 654 503 608 Q520 562 541.5 504 Q563 446 587 382 Q611 318 632.5 260.5 Q654 203 671 157 Q688 111 696 89 Q697 86 699 80 Q701 74 703.5 67.5 Q706 61 707.5 55.5 Q709 50 710 48 Q710 47 710 44 Q710 28 703 19 Q696 10 685 5.5 Q674 1 661 0 Q648 -1 636 -1 Q602 -1 583.5 19.5 Q565 40 551.5 64.5 Q538 89 522.5 109.5 Q507 130 478 130 L259 130 Q232 130 219.5 109.5 Q207 89 194 64.5 Q181 40 160 19.5 Q139 -1 96 -1 Q84 -1 70.5 0 Q57 1 46 5.5 Q35 10 27.5 19 Q20 28 20 44 Z M293 299 Q293 288 299 273.5 Q305 259 321 259 L416 259 Q431 259 441 275.5 Q451 292 451 304 Q451 313 444.5 339 Q438 365 427 393 Q416 421 401 443 Q386 465 369 465 Q352 465 337.5 444.5 Q323 424 313 396.5 Q303 369 298 341.5 Q293 314 293 299 Z M218 909 Q218 928 229.5 935.5 Q241 943 257 943 Q274 943 287.5 936.5 Q301 930 314.5 922 Q328 914 342 907.5 Q356 901 372 901 Q388 901 402 907.5 Q416 914 429.5 922 Q443 930 456.5 936.5 Q470 943 487 943 Q503 943 514.5 935.5 Q526 928 526 909 Q526 883 510 863.5 Q494 844 470.5 831 Q447 818 420 811.5 Q393 805 372 805 Q351 805 324.5 811.5 Q298 818 274 831 Q250 844 234 863.5 Q218 883 218 909 Z " />
<glyph glyph-name="abreve" unicode="&#x103;" horiz-adv-x="574" d="M40 140 Q40 189 62 218 Q84 247 117 264 Q150 281 188 290.5 Q226 300 259 309 Q292 318 314 330.5 Q336 343 336 368 Q336 391 319 397 Q302 403 284 403 Q265 403 248.5 397.5 Q232 392 216 385.5 Q200 379 183.5 373 Q167 367 148 367 Q137 367 124 368.5 Q111 370 100 375 Q89 380 81.5 388.5 Q74 397 74 412 Q74 441 96.5 463 Q119 485 150.5 499 Q182 513 215.5 519.5 Q249 526 272 526 Q307 526 346.5 515 Q386 504 419 482.5 Q452 461 473.5 429 Q495 397 495 355 L495 143 Q505 128 512.5 117 Q520 106 524.5 96 Q529 86 531 76 Q533 66 533 53 Q533 29 518.5 14.5 Q504 0 478 0 Q445 0 416 10.5 Q387 21 355 21 Q336 21 318 16.5 Q300 12 282.5 7 Q265 2 246.5 -2.5 Q228 -7 208 -7 Q173 -7 142.5 2 Q112 11 89 29 Q66 47 53 75 Q40 103 40 140 Z M184 138 Q184 126 190.5 116.5 Q197 107 207 101 Q217 95 229.5 91.5 Q242 88 253 88 Q269 88 286 94 Q303 100 317 110.5 Q331 121 340 135.5 Q349 150 349 167 Q349 192 338.5 198.5 Q328 205 305 205 Q287 205 266 203 Q245 201 227 193.5 Q209 186 196.5 173 Q184 160 184 138 Z M115 675 Q115 693 124.5 705 Q134 717 153 717 Q170 717 184 710.5 Q198 704 212 696 Q226 688 240.5 681 Q255 674 272 674 Q276 674 284.5 675 Q293 676 294 676 L375 717 Q376 717 379.5 717 Q383 717 385 717 Q404 717 414 705.5 Q424 694 424 676 Q424 650 407.5 631 Q391 612 367.5 599 Q344 586 317 579.5 Q290 573 270 573 Q250 573 223 579.5 Q196 586 172.5 599 Q149 612 132 631 Q115 650 115 675 Z " />
<glyph glyph-name="Aogonek" unicode="&#x104;" horiz-adv-x="747" d="M614 -106 Q614 -90 618 -75.5 Q622 -61 622 -44 Q622 -42 621.5 -35.5 Q621 -29 621 -27 Q607 -17 590.5 9 Q574 35 555.5 62 Q537 89 517.5 109.5 Q498 130 478 130 L259 130 Q232 130 219.5 109.5 Q207 89 194 64.5 Q181 40 160 19.5 Q139 -1 96 -1 Q84 -1 70.5 0 Q57 1 46 5.5 Q35 10 27.5 19 Q20 28 20 44 Q20 47 20 48 Q21 50 23 56 Q25 62 27 68.5 Q29 75 31 81 Q33 87 34 89 L266 689 Q279 724 307.5 734.5 Q336 745 368 745 Q406 745 436 731.5 Q466 718 478 676 Q486 654 503 608 Q520 562 542 504 Q564 446 587.5 382 Q611 318 632.5 260.5 Q654 203 671 157 Q688 111 696 89 Q702 74 706 64.5 Q710 55 712.5 47.5 Q715 40 716 32.5 Q717 25 717 14 Q717 2 713.5 -9 Q710 -20 706 -31 Q702 -42 698.5 -53 Q695 -64 695 -77 Q695 -97 704.5 -107.5 Q714 -118 728 -123 Q742 -128 758 -129.5 Q774 -131 788 -134.5 Q802 -138 811 -146 Q820 -154 820 -171 Q820 -186 809.5 -197 Q799 -208 785 -212 Q781 -212 766.5 -212 Q752 -212 748 -212 Q724 -212 700 -205.5 Q676 -199 657 -186 Q638 -173 626 -153 Q614 -133 614 -106 Z M293 299 Q293 288 299 273.5 Q305 259 321 259 L416 259 Q431 259 441 275.5 Q451 292 451 304 Q451 313 444.5 339 Q438 365 427 393 Q416 421 401 443 Q386 465 369 465 Q352 465 337.5 444.5 Q323 424 313 396.5 Q303 369 298 341.5 Q293 314 293 299 Z " />
<glyph glyph-name="aogonek" unicode="&#x105;" horiz-adv-x="623" d="M430 -109 Q430 -90 437 -73 Q444 -56 444 -37 Q444 -12 429 1 Q414 14 389 14 Q359 14 331.5 3.5 Q304 -7 273 -7 Q218 -7 176 15 Q134 37 105.5 74 Q77 111 62 158 Q47 205 47 256 Q47 308 62 356 Q77 404 106.5 440 Q136 476 179.5 498 Q223 520 279 520 Q309 520 336 509 Q363 498 393 498 Q416 498 437 505.5 Q458 513 481 513 Q491 513 502.5 510.5 Q514 508 524 502 Q534 496 540 487 Q546 478 546 464 L546 27 Q546 15 540.5 3.5 Q535 -8 528.5 -19 Q522 -30 516.5 -41.5 Q511 -53 511 -66 Q511 -98 530.5 -109.5 Q550 -121 573.5 -126.5 Q597 -132 616.5 -139 Q636 -146 636 -170 Q636 -186 630 -195.5 Q624 -205 608 -212 Q603 -212 587 -212 Q571 -212 567 -212 Q544 -212 520 -206.5 Q496 -201 476 -188.5 Q456 -176 443 -156.5 Q430 -137 430 -109 Z M191 256 Q191 230 200 204 Q209 178 225.5 157 Q242 136 265.5 122.5 Q289 109 317 109 Q346 109 364.5 124.5 Q383 140 393 162.5 Q403 185 406.5 211.5 Q410 238 410 260 Q410 281 406 306.5 Q402 332 391.5 353.5 Q381 375 363 389 Q345 403 318 403 Q289 403 265.5 390 Q242 377 225.5 356 Q209 335 200 309 Q191 283 191 256 Z " />
<glyph glyph-name="Cacute" unicode="&#x106;" horiz-adv-x="738" d="M47 372 Q47 448 73 516.5 Q99 585 146 637.5 Q193 690 258.5 720.5 Q324 751 403 751 Q432 751 480.5 742 Q529 733 575.5 714.5 Q622 696 656 668.5 Q690 641 690 605 Q690 592 681.5 578 Q673 564 660 552 Q647 540 632 532.5 Q617 525 604 525 Q583 525 561 540.5 Q539 556 514.5 574 Q490 592 462.5 607 Q435 622 403 622 Q353 622 317 599 Q281 576 257.5 540 Q234 504 222.5 459.5 Q211 415 211 372 Q211 329 222 284.5 Q233 240 256.5 204 Q280 168 316.5 145 Q353 122 403 122 Q436 122 463.5 136 Q491 150 515 167 Q539 184 561.5 198 Q584 212 608 212 Q622 212 636.5 205 Q651 198 663 187 Q675 176 682.5 162 Q690 148 690 133 Q690 92 657 65 Q624 38 578 22 Q532 6 484 -0.5 Q436 -7 406 -7 Q326 -7 260 23 Q194 53 146.5 104.5 Q99 156 73 225 Q47 294 47 372 Z M341 857 Q341 906 372 931.5 Q403 957 447 957 Q451 957 465.5 956.5 Q480 956 485 956 Q494 952 503 944.5 Q512 937 512 925 Q512 906 500 886 Q488 866 469.5 849.5 Q451 833 429.5 822.5 Q408 812 389 812 Q369 812 355 824.5 Q341 837 341 857 Z " />
<glyph glyph-name="cacute" unicode="&#x107;" horiz-adv-x="579" d="M47 256 Q47 315 63 363.5 Q79 412 110.5 446.5 Q142 481 189 500.5 Q236 520 297 520 Q334 520 362.5 515 Q391 510 416.5 498.5 Q442 487 465 468.5 Q488 450 512 423 Q513 421 515.5 413 Q518 405 519 403 Q519 402 519 399 Q519 386 511 375.5 Q503 365 491 357 Q479 349 465.5 345 Q452 341 441 341 Q420 341 404 351.5 Q388 362 372.5 375 Q357 388 340 399 Q323 410 300 410 Q270 410 249 395 Q228 380 215 357.5 Q202 335 196.5 308 Q191 281 191 256 Q191 230 197.5 204 Q204 178 217.5 157 Q231 136 252.5 122.5 Q274 109 304 109 Q323 109 339.5 116.5 Q356 124 371.5 133 Q387 142 403 150 Q419 158 438 158 Q449 158 463 153 Q477 148 489.5 139.5 Q502 131 510.5 120 Q519 109 519 96 Q519 64 493 44 Q467 24 431.5 12.5 Q396 1 360 -3 Q324 -7 304 -7 Q180 -7 113.5 63.5 Q47 134 47 256 Z M266 628 Q266 639 270.5 655 Q275 671 283.5 686.5 Q292 702 303 713 Q314 724 328 724 L410 724 Q424 724 427.5 713.5 Q431 703 431 693 Q431 674 420.5 654.5 Q410 635 393.5 620 Q377 605 357.5 595.5 Q338 586 319 586 Q296 586 281 594 Q266 602 266 628 Z " />
<glyph glyph-name="Ccircumflex" unicode="&#x108;" horiz-adv-x="738" d="M47 372 Q47 448 73 516.5 Q99 585 146 637.5 Q193 690 258.5 720.5 Q324 751 403 751 Q432 751 480.5 742 Q529 733 575.5 714.5 Q622 696 656 668.5 Q690 641 690 605 Q690 592 681.5 578 Q673 564 660 552 Q647 540 632 532.5 Q617 525 604 525 Q583 525 561 540.5 Q539 556 514.5 574 Q490 592 462.5 607 Q435 622 403 622 Q353 622 317 599 Q281 576 257.5 540 Q234 504 222.5 459.5 Q211 415 211 372 Q211 329 222 284.5 Q233 240 256.5 204 Q280 168 316.5 145 Q353 122 403 122 Q436 122 463.5 136 Q491 150 515 167 Q539 184 561.5 198 Q584 212 608 212 Q622 212 636.5 205 Q651 198 663 187 Q675 176 682.5 162 Q690 148 690 133 Q690 92 657 65 Q624 38 578 22 Q532 6 484 -0.5 Q436 -7 406 -7 Q326 -7 260 23 Q194 53 146.5 104.5 Q99 156 73 225 Q47 294 47 372 Z M245 850 Q245 877 257.5 896.5 Q270 916 290 929.5 Q310 943 333.5 949.5 Q357 956 379 956 Q400 956 423.5 949 Q447 942 467 928 Q487 914 500 894.5 Q513 875 513 850 Q513 841 511.5 832 Q510 823 498 819 Q495 819 484.5 818.5 Q474 818 471 818 Q447 818 425 825.5 Q403 833 379 833 Q355 833 333 825.5 Q311 818 287 818 Q284 818 273.5 818.5 Q263 819 259 819 Q247 823 246 832 Q245 841 245 850 Z " />
<glyph glyph-name="Cdotaccent" unicode="&#x10a;" horiz-adv-x="738" d="M47 372 Q47 448 73 516.5 Q99 585 146 637.5 Q193 690 258.5 720.5 Q324 751 403 751 Q432 751 480.5 742 Q529 733 575.5 714.5 Q622 696 656 668.5 Q690 641 690 605 Q690 592 681.5 578 Q673 564 660 552 Q647 540 632 532.5 Q617 525 604 525 Q583 525 561 540.5 Q539 556 514.5 574 Q490 592 462.5 607 Q435 622 403 622 Q353 622 317 599 Q281 576 257.5 540 Q234 504 222.5 459.5 Q211 415 211 372 Q211 329 222 284.5 Q233 240 256.5 204 Q280 168 316.5 145 Q353 122 403 122 Q436 122 463.5 136 Q491 150 515 167 Q539 184 561.5 198 Q584 212 608 212 Q622 212 636.5 205 Q651 198 663 187 Q675 176 682.5 162 Q690 148 690 133 Q690 92 657 65 Q624 38 578 22 Q532 6 484 -0.5 Q436 -7 406 -7 Q326 -7 260 23 Q194 53 146.5 104.5 Q99 156 73 225 Q47 294 47 372 Z M307 882 Q307 918 323 937 Q339 956 375 956 Q410 956 430.5 940.5 Q451 925 451 888 Q451 854 432 833 Q413 812 379 812 Q345 812 326 829.5 Q307 847 307 882 Z " />
<glyph glyph-name="cdotaccent" unicode="&#x10b;" horiz-adv-x="579" d="M47 256 Q47 315 63 363.5 Q79 412 110.5 446.5 Q142 481 189 500.5 Q236 520 297 520 Q334 520 362.5 515 Q391 510 416.5 498.5 Q442 487 465 468.5 Q488 450 512 423 Q513 421 515.5 413 Q518 405 519 403 Q519 402 519 399 Q519 386 511 375.5 Q503 365 491 357 Q479 349 465.5 345 Q452 341 441 341 Q420 341 404 351.5 Q388 362 372.5 375 Q357 388 340 399 Q323 410 300 410 Q270 410 249 395 Q228 380 215 357.5 Q202 335 196.5 308 Q191 281 191 256 Q191 230 197.5 204 Q204 178 217.5 157 Q231 136 252.5 122.5 Q274 109 304 109 Q323 109 339.5 116.5 Q356 124 371.5 133 Q387 142 403 150 Q419 158 438 158 Q449 158 463 153 Q477 148 489.5 139.5 Q502 131 510.5 120 Q519 109 519 96 Q519 64 493 44 Q467 24 431.5 12.5 Q396 1 360 -3 Q324 -7 304 -7 Q180 -7 113.5 63.5 Q47 134 47 256 Z M231 655 Q231 676 237 696 Q243 716 266 724 Q270 724 283.5 724 Q297 724 300 724 Q336 724 356 709.5 Q376 695 376 655 Q376 617 356.5 601.5 Q337 586 302 586 Q265 586 248 602 Q231 618 231 655 Z " />
<glyph glyph-name="Ccaron" unicode="&#x10c;" horiz-adv-x="738" d="M47 372 Q47 448 73 516.5 Q99 585 146 637.5 Q193 690 258.5 720.5 Q324 751 403 751 Q432 751 480.5 742 Q529 733 575.5 714.5 Q622 696 656 668.5 Q690 641 690 605 Q690 592 681.5 578 Q673 564 660 552 Q647 540 632 532.5 Q617 525 604 525 Q583 525 561 540.5 Q539 556 514.5 574 Q490 592 462.5 607 Q435 622 403 622 Q353 622 317 599 Q281 576 257.5 540 Q234 504 222.5 459.5 Q211 415 211 372 Q211 329 222 284.5 Q233 240 256.5 204 Q280 168 316.5 145 Q353 122 403 122 Q436 122 463.5 136 Q491 150 515 167 Q539 184 561.5 198 Q584 212 608 212 Q622 212 636.5 205 Q651 198 663 187 Q675 176 682.5 162 Q690 148 690 133 Q690 92 657 65 Q624 38 578 22 Q532 6 484 -0.5 Q436 -7 406 -7 Q326 -7 260 23 Q194 53 146.5 104.5 Q99 156 73 225 Q47 294 47 372 Z M245 920 Q245 942 253.5 949 Q262 956 284 956 Q308 956 330 948.5 Q352 941 377 941 Q403 941 425 948.5 Q447 956 471 956 Q487 956 500 948 Q513 940 513 923 Q513 899 500 878.5 Q487 858 467.5 843.5 Q448 829 424 820.5 Q400 812 379 812 Q357 812 333.5 820 Q310 828 290.5 842 Q271 856 258 876 Q245 896 245 920 Z " />
<glyph glyph-name="ccaron" unicode="&#x10d;" horiz-adv-x="579" d="M47 256 Q47 315 63 363.5 Q79 412 110.5 446.5 Q142 481 189 500.5 Q236 520 297 520 Q334 520 362.5 515 Q391 510 416.5 498.5 Q442 487 465 468.5 Q488 450 512 423 Q513 421 515.5 413 Q518 405 519 403 Q519 402 519 399 Q519 386 511 375.5 Q503 365 491 357 Q479 349 465.5 345 Q452 341 441 341 Q420 341 404 351.5 Q388 362 372.5 375 Q357 388 340 399 Q323 410 300 410 Q270 410 249 395 Q228 380 215 357.5 Q202 335 196.5 308 Q191 281 191 256 Q191 230 197.5 204 Q204 178 217.5 157 Q231 136 252.5 122.5 Q274 109 304 109 Q323 109 339.5 116.5 Q356 124 371.5 133 Q387 142 403 150 Q419 158 438 158 Q449 158 463 153 Q477 148 489.5 139.5 Q502 131 510.5 120 Q519 109 519 96 Q519 64 493 44 Q467 24 431.5 12.5 Q396 1 360 -3 Q324 -7 304 -7 Q180 -7 113.5 63.5 Q47 134 47 256 Z M164 696 Q164 703 172.5 712 Q181 721 184 724 Q187 724 196.5 724 Q206 724 208 724 Q234 724 256.5 716.5 Q279 709 304 709 Q328 709 348 716.5 Q368 724 392 724 Q413 724 425.5 719.5 Q438 715 438 692 Q438 677 429 660.5 Q420 644 407 629 Q394 614 378 602.5 Q362 591 348 587 Q346 587 339.5 587 Q333 587 326 587 Q319 587 312.5 586.5 Q306 586 304 586 Q282 586 257.5 593.5 Q233 601 212 615 Q191 629 177.5 649.5 Q164 670 164 696 Z " />
<glyph glyph-name="Dcaron" unicode="&#x10e;" horiz-adv-x="790" d="M137 744 Q142 744 156.5 744 Q171 744 187.5 744.5 Q204 745 218.5 745 Q233 745 239 745 Q286 745 340 741 Q394 737 448 725.5 Q502 714 551.5 694 Q601 674 639.5 641 Q678 608 701 561.5 Q724 515 724 451 L724 280 Q724 217 702.5 171.5 Q681 126 645 95 Q609 64 562 45 Q515 26 463.5 16 Q412 6 360.5 2.5 Q309 -1 263 -1 Q255 -1 236 -0.5 Q217 0 196 0 Q175 0 156 0 Q137 0 130 0 Q113 1 97.5 15.5 Q82 30 82 48 L82 696 Q82 719 100.5 729 Q119 739 137 744 Z M313 622 Q303 622 289 620 Q275 618 262.5 613 Q250 608 241 598.5 Q232 589 232 573 L232 171 Q232 151 248.5 139.5 Q265 128 280 123 Q282 123 288.5 123 Q295 123 302 122.5 Q309 122 315.5 122 Q322 122 324 122 Q445 122 506 186.5 Q567 251 567 369 Q567 491 499 556.5 Q431 622 313 622 Z M184 925 Q184 943 199.5 949.5 Q215 956 229 956 Q254 956 276 948.5 Q298 941 323 941 Q348 941 370 948.5 Q392 956 417 956 Q433 956 446 947.5 Q459 939 459 921 Q459 897 445 877 Q431 857 411 842.5 Q391 828 366.5 820 Q342 812 321 812 Q300 812 276.5 821 Q253 830 232 845 Q211 860 197.5 880.5 Q184 901 184 925 Z " />
<glyph glyph-name="dcaron" unicode="&#x10f;" horiz-adv-x="631" d="M47 256 Q47 306 60 353.5 Q73 401 99.5 438 Q126 475 166.5 497 Q207 519 263 519 Q279 519 293 516 Q307 513 321 508.5 Q335 504 349 501 Q363 498 378 498 Q382 498 389 498.5 Q396 499 403 501 Q410 503 415 507.5 Q420 512 420 519 L420 689 Q420 702 426.5 712.5 Q433 723 443 730 Q453 737 465 740.5 Q477 744 488 744 Q516 744 538 726.5 Q560 709 560 679 Q560 676 560 669.5 Q560 663 560 662 Q560 639 559 590.5 Q558 542 557.5 480.5 Q557 419 556.5 351.5 Q556 284 555 222.5 Q554 161 553.5 112.5 Q553 64 553 41 Q547 18 527.5 8.5 Q508 -1 487 -1 Q463 -1 441.5 10 Q420 21 396 21 Q378 21 361.5 16.5 Q345 12 328.5 7 Q312 2 295 -2.5 Q278 -7 259 -7 Q204 -7 164 16 Q124 39 98 76 Q72 113 59.5 160.5 Q47 208 47 256 Z M191 256 Q191 231 198.5 205 Q206 179 220.5 157.5 Q235 136 257 122.5 Q279 109 307 109 Q337 109 358 122.5 Q379 136 392 157.5 Q405 179 411 205 Q417 231 417 256 Q417 281 411 307.5 Q405 334 392 355 Q379 376 358 389.5 Q337 403 307 403 Q278 403 256 389.5 Q234 376 219.5 355 Q205 334 198 307.5 Q191 281 191 256 Z M607 683 Q607 715 626.5 733.5 Q646 752 678 752 Q687 752 697.5 750 Q708 748 717 743.5 Q726 739 732 731 Q738 723 738 710 Q738 694 733 677 Q728 660 719 646 Q710 632 696.5 623 Q683 614 666 614 Q637 614 622 634.5 Q607 655 607 683 Z " />
<glyph glyph-name="Dcroat" unicode="&#x110;" horiz-adv-x="790" d="M7 355 L7 389 Q10 392 19 401 Q28 410 37.5 419.5 Q47 429 56 438 Q65 447 68 451 Q71 453 75 458.5 Q79 464 79 464 L79 696 Q79 707 85 715 Q91 723 100 728.5 Q109 734 119 738 Q129 742 137 744 Q142 744 156.5 744 Q171 744 187.5 744.5 Q204 745 218.5 745 Q233 745 239 745 Q284 745 337.5 741.5 Q391 738 445 727 Q499 716 549 696.5 Q599 677 638 645 Q677 613 700.5 567 Q724 521 724 457 L724 280 Q724 217 702.5 172 Q681 127 645 96 Q609 65 562 46 Q515 27 463.5 16.5 Q412 6 360.5 2.5 Q309 -1 263 -1 Q255 -1 236 -0.5 Q217 0 196 0 Q175 0 156 0 Q137 0 130 0 Q122 0 113 4.5 Q104 9 96.5 16 Q89 23 84 31.5 Q79 40 79 48 L79 280 Q79 281 75 286 Q71 291 68 294 Q65 297 56 306 Q47 315 37.5 324.5 Q28 334 19 343 Q10 352 7 355 Z M315 367 Q315 350 302 340 Q289 330 273.5 321 Q258 312 245 302 Q232 292 232 273 L232 171 Q232 151 248.5 139.5 Q265 128 280 123 Q282 123 288.5 123 Q295 123 302 122.5 Q309 122 315.5 122 Q322 122 324 122 Q447 122 507 187 Q567 252 567 372 Q567 432 549 478.5 Q531 525 498 557 Q465 589 418 605.5 Q371 622 313 622 Q303 622 289 620 Q275 618 262.5 613 Q250 608 241 598.5 Q232 589 232 573 L232 471 Q232 451 245 440 Q258 429 273.5 420 Q289 411 302 399.5 Q315 388 315 367 Z " />
<glyph glyph-name="dcroat" unicode="&#x111;" horiz-adv-x="631" d="M47 256 Q47 306 60 353.5 Q73 401 99.5 438 Q126 475 166.5 497 Q207 519 263 519 Q279 519 293 516 Q307 513 321 508.5 Q335 504 349 501 Q363 498 378 498 Q398 498 407.5 505 Q417 512 417 532 Q417 555 406 565.5 Q395 576 378 580.5 Q361 585 341.5 586.5 Q322 588 305.5 592 Q289 596 277.5 605.5 Q266 615 266 635 Q266 660 281.5 670 Q297 680 318.5 683.5 Q340 687 362 688 Q384 689 396 696 Q407 703 417.5 711 Q428 719 439 726.5 Q450 734 462 739 Q474 744 488 744 Q502 744 533 732.5 Q564 721 596 705 Q628 689 652 670.5 Q676 652 676 639 Q676 613 657.5 603.5 Q639 594 616.5 588 Q594 582 575 573 Q556 564 556 539 L556 41 Q556 30 548.5 22.5 Q541 15 530 9.5 Q519 4 507 1.5 Q495 -1 487 -1 Q463 -1 441.5 10 Q420 21 396 21 Q378 21 361.5 16.5 Q345 12 328.5 7 Q312 2 295 -2.5 Q278 -7 259 -7 Q204 -7 164 16 Q124 39 98 76 Q72 113 59.5 160.5 Q47 208 47 256 Z M191 256 Q191 231 198.5 205 Q206 179 220.5 157.5 Q235 136 257 122.5 Q279 109 307 109 Q337 109 358 122.5 Q379 136 392 157.5 Q405 179 411 205 Q417 231 417 256 Q417 281 411 307.5 Q405 334 392 355 Q379 376 358 389.5 Q337 403 307 403 Q278 403 256 389.5 Q234 376 219.5 355 Q205 334 198 307.5 Q191 281 191 256 Z " />
<glyph glyph-name="Emacron" unicode="&#x112;" horiz-adv-x="684" d="M609 686 Q609 680 607.5 668.5 Q606 657 602 645.5 Q598 634 591.5 626 Q585 618 573 618 L287 618 Q267 618 256 608.5 Q245 599 239.5 585 Q234 571 232.5 555 Q231 539 231 527 Q231 520 232 506.5 Q233 493 236.5 480 Q240 467 247 457 Q254 447 266 447 L539 447 Q568 447 578 426.5 Q588 406 588 386 Q588 379 586 369 Q584 359 580 349 Q576 339 569.5 331.5 Q563 324 553 324 L287 324 Q266 324 254.5 313.5 Q243 303 238 288 Q233 273 232 255.5 Q231 238 231 225 Q231 215 232 198 Q233 181 237 165 Q241 149 251 137.5 Q261 126 280 126 L587 126 Q596 126 603.5 119 Q611 112 616.5 102.5 Q622 93 625 82.5 Q628 72 628 65 Q628 56 625 44.5 Q622 33 616 23 Q610 13 601 6.5 Q592 0 580 0 L130 0 Q113 0 97.5 15.5 Q82 31 82 48 L82 696 Q82 705 87.5 714 Q93 723 101 729.5 Q109 736 118.5 740 Q128 744 137 744 L560 744 Q584 744 596.5 725.5 Q609 707 609 686 Z M197 862 Q197 874 207.5 887.5 Q218 901 232 901 L457 901 Q473 901 483 886 Q493 871 493 857 Q493 839 478 825.5 Q463 812 444 812 L253 812 Q229 812 213 825 Q197 838 197 862 Z " />
<glyph glyph-name="emacron" unicode="&#x113;" horiz-adv-x="586" d="M47 256 Q47 381 114.5 450 Q182 519 307 519 Q354 519 399.5 507 Q445 495 480.5 469 Q516 443 538.5 404 Q561 365 561 311 Q561 307 560.5 295 Q560 283 560 280 Q558 277 550 269.5 Q542 262 539 259 Q537 257 531.5 253 Q526 249 526 249 L239 249 Q231 249 224 243.5 Q217 238 211 230.5 Q205 223 201.5 214 Q198 205 198 198 Q198 179 208 162.5 Q218 146 233.5 134 Q249 122 268 115.5 Q287 109 304 109 Q323 109 339.5 115.5 Q356 122 372 130 Q388 138 404 144.5 Q420 151 439 151 Q450 151 465.5 147.5 Q481 144 494.5 137.5 Q508 131 517.5 120.5 Q527 110 527 96 Q527 63 499.5 42.5 Q472 22 435.5 11 Q399 0 360.5 -3.5 Q322 -7 300 -7 Q239 -7 192 11.5 Q145 30 112.5 64 Q80 98 63.5 146.5 Q47 195 47 256 Z M252 375 Q252 364 258 358 Q264 352 273 349.5 Q282 347 292 347.5 Q302 348 311 348 Q318 348 328 348.5 Q338 349 347 351.5 Q356 354 362.5 359.5 Q369 365 369 376 Q369 386 363 393 Q357 400 348 403.5 Q339 407 328.5 408.5 Q318 410 311 410 Q302 410 292 408.5 Q282 407 273 403.5 Q264 400 258 393 Q252 386 252 375 Z M156 632 Q156 644 167.5 656.5 Q179 669 191 669 L423 669 Q436 669 446.5 654 Q457 639 457 628 Q457 617 446.5 602 Q436 587 423 587 L191 587 Q176 587 166 603.5 Q156 620 156 632 Z " />
<glyph glyph-name="Ebreve" unicode="&#x114;" horiz-adv-x="684" d="M609 686 Q609 680 607.5 668.5 Q606 657 602 645.5 Q598 634 591.5 626 Q585 618 573 618 L287 618 Q267 618 256 608.5 Q245 599 239.5 585 Q234 571 232.5 555 Q231 539 231 527 Q231 520 232 506.5 Q233 493 236.5 480 Q240 467 247 457 Q254 447 266 447 L539 447 Q568 447 578 426.5 Q588 406 588 386 Q588 379 586 369 Q584 359 580 349 Q576 339 569.5 331.5 Q563 324 553 324 L287 324 Q266 324 254.5 313.5 Q243 303 238 288 Q233 273 232 255.5 Q231 238 231 225 Q231 215 232 198 Q233 181 237 165 Q241 149 251 137.5 Q261 126 280 126 L587 126 Q596 126 603.5 119 Q611 112 616.5 102.5 Q622 93 625 82.5 Q628 72 628 65 Q628 56 625 44.5 Q622 33 616 23 Q610 13 601 6.5 Q592 0 580 0 L130 0 Q113 0 97.5 15.5 Q82 31 82 48 L82 696 Q82 705 87.5 714 Q93 723 101 729.5 Q109 736 118.5 740 Q128 744 137 744 L560 744 Q584 744 596.5 725.5 Q609 707 609 686 Z M191 905 Q191 924 202 933.5 Q213 943 232 943 Q248 943 262.5 936.5 Q277 930 290.5 922 Q304 914 318 907.5 Q332 901 349 901 Q364 901 377 907.5 Q390 914 402.5 922 Q415 930 428.5 936.5 Q442 943 457 943 Q478 943 488.5 936 Q499 929 499 907 Q499 880 483 860.5 Q467 841 443.5 829 Q420 817 393 811 Q366 805 345 805 Q324 805 297.5 811.5 Q271 818 247.5 830.5 Q224 843 207.5 861.5 Q191 880 191 905 Z " />
<glyph glyph-name="ebreve" unicode="&#x115;" horiz-adv-x="586" d="M47 256 Q47 315 64.5 365 Q82 415 115 450.5 Q148 486 196.5 506.5 Q245 527 307 527 Q353 527 398.5 512 Q444 497 480 469.5 Q516 442 538.5 401.5 Q561 361 561 311 Q561 307 560.5 295 Q560 283 560 280 Q558 277 550 269.5 Q542 262 539 259 Q537 257 531.5 253 Q526 249 526 249 L239 249 Q231 249 224 243.5 Q217 238 211 230.5 Q205 223 201.5 214 Q198 205 198 198 Q198 179 208 162.5 Q218 146 233.5 134 Q249 122 268 115.5 Q287 109 304 109 Q323 109 339.5 115.5 Q356 122 372 130 Q388 138 404 144.5 Q420 151 439 151 Q450 151 465.5 147.5 Q481 144 494.5 137.5 Q508 131 517.5 120.5 Q527 110 527 96 Q527 63 499.5 42.5 Q472 22 435.5 11 Q399 0 360.5 -3.5 Q322 -7 300 -7 Q239 -7 192 11.5 Q145 30 112.5 64 Q80 98 63.5 146.5 Q47 195 47 256 Z M252 375 Q252 364 258 358 Q264 352 273 349.5 Q282 347 292 347.5 Q302 348 311 348 Q318 348 328 348.5 Q338 349 347 351.5 Q356 354 362.5 359.5 Q369 365 369 376 Q369 386 363 393 Q357 400 348 403.5 Q339 407 328.5 408.5 Q318 410 311 410 Q302 410 292 408.5 Q282 407 273 403.5 Q264 400 258 393 Q252 386 252 375 Z M150 676 Q150 691 163 704 Q176 717 191 717 Q207 717 221 710.5 Q235 704 248.5 696 Q262 688 276 681.5 Q290 675 307 675 Q324 675 338 681.5 Q352 688 365.5 696 Q379 704 393 710.5 Q407 717 423 717 Q440 717 449 706 Q458 695 458 680 Q458 653 442 633 Q426 613 402.5 599.5 Q379 586 352 579 Q325 572 303 572 Q284 572 258 579 Q232 586 208 599.5 Q184 613 167 632 Q150 651 150 676 Z " />
<glyph glyph-name="Edotaccent" unicode="&#x116;" horiz-adv-x="684" d="M609 686 Q609 680 607.5 668.5 Q606 657 602 645.5 Q598 634 591.5 626 Q585 618 573 618 L287 618 Q267 618 256 608.5 Q245 599 239.5 585 Q234 571 232.5 555 Q231 539 231 527 Q231 520 232 506.5 Q233 493 236.5 480 Q240 467 247 457 Q254 447 266 447 L539 447 Q568 447 578 426.5 Q588 406 588 386 Q588 379 586 369 Q584 359 580 349 Q576 339 569.5 331.5 Q563 324 553 324 L287 324 Q266 324 254.5 313.5 Q243 303 238 288 Q233 273 232 255.5 Q231 238 231 225 Q231 215 232 198 Q233 181 237 165 Q241 149 251 137.5 Q261 126 280 126 L587 126 Q596 126 603.5 119 Q611 112 616.5 102.5 Q622 93 625 82.5 Q628 72 628 65 Q628 56 625 44.5 Q622 33 616 23 Q610 13 601 6.5 Q592 0 580 0 L130 0 Q113 0 97.5 15.5 Q82 31 82 48 L82 696 Q82 705 87.5 714 Q93 723 101 729.5 Q109 736 118.5 740 Q128 744 137 744 L560 744 Q584 744 596.5 725.5 Q609 707 609 686 Z M348 956 Q417 956 417 888 Q417 853 401 832.5 Q385 812 348 812 Q341 812 329.5 813.5 Q318 815 307 818.5 Q296 822 288 829 Q280 836 280 847 L280 922 Q280 934 288 941 Q296 948 307 951.5 Q318 955 329.5 955.5 Q341 956 348 956 Z " />
<glyph glyph-name="edotaccent" unicode="&#x117;" horiz-adv-x="586" d="M47 256 Q47 381 114.5 450 Q182 519 307 519 Q354 519 399.5 507 Q445 495 480.5 469 Q516 443 538.5 404 Q561 365 561 311 Q561 307 560.5 295 Q560 283 560 280 Q558 277 550 269.5 Q542 262 539 259 Q537 257 531.5 253 Q526 249 526 249 L239 249 Q231 249 224 243.5 Q217 238 211 230.5 Q205 223 201.5 214 Q198 205 198 198 Q198 179 208 162.5 Q218 146 233.5 134 Q249 122 268 115.5 Q287 109 304 109 Q323 109 339.5 115.5 Q356 122 372 130 Q388 138 404 144.5 Q420 151 439 151 Q450 151 465.5 147.5 Q481 144 494.5 137.5 Q508 131 517.5 120.5 Q527 110 527 96 Q527 63 499.5 42.5 Q472 22 435.5 11 Q399 0 360.5 -3.5 Q322 -7 300 -7 Q239 -7 192 11.5 Q145 30 112.5 64 Q80 98 63.5 146.5 Q47 195 47 256 Z M252 375 Q252 364 258 358 Q264 352 273 349.5 Q282 347 292 347.5 Q302 348 311 348 Q318 348 328 348.5 Q338 349 347 351.5 Q356 354 362.5 359.5 Q369 365 369 376 Q369 386 363 393 Q357 400 348 403.5 Q339 407 328.5 408.5 Q318 410 311 410 Q302 410 292 408.5 Q282 407 273 403.5 Q264 400 258 393 Q252 386 252 375 Z M238 655 Q238 695 253 709.5 Q268 724 307 724 Q347 724 361.5 709.5 Q376 695 376 655 Q376 616 361.5 601 Q347 586 307 586 Q268 586 253 601 Q238 616 238 655 Z " />
<glyph glyph-name="Eogonek" unicode="&#x118;" horiz-adv-x="684" d="M252 -106 Q252 -88 259.5 -72.5 Q267 -57 267 -40 Q267 -27 259 -18.5 Q251 -10 239 -7 Q231 -7 205.5 -8 Q180 -9 152.5 -5 Q125 -1 103.5 10.5 Q82 22 82 48 L82 696 Q82 705 87.5 714 Q93 723 101 729.5 Q109 736 118.5 740 Q128 744 137 744 L560 744 Q584 744 596.5 725.5 Q609 707 609 686 Q609 680 607.5 668.5 Q606 657 602 645.5 Q598 634 591.5 626 Q585 618 573 618 L287 618 Q267 618 256 608.5 Q245 599 239.5 585 Q234 571 232.5 555 Q231 539 231 527 Q231 520 232 506.5 Q233 493 236.5 480 Q240 467 247 457 Q254 447 266 447 L539 447 Q568 447 578 426.5 Q588 406 588 386 Q588 379 586 369 Q584 359 580 349 Q576 339 569.5 331.5 Q563 324 553 324 L287 324 Q266 324 254.5 313.5 Q243 303 238 288 Q233 273 232 255.5 Q231 238 231 225 Q231 215 232 198 Q233 181 237 165 Q241 149 251 137.5 Q261 126 280 126 L587 126 Q596 126 603.5 119 Q611 112 616.5 102.5 Q622 93 625 82.5 Q628 72 628 65 Q628 56 625 44.5 Q622 33 615.5 22.5 Q609 12 600 4.5 Q591 -3 580 -3 L389 -3 Q378 -3 368 -10.5 Q358 -18 350.5 -28.5 Q343 -39 338.5 -50.5 Q334 -62 334 -72 Q334 -102 353.5 -112 Q373 -122 396 -127 Q419 -132 438.5 -139 Q458 -146 458 -170 Q458 -185 452 -193.5 Q446 -202 436 -206.5 Q426 -211 413.5 -211.5 Q401 -212 388 -212 Q365 -212 341 -206 Q317 -200 297.5 -187 Q278 -174 265 -154 Q252 -134 252 -106 Z " />
<glyph glyph-name="eogonek" unicode="&#x119;" horiz-adv-x="586" d="M286 -106 Q286 -104 286.5 -100 Q287 -96 287 -96 Q287 -94 288 -88 Q289 -82 290.5 -75 Q292 -68 293 -62 Q294 -56 294 -55 Q294 -39 275.5 -29 Q257 -19 229.5 -7 Q202 5 170 22 Q138 39 111 68.5 Q84 98 65.5 143 Q47 188 47 256 Q47 381 114.5 450 Q182 519 307 519 Q354 519 399.5 507 Q445 495 480.5 469 Q516 443 538.5 404 Q561 365 561 311 Q561 307 560.5 295 Q560 283 560 280 Q558 277 550 269.5 Q542 262 539 259 Q537 257 531.5 253 Q526 249 526 249 L239 249 Q231 249 224 243.5 Q217 238 211 230.5 Q205 223 201.5 214 Q198 205 198 198 Q198 179 208 162.5 Q218 146 233.5 134 Q249 122 268 115.5 Q287 109 304 109 Q323 109 339.5 115.5 Q356 122 372 130 Q388 138 404 144.5 Q420 151 439 151 Q450 151 465 147.5 Q480 144 494 137.5 Q508 131 517 121 Q526 111 526 97 Q526 75 514.5 60.5 Q503 46 485 35 Q467 24 446.5 15 Q426 6 408.5 -5.5 Q391 -17 379 -32.5 Q367 -48 367 -72 Q367 -103 386.5 -113 Q406 -123 429.5 -127.5 Q453 -132 473 -139 Q493 -146 493 -171 Q493 -186 482.5 -197 Q472 -208 457 -212 Q453 -212 438.5 -212 Q424 -212 420 -212 Q397 -212 373 -206 Q349 -200 330 -186.5 Q311 -173 298.5 -153 Q286 -133 286 -106 Z M252 375 Q252 364 258 358 Q264 352 273 349.5 Q282 347 292 347.5 Q302 348 311 348 Q318 348 328 348.5 Q338 349 347 351.5 Q356 354 362.5 359.5 Q369 365 369 376 Q369 386 363 393 Q357 400 348 403.5 Q339 407 328.5 408.5 Q318 410 311 410 Q302 410 292 408.5 Q282 407 273 403.5 Q264 400 258 393 Q252 386 252 375 Z " />
<glyph glyph-name="Ecaron" unicode="&#x11a;" horiz-adv-x="684" d="M609 686 Q609 680 607.5 668.5 Q606 657 602 645.5 Q598 634 591.5 626 Q585 618 573 618 L287 618 Q267 618 256 608.5 Q245 599 239.5 585 Q234 571 232.5 555 Q231 539 231 527 Q231 520 232 506.5 Q233 493 236.5 480 Q240 467 247 457 Q254 447 266 447 L539 447 Q568 447 578 426.5 Q588 406 588 386 Q588 379 586 369 Q584 359 580 349 Q576 339 569.5 331.5 Q563 324 553 324 L287 324 Q266 324 254.5 313.5 Q243 303 238 288 Q233 273 232 255.5 Q231 238 231 225 Q231 215 232 198 Q233 181 237 165 Q241 149 251 137.5 Q261 126 280 126 L587 126 Q596 126 603.5 119 Q611 112 616.5 102.5 Q622 93 625 82.5 Q628 72 628 65 Q628 56 625 44.5 Q622 33 616 23 Q610 13 601 6.5 Q592 0 580 0 L130 0 Q113 0 97.5 15.5 Q82 31 82 48 L82 696 Q82 705 87.5 714 Q93 723 101 729.5 Q109 736 118.5 740 Q128 744 137 744 L560 744 Q584 744 596.5 725.5 Q609 707 609 686 Z M211 923 Q211 940 223.5 948 Q236 956 252 956 Q277 956 299 948.5 Q321 941 346 941 Q371 941 393 948.5 Q415 956 440 956 Q454 956 469.5 949.5 Q485 943 485 925 Q485 901 471.5 880.5 Q458 860 437.5 845 Q417 830 393 821 Q369 812 348 812 Q326 812 302 820 Q278 828 257.5 842.5 Q237 857 224 877.5 Q211 898 211 923 Z " />
<glyph glyph-name="ecaron" unicode="&#x11b;" horiz-adv-x="586" d="M47 256 Q47 381 114.5 450 Q182 519 307 519 Q354 519 399.5 507 Q445 495 480.5 469 Q516 443 538.5 404 Q561 365 561 311 Q561 307 560.5 295 Q560 283 560 280 Q558 277 550 269.5 Q542 262 539 259 Q537 257 531.5 253 Q526 249 526 249 L239 249 Q231 249 224 243.5 Q217 238 211 230.5 Q205 223 201.5 214 Q198 205 198 198 Q198 179 208 162.5 Q218 146 233.5 134 Q249 122 268 115.5 Q287 109 304 109 Q323 109 339.5 115.5 Q356 122 372 130 Q388 138 404 144.5 Q420 151 439 151 Q450 151 465.5 147.5 Q481 144 494.5 137.5 Q508 131 517.5 120.5 Q527 110 527 96 Q527 63 499.5 42.5 Q472 22 435.5 11 Q399 0 360.5 -3.5 Q322 -7 300 -7 Q239 -7 192 11.5 Q145 30 112.5 64 Q80 98 63.5 146.5 Q47 195 47 256 Z M252 375 Q252 364 258 358 Q264 352 273 349.5 Q282 347 292 347.5 Q302 348 311 348 Q318 348 328 348.5 Q338 349 347 351.5 Q356 354 362.5 359.5 Q369 365 369 376 Q369 386 363 393 Q357 400 348 403.5 Q339 407 328.5 408.5 Q318 410 311 410 Q302 410 292 408.5 Q282 407 273 403.5 Q264 400 258 393 Q252 386 252 375 Z M170 693 Q170 715 183.5 719.5 Q197 724 216 724 Q240 724 260 716.5 Q280 709 304 709 Q329 709 352 717 Q375 725 401 725 Q415 725 429.5 720.5 Q444 716 444 697 Q444 670 430.5 649.5 Q417 629 396.5 615 Q376 601 351 593.5 Q326 586 304 586 Q301 586 295 586.5 Q289 587 282 587 Q275 587 268.5 587 Q262 587 259 587 Q246 593 230.5 604 Q215 615 201.5 630 Q188 645 179 661 Q170 677 170 693 Z " />
<glyph glyph-name="Gcircumflex" unicode="&#x11c;" horiz-adv-x="797" d="M47 372 Q47 455 76.5 525 Q106 595 157.5 645 Q209 695 280 723 Q351 751 434 751 Q464 751 512.5 743.5 Q561 736 606.5 718.5 Q652 701 684.5 673 Q717 645 717 604 Q717 602 717 595.5 Q717 589 717 587 Q712 582 703 571.5 Q694 561 683 551 Q672 541 659.5 533.5 Q647 526 635 526 Q612 526 590 541 Q568 556 544 574 Q520 592 492.5 607 Q465 622 430 622 Q377 622 336 601 Q295 580 267 545 Q239 510 225 465 Q211 420 211 372 Q211 319 227 273.5 Q243 228 272.5 194 Q302 160 345.5 141 Q389 122 444 122 Q471 122 498 126.5 Q525 131 546.5 142.5 Q568 154 581 175 Q594 196 594 229 Q594 237 592 249.5 Q590 262 585.5 274 Q581 286 573 295 Q565 304 553 304 L403 304 Q390 304 381 311 Q372 318 366 328.5 Q360 339 357 351 Q354 363 354 373 Q354 391 363.5 410.5 Q373 430 396 430 L710 430 Q716 430 722 425 Q728 420 733 413.5 Q738 407 741 400 Q744 393 744 389 L744 109 Q744 86 725.5 68 Q707 50 678.5 37 Q650 24 615 15.5 Q580 7 546 2 Q512 -3 483.5 -5 Q455 -7 440 -7 Q357 -7 285 19.5 Q213 46 160 96 Q107 146 77 216 Q47 286 47 372 Z M300 850 Q300 874 313.5 893.5 Q327 913 347.5 927 Q368 941 392 948.5 Q416 956 437 956 Q458 956 482 948.5 Q506 941 526.5 927 Q547 913 560.5 893.5 Q574 874 574 850 Q574 826 559 822 Q544 818 525 818 Q500 818 478.5 826 Q457 834 433 834 Q411 834 391.5 826 Q372 818 349 818 Q330 818 315 822 Q300 826 300 850 Z " />
<glyph glyph-name="Gbreve" unicode="&#x11e;" horiz-adv-x="797" d="M47 372 Q47 454 76.5 524.5 Q106 595 158.5 647 Q211 699 282 728.5 Q353 758 436 758 Q465 758 513 748.5 Q561 739 606 719.5 Q651 700 684 671 Q717 642 717 604 Q717 602 717 595.5 Q717 589 717 587 Q712 582 703 571.5 Q694 561 683 551 Q672 541 659.5 533.5 Q647 526 635 526 Q612 526 590 541 Q568 556 544 574 Q520 592 492.5 607 Q465 622 430 622 Q377 622 336 601 Q295 580 267 545 Q239 510 225 465 Q211 420 211 372 Q211 319 227 273.5 Q243 228 272.5 194 Q302 160 345.5 141 Q389 122 444 122 Q471 122 498 126.5 Q525 131 546.5 142.5 Q568 154 581 175 Q594 196 594 229 Q594 237 592 249.5 Q590 262 585.5 274 Q581 286 573 295 Q565 304 553 304 L403 304 Q390 304 381 311 Q372 318 366 328.5 Q360 339 357 351 Q354 363 354 373 Q354 391 363.5 410.5 Q373 430 396 430 L710 430 Q716 430 722 425 Q728 420 733 413.5 Q738 407 741 400 Q744 393 744 389 L744 109 Q744 86 725.5 68 Q707 50 678.5 37 Q650 24 615 15.5 Q580 7 546 2 Q512 -3 483.5 -5 Q455 -7 440 -7 Q357 -7 285 19.5 Q213 46 160 96 Q107 146 77 216 Q47 286 47 372 Z M286 909 Q286 930 294 937 Q302 944 322 944 Q326 944 333.5 943 Q341 942 341 942 L423 901 L451 901 L532 942 Q533 942 540.5 943 Q548 944 551 944 Q572 944 580 937 Q588 930 588 909 Q588 884 572.5 863.5 Q557 843 534 828.5 Q511 814 485 806 Q459 798 437 798 Q415 798 388.5 806 Q362 814 339.5 828.5 Q317 843 301.5 863.5 Q286 884 286 909 Z " />
<glyph glyph-name="gbreve" unicode="&#x11f;" horiz-adv-x="621" d="M54 -131 Q54 -117 60 -108.5 Q66 -100 75.5 -95.5 Q85 -91 96.5 -89.5 Q108 -88 119 -88 Q144 -88 164.5 -97 Q185 -106 205 -116 Q225 -126 245.5 -135 Q266 -144 290 -144 Q342 -144 376 -114 Q410 -84 410 -30 Q410 -8 402.5 6.5 Q395 21 370 21 Q355 21 341 18 Q327 15 313.5 11 Q300 7 285.5 3.5 Q271 0 256 0 Q198 0 158 21 Q118 42 93.5 77.5 Q69 113 58 159 Q47 205 47 256 Q47 309 58.5 358 Q70 407 96 444 Q122 481 164 503.5 Q206 526 267 526 Q283 526 297.5 521.5 Q312 517 326 511.5 Q340 506 354.5 501.5 Q369 497 385 497 Q410 497 431.5 505 Q453 513 477 513 Q501 513 523.5 500 Q546 487 546 457 L546 7 Q546 -54 528.5 -103.5 Q511 -153 477.5 -188 Q444 -223 396 -241.5 Q348 -260 287 -260 Q258 -260 218 -255 Q178 -250 141.5 -235.5 Q105 -221 79.5 -196 Q54 -171 54 -131 Z M191 259 Q191 234 197 209.5 Q203 185 216.5 165.5 Q230 146 251 134 Q272 122 300 122 Q328 122 348.5 133.5 Q369 145 382.5 164 Q396 183 403 207 Q410 231 410 256 Q410 280 403.5 306 Q397 332 384 353.5 Q371 375 350 389 Q329 403 300 403 Q271 403 250.5 390 Q230 377 216.5 356.5 Q203 336 197 310 Q191 284 191 259 Z M142 676 Q142 695 152 706 Q162 717 181 717 Q197 717 210 710.5 Q223 704 236 696 Q249 688 263 681.5 Q277 675 294 675 Q311 675 325 681.5 Q339 688 352.5 696 Q366 704 379.5 710.5 Q393 717 410 717 Q425 717 438 704 Q451 691 451 676 Q451 649 432 629 Q413 609 386.5 597 Q360 585 331 579 Q302 573 282 573 Q262 573 238 580.5 Q214 588 192.5 602 Q171 616 156.5 635 Q142 654 142 676 Z " />
<glyph glyph-name="Gdotaccent" unicode="&#x120;" horiz-adv-x="797" d="M47 372 Q47 455 76.5 525 Q106 595 157.5 645 Q209 695 280 723 Q351 751 434 751 Q464 751 512.5 743.5 Q561 736 606.5 718.5 Q652 701 684.5 673 Q717 645 717 604 Q717 602 717 595.5 Q717 589 717 587 Q712 582 703 571.5 Q694 561 683 551 Q672 541 659.5 533.5 Q647 526 635 526 Q612 526 590 541 Q568 556 544 574 Q520 592 492.5 607 Q465 622 430 622 Q377 622 336 601 Q295 580 267 545 Q239 510 225 465 Q211 420 211 372 Q211 319 227 273.5 Q243 228 272.5 194 Q302 160 345.5 141 Q389 122 444 122 Q471 122 498 126.5 Q525 131 546.5 142.5 Q568 154 581 175 Q594 196 594 229 Q594 237 592 249.5 Q590 262 585.5 274 Q581 286 573 295 Q565 304 553 304 L403 304 Q390 304 381 311 Q372 318 366 328.5 Q360 339 357 351 Q354 363 354 373 Q354 391 363.5 410.5 Q373 430 396 430 L710 430 Q716 430 722 425 Q728 420 733 413.5 Q738 407 741 400 Q744 393 744 389 L744 109 Q744 86 725.5 68 Q707 50 678.5 37 Q650 24 615 15.5 Q580 7 546 2 Q512 -3 483.5 -5 Q455 -7 440 -7 Q357 -7 285 19.5 Q213 46 160 96 Q107 146 77 216 Q47 286 47 372 Z M368 887 Q368 925 382.5 941 Q397 957 437 957 Q475 957 490.5 940 Q506 923 506 886 Q506 852 490 832 Q474 812 437 812 Q398 812 383 832 Q368 852 368 887 Z " />
<glyph glyph-name="gdotaccent" unicode="&#x121;" horiz-adv-x="621" d="M54 -131 Q54 -117 60 -108.5 Q66 -100 75.5 -95.5 Q85 -91 96.5 -89.5 Q108 -88 119 -88 Q144 -88 164.5 -97 Q185 -106 205 -116 Q225 -126 245.5 -135 Q266 -144 290 -144 Q342 -144 376 -114 Q410 -84 410 -30 Q410 -8 402.5 6.5 Q395 21 370 21 Q355 21 341 18 Q327 15 313.5 11 Q300 7 285.5 3.5 Q271 0 256 0 Q198 0 158 21 Q118 42 93.5 77.5 Q69 113 58 159 Q47 205 47 256 Q47 306 57 354 Q67 402 91 438.5 Q115 475 154.5 497 Q194 519 253 519 Q271 519 287.5 516 Q304 513 320 508.5 Q336 504 352 500.5 Q368 497 385 497 Q410 497 431.5 505 Q453 513 477 513 Q501 513 523.5 500 Q546 487 546 457 L546 7 Q546 -54 528.5 -103.5 Q511 -153 477.5 -188 Q444 -223 396 -241.5 Q348 -260 287 -260 Q258 -260 218 -255 Q178 -250 141.5 -235.5 Q105 -221 79.5 -196 Q54 -171 54 -131 Z M191 259 Q191 234 197 209.5 Q203 185 216.5 165.5 Q230 146 251 134 Q272 122 300 122 Q328 122 348.5 133.5 Q369 145 382.5 164 Q396 183 403 207 Q410 231 410 256 Q410 280 403.5 306 Q397 332 384 353.5 Q371 375 350 389 Q329 403 300 403 Q271 403 250.5 390 Q230 377 216.5 356.5 Q203 336 197 310 Q191 284 191 259 Z M225 654 Q225 694 239.5 709 Q254 724 294 724 Q333 724 347.5 709.5 Q362 695 362 655 Q362 616 347.5 601 Q333 586 294 586 Q257 586 241 600 Q225 614 225 654 Z " />
<glyph glyph-name="Hcircumflex" unicode="&#x124;" horiz-adv-x="834" d="M154 745 Q161 745 173.5 742.5 Q186 740 198.5 734.5 Q211 729 220 721.5 Q229 714 229 703 L229 505 Q229 498 234.5 489.5 Q240 481 248 474 Q256 467 265 462 Q274 457 280 457 L539 457 Q545 457 553.5 461.5 Q562 466 570.5 472 Q579 478 585 485 Q591 492 591 498 L591 689 Q591 705 598.5 715.5 Q606 726 618 732.5 Q630 739 644 742 Q658 745 669 745 Q676 745 687.5 743.5 Q699 742 710 738 Q721 734 729 727.5 Q737 721 737 710 L737 34 Q737 23 728.5 16 Q720 9 708 5.5 Q696 2 683.5 0.5 Q671 -1 664 -1 Q653 -1 640 2.5 Q627 6 616 12.5 Q605 19 598 29.5 Q591 40 591 55 L591 287 Q591 290 586.5 296 Q582 302 575.5 307.5 Q569 313 563 317 Q557 321 553 321 L266 321 Q261 321 254.5 315.5 Q248 310 242 303 Q236 296 232.5 289.5 Q229 283 229 280 L229 41 Q229 29 220 21 Q211 13 199 8 Q187 3 174.5 1 Q162 -1 154 -1 Q143 -1 130 1.5 Q117 4 106.5 9 Q96 14 89 23.5 Q82 33 82 48 L82 696 Q82 710 89.5 719 Q97 728 107.5 733.5 Q118 739 130.5 742 Q143 745 154 745 Z M273 850 Q273 875 287 894.5 Q301 914 322.5 928 Q344 942 368.5 949 Q393 956 413 956 Q434 956 458 948.5 Q482 941 501.5 926.5 Q521 912 534 891.5 Q547 871 547 845 Q547 837 545.5 830 Q544 823 532 819 Q529 819 517 818.5 Q505 818 502 818 Q478 818 457.5 826 Q437 834 413 834 Q389 834 367 826 Q345 818 321 818 Q318 818 307.5 818.5 Q297 819 294 819 Q287 824 280 832.5 Q273 841 273 850 Z " />
<glyph glyph-name="Itilde" unicode="&#x128;" horiz-adv-x="327" d="M164 745 Q172 745 184 743 Q196 741 206.5 736 Q217 731 224.5 723 Q232 715 232 703 L232 41 Q232 28 224 20 Q216 12 205 7.5 Q194 3 181.5 1 Q169 -1 160 -1 Q149 -1 136.5 1.5 Q124 4 113.5 9 Q103 14 96 23.5 Q89 33 89 48 L89 696 Q89 710 96.5 719.5 Q104 729 115.5 734.5 Q127 740 140 742.5 Q153 745 164 745 Z M108 847 Q96 847 86 842.5 Q76 838 66 832.5 Q56 827 46 822.5 Q36 818 24 818 Q2 818 -6.5 829.5 Q-15 841 -15 861 Q-15 882 -6.5 900.5 Q2 919 16 933 Q30 947 49 955 Q68 963 89 963 Q106 963 121 957.5 Q136 952 150.5 945 Q165 938 180 932.5 Q195 927 212 927 Q224 927 234.5 931.5 Q245 936 255 941.5 Q265 947 275 951.5 Q285 956 297 956 Q315 956 328.5 943 Q342 930 342 912 Q342 888 332.5 869.5 Q323 851 307.5 838 Q292 825 271.5 818 Q251 811 230 811 Q213 811 198 816.5 Q183 822 168.5 829 Q154 836 139.5 841.5 Q125 847 108 847 Z " />
<glyph glyph-name="itilde" unicode="&#x129;" horiz-adv-x="208" d="M69 513 Q77 513 87.5 510.5 Q98 508 107.5 503 Q117 498 123.5 490 Q130 482 130 471 L130 41 Q130 29 122.5 21.5 Q115 14 105 9 Q95 4 83.5 1.5 Q72 -1 64 -1 Q41 -1 20.5 14 Q0 29 0 55 L0 457 Q0 487 22 500 Q44 513 69 513 Z M14 616 Q1 616 -9 611.5 Q-19 607 -29 601.5 Q-39 596 -49 591 Q-59 586 -71 586 Q-93 586 -109 608 Q-109 610 -109.5 619.5 Q-110 629 -110 631 Q-110 652 -102 670.5 Q-94 689 -80 702.5 Q-66 716 -47.5 723.5 Q-29 731 -9 731 Q9 731 24.5 725.5 Q40 720 54.5 713 Q69 706 84 700.5 Q99 695 116 695 Q129 695 140 699.5 Q151 704 161 709.5 Q171 715 182 720 Q193 725 205 725 Q223 725 234.5 710.5 Q246 696 246 679 Q246 657 236.5 639 Q227 621 211.5 607.5 Q196 594 176.5 587 Q157 580 137 580 Q119 580 104 585.5 Q89 591 74.5 597.5 Q60 604 45.5 610 Q31 616 14 616 Z " />
<glyph glyph-name="Imacron" unicode="&#x12a;" horiz-adv-x="327" d="M164 745 Q172 745 184 743 Q196 741 206.5 736 Q217 731 224.5 723 Q232 715 232 703 L232 41 Q232 28 224 20 Q216 12 205 7.5 Q194 3 181.5 1 Q169 -1 160 -1 Q149 -1 136.5 1.5 Q124 4 113.5 9 Q103 14 96 23.5 Q89 33 89 48 L89 696 Q89 710 96.5 719.5 Q104 729 115.5 734.5 Q127 740 140 742.5 Q153 745 164 745 Z M13 856 Q13 868 23 884.5 Q33 901 48 901 L273 901 Q295 901 301.5 886 Q308 871 308 855 Q308 838 293 825 Q278 812 259 812 L68 812 Q51 812 32 824 Q13 836 13 856 Z " />
<glyph glyph-name="imacron" unicode="&#x12b;" horiz-adv-x="208" d="M69 513 Q77 513 87.5 510.5 Q98 508 107.5 503 Q117 498 123.5 490 Q130 482 130 471 L130 41 Q130 29 122.5 21.5 Q115 14 105 9 Q95 4 83.5 1.5 Q72 -1 64 -1 Q41 -1 20.5 14 Q0 29 0 55 L0 457 Q0 487 22 500 Q44 513 69 513 Z M-83 632 Q-83 644 -71.5 656.5 Q-60 669 -48 669 L184 669 Q199 669 205.5 654 Q212 639 212 628 Q212 617 206 602 Q200 587 184 587 L-48 587 Q-63 587 -73 603.5 Q-83 620 -83 632 Z " />
<glyph glyph-name="Ibreve" unicode="&#x12c;" horiz-adv-x="327" d="M164 745 Q172 745 184 743 Q196 741 206.5 736 Q217 731 224.5 723 Q232 715 232 703 L232 41 Q232 28 224 20 Q216 12 205 7.5 Q194 3 181.5 1 Q169 -1 160 -1 Q149 -1 136.5 1.5 Q124 4 113.5 9 Q103 14 96 23.5 Q89 33 89 48 L89 696 Q89 710 96.5 719.5 Q104 729 115.5 734.5 Q127 740 140 742.5 Q153 745 164 745 Z M6 905 Q6 923 17 933 Q28 943 46 943 Q63 943 76.5 936.5 Q90 930 103.5 922 Q117 914 130.5 907.5 Q144 901 160 901 Q177 901 190.5 907.5 Q204 914 217 922 Q230 930 243.5 936.5 Q257 943 273 943 Q294 943 304.5 936 Q315 929 315 907 Q315 880 298.5 860.5 Q282 841 258.5 829 Q235 817 208.5 811 Q182 805 160 805 Q140 805 113.5 811 Q87 817 63 829.5 Q39 842 22.5 860.5 Q6 879 6 905 Z " />
<glyph glyph-name="ibreve" unicode="&#x12d;" horiz-adv-x="208" d="M69 513 Q77 513 87.5 510.5 Q98 508 107.5 503 Q117 498 123.5 490 Q130 482 130 471 L130 41 Q130 29 122.5 21.5 Q115 14 105 9 Q95 4 83.5 1.5 Q72 -1 64 -1 Q41 -1 20.5 14 Q0 29 0 55 L0 457 Q0 487 22 500 Q44 513 69 513 Z M-90 680 Q-90 694 -76 705.5 Q-62 717 -48 717 Q-31 717 -17.5 710.5 Q-4 704 9.5 696 Q23 688 37.5 681.5 Q52 675 69 675 Q86 675 99.5 681.5 Q113 688 125.5 696 Q138 704 151 710.5 Q164 717 180 717 Q198 717 208.5 707.5 Q219 698 219 681 Q219 652 203.5 632.5 Q188 613 165 601 Q142 589 115 584 Q88 579 65 579 Q45 579 18 584.5 Q-9 590 -33 601.5 Q-57 613 -73.5 632.5 Q-90 652 -90 680 Z " />
<glyph glyph-name="Idotaccent" unicode="&#x130;" horiz-adv-x="327" d="M164 745 Q172 745 184 743 Q196 741 206.5 736 Q217 731 224.5 723 Q232 715 232 703 L232 41 Q232 28 224 20 Q216 12 205 7.5 Q194 3 181.5 1 Q169 -1 160 -1 Q149 -1 136.5 1.5 Q124 4 113.5 9 Q103 14 96 23.5 Q89 33 89 48 L89 696 Q89 710 96.5 719.5 Q104 729 115.5 734.5 Q127 740 140 742.5 Q153 745 164 745 Z M88 884 Q88 922 108 939 Q128 956 164 956 Q233 956 233 888 Q233 853 217 832.5 Q201 812 164 812 Q130 812 109 831 Q88 850 88 884 Z " />
<glyph glyph-name="dotlessi" unicode="&#x131;" horiz-adv-x="305" d="M164 513 Q171 513 181.5 511 Q192 509 201.5 505 Q211 501 218 494.5 Q225 488 225 478 L225 34 Q225 25 218 18.5 Q211 12 201 7.5 Q191 3 181 1.5 Q171 0 164 0 Q157 0 146.5 1.5 Q136 3 126.5 7 Q117 11 109.5 18 Q102 25 102 34 L102 478 Q102 488 109 494.5 Q116 501 126 505 Q136 509 146.5 511 Q157 513 164 513 Z " />
<glyph glyph-name="Jcircumflex" unicode="&#x134;" horiz-adv-x="615" d="M47 195 Q47 197 47 203.5 Q47 210 47.5 217 Q48 224 48 230 Q48 236 48 239 Q52 253 61.5 262.5 Q71 272 83.5 277.5 Q96 283 110.5 285 Q125 287 137 287 Q158 287 170 276.5 Q182 266 189.5 250 Q197 234 202.5 215 Q208 196 217 180 Q226 164 241 153.5 Q256 143 282 143 Q294 143 310 146.5 Q326 150 339.5 157.5 Q353 165 362.5 177 Q372 189 372 205 L372 689 Q372 705 380 715.5 Q388 726 400 732.5 Q412 739 425.5 742 Q439 745 451 745 Q457 745 469 743.5 Q481 742 492 738 Q503 734 511 727.5 Q519 721 519 710 L519 171 Q519 123 495.5 89 Q472 55 436 34 Q400 13 357.5 3 Q315 -7 276 -7 Q227 -7 185 5 Q143 17 112.5 42 Q82 67 64.5 105 Q47 143 47 195 Z M314 850 Q314 872 327 891.5 Q340 911 359.5 925.5 Q379 940 402 948.5 Q425 957 445 957 Q466 957 491 950 Q516 943 537.5 929.5 Q559 916 573.5 896 Q588 876 588 850 Q588 826 573 822 Q558 818 538 818 Q514 818 492.5 826 Q471 834 447 834 Q425 834 405.5 826 Q386 818 363 818 Q343 818 328.5 822 Q314 826 314 850 Z " />
<glyph glyph-name="Lacute" unicode="&#x139;" horiz-adv-x="621" d="M164 745 Q172 745 184 742.5 Q196 740 207.5 735 Q219 730 227.5 722 Q236 714 236 703 L236 177 Q236 172 242 163.5 Q248 155 256 146.5 Q264 138 272.5 132 Q281 126 287 126 L546 126 Q557 126 563.5 118.5 Q570 111 574 100.5 Q578 90 579.5 79 Q581 68 581 61 Q581 39 571 19.5 Q561 0 532 0 L137 0 Q120 0 104.5 15.5 Q89 31 89 48 L89 696 Q89 710 96.5 719.5 Q104 729 115.5 734.5 Q127 740 140 742.5 Q153 745 164 745 Z M123 860 Q123 884 132.5 902 Q142 920 157.5 932 Q173 944 192.5 950 Q212 956 232 956 Q240 956 251 956 Q262 956 271.5 953 Q281 950 287.5 944 Q294 938 294 926 Q294 906 283 887 Q272 868 255 852.5 Q238 837 217.5 827.5 Q197 818 179 818 Q155 818 139 825 Q123 832 123 860 Z " />
<glyph glyph-name="lacute" unicode="&#x13a;" horiz-adv-x="265" d="M61 703 Q68 718 72 729 Q76 740 76 755 Q76 765 72.5 773.5 Q69 782 64.5 790 Q60 798 56.5 807 Q53 816 53 826 Q53 836 58 852.5 Q63 869 71 884.5 Q79 900 90.5 911 Q102 922 116 922 L198 922 Q212 922 215.5 911 Q219 900 219 890 Q219 871 208 857 Q197 843 184 830 Q171 817 160 803 Q149 789 149 772 Q149 762 154.5 754 Q160 746 166.5 739 Q173 732 178.5 725.5 Q184 719 184 710 L184 34 Q184 25 177 18 Q170 11 160 7 Q150 3 139.5 1.5 Q129 0 123 0 Q115 0 104 2.5 Q93 5 84 10 Q75 15 68 23 Q61 31 61 41 L61 703 Z " />
<glyph glyph-name="Lcaron" unicode="&#x13d;" horiz-adv-x="621" d="M164 745 Q172 745 184 742.5 Q196 740 207.5 735 Q219 730 227.5 722 Q236 714 236 703 L236 177 Q236 172 242 163.5 Q248 155 256 146.5 Q264 138 272.5 132 Q281 126 287 126 L546 126 Q557 126 563.5 118.5 Q570 111 574 100.5 Q578 90 579.5 79 Q581 68 581 61 Q581 39 571 19.5 Q561 0 532 0 L137 0 Q120 0 104.5 15.5 Q89 31 89 48 L89 696 Q89 710 96.5 719.5 Q104 729 115.5 734.5 Q127 740 140 742.5 Q153 745 164 745 Z M341 690 Q341 722 361 737 Q381 752 410 752 Q435 752 450 743.5 Q465 735 465 707 Q465 692 460.5 676 Q456 660 447 646 Q438 632 425.5 623 Q413 614 396 614 Q364 614 352.5 638 Q341 662 341 690 Z " />
<glyph glyph-name="lcaron" unicode="&#x13e;" horiz-adv-x="265" d="M123 745 Q145 745 165.5 732 Q186 719 191 696 Q191 693 191 685 Q191 677 191 667.5 Q191 658 191 650 Q191 642 191 638 Q191 633 191 624 Q191 615 191 605.5 Q191 596 191 589 Q191 582 191 580 Q191 560 190.5 517 Q190 474 189.5 420.5 Q189 367 188 307.5 Q187 248 186.5 194 Q186 140 185.5 97.5 Q185 55 184 34 Q178 15 160 7.5 Q142 0 123 0 Q115 0 104 2.5 Q93 5 84 10 Q75 15 68 23 Q61 31 61 41 L61 703 Q61 714 68 721.5 Q75 729 84 734 Q93 739 104 742 Q115 745 123 745 Z M245 683 Q245 752 314 752 Q340 752 354.5 743.5 Q369 735 369 707 Q369 691 364 674 Q359 657 349.5 644 Q340 631 326.5 622.5 Q313 614 295 614 Q280 614 270.5 620 Q261 626 255.5 636 Q250 646 247.5 658.5 Q245 671 245 683 Z " />
<glyph glyph-name="Lslash" unicode="&#x141;" horiz-adv-x="621" d="M13 331 Q13 333 13.5 339.5 Q14 346 14 348 Q17 352 26 361.5 Q35 371 44.5 382 Q54 393 63 403 Q72 413 75 416 Q77 419 81 424.5 Q85 430 85 430 L85 696 Q85 710 94 719 Q103 728 115 734 Q127 740 140.5 742.5 Q154 745 164 745 Q172 745 184 742.5 Q196 740 207.5 735 Q219 730 227.5 722 Q236 714 236 703 L236 492 Q236 471 253.5 460.5 Q271 450 287 450 Q307 450 325 454 Q343 458 362 458 Q379 458 394.5 447 Q410 436 410 416 Q410 393 397 380 Q384 367 365 359.5 Q346 352 324 347.5 Q302 343 283 335.5 Q264 328 251.5 315.5 Q239 303 239 280 L239 177 Q239 171 244 162.5 Q249 154 256.5 146 Q264 138 272 132 Q280 126 287 126 L546 126 Q557 126 563.5 118.5 Q570 111 574 100.5 Q578 90 579.5 79 Q581 68 581 61 Q581 39 571 19.5 Q561 0 532 0 L137 0 Q129 0 120 4.5 Q111 9 103.5 16 Q96 23 90.5 31.5 Q85 40 85 48 L85 239 Q85 253 74 262.5 Q63 272 49.5 281.5 Q36 291 24.5 302 Q13 313 13 331 Z " />
<glyph glyph-name="lslash" unicode="&#x142;" horiz-adv-x="265" d="M-21 328 Q-21 348 -8.5 362.5 Q4 377 18.5 390 Q33 403 45.5 417 Q58 431 58 451 L58 703 Q58 713 65.5 720.5 Q73 728 83 733.5 Q93 739 104 742 Q115 745 123 745 Q129 745 140 742.5 Q151 740 161.5 736 Q172 732 180 725.5 Q188 719 188 710 L188 519 Q188 499 200 487 Q212 475 227 464.5 Q242 454 254.5 442.5 Q267 431 267 413 Q267 392 254.5 377.5 Q242 363 227 350 Q212 337 200 322.5 Q188 308 188 287 L188 34 Q188 25 180 18.5 Q172 12 161 8 Q150 4 139 2 Q128 0 123 0 Q115 0 104 2.5 Q93 5 83 10.5 Q73 16 65.5 23.5 Q58 31 58 41 L58 232 Q58 249 45.5 259.5 Q33 270 18.5 279.5 Q4 289 -8.5 300 Q-21 311 -21 328 Z " />
<glyph glyph-name="Nacute" unicode="&#x143;" horiz-adv-x="814" d="M164 745 Q183 745 197.5 743 Q212 741 224.5 736 Q237 731 248.5 721.5 Q260 712 273 696 Q281 682 298 652.5 Q315 623 336.5 586 Q358 549 382 508.5 Q406 468 427.5 431 Q449 394 466 364.5 Q483 335 492 321 Q495 315 500 307 Q505 299 511 291.5 Q517 284 524.5 278.5 Q532 273 539 273 Q544 273 553.5 280.5 Q563 288 563 294 L563 689 Q563 706 571.5 716.5 Q580 727 592.5 733.5 Q605 740 619 742.5 Q633 745 645 745 Q658 745 671.5 742.5 Q685 740 697 733.5 Q709 727 716.5 716.5 Q724 706 724 689 L724 55 Q724 46 719.5 36.5 Q715 27 708.5 19 Q702 11 693.5 5.5 Q685 0 676 0 L546 0 Q538 0 528.5 4 Q519 8 510.5 14.5 Q502 21 495 28 Q488 35 485 41 L300 355 Q291 371 284 377 Q277 383 264 383 Q253 383 244.5 375.5 Q236 368 236 355 L236 41 Q236 28 226.5 20 Q217 12 204.5 7.5 Q192 3 178.5 1 Q165 -1 157 -1 Q150 -1 137.5 0 Q125 1 112.5 4.5 Q100 8 91 15 Q82 22 82 34 L82 703 Q82 718 91.5 726.5 Q101 735 114 739 Q127 743 141 744 Q155 745 164 745 Z M266 856 Q266 904 295 930 Q324 956 369 956 Q378 956 389 956 Q400 956 409 952.5 Q418 949 424.5 942.5 Q431 936 431 923 Q431 903 420 884 Q409 865 392 850.5 Q375 836 354.5 827 Q334 818 316 818 Q291 818 278.5 824 Q266 830 266 856 Z " />
<glyph glyph-name="nacute" unicode="&#x144;" horiz-adv-x="597" d="M130 513 Q143 513 155 509.5 Q167 506 179 502 Q191 498 203.5 494.5 Q216 491 229 491 Q245 491 259.5 494.5 Q274 498 289 502 Q304 506 319 509.5 Q334 513 351 513 Q390 513 422 500 Q454 487 477 464 Q500 441 513 408 Q526 375 526 335 L526 48 Q526 35 519.5 26 Q513 17 503.5 11 Q494 5 482.5 2.5 Q471 0 461 0 Q451 0 439 2.5 Q427 5 417 11 Q407 17 400 26 Q393 35 393 48 L393 314 Q393 333 383.5 346 Q374 359 359.5 367.5 Q345 376 328.5 379.5 Q312 383 298 383 Q281 383 262.5 377 Q244 371 229 359.5 Q214 348 204.5 331 Q195 314 195 294 L195 34 Q195 25 187 18.5 Q179 12 168.5 8 Q158 4 147 2 Q136 0 130 0 Q122 0 111 2.5 Q100 5 90.5 10 Q81 15 74.5 23 Q68 31 68 41 L68 478 Q68 488 75 495 Q82 502 92 506 Q102 510 112.5 511.5 Q123 513 130 513 Z M259 628 Q259 639 263.5 655 Q268 671 276.5 686.5 Q285 702 296 713 Q307 724 321 724 L403 724 Q417 724 420.5 713.5 Q424 703 424 693 Q424 674 413.5 655 Q403 636 386.5 620.5 Q370 605 350.5 595.5 Q331 586 312 586 Q289 586 274 594 Q259 602 259 628 Z " />
<glyph glyph-name="Ncaron" unicode="&#x147;" horiz-adv-x="814" d="M164 745 Q183 745 197.5 743 Q212 741 224.5 736 Q237 731 248.5 721.5 Q260 712 273 696 Q281 682 298 652.5 Q315 623 336.5 586 Q358 549 382 508.5 Q406 468 427.5 431 Q449 394 466 364.5 Q483 335 492 321 Q495 315 500 307 Q505 299 511 291.5 Q517 284 524.5 278.5 Q532 273 539 273 Q544 273 553.5 280.5 Q563 288 563 294 L563 689 Q563 706 571.5 716.5 Q580 727 592.5 733.5 Q605 740 619 742.5 Q633 745 645 745 Q658 745 671.5 742.5 Q685 740 697 733.5 Q709 727 716.5 716.5 Q724 706 724 689 L724 55 Q724 46 719.5 36.5 Q715 27 708.5 19 Q702 11 693.5 5.5 Q685 0 676 0 L546 0 Q538 0 528.5 4 Q519 8 510.5 14.5 Q502 21 495 28 Q488 35 485 41 L300 355 Q291 371 284 377 Q277 383 264 383 Q253 383 244.5 375.5 Q236 368 236 355 L236 41 Q236 28 226.5 20 Q217 12 204.5 7.5 Q192 3 178.5 1 Q165 -1 157 -1 Q150 -1 137.5 0 Q125 1 112.5 4.5 Q100 8 91 15 Q82 22 82 34 L82 703 Q82 718 91.5 726.5 Q101 735 114 739 Q127 743 141 744 Q155 745 164 745 Z M266 923 Q266 940 278.5 948 Q291 956 307 956 Q332 956 354 948.5 Q376 941 401 941 Q426 941 448 948.5 Q470 956 495 956 Q516 956 524.5 949 Q533 942 533 920 Q533 896 520.5 876 Q508 856 488 842 Q468 828 444.5 820 Q421 812 399 812 Q378 812 354.5 820.5 Q331 829 311 843.5 Q291 858 278.5 878.5 Q266 899 266 923 Z " />
<glyph glyph-name="ncaron" unicode="&#x148;" horiz-adv-x="597" d="M130 513 Q143 513 155 509.5 Q167 506 179 502 Q191 498 203.5 494.5 Q216 491 229 491 Q245 491 259.5 494.5 Q274 498 289 502 Q304 506 319 509.5 Q334 513 351 513 Q390 513 422 500 Q454 487 477 464 Q500 441 513 408 Q526 375 526 335 L526 48 Q526 35 519.5 26 Q513 17 503.5 11 Q494 5 482.5 2.5 Q471 0 461 0 Q451 0 439 2.5 Q427 5 417 11 Q407 17 400 26 Q393 35 393 48 L393 314 Q393 333 383.5 346 Q374 359 359.5 367.5 Q345 376 328.5 379.5 Q312 383 298 383 Q281 383 262.5 377 Q244 371 229 359.5 Q214 348 204.5 331 Q195 314 195 294 L195 34 Q195 25 187 18.5 Q179 12 168.5 8 Q158 4 147 2 Q136 0 130 0 Q122 0 111 2.5 Q100 5 90.5 10 Q81 15 74.5 23 Q68 31 68 41 L68 478 Q68 488 75 495 Q82 502 92 506 Q102 510 112.5 511.5 Q123 513 130 513 Z M157 693 Q157 702 164 710.5 Q171 719 177 724 Q180 724 189.5 724 Q199 724 201 724 Q227 724 249.5 716.5 Q272 709 297 709 Q321 709 341 716.5 Q361 724 385 724 Q406 724 418.5 719.5 Q431 715 431 692 Q431 677 422 660.5 Q413 644 400 629 Q387 614 371 602.5 Q355 591 341 587 Q339 587 332.5 587 Q326 587 319 587 Q312 587 305.5 586.5 Q299 586 297 586 Q276 586 251 593 Q226 600 205.5 613.5 Q185 627 171 647 Q157 667 157 693 Z " />
<glyph glyph-name="Omacron" unicode="&#x14c;" horiz-adv-x="838" d="M54 369 Q54 446 80 515.5 Q106 585 153.5 637.5 Q201 690 267 720.5 Q333 751 413 751 Q492 751 558 721 Q624 691 671.5 639.5 Q719 588 745.5 519.5 Q772 451 772 373 Q772 292 747.5 222.5 Q723 153 676.5 102 Q630 51 563.5 22 Q497 -7 413 -7 Q330 -7 263.5 21.5 Q197 50 150.5 101 Q104 152 79 220.5 Q54 289 54 369 Z M211 372 Q211 327 223.5 282 Q236 237 261.5 201.5 Q287 166 324.5 144 Q362 122 413 122 Q464 122 502 144 Q540 166 565 201.5 Q590 237 602.5 282 Q615 327 615 372 Q615 416 602 460.5 Q589 505 563.5 540.5 Q538 576 500 599 Q462 622 413 622 Q364 622 326.5 599 Q289 576 263.5 540 Q238 504 224.5 459.5 Q211 415 211 372 Z M266 862 Q266 874 276.5 887.5 Q287 901 300 901 L526 901 Q539 901 550 887.5 Q561 874 561 862 Q561 842 547 827 Q533 812 512 812 L314 812 Q293 812 279.5 827 Q266 842 266 862 Z " />
</font>
</svg>
