<?xml version="1.0" encoding="UTF-8"?>
<svg xmlns="http://www.w3.org/2000/svg" xmlns:xlink="http://www.w3.org/1999/xlink" version="1.2" >
<font id="Zisel Outline">
<font-face  font-family="Zisel" units-per-em="1024" ascent="975" descent="-358" font-style="normal" font-weight="450" font-stretch="normal" cap-height="750" x-height="520" underline-position="0" underline-thickness="0" />
<missing-glyph  horiz-adv-x="472" d="M0 -11.264 L-11.264 -11.264 L-11.264 0 L-11.264 700 L-11.264 711.264 L0 711.264 L432 711.264 L443.264 711.264 L443.264 700 L443.264 0 L443.264 -11.264 L432 -11.264 L0 -11.264 L0 -11.264 Z M11.264 11.264 L420.736 11.264 L420.736 688.736 L11.264 688.736 L11.264 11.264 L11.264 11.264 Z M61.264 638.736 L61.264 61.264 L370.736 61.264 L370.736 638.736 L61.264 638.736 L61.264 638.736 Z M38.736 650 L38.736 661.264 L50 661.264 L382 661.264 L393.264 661.264 L393.264 650 L393.264 50 L393.264 38.736 L382 38.736 L50 38.736 L38.736 38.736 L38.736 50 L38.736 650 L38.736 650 Z " />
<glyph glyph-name="null" d="" />
<glyph glyph-name="nonmarkingreturn" unicode="&#xd;" horiz-adv-x="256" d="" />
<glyph glyph-name="space" unicode="&#x20;" horiz-adv-x="281" d="" />
<glyph glyph-name="exclam" unicode="&#x21;" horiz-adv-x="251" d="M212.264 0 L212.264 -11.264 L201 -11.264 L51 -11.264 L39.736 -11.264 L39.736 0 L39.736 150 L39.736 161.264 L51 161.264 L201 161.264 L212.264 161.264 L212.264 150 L212.264 0 L212.264 0 Z M189.736 11.264 L189.736 138.736 L62.264 138.736 L62.264 11.264 L189.736 11.264 L189.736 11.264 Z M34.1261 437.061 L33.736 438.505 L33.736 440 L33.736 750 L33.736 761.264 L45 761.264 L207 761.264 L218.264 761.264 L218.264 750 L218.264 440 L218.264 438.505 L217.874 437.061 L157.874 215.061 L155.624 206.736 L147 206.736 L105 206.736 L96.3762 206.736 L94.1261 215.061 L34.1261 437.061 L34.1261 437.061 Z M56.264 441.495 L113.624 229.264 L138.376 229.264 L195.736 441.495 L195.736 738.736 L56.264 738.736 L56.264 441.495 L56.264 441.495 Z " />
<glyph glyph-name="quotedbl" unicode="&#x22;" horiz-adv-x="539" d="M295.102 602.153 L294.736 603.553 L294.736 605 L294.736 750 L294.736 761.264 L306 761.264 L443 761.264 L454.264 761.264 L454.264 750 L454.264 605 L454.264 603.513 L453.878 602.077 L417.878 468.077 L415.637 459.736 L407 459.736 L341 459.736 L332.3 459.736 L330.102 468.153 L295.102 602.153 L295.102 602.153 Z M317.264 606.447 L349.7 482.264 L398.363 482.264 L431.736 606.487 L431.736 738.736 L317.264 738.736 L317.264 606.447 L317.264 606.447 Z M70.1217 602.077 L69.736 603.513 L69.736 605 L69.736 750 L69.736 761.264 L81 761.264 L219 761.264 L230.264 761.264 L230.264 750 L230.264 605 L230.264 603.513 L229.878 602.077 L193.878 468.077 L191.637 459.736 L183 459.736 L117 459.736 L108.363 459.736 L106.122 468.077 L70.1217 602.077 L70.1217 602.077 Z M92.264 606.487 L125.637 482.264 L174.363 482.264 L207.736 606.487 L207.736 738.736 L92.264 738.736 L92.264 606.487 L92.264 606.487 Z " />
<glyph glyph-name="numbersign" unicode="&#x23;" horiz-adv-x="772" d="M470.127 587.264 L491.833 751.476 L493.127 761.264 L503 761.264 L643 761.264 L655.851 761.264 L654.167 748.524 L632.851 587.264 L753 587.264 L765.988 587.264 L764.151 574.407 L748.151 462.407 L746.769 452.736 L737 452.736 L613.902 452.736 L593.813 297.264 L704 297.264 L716.988 297.264 L715.151 284.407 L699.151 172.407 L697.769 162.736 L688 162.736 L574.873 162.736 L553.167 -1.47608 L551.873 -11.264 L542 -11.264 L402 -11.264 L389.149 -11.264 L390.833 1.47608 L412.149 162.736 L300.873 162.736 L279.167 -1.47608 L277.873 -11.264 L268 -11.264 L129 -11.264 L116.149 -11.264 L117.833 1.47608 L139.149 162.736 L14 162.736 L1.0125 162.736 L2.84921 175.593 L18.8492 287.593 L20.2308 297.264 L30 297.264 L157.153 297.264 L178.115 452.736 L63 452.736 L50.0125 452.736 L51.8492 465.593 L67.8492 577.593 L69.2308 587.264 L79 587.264 L196.127 587.264 L217.833 751.476 L219.127 761.264 L229 761.264 L369 761.264 L381.851 761.264 L380.167 748.524 L358.851 587.264 L470.127 587.264 L470.127 587.264 Z M491.167 574.524 L489.873 564.736 L480 564.736 L346 564.736 L333.149 564.736 L334.833 577.476 L356.149 738.736 L238.873 738.736 L217.167 574.524 L215.873 564.736 L206 564.736 L88.769 564.736 L75.988 475.264 L191 475.264 L203.885 475.264 L202.163 462.495 L178.163 284.495 L176.847 274.736 L167 274.736 L39.769 274.736 L26.988 185.264 L152 185.264 L164.851 185.264 L163.167 172.524 L141.851 11.264 L258.127 11.264 L279.833 175.476 L281.127 185.264 L291 185.264 L425 185.264 L437.851 185.264 L436.167 172.524 L414.851 11.264 L532.127 11.264 L553.833 175.476 L555.127 185.264 L565 185.264 L678.231 185.264 L691.012 274.736 L581 274.736 L568.187 274.736 L569.829 287.443 L592.829 465.443 L594.098 475.264 L604 475.264 L727.231 475.264 L740.012 564.736 L620 564.736 L607.149 564.736 L608.833 577.476 L630.149 738.736 L512.873 738.736 L491.167 574.524 L491.167 574.524 Z M451.187 452.736 L339.902 452.736 L319.813 297.264 L431.098 297.264 L451.187 452.736 L451.187 452.736 Z M464 475.264 L476.813 475.264 L475.171 462.557 L452.171 284.557 L450.902 274.736 L441 274.736 L307 274.736 L294.187 274.736 L295.829 287.443 L318.829 465.443 L320.098 475.264 L330 475.264 L464 475.264 L464 475.264 Z " />
<glyph glyph-name="dollar" unicode="&#x24;" horiz-adv-x="676" d="M338.736 770.006 L338.736 825 L338.736 836.264 L350 836.264 L428 836.264 L439.264 836.264 L439.264 825 L439.264 753.78 C475.508 744.283 509.974 730.485 541.504 712.828 C575.625 693.72 606.067 669.576 631.362 641.546 L638.933 633.157 L630.519 625.613 L572.519 573.613 L514.519 521.613 L506.097 514.062 L498.581 522.517 C481.79 541.407 462.365 556.866 439.264 569.636 L439.264 457.611 C579.082 418.358 652.264 333.834 652.264 210 C652.264 149.975 632.934 97.9477 595.713 58.2913 C560.19 20.4446 506.911 -4.59024 439.264 -15.675 L439.264 -75 L439.264 -86.264 L428 -86.264 L350 -86.264 L338.736 -86.264 L338.736 -75 L338.736 -21.099 C330.514 -20.8585 322.326 -20.3557 314.264 -19.596 L314.264 -75 L314.264 -86.264 L303 -86.264 L225 -86.264 L213.736 -86.264 L213.736 -75 L213.736 -1.604 C172.839 9.99596 135.916 27.1811 104.515 49.2899 C70.7583 73.0576 43.3299 104.226 24.0404 140.738 L23.9816 140.85 L23.9252 140.963 L21.4252 145.963 L18.9252 150.963 L14.5727 159.668 L22.5539 165.237 L161.554 262.237 L172.436 269.831 L178.162 257.86 C185.253 243.033 193.151 230.024 202.454 217.834 C206.146 212.996 209.888 208.491 213.736 204.26 L213.736 318.508 C85.9134 356.312 18.736 433.736 18.736 545 C18.736 601.08 37.6112 650.446 73.8151 688.738 C108.047 724.946 155.676 749.869 213.736 762.235 L213.736 825 L213.736 836.264 L225 836.264 L303 836.264 L314.264 836.264 L314.264 825 L314.264 771.027 L326.74 770.761 L326.979 770.756 L327.218 770.741 L338.736 770.006 L338.736 770.006 Z M361.264 758 L361.264 745.994 L349.282 746.759 L326.021 748.244 L302.76 748.739 L291.736 748.973 L291.736 760 L291.736 813.736 L236.264 813.736 L236.264 753 L236.264 743.645 L227.068 741.928 C167.972 730.888 123.495 708.494 90.1849 673.262 C57.0554 638.221 41.264 596.92 41.264 545 C41.264 439.969 101.192 372.973 228.006 337.855 L236.264 335.569 L236.264 327 L236.264 178 L236.264 154.132 L217.839 169.305 C205.985 179.067 194.59 191.006 184.546 204.166 C177.04 214.002 170.054 224.873 163.838 236.36 L43.427 152.332 L44.018 151.151 C62.0551 117.048 85.9424 89.9185 117.485 67.7101 C149.278 45.3253 185.437 28.9901 227.85 17.8975 L236.264 15.6969 L236.264 7 L236.264 -63.736 L291.736 -63.736 L291.736 -7 L291.736 5.82863 L304.457 4.16939 C319.422 2.21745 334.359 1.264 350 1.264 L361.264 1.264 L361.264 -10 L361.264 -63.736 L416.736 -63.736 L416.736 -6 L416.736 3.78226 L426.422 5.15289 C495.497 14.9277 545.155 37.3438 579.287 73.7087 C613.399 110.052 629.736 154.025 629.736 210 C629.736 327.709 563.851 401.637 425.136 438.106 L416.736 440.315 L416.736 449 L416.736 588 L416.736 605.709 L432.775 598.202 C461.458 584.776 486.877 566.976 507.696 545.752 L557.481 590.387 L606.922 634.714 C584.738 657.655 559.613 676.867 530.496 693.172 C497.85 711.454 463.289 724.895 425.357 734.05 L416.736 736.131 L416.736 745 L416.736 813.736 L361.264 813.736 L361.264 758 L361.264 758 Z M314.264 603.539 L314.264 481.438 L327.393 479.104 L338.736 477.252 L338.736 601.449 C331.063 602.531 322.964 603.224 314.264 603.539 L314.264 603.539 Z M291.736 615 L291.736 626.264 L303 626.264 C320.812 626.264 337.536 624.841 352.108 622.065 L361.264 620.321 L361.264 611 L361.264 464 L361.264 450.748 L348.185 452.883 L323.685 456.883 L323.607 456.896 L323.528 456.91 L301.028 460.91 L291.736 462.562 L291.736 472 L291.736 615 L291.736 615 Z M213.736 526.855 L213.736 584.051 C203.966 577.8 200.264 570.74 200.264 561 C200.264 547.897 204.354 537.029 213.736 526.855 L213.736 526.855 Z M236.264 503 L236.264 481.953 L218.752 493.628 C192.718 510.983 177.736 535.122 177.736 561 C177.736 583.243 194.352 602.167 220.917 612.498 L236.264 618.466 L236.264 602 L236.264 503 L236.264 503 Z M314.264 297.397 L314.264 148.274 L327.668 145.651 L338.736 144.498 L338.736 293.458 L330.243 294.874 L330.148 294.889 L314.264 297.397 L314.264 297.397 Z M291.736 310 L291.736 322.447 L304.121 321.208 L309.121 320.708 L314.121 320.208 L314.44 320.176 L314.757 320.126 L333.757 317.126 L333.804 317.119 L333.852 317.111 L351.852 314.111 L361.264 312.542 L361.264 303 L361.264 132 L361.264 119.502 L348.833 120.797 L324.833 123.297 L324.332 123.349 L323.837 123.446 L300.837 127.946 L291.736 129.726 L291.736 139 L291.736 310 L291.736 310 Z M439.264 260.682 L439.264 155.86 C465.76 166.725 476.736 181.905 476.736 205 C476.736 228.112 465.445 245.612 439.264 260.682 L439.264 260.682 Z M416.736 279 L416.736 296.421 L432.622 289.272 C475.063 270.173 499.264 240.326 499.264 205 C499.264 169.263 474.187 142.096 431.237 129.211 L416.736 124.861 L416.736 140 L416.736 279 L416.736 279 Z " />
<glyph glyph-name="percent" unicode="&#x25;" horiz-adv-x="843" d="M641 -21.264 C592.869 -21.264 553.468 -5.80521 527.984 23.6268 C502.828 52.6809 489.736 92.8786 489.736 140 C489.736 187.121 502.828 227.319 527.984 256.373 C553.468 285.805 592.869 301.264 641 301.264 C689.778 301.264 729.519 285.82 755.016 256.373 C780.172 227.319 793.264 187.121 793.264 140 C793.264 92.8786 780.172 52.6809 755.016 23.6268 C729.519 -5.81979 689.778 -21.264 641 -21.264 L641 -21.264 Z M641 1.264 C685.555 1.264 716.148 13.1531 737.984 38.3732 C760.161 63.9858 770.736 96.4547 770.736 140 C770.736 183.545 760.161 216.014 737.984 241.627 C716.148 266.847 685.555 278.736 641 278.736 C597.131 278.736 566.865 266.861 545.016 241.627 C522.839 216.014 512.264 183.545 512.264 140 C512.264 96.4547 522.839 63.9858 545.016 38.3732 C566.865 13.1385 597.131 1.264 641 1.264 L641 1.264 Z M692.736 140 C692.736 160.401 688.593 174.7 679.515 186.707 C670.974 198.002 660.006 202.736 641 202.736 C622.683 202.736 611.789 197.984 602.88 186.57 C593.518 174.574 589.264 160.352 589.264 140 C589.264 119.648 593.518 105.426 602.88 93.4304 C611.789 82.0158 622.683 77.264 641 77.264 C660.006 77.264 670.974 81.9976 679.515 93.2934 C688.593 105.3 692.736 119.599 692.736 140 L692.736 140 Z M715.264 140 C715.264 116.401 709.073 95.0333 697.485 79.7066 C685.359 63.6691 664.66 54.736 641 54.736 C617.984 54.736 597.545 63.6508 585.12 79.5696 C573.149 94.9078 566.736 116.352 566.736 140 C566.736 163.648 573.149 185.092 585.12 200.43 C597.545 216.349 617.984 225.264 641 225.264 C664.66 225.264 685.359 216.331 697.485 200.293 C709.073 184.967 715.264 163.599 715.264 140 L715.264 140 Z M202 771.264 C250.778 771.264 290.519 755.82 316.016 726.373 C341.175 697.316 353.926 657.087 353.265 610 C353.926 562.913 341.174 522.684 316.016 493.627 C290.519 464.18 250.778 448.736 202 448.736 C153.222 448.736 113.481 464.18 87.9845 493.627 C62.8279 522.681 49.736 562.879 49.736 610 C49.736 657.121 62.8279 697.319 87.9845 726.373 C113.481 755.82 153.222 771.264 202 771.264 L202 771.264 Z M202 748.736 C157.445 748.736 126.852 736.847 105.016 711.627 C82.8387 686.014 72.264 653.545 72.264 610 C72.264 566.455 82.8387 533.986 105.016 508.373 C126.852 483.153 157.445 471.264 202 471.264 C246.555 471.264 277.148 483.153 298.984 508.373 C321.129 533.949 331.377 566.326 330.737 609.834 L330.735 610 L330.737 610.166 C331.377 653.674 321.129 686.051 298.984 711.627 C277.148 736.847 246.555 748.736 202 748.736 L202 748.736 Z M150.264 610 C150.264 589.599 154.407 575.3 163.485 563.293 C172.026 551.998 182.994 547.264 202 547.264 C220.317 547.264 231.211 552.016 240.12 563.43 C249.482 575.426 253.736 589.648 253.736 610 C253.736 630.352 249.482 644.574 240.12 656.57 C231.211 667.984 220.317 672.736 202 672.736 C182.994 672.736 172.026 668.002 163.485 656.707 C154.407 644.7 150.264 630.401 150.264 610 L150.264 610 Z M127.736 610 C127.736 633.599 133.927 654.967 145.515 670.293 C157.641 686.331 178.34 695.264 202 695.264 C225.016 695.264 245.455 686.349 257.88 670.43 C269.851 655.092 276.264 633.648 276.264 610 C276.264 586.352 269.851 564.908 257.88 549.57 C245.455 533.651 225.016 524.736 202 524.736 C178.34 524.736 157.641 533.669 145.515 549.707 C133.927 565.033 127.736 586.401 127.736 610 L127.736 610 Z M228.642 -5.82361 L225.356 -11.264 L219 -11.264 L171 -11.264 L151.037 -11.264 L161.358 5.82361 L614.358 755.824 L617.644 761.264 L624 761.264 L672 761.264 L691.963 761.264 L681.642 744.176 L228.642 -5.82361 L228.642 -5.82361 Z M212.644 11.264 L652.037 738.736 L630.356 738.736 L190.963 11.264 L212.644 11.264 L212.644 11.264 Z " />
<glyph glyph-name="ampersand" unicode="&#x26;" horiz-adv-x="729" d="M646.438 135.686 L659.095 139.905 L661.132 126.72 L680.132 3.71957 L681.631 -5.98705 L672.219 -8.79415 L643.719 -17.2942 L643.353 -17.4033 L642.981 -17.4874 C632.076 -19.9498 620.999 -21.264 611 -21.264 C578.767 -21.264 548.817 -16.4505 523.139 -7.08165 C500.12 1.3174 477.673 12.9708 456.837 27.317 C429.698 9.54636 399.106 -4.67571 366.313 -14.7659 C330.794 -25.6945 291.46 -31.264 250 -31.264 C216.432 -31.264 184.537 -26.1254 156.244 -16.1195 C127.928 -6.10518 102.683 8.50111 82.4808 26.6132 C62.2227 44.7756 45.8038 67.762 34.6613 93.5292 C23.5111 119.314 17.736 148.911 17.736 180 C17.736 221.02 30.0312 261.16 53.5724 297.164 C74.8565 329.716 103.574 356.554 138.018 376.18 C129.033 391.899 121.591 411.642 116.057 434.331 C109.218 462.369 105.736 493.709 105.736 527 C105.736 553.425 110.682 578.703 120.173 600.497 C129.65 622.259 143.728 641.894 160.974 657.381 C178.202 672.85 200.004 685.309 224.347 693.655 C248.619 701.977 276.128 706.264 305 706.264 C332.624 706.264 358.973 701.752 381.99 693.034 C405.062 684.294 425.75 671.179 441.965 654.965 C458.137 638.792 471.383 618.373 480.458 595.683 C489.546 572.964 494.264 547.016 494.264 520 C494.264 488.419 480.427 455.135 454.701 423.846 C431.718 395.894 400.842 371.115 363.501 350.521 C373.24 338.883 384.028 326.393 395.928 312.974 C407.849 299.53 420.466 285.004 433.737 269.441 C442.996 300.359 447.28 334.746 446.737 373.844 L446.537 388.238 L460.557 384.97 L593.557 353.97 L602.116 351.975 L602.262 343.188 C602.94 302.514 598.96 263.918 590.446 228.843 C582.96 198 572.2 169.031 558.55 142.959 C564.253 140.668 570.457 138.918 577.594 137.568 C589.299 135.353 604.081 134.264 623 134.264 C636.583 134.264 643.769 134.796 646.438 135.686 L646.438 135.686 Z M640.569 112.272 C635.616 111.909 629.696 111.736 623 111.736 C603.252 111.736 586.368 112.98 573.406 115.432 C560.224 117.926 547.623 122.385 537.411 128.22 L527.632 133.809 L533.22 143.589 C548.809 170.869 560.399 200.558 568.554 234.157 C576.097 265.234 579.817 298.148 579.812 334.042 L469.24 359.814 C468.491 316.5 461.522 277.028 448.523 242.982 L441.709 225.137 L429.391 239.736 C411.432 261.021 394.689 280.416 379.072 298.026 C363.34 315.768 349.361 332.104 337.282 346.867 L328.417 357.703 L340.899 364.043 C381.961 384.9 413.446 409.143 437.299 438.154 C460.906 466.865 471.736 492.915 471.736 520 C471.736 544.984 467.787 566.703 459.542 587.317 C451.284 607.961 440.529 624.541 426.035 639.035 C411.583 653.487 394.938 664.039 374.01 671.966 C353.027 679.914 330.709 683.736 305 683.736 C277.872 683.736 254.048 680.023 231.653 672.345 C209.329 664.691 191.465 654.483 176.026 640.619 C160.606 626.772 149.35 611.074 140.827 591.503 C132.318 571.964 128.264 551.242 128.264 527 C128.264 494.957 131.448 466.298 137.943 439.669 C144.403 413.183 152.586 393.484 163.192 378.511 L170.727 367.872 L159.108 361.961 C122.403 343.286 94.2746 318.249 72.4276 284.836 C50.6354 251.507 40.264 217.647 40.264 180 C40.264 151.089 45.1556 126.019 55.3387 102.471 C65.5295 78.9047 79.1107 59.8911 97.5192 43.3868 C115.984 26.8322 137.405 14.4385 163.756 5.11945 C190.13 -4.20793 218.235 -8.736 250 -8.736 C289.873 -8.736 325.872 -3.6388 359.687 6.76589 C393.556 17.187 423.333 31.4419 450.6 50.2691 L457.169 54.805 L463.625 50.1096 C485 34.5641 506.947 22.8072 530.861 14.0817 C554.517 5.45052 580.566 1.264 611 1.264 C619.559 1.264 628.043 2.2577 637.653 4.405 L656.369 9.987 L640.569 112.272 L640.569 112.272 Z M277.275 449.915 C301.105 460.822 319.466 472.125 333.583 484.477 C348.351 497.399 353.736 505.926 353.736 514 C353.736 529.935 349.826 540.245 340.535 549.535 C331.245 558.826 320.935 562.736 305 562.736 C288.91 562.736 277.633 560.215 268.12 554.738 C259.569 549.815 257.264 546.113 257.264 538 C257.264 516.696 259.579 498.019 264.367 480.464 C267.982 467.209 272.132 457.424 277.275 449.915 L277.275 449.915 Z M279.037 425.925 L271.489 422.151 L265.746 428.335 C255.962 438.872 247.919 455.153 242.633 474.536 C237.421 493.647 234.736 515.304 234.736 538 C234.736 552.553 243.431 566.519 256.88 574.262 C269.367 581.452 286.423 585.264 305 585.264 C325.065 585.264 343.755 578.174 356.465 565.465 C369.174 552.755 376.264 534.065 376.264 514 C376.264 499.407 365.649 482.601 348.417 467.523 C331.711 452.905 308.658 439.059 280.787 426.8 L279.037 425.925 L279.037 425.925 Z M221.09 278.837 L194.152 264.983 L193.569 264.683 L192.955 264.453 C191.813 264.025 190.459 261.26 188.074 248.44 C185.52 234.712 184.264 217.913 184.264 197 C184.264 177.637 190.776 164.49 206.392 152.409 C222.349 140.065 242.583 134.264 271 134.264 C294.533 134.264 315.339 138.315 334.985 146.77 C312.021 173.663 290.888 198.076 271.544 220.059 C252.184 242.059 235.337 261.685 221.09 278.837 L221.09 278.837 Z M218.848 303.017 L226.933 307.175 L232.704 300.15 C247.967 281.569 266.509 259.881 288.456 234.941 C310.49 209.903 334.884 181.665 361.578 150.3 L370.594 139.706 L358.356 133.091 C332.413 119.067 302.354 111.736 271 111.736 C239.417 111.736 211.984 119.601 192.608 134.591 C172.891 149.844 161.736 172.363 161.736 197 C161.736 218.754 163.147 237.621 165.926 252.56 C168.79 267.956 175.145 281.202 184.24 285.218 L218.848 303.017 L218.848 303.017 Z " />
<glyph glyph-name="quotesingle" unicode="&#x27;" horiz-adv-x="269" d="M70.1217 602.077 L69.736 603.513 L69.736 605 L69.736 750 L69.736 761.264 L81 761.264 L219 761.264 L230.264 761.264 L230.264 750 L230.264 605 L230.264 603.513 L229.878 602.077 L193.878 468.077 L191.637 459.736 L183 459.736 L117 459.736 L108.363 459.736 L106.122 468.077 L70.1217 602.077 L70.1217 602.077 Z M92.264 606.487 L125.637 482.264 L174.363 482.264 L207.736 606.487 L207.736 738.736 L92.264 738.736 L92.264 606.487 L92.264 606.487 Z " />
<glyph glyph-name="parenleft" unicode="&#x28;" horiz-adv-x="370" d="M295.781 803.646 L304.086 810.581 L311.349 802.561 L359.349 749.561 L367.214 740.877 L358.226 733.36 C250.383 643.163 197.264 512.137 197.264 335 C197.264 164.581 250.343 36.8705 358.226 -53.3596 L367.214 -60.8767 L359.349 -69.5613 L311.349 -122.561 L304.065 -130.604 L295.756 -123.626 C156.481 -6.66129 85.736 147.878 85.736 335 C85.736 431.444 103.366 519.936 138.212 598.087 C173.086 676.3 226.155 745.512 295.781 803.646 L295.781 803.646 Z M301.975 779.352 C238.442 724.46 191.194 661.591 158.788 588.913 C124.967 513.064 108.264 429.222 108.264 335 C108.264 156.529 172.147 13.3154 301.993 -99.332 L334.885 -63.014 C228.65 30.4922 174.736 164.77 174.736 335 C174.736 511.672 228.613 649.298 334.888 743.01 L301.975 779.352 L301.975 779.352 Z " />
<glyph glyph-name="parenright" unicode="&#x29;" horiz-adv-x="322" d="M75.2193 -123.646 L66.9141 -130.581 L59.6511 -122.561 L11.6511 -69.5613 L3.76234 -60.8508 L12.7992 -53.3382 C121.281 36.8454 174.053 167.81 172.736 344.916 L172.736 345.002 L172.736 345.087 C174.052 515.474 121.321 643.121 12.7992 733.338 L3.76234 740.851 L11.6511 749.561 L59.6511 802.561 L66.9348 810.604 L75.2439 803.626 C214.519 686.661 285.264 532.122 285.264 345 C285.264 248.556 267.634 160.064 232.788 81.9129 C197.914 3.7 144.845 -65.5121 75.2193 -123.646 L75.2193 -123.646 Z M69.025 -99.352 C132.558 -44.4598 179.806 18.4094 212.212 91.0871 C246.033 166.936 262.736 250.778 262.736 345 C262.736 523.471 198.853 666.685 69.007 779.332 L36.138 743.039 C142.983 649.533 196.56 515.222 195.264 344.998 C196.56 168.334 143.019 30.6769 36.134 -63.035 L69.025 -99.352 L69.025 -99.352 Z " />
<glyph glyph-name="asterisk" unicode="&#x2a;" horiz-adv-x="424" d="M270.079 678.528 L342.007 714.097 L353.727 719.893 L357.725 707.444 L392.725 598.444 L396.658 586.193 L383.995 583.914 L304.845 569.667 L361.075 511.853 L370.179 502.493 L359.584 494.861 L266.584 427.861 L255.986 420.226 L249.992 431.831 L212.895 503.657 L174.963 431.745 L168.922 420.292 L158.416 427.861 L65.4158 494.861 L54.8215 502.493 L63.9253 511.853 L120.155 569.667 L41.0045 583.914 L28.3418 586.193 L32.2753 598.444 L67.2753 707.444 L71.2727 719.893 L82.993 714.097 L154.921 678.528 L143.843 758.453 L142.067 771.264 L155 771.264 L270 771.264 L282.933 771.264 L281.157 758.453 L270.079 678.528 L270.079 678.528 Z M260.993 648.903 L241.921 639.472 L244.843 660.547 L257.067 748.736 L167.933 748.736 L180.157 660.547 L183.079 639.472 L164.007 648.903 L84.727 688.107 L57.658 603.807 L144.995 588.086 L165.845 584.333 L151.075 569.147 L89.178 505.507 L161.078 453.708 L203.037 533.255 L213.105 552.343 L223.008 533.169 L264.014 453.775 L335.821 505.507 L273.925 569.147 L259.155 584.333 L280.005 588.086 L367.342 603.807 L340.273 688.107 L260.993 648.903 L260.993 648.903 Z " />
<glyph glyph-name="plus" unicode="&#x2b;" horiz-adv-x="590" d="M250 -11.264 L238.736 -11.264 L238.736 0 L238.736 206.736 L25 206.736 L13.736 206.736 L13.736 218 L13.736 302 L13.736 313.264 L25 313.264 L238.736 313.264 L238.736 520 L238.736 531.264 L250 531.264 L340 531.264 L351.264 531.264 L351.264 520 L351.264 313.264 L565 313.264 L576.264 313.264 L576.264 302 L576.264 218 L576.264 206.736 L565 206.736 L351.264 206.736 L351.264 0 L351.264 -11.264 L340 -11.264 L250 -11.264 L250 -11.264 Z M261.264 11.264 L328.736 11.264 L328.736 218 L328.736 229.264 L340 229.264 L553.736 229.264 L553.736 290.736 L340 290.736 L328.736 290.736 L328.736 302 L328.736 508.736 L261.264 508.736 L261.264 302 L261.264 290.736 L250 290.736 L36.264 290.736 L36.264 229.264 L250 229.264 L261.264 229.264 L261.264 218 L261.264 11.264 L261.264 11.264 Z " />
<glyph glyph-name="comma" unicode="&#x2c;" horiz-adv-x="249" d="M50 -11.264 L38.736 -11.264 L38.736 0 L38.736 150 L38.736 161.264 L50 161.264 L200 161.264 L211.264 161.264 L211.264 150 L211.264 0 C211.264 -49.8534 198.193 -88.4984 172.891 -110.5 C147.894 -132.237 105.439 -143.264 50 -143.264 L38.736 -143.264 L38.736 -132 L38.736 -60 L38.736 -48.736 L50 -48.736 C69.6572 -48.736 80.693 -45.3773 88.0351 -38.0351 C93.8392 -32.2311 97.1539 -24.1188 98.288 -11.264 L50 -11.264 L50 -11.264 Z M61.264 11.264 L110 11.264 L121.264 11.264 L121.264 0 C121.264 -23.0095 115.289 -42.6403 103.965 -53.9649 C94.5388 -63.3909 79.3579 -69.1102 61.264 -70.763 L61.264 -120.591 C107.55 -119.371 138.645 -110.425 158.109 -93.5001 C178.807 -75.5016 188.736 -46.1466 188.736 0 L188.736 138.736 L61.264 138.736 L61.264 11.264 L61.264 11.264 Z " />
<glyph glyph-name="hyphen" unicode="&#x2d;" horiz-adv-x="389" d="M351.264 206 L351.264 194.736 L340 194.736 L50 194.736 L38.736 194.736 L38.736 206 L38.736 320 L38.736 331.264 L50 331.264 L340 331.264 L351.264 331.264 L351.264 320 L351.264 206 L351.264 206 Z M328.736 217.264 L328.736 308.736 L61.264 308.736 L61.264 217.264 L328.736 217.264 L328.736 217.264 Z " />
<glyph glyph-name="period" unicode="&#x2e;" horiz-adv-x="249" d="M211.264 0 L211.264 -11.264 L200 -11.264 L50 -11.264 L38.736 -11.264 L38.736 0 L38.736 150 L38.736 161.264 L50 161.264 L200 161.264 L211.264 161.264 L211.264 150 L211.264 0 L211.264 0 Z M188.736 11.264 L188.736 138.736 L61.264 138.736 L61.264 11.264 L188.736 11.264 L188.736 11.264 Z " />
<glyph glyph-name="slash" unicode="&#x2f;" horiz-adv-x="339" d="M70.5526 -3.93963 L67.8182 -11.264 L60 -11.264 L0 -11.264 L-16.2286 -11.264 L-10.5526 3.93963 L269.447 753.94 L272.182 761.264 L280 761.264 L340 761.264 L356.229 761.264 L350.553 746.06 L70.5526 -3.93963 L70.5526 -3.93963 Z M52.182 11.264 L323.771 738.736 L287.818 738.736 L16.229 11.264 L52.182 11.264 L52.182 11.264 Z " />
<glyph glyph-name="zero" unicode="0" horiz-adv-x="724" d="M33.736 375 C33.736 436.391 40.9426 492.157 55.1925 540.674 C69.4863 589.341 91.0106 631.69 118.782 665.633 C146.61 699.645 181.525 726.407 221.392 744.279 C261.23 762.137 307.568 771.264 358 771.264 C408.436 771.264 454.625 762.132 494.141 744.264 C533.669 726.39 568.399 699.634 596.218 665.633 C623.989 631.69 645.514 589.341 659.807 540.674 C674.057 492.157 681.264 436.391 681.264 375 C681.264 245.495 654.076 145.575 600.238 79.3919 C546.105 12.846 463.569 -21.264 358 -21.264 C251.773 -21.264 168.901 12.839 114.762 79.3919 C60.9239 145.575 33.736 245.495 33.736 375 L33.736 375 Z M56.264 375 C56.264 248.505 81.4094 156.092 132.238 93.6081 C182.766 31.4943 256.227 1.264 358 1.264 C459.097 1.264 532.229 31.4873 582.762 93.6081 C633.591 156.092 658.736 248.505 658.736 375 C658.736 434.942 651.943 487.51 638.193 534.326 C624.486 580.992 605.011 619.31 578.782 651.367 C552.601 683.366 521.998 706.943 484.859 723.736 C447.708 740.535 406.23 748.736 358 748.736 C309.765 748.736 268.103 740.53 230.608 723.721 C193.142 706.926 162.39 683.355 136.218 651.367 C109.989 619.31 90.5137 580.992 76.8075 534.326 C63.0574 487.51 56.264 434.942 56.264 375 L56.264 375 Z M358 134.264 C405.752 134.264 438.753 152.566 462.868 192.34 C487.522 233.002 499.736 292.805 499.736 375 C499.736 453.788 486.9 512.737 460.899 555.109 C435.372 596.709 402.94 615.736 358 615.736 C312.37 615.736 279.616 596.689 254.101 555.109 C228.1 512.737 215.264 453.788 215.264 375 C215.264 292.805 227.478 233.002 252.132 192.34 C276.235 152.585 309.559 134.264 358 134.264 L358 134.264 Z M358 111.736 C303.774 111.736 260.098 135.749 232.868 180.66 C206.188 224.665 192.736 290.528 192.736 375 C192.736 456.212 206.9 521.263 234.899 566.891 C263.384 613.311 306.296 638.264 358 638.264 C409.06 638.264 451.628 613.291 480.101 566.891 C508.1 521.263 522.264 456.212 522.264 375 C522.264 290.528 508.812 224.665 482.132 180.66 C454.914 135.768 411.581 111.736 358 111.736 L358 111.736 Z " />
<glyph glyph-name="one" unicode="1" horiz-adv-x="461" d="M373.264 3.25 L373.264 0 L373.264 -11.264 L362 -11.264 L285 -11.264 L208 -11.264 L196.736 -11.264 L196.736 0 L196.736 5 L196.736 500.56 L57.3171 381.436 L38.736 365.56 L38.736 390 L38.736 589 L38.736 594.255 L42.7625 597.631 L234.762 758.631 L237.902 761.264 L242 761.264 L362 761.264 L373.264 761.264 L373.264 750 L373.264 3.25 L373.264 3.25 Z M350.736 11.264 L350.736 738.736 L246.098 738.736 L61.264 583.745 L61.264 414.44 L200.683 533.564 L219.264 549.44 L219.264 525 L219.264 11.264 L285 11.264 L350.736 11.264 L350.736 11.264 Z " />
<glyph glyph-name="two" unicode="2" horiz-adv-x="629" d="M210 -11.264 L35 -11.264 L23.736 -11.264 L23.736 0 C23.736 48.4166 26.8109 89.9275 32.9177 123.515 C39.0717 157.362 49.375 187.206 63.2551 211.149 C77.1075 235.045 95.4556 256.451 116.929 273.768 C138.124 290.861 164.502 307.177 194.968 322.078 C228.628 339.242 258.801 357.022 286.123 375.785 C313.439 394.544 336.541 413.122 356.171 432.099 C375.654 450.932 389.962 468.817 400.178 487.014 C410.248 504.951 414.736 519.678 414.736 534 C414.736 562.355 406.158 582.37 387.092 599.015 C367.826 615.834 343.547 623.736 310 623.736 C275.043 623.736 249.278 615.73 228.647 598.794 C208.309 582.098 199.264 562.523 199.264 535 C199.264 524.95 201.771 514.088 207.425 500.265 C213.163 486.24 220.149 473.786 229.068 461.682 L236.961 450.97 L225.093 444.953 L81.0932 371.953 L72.7649 367.731 L67.0719 375.132 C53.0153 393.406 41.2894 417.94 32.704 446.787 C24.1401 475.562 19.736 505.51 19.736 535 C19.736 570.204 26.9395 603.52 40.8529 632.39 C54.7232 661.171 74.9139 686.77 99.8606 707.212 C124.745 727.604 155.476 743.769 190.098 754.738 C224.649 765.685 263.529 771.264 305 771.264 C347.204 771.264 386.565 765.141 421.188 753.143 C455.825 741.14 486.552 723.734 511.417 701.977 C536.372 680.142 556.344 652.613 569.835 621.479 C583.317 590.366 590.264 555.099 590.264 518 C590.264 494.917 585.538 470.559 576.521 446.977 C567.571 423.57 554.825 400.555 539.046 379.288 C523.292 358.054 503.698 337.586 481.211 318.847 C458.696 300.084 432.915 283.531 405.021 269.917 C364.752 249.448 332.106 229.793 306.24 210.475 C286.27 195.561 270.561 178.826 258.24 159.264 L589 159.264 L594 159.264 L605.264 159.264 L605.264 148 L605.264 74 L605.264 0 L605.264 -11.264 L594 -11.264 L210 -11.264 L210 -11.264 Z M210 11.264 L582.736 11.264 L582.736 74 L582.736 136.736 L239 136.736 L220.774 136.736 L228.925 153.037 C243.529 182.245 265.398 208.09 292.76 228.525 C319.543 248.527 353.87 269.192 394.897 290.042 L394.979 290.083 L395.062 290.124 C421.803 303.168 445.327 318.268 466.789 336.153 C488.302 354.081 506.041 372.612 520.954 392.712 C535.842 412.778 547.095 433.097 555.479 455.023 C563.796 476.774 567.736 497.083 567.736 518 C567.736 552.901 561.683 583.634 549.165 612.521 C536.656 641.387 519.628 664.858 496.583 685.023 C473.448 705.266 446.508 720.526 413.812 731.857 C381.102 743.192 345.462 748.736 305 748.736 C265.137 748.736 229.685 743.649 196.902 733.262 C164.19 722.898 137.255 708.73 114.139 689.788 C91.0861 670.897 73.9434 649.162 61.1471 622.61 C48.3939 596.147 42.264 567.796 42.264 535 C42.264 507.157 46.1932 480.438 54.296 453.213 C61.1856 430.064 69.4266 411.534 79.521 396.414 L203.443 459.235 C196.879 469.517 191.166 480.511 186.575 491.735 C180.229 507.246 176.736 522.384 176.736 535 C176.736 567.477 190.024 596.235 214.353 616.206 C238.388 635.937 271.624 646.264 310 646.264 C347.12 646.264 379.174 635.832 401.908 615.985 C424.842 595.964 437.264 566.979 437.264 534 C437.264 516.322 431.086 496.049 419.822 475.986 C408.704 456.183 392.346 435.735 371.829 415.901 C351.459 396.211 326.894 376.456 298.877 357.215 C270.888 337.994 239.422 319.454 205.116 301.965 L205.032 301.922 L204.947 301.881 C175.449 287.459 151.19 272.457 131.071 256.232 C111.211 240.216 95.5592 221.955 82.7449 199.851 C69.9583 177.794 60.9283 151.638 55.0823 119.485 C49.6605 89.6652 46.7508 53.8557 46.32 11.264 L210 11.264 L210 11.264 Z " />
<glyph glyph-name="three" unicode="3" horiz-adv-x="624" d="M27.736 245 L27.736 256.264 L39 256.264 L198 256.264 L209.264 256.264 L209.264 245 C209.264 213.709 217.69 191.24 235.965 172.965 C254.223 154.707 277.019 146.264 309 146.264 C339.413 146.264 361.32 152.564 378.617 165.916 C395.577 179.009 402.736 193.326 402.736 214 C402.736 249.87 392.602 275.705 370.769 296.308 C348.831 317.01 321.396 326.736 284 326.736 L224 326.736 L212.736 326.736 L212.736 338 L212.736 397 L212.736 421 L212.736 456 L212.736 467.264 L224 467.264 L304 467.264 C332.711 467.264 353.309 474.64 370.257 490.681 C387.096 506.618 394.736 526.127 394.736 554 C394.736 573.076 387.628 585.847 370.179 597.677 C352.128 609.914 329.57 615.736 299 615.736 C275.088 615.736 258.497 609.365 244.548 595.119 C230.552 580.826 224.264 563.968 224.264 540 L224.264 528.736 L213 528.736 L60 528.736 L48.736 528.736 L48.736 540 C48.736 574.412 55.007 606.842 67.16 634.968 C79.3075 663.081 97.2423 688.081 119.508 707.912 C141.701 727.677 169.256 743.601 200.226 754.613 C231.2 765.626 266.438 771.264 304 771.264 C341.455 771.264 376.325 766.358 406.88 756.745 C437.472 747.12 464.819 733 487.02 715.309 C509.309 697.547 527.377 675.282 539.603 650.48 C551.874 625.589 558.264 596.558 558.264 566 C558.264 530.418 548.543 496.487 529.994 467.438 C515.25 444.348 495.465 424.719 471.848 409.601 C504.718 391.227 532.235 365.85 552.886 334.728 C577.484 297.657 590.264 254.638 590.264 209 C590.264 175.12 583.224 142.807 569.649 114.614 C556.107 86.4888 536.24 61.384 511.626 41.2767 C487.072 21.2187 456.83 5.38578 422.866 -5.24933 C388.982 -15.8595 350.453 -21.264 309 -21.264 C267.397 -21.264 228.571 -14.7638 194.557 -2.05119 C160.544 10.6606 130.289 29.1698 105.769 52.3077 C81.2185 75.4753 61.5423 104.274 48.0959 136.683 C34.6455 169.102 27.736 205.953 27.736 245 L27.736 245 Z M50.458 233.736 C51.5856 201.388 57.6454 172.453 68.9041 145.317 C81.4577 115.059 98.4481 90.1914 121.231 68.6923 C144.045 47.1635 170.456 31.0061 202.443 19.0512 C234.429 7.09715 269.27 1.264 309 1.264 C348.881 1.264 384.018 6.19279 416.134 16.2493 C448.17 26.2809 474.594 40.1146 497.374 58.7233 C520.093 77.2827 536.893 98.5112 549.351 124.386 C561.776 150.193 567.736 177.546 567.736 209 C567.736 251.362 556.849 288.01 534.114 322.272 C511.34 356.594 481.943 381.374 443.378 398.728 L421.742 408.464 L442.963 419.075 C472.295 433.741 494.18 453.211 511.006 479.562 C527.79 505.846 535.736 533.582 535.736 566 C535.736 594.108 530.46 618.078 519.397 640.52 C508.29 663.051 493.357 681.453 472.98 697.691 C452.514 714 428.861 726.213 400.12 735.255 C371.342 744.309 339.878 748.736 304 748.736 C268.229 748.736 236.8 743.707 207.774 733.387 C178.744 723.065 154.966 709.323 134.492 691.088 C114.091 672.919 99.0258 651.919 87.84 626.032 C77.9818 603.217 72.621 578.825 71.491 551.264 L202.253 551.264 C204.434 574.733 213.472 595.582 228.452 610.881 C245.836 628.635 270.912 638.264 299 638.264 C332.43 638.264 361.538 630.752 382.821 616.323 C404.706 601.486 417.264 578.924 417.264 554 C417.264 521.873 406.237 493.716 385.743 474.319 C365.358 455.026 336.623 444.736 304 444.736 L235.264 444.736 L235.264 421 L235.264 397 L235.264 349.264 L284 349.264 C325.271 349.264 360.836 336.656 386.231 312.692 C411.732 288.628 425.264 254.13 425.264 214 C425.264 188.008 413.423 164.325 392.383 148.084 C371.68 132.103 342.587 123.736 309 123.736 C272.981 123.736 241.777 135.293 220.035 157.035 C200.649 176.421 189.346 203.084 187.137 233.736 L50.458 233.736 L50.458 233.736 Z " />
<glyph glyph-name="four" unicode="4" horiz-adv-x="619" d="M25.0828 183.736 L13.736 183.653 L13.736 195 L13.736 322 L13.736 325.92 L16.1702 328.994 L355.17 756.994 L358.552 761.264 L364 761.264 L484 761.264 L495.264 761.264 L495.264 750 L495.264 721.626 L507.579 716.7 L497.653 704.789 L495.264 701.922 L495.264 352.264 L600 352.264 L611.264 352.264 L611.264 341 L611.264 196 L611.264 184.736 L600 184.736 L495.264 184.736 L495.264 5 L495.264 0 L495.264 -11.264 L484 -11.264 L407 -11.264 L330 -11.264 L318.736 -11.264 L318.736 0 L318.736 5 L318.736 184.736 L161.083 184.736 L161 184.736 L25.0828 183.736 L25.0828 183.736 Z M36.264 206.347 L160.917 207.264 L160.959 207.264 L161 207.264 L330 207.264 L341.264 207.264 L341.264 196 L341.264 11.264 L407 11.264 L472.736 11.264 L472.736 196 L472.736 207.264 L484 207.264 L588.736 207.264 L588.736 329.736 L484 329.736 L472.736 329.736 L472.736 341 L472.736 706 L472.736 706.374 L472.736 710.078 L472.736 714 L472.736 738.736 L369.448 738.736 L36.264 318.08 L36.264 206.347 L36.264 206.347 Z M318.736 481.997 L214.5 352.264 L318.736 352.264 L318.736 481.997 L318.736 481.997 Z M321.219 521.055 L341.264 546.003 L341.264 514 L341.264 341 L341.264 329.736 L330 329.736 L191 329.736 L167.5 329.736 L182.219 348.055 L321.219 521.055 L321.219 521.055 Z " />
<glyph glyph-name="five" unicode="5" horiz-adv-x="620" d="M223.318 308.405 L218.88 303.544 L212.467 305.024 L56.4672 341.024 L46.4819 343.329 L47.8346 353.487 L100.835 751.487 L102.137 761.264 L112 761.264 L539 761.264 L551.051 761.264 L550.238 749.241 L545.238 675.241 L540.238 601.241 L539.529 590.736 L529 590.736 L524 590.736 L523.779 590.736 L523.559 590.745 L278.313 600.362 L258.605 493.15 C282.322 500.494 307.476 504.264 333 504.264 C371.351 504.264 407.331 497.706 438.743 484.934 C470.172 472.156 498.015 453.294 520.202 429.72 C542.329 406.21 560.157 377.151 572.533 344.491 C584.92 311.804 591.264 274.621 591.264 235 C591.264 197.245 584.322 161.644 570.835 130.521 C557.367 99.4411 537.658 71.6689 513.106 49.1918 C488.566 26.7252 458.277 8.90817 424.254 -3.11986 C390.281 -15.1306 351.553 -21.264 310 -21.264 C268.397 -21.264 229.571 -14.7638 195.557 -2.05119 C161.544 10.6606 131.289 29.1698 106.769 52.3077 C82.2185 75.4753 62.5423 104.274 49.0959 136.683 C35.6455 169.102 28.736 205.953 28.736 245 L28.736 256.264 L40 256.264 L199 256.264 L210.264 256.264 L210.264 245 C210.264 213.709 218.69 191.24 236.965 172.965 C255.223 154.707 278.019 146.264 310 146.264 C340.037 146.264 361.417 153.95 378.679 170.606 C395.914 187.236 403.736 207.134 403.736 235 C403.736 273.262 394.763 301.651 375.856 324.277 C357.173 346.637 334.899 356.736 304 356.736 C293.161 356.736 281.536 352.861 266.237 343.806 C250.656 334.585 236.78 323.149 223.318 308.405 L223.318 308.405 Z M211.226 328.431 C224.611 342.271 239.434 354.121 254.763 363.194 C272.131 373.472 289.505 379.264 304 379.264 C339.768 379.264 371.161 365.03 393.144 338.723 C414.903 312.682 426.264 276.738 426.264 235 C426.264 202.866 415.086 174.43 394.321 154.394 C373.583 134.384 343.963 123.736 310 123.736 C273.981 123.736 242.777 135.293 221.035 157.035 C201.649 176.421 190.346 203.084 188.137 233.736 L51.458 233.736 C52.5856 201.388 58.6454 172.453 69.9041 145.317 C82.4577 115.059 99.4481 90.1914 122.231 68.6923 C145.045 47.1635 171.456 31.0061 203.443 19.0512 C235.429 7.09715 270.27 1.264 310 1.264 C349.78 1.264 384.719 6.79723 416.746 18.1199 C448.723 29.4252 475.101 44.9415 497.894 65.8082 C520.675 86.6644 537.633 110.559 550.165 139.479 C562.678 168.356 568.736 199.421 568.736 235 C568.736 272.713 563.08 305.863 551.467 336.509 C539.843 367.182 524.338 392.456 503.798 414.28 C483.318 436.04 459.495 452.178 430.257 464.066 C401.002 475.961 369.315 481.736 333 481.736 C302.733 481.736 275.2 476.477 248.226 465.559 L229.213 457.863 L232.922 478.036 L257.922 614.036 L259.687 623.638 L269.441 623.255 L518.487 613.489 L522.762 676.759 L526.949 738.736 L121.863 738.736 L71.518 360.671 L211.226 328.431 L211.226 328.431 Z " />
<glyph glyph-name="six" unicode="6" horiz-adv-x="629" d="M588.69 644.742 L594.168 635.5 L585.194 629.592 L465.194 550.592 L455.427 544.162 L449.367 554.162 C436.725 575.021 421.114 590.781 400.597 603.407 C380.161 615.983 361.319 621.736 341 621.736 C320.617 621.736 304.535 617.022 289.334 606.685 C273.888 596.183 261.849 582.257 251.443 562.708 C240.887 542.875 233.086 519.472 227.56 490.864 C225.308 479.209 223.52 467.144 222.188 454.597 C230.173 465.558 239.682 475.396 250.577 483.885 C277.777 505.08 311.515 516.264 348 516.264 C387.647 516.264 424.88 509.735 457.588 496.996 C490.35 484.236 519.378 465.242 542.581 441.347 C565.724 417.513 584.265 388.275 596.996 355.588 C609.738 322.871 616.264 285.304 616.264 245 C616.264 205.953 609.354 169.102 595.904 136.683 C582.448 104.252 562.575 75.4261 537.673 52.254 C512.812 29.119 482.05 10.6261 447.375 -2.07663 C412.71 -14.7756 373.253 -21.264 331 -21.264 C235.248 -21.264 160.054 12.5911 110.977 78.2568 C62.2912 143.4 37.736 241.275 37.736 368 C37.736 427.314 44.064 482.213 56.5857 531.285 C69.153 580.535 88.3262 623.762 113.31 659.013 C138.425 694.45 170.99 722.744 208.89 742.038 C246.838 761.357 291.773 771.264 341 771.264 C366.358 771.264 392.063 768.095 416.732 761.928 C441.309 755.783 464.801 747.193 486.037 736.575 C507.352 725.918 527.399 712.435 544.953 696.946 C562.588 681.386 577.555 663.533 588.69 644.742 L588.69 644.742 Z M563.572 642.329 C554.436 655.879 543.476 668.205 530.047 680.054 C513.601 694.565 495.981 706.416 475.963 716.425 C455.866 726.473 434.691 734.217 411.268 740.072 C387.937 745.905 364.975 748.736 341 748.736 C294.227 748.736 254.496 739.976 219.11 721.962 C183.677 703.923 155.242 679.217 131.69 645.987 C108.007 612.571 90.5136 573.131 78.4143 525.715 C66.2693 478.12 60.264 426.02 60.264 368 C60.264 244.058 83.0421 153.266 129.023 91.7432 C174.613 30.7422 240.085 1.264 331 1.264 C371.413 1.264 406.957 7.10892 439.625 19.0766 C472.284 31.0405 499.188 47.2143 522.327 68.746 C545.425 90.2406 562.552 115.081 575.096 145.317 C587.646 175.564 593.736 208.047 593.736 245 C593.736 283.362 587.928 316.795 576.004 347.412 C564.068 378.059 547.943 403.487 526.419 425.653 C504.955 447.758 479.983 464.097 449.412 476.004 C418.787 487.932 385.687 493.736 348 493.736 C315.152 493.736 288.556 484.92 264.423 466.115 C240.324 447.336 225.902 424.319 218.99 393.533 L206.654 338.58 L196.736 339.68 L196.736 396 C196.736 431.826 199.663 465.231 205.44 495.136 C211.247 525.195 220.113 551.792 231.557 573.292 C243.151 595.076 258.778 613.151 276.666 625.315 C294.798 637.644 317.383 644.264 341 644.264 C364.681 644.264 389.506 636.684 412.403 622.593 C431.93 610.577 448.947 594.508 462.239 575.618 L563.572 642.329 L563.572 642.329 Z M235.013 240.394 C253.647 166.784 283.982 134.264 331 134.264 C362.057 134.264 384.084 143.546 402.046 163.944 C420.203 184.563 428.736 210.161 428.736 245 C428.736 281.013 419.059 307.588 398.363 329.211 C377.733 350.765 352.52 360.736 318 360.736 C284.493 360.736 263.034 350.749 247.775 328.608 C232.304 306.16 228.11 278.365 235.013 240.394 L235.013 240.394 Z M213.078 235.246 L212.987 235.605 L212.921 235.969 C205.249 277.812 210.745 314.578 229.225 341.392 C247.966 368.584 279.507 383.264 318 383.264 C356.813 383.264 390.6 369.902 414.637 344.789 C438.608 319.745 451.264 284.987 451.264 245 C451.264 206.505 440.13 173.104 418.954 149.056 C397.583 124.788 366.61 111.736 331 111.736 C274.095 111.736 233.118 155.777 213.078 235.246 L213.078 235.246 Z " />
<glyph glyph-name="seven" unicode="7" horiz-adv-x="514" d="M18.736 676 L18.736 750 L18.736 761.264 L30 761.264 L505 761.264 L516.264 761.264 L516.264 750 L516.264 602 L516.264 595.089 L510.103 591.958 C470.359 571.76 437.206 546.38 408.924 514.522 C380.656 482.681 358.022 444.107 340.023 396.981 C321.961 349.693 308.935 294.006 300.675 228.589 C292.392 162.988 288.264 87.0275 288.264 0 L288.264 -11.264 L277 -11.264 L106 -11.264 L94.736 -11.264 L94.736 0 C94.736 86.3354 99.2821 162.609 108.342 228.045 C117.425 293.645 131.924 351.64 151.542 400.683 C171.229 449.902 197.3 492.485 228.71 526.626 C250.91 550.756 276.906 572.27 306.1 590.736 L35 590.736 L30 590.736 L18.736 590.736 L18.736 602 L18.736 676 L18.736 676 Z M41.264 676 L41.264 613.264 L349 613.264 L396.715 613.264 L354.037 591.925 C310.917 570.365 275.232 543.92 245.29 511.374 C215.366 478.849 191.438 439.765 172.458 392.317 C153.409 344.693 139.575 289.355 130.658 224.955 C122.112 163.237 117.665 92.2324 117.29 11.264 L265.759 11.264 C266.105 94.2822 270.302 167.872 278.325 231.411 C286.732 297.994 300.372 356.307 318.977 405.019 C337.645 453.893 362.344 495.986 392.076 529.478 C420.318 561.29 454.696 588.115 493.736 608.841 L493.736 738.736 L41.264 738.736 L41.264 676 L41.264 676 Z " />
<glyph glyph-name="eight" unicode="8" horiz-adv-x="653" d="M69.736 565 C69.736 598.154 76.0821 628.797 88.3431 654.37 C100.584 679.9 118.76 702.3 141.152 719.444 C163.396 736.474 190.827 749.741 221.454 758.344 C251.929 766.905 286.629 771.264 324 771.264 C406.938 771.264 472.168 752.298 515.359 715.028 C558.626 677.693 581.264 626.026 581.264 565 C581.264 522.861 571.406 485.803 552.372 457.252 C537.616 435.118 517.473 416.349 493.18 401.909 C529.411 384.181 557.833 359.596 576.567 329.445 C598.801 293.663 610.264 249.78 610.264 201 C610.264 163.815 603.051 129.916 589.075 101.963 C575.134 74.0813 554.704 50.0027 529.595 31.8685 C504.648 13.8511 473.838 0.138247 439.206 -8.43402 C404.817 -16.9462 365.957 -21.264 324 -21.264 C275.957 -21.264 233.487 -15.8903 198.254 -5.28607 C162.982 5.32981 132.524 20.6475 108.916 39.7421 C85.1671 58.9511 66.7945 83.3867 55.5789 110.725 C44.4672 137.809 38.736 168.973 38.736 202 C38.736 255.524 51.3387 301.253 75.8341 335.547 C95.8449 363.562 123.289 386.111 156.543 402.077 C130.221 417.705 109.479 437.824 95.7704 461.324 C78.6283 490.711 69.736 526.28 69.736 565 L69.736 565 Z M92.264 565 C92.264 529.053 99.7051 499.289 115.23 472.676 C130.597 446.332 153.76 426.606 187.646 411.261 L212.779 399.88 L186.863 390.419 C146.373 375.637 116.453 353.655 94.1659 322.453 C71.9946 291.413 61.264 252.476 61.264 202 C61.264 171.027 66.1995 144.191 76.4211 119.275 C86.5388 94.6133 101.5 74.7155 123.084 57.2579 C144.809 39.6858 171.352 26.3369 204.746 16.2861 C238.18 6.22359 277.376 1.264 324 1.264 C364.709 1.264 400.85 5.27956 433.794 13.434 C466.495 21.5284 493.352 33.4823 516.405 50.1315 C539.296 66.6639 556.199 86.5854 568.925 112.037 C581.615 137.418 587.736 166.185 587.736 201 C587.736 246.886 577.866 284.67 557.433 317.555 C537.167 350.17 506.752 373.741 462.977 390.479 L437.642 400.166 L462.386 411.276 C493.677 425.325 516.555 444.139 533.628 469.748 C550.594 495.197 558.736 525.806 558.736 565 C558.736 621.307 540.041 663.974 500.641 697.972 C461.166 732.036 403.729 748.736 324 748.736 C288.038 748.736 256.404 744.762 227.546 736.656 C198.84 728.592 175.27 717.192 154.848 701.556 C134.573 686.034 119.75 667.767 108.657 644.63 C97.5845 621.536 92.264 595.846 92.264 565 L92.264 565 Z M324 483.264 C354.578 483.264 376.564 488.905 393.563 500.743 C409.695 511.978 416.736 527.443 416.736 553 C416.736 572.408 410.331 585.587 395.026 597.655 C379.535 609.869 357.211 615.736 324 615.736 C294.72 615.736 273.268 610.373 256.209 599.102 C240.041 588.419 233.264 574.986 233.264 553 C233.264 530.579 239.591 515.343 254.026 502.381 C268.418 489.457 290.234 483.264 324 483.264 L324 483.264 Z M324 460.736 C287.099 460.736 257.248 469.21 238.974 485.619 C220.742 501.99 210.736 526.088 210.736 553 C210.736 580.347 222.626 603.914 243.791 617.898 C264.065 631.294 291.947 638.264 324 638.264 C360.122 638.264 389.799 630.464 408.974 615.345 C428.335 600.08 439.264 577.592 439.264 553 C439.264 522.557 427.638 497.022 406.437 482.257 C386.102 468.095 357.422 460.736 324 460.736 L324 460.736 Z M324 134.264 C355.779 134.264 378.925 140.774 397.242 154.511 C414.82 167.695 422.736 186.297 422.736 216 C422.736 248.215 415.163 271.507 398.997 290.112 C383.238 308.251 360.007 316.736 324 316.736 C292.516 316.736 269.806 309.071 251.535 292.628 C233.699 276.575 225.264 252.112 225.264 214 C225.264 188.162 232.353 170.373 248.147 155.771 C263.873 141.231 287.618 134.264 324 134.264 L324 134.264 Z M324 111.736 C284.382 111.736 252.46 121.102 232.853 139.229 C213.314 157.294 202.736 183.838 202.736 214 C202.736 255.888 214.301 289.425 236.465 309.372 C258.194 328.929 288.817 339.264 324 339.264 C363.993 339.264 396.429 327.416 416.003 304.888 C435.171 282.827 445.264 251.785 445.264 216 C445.264 181.703 433.18 153.305 410.758 136.489 C389.075 120.226 358.887 111.736 324 111.736 L324 111.736 Z " />
<glyph glyph-name="nine" unicode="9" horiz-adv-x="629" d="M66.3097 105.258 L60.8115 114.536 L69.8421 120.432 L190.842 199.432 L200.596 205.8 L206.633 195.838 C219.289 174.956 234.771 159.176 254.97 146.552 C275.033 134.012 294.003 128.264 315 128.264 C335.37 128.264 351.235 132.954 366.079 143.254 C381.215 153.757 393.135 167.713 403.557 187.292 C414.113 207.125 421.914 230.528 427.44 259.136 C429.674 270.698 431.453 282.664 432.781 295.104 C424.935 284.284 415.624 274.563 404.98 266.159 C378.084 244.926 344.142 233.736 307 233.736 C267.349 233.736 230.262 240.27 197.874 253.019 C165.466 265.775 136.49 284.735 112.977 308.593 C89.4718 332.445 70.7271 361.901 57.9896 394.949 C45.2599 427.978 38.736 465.358 38.736 505 C38.736 544.073 45.832 580.973 59.6354 613.41 C73.4234 645.812 93.4428 674.59 118.327 697.746 C143.188 720.881 173.95 739.374 208.625 752.077 C243.282 764.773 282.405 771.264 324 771.264 C419.752 771.264 494.946 737.409 544.023 671.743 C592.709 606.6 617.264 508.725 617.264 382 C617.264 322.686 610.936 267.787 598.414 218.715 C585.847 169.465 566.674 126.238 541.69 90.9867 C516.584 55.5631 484.206 27.2773 446.647 7.98093 C409.021 -11.3502 364.232 -21.264 315 -21.264 C289.642 -21.264 263.937 -18.095 239.268 -11.9277 C214.704 -5.7866 191.079 2.7884 169.527 13.3933 C147.865 24.0521 127.618 37.5501 110.047 53.0538 C92.4124 68.6142 77.4447 86.4673 66.3097 105.258 L66.3097 105.258 Z M91.451 107.636 C100.582 94.0993 111.535 81.7849 124.953 69.9462 C141.382 55.4499 159.135 43.6145 179.473 33.6067 C199.921 23.5449 221.296 15.7866 244.732 9.92769 C268.063 4.09496 291.025 1.264 315 1.264 C361.768 1.264 401.313 10.0169 436.353 28.0191 C471.46 46.056 499.749 70.7702 523.31 104.013 C546.993 137.429 564.486 176.869 576.586 224.285 C588.731 271.88 594.736 323.98 594.736 382 C594.736 505.942 571.958 596.734 525.977 658.257 C480.387 719.258 414.915 748.736 324 748.736 C284.261 748.736 249.051 742.894 216.375 730.923 C183.716 718.959 156.812 702.786 133.673 681.254 C110.557 659.743 93.2432 634.854 80.3646 604.59 C67.5013 574.361 61.264 541.927 61.264 505 C61.264 467.309 67.0734 434.022 79.0104 403.051 C90.9396 372.099 107.195 346.555 129.023 324.407 C150.843 302.265 175.867 285.891 206.126 273.981 C236.404 262.063 269.318 256.264 307 256.264 C340.525 256.264 367.249 265.074 391.02 283.841 C414.803 302.616 429.093 325.655 436.01 356.467 L448.346 411.42 L458.264 410.32 L458.264 354 C458.264 318.174 455.337 284.769 449.56 254.864 C443.753 224.805 434.887 198.208 423.443 176.708 C411.865 154.954 396.452 136.91 378.921 124.746 C361.099 112.379 338.63 105.736 315 105.736 C290.664 105.736 265.633 113.321 243.03 127.448 C223.795 139.47 206.965 155.532 193.729 174.412 L91.451 107.636 L91.451 107.636 Z M421.906 503 C404.524 581.153 373.534 615.736 324 615.736 C293.623 615.736 271.713 606.445 253.391 585.986 C234.928 565.369 226.264 539.809 226.264 505 C226.264 468.987 235.941 442.412 256.637 420.789 C277.251 399.251 302.791 389.264 338 389.264 C369.56 389.264 390.359 398.718 405.958 419.717 C421.706 440.916 426.874 467.096 421.906 503 L421.906 503 Z M443.998 507.434 L444.093 507.003 L444.155 506.566 C449.751 466.693 442.898 431.665 424.042 406.283 C404.975 380.616 374.44 366.736 338 366.736 C298.543 366.736 264.415 380.082 240.363 405.211 C216.392 430.255 203.736 465.013 203.736 505 C203.736 543.524 215.072 576.965 236.609 601.014 C258.287 625.222 289.044 638.264 324 638.264 C383.708 638.264 425.362 591.642 443.998 507.434 L443.998 507.434 Z " />
<glyph glyph-name="colon" unicode="&#x3a;" horiz-adv-x="249" d="M211.264 370 L211.264 358.736 L200 358.736 L50 358.736 L38.736 358.736 L38.736 370 L38.736 520 L38.736 531.264 L50 531.264 L200 531.264 L211.264 531.264 L211.264 520 L211.264 370 L211.264 370 Z M188.736 381.264 L188.736 508.736 L61.264 508.736 L61.264 381.264 L188.736 381.264 L188.736 381.264 Z M211.264 0 L211.264 -11.264 L200 -11.264 L50 -11.264 L38.736 -11.264 L38.736 0 L38.736 150 L38.736 161.264 L50 161.264 L200 161.264 L211.264 161.264 L211.264 150 L211.264 0 L211.264 0 Z M188.736 11.264 L188.736 138.736 L61.264 138.736 L61.264 11.264 L188.736 11.264 L188.736 11.264 Z " />
<glyph glyph-name="semicolon" unicode="&#x3b;" horiz-adv-x="249" d="M211.264 370 L211.264 358.736 L200 358.736 L50 358.736 L38.736 358.736 L38.736 370 L38.736 520 L38.736 531.264 L50 531.264 L200 531.264 L211.264 531.264 L211.264 520 L211.264 370 L211.264 370 Z M188.736 381.264 L188.736 508.736 L61.264 508.736 L61.264 381.264 L188.736 381.264 L188.736 381.264 Z M50 -11.264 L38.736 -11.264 L38.736 0 L38.736 150 L38.736 161.264 L50 161.264 L200 161.264 L211.264 161.264 L211.264 150 L211.264 0 C211.264 -49.8534 198.193 -88.4984 172.891 -110.5 C147.894 -132.237 105.439 -143.264 50 -143.264 L38.736 -143.264 L38.736 -132 L38.736 -60 L38.736 -48.736 L50 -48.736 C69.6572 -48.736 80.693 -45.3773 88.0351 -38.0351 C93.8392 -32.2311 97.1539 -24.1188 98.288 -11.264 L50 -11.264 L50 -11.264 Z M61.264 11.264 L110 11.264 L121.264 11.264 L121.264 0 C121.264 -23.0095 115.289 -42.6403 103.965 -53.9649 C94.5388 -63.3909 79.3579 -69.1102 61.264 -70.763 L61.264 -120.591 C107.55 -119.371 138.645 -110.425 158.109 -93.5001 C178.807 -75.5016 188.736 -46.1466 188.736 0 L188.736 138.736 L61.264 138.736 L61.264 11.264 L61.264 11.264 Z " />
<glyph glyph-name="less" unicode="&#x3c;" horiz-adv-x="610" d="M33.736 311 L33.736 318.846 L41.0953 321.566 L547.095 508.566 L562.264 514.171 L562.264 498 L562.264 385 L562.264 376.995 L554.704 374.362 L226.255 260 L554.704 145.638 L562.264 143.005 L562.264 135 L562.264 22 L562.264 5.82862 L547.095 11.4344 L41.0953 198.434 L33.736 201.154 L33.736 209 L33.736 311 L33.736 311 Z M56.264 303.154 L56.264 216.846 L539.736 38.171 L539.736 126.995 L188.296 249.362 L157.745 260 L188.296 270.638 L539.736 393.005 L539.736 481.829 L56.264 303.154 L56.264 303.154 Z " />
<glyph glyph-name="equal" unicode="&#x3d;" horiz-adv-x="628" d="M39 111.736 L27.736 111.736 L27.736 123 L27.736 207 L27.736 218.264 L39 218.264 L579 218.264 L590.264 218.264 L590.264 207 L590.264 123 L590.264 111.736 L579 111.736 L39 111.736 L39 111.736 Z M50.264 134.264 L567.736 134.264 L567.736 195.736 L50.264 195.736 L50.264 134.264 L50.264 134.264 Z M39 311.736 L27.736 311.736 L27.736 323 L27.736 407 L27.736 418.264 L39 418.264 L579 418.264 L590.264 418.264 L590.264 407 L590.264 323 L590.264 311.736 L579 311.736 L39 311.736 L39 311.736 Z M50.264 334.264 L567.736 334.264 L567.736 395.736 L50.264 395.736 L50.264 334.264 L50.264 334.264 Z " />
<glyph glyph-name="greater" unicode="&#x3e;" horiz-adv-x="610" d="M48.736 135 L48.736 143.005 L56.2961 145.638 L384.745 260 L56.2961 374.362 L48.736 376.995 L48.736 385 L48.736 498 L48.736 514.171 L63.9047 508.566 L569.905 321.566 L577.264 318.846 L577.264 311 L577.264 209 L577.264 201.154 L569.905 198.434 L63.9047 11.4344 L48.736 5.82862 L48.736 22 L48.736 135 L48.736 135 Z M71.264 126.995 L71.264 38.171 L554.736 216.846 L554.736 303.154 L71.264 481.829 L71.264 393.005 L422.704 270.638 L453.255 260 L422.704 249.362 L71.264 126.995 L71.264 126.995 Z " />
<glyph glyph-name="question" unicode="&#x3f;" horiz-adv-x="590" d="M357.264 0 L357.264 -11.264 L346 -11.264 L196 -11.264 L184.736 -11.264 L184.736 0 L184.736 150 L184.736 161.264 L196 161.264 L346 161.264 L357.264 161.264 L357.264 150 L357.264 0 L357.264 0 Z M334.736 11.264 L334.736 138.736 L207.264 138.736 L207.264 11.264 L334.736 11.264 L334.736 11.264 Z M153.21 536.901 L152.026 524.819 L140.066 526.903 L8.06647 549.903 L-2.13677 551.681 L-1.21976 561.997 C1.55149 593.174 10.6035 622.684 25.2366 648.117 C39.8369 673.494 60.2493 696.074 84.8444 714.087 C109.344 732.031 139.082 746.369 172.274 756.292 C205.439 766.207 242.23 771.264 281 771.264 C321.097 771.264 358.253 766.205 390.789 756.273 C423.385 746.323 452.572 731.551 476.442 712.87 C500.434 694.094 519.722 670.439 532.628 643.931 C545.546 617.395 552.264 586.892 552.264 555 C552.264 520.42 540.387 486.459 517.998 456.725 C496.003 427.512 459.046 394.524 408.547 358.834 L408.501 358.801 C394.872 349.064 384.519 340.408 376.619 332.193 C368.966 324.234 363.58 316.223 359.32 306.485 C355.032 296.684 352.275 285.656 350.692 271.728 C349.068 257.441 348.264 239.744 348.264 218 L348.264 206.736 L337 206.736 L205 206.736 L193.736 206.736 L193.736 218 C193.736 253.586 195.097 283.876 197.805 308.244 C200.55 332.954 205.935 355.209 213.626 373.389 C221.367 391.686 232.697 408.773 246.435 422.863 C259.866 436.639 277.859 451.316 299.535 466.224 C331.849 489.309 354.286 507.743 367.765 522.186 C380.711 536.056 385.736 545.747 385.736 555 C385.736 581.897 377.149 600.814 357.816 616.825 C338.178 633.087 313.932 640.736 281 640.736 C243.459 640.736 215.072 631.47 191.745 611.875 C168.477 592.33 156.333 568.757 153.21 536.901 L153.21 536.901 Z M132.46 551.096 C138.104 582.191 153.526 609.192 177.255 629.125 C203.928 651.53 239.875 663.264 281 663.264 C317.401 663.264 349.155 653.246 372.184 634.175 C395.517 614.853 408.264 586.77 408.264 555 C408.264 540.253 399.289 522.944 384.235 506.814 C369.726 491.269 345.523 471.388 312.547 447.834 L312.465 447.775 L312.381 447.718 C291.428 433.313 275.117 420.01 262.565 407.137 C250.303 394.561 241.299 380.981 234.374 364.611 C227.399 348.124 222.783 329.046 220.195 305.756 C217.856 284.702 216.565 259.352 216.311 229.264 L325.814 229.264 C326.061 246.709 326.894 261.832 328.308 274.272 C330.059 289.677 333.635 303.982 338.68 315.515 C343.754 327.11 351.367 338.433 360.381 347.807 C369.139 356.916 381.105 366.917 395.453 377.166 L395.476 377.182 L395.499 377.199 C444.977 412.163 479.337 442.83 500.002 470.275 C520.28 497.207 529.736 524.246 529.736 555 C529.736 584.441 524.121 609.938 512.372 634.069 C500.611 658.228 484.566 677.906 462.558 695.13 C440.428 712.449 414.948 725.344 384.211 734.727 C353.414 744.128 319.57 748.736 281 748.736 C243.77 748.736 210.228 744.126 178.726 734.708 C147.252 725.298 120.989 712.636 98.1556 695.913 C75.4174 679.259 58.1631 660.173 44.7634 636.883 C33.0113 616.456 25.7058 594.8 22.371 570.278 L132.46 551.096 L132.46 551.096 Z " />
<glyph glyph-name="at" unicode="&#x40;" horiz-adv-x="1305" d="M1067.69 -104.67 L1076.88 -98.4531 L1083.23 -107.549 L1134.23 -180.549 L1140.65 -189.729 L1131.5 -196.196 C1103.69 -215.866 1071.9 -233.74 1037.09 -249.285 C1002.4 -264.781 965.497 -278.214 927.132 -289.32 C888.773 -300.424 849.215 -309.082 809.185 -315.137 C769.111 -321.199 729.434 -324.264 691 -324.264 C595.422 -324.264 507.486 -309.949 429.165 -281.591 C350.824 -253.226 282.562 -212.578 226.366 -160.783 C170.138 -108.958 125.93 -45.8275 95.1343 26.5921 C64.3293 99.0345 48.736 180.6 48.736 269 C48.736 357.377 63.9786 438.9 94.0996 511.325 C124.217 583.742 167.57 646.88 222.791 698.713 C277.99 750.525 345.268 791.201 422.621 819.575 C499.948 847.94 586.407 862.264 680 862.264 C766.187 862.264 845.673 850.153 916.608 826.171 C987.588 802.173 1049.5 767.604 1100.38 723.512 C1151.31 679.374 1191.43 625.408 1219.27 563.627 C1247.12 501.81 1261.26 432.132 1261.26 357 C1261.26 299.574 1254.04 246.278 1239.79 198.763 C1225.51 151.156 1204.55 109.426 1177.85 75.529 C1151.1 41.5736 1118.17 14.4935 1081.04 -4.07483 C1043.81 -22.6882 1001.25 -32.264 956 -32.264 C915.81 -32.264 879.895 -22.369 851.698 -3.33615 C828.274 12.4753 809.045 34.5166 795.222 61.172 C772.976 36.5537 745.887 16.5838 715.263 2.29275 C679.07 -14.5974 637.152 -23.264 592 -23.264 C549.656 -23.264 510.647 -16.2037 477.206 -2.41335 C443.681 11.4115 414.828 31.9692 392.923 57.6982 C371.053 83.3866 354.902 115.331 345.597 151.17 C336.317 186.917 334.034 227.306 338.805 270.244 C342.929 307.361 354.134 342.4 371.727 373.1 C389.263 403.703 412.51 430.677 440.031 452.349 C467.506 473.986 500.245 491.236 536.468 503.196 C572.702 515.16 612.815 521.264 655 521.264 C691.413 521.264 724.76 514.81 752.622 502.272 C772.477 493.337 790.313 480.032 805.242 463.181 L809.82 500.376 L811.037 510.264 L821 510.264 L947 510.264 L959.7 510.264 L958.183 497.655 L923.183 206.655 L923.183 206.65 L923.182 206.645 C918.037 164.196 922.943 132.83 938.072 108.437 C952.836 84.6337 971.869 74.264 1001 74.264 C1021.09 74.264 1037.54 80.0228 1054.08 92.8913 C1070.98 106.035 1084.95 123.903 1097.45 148.59 C1110.05 173.467 1119.57 202.972 1126.44 238.631 C1133.33 274.392 1136.74 313.49 1136.74 357 C1136.74 415.858 1126.05 467.989 1104.25 515.828 C1082.43 563.705 1052.25 603.734 1012.19 637.933 C972.072 672.178 924.663 698.124 867.975 716.802 C811.223 735.5 749.166 744.736 680 744.736 C602.921 744.736 534.045 733.392 471.376 710.424 C408.734 687.466 356.186 655.648 311.72 613.798 C267.275 571.967 233.627 522.777 209.41 464.197 C185.193 405.62 173.264 341.298 173.264 269 C173.264 197.399 185.507 133.283 210.377 74.3814 C235.249 15.4745 269.7 -33.8791 315.13 -75.714 C360.594 -117.58 414.318 -149.429 478.306 -172.398 C542.326 -195.38 612.571 -206.736 691 -206.736 C725.937 -206.736 760.654 -204.291 795.936 -199.345 C831.268 -194.392 865.262 -187.528 898.591 -178.618 C931.851 -169.727 962.521 -159.017 991.436 -146.202 C1020.35 -133.389 1045.47 -119.701 1067.69 -104.67 L1067.69 -104.67 Z M1071.04 -129.423 C1050.11 -142.778 1026.42 -155.339 1000.56 -166.798 C970.812 -179.983 938.483 -191.273 904.409 -200.382 C870.405 -209.472 835.065 -216.608 799.064 -221.655 C763.012 -226.709 726.729 -229.264 691 -229.264 C610.762 -229.264 536.674 -217.287 470.694 -193.602 C404.682 -169.905 347.073 -135.753 299.87 -92.286 C252.633 -48.7875 215.418 4.52553 189.623 65.6186 C163.826 126.717 150.736 195.268 150.736 269 C150.736 343.369 163.473 412.047 188.59 472.803 C213.706 533.556 250.058 586.7 296.28 630.202 C342.481 673.685 398.933 707.867 463.624 731.576 C528.288 755.275 601.079 767.264 680 767.264 C750.834 767.264 816.444 757.5 875.025 738.198 C933.67 718.876 984.928 690.822 1026.81 655.067 C1068.75 619.266 1101.9 575.295 1124.75 525.172 C1147.61 475.011 1159.26 418.142 1159.26 357 C1159.26 312.51 1155.67 271.275 1148.56 234.369 C1141.43 197.362 1130.95 164.866 1117.55 138.41 C1104.05 111.763 1087.02 89.965 1067.92 75.1087 C1048.46 59.9772 1024.91 51.736 1001 51.736 C966.131 51.736 936.83 67.6997 918.928 96.5628 C901.392 124.835 895.297 163.798 900.817 209.345 L900.818 209.355 L934.3 487.736 L830.963 487.736 L824.18 432.624 L820.296 401.073 L803.448 428.03 C787.634 453.333 768.462 470.44 743.378 481.728 C717.906 493.19 689.253 498.736 655 498.736 C614.519 498.736 577.965 493.173 543.532 481.804 C509.088 470.431 479.827 455.014 453.969 434.651 C428.156 414.323 407.737 390.63 391.273 361.9 C374.866 333.267 365.071 302.639 361.195 267.756 C356.633 226.694 358.683 190.417 367.403 156.83 C376.098 123.336 389.947 95.9467 410.077 72.3018 C430.172 48.6974 454.653 31.2551 485.794 18.4133 C517.019 5.53706 551.678 -0.736 592 -0.736 C634.848 -0.736 671.93 6.93077 705.737 22.7072 C739.534 38.4792 766.604 59.9808 789.109 88.9154 L801.068 104.291 L808.429 86.2566 C821.161 55.0637 839.088 32.3555 864.302 15.3362 C889.438 -1.63097 918.857 -9.736 956 -9.736 C998.748 -9.736 1036.19 -1.3118 1070.96 16.0748 C1105.83 33.5065 1134.9 57.4264 1160.15 89.471 C1185.45 121.574 1204.49 159.51 1218.21 205.237 C1231.96 251.056 1238.74 301.093 1238.74 357 C1238.74 429.868 1225.55 494.856 1198.73 554.373 C1171.9 613.926 1134.69 663.959 1085.62 706.488 C1036.5 749.063 978.412 781.494 909.392 804.829 C840.327 828.18 764.48 839.736 680 839.736 C588.26 839.736 505.719 826.06 430.379 798.425 C355.065 770.799 291.677 732.475 238.209 682.287 C184.763 632.12 144.117 572.925 114.9 502.675 C85.688 432.434 71.264 355.289 71.264 269 C71.264 182.734 86.004 105.632 115.866 35.4079 C145.737 -34.8391 187.195 -94.0421 241.634 -144.217 C296.105 -194.422 360.509 -232.774 436.835 -260.409 C513.18 -288.051 597.244 -301.736 691 -301.736 C728.566 -301.736 766.556 -298.801 805.815 -292.863 C845.118 -286.918 883.227 -278.576 920.868 -267.68 C958.503 -256.786 993.938 -243.886 1027.91 -228.715 C1057.94 -215.302 1084.84 -200.573 1109.28 -184.159 L1071.04 -129.423 L1071.04 -129.423 Z M774.815 209.332 L774.819 209.364 L774.823 209.397 C778.719 240.564 778.102 265.704 773.044 286.884 C768.017 307.935 760.162 323.503 748.246 336.335 C736.27 349.233 722.393 357.87 704.047 363.778 C685.303 369.814 664.545 372.736 640 372.736 C599.661 372.736 568.36 363.301 542.31 343.528 C516.482 323.924 502.926 300.094 499.19 267.709 L499.18 267.626 L499.169 267.543 C493.418 223.446 500.329 190.651 520.448 164.342 C540.37 138.29 567.393 126.264 607 126.264 C656.529 126.264 695.534 134.221 726.8 150.492 C757.357 166.394 771.862 184.525 774.815 209.332 L774.815 209.332 Z M797.177 206.603 C793.441 175.437 771.952 148.593 737.2 130.508 C703.132 112.779 658.804 103.736 607 103.736 C562.607 103.736 525.963 120.043 502.552 150.658 C479.35 180.999 470.593 222.507 476.82 270.375 C481.101 307.288 499.207 339.093 528.69 361.472 C557.973 383.699 596.339 395.264 640 395.264 C666.122 395.264 690.363 391.852 710.953 385.222 C731.941 378.463 750.73 366.767 764.754 351.665 C778.838 336.497 789.317 315.731 794.956 292.116 C800.561 268.645 801.28 239.476 797.185 206.668 L797.177 206.603 L797.177 206.603 Z " />
<glyph glyph-name="A" unicode="A" horiz-adv-x="747" d="M276.489 749.051 L277.953 752.955 L280.197 758.939 L286.485 760.082 L291.985 761.082 L292.984 761.264 L294 761.264 L372 761.264 L456 761.264 L463.807 761.264 L466.547 753.954 L746.11 8.1411 L751.513 -6.27244 L736.14 -7.06168 L654.578 -11.2492 L654.289 -11.264 L654 -11.264 L570 -11.264 L562.374 -11.264 L559.542 -4.18334 L557.542 0.816655 L557.477 0.97768 L557.418 1.14061 L512.697 123.761 L234.859 124.709 L189.576 1.12469 L189.52 0.969808 L189.458 0.816655 L187.458 -4.18334 L184.626 -11.264 L177 -11.264 L88 -11.264 L87.9197 -11.264 L87.8393 -11.2629 L0.214332 -10.0129 L-15.9481 -9.78229 L-10.1355 5.30052 L276.453 748.955 L276.489 749.051 L276.489 749.051 Z M296.657 738.736 L16.698 12.282 L88.08 11.264 L169.299 11.264 L216.424 139.875 L219.141 147.291 L227.038 147.264 L504.105 146.318 L495.368 171.279 L476.763 224.437 L497.285 231.77 L516.582 178.859 L577.705 11.264 L653.711 11.264 L719.612 14.647 L448.193 738.736 L372 738.736 L296.657 738.736 L296.657 738.736 Z M373.947 499.5 L289.198 271.264 L457.858 271.264 L373.947 499.5 L373.947 499.5 Z M363.44 535.921 L374.053 564.5 L384.572 535.887 L484.572 263.887 L490.142 248.736 L474 248.736 L273 248.736 L256.802 248.736 L262.44 263.921 L363.44 535.921 L363.44 535.921 Z " />
<glyph glyph-name="B" unicode="B" horiz-adv-x="700" d="M543.371 419.04 C579.657 404.696 609.906 383.843 632.565 357.316 C661.246 323.738 676.264 281.615 676.264 235 C676.264 192.196 670.831 154.342 660.15 123.332 C649.321 91.8915 630.869 64.9517 606.598 45.254 C582.499 25.6951 550.533 10.969 513.114 2.04339 C476.032 -6.80174 430.551 -11.264 378 -11.264 L234 -11.264 L157 -11.264 L81 -11.264 L69.736 -11.264 L69.736 0 L69.736 5 L69.736 745 L69.736 750 L69.736 761.264 L81 761.264 L157 761.264 L234 761.264 L341 761.264 C393.467 761.264 438.752 757.504 475.729 750.041 C513.033 742.512 544.85 730 568.932 713.247 C593.256 696.326 611.972 673.118 622.93 646.254 C633.734 619.767 639.264 586.942 639.264 550 C639.264 517.869 627.392 487.615 605.324 463.411 C589.368 445.911 568.378 430.937 543.371 419.04 L543.371 419.04 Z M507.985 407.147 L473.121 416.832 L507.322 428.647 C542.815 440.908 569.076 457.092 588.676 478.589 C607.941 499.718 616.736 522.131 616.736 550 C616.736 585.058 611.933 613.566 602.07 637.746 C592.361 661.549 577.744 679.674 556.068 694.753 C534.15 710 506.633 720.821 471.271 727.959 C435.581 735.162 392.533 738.736 341 738.736 L234 738.736 L157 738.736 L92.264 738.736 L92.264 11.264 L157 11.264 L234 11.264 L378 11.264 C429.449 11.264 472.301 15.4684 507.886 23.9566 C543.134 32.3643 570.501 44.9716 592.402 62.746 C614.131 80.3817 629.013 102.108 638.85 130.668 C648.835 159.658 653.736 193.804 653.736 235 C653.736 277.719 641.42 312.262 615.435 342.684 C589.291 373.292 554.507 394.224 507.985 407.147 L507.985 407.147 Z M245.264 611.834 L245.264 474.264 L306 474.264 C354.366 474.264 391.46 480.681 419.787 493.731 C447.041 506.286 457.736 519.625 457.736 539 C457.736 567.36 450.579 584.103 434.563 595.257 C417.801 606.93 389.888 612.727 347.101 612.736 L347 612.736 L291.099 612.236 L245.264 611.834 L245.264 611.834 Z M222.736 623 L222.736 634.166 L233.901 634.264 L290.899 634.764 L346.899 635.264 L346.95 635.264 L347 635.264 C392.156 635.264 426.879 628.061 447.437 613.743 C468.754 598.897 480.264 571.973 480.264 539 C480.264 511.709 461.293 488.048 429.213 473.269 C398.207 458.986 356.3 451.736 306 451.736 L234 451.736 L222.736 451.736 L222.736 463 L222.736 623 L222.736 623 Z M245.264 329.736 L245.264 138.264 L332 138.264 C391.442 138.264 431.064 146.984 454.798 164.553 C477.891 181.648 488.736 208.831 488.736 252 C488.736 275.207 474.76 291.724 440.495 306.676 C405.112 322.116 359.074 329.736 300 329.736 L245.264 329.736 L245.264 329.736 Z M222.736 341 L222.736 352.264 L234 352.264 L300 352.264 C360.926 352.264 411.555 343.884 449.505 327.324 C488.573 310.276 511.264 283.459 511.264 252 C511.264 204.503 496.442 167.352 468.202 146.447 C440.603 126.016 393.891 115.736 332 115.736 L234 115.736 L222.736 115.736 L222.736 127 L222.736 341 L222.736 341 Z " />
<glyph glyph-name="C" unicode="C" horiz-adv-x="738" d="M588.752 252.675 L594.902 266.157 L606.247 256.623 L725.247 156.623 L731.736 151.171 L728.293 143.425 C717.173 118.405 700.586 94.9667 679.829 74.9013 C659.168 54.9289 633.898 37.4343 605.489 23.401 C577.203 9.42864 545.464 -1.67126 511.525 -9.47739 C477.549 -17.2919 441.282 -21.264 404 -21.264 C348.825 -21.264 297.396 -10.4183 252.211 10.8046 C207.202 31.9452 167.711 61.1269 135.608 96.9869 C103.548 132.798 78.1316 175.449 60.4408 223.078 C42.7501 270.707 33.736 322.018 33.736 375 C33.736 427.982 42.7501 479.293 60.4408 526.922 C78.1316 574.551 103.548 617.202 135.608 653.013 C167.711 688.873 207.202 718.055 252.211 739.195 C297.396 760.418 348.825 771.264 404 771.264 C437.992 771.264 471.976 767.276 504.624 759.454 C537.228 751.643 568.106 740.54 596.037 726.575 C624.006 712.591 649.879 695.284 672.436 675.461 C695.138 655.51 714.028 632.344 727.847 607.47 L732.338 599.386 L725.282 593.407 L666.282 543.407 L666.247 543.377 L666.211 543.347 L606.211 493.347 L595.807 484.677 L589.178 496.486 C568.517 533.288 541.928 561.587 507.458 583.493 C473.059 605.355 439.625 615.736 404 615.736 C376.737 615.736 353.187 609.774 330.47 597.153 C307.548 584.419 288.855 567.854 272.558 545.805 C256.164 523.624 243.845 498.519 234.776 468.72 C225.693 438.875 221.264 408.191 221.264 375 C221.264 341.813 225.689 311.313 234.766 281.813 C243.833 252.343 256.155 227.387 272.558 205.195 C288.871 183.125 307.615 166.362 330.574 153.288 C353.275 140.361 376.771 134.264 404 134.264 C444.383 134.264 479.946 144.688 513.918 166.481 C547.889 188.273 572.094 216.155 588.752 252.675 L588.752 252.675 Z M602.723 230.158 C584.68 196.529 558.617 168.391 526.082 147.519 C489.387 123.979 447.617 111.736 404 111.736 C373.896 111.736 344.725 119.306 319.426 133.712 C294.385 147.972 272.129 167.875 254.442 191.805 C236.845 215.613 222.833 243.99 213.234 275.187 C203.644 306.354 198.736 340.187 198.736 375 C198.736 409.809 203.641 443.792 213.224 475.28 C222.821 506.814 236.836 535.376 254.442 559.195 C272.145 583.146 294.452 602.914 319.53 616.847 C344.813 630.893 373.93 638.264 404 638.264 C443.042 638.264 482.608 625.979 519.542 602.507 C552.703 581.432 580.644 553.122 601.941 519.113 L651.718 560.593 L651.789 560.653 L703.517 604.491 C691.41 624.334 676.382 642.003 657.564 658.539 C636.121 677.383 612.661 693.076 585.963 706.425 C559.227 719.793 530.772 730.024 499.376 737.546 C468.024 745.057 436.675 748.736 404 748.736 C351.175 748.736 304.604 738.915 261.789 718.805 C218.798 698.612 182.956 672.127 152.392 637.987 C121.785 603.798 98.535 564.782 81.5592 519.078 C64.5832 473.373 56.264 426.018 56.264 375 C56.264 323.982 64.5832 276.627 81.5592 230.922 C98.535 185.218 121.785 146.202 152.392 112.013 C182.956 77.8731 218.798 51.3882 261.789 31.1954 C304.604 11.0849 351.175 1.264 404 1.264 C440.052 1.264 473.785 4.95857 506.475 12.4774 C539.202 20.0046 568.463 30.238 595.511 43.599 C622.436 56.8991 644.832 72.4044 664.171 91.0987 C681.254 107.612 694.268 125.145 704.12 144.951 L602.723 230.158 L602.723 230.158 Z " />
<glyph glyph-name="D" unicode="D" horiz-adv-x="790" d="M234 -11.264 L157 -11.264 L81 -11.264 L69.736 -11.264 L69.736 0 L69.736 5 L69.736 745 L69.736 750 L69.736 761.264 L81 761.264 L157 761.264 L234 761.264 L333 761.264 C468.712 761.264 573.463 728.659 642.674 664.245 C712.009 599.716 747.264 501.63 747.264 375 C747.264 245.237 715.564 146.478 652.987 83.557 C590.4 20.6263 492.115 -11.264 363 -11.264 L234 -11.264 L234 -11.264 Z M234 11.264 L363 11.264 C488.552 11.264 578.267 40.3737 637.013 99.443 C695.77 158.522 724.736 248.763 724.736 375 C724.736 497.704 692.658 586.95 627.326 647.755 C561.87 708.674 465.288 738.736 333 738.736 L234 738.736 L157 738.736 L92.264 738.736 L92.264 11.264 L157 11.264 L234 11.264 L234 11.264 Z M245.264 611.842 L245.264 138.169 L293.095 137.764 L352.047 137.264 C424.694 137.272 475.293 155.774 509.062 193.962 C543.031 232.375 559.736 291.234 559.736 375 C559.736 455.956 541.67 514.046 504.743 553.838 C467.936 593.501 414.694 612.736 340 612.736 L287.106 612.237 L245.264 611.842 L245.264 611.842 Z M222.736 623 L222.736 634.158 L233.894 634.263 L286.894 634.763 L339.894 635.263 L339.947 635.264 L340 635.264 C418.639 635.264 480.731 612.832 521.257 569.162 C561.663 525.621 582.264 459.378 582.264 375 C582.264 288.099 563.303 221.292 525.938 179.038 C488.381 136.567 428.661 114.736 352 114.736 L351.952 114.736 L351.905 114.736 L292.905 115.236 L233.905 115.736 L222.736 115.831 L222.736 127 L222.736 623 L222.736 623 Z " />
<glyph glyph-name="E" unicode="E" horiz-adv-x="684" d="M631 144.264 L634 144.264 L645.264 144.264 L645.264 133 L645.264 66 L645.264 0 L645.264 -11.264 L634 -11.264 L233.5 -11.264 L157 -11.264 L81 -11.264 L69.736 -11.264 L69.736 0 L69.736 5 L69.736 745 L69.736 750 L69.736 761.264 L81 761.264 L157 761.264 L233.5 761.264 L619 761.264 L630.264 761.264 L630.264 750 L630.264 684 L630.264 617 L630.264 605.736 L619 605.736 L614 605.736 L245.264 605.736 L245.264 461.264 L594 461.264 L598 461.264 L609.087 461.264 L609.263 450.179 L610.263 387.179 L610.264 387.089 L610.264 387 L610.264 324 L610.264 312.736 L599 312.736 L594 312.736 L245.264 312.736 L245.264 144.264 L631 144.264 L631 144.264 Z M622.736 121.736 L234 121.736 L222.736 121.736 L222.736 133 L222.736 324 L222.736 335.264 L234 335.264 L587.736 335.264 L587.736 386.911 L586.913 438.736 L234 438.736 L222.736 438.736 L222.736 450 L222.736 617 L222.736 628.264 L234 628.264 L607.736 628.264 L607.736 684 L607.736 738.736 L233.5 738.736 L157 738.736 L92.264 738.736 L92.264 11.264 L157 11.264 L233.5 11.264 L622.736 11.264 L622.736 66 L622.736 121.736 L622.736 121.736 Z " />
<glyph glyph-name="F" unicode="F" horiz-adv-x="649" d="M600.264 324 L600.264 312.736 L589 312.736 L584 312.736 L245.264 312.736 L245.264 5 L245.264 0 L245.264 -11.264 L234 -11.264 L157 -11.264 L81 -11.264 L69.736 -11.264 L69.736 0 L69.736 5 L69.736 745 L69.736 750 L69.736 761.264 L81 761.264 L157 761.264 L233.5 761.264 L619 761.264 L630.264 761.264 L630.264 750 L630.264 684 L630.264 617 L630.264 605.736 L619 605.736 L614 605.736 L245.264 605.736 L245.264 461.264 L584 461.264 L588 461.264 L599.087 461.264 L599.263 450.179 L600.263 387.179 L600.264 387.089 L600.264 387 L600.264 324 L600.264 324 Z M577.736 335.264 L577.736 386.911 L576.913 438.736 L234 438.736 L222.736 438.736 L222.736 450 L222.736 617 L222.736 628.264 L234 628.264 L607.736 628.264 L607.736 684 L607.736 738.736 L233.5 738.736 L157 738.736 L92.264 738.736 L92.264 11.264 L157 11.264 L222.736 11.264 L222.736 324 L222.736 335.264 L234 335.264 L577.736 335.264 L577.736 335.264 Z " />
<glyph glyph-name="G" unicode="G" horiz-adv-x="797" d="M585.736 295.736 L354 295.736 L342.736 295.736 L342.736 307 L342.736 440 L342.736 451.264 L354 451.264 L753 451.264 L764.264 451.264 L764.264 440 L764.264 86 L764.264 80.7758 L760.276 77.4012 C724.669 47.2725 678.377 22.9084 623.443 5.27497 C568.544 -12.3467 506.809 -21.264 440 -21.264 C379.717 -21.264 323.711 -11.7568 274.029 6.95913 C224.308 25.6897 180.819 52.9361 145.614 87.4574 C110.421 121.967 82.4689 164.419 63.0467 212.804 C43.6188 261.203 33.736 315.992 33.736 375 C33.736 434.008 43.6188 488.797 63.0467 537.196 C82.4689 585.581 110.421 628.033 145.614 662.543 C180.819 697.064 224.308 724.31 274.029 743.041 C323.711 761.757 379.717 771.264 440 771.264 C473.342 771.264 506.533 767.267 538.204 759.435 C569.806 751.619 600.003 740.512 627.587 726.55 C655.244 712.551 680.657 695.2 702.564 675.346 C724.527 655.443 743.286 632.436 757.73 607.676 L762.49 599.515 L755.282 593.407 L696.282 543.407 L696.247 543.377 L696.211 543.347 L636.211 493.347 L625.807 484.677 L619.178 496.486 C598.492 533.332 572.336 561.669 538.836 583.572 C505.43 605.415 473.555 615.736 440 615.736 C406.397 615.736 377.121 610.16 349.893 598.628 C322.665 587.096 300.498 571.503 281.335 550.423 C262.128 529.295 247.76 504.731 237.116 474.733 C226.461 444.707 221.264 412.108 221.264 375 C221.264 337.892 226.461 305.293 237.116 275.267 C247.76 245.269 262.128 220.705 281.335 199.577 C300.498 178.497 322.665 162.904 349.893 151.372 C377.121 139.84 406.397 134.264 440 134.264 C474.643 134.264 504.261 137.907 530.423 145.336 C554.135 152.069 571.976 160.476 585.736 171.297 L585.736 295.736 L585.736 295.736 Z M597 318.264 L608.264 318.264 L608.264 307 L608.264 166 L608.264 160.868 L604.391 157.5 C587.967 143.218 564.576 131.615 536.577 123.664 C508.739 115.76 476.023 111.736 440 111.736 C404.27 111.736 370.546 118.16 341.107 130.628 C311.668 143.096 285.502 161.503 264.665 184.423 C243.872 207.295 227.24 235.731 215.884 267.733 C204.539 299.707 198.736 336.108 198.736 375 C198.736 413.892 204.539 450.293 215.884 482.267 C227.24 514.269 243.872 542.705 264.665 565.577 C285.502 588.497 311.668 606.904 341.107 619.372 C370.546 631.84 404.27 638.264 440 638.264 C477.112 638.264 515.237 625.919 551.164 602.428 C583.393 581.355 610.776 553.083 631.951 519.122 L681.718 560.593 L681.789 560.653 L733.38 604.375 C720.774 624.306 705.714 642.089 687.436 658.654 C666.676 677.467 643.756 693.116 617.413 706.45 C590.997 719.821 563.194 730.048 532.796 737.565 C502.467 745.066 471.991 748.736 440 748.736 C381.616 748.736 329.622 739.91 281.971 721.959 C234.359 704.023 194.848 679.269 161.386 646.457 C127.913 613.634 102.531 575.086 83.9533 528.804 C65.3812 482.537 56.264 431.992 56.264 375 C56.264 318.008 65.3812 267.463 83.9533 221.196 C102.531 174.914 127.913 136.366 161.386 103.543 C194.848 70.7306 234.359 45.977 281.971 28.0409 C329.622 10.0902 381.616 1.264 440 1.264 C505.191 1.264 563.456 9.68007 616.557 26.725 C667.552 43.0936 708.674 64.328 741.736 91.286 L741.736 428.736 L365.264 428.736 L365.264 318.264 L597 318.264 L597 318.264 Z " />
<glyph glyph-name="H" unicode="H" horiz-adv-x="834" d="M760.264 0 L760.264 -11.264 L749 -11.264 L672 -11.264 L595 -11.264 L583.736 -11.264 L583.736 0 L583.736 5 L583.736 317.736 L245.264 317.736 L245.264 5 L245.264 0 L245.264 -11.264 L234 -11.264 L157 -11.264 L81 -11.264 L69.736 -11.264 L69.736 0 L69.736 5 L69.736 745 L69.736 750 L69.736 761.264 L81 761.264 L157 761.264 L234 761.264 L245.264 761.264 L245.264 750 L245.264 745 L245.264 472.264 L583.736 472.264 L583.736 745 L583.736 750 L583.736 761.264 L595 761.264 L672 761.264 L749 761.264 L760.264 761.264 L760.264 750 L760.264 745 L760.264 5 L760.264 0 L760.264 0 Z M737.736 11.264 L737.736 738.736 L672 738.736 L606.264 738.736 L606.264 461 L606.264 449.736 L595 449.736 L234 449.736 L222.736 449.736 L222.736 461 L222.736 738.736 L157 738.736 L92.264 738.736 L92.264 11.264 L157 11.264 L222.736 11.264 L222.736 329 L222.736 340.264 L234 340.264 L595 340.264 L606.264 340.264 L606.264 329 L606.264 11.264 L672 11.264 L737.736 11.264 L737.736 11.264 Z " />
<glyph glyph-name="I" unicode="I" horiz-adv-x="327" d="M253.264 0 L253.264 -11.264 L242 -11.264 L165 -11.264 L88 -11.264 L76.736 -11.264 L76.736 0 L76.736 5 L76.736 745 L76.736 750 L76.736 761.264 L88 761.264 L165 761.264 L242 761.264 L253.264 761.264 L253.264 750 L253.264 745 L253.264 5 L253.264 0 L253.264 0 Z M230.736 11.264 L230.736 738.736 L165 738.736 L99.264 738.736 L99.264 11.264 L165 11.264 L230.736 11.264 L230.736 11.264 Z " />
<glyph glyph-name="J" unicode="J" horiz-adv-x="615" d="M31.736 214 L31.736 278 L31.736 287.45 L41.0425 289.093 L194.042 316.093 L207.264 318.426 L207.264 305 L207.264 258 C207.264 218.675 213.555 192.633 226.434 175.86 C238.895 159.632 257.184 152.264 287 152.264 C315.211 152.264 333.507 158.227 346.625 171.054 C359.906 184.039 365.736 198.809 365.736 220 L365.736 745 L365.736 750 L365.736 761.264 L377 761.264 L454 761.264 L454.074 761.264 L454.148 761.263 L530.148 760.263 L541.264 760.117 L541.264 749 L541.264 745 L541.264 220 C541.264 184.416 535.778 150.967 525.082 121.641 C514.331 92.1617 497.653 65.8751 476.399 44.9696 C455.146 24.065 427.742 7.29838 396.34 -4.08923 C364.983 -15.4605 327.876 -21.264 287 -21.264 C200.079 -21.264 133.99 -2.25452 93.3628 35.2204 C52.5916 72.8284 31.736 134.137 31.736 214 L31.736 214 Z M54.264 214 C54.264 137.863 72.0751 85.5049 108.637 51.7796 C145.343 17.9212 203.254 1.264 287 1.264 C326.124 1.264 359.35 6.46046 388.66 17.0892 C417.924 27.7016 441.188 41.935 460.601 61.0304 C480.014 80.1249 494.002 102.172 503.918 129.359 C513.889 156.7 518.736 186.251 518.736 220 L518.736 737.883 L453.926 738.736 L388.264 738.736 L388.264 220 C388.264 194.524 379.094 171.294 362.375 154.946 C345.493 138.439 318.789 129.736 287 129.736 C252.816 129.736 224.772 141.034 208.566 162.14 C192.778 182.701 184.736 215.992 184.736 258 L184.736 291.574 L54.264 268.55 L54.264 214 L54.264 214 Z " />
<glyph glyph-name="K" unicode="K" horiz-adv-x="735" d="M732.733 9.63664 L732.83 9.46236 L732.92 9.28479 L735.045 5.09729 L743.347 -11.264 L725 -11.264 L633 -11.264 L540 -11.264 L533.284 -11.264 L530.091 -5.35622 L337.26 351.382 L247.228 261.783 L245.264 4.957 L245.264 0 L245.264 -11.264 L234 -11.264 L157 -11.264 L81 -11.264 L69.736 -11.264 L69.736 0 L69.736 5 L69.736 745 L69.736 750 L69.736 761.264 L81 761.264 L157 761.264 L234 761.264 L245.264 761.264 L245.264 750 L245.264 745 L245.264 481.517 L503.776 757.697 L507.115 761.264 L512 761.264 L614 761.264 L715 761.264 L741.934 761.264 L723.019 742.09 L469.771 485.371 L732.733 9.63664 L732.733 9.63664 Z M706.093 11.264 L453.382 468.452 L430.965 446.035 L391.141 406.211 L375.429 421.816 L414.981 461.91 L688.066 738.736 L614 738.736 L516.885 738.736 L242.224 445.303 L222.736 424.483 L222.736 453 L222.736 738.736 L157 738.736 L92.264 738.736 L92.264 11.264 L157 11.264 L222.784 11.264 L224.736 266.586 L224.772 271.217 L228.054 274.484 L332.054 377.984 L342.74 388.618 L349.909 375.356 L546.716 11.264 L633 11.264 L706.093 11.264 L706.093 11.264 Z " />
<glyph glyph-name="L" unicode="L" horiz-adv-x="621" d="M588.75 144.264 L592 144.264 L603.264 144.264 L603.264 133 L603.264 66 L603.264 0 L603.264 -11.264 L592 -11.264 L242 -11.264 L165 -11.264 L88 -11.264 L76.736 -11.264 L76.736 0 L76.736 5 L76.736 745 L76.736 750 L76.736 761.264 L88 761.264 L165 761.264 L242 761.264 L253.264 761.264 L253.264 750 L253.264 745 L253.264 144.264 L588.75 144.264 L588.75 144.264 Z M580.736 121.736 L242 121.736 L230.736 121.736 L230.736 133 L230.736 738.736 L165 738.736 L99.264 738.736 L99.264 11.264 L165 11.264 L242 11.264 L580.736 11.264 L580.736 66 L580.736 121.736 L580.736 121.736 Z " />
<glyph glyph-name="M" unicode="M" horiz-adv-x="959" d="M885.264 0 L885.264 -11.264 L874 -11.264 L801 -11.264 L727 -11.264 L715.736 -11.264 L715.736 0 L715.736 5 L715.736 504.499 L560.773 -3.28777 L558.339 -11.264 L550 -11.264 L413 -11.264 L405 -11.264 L389.749 -11.264 L394.234 3.31258 L397.201 12.954 L248.264 484.01 L248.264 3.25 L248.264 -7.56014 L237.463 -8.00448 L158.463 -11.2545 L158.232 -11.264 L158 -11.264 L80 -11.264 L68.736 -11.264 L68.736 0 L68.736 5 L68.736 745 L68.736 750 L68.736 761.264 L80 761.264 L158 761.264 L176 761.264 L237 761.264 L319 761.264 L327.323 761.264 L329.767 753.308 L475.861 277.806 L618.209 753.231 L620.615 761.264 L629 761.264 L727 761.264 L779 761.264 L801 761.264 L801.077 761.264 L801.154 761.263 L874.154 760.263 L885.264 760.111 L885.264 749 L885.264 745 L885.264 4 L885.264 0 L885.264 0 Z M862.736 11.264 L862.736 737.889 L800.923 738.736 L779 738.736 L727 738.736 L637.385 738.736 L486.791 235.769 L476.139 200.194 L465.233 235.692 L310.677 738.736 L237 738.736 L176 738.736 L158 738.736 L91.264 738.736 L91.264 11.264 L157.768 11.264 L225.736 14.06 L225.736 557 L225.736 613.32 L230.761 614.096 L247.74 560.396 L419.74 16.3957 L420.799 13.0456 L420.251 11.264 L541.661 11.264 L716.227 583.288 L732.665 637.155 L738.264 636.32 L738.264 580 L738.264 11.264 L801 11.264 L862.736 11.264 L862.736 11.264 Z " />
<glyph glyph-name="N" unicode="N" horiz-adv-x="814" d="M555.736 243.149 L555.736 745 L555.736 750 L555.736 761.264 L567 761.264 L648 761.264 L730 761.264 L741.264 761.264 L741.264 750 L741.264 745 L741.264 0 L741.264 -11.264 L730 -11.264 L683 -11.264 L567 -11.264 L510 -11.264 L503.489 -11.264 L500.239 -5.62224 L252.264 424.878 L252.264 5 L252.264 0 L252.264 -11.264 L241 -11.264 L160 -11.264 L78 -11.264 L66.736 -11.264 L66.736 0 L66.736 5 L66.736 745 L66.736 750 L66.736 761.264 L78 761.264 L160 761.264 L241 761.264 L251 761.264 L257.513 761.264 L260.762 755.619 L555.736 243.149 L555.736 243.149 Z M578.264 201 L578.264 158.851 L557.238 195.381 L244.487 738.736 L241 738.736 L160 738.736 L89.264 738.736 L89.264 11.264 L160 11.264 L229.736 11.264 L229.736 467 L229.736 509.122 L250.761 472.622 L516.511 11.264 L567 11.264 L683 11.264 L718.736 11.264 L718.736 738.736 L648 738.736 L578.264 738.736 L578.264 201 L578.264 201 Z " />
<glyph glyph-name="O" unicode="O" horiz-adv-x="838" d="M38.736 375 C38.736 430.692 48.455 483.626 67.5314 531.658 C86.5837 579.629 113.404 622.122 146.84 657.264 C180.296 692.428 220.977 720.712 266.989 740.821 C313.087 760.968 363.87 771.264 417 771.264 C470.13 771.264 520.913 760.968 567.011 740.821 C613.023 720.712 653.704 692.428 687.16 657.264 C720.596 622.122 747.416 579.629 766.469 531.658 C785.545 483.626 795.264 430.692 795.264 375 C795.264 316.062 786.097 261.406 768.053 213.061 C750.005 164.707 723.982 122.267 691.164 87.7398 C658.32 53.1846 617.834 25.8435 571.75 7.0685 C525.671 -11.7044 473.354 -21.264 417 -21.264 C361.309 -21.264 309.174 -11.7058 262.777 7.0576 C216.355 25.831 175.688 53.1764 142.836 87.7398 C110.018 122.267 83.9947 164.707 65.9471 213.061 C47.903 261.406 38.736 316.062 38.736 375 L38.736 375 Z M61.264 375 C61.264 317.938 69.7636 267.261 87.0529 220.939 C104.339 174.626 127.982 136.067 159.164 103.26 C190.312 70.4903 226.978 45.8357 271.223 27.9424 C315.493 10.0391 363.357 1.264 417 1.264 C471.313 1.264 519.329 10.0378 563.25 27.9315 C607.166 45.8232 643.68 70.482 674.836 103.26 C706.018 136.067 729.661 174.626 746.947 220.939 C764.236 267.261 772.736 317.938 772.736 375 C772.736 428.641 763.788 477.374 745.531 523.342 C727.25 569.371 702.737 608.211 670.84 641.736 C638.963 675.239 601.977 700.954 557.989 720.179 C514.087 739.365 467.87 748.736 417 748.736 C366.13 748.736 319.913 739.365 276.011 720.179 C232.023 700.954 195.037 675.239 163.16 641.736 C131.263 608.211 106.75 569.371 88.4686 523.342 C70.2117 477.374 61.264 428.641 61.264 375 L61.264 375 Z M417 134.264 C445.785 134.264 470.813 139.724 494.626 151.155 C518.477 162.603 537.834 178.029 554.717 199.053 C571.675 220.17 584.372 244.79 593.747 274.853 C603.139 304.974 607.736 337.785 607.736 375 C607.736 410.132 602.85 441.653 592.826 471.403 C582.787 501.196 569.537 526.137 552.179 547.995 C534.91 569.741 515.428 585.874 491.855 597.98 C468.402 610.023 444.347 615.736 417 615.736 C389.653 615.736 365.598 610.023 342.145 597.98 C318.572 585.874 299.09 569.741 281.821 547.995 C264.463 526.137 251.213 501.196 241.174 471.403 C231.15 441.653 226.264 410.132 226.264 375 C226.264 337.785 230.861 304.974 240.253 274.853 C249.628 244.79 262.325 220.17 279.283 199.053 C296.166 178.029 315.523 162.603 339.374 151.155 C363.187 139.724 388.215 134.264 417 134.264 L417 134.264 Z M417 111.736 C385.785 111.736 355.813 118.276 329.626 130.845 C303.477 143.397 280.168 161.971 261.717 184.947 C243.341 207.83 228.706 236.21 218.747 268.147 C208.806 300.026 203.736 336.215 203.736 375 C203.736 411.868 209.184 447.014 219.826 478.597 C230.453 510.137 245.537 538.53 264.179 562.005 C282.91 585.592 306.095 604.792 331.855 618.02 C357.736 631.31 387.014 638.264 417 638.264 C446.986 638.264 476.264 631.31 502.145 618.02 C527.905 604.792 551.09 585.592 569.821 562.005 C588.463 538.53 603.547 510.137 614.174 478.597 C624.816 447.014 630.264 411.868 630.264 375 C630.264 336.215 625.194 300.026 615.253 268.147 C605.294 236.21 590.659 207.83 572.283 184.947 C553.832 161.971 530.523 143.397 504.374 130.845 C478.187 118.276 448.215 111.736 417 111.736 L417 111.736 Z " />
<glyph glyph-name="P" unicode="P" horiz-adv-x="648" d="M245.264 0 L245.264 -11.264 L234 -11.264 L157 -11.264 L81 -11.264 L69.736 -11.264 L69.736 0 L69.736 5 L69.736 745 L69.736 750 L69.736 761.264 L81 761.264 L119 761.264 L157 761.264 L234 761.264 L325 761.264 C521.534 761.264 625.264 680.506 625.264 525 C625.264 446.069 599.112 383.665 548.537 343.204 C498.361 303.064 422.483 282.736 325 282.736 L245.264 282.736 L245.264 5 L245.264 0 L245.264 0 Z M222.736 11.264 L222.736 294 L222.736 305.264 L234 305.264 L325 305.264 C419.517 305.264 487.973 323.603 534.463 360.796 C580.555 397.669 602.736 450.598 602.736 525 C602.736 669.494 513.799 738.736 325 738.736 L234 738.736 L157 738.736 L119 738.736 L92.264 738.736 L92.264 11.264 L157 11.264 L222.736 11.264 L222.736 11.264 Z M245.264 612.736 L245.264 432.264 L332 432.264 C413.334 432.264 448.736 461.028 448.736 525 C448.736 585.146 409.441 612.736 319 612.736 L245.264 612.736 L245.264 612.736 Z M222.736 624 L222.736 635.264 L234 635.264 L319 635.264 C416.559 635.264 471.264 596.854 471.264 525 C471.264 450.305 421.333 409.736 332 409.736 L234 409.736 L222.736 409.736 L222.736 421 L222.736 624 L222.736 624 Z " />
<glyph glyph-name="Q" unicode="Q" horiz-adv-x="838" d="M38.736 375 C38.736 430.692 48.455 483.626 67.5314 531.658 C86.5837 579.629 113.404 622.122 146.84 657.264 C180.296 692.428 220.977 720.712 266.989 740.821 C313.087 760.968 363.87 771.264 417 771.264 C470.13 771.264 520.913 760.968 567.011 740.821 C613.023 720.712 653.704 692.428 687.16 657.264 C720.596 622.122 747.416 579.629 766.469 531.658 C785.545 483.626 795.264 430.692 795.264 375 C795.264 307.264 783.491 245.802 760.315 192.975 C738.478 143.2 707.414 100.424 668.463 66.487 L726.752 -34.3634 L731.958 -43.37 L723.393 -49.2741 L620.393 -120.274 L610.611 -127.017 L604.399 -116.89 L535.942 -5.296 C499.318 -15.8826 459.209 -21.264 417 -21.264 C361.309 -21.264 309.174 -11.7058 262.777 7.0576 C216.355 25.831 175.688 53.1764 142.836 87.7398 C110.018 122.267 83.9947 164.707 65.9471 213.061 C47.903 261.406 38.736 316.062 38.736 375 L38.736 375 Z M61.264 375 C61.264 317.938 69.7636 267.261 87.0529 220.939 C104.339 174.626 127.982 136.067 159.164 103.26 C190.312 70.4903 226.978 45.8357 271.223 27.9424 C315.493 10.0391 363.357 1.264 417 1.264 C460.853 1.264 500.479 7.01603 537.608 18.7412 L546 21.3912 L550.601 13.8899 L617.389 -94.983 L702.042 -36.63 L644.248 63.3634 L639.469 71.632 L646.844 77.6991 C687.125 110.833 717.537 151.541 739.685 202.025 C761.842 252.531 772.736 309.402 772.736 375 C772.736 428.641 763.788 477.374 745.531 523.342 C727.25 569.371 702.737 608.211 670.84 641.736 C638.963 675.239 601.977 700.954 557.989 720.179 C514.087 739.365 467.87 748.736 417 748.736 C366.13 748.736 319.913 739.365 276.011 720.179 C232.023 700.954 195.037 675.239 163.16 641.736 C131.263 608.211 106.75 569.371 88.4686 523.342 C70.2117 477.374 61.264 428.641 61.264 375 L61.264 375 Z M448.968 136.767 L407.415 204.083 L401.761 213.243 L410.655 219.307 L520.655 294.307 L530.648 301.12 L536.734 290.668 L573.437 227.635 C596.464 267.331 607.736 315.633 607.736 375 C607.736 410.132 602.85 441.653 592.826 471.403 C582.787 501.196 569.537 526.137 552.179 547.995 C534.91 569.741 515.428 585.874 491.855 597.98 C468.402 610.023 444.347 615.736 417 615.736 C389.653 615.736 365.598 610.023 342.145 597.98 C318.572 585.874 299.09 569.741 281.821 547.995 C264.463 526.137 251.213 501.196 241.174 471.403 C231.15 441.653 226.264 410.132 226.264 375 C226.264 337.785 230.861 304.974 240.253 274.853 C249.628 244.79 262.325 220.17 279.283 199.053 C296.166 178.029 315.523 162.603 339.374 151.155 C363.187 139.724 388.215 134.264 417 134.264 C428.128 134.264 438.646 135.082 448.968 136.767 L448.968 136.767 Z M476.585 134.917 L484.676 121.808 L469.732 118.072 C453.045 113.901 435.007 111.736 417 111.736 C385.785 111.736 355.813 118.276 329.626 130.845 C303.477 143.397 280.168 161.971 261.717 184.947 C243.341 207.83 228.706 236.21 218.747 268.147 C208.806 300.026 203.736 336.215 203.736 375 C203.736 411.868 209.184 447.014 219.826 478.597 C230.453 510.137 245.537 538.53 264.179 562.005 C282.91 585.592 306.095 604.792 331.855 618.02 C357.736 631.31 387.014 638.264 417 638.264 C446.986 638.264 476.264 631.31 502.145 618.02 C527.905 604.792 551.09 585.592 569.821 562.005 C588.463 538.53 603.547 510.137 614.174 478.597 C624.816 447.014 630.264 411.868 630.264 375 C630.264 304.828 614.023 245.16 582.241 199.559 L572.148 185.078 L563.266 200.332 L523.352 268.88 L432.239 206.757 L476.585 134.917 L476.585 134.917 Z " />
<glyph glyph-name="R" unicode="R" horiz-adv-x="648" d="M656.826 9.09893 L656.901 8.97305 L656.972 8.84528 L658.847 5.47028 L668.143 -11.264 L649 -11.264 L561 -11.264 L473 -11.264 L466.598 -11.264 L463.322 -5.76352 L279.598 302.736 L245.264 302.736 L245.264 5 L245.264 0 L245.264 -11.264 L234 -11.264 L157 -11.264 L81 -11.264 L69.736 -11.264 L69.736 0 L69.736 5 L69.736 745 L69.736 750 L69.736 761.264 L81 761.264 L119 761.264 L157 761.264 L234 761.264 L325 761.264 C521.534 761.264 625.264 680.506 625.264 525 C625.264 422.449 572.443 352.772 472.137 322.121 L656.826 9.09893 L656.826 9.09893 Z M629.391 11.264 L445.299 323.276 L437.692 336.169 L452.187 339.907 C554.592 366.313 602.736 425.661 602.736 525 C602.736 669.494 513.799 738.736 325 738.736 L234 738.736 L157 738.736 L119 738.736 L92.264 738.736 L92.264 11.264 L157 11.264 L222.736 11.264 L222.736 314 L222.736 325.264 L234 325.264 L286 325.264 L292.402 325.264 L295.678 319.764 L479.402 11.264 L561 11.264 L629.391 11.264 L629.391 11.264 Z M245.264 612.736 L245.264 452.264 L330 452.264 C413.344 452.264 448.736 475.133 448.736 525 C448.736 585.146 409.441 612.736 319 612.736 L245.264 612.736 L245.264 612.736 Z M222.736 624 L222.736 635.264 L234 635.264 L319 635.264 C416.559 635.264 471.264 596.854 471.264 525 C471.264 462.867 419.989 429.736 330 429.736 L234 429.736 L222.736 429.736 L222.736 441 L222.736 624 L222.736 624 Z " />
<glyph glyph-name="S" unicode="S" horiz-adv-x="676" d="M24.0824 140.66 L24.0015 140.81 L23.9252 140.963 L21.4252 145.963 L18.9252 150.963 L14.5727 159.668 L22.5539 165.237 L161.554 262.237 L172.541 269.905 L178.207 257.763 C196.2 219.207 220.312 191.585 252.781 172.167 C285.442 152.635 320.16 143.264 360 143.264 C400.833 143.264 429.602 149.289 449.597 161.593 C468.971 173.516 476.736 186.179 476.736 205 C476.736 251.92 425.884 282.145 311.501 297.836 L311.47 297.84 C119.604 323.611 18.736 407.734 18.736 545 C18.736 578.233 25.7911 610.071 39.3751 637.936 C52.9475 665.777 73.079 690.443 98.0846 709.891 C122.955 729.235 153.621 744.656 188.195 755.268 C222.723 765.866 261.554 771.264 303 771.264 C366.653 771.264 428.137 760.414 485.435 739.054 C542.998 717.596 592.416 684.592 631.353 641.557 L638.944 633.167 L630.519 625.613 L572.519 573.613 L514.519 521.613 L506.17 514.128 L498.647 522.443 C474.192 549.473 445.65 569.173 410.833 583.035 C375.827 596.973 340.595 603.736 303 603.736 C269.982 603.736 244.886 599.325 225.21 590.268 C206.639 581.72 200.264 573.725 200.264 561 C200.264 517.416 247.79 489.183 355.517 474.161 L355.555 474.156 C550.239 447.691 652.264 357.743 652.264 210 C652.264 141.606 626.584 83.9175 577.306 41.9265 C528.121 0.0160446 454.257 -21.264 360 -21.264 C322.798 -21.264 286.691 -17.8252 252.791 -11.0453 C218.842 -4.2555 186.758 5.97661 157.803 19.2622 C128.732 32.6007 102.318 49.6816 80.0006 69.5955 C57.594 89.5891 38.5446 113.801 24.0824 140.66 L24.0824 140.66 Z M43.997 151.193 C57.5204 126.116 74.1135 105.041 94.9994 86.4045 C116.015 67.6518 139.602 52.3993 167.197 39.7378 C194.908 27.0234 224.491 17.5888 257.209 11.0453 C289.976 4.49185 323.869 1.264 360 1.264 C451.076 1.264 517.212 20.3173 562.694 59.0735 C608.082 97.7491 629.736 146.394 629.736 210 C629.736 347.58 540.441 426.297 352.483 451.839 L352.464 451.841 L352.445 451.844 C240.198 467.49 177.736 504.589 177.736 561 C177.736 581.608 192.361 599.947 215.79 610.732 C238.114 621.008 268.018 626.264 303 626.264 C342.738 626.264 382.173 618.694 419.167 603.965 C452.789 590.578 482.821 570.791 507.643 545.705 L557.481 590.387 L606.917 634.709 C571.38 671.474 528.893 698.811 477.565 717.946 C422.196 738.586 364.68 748.736 303 748.736 C263.113 748.736 227.61 743.801 194.805 733.732 C162.046 723.677 135.045 710.099 111.915 692.109 C88.921 674.224 72.0525 653.556 59.6249 628.064 C47.2089 602.595 41.264 575.767 41.264 545 C41.264 418.273 129.052 345.065 314.499 320.164 L314.515 320.162 L314.53 320.16 C433.459 303.849 499.264 264.742 499.264 205 C499.264 179.821 485.362 157.151 461.403 142.407 C438.064 128.044 403.167 120.736 360 120.736 C317.173 120.736 276.558 131.699 241.219 152.833 C209.172 171.998 182.801 200.487 163.747 236.297 L43.427 152.332 L43.997 151.193 L43.997 151.193 Z " />
<glyph glyph-name="T" unicode="T" horiz-adv-x="651" d="M414.264 0 L414.264 -11.264 L403 -11.264 L326 -11.264 L249 -11.264 L237.736 -11.264 L237.736 0 L237.736 5 L237.736 605.736 L31 605.736 L26 605.736 L14.736 605.736 L14.736 617 L14.736 684 L14.736 750 L14.736 761.264 L26 761.264 L249 761.264 L403 761.264 L626 761.264 L637.264 761.264 L637.264 750 L637.264 684 L637.264 617 L637.264 605.736 L626 605.736 L621 605.736 L414.264 605.736 L414.264 5 L414.264 0 L414.264 0 Z M391.736 11.264 L391.736 617 L391.736 628.264 L403 628.264 L614.736 628.264 L614.736 684 L614.736 738.736 L403 738.736 L249 738.736 L37.264 738.736 L37.264 684 L37.264 628.264 L249 628.264 L260.264 628.264 L260.264 617 L260.264 11.264 L326 11.264 L391.736 11.264 L391.736 11.264 Z " />
<glyph glyph-name="U" unicode="U" horiz-adv-x="783" d="M62.736 288 L62.736 745 L62.736 750 L62.736 761.264 L74 761.264 L150 761.264 L227 761.264 L238.264 761.264 L238.264 750 L238.264 745 L238.264 315 C238.264 203.432 285.903 152.264 389 152.264 C485.178 152.264 529.736 203.857 529.736 317 L529.736 745 L529.736 750 L529.736 761.264 L541 761.264 L622 761.264 L704 761.264 L715.264 761.264 L715.264 750 L715.264 745 L715.264 288 C715.264 186.735 687.378 107.842 632.728 56.3052 C578.184 4.86848 495.402 -21.264 389 -21.264 C282.598 -21.264 199.816 4.86848 145.272 56.3052 C90.6218 107.842 62.736 186.735 62.736 288 L62.736 288 Z M85.264 288 C85.264 190.599 110.045 120.491 160.728 72.6948 C211.518 24.7982 286.069 1.264 389 1.264 C491.931 1.264 566.482 24.7982 617.272 72.6948 C667.955 120.491 692.736 190.599 692.736 288 L692.736 738.736 L622 738.736 L552.264 738.736 L552.264 317 C552.264 195.476 495.489 129.736 389 129.736 C276.097 129.736 215.736 194.568 215.736 315 L215.736 738.736 L150 738.736 L85.264 738.736 L85.264 288 L85.264 288 Z " />
<glyph glyph-name="V" unicode="V" horiz-adv-x="719" d="M676.63 760.263 L691.766 760.088 L687.251 745.64 L686.626 743.64 L686.577 743.482 L686.522 743.324 L428.647 -3.67564 L426.028 -11.264 L418 -11.264 L412 -11.264 L268.5 -11.264 L258.306 -11.264 L257.292 -1.12081 L256.927 2.531 L-4.37264 743.378 L-9.47203 757.836 L5.84921 758.382 L86.5992 761.257 L86.8587 761.266 L87.1184 761.263 L170.368 760.388 L178.485 760.303 L180.972 752.576 L337.87 265.165 L491.254 753.376 L493.732 761.264 L502 761.264 L590 761.264 L590.065 761.264 L590.13 761.263 L676.63 760.263 L676.63 760.263 Z M660.823 737.916 L589.935 738.736 L510.268 738.736 L348.746 224.624 L338.13 190.835 L327.278 224.549 L162.015 737.947 L87.141 738.734 L21.972 736.414 L277.735 11.264 L409.972 11.264 L660.823 737.916 L660.823 737.916 Z " />
<glyph glyph-name="W" unicode="W" horiz-adv-x="930" d="M898.977 759.512 L912.844 759.232 L909.726 745.717 L908.991 742.536 L908.976 742.467 L741.991 -2.46381 L740.019 -11.264 L731 -11.264 L584.5 -11.264 L575.79 -11.264 L573.598 -2.83395 L466.885 407.671 L357.887 -2.89032 L355.664 -11.264 L347 -11.264 L201.5 -11.264 L192.44 -11.264 L190.498 -2.4144 L26.8728 743.211 L24.0314 756.159 L37.2684 756.873 L118.393 761.248 L118.696 761.264 L119 761.264 L202 761.264 L211.234 761.264 L213.045 752.209 L214.045 747.209 L214.053 747.171 L214.06 747.133 L285.407 377.187 L379.071 752.726 L381.2 761.264 L390 761.264 L538 761.264 L546 761.264 L560.661 761.264 L556.884 747.098 L553.642 734.943 L644.233 381.292 L712.924 752.052 L714.631 761.264 L724 761.264 L812 761.264 L812.114 761.264 L812.227 761.262 L898.977 759.512 L898.977 759.512 Z M884.723 737.267 L811.886 738.736 L733.369 738.736 L657.076 326.948 L647.767 276.708 L635.088 326.205 L531.088 732.205 L530.358 735.057 L531.116 737.902 L531.339 738.736 L398.8 738.736 L294.929 322.274 L282.593 272.813 L272.94 322.867 L192.736 738.736 L119.304 738.736 L51.719 735.091 L210.56 11.264 L338.336 11.264 L456.113 454.89 L467.115 496.329 L477.902 454.834 L593.21 11.264 L721.981 11.264 L884.723 737.267 L884.723 737.267 Z " />
<glyph glyph-name="X" unicode="X" horiz-adv-x="715" d="M37 -11.264 L16.3681 -11.264 L27.525 6.09109 L28.603 7.768 L266.772 391.054 L53.8842 740.009 L44.0551 756.12 L62.9013 757.123 L140.401 761.248 L140.803 761.269 L141.206 761.262 L223.206 759.762 L229.397 759.649 L232.619 754.361 L361.109 543.469 L490.081 750.38 L491.543 753.513 L494.533 759.92 L501.602 760.013 L596.852 761.263 L596.926 761.264 L597 761.264 L690 761.264 L709.41 761.264 L699.78 744.411 L697.78 740.911 L697.68 740.737 L697.574 740.565 L467.223 368.953 L686.178 10.0538 L696.007 -6.05609 L677.162 -7.06053 L598.6 -11.248 L598.23 -11.2677 L597.861 -11.2631 L517.111 -10.2631 L510.872 -10.1859 L507.628 -4.85636 L372.903 216.494 L235.069 -5.44272 L231.785 -10.7309 L225.56 -10.7638 L131.06 -11.2638 L131.03 -11.264 L131 -11.264 L37 -11.264 L37 -11.264 Z M57.298 11.264 L130.94 11.2638 L131 11.264 L219.215 11.731 L363.431 243.943 L373.097 259.506 L382.622 243.856 L523.628 12.186 L597.77 11.268 L657.118 14.431 L444.384 363.134 L440.777 369.047 L444.426 374.935 L669.935 738.736 L597.074 738.736 L508.645 737.576 L370.559 516.042 L360.891 500.531 L351.381 516.139 L216.603 737.351 L141.197 738.731 L82.945 735.63 L289.616 396.866 L293.228 390.946 L289.567 385.055 L57.298 11.264 L57.298 11.264 Z " />
<glyph glyph-name="Y" unicode="Y" horiz-adv-x="692" d="M264 -11.264 L252.736 -11.264 L252.736 0 L252.736 5 L252.736 326.989 L12.7381 743.88 L3.09215 760.636 L22.4254 760.764 L97.9254 761.264 L97.9627 761.264 L98 761.264 L175 761.264 L181.628 761.264 L184.847 755.47 L187.292 751.068 L187.319 751.019 L187.347 750.97 L336.993 487.799 L486.153 750.47 L486.205 750.562 L488.653 754.97 L491.85 760.723 L498.431 760.764 L579.931 761.264 L579.965 761.264 L580 761.264 L661 761.264 L679.226 761.264 L671.075 744.963 L669.325 741.463 L669.174 741.16 L669.004 740.867 L428.264 323.981 L428.264 5 L428.264 0 L428.264 -11.264 L417 -11.264 L340 -11.264 L264 -11.264 L264 -11.264 Z M275.264 11.264 L340 11.264 L405.736 11.264 L405.736 327 L405.736 330.019 L407.246 332.633 L641.759 738.736 L580.069 738.736 L580 738.736 L505.135 738.276 L346.795 459.438 L337.007 442.201 L327.208 459.432 L168.388 738.736 L98.0746 738.736 L98 738.736 L41.908 738.364 L273.762 335.62 L275.264 333.011 L275.264 330 L275.264 11.264 L275.264 11.264 Z " />
<glyph glyph-name="Z" unicode="Z" horiz-adv-x="679" d="M631.75 144.264 L635 144.264 L646.264 144.264 L646.264 133 L646.264 66 L646.264 0 L646.264 -11.264 L635 -11.264 L45 -11.264 L33.736 -11.264 L33.736 0 L33.736 133 L33.736 136.973 L36.2291 140.067 L411.458 605.736 L65 605.736 L60 605.736 L48.736 605.736 L48.736 617 L48.736 684 L48.736 750 L48.736 761.264 L60 761.264 L635 761.264 L646.264 761.264 L646.264 750 L646.264 617 L646.264 613.027 L643.771 609.933 L268.542 144.264 L631.75 144.264 L631.75 144.264 Z M623.736 121.736 L245 121.736 L221.458 121.736 L236.229 140.067 L623.736 620.973 L623.736 738.736 L71.264 738.736 L71.264 684 L71.264 628.264 L435 628.264 L458.542 628.264 L443.771 609.933 L56.264 129.027 L56.264 11.264 L623.736 11.264 L623.736 66 L623.736 121.736 L623.736 121.736 Z " />
<glyph glyph-name="bracketleft" unicode="&#x5b;" horiz-adv-x="387" d="M369.264 672 L369.264 660.736 L358 660.736 L222.264 660.736 L222.264 -25.736 L358 -25.736 L369.264 -25.736 L369.264 -37 L369.264 -115 L369.264 -126.264 L358 -126.264 L211 -126.264 L122 -126.264 L110.736 -126.264 L110.736 -115 L110.736 750 L110.736 761.264 L122 761.264 L211 761.264 L358 761.264 L369.264 761.264 L369.264 750 L369.264 672 L369.264 672 Z M346.736 683.264 L346.736 738.736 L211 738.736 L133.264 738.736 L133.264 -103.736 L211 -103.736 L346.736 -103.736 L346.736 -48.264 L211 -48.264 L199.736 -48.264 L199.736 -37 L199.736 672 L199.736 683.264 L211 683.264 L346.736 683.264 L346.736 683.264 Z " />
<glyph glyph-name="backslash" unicode="&#x5c;" horiz-adv-x="349" d="M360.506 4.06231 L366.432 -11.264 L350 -11.264 L290 -11.264 L282.279 -11.264 L279.494 -4.06231 L-10.506 745.938 L-16.4321 761.264 L0 761.264 L60 761.264 L67.7213 761.264 L70.506 754.062 L360.506 4.06231 L360.506 4.06231 Z M333.568 11.264 L52.279 738.736 L16.432 738.736 L297.721 11.264 L333.568 11.264 L333.568 11.264 Z " />
<glyph glyph-name="bracketright" unicode="&#x5d;" horiz-adv-x="390" d="M164.736 -25.736 L164.736 660.736 L30 660.736 L18.736 660.736 L18.736 672 L18.736 750 L18.736 761.264 L30 761.264 L176 761.264 L266 761.264 L277.264 761.264 L277.264 750 L277.264 -115 L277.264 -126.264 L266 -126.264 L176 -126.264 L30 -126.264 L18.736 -126.264 L18.736 -115 L18.736 -37 L18.736 -25.736 L30 -25.736 L164.736 -25.736 L164.736 -25.736 Z M187.264 -37 L187.264 -48.264 L176 -48.264 L41.264 -48.264 L41.264 -103.736 L176 -103.736 L254.736 -103.736 L254.736 738.736 L176 738.736 L41.264 738.736 L41.264 683.264 L176 683.264 L187.264 683.264 L187.264 672 L187.264 -37 L187.264 -37 Z " />
<glyph glyph-name="underscore" unicode="&#x5f;" horiz-adv-x="704" d="M666.264 -142 L666.264 -153.264 L655 -153.264 L50 -153.264 L38.736 -153.264 L38.736 -142 L38.736 -58 L38.736 -46.736 L50 -46.736 L655 -46.736 L666.264 -46.736 L666.264 -58 L666.264 -142 L666.264 -142 Z M643.736 -130.736 L643.736 -69.264 L61.264 -69.264 L61.264 -130.736 L643.736 -130.736 L643.736 -130.736 Z " />
<glyph glyph-name="a" unicode="a" horiz-adv-x="574" d="M191.766 346.687 L188.406 335.768 L177.535 339.282 L44.5349 382.282 L33.8242 385.745 L37.28 396.458 C44.2823 418.165 55.6735 438.743 70.3751 456.245 C84.9984 473.654 103.43 489.194 124.205 501.659 C144.891 514.071 168.477 524.002 193.524 530.864 C218.614 537.738 245.943 541.264 274 541.264 C308.667 541.264 340.952 537.425 369.386 529.888 C398.155 522.263 424.144 509.359 445.125 492.224 C466.245 474.977 483.221 451.727 494.402 424.823 C505.555 397.984 511.264 364.623 511.264 327 L511.264 132.331 L512.08 118.471 L513.736 115.76 L521.547 113.735 L545.225 113.262 L556.264 113.041 L556.264 102 L556.264 0 L556.264 -11.264 L545 -11.264 C512.895 -11.264 485.802 -10.7592 463.981 -9.75202 C441.88 -8.732 423.268 -6.42759 409.268 -2.92769 C394.699 0.714576 381.801 7.26933 373.535 15.5351 C369.422 19.6485 365.807 24.8513 362.846 30.758 C346.429 13.8448 326.428 1.0446 304.18 -6.64588 C276.214 -16.3132 243.857 -21.264 209 -21.264 C144.473 -21.264 95.1945 -4.53134 66.5403 28.0629 C38.3635 60.114 23.736 104.179 23.736 156 C23.736 194.452 39.87 229.757 69.8842 257.299 C99.575 284.545 140.117 302.563 188.251 310.127 L188.269 310.13 L188.287 310.133 C239.741 318.049 280.044 328.366 310.59 341.365 C339.489 353.662 350.736 366.824 350.736 386 C350.736 389.035 349.248 390.151 335.703 392.973 C320.406 396.16 300.227 397.736 274 397.736 C253.545 397.736 236.967 393.1 221.036 382.989 C205.289 372.996 196.469 361.971 191.766 346.687 L191.766 346.687 Z M174.4 363.972 C181.567 378.998 193.591 392.254 208.964 402.011 C227.7 413.9 250.455 420.264 274 420.264 C301.106 420.264 323.594 418.507 340.297 415.027 C358.752 411.182 373.264 400.299 373.264 386 C373.264 358.509 353.178 335.005 319.41 320.635 C287.297 306.97 244.278 295.956 191.749 287.873 L191.713 287.867 C146.532 280.762 112.084 265.448 85.1158 240.701 C58.4633 216.243 46.264 189.548 46.264 156 C46.264 107.821 58.3032 71.5527 83.4597 42.9371 C108.139 14.8647 148.194 1.264 209 1.264 C242.143 1.264 270.786 5.64649 296.82 14.6459 C322.199 23.4189 341.629 37.7357 357.958 59.717 L372.871 79.7917 L378.022 55.3205 C380.398 44.0352 383.785 37.1445 389.465 31.4649 C395.199 25.7307 402.634 21.9521 414.732 18.9277 C427.399 15.7609 443.786 13.732 465.019 12.752 C483.947 11.8784 506.794 11.3897 533.736 11.285 L533.736 90.959 L519.775 91.2383 L518.453 91.2647 L517.173 91.5965 L503.673 95.0965 L499.264 96.2396 L496.889 100.126 L491.389 109.126 L489.921 111.528 L489.755 114.339 L488.755 131.339 L488.736 131.669 L488.736 132 L488.736 327 C488.736 362.71 483.778 391.683 473.598 416.177 C463.446 440.607 449.755 459.357 430.875 474.776 C411.856 490.308 390.179 501.071 363.614 508.112 C336.715 515.242 307.333 518.736 274 518.736 C247.39 518.736 223.053 515.596 199.476 509.136 C175.856 502.665 155.109 493.929 135.795 482.341 C116.57 470.806 101.002 457.68 87.6249 441.755 C76.7834 428.849 68.6153 415.328 62.537 400.138 L174.4 363.972 L174.4 363.972 Z M350.736 192.481 L350.736 213.669 C330.038 205.463 305.42 199.13 277.713 194.867 L277.686 194.863 L277.659 194.859 C246.876 190.274 223.081 184.286 204.871 176.619 C187.659 169.371 183.264 165.362 183.264 161 C183.264 141.647 187.929 128.787 198.57 117.858 C208.864 107.286 225.649 102.264 254 102.264 C281.756 102.264 302.878 108.299 320.968 121.176 C337.998 133.3 347.518 155.259 350.736 192.481 L350.736 192.481 Z M373.264 192 L373.264 191.524 L373.224 191.049 C369.736 149.889 356.263 118.649 334.032 102.824 C312.789 87.7011 284.911 79.736 254 79.736 C222.351 79.736 196.803 87.3803 182.43 102.142 C168.405 116.546 160.736 137.687 160.736 161 C160.736 175.304 175.341 188.629 196.129 197.381 C215.908 205.709 242.427 212.385 274.287 217.133 L274.341 217.141 C308.256 222.363 335.22 230.204 356.963 241.075 L373.264 249.226 L373.264 231 L373.264 192 L373.264 192 Z " />
<glyph glyph-name="b" unicode="b" horiz-adv-x="616" d="M213.264 0 L213.264 -11.264 L202 -11.264 L133 -11.264 L65 -11.264 L53.736 -11.264 L53.736 0 L53.736 5 L53.736 740 L53.736 745 L53.736 750 L53.736 761.264 L65 761.264 L133 761.264 L202 761.264 L213.264 761.264 L213.264 750 L213.264 740 L213.264 493.449 C229.123 506.759 246.892 517.437 265.84 524.968 C292.901 535.723 324.004 541.264 357 541.264 C390.88 541.264 423.193 534.224 451.386 520.649 C479.529 507.099 504.5 487.195 524.284 462.552 C543.987 438.009 559.622 407.805 570.249 373.866 C580.859 339.982 586.264 301.453 586.264 260 C586.264 218.547 580.859 180.018 570.249 146.134 C559.622 112.195 543.987 81.991 524.284 57.4484 C504.5 32.8055 479.529 12.9013 451.386 -0.648883 C423.193 -14.2237 390.88 -21.264 357 -21.264 C324.004 -21.264 292.901 -15.7225 265.84 -4.96759 C246.892 2.56312 229.123 13.2411 213.264 26.551 L213.264 0 L213.264 0 Z M190.736 11.264 L190.736 53 L190.736 82.2031 L210.346 60.564 C228.826 40.1728 249.377 25.8173 274.16 15.9676 C299.099 6.05584 325.996 1.264 357 1.264 C388.454 1.264 415.807 7.22372 441.614 19.6489 C467.471 32.0987 488.5 48.8612 506.716 71.5516 C525.013 94.3424 538.711 120.805 548.751 152.866 C558.807 184.982 563.736 220.119 563.736 260 C563.736 299.881 558.807 335.018 548.751 367.134 C538.711 399.195 525.013 425.658 506.716 448.448 C488.5 471.139 467.471 487.901 441.614 500.351 C415.807 512.776 388.454 518.736 357 518.736 C325.996 518.736 299.099 513.944 274.16 504.032 C249.377 494.183 228.826 479.827 210.346 459.436 L190.736 437.797 L190.736 467 L190.736 738.736 L133 738.736 L76.264 738.736 L76.264 11.264 L133 11.264 L190.736 11.264 L190.736 11.264 Z M309 120.264 C341.745 120.264 365.189 131.639 384.568 156.863 C404.262 182.496 413.736 215.581 413.736 260 C413.736 303.714 404.131 336.431 384.12 362.07 C364.405 387.33 340.759 398.736 308 398.736 C278.503 398.736 257.468 388.901 239.772 366.934 C221.978 344.845 213.264 310.59 213.264 260 C213.264 209.428 222.131 175.012 240.26 152.58 C258.303 130.256 279.52 120.264 309 120.264 L309 120.264 Z M309 97.736 C274.48 97.736 244.03 112.077 222.74 138.42 C201.536 164.655 190.736 206.572 190.736 260 C190.736 313.41 201.355 355.155 222.228 381.066 C243.199 407.099 273.497 421.264 308 421.264 C345.908 421.264 378.929 405.336 401.88 375.93 C424.536 346.902 436.264 306.953 436.264 260 C436.264 212.419 424.738 172.171 402.432 143.137 C379.811 113.694 346.922 97.736 309 97.736 L309 97.736 Z " />
<glyph glyph-name="c" unicode="c" horiz-adv-x="579" d="M407.453 186.955 L411.806 198.562 L422.944 193.121 L553.944 129.121 L562.897 124.747 L559.649 115.328 C552.56 94.7695 540.228 75.1505 524.05 58.6212 C508.079 42.3034 488.347 27.7734 466.285 16.0526 C444.287 4.36625 419.119 -4.96159 392.134 -11.4517 C365.128 -17.9469 335.972 -21.264 306 -21.264 C265.829 -21.264 228.366 -15.6621 195.438 -4.68597 C162.289 6.36365 132.643 23.9717 108.714 46.8602 C84.7305 69.801 65.5268 99.9526 52.4447 135.068 C39.3818 170.131 32.736 212.454 32.736 260 C32.736 307.546 39.3818 349.869 52.4447 384.932 C65.5268 420.047 84.7305 450.199 108.714 473.14 C132.643 496.028 162.289 513.636 195.438 524.686 C228.366 535.662 265.829 541.264 306 541.264 C369.462 541.264 423.254 527.061 463.858 499.298 C504.094 471.786 536.172 434.215 558.136 388.914 L562.99 378.902 L553.037 373.925 L490.037 342.425 L490.006 342.409 L489.974 342.394 L425.974 310.894 L415.837 305.904 L410.879 316.057 C397.283 343.896 382.153 365.201 364.335 381.746 C347.227 397.632 329.195 404.736 306 404.736 C274.453 404.736 251.702 394.331 232.682 371.323 C213.601 348.241 204.264 312.551 204.264 260 C204.264 209.511 213.518 175.628 232.484 153.909 C251.477 132.159 274.334 122.264 306 122.264 C329.734 122.264 349.613 128.026 368.893 140.465 C388.096 152.854 400.116 167.39 407.453 186.955 L407.453 186.955 Z M423.558 167.748 C414.179 149.392 399.546 133.432 381.107 121.535 C359.054 107.307 332.933 99.736 306 99.736 C269.666 99.736 237.856 113.508 215.516 139.091 C193.148 164.705 181.736 206.489 181.736 260 C181.736 315.449 193.066 358.759 215.318 385.677 C237.632 412.669 269.547 427.264 306 427.264 C333.472 427.264 359.44 417.034 379.665 398.254 C396.917 382.234 412.623 361.077 425.985 336.008 L479.963 362.575 L480.026 362.606 L532.826 389.007 C512.647 426.959 485.929 456.916 451.142 480.702 C413.746 506.272 366.538 518.736 306 518.736 C267.504 518.736 233.634 513.671 202.562 503.314 C171.711 493.03 146.357 477.972 124.286 456.86 C102.27 435.801 85.8066 409.953 73.5553 377.068 C61.2849 344.131 55.264 305.788 55.264 260 C55.264 214.212 61.2849 175.869 73.5553 142.932 C85.8066 110.047 102.27 84.199 124.286 63.1398 C146.357 42.0283 171.711 26.9697 202.562 16.686 C233.634 6.32875 267.504 1.264 306 1.264 C334.695 1.264 361.206 4.28022 386.866 10.4517 C412.547 16.6283 435.047 24.9671 455.715 35.9474 C476.319 46.8933 493.254 59.3633 507.95 74.3788 C519.908 86.597 528.582 99.208 534.758 113.421 L423.558 167.748 L423.558 167.748 Z " />
<glyph glyph-name="d" unicode="d" horiz-adv-x="631" d="M32.736 260 C32.736 301.478 38.3222 340.057 49.282 373.964 C60.2513 407.901 76.2353 438.093 96.2767 462.626 C116.397 487.256 141.695 507.133 170.162 520.672 C198.673 534.232 231.127 541.264 265 541.264 C298.819 541.264 331.024 534.607 359.18 521.746 C378.693 512.832 396.773 500.791 412.736 486.155 L412.736 740 L412.736 745 L412.736 750 L412.736 761.264 L424 761.264 L493 761.264 L562 761.264 L573.264 761.264 L573.264 750 L573.264 740 L573.264 10 L573.264 3.25 L573.264 -7.49594 L562.53 -8.00153 L493.53 -11.2515 L493.265 -11.264 L493 -11.264 L424 -11.264 L412.736 -11.264 L412.736 0 L412.736 10 L412.736 33.845 C396.773 19.2089 378.693 7.16758 359.18 -1.74569 C331.024 -14.6069 298.819 -21.264 265 -21.264 C231.127 -21.264 198.673 -14.2324 170.162 -0.672113 C141.695 12.8672 116.397 32.7444 96.2767 57.3739 C76.2353 81.9073 60.2513 112.099 49.282 146.036 C38.3222 179.943 32.736 218.522 32.736 260 L32.736 260 Z M55.264 260 C55.264 220.145 60.3445 185.057 70.718 152.964 C81.082 120.901 95.098 94.426 113.723 71.6261 C132.27 48.9223 153.639 32.1328 179.838 19.6721 C205.993 7.23236 233.54 1.264 265 1.264 C296.515 1.264 323.976 6.94028 349.82 18.7457 C375.649 30.5442 396.797 46.8237 415.326 69.1866 L435.264 93.2492 L435.264 62 L435.264 11.264 L492.735 11.264 L550.736 13.996 L550.736 738.736 L493 738.736 L435.264 738.736 L435.264 458 L435.264 426.751 L415.326 450.813 C396.797 473.176 375.649 489.456 349.82 501.254 C323.976 513.06 296.515 518.736 265 518.736 C233.54 518.736 205.993 512.768 179.838 500.328 C153.639 487.867 132.27 471.078 113.723 448.374 C95.098 425.574 81.082 399.099 70.718 367.036 C60.3445 334.943 55.264 299.855 55.264 260 L55.264 260 Z M412.736 260 C412.736 303.812 403.689 336.684 384.91 362.348 C366.486 387.527 344.615 398.736 314 398.736 C279.829 398.736 255.132 387.23 234.775 361.937 C214.147 336.309 204.264 303.666 204.264 260 C204.264 216.334 214.147 183.691 234.775 158.063 C255.132 132.77 279.829 121.264 314 121.264 C344.615 121.264 366.486 132.473 384.91 157.652 C403.689 183.316 412.736 216.188 412.736 260 L412.736 260 Z M435.264 260 C435.264 213.145 424.311 173.351 403.09 144.348 C381.514 114.86 350.052 98.736 314 98.736 C274.838 98.736 240.868 114.563 217.225 143.937 C193.853 172.975 181.736 212.999 181.736 260 C181.736 307.001 193.853 347.025 217.225 376.063 C240.868 405.437 274.838 421.264 314 421.264 C350.052 421.264 381.514 405.14 403.09 375.652 C424.311 346.649 435.264 306.855 435.264 260 L435.264 260 Z " />
<glyph glyph-name="e" unicode="e" horiz-adv-x="586" d="M409.142 176.995 L412.431 188.921 L423.997 184.531 L560.997 132.531 L570.504 128.923 L567.884 119.098 C562.18 97.7105 550.643 77.2828 534.718 60.2961 C519.006 43.5374 498.615 28.56 475.155 16.4848 C451.796 4.46162 424.756 -5.01969 395.43 -11.4988 C366.127 -17.9728 333.907 -21.264 300 -21.264 C260.48 -21.264 223.649 -15.6516 191.37 -4.66306 C158.866 6.40207 129.86 24.058 106.595 46.9755 C83.3 69.9231 64.6421 100.063 51.9111 135.159 C39.1997 170.201 32.736 212.477 32.736 260 C32.736 307.546 39.3818 349.869 52.4447 384.932 C65.5352 420.07 84.9368 450.25 109.273 473.196 C133.544 496.08 163.695 513.668 197.504 524.708 C231.082 535.672 269.178 541.264 310 541.264 C358.913 541.264 401.849 534.254 436.648 520.473 C471.511 506.665 501.249 486.119 523.52 460.368 C545.701 434.721 562.355 403.025 572.342 367.553 C582.236 332.413 587.264 292.71 587.264 250 L587.264 238.736 L576 238.736 L438 238.736 L204.764 238.736 C207.189 198.496 216.296 170.61 232.516 151.872 C250.193 131.453 271.039 122.264 300 122.264 C330.142 122.264 353.975 127.36 374.279 137.981 C394.094 148.346 404.498 160.163 409.142 176.995 L409.142 176.995 Z M426.568 159.459 C418.598 142.559 403.981 128.094 384.721 118.019 C361.692 105.973 332.524 99.736 300 99.736 C266.294 99.736 236.474 112.881 215.484 137.128 C194.549 161.311 183.114 200.226 181.74 249.687 L181.419 261.264 L193 261.264 L438 261.264 L564.618 261.264 C563.843 297.995 559.23 331.001 550.658 361.447 C541.312 394.642 526.965 421.946 506.48 445.632 C486.085 469.214 460.823 486.668 428.352 499.527 C395.817 512.413 357.087 518.736 310 518.736 C270.822 518.736 236.251 513.661 204.496 503.292 C172.971 492.999 147.123 477.92 124.727 456.804 C102.397 435.75 85.7982 409.93 73.5553 377.068 C61.2849 344.131 55.264 305.788 55.264 260 C55.264 214.189 61.1337 175.799 73.0889 142.841 C85.0245 109.937 101.033 84.0769 122.405 63.0245 C143.807 41.942 168.467 26.9313 198.63 16.6631 C229.018 6.31831 262.187 1.264 300 1.264 C332.76 1.264 362.54 4.3061 390.57 10.4988 C418.577 16.6864 442.871 25.205 464.845 36.5152 C486.718 47.7734 503.994 60.4626 518.282 75.7039 C529.85 88.0429 537.852 100.759 543.091 115.231 L426.568 159.459 L426.568 159.459 Z M227.799 363.264 L399.732 363.264 C392.459 373.878 383.584 382.356 372.418 389.519 C356.316 399.849 336.623 404.736 310 404.736 C288.765 404.736 271.714 400.331 255.768 390.825 C244.525 384.122 235.469 375.286 227.799 363.264 L227.799 363.264 Z M209 340.736 L191.507 340.736 L198.746 356.661 C209.391 380.081 225.281 398.877 244.232 410.175 C262.952 421.335 285.902 427.264 310 427.264 C339.377 427.264 365.351 420.818 384.582 408.481 C403.629 396.262 419.216 378.174 429.207 356.763 L436.687 340.736 L419 340.736 L209 340.736 L209 340.736 Z " />
<glyph glyph-name="f" unicode="f" horiz-adv-x="450" d="M263.264 0 L263.264 -11.264 L252 -11.264 L183 -11.264 L115 -11.264 L103.736 -11.264 L103.736 0 L103.736 5 L103.736 394.736 L30 394.736 L18.736 394.736 L18.736 406 L18.736 520 L18.736 531.264 L30 531.264 L103.736 531.264 L103.736 582 C103.736 644.203 116.887 691.51 142.773 719.193 C168.782 747.009 213.585 761.264 272 761.264 L381 761.264 L392.264 761.264 L392.264 750 L392.264 690 L392.264 629 L392.264 617.736 L381 617.736 L376 617.736 L375.913 617.736 L375.827 617.737 L310.827 618.737 L310.737 618.739 L310.648 618.741 C290.776 619.363 279.712 616.809 272.804 610.925 C266.084 605.201 263.264 597.368 263.264 582 L263.264 531.264 L381 531.264 L392.264 531.264 L392.264 520 L392.264 406 L392.264 394.736 L381 394.736 L263.264 394.736 L263.264 5 L263.264 0 L263.264 0 Z M240.736 11.264 L240.736 406 L240.736 417.264 L252 417.264 L369.736 417.264 L369.736 508.736 L252 508.736 L240.736 508.736 L240.736 520 L240.736 582 C240.736 601.299 246.916 618.466 258.196 628.075 C269.274 637.511 288.507 641.959 311.261 641.261 L369.736 640.362 L369.736 690 L369.736 738.736 L272 738.736 C217.082 738.736 181.218 727.325 159.227 703.807 C137.113 680.157 126.264 641.13 126.264 582 L126.264 520 L126.264 508.736 L115 508.736 L41.264 508.736 L41.264 417.264 L115 417.264 L126.264 417.264 L126.264 406 L126.264 11.264 L183 11.264 L240.736 11.264 L240.736 11.264 Z " />
<glyph glyph-name="g" unicode="g" horiz-adv-x="621" d="M29.736 -81 L29.736 -69.736 L41 -69.736 L200 -69.736 L211.264 -69.736 L211.264 -81 C211.264 -100.29 216.529 -110.602 229.676 -118.27 C244.158 -126.719 262.236 -130.736 287 -130.736 C331.531 -130.736 360.162 -123.14 377.481 -107.613 C394.93 -91.9692 402.736 -73.3958 402.736 -47 L402.736 41.264 C387.137 27.7565 369.778 16.4488 351.271 7.79614 C324.414 -4.76017 293.16 -11.264 260 -11.264 C227.078 -11.264 195.807 -6.11142 168.161 3.91031 C140.225 14.037 115.131 30.7055 95.2078 52.3765 C75.2762 74.0565 59.4162 103.073 48.7507 137.134 C38.123 171.074 32.736 212.606 32.736 260 C32.736 309.368 38.1092 352.353 48.7227 387.275 C59.3681 422.302 75.1546 452.26 95.0311 474.927 C114.944 497.634 140.066 515.055 168.045 525.547 C195.716 535.924 227.047 541.264 260 541.264 C293.191 541.264 324.502 534.567 351.379 521.653 C369.848 512.778 387.169 501.172 402.736 487.301 L402.736 520 L402.736 531.264 L414 531.264 L483 531.264 L483.143 531.264 L483.286 531.26 L552.286 529.51 L563.264 529.232 L563.264 518.25 L563.264 12 C563.264 -30.0315 558.409 -69.0453 548.855 -103.509 C539.219 -138.266 523.465 -169.237 502.653 -194.211 C481.719 -219.332 453.458 -239.441 420.24 -252.936 C387.09 -266.403 346.273 -273.264 300 -273.264 C260.803 -273.264 224.317 -269.822 191.703 -263.027 C158.811 -256.175 129.588 -244.949 105.98 -230.02 C82.0986 -214.919 62.605 -194.126 49.5731 -169.823 C36.5055 -145.454 29.736 -114.9 29.736 -81 L29.736 -81 Z M52.515 -92.264 C53.7166 -118.529 59.2476 -140.194 69.4269 -159.177 C81.0617 -180.874 96.568 -197.414 118.02 -210.98 C139.746 -224.718 165.189 -234.492 196.297 -240.973 C227.683 -247.511 261.863 -250.736 300 -250.736 C344.393 -250.736 380.91 -244.597 411.76 -232.064 C442.542 -219.559 466.281 -202.668 485.347 -179.789 C504.535 -156.763 518.114 -130.068 527.145 -97.4908 C536.258 -64.6214 540.736 -28.6352 540.736 12 L540.736 507.268 L482.857 508.736 L425.264 508.736 L425.264 460 L425.264 430.119 L405.539 452.564 C386.944 473.724 366.25 489.513 341.621 501.347 C317.165 513.099 290.809 518.736 260 518.736 C228.953 518.736 201.617 514.076 175.955 504.453 C150.6 494.945 130.056 480.699 111.969 460.073 C93.8454 439.406 80.2986 413.698 70.2773 380.725 C60.2242 347.647 55.264 307.965 55.264 260 C55.264 214.061 60.2104 175.926 70.2493 143.866 C80.2505 111.927 93.7238 87.2768 111.792 67.6235 C129.869 47.9612 150.441 34.2963 175.839 25.0897 C201.526 15.7781 228.922 11.264 260 11.264 C290.84 11.264 317.253 16.7602 341.729 28.2039 C366.371 39.7247 387.068 55.0554 405.654 75.564 L425.264 97.2031 L425.264 68 L425.264 -47 C425.264 -77.9375 413.737 -105.364 392.519 -124.387 C371.171 -143.527 334.469 -153.264 287 -153.264 C259.764 -153.264 235.842 -147.948 218.324 -137.73 C202.41 -128.446 192.281 -112.021 189.509 -92.264 L52.515 -92.264 L52.515 -92.264 Z M309 398.736 C275.878 398.736 252.107 389.031 232.818 367.905 C213.652 346.913 204.264 312.492 204.264 260 C204.264 210.942 213.519 179.212 232.527 159.902 C251.797 140.327 275.728 131.264 309 131.264 C338.325 131.264 359.042 141.69 376.447 165.202 C394.215 189.205 402.736 219.551 402.736 260 C402.736 303.885 394.109 336.881 376.251 362.571 C358.795 387.683 338.172 398.736 309 398.736 L309 398.736 Z M309 421.264 C343.828 421.264 374.205 404.984 394.749 375.429 C414.891 346.452 425.264 306.782 425.264 260 C425.264 216.449 414.785 179.129 394.553 151.798 C373.958 123.977 343.675 108.736 309 108.736 C271.605 108.736 239.203 121.006 216.473 144.098 C193.481 167.454 181.736 207.724 181.736 260 C181.736 315.508 193.348 358.087 216.182 383.095 C238.893 407.969 271.456 421.264 309 421.264 L309 421.264 Z " />
<glyph glyph-name="h" unicode="h" horiz-adv-x="602" d="M544.264 3.25 L544.264 0 L544.264 -11.264 L533 -11.264 L464 -11.264 L395 -11.264 L383.736 -11.264 L383.736 0 L383.736 5 L383.736 315 C383.736 338.052 377.545 352.709 363.377 364.274 C348.74 376.223 330.96 381.736 306 381.736 C276.309 381.736 254.786 375.322 237.48 361.659 C220.56 348.302 213.264 332.813 213.264 310 L213.264 5 L213.264 0 L213.264 -11.264 L202 -11.264 L133 -11.264 L65 -11.264 L53.736 -11.264 L53.736 0 L53.736 5 L53.736 745 L53.736 750 L53.736 761.264 L65 761.264 L99 761.264 L133 761.264 L202 761.264 L213.264 761.264 L213.264 750 L213.264 740 L213.264 483.533 C228.821 497.285 246.601 508.705 265.925 517.293 C294.083 529.808 326.903 536.264 362 536.264 C416.278 536.264 462.235 516.884 494.932 479.968 C527.593 443.093 544.264 386.628 544.264 315 L544.264 3.25 L544.264 3.25 Z M521.736 11.264 L521.736 315 C521.736 383.372 507.407 431.907 478.068 465.032 C448.765 498.116 411.722 513.736 362 513.736 C329.097 513.736 300.917 508.192 275.075 496.707 C249.221 485.216 228.424 469.733 210.589 448.712 L190.736 425.314 L190.736 456 L190.736 738.736 L133 738.736 L99 738.736 L76.264 738.736 L76.264 11.264 L133 11.264 L190.736 11.264 L190.736 310 C190.736 337.854 202.44 362.698 223.52 379.341 C244.214 395.678 273.024 404.264 306 404.264 C334.373 404.264 359.594 396.444 377.623 381.726 C396.122 366.625 406.264 342.615 406.264 315 L406.264 11.264 L464 11.264 L521.736 11.264 L521.736 11.264 Z " />
<glyph glyph-name="i" unicode="i" horiz-adv-x="265" d="M213.264 584 L213.264 572.736 L202 572.736 L52 572.736 L40.736 572.736 L40.736 584 L40.736 734 L40.736 745.264 L52 745.264 L202 745.264 L213.264 745.264 L213.264 734 L213.264 584 L213.264 584 Z M190.736 595.264 L190.736 722.736 L63.264 722.736 L63.264 595.264 L190.736 595.264 L190.736 595.264 Z M207.264 0 L207.264 -11.264 L196 -11.264 L127 -11.264 L58 -11.264 L46.736 -11.264 L46.736 0 L46.736 5 L46.736 515 L46.736 520 L46.736 531.264 L58 531.264 L127 531.264 L196 531.264 L207.264 531.264 L207.264 520 L207.264 510 L207.264 5 L207.264 0 L207.264 0 Z M184.736 11.264 L184.736 508.736 L127 508.736 L69.264 508.736 L69.264 11.264 L127 11.264 L184.736 11.264 L184.736 11.264 Z " />
<glyph glyph-name="j" unicode="j" horiz-adv-x="284" d="M232.264 584 L232.264 572.736 L221 572.736 L71 572.736 L59.736 572.736 L59.736 584 L59.736 734 L59.736 745.264 L71 745.264 L221 745.264 L232.264 745.264 L232.264 734 L232.264 584 L232.264 584 Z M209.736 595.264 L209.736 722.736 L82.264 722.736 L82.264 595.264 L209.736 595.264 L209.736 595.264 Z M-19 -224.264 L-30.264 -224.264 L-30.264 -213 L-30.264 -92 L-30.264 -80.736 L-19 -80.736 L27 -80.736 C43.7651 -80.736 51.3793 -77.0735 56.6413 -67.5518 C62.6442 -56.6893 65.736 -35.1941 65.736 0 L65.736 515 L65.736 520 L65.736 531.264 L77 531.264 L146 531.264 L215 531.264 L226.264 531.264 L226.264 520 L226.264 510 L226.264 0 C226.264 -41.7156 223.866 -76.9998 219.103 -104.896 C214.264 -133.243 205.412 -157.4 193.254 -174.921 C180.9 -192.727 162.897 -206.377 142.229 -213.629 C122.161 -220.67 96.1065 -224.264 66 -224.264 L-19 -224.264 L-19 -224.264 Z M-7.736 -201.736 L66 -201.736 C94.5602 -201.736 116.839 -198.663 134.771 -192.371 C152.103 -186.29 164.434 -176.94 174.746 -162.079 C185.255 -146.933 192.403 -127.424 196.897 -101.104 C201.467 -74.3335 203.736 -40.951 203.736 0 L203.736 508.736 L146 508.736 L88.264 508.736 L88.264 0 C88.264 -36.8059 84.3558 -63.9774 76.3587 -78.4482 C67.6207 -94.2598 48.9016 -103.264 27 -103.264 L-7.736 -103.264 L-7.736 -201.736 L-7.736 -201.736 Z " />
<glyph glyph-name="k" unicode="k" horiz-adv-x="546" d="M348.66 505.649 L210.183 359.259 L190.736 338.701 L190.736 367 L190.736 738.736 L133 738.736 L99 738.736 L76.264 738.736 L76.264 11.264 L133 11.264 L190.736 11.264 L190.736 188 L190.736 192.656 L194.023 195.953 L505.864 508.736 L440.19 508.736 L348.66 505.649 L348.66 505.649 Z M452 -11.264 L368 -11.264 L360.525 -11.264 L357.621 -4.37666 L259.082 229.301 L213.264 183.344 L213.264 5 L213.264 0 L213.264 -11.264 L202 -11.264 L133 -11.264 L65 -11.264 L53.736 -11.264 L53.736 0 L53.736 5 L53.736 745 L53.736 750 L53.736 761.264 L65 761.264 L99 761.264 L133 761.264 L202 761.264 L213.264 761.264 L213.264 750 L213.264 740 L213.264 395.299 L333.746 522.665 L333.817 522.741 L335.371 524.415 L338.56 527.85 L343.245 528.008 L439.62 531.258 L439.81 531.264 L440 531.264 L533 531.264 L560.136 531.264 L540.977 512.047 L384.368 354.965 L547.214 4.74928 L554.66 -11.264 L537 -11.264 L452 -11.264 L452 -11.264 Z M452 11.264 L519.34 11.264 L367.577 337.647 L276.324 246.394 L375.475 11.264 L452 11.264 L452 11.264 Z " />
<glyph glyph-name="l" unicode="l" horiz-adv-x="265" d="M207.264 0 L207.264 -11.264 L196 -11.264 L127 -11.264 L58 -11.264 L46.736 -11.264 L46.736 0 L46.736 5 L46.736 745 L46.736 750 L46.736 761.264 L58 761.264 L127 761.264 L196 761.264 L207.264 761.264 L207.264 750 L207.264 740 L207.264 5 L207.264 0 L207.264 0 Z M184.736 11.264 L184.736 738.736 L127 738.736 L69.264 738.736 L69.264 11.264 L127 11.264 L184.736 11.264 L184.736 11.264 Z " />
<glyph glyph-name="m" unicode="m" horiz-adv-x="922" d="M868.264 0 L868.264 -11.264 L857 -11.264 L789 -11.264 L720 -11.264 L708.736 -11.264 L708.736 0 L708.736 5 L708.736 315 C708.736 338.095 702.654 352.792 688.789 364.347 C674.486 376.266 657.255 381.736 633 381.736 C604.019 381.736 583.25 375.378 566.633 361.782 C550.334 348.446 543.264 332.893 543.264 310 L543.264 5 L543.264 0 L543.264 -11.264 L532 -11.264 L463 -11.264 L394 -11.264 L382.736 -11.264 L382.736 0 L382.736 5 L382.736 315 C382.736 338.095 376.654 352.792 362.789 364.347 C348.506 376.249 330.948 381.736 306 381.736 C275.632 381.736 253.992 375.329 237.056 361.72 C220.447 348.373 213.264 332.853 213.264 310 L213.264 5 L213.264 0 L213.264 -11.264 L202 -11.264 L133 -11.264 L65 -11.264 L53.736 -11.264 L53.736 0 L53.736 5 L53.736 515 L53.736 520 L53.736 531.264 L65 531.264 L99 531.264 L133 531.264 L202 531.264 L213.264 531.264 L213.264 520 L213.264 510 L213.264 483.533 C228.821 497.285 246.601 508.705 265.925 517.293 C294.083 529.808 326.903 536.264 362 536.264 C398.135 536.264 431.356 527.454 458.459 510.559 C480.559 496.782 499.213 476.418 513.275 451.018 C530.312 475.079 552.287 494.919 577.993 509.326 C609.679 527.084 647.658 536.264 689 536.264 C741.987 536.264 787.126 516.84 819.472 479.923 C851.781 443.049 868.264 386.611 868.264 315 L868.264 4 L868.264 0 L868.264 0 Z M845.736 11.264 L845.736 315 C845.736 383.389 831.553 431.951 802.528 465.077 C773.54 498.16 737.346 513.736 689 513.736 C650.342 513.736 617.987 505.916 589.007 489.674 C560.031 473.435 538.384 451.787 521.806 422.457 L510.61 402.649 L501.647 423.563 C488.27 454.776 470.619 476.432 446.541 491.441 C422.31 506.546 395.198 513.736 362 513.736 C329.097 513.736 300.917 508.192 275.075 496.707 C249.221 485.216 228.424 469.733 210.589 448.712 L190.736 425.314 L190.736 456 L190.736 508.736 L133 508.736 L99 508.736 L76.264 508.736 L76.264 11.264 L133 11.264 L190.736 11.264 L190.736 310 C190.736 337.814 202.22 362.627 222.944 379.28 C243.341 395.671 272.368 404.264 306 404.264 C334.386 404.264 359.494 396.418 377.211 381.653 C395.346 366.541 405.264 342.572 405.264 315 L405.264 11.264 L463 11.264 L520.736 11.264 L520.736 310 C520.736 337.773 532 362.554 552.367 379.218 C572.416 395.622 600.648 404.264 633 404.264 C660.745 404.264 685.514 396.401 703.211 381.653 C721.346 366.541 731.264 342.572 731.264 315 L731.264 11.264 L789 11.264 L845.736 11.264 L845.736 11.264 Z " />
<glyph glyph-name="n" unicode="n" horiz-adv-x="597" d="M544.264 3.25 L544.264 0 L544.264 -11.264 L533 -11.264 L464 -11.264 L395 -11.264 L383.736 -11.264 L383.736 0 L383.736 5 L383.736 315 C383.736 338.052 377.545 352.709 363.377 364.274 C348.74 376.223 330.96 381.736 306 381.736 C276.309 381.736 254.786 375.322 237.48 361.659 C220.56 348.302 213.264 332.813 213.264 310 L213.264 5 L213.264 0 L213.264 -11.264 L202 -11.264 L133 -11.264 L65 -11.264 L53.736 -11.264 L53.736 0 L53.736 5 L53.736 515 L53.736 520 L53.736 531.264 L65 531.264 L99 531.264 L133 531.264 L202 531.264 L213.264 531.264 L213.264 520 L213.264 510 L213.264 483.533 C228.821 497.285 246.601 508.705 265.925 517.293 C294.083 529.808 326.903 536.264 362 536.264 C416.278 536.264 462.235 516.884 494.932 479.968 C527.593 443.093 544.264 386.628 544.264 315 L544.264 3.25 L544.264 3.25 Z M521.736 11.264 L521.736 315 C521.736 383.372 507.407 431.907 478.068 465.032 C448.765 498.116 411.722 513.736 362 513.736 C329.097 513.736 300.917 508.192 275.075 496.707 C249.221 485.216 228.424 469.733 210.589 448.712 L190.736 425.314 L190.736 456 L190.736 508.736 L133 508.736 L99 508.736 L76.264 508.736 L76.264 11.264 L133 11.264 L190.736 11.264 L190.736 310 C190.736 337.854 202.44 362.698 223.52 379.341 C244.214 395.678 273.024 404.264 306 404.264 C334.373 404.264 359.594 396.444 377.623 381.726 C396.122 366.625 406.264 342.615 406.264 315 L406.264 11.264 L464 11.264 L521.736 11.264 L521.736 11.264 Z " />
<glyph glyph-name="o" unicode="o" horiz-adv-x="614" d="M32.736 260 C32.736 307.523 39.1997 349.799 51.9111 384.841 C64.6588 419.983 83.713 450.182 107.714 473.14 C131.643 496.028 161.289 513.636 194.438 524.686 C227.359 535.66 264.488 541.264 304 541.264 C350.266 541.264 391.376 534.412 425.165 520.966 C458.976 507.51 488.121 487.72 510.367 463.042 C532.548 438.434 549.568 407.978 560.249 373.866 C570.859 339.982 576.264 301.453 576.264 260 C576.264 212.477 569.8 170.201 557.089 135.159 C544.341 100.017 525.287 69.8177 501.286 46.8602 C477.357 23.9717 447.711 6.36365 414.562 -4.68597 C381.634 -15.6621 344.171 -21.264 304 -21.264 C258.393 -21.264 217.616 -14.4093 183.835 -0.96571 C150.024 12.4896 120.879 32.2798 98.6334 56.9583 C76.4518 81.5659 59.4322 112.022 48.7507 146.134 C38.1405 180.018 32.736 218.547 32.736 260 L32.736 260 Z M55.264 260 C55.264 220.119 60.1928 184.982 70.2493 152.866 C80.2345 120.978 94.8815 94.7674 115.367 72.0417 C135.788 49.3869 160.642 32.5104 192.165 19.9657 C223.717 7.40927 260.273 1.264 304 1.264 C342.496 1.264 376.366 6.32875 407.438 16.686 C438.289 26.9697 463.643 42.0283 485.714 63.1398 C507.713 84.1823 523.992 109.983 535.911 142.841 C547.866 175.799 553.736 214.189 553.736 260 C553.736 299.881 548.807 335.018 538.751 367.134 C528.765 399.022 514.119 425.233 493.633 447.958 C473.212 470.613 448.358 487.49 416.835 500.034 C385.29 512.588 348.401 518.736 304 518.736 C266.179 518.736 232.641 513.674 201.562 503.314 C170.711 493.03 145.357 477.972 123.286 456.86 C101.287 435.818 85.0079 410.017 73.0889 377.159 C61.1337 344.201 55.264 305.811 55.264 260 L55.264 260 Z M304 109.264 C335.459 109.264 357.755 119.861 376.115 143.423 C394.626 167.179 403.736 204.682 403.736 260 C403.736 307.412 395.573 343.608 378.822 371.737 C362.778 398.678 339.882 410.736 304 410.736 C272.541 410.736 250.245 400.139 231.885 376.577 C213.374 352.821 204.264 315.318 204.264 260 C204.264 212.588 212.427 176.392 229.178 148.263 C245.222 121.322 268.118 109.264 304 109.264 L304 109.264 Z M304 86.736 C262.549 86.736 229.112 104.345 209.822 136.737 C191.239 167.942 181.736 210.079 181.736 260 C181.736 318.015 192.626 362.846 214.115 390.423 C235.755 418.195 267.459 433.264 304 433.264 C345.451 433.264 378.888 415.655 398.178 383.263 C416.761 352.058 426.264 309.921 426.264 260 C426.264 201.985 415.374 157.154 393.885 129.577 C372.245 101.805 340.541 86.736 304 86.736 L304 86.736 Z " />
<glyph glyph-name="p" unicode="p" horiz-adv-x="624" d="M213.264 -191 L213.264 -202.264 L202 -202.264 L133 -202.264 L65 -202.264 L53.736 -202.264 L53.736 -191 L53.736 -186 L53.736 515 L53.736 520 L53.736 531.264 L65 531.264 L99 531.264 L133 531.264 L202 531.264 L213.264 531.264 L213.264 520 L213.264 510 L213.264 493.449 C229.123 506.759 246.892 517.437 265.84 524.968 C292.901 535.723 324.004 541.264 357 541.264 C390.88 541.264 423.193 534.224 451.386 520.649 C479.529 507.099 504.5 487.195 524.284 462.552 C543.987 438.009 559.622 407.805 570.249 373.866 C580.859 339.982 586.264 301.453 586.264 260 C586.264 218.547 580.859 180.018 570.249 146.134 C559.622 112.195 543.987 81.991 524.284 57.4484 C504.5 32.8055 479.529 12.9013 451.386 -0.648883 C423.193 -14.2237 390.88 -21.264 357 -21.264 C324.004 -21.264 292.901 -15.7225 265.84 -4.96759 C246.892 2.56312 229.123 13.2411 213.264 26.551 L213.264 -186 L213.264 -191 L213.264 -191 Z M190.736 -179.736 L190.736 53 L190.736 82.2031 L210.346 60.564 C228.826 40.1728 249.377 25.8173 274.16 15.9676 C299.099 6.05584 325.996 1.264 357 1.264 C388.454 1.264 415.807 7.22372 441.614 19.6489 C467.471 32.0987 488.5 48.8612 506.716 71.5516 C525.013 94.3424 538.711 120.805 548.751 152.866 C558.807 184.982 563.736 220.119 563.736 260 C563.736 299.881 558.807 335.018 548.751 367.134 C538.711 399.195 525.013 425.658 506.716 448.448 C488.5 471.139 467.471 487.901 441.614 500.351 C415.807 512.776 388.454 518.736 357 518.736 C325.996 518.736 299.099 513.944 274.16 504.032 C249.377 494.183 228.826 479.827 210.346 459.436 L190.736 437.797 L190.736 467 L190.736 508.736 L133 508.736 L99 508.736 L76.264 508.736 L76.264 -179.736 L133 -179.736 L190.736 -179.736 L190.736 -179.736 Z M308 121.264 C340.759 121.264 364.405 132.67 384.12 157.93 C404.131 183.569 413.736 216.286 413.736 260 C413.736 303.714 404.131 336.431 384.12 362.07 C364.405 387.33 340.759 398.736 308 398.736 C278.503 398.736 257.468 388.901 239.772 366.934 C221.978 344.845 213.264 310.59 213.264 260 C213.264 209.41 221.978 175.155 239.772 153.066 C257.468 131.099 278.503 121.264 308 121.264 L308 121.264 Z M308 98.736 C273.497 98.736 243.199 112.901 222.228 138.934 C201.355 164.845 190.736 206.59 190.736 260 C190.736 313.41 201.355 355.155 222.228 381.066 C243.199 407.099 273.497 421.264 308 421.264 C345.908 421.264 378.929 405.336 401.88 375.93 C424.536 346.902 436.264 306.953 436.264 260 C436.264 213.047 424.536 173.098 401.88 144.07 C378.929 114.664 345.908 98.736 308 98.736 L308 98.736 Z " />
<glyph glyph-name="q" unicode="q" horiz-adv-x="631" d="M32.736 260 C32.736 301.478 38.3222 340.057 49.282 373.964 C60.2513 407.901 76.2353 438.093 96.2767 462.626 C116.397 487.256 141.695 507.133 170.162 520.672 C198.673 534.232 231.127 541.264 265 541.264 C298.819 541.264 331.024 534.607 359.18 521.746 C378.693 512.832 396.773 500.791 412.736 486.155 L412.736 520 L412.736 531.264 L424 531.264 L493 531.264 L493.143 531.264 L493.286 531.26 L562.286 529.51 L573.264 529.232 L573.264 518.25 L573.264 -188 L573.264 -198.785 L562.489 -199.253 L493.489 -202.253 L493.245 -202.264 L493 -202.264 L424 -202.264 L412.736 -202.264 L412.736 -191 L412.736 -186 L412.736 33.845 C396.773 19.2089 378.693 7.16758 359.18 -1.74569 C331.024 -14.6069 298.819 -21.264 265 -21.264 C231.127 -21.264 198.673 -14.2324 170.162 -0.672113 C141.695 12.8672 116.397 32.7444 96.2767 57.3739 C76.2353 81.9073 60.2513 112.099 49.282 146.036 C38.3222 179.943 32.736 218.522 32.736 260 L32.736 260 Z M55.264 260 C55.264 220.145 60.3445 185.057 70.718 152.964 C81.082 120.901 95.098 94.426 113.723 71.6261 C132.27 48.9223 153.639 32.1328 179.838 19.6721 C205.993 7.23236 233.54 1.264 265 1.264 C296.515 1.264 323.976 6.94028 349.82 18.7457 C375.649 30.5442 396.797 46.8237 415.326 69.1866 L435.264 93.2492 L435.264 62 L435.264 -179.736 L492.755 -179.736 L550.736 -177.215 L550.736 507.268 L492.857 508.736 L435.264 508.736 L435.264 458 L435.264 426.751 L415.326 450.813 C396.797 473.176 375.649 489.456 349.82 501.254 C323.976 513.06 296.515 518.736 265 518.736 C233.54 518.736 205.993 512.768 179.838 500.328 C153.639 487.867 132.27 471.078 113.723 448.374 C95.098 425.574 81.082 399.099 70.718 367.036 C60.3445 334.943 55.264 299.855 55.264 260 L55.264 260 Z M412.736 260 C412.736 303.812 403.689 336.684 384.91 362.348 C366.486 387.527 344.615 398.736 314 398.736 C279.829 398.736 255.132 387.23 234.775 361.937 C214.147 336.309 204.264 303.666 204.264 260 C204.264 216.334 214.147 183.691 234.775 158.063 C255.132 132.77 279.829 121.264 314 121.264 C344.615 121.264 366.486 132.473 384.91 157.652 C403.689 183.316 412.736 216.188 412.736 260 L412.736 260 Z M435.264 260 C435.264 213.145 424.311 173.351 403.09 144.348 C381.514 114.86 350.052 98.736 314 98.736 C274.838 98.736 240.868 114.563 217.225 143.937 C193.853 172.975 181.736 212.999 181.736 260 C181.736 307.001 193.853 347.025 217.225 376.063 C240.868 405.437 274.838 421.264 314 421.264 C350.052 421.264 381.514 405.14 403.09 375.652 C424.311 346.649 435.264 306.855 435.264 260 L435.264 260 Z " />
<glyph glyph-name="r" unicode="r" horiz-adv-x="407" d="M388 531.264 L399.264 531.264 L399.264 520 L399.264 362 L399.264 350.736 L388 350.736 L363 350.736 C306.73 350.736 269.83 339.13 247.172 315.247 C224.134 290.964 213.264 260.705 213.264 220 L213.264 5 L213.264 0 L213.264 -11.264 L202 -11.264 L133 -11.264 L65 -11.264 L53.736 -11.264 L53.736 0 L53.736 5 L53.736 515 L53.736 520 L53.736 531.264 L65 531.264 L99 531.264 L133 531.264 L202 531.264 L213.264 531.264 L213.264 520 L213.264 510 L213.264 466.712 C228.235 483.314 245.959 497.11 265.778 507.48 C295.815 523.197 333.818 531.264 377 531.264 L388 531.264 L388 531.264 Z M376.736 508.736 C336.041 508.706 303.46 501.772 276.222 487.52 C248.909 473.228 228.121 453.796 211.577 427.071 L190.736 393.404 L190.736 433 L190.736 508.736 L133 508.736 L99 508.736 L76.264 508.736 L76.264 11.264 L133 11.264 L190.736 11.264 L190.736 220 C190.736 264.628 204.533 303.036 230.828 330.753 C257.503 358.87 303.27 373.264 363 373.264 L376.736 373.264 L376.736 508.736 L376.736 508.736 Z " />
<glyph glyph-name="s" unicode="s" horiz-adv-x="524" d="M486.039 406.108 L487.264 403.701 L487.264 403.159 L488.575 400.537 L488.668 400.351 L488.754 400.161 L491.254 394.661 L495.966 384.296 L485.551 379.696 L365.551 326.696 L355.504 322.259 L350.815 332.19 C339.942 355.214 327.172 372.642 311.142 386.471 C295.466 399.995 282.028 405.736 267 405.736 C242.362 405.736 223.998 403.459 210.062 398.814 C197.324 394.568 195.264 392.691 195.264 389 C195.264 376.099 200.815 366.773 215.582 356.141 C230.913 345.103 253.075 337.309 284.699 332.136 C356.649 321.938 412.775 299.512 449.604 265.81 C486.606 231.95 506.264 189.481 506.264 143 C506.264 119.492 499.958 96.3705 488.159 76.7047 C476.461 57.2085 459.155 39.7163 438.139 26.0558 C417.279 12.4969 391.552 1.77734 362.732 -5.42769 C334.007 -12.609 301.634 -16.264 267 -16.264 C237.032 -16.264 207.725 -12.9496 180.397 -6.45916 C153.041 0.0378351 127.63 9.56715 105.595 21.6173 C83.5611 33.6673 63.7259 48.499 47.4518 65.1194 C31.021 81.8998 17.9636 101.762 9.54164 122.817 L5.30859 133.399 L15.9405 137.507 L81.9405 163.007 L81.9669 163.017 L81.9933 163.027 L148.993 188.527 L159.762 192.626 L163.616 181.767 C170.257 163.051 181.892 149.362 201.318 137.645 C220.944 125.807 241.804 120.264 267 120.264 C294.493 120.264 315.31 122.142 330.821 125.941 C345.285 129.483 346.736 130.43 346.736 131 C346.736 142.992 340.782 152.143 324.633 163.208 C307.973 174.623 283.432 182.656 248.407 187.849 L248.349 187.858 C181.592 197.403 129.131 219.638 94.6168 253.454 C60.0248 287.348 41.736 330.021 41.736 377 C41.736 400.42 47.624 423.402 58.6873 443.031 C69.6693 462.515 85.8951 480.046 105.563 493.743 C125.111 507.357 149.409 518.156 176.606 525.386 C203.705 532.589 234.327 536.264 267 536.264 C312.506 536.264 356.411 524.306 395.707 501.211 C435.074 478.075 465.962 445.57 486.039 406.108 L486.039 406.108 Z M464.736 398.265 C446.216 433.638 420.129 460.727 384.293 481.789 C347.589 503.36 309.494 513.736 267 513.736 C235.673 513.736 207.962 510.411 182.394 503.614 C156.924 496.844 136.223 487.643 118.437 475.257 C100.772 462.954 87.9973 449.152 78.3127 431.969 C68.7093 414.931 64.264 397.58 64.264 377 C64.264 334.645 78.9752 300.319 110.383 269.546 C141.859 238.706 187.711 219.277 251.593 210.151 L251.622 210.147 L251.651 210.142 C288.595 204.669 318.036 195.037 337.367 181.792 C357.218 168.19 369.264 149.675 369.264 131 C369.264 118.236 354.381 108.517 336.179 104.059 C319.023 99.8577 295.507 97.736 267 97.736 C238.862 97.736 212.056 104.859 189.682 118.355 C170.718 129.793 155.901 145.486 146.889 163.622 L90.0595 141.993 L90.0067 141.973 L35.078 120.75 C42.1909 106.183 51.4565 93.2296 63.5482 80.8806 C78.6074 65.501 95.7722 52.666 116.405 41.3827 C137.037 30.0995 159.625 21.6288 185.603 15.4592 C211.608 9.28292 238.302 6.264 267 6.264 C300.366 6.264 329.993 9.60901 357.268 16.4277 C384.448 23.2227 406.721 32.5031 425.861 44.9442 C444.845 57.2837 458.539 71.1248 468.841 88.2953 C479.042 105.296 483.736 122.508 483.736 143 C483.736 184.519 468.061 218.383 434.396 249.19 C400.579 280.135 350.747 300.037 281.422 309.847 L281.303 309.864 L281.185 309.883 C247.537 315.377 220.402 324.911 202.418 337.859 C183.852 351.227 172.736 369.901 172.736 389 C172.736 402.642 185.676 414.432 202.938 420.186 C219.002 425.541 240.971 428.264 267 428.264 C286.638 428.264 307.534 419.338 325.858 403.529 C341.423 390.1 355.183 372.369 366.251 351.633 L465.846 395.621 L464.736 397.841 L464.736 398.265 L464.736 398.265 Z " />
<glyph glyph-name="t" unicode="t" horiz-adv-x="385" d="M238.264 531.264 L340 531.264 L351.264 531.264 L351.264 520 L351.264 406 L351.264 394.736 L340 394.736 L238.264 394.736 L238.264 148.417 L239.003 138.445 L240.928 135.718 L251.381 132.683 L279.286 131.264 L340 131.264 L351.264 131.264 L351.264 120 L351.264 0 L351.264 -11.264 L340 -11.264 L215 -11.264 C184.398 -11.264 159.429 -8.58875 141.763 -3.28896 C123.485 2.19451 107.867 12.6063 98.3341 25.9529 C89.0053 39.0133 83.0627 57.0391 81.2806 76.9983 C79.5872 95.9643 78.736 119.799 78.736 148 L78.736 394.736 L10 394.736 L-1.264 394.736 L-1.264 406 L-1.264 520 L-1.264 531.264 L10 531.264 L78.736 531.264 L78.736 655 L78.736 660.222 L82.7213 663.596 L219.721 779.596 L238.264 795.297 L238.264 771 L238.264 531.264 L238.264 531.264 Z M227 508.736 L215.736 508.736 L215.736 520 L215.736 746.703 L101.264 649.778 L101.264 520 L101.264 508.736 L90 508.736 L21.264 508.736 L21.264 417.264 L90 417.264 L101.264 417.264 L101.264 406 L101.264 148 C101.264 120.201 102.079 97.369 103.719 79.0017 C105.271 61.6276 109.328 49.32 116.666 39.0471 C123.799 29.0604 133.182 22.8055 148.237 18.289 C163.904 13.5888 185.602 11.264 215 11.264 L328.736 11.264 L328.736 108.736 L279 108.736 L278.714 108.736 L278.428 108.751 L248.928 110.251 L247.619 110.317 L246.359 110.683 L230.859 115.183 L227.072 116.282 L224.798 119.504 L218.798 128.004 L216.997 130.555 L216.767 133.668 L215.767 147.168 L215.736 147.583 L215.736 148 L215.736 406 L215.736 417.264 L227 417.264 L328.736 417.264 L328.736 508.736 L227 508.736 L227 508.736 Z " />
<glyph glyph-name="u" unicode="u" horiz-adv-x="586" d="M367.736 520 L367.736 531.264 L379 531.264 L448 531.264 L517 531.264 L528.264 531.264 L528.264 520 L528.264 10 L528.264 5 L528.264 0 L528.264 -11.264 L517 -11.264 L448 -11.264 L379 -11.264 L367.736 -11.264 L367.736 0 L367.736 10 L367.736 44.304 C354.821 28.4317 339.946 14.9923 323.572 4.51265 C297.159 -12.3915 265.551 -21.264 232 -21.264 C197.729 -21.264 167.689 -16.2274 144.157 -6.39294 C120.42 3.5269 100.262 19.3109 86.3116 38.9846 C72.5341 58.4144 62.4749 83.6539 56.9396 112.368 C51.4923 140.626 48.736 173.529 48.736 210 L48.736 515 L48.736 520 L48.736 531.264 L60 531.264 L128 531.264 L197 531.264 L208.264 531.264 L208.264 520 L208.264 210 C208.264 182.053 212.876 163.605 222.511 150.758 C231.426 138.872 247.868 133.264 278 133.264 C305.472 133.264 325.203 142.589 342.254 163.598 C359.538 184.894 367.736 211.685 367.736 248 L367.736 515 L367.736 520 L367.736 520 Z M390.264 508.736 L390.264 248 C390.264 208.315 379.796 174.106 359.746 149.402 C339.464 124.411 310.528 110.736 278 110.736 C244.132 110.736 217.574 119.794 204.489 137.242 C192.124 153.728 185.736 179.28 185.736 210 L185.736 508.736 L128 508.736 L71.264 508.736 L71.264 210 C71.264 174.471 73.8411 143.707 79.0604 116.632 C84.1918 90.0128 92.4659 69.2523 104.688 52.0154 C116.738 35.0224 131.913 23.1398 152.843 14.3929 C173.978 5.56071 199.604 1.264 232 1.264 C262.449 1.264 287.841 8.39153 311.428 23.4873 C335.193 38.697 353.808 58.9768 369.164 86.4897 L390.264 124.293 L390.264 81 L390.264 11.264 L448 11.264 L505.736 11.264 L505.736 508.736 L448 508.736 L390.264 508.736 L390.264 508.736 Z " />
<glyph glyph-name="v" unicode="v" horiz-adv-x="549" d="M515 531.264 L529.427 531.264 L525.928 517.268 L525.615 516.018 L525.497 515.544 L525.337 515.082 L346.65 -3.66844 L344.034 -11.264 L336 -11.264 L304 -11.264 L209 -11.264 L184 -11.264 L175.876 -11.264 L173.312 -3.55582 L0.311978 516.444 L-4.61846 531.264 L11 531.264 L89 531.264 L167 531.264 L175.683 531.264 L177.893 522.867 L257.176 221.591 L338.38 520.33 L340.567 528.372 L348.897 528.633 L432.647 531.258 L432.824 531.264 L433 531.264 L515 531.264 L515 531.264 Z M499.324 508.736 L433.176 508.736 L357.933 506.378 L267.87 175.045 L256.824 134.409 L246.107 175.133 L158.317 508.736 L89 508.736 L26.618 508.736 L192.124 11.264 L209 11.264 L304 11.264 L327.966 11.264 L499.324 508.736 L499.324 508.736 Z " />
<glyph glyph-name="w" unicode="w" horiz-adv-x="785" d="M758.97 529.762 L772.626 529.495 L769.764 516.14 L769.014 512.64 L768.931 512.251 L768.82 511.869 L619.82 -3.13052 L617.467 -11.264 L609 -11.264 L577 -11.264 L495 -11.264 L470 -11.264 L461.415 -11.264 L459.139 -2.98586 L389.933 248.752 L319.851 -3.02051 L317.557 -11.264 L309 -11.264 L277 -11.264 L195 -11.264 L170 -11.264 L161.542 -11.264 L159.183 -3.14114 L8.18284 516.859 L3.99981 531.264 L19 531.264 L93 531.264 L166 531.264 L175.125 531.264 L177.019 522.338 L239.96 225.737 L315.08 522.762 L317.23 531.264 L326 531.264 L446 531.264 L453 531.264 L468.251 531.264 L463.766 516.687 L460.693 506.7 L531.01 227.973 L592.978 522.321 L594.86 531.264 L604 531.264 L682 531.264 L682.11 531.264 L682.22 531.262 L758.97 529.762 L758.97 529.762 Z M744.11 507.52 L681.89 508.736 L613.14 508.736 L543.022 175.679 L532.99 128.027 L521.078 175.245 L438.078 504.245 L437.307 507.3 L437.749 508.736 L334.77 508.736 L249.92 173.238 L238.04 126.263 L227.981 173.662 L156.875 508.736 L93 508.736 L34 508.736 L178.458 11.264 L195 11.264 L277 11.264 L300.443 11.264 L379.149 294.021 L390.067 333.248 L400.861 293.986 L478.585 11.264 L495 11.264 L577 11.264 L600.533 11.264 L744.11 507.52 L744.11 507.52 Z " />
<glyph glyph-name="x" unicode="x" horiz-adv-x="587" d="M274.868 432.303 L341.058 525.76 L344.391 530.466 L350.158 530.514 L441.908 531.264 L441.954 531.264 L442 531.264 L532 531.264 L553.725 531.264 L541.206 513.509 L380.855 286.102 L581.984 9.62636 L594.436 -7.49089 L573.282 -8.25663 L490.407 -11.2566 L490.171 -11.2652 L489.935 -11.2638 L403.935 -10.7638 L398.237 -10.7307 L394.888 -6.12191 L283.115 147.682 L174.19 -6.01308 L170.846 -10.7321 L165.062 -10.7638 L74.0619 -11.2638 L74.0309 -11.264 L74 -11.264 L-16 -11.264 L-37.7493 -11.264 L-25.1997 6.49946 L177.143 292.907 L16.8887 513.377 L3.88726 531.264 L26 531.264 L112 531.264 L197 531.264 L202.728 531.264 L206.102 526.635 L274.868 432.303 L274.868 432.303 Z M284.192 406.49 L275.132 393.697 L265.898 406.365 L191.272 508.736 L112 508.736 L48.113 508.736 L200.111 299.623 L204.857 293.093 L200.2 286.501 L5.749 11.264 L73.9381 11.2638 L74 11.264 L159.154 11.732 L273.81 173.513 L282.885 186.318 L292.112 173.622 L409.763 11.731 L489.829 11.265 L551.314 13.491 L357.891 279.374 L353.145 285.898 L357.794 292.491 L510.275 508.736 L442.092 508.736 L442 508.736 L356.109 508.034 L284.192 406.49 L284.192 406.49 Z " />
<glyph glyph-name="y" unicode="y" horiz-adv-x="564" d="M112 -258.264 L62 -258.264 L50.736 -258.264 L50.736 -247 L50.736 -120 L50.736 -108.736 L62 -108.736 L112 -108.736 C141.125 -108.736 159.744 -105.827 170.754 -100.032 C181.061 -94.6073 187.747 -85.5919 193.164 -68.9 L198.292 -48.391 L16.2787 516.546 L11.5367 531.264 L27 531.264 L105 531.264 L183 531.264 L191.891 531.264 L193.956 522.616 L268.718 209.496 L353.382 520.335 L355.571 528.373 L363.897 528.633 L447.647 531.258 L447.918 531.267 L448.19 531.262 L529.877 529.887 L545.15 529.63 L540.391 515.116 L328.725 -130.444 C321.191 -154.399 311.716 -175.307 300.903 -191.702 C289.857 -208.448 274.944 -222.597 258.111 -232.267 C241.453 -241.837 220.35 -248.81 196.799 -252.619 C173.608 -256.371 145.039 -258.264 112 -258.264 L112 -258.264 Z M112 -235.736 C144.294 -235.736 171.059 -233.962 193.201 -230.381 C214.983 -226.857 232.214 -221.163 246.889 -212.733 C261.39 -204.403 272.476 -193.885 282.097 -179.298 C291.94 -164.375 300.125 -146.306 307.254 -123.623 L307.275 -123.557 L307.297 -123.491 L514.225 507.62 L448.082 508.733 L372.929 506.377 L278.868 161.04 L267.282 118.504 L257.044 161.384 L174.109 508.736 L105 508.736 L42.463 508.736 L220.721 -44.5458 L221.708 -47.6094 L220.928 -50.7319 L214.928 -74.7319 L214.837 -75.0928 L214.724 -75.4469 C208.16 -95.8663 196.201 -112.097 181.246 -119.968 C166.922 -127.507 142.875 -131.264 112 -131.264 L73.264 -131.264 L73.264 -235.736 L112 -235.736 L112 -235.736 Z " />
<glyph glyph-name="z" unicode="z" horiz-adv-x="484" d="M33.736 463 L33.736 520 L33.736 531.264 L45 531.264 L449 531.264 L460.264 531.264 L460.264 520 L460.264 431 L460.264 427.105 L457.858 424.042 L223.171 125.264 L460 125.264 L465 125.264 L476.264 125.264 L476.264 114 L476.264 57 L476.264 0 L476.264 -11.264 L465 -11.264 L30 -11.264 L18.736 -11.264 L18.736 0 L18.736 89 L18.736 92.8081 L21.0467 95.835 L249.23 394.736 L50 394.736 L45 394.736 L33.736 394.736 L33.736 406 L33.736 463 L33.736 463 Z M56.264 463 L56.264 417.264 L272 417.264 L294.77 417.264 L280.953 399.165 L41.264 85.192 L41.264 11.264 L453.736 11.264 L453.736 57 L453.736 102.736 L200 102.736 L176.829 102.736 L191.142 120.958 L437.736 434.895 L437.736 508.736 L56.264 508.736 L56.264 463 L56.264 463 Z " />
<glyph glyph-name="braceleft" unicode="&#x7b;" horiz-adv-x="373" d="M265 761.264 L344 761.264 L355.264 761.264 L355.264 750 L355.264 672 L355.264 660.736 L344 660.736 L265 660.736 C254.507 660.736 248.478 657.49 241.666 647.953 C234.516 637.943 231.264 625.846 231.264 608 L231.264 410 C231.264 383.926 225.022 359.335 213.204 339.281 C204.99 325.341 193.958 313.385 181.006 304.229 C193.987 295.29 205.049 283.306 213.248 269.144 C225.038 248.78 231.264 224.064 231.264 198 L231.264 0 C231.264 -17.8458 234.516 -29.943 241.666 -39.9529 C248.478 -49.4899 254.507 -52.736 265 -52.736 L344 -52.736 L355.264 -52.736 L355.264 -64 L355.264 -142 L355.264 -153.264 L344 -153.264 L265 -153.264 C222.174 -153.264 185.2 -138.55 158.828 -110.753 C132.533 -83.0355 118.736 -44.6284 118.736 0 L118.736 216 C118.736 230.31 114.88 239.125 105.169 247.448 C95.2212 255.975 83.5615 259.736 66 259.736 L55 259.736 L43.736 259.736 L43.736 271 L43.736 337 L43.736 348.264 L55 348.264 L66 348.264 C83.5615 348.264 95.2212 352.025 105.169 360.552 C114.839 368.841 118.736 377.97 118.736 393 L118.736 608 C118.736 652.628 132.533 691.036 158.828 718.753 C185.2 746.55 222.174 761.264 265 761.264 L265 761.264 Z M265 738.736 C226.492 738.736 198.133 727.45 175.172 703.247 C152.134 678.964 141.264 648.705 141.264 608 L141.264 393 C141.264 373.363 133.494 355.159 119.831 343.448 C106.501 332.023 87.2664 325.788 66.264 325.736 L66.264 282.264 C87.2664 282.212 106.501 275.977 119.831 264.552 C133.454 252.875 141.264 235.023 141.264 216 L141.264 0 C141.264 -40.7049 152.134 -70.9645 175.172 -95.2474 C198.133 -119.45 226.492 -130.736 265 -130.736 L332.736 -130.736 L332.736 -75.264 L265 -75.264 C248.827 -75.264 233.189 -66.8435 223.334 -53.0471 C213.817 -39.7237 208.736 -20.8209 208.736 0 L208.736 198 C208.736 221.27 203.962 240.22 193.752 257.856 C183.659 275.29 171.267 286.32 153.693 293.592 L129.54 303.586 L153.392 314.279 C171.109 322.22 183.674 333.543 193.796 350.719 C203.978 367.998 208.736 386.741 208.736 410 L208.736 608 C208.736 628.821 213.817 647.724 223.334 661.047 C233.189 674.843 248.827 683.264 265 683.264 L332.736 683.264 L332.736 738.736 L265 738.736 L265 738.736 Z " />
<glyph glyph-name="bar" unicode="&#x7c;" horiz-adv-x="179" d="M45 -308.264 L33.736 -308.264 L33.736 -297 L33.736 800 L33.736 811.264 L45 811.264 L135 811.264 L146.264 811.264 L146.264 800 L146.264 -297 L146.264 -308.264 L135 -308.264 L45 -308.264 L45 -308.264 Z M56.264 -285.736 L123.736 -285.736 L123.736 788.736 L56.264 788.736 L56.264 -285.736 L56.264 -285.736 Z " />
<glyph glyph-name="braceright" unicode="&#x7d;" horiz-adv-x="373" d="M30 660.736 L18.736 660.736 L18.736 672 L18.736 750 L18.736 761.264 L30 761.264 L109 761.264 C151.826 761.264 188.8 746.55 215.172 718.753 C241.467 691.036 255.264 652.628 255.264 608 L255.264 452 C255.264 432.302 255.18 417.456 255.012 407.559 C254.928 402.579 254.818 398.701 254.687 396.115 C254.618 394.76 254.523 393.46 254.42 392.595 C254.398 392.409 254.366 392.178 254.327 391.93 C255.128 377.668 259.396 368.639 268.831 360.552 C278.779 352.025 290.438 348.264 308 348.264 L319 348.264 L330.264 348.264 L330.264 337 L330.264 271 L330.264 259.736 L319 259.736 L308 259.736 C290.438 259.736 278.779 255.975 268.831 247.448 C259.082 239.092 254.879 230.077 254.265 215.793 L255.264 0.0521476 L255.264 0.0260739 L255.264 0 C255.264 -44.6284 241.467 -83.0355 215.172 -110.753 C188.8 -138.55 151.826 -153.264 109 -153.264 L30 -153.264 L18.736 -153.264 L18.736 -142 L18.736 -64 L18.736 -52.736 L30 -52.736 L109 -52.736 C119.493 -52.736 125.522 -49.4899 132.334 -39.9529 C139.484 -29.943 142.736 -17.8458 142.736 0 L142.736 198 C142.736 224.064 148.962 248.78 160.752 269.144 C168.951 283.306 180.013 295.29 192.994 304.229 C180.042 313.385 169.01 325.341 160.796 339.281 C148.978 359.335 142.736 383.926 142.736 410 L142.736 608 C142.736 625.846 139.484 637.943 132.334 647.953 C125.522 657.49 119.493 660.736 109 660.736 L30 660.736 L30 660.736 Z M41.264 683.264 L109 683.264 C125.173 683.264 140.811 674.843 150.666 661.047 C160.183 647.724 165.264 628.821 165.264 608 L165.264 410 C165.264 386.741 170.022 367.998 180.204 350.719 C190.326 333.543 202.891 322.22 220.608 314.279 L244.46 303.586 L220.307 293.592 C202.733 286.32 190.341 275.29 180.248 257.856 C170.038 240.22 165.264 221.27 165.264 198 L165.264 0 C165.264 -20.8209 160.183 -39.7237 150.666 -53.0471 C140.811 -66.8435 125.173 -75.264 109 -75.264 L41.264 -75.264 L41.264 -130.736 L109 -130.736 C147.508 -130.736 175.867 -119.45 198.828 -95.2474 C221.856 -70.9748 232.727 -40.7309 232.736 -0.0521476 L232.736 0 L231.736 215.948 L231.735 216.199 L231.745 216.45 C232.501 235.359 240.64 252.955 254.169 264.552 C267.499 275.977 286.734 282.212 307.736 282.264 L307.736 325.736 C286.734 325.788 267.499 332.023 254.169 343.448 C240.598 355.08 232.495 373.037 231.744 392.567 L243 393 L243 404.264 C236.236 404.264 232.493 397.14 232.204 396.006 C232.123 395.687 232.042 395.19 232.049 395.249 C232.092 395.613 232.132 396.157 232.188 397.26 C232.307 399.591 232.405 403.088 232.488 407.941 C232.653 417.711 232.736 432.365 232.736 452 L232.736 608 C232.736 648.705 221.866 678.964 198.828 703.247 C175.867 727.45 147.508 738.736 109 738.736 L41.264 738.736 L41.264 683.264 L41.264 683.264 Z " />
<glyph glyph-name="[namenotfound]" unicode="&#xa0;" horiz-adv-x="247" d="" />
<glyph glyph-name="exclamdown" unicode="&#xa1;" horiz-adv-x="251" d="M39.736 520 L39.736 531.264 L51 531.264 L201 531.264 L212.264 531.264 L212.264 520 L212.264 370 L212.264 358.736 L201 358.736 L51 358.736 L39.736 358.736 L39.736 370 L39.736 520 L39.736 520 Z M62.264 508.736 L62.264 381.264 L189.736 381.264 L189.736 508.736 L62.264 508.736 L62.264 508.736 Z M217.874 82.9389 L218.264 81.4953 L218.264 80 L218.264 -230 L218.264 -241.264 L207 -241.264 L45 -241.264 L33.736 -241.264 L33.736 -230 L33.736 80 L33.736 81.4953 L34.1261 82.9389 L94.1261 304.939 L96.3762 313.264 L105 313.264 L147 313.264 L155.624 313.264 L157.874 304.939 L217.874 82.9389 L217.874 82.9389 Z M195.736 78.505 L138.376 290.736 L113.624 290.736 L56.264 78.505 L56.264 -218.736 L195.736 -218.736 L195.736 78.505 L195.736 78.505 Z " />
<glyph glyph-name="cent" unicode="&#xa2;" horiz-adv-x="575" d="M253.736 538.038 L253.736 595 L253.736 606.264 L265 606.264 L343 606.264 L354.264 606.264 L354.264 595 L354.264 538.155 C409.673 531.678 454.576 514.36 485.911 486.983 C518.81 458.239 542.365 420.672 554.809 377.168 L554.831 377.094 C566.827 336.101 561.491 299.418 538.992 273.6 C516.745 248.071 479.98 234.736 434 234.736 C406.572 234.736 381.997 244.203 364.95 261.621 C360.951 265.707 357.383 270.195 354.264 275.027 L354.264 133.577 C363.265 137.968 371.213 143.545 378.759 150.683 C390.203 161.508 397.971 172.948 403.51 187.105 L407.964 198.485 L418.944 193.121 L549.944 129.121 L559.121 124.638 L555.555 115.068 C542.18 79.1668 515.24 48.0111 477.462 24.4432 C442.473 2.61508 400.727 -11.7233 354.264 -17.979 L354.264 -75 L354.264 -86.264 L343 -86.264 L265 -86.264 L253.736 -86.264 L253.736 -75 L253.736 -18.037 C189.636 -9.62726 135.971 16.8269 96.2256 59.8572 C54.1783 105.38 32.736 173.605 32.736 260 C32.736 347.057 54.1821 415.472 96.2549 460.674 C136.001 503.377 189.652 529.647 253.736 538.038 L253.736 538.038 Z M276.264 528 L276.264 517.806 L266.121 516.792 C201.363 510.316 151.586 487.056 112.745 445.326 C74.1513 403.861 55.264 343.609 55.264 260 C55.264 177.062 74.1551 116.954 112.774 75.1428 C151.617 33.0905 201.378 9.68236 266.121 3.2081 L276.264 2.19378 L276.264 -8 L276.264 -63.736 L331.736 -63.736 L331.736 -8 L331.736 2.1119 L341.789 3.19875 C389.953 8.40559 430.366 21.6147 465.538 43.5568 C496.946 63.1505 517.957 85.7797 530.561 113.518 L419.459 167.797 C413.083 155.462 404.455 143.979 394.241 134.317 C380.973 121.766 364.287 111.985 346.433 106.272 L331.736 101.569 L331.736 117 L331.736 409 L331.736 425.401 L347.044 419.513 C356.532 415.864 366.609 410.05 375.868 402.928 L384.921 395.964 L377.831 387.008 C366.498 372.692 361.264 355.338 361.264 331 C361.264 307.704 367.383 291.343 381.05 277.379 C394.669 263.463 410.761 257.264 434 257.264 C476.02 257.264 503.588 267.263 522.008 288.4 C540.163 309.233 543.833 334.521 533.191 370.832 L533.18 370.869 L533.169 370.906 C521.608 411.37 501.505 443.444 471.089 470.017 C441 496.306 399.183 511.582 341.98 516.782 L331.736 517.714 L331.736 528 L331.736 583.736 L276.264 583.736 L276.264 528 L276.264 528 Z M253.736 134.558 L253.736 391.87 C240.799 383.66 230.624 371.882 221.991 355.299 C210.092 332.44 204.264 301.611 204.264 260 C204.264 220.437 210.05 191.201 221.899 169.374 C230.546 153.445 240.726 142.252 253.736 134.558 L253.736 134.558 Z M276.264 117 L276.264 101.079 L261.251 106.378 C236.508 115.111 215.712 133.553 202.101 158.626 C188.616 183.465 181.736 218.229 181.736 260 C181.736 303.722 188.574 339.893 202.009 365.701 C215.567 391.747 236.254 411.068 260.977 420.521 L276.264 426.366 L276.264 410 L276.264 117 L276.264 117 Z " />
<glyph glyph-name="guillemotleft" unicode="&#xab;" horiz-adv-x="628" d="M266.999 253.228 L261.904 260 L266.999 266.772 L424.999 476.772 L428.379 481.264 L434 481.264 L554 481.264 L576.571 481.264 L563.001 463.228 L410.096 260 L563.001 56.7721 L576.571 38.736 L554 38.736 L434 38.736 L428.379 38.736 L424.999 43.2279 L266.999 253.228 L266.999 253.228 Z M290.096 260 L439.621 61.264 L531.429 61.264 L386.999 253.228 L381.904 260 L386.999 266.772 L531.429 458.736 L439.621 458.736 L290.096 260 L290.096 260 Z M55.9785 253.255 L50.9361 260 L55.9785 266.745 L212.979 476.745 L216.357 481.264 L222 481.264 L342 481.264 L364.485 481.264 L351.021 463.255 L199.064 260 L351.021 56.7446 L364.485 38.736 L342 38.736 L222 38.736 L216.357 38.736 L212.979 43.2554 L55.9785 253.255 L55.9785 253.255 Z M79.064 260 L227.643 61.264 L319.515 61.264 L175.979 253.255 L170.936 260 L175.979 266.745 L319.515 458.736 L227.643 458.736 L79.064 260 L79.064 260 Z " />
<glyph glyph-name="logicalnot" unicode="&#xac;" horiz-adv-x="570" d="M532.264 203 L532.264 53 L532.264 41.736 L521 41.736 L375 41.736 L363.736 41.736 L363.736 53 L363.736 191.736 L50 191.736 L38.736 191.736 L38.736 203 L38.736 323 L38.736 334.264 L50 334.264 L375 334.264 L521 334.264 L532.264 334.264 L532.264 323 L532.264 203 L532.264 203 Z M509.736 203 L509.736 311.736 L375 311.736 L61.264 311.736 L61.264 214.264 L375 214.264 L386.264 214.264 L386.264 203 L386.264 64.264 L509.736 64.264 L509.736 203 L509.736 203 Z " />
<glyph glyph-name="periodcentered" unicode="&#xb7;" horiz-adv-x="249" d="M211.264 185 L211.264 173.736 L200 173.736 L50 173.736 L38.736 173.736 L38.736 185 L38.736 335 L38.736 346.264 L50 346.264 L200 346.264 L211.264 346.264 L211.264 335 L211.264 185 L211.264 185 Z M188.736 196.264 L188.736 323.736 L61.264 323.736 L61.264 196.264 L188.736 196.264 L188.736 196.264 Z " />
<glyph glyph-name="guillemotright" unicode="&#xbb;" horiz-adv-x="610" d="M391.904 260 L238.999 463.228 L225.429 481.264 L248 481.264 L368 481.264 L373.621 481.264 L377.001 476.772 L535.001 266.772 L540.096 260 L535.001 253.228 L377.001 43.2279 L373.621 38.736 L368 38.736 L248 38.736 L225.429 38.736 L238.999 56.7721 L391.904 260 L391.904 260 Z M415.001 266.772 L420.096 260 L415.001 253.228 L270.571 61.264 L362.379 61.264 L511.904 260 L362.379 458.736 L270.571 458.736 L415.001 266.772 L415.001 266.772 Z M180.904 260 L27.9991 463.228 L14.4291 481.264 L37 481.264 L157 481.264 L162.643 481.264 L166.021 476.745 L323.021 266.745 L328.064 260 L323.021 253.255 L166.021 43.2554 L162.643 38.736 L157 38.736 L37 38.736 L14.4291 38.736 L27.9991 56.7721 L180.904 260 L180.904 260 Z M204.001 266.772 L209.096 260 L204.001 253.228 L59.571 61.264 L151.357 61.264 L299.936 260 L151.357 458.736 L59.571 458.736 L204.001 266.772 L204.001 266.772 Z " />
<glyph glyph-name="questiondown" unicode="&#xbf;" horiz-adv-x="575" d="M218.736 520 L218.736 531.264 L230 531.264 L379 531.264 L390.264 531.264 L390.264 520 L390.264 370 L390.264 358.736 L379 358.736 L230 358.736 L218.736 358.736 L218.736 370 L218.736 520 L218.736 520 Z M241.264 508.736 L241.264 381.264 L367.736 381.264 L367.736 508.736 L241.264 508.736 L241.264 508.736 Z M422.79 -16.901 L423.974 -4.81937 L435.934 -6.90319 L567.934 -29.9032 L578.137 -31.681 L577.22 -41.9973 C574.446 -73.2057 565.196 -102.767 550.205 -128.217 C535.278 -153.559 514.731 -176.089 490.156 -194.087 C465.666 -212.023 436.112 -226.358 403.257 -236.283 C370.414 -246.204 333.774 -251.264 295 -251.264 C255.566 -251.264 218.593 -246.206 185.743 -236.283 C152.809 -226.334 123.439 -211.56 99.5579 -192.87 C75.5661 -174.094 56.2778 -150.439 43.3724 -123.931 C30.4539 -97.3951 23.736 -66.8924 23.736 -35 C23.736 -0.430293 35.5967 33.6691 57.9636 63.7247 C79.9633 93.2868 116.942 126.13 167.408 161.136 C180.392 170.883 190.73 179.66 199.035 187.965 C206.976 195.906 212.447 203.838 216.68 213.515 C220.968 223.316 223.725 234.344 225.308 248.272 C226.932 262.559 227.736 280.256 227.736 302 L227.736 313.264 L239 313.264 L371 313.264 L382.264 313.264 L382.264 302 C382.264 266.414 380.903 236.124 378.195 211.756 C375.45 187.046 370.065 164.791 362.374 146.611 C354.633 128.314 343.303 111.227 329.565 97.1366 C316.133 83.3599 298.138 68.6817 276.459 53.7722 L276.381 53.718 C243.43 30.6477 220.921 12.2865 207.826 -2.08619 C195.191 -15.9538 190.264 -25.6884 190.264 -35 C190.264 -61.9313 198.73 -80.878 217.751 -96.8805 C237.024 -113.094 261.391 -120.736 295 -120.736 C331.866 -120.736 360.124 -111.464 383.811 -91.8281 C407.395 -72.2785 419.669 -48.729 422.79 -16.901 L422.79 -16.901 Z M443.534 -31.095 C437.85 -62.218 422.232 -89.2415 398.189 -109.172 C371.21 -131.536 335.467 -143.264 295 -143.264 C257.942 -143.264 225.976 -133.239 203.249 -114.12 C180.27 -94.7886 167.736 -66.7353 167.736 -35 C167.736 -20.3116 176.475 -3.04621 191.174 13.0862 C205.402 28.7022 229.868 48.6571 263.541 72.2278 L263.579 72.2551 L263.619 72.282 C284.572 86.6874 300.883 99.9899 313.435 112.863 C325.697 125.439 334.701 139.019 341.626 155.389 C348.601 171.876 353.217 190.954 355.805 214.244 C358.144 235.298 359.435 260.648 359.689 290.736 L250.186 290.736 C249.939 273.291 249.106 258.168 247.692 245.728 C245.941 230.323 242.365 216.018 237.32 204.485 C232.22 192.828 224.357 181.427 214.965 172.035 C205.972 163.043 194.363 153.192 180.758 142.989 L180.59 142.863 L180.418 142.743 C130.973 108.462 96.6781 78.0126 76.0364 50.2753 C55.7367 22.9976 46.264 -4.23637 46.264 -35 C46.264 -64.441 51.8795 -89.9383 63.6276 -114.069 C75.3889 -138.228 91.4339 -157.906 113.442 -175.13 C135.561 -192.44 161.191 -205.333 192.257 -214.717 C223.407 -224.127 257.1 -228.736 295 -228.736 C332.226 -228.736 365.586 -224.129 396.743 -214.717 C427.888 -205.309 454 -192.643 476.844 -175.913 C499.603 -159.245 517.055 -140.108 530.795 -116.783 C542.816 -96.3743 550.26 -74.7635 553.623 -50.277 L443.534 -31.095 L443.534 -31.095 Z " />
<glyph glyph-name="Agrave" unicode="&#xc0;" horiz-adv-x="747" d="M448.529 818.001 L454.33 802.736 L438 802.736 L313 802.736 L307.353 802.736 L303.974 807.261 L191.974 957.261 L178.532 975.264 L201 975.264 L381 975.264 L388.77 975.264 L391.529 968.001 L448.529 818.001 L448.529 818.001 Z M421.67 825.264 L373.23 952.736 L223.468 952.736 L318.647 825.264 L421.67 825.264 L421.67 825.264 Z M276.489 749.051 L277.953 752.955 L280.197 758.939 L286.485 760.082 L291.985 761.082 L292.984 761.264 L294 761.264 L372 761.264 L456 761.264 L463.807 761.264 L466.547 753.954 L746.11 8.1411 L751.513 -6.27244 L736.14 -7.06168 L654.578 -11.2492 L654.289 -11.264 L654 -11.264 L570 -11.264 L562.374 -11.264 L559.542 -4.18334 L557.542 0.816655 L557.477 0.97768 L557.418 1.14061 L512.697 123.761 L234.859 124.709 L189.576 1.12469 L189.52 0.969808 L189.458 0.816655 L187.458 -4.18334 L184.626 -11.264 L177 -11.264 L88 -11.264 L87.9197 -11.264 L87.8393 -11.2629 L0.214332 -10.0129 L-15.9481 -9.78229 L-10.1355 5.30052 L276.453 748.955 L276.489 749.051 L276.489 749.051 Z M296.657 738.736 L16.698 12.282 L88.08 11.264 L169.299 11.264 L216.424 139.875 L219.141 147.291 L227.038 147.264 L504.105 146.318 L495.368 171.279 L476.763 224.437 L497.285 231.77 L516.582 178.859 L577.705 11.264 L653.711 11.264 L719.612 14.647 L448.193 738.736 L372 738.736 L296.657 738.736 L296.657 738.736 Z M373.947 499.5 L289.198 271.264 L457.858 271.264 L373.947 499.5 L373.947 499.5 Z M363.44 535.921 L374.053 564.5 L384.572 535.887 L484.572 263.887 L490.142 248.736 L474 248.736 L273 248.736 L256.802 248.736 L262.44 263.921 L363.44 535.921 L363.44 535.921 Z " />
<glyph glyph-name="Aacute" unicode="&#xc1;" horiz-adv-x="747" d="M447.026 807.261 L443.647 802.736 L438 802.736 L313 802.736 L296.67 802.736 L302.471 818.001 L359.471 968.001 L362.23 975.264 L370 975.264 L550 975.264 L572.468 975.264 L559.026 957.261 L447.026 807.261 L447.026 807.261 Z M432.353 825.264 L527.532 952.736 L377.77 952.736 L329.33 825.264 L432.353 825.264 L432.353 825.264 Z M276.489 749.051 L277.953 752.955 L280.197 758.939 L286.485 760.082 L291.985 761.082 L292.984 761.264 L294 761.264 L372 761.264 L456 761.264 L463.807 761.264 L466.547 753.954 L746.11 8.1411 L751.513 -6.27244 L736.14 -7.06168 L654.578 -11.2492 L654.289 -11.264 L654 -11.264 L570 -11.264 L562.374 -11.264 L559.542 -4.18334 L557.542 0.816655 L557.477 0.97768 L557.418 1.14061 L512.697 123.761 L234.859 124.709 L189.576 1.12469 L189.52 0.969808 L189.458 0.816655 L187.458 -4.18334 L184.626 -11.264 L177 -11.264 L88 -11.264 L87.9197 -11.264 L87.8393 -11.2629 L0.214332 -10.0129 L-15.9481 -9.78229 L-10.1355 5.30052 L276.453 748.955 L276.489 749.051 L276.489 749.051 Z M296.657 738.736 L16.698 12.282 L88.08 11.264 L169.299 11.264 L216.424 139.875 L219.141 147.291 L227.038 147.264 L504.105 146.318 L495.368 171.279 L476.763 224.437 L497.285 231.77 L516.582 178.859 L577.705 11.264 L653.711 11.264 L719.612 14.647 L448.193 738.736 L372 738.736 L296.657 738.736 L296.657 738.736 Z M373.947 499.5 L289.198 271.264 L457.858 271.264 L373.947 499.5 L373.947 499.5 Z M363.44 535.921 L374.053 564.5 L384.572 535.887 L484.572 263.887 L490.142 248.736 L474 248.736 L273 248.736 L256.802 248.736 L262.44 263.921 L363.44 535.921 L363.44 535.921 Z " />
<glyph glyph-name="Acircumflex" unicode="&#xc2;" horiz-adv-x="747" d="M428 802.736 L424.078 802.736 L421.004 805.172 L375.067 841.575 L330.078 805.237 L326.981 802.736 L323 802.736 L197 802.736 L174.891 802.736 L187.888 820.622 L296.888 970.622 L300.261 975.264 L306 975.264 L445 975.264 L450.739 975.264 L454.112 970.622 L563.112 820.622 L576.109 802.736 L554 802.736 L428 802.736 L428 802.736 Z M431.922 825.264 L531.891 825.264 L439.261 952.736 L311.739 952.736 L219.109 825.264 L319.019 825.264 L367.922 864.763 L374.933 870.425 L381.996 864.828 L431.922 825.264 L431.922 825.264 Z M276.489 749.051 L277.953 752.955 L280.197 758.939 L286.485 760.082 L291.985 761.082 L292.984 761.264 L294 761.264 L372 761.264 L456 761.264 L463.807 761.264 L466.547 753.954 L746.11 8.1411 L751.513 -6.27244 L736.14 -7.06168 L654.578 -11.2492 L654.289 -11.264 L654 -11.264 L570 -11.264 L562.374 -11.264 L559.542 -4.18334 L557.542 0.816655 L557.477 0.97768 L557.418 1.14061 L512.697 123.761 L234.859 124.709 L189.576 1.12469 L189.52 0.969808 L189.458 0.816655 L187.458 -4.18334 L184.626 -11.264 L177 -11.264 L88 -11.264 L87.9197 -11.264 L87.8393 -11.2629 L0.214332 -10.0129 L-15.9481 -9.78229 L-10.1355 5.30052 L276.453 748.955 L276.489 749.051 L276.489 749.051 Z M296.657 738.736 L16.698 12.282 L88.08 11.264 L169.299 11.264 L216.424 139.875 L219.141 147.291 L227.038 147.264 L504.105 146.318 L495.368 171.279 L476.763 224.437 L497.285 231.77 L516.582 178.859 L577.705 11.264 L653.711 11.264 L719.612 14.647 L448.193 738.736 L372 738.736 L296.657 738.736 L296.657 738.736 Z M373.947 499.5 L289.198 271.264 L457.858 271.264 L373.947 499.5 L373.947 499.5 Z M363.44 535.921 L374.053 564.5 L384.572 535.887 L484.572 263.887 L490.142 248.736 L474 248.736 L273 248.736 L256.802 248.736 L262.44 263.921 L363.44 535.921 L363.44 535.921 Z " />
<glyph glyph-name="Atilde" unicode="&#xc3;" horiz-adv-x="747" d="M297.264 814 L297.264 802.736 L286 802.736 L184 802.736 L172.736 802.736 L172.736 814 C172.736 863.479 183.969 905.514 205.792 936.488 C228.01 968.023 260.532 985.264 298 985.264 C321.053 985.264 341.299 981.444 356.037 974.075 C369.81 967.188 382.392 959.46 392.853 951.439 L392.896 951.407 L392.938 951.374 L420.438 929.874 L420.487 929.835 L420.537 929.796 C427.279 924.402 433.799 922.264 444 922.264 C446.219 922.264 446.229 922.273 448.968 929.495 C452.192 937.995 453.736 948.801 453.736 964 L453.736 975.264 L465 975.264 L567 975.264 L578.264 975.264 L578.264 964 C578.264 914.498 566.839 872.425 544.659 841.443 C522.125 809.968 489.816 792.736 453 792.736 C429.947 792.736 409.701 796.556 394.963 803.925 C381.19 810.812 368.608 818.54 358.147 826.561 L358.104 826.593 L358.062 826.626 L330.562 848.126 L330.513 848.165 L330.463 848.204 C323.721 853.598 317.201 855.736 307 855.736 C304.781 855.736 304.771 855.727 302.032 848.505 C298.808 840.005 297.264 829.199 297.264 814 L297.264 814 Z M275.072 825.264 C275.819 837.426 277.805 848.154 280.968 856.495 C285.562 868.606 295.886 878.264 307 878.264 C320.775 878.264 334.563 873.752 344.484 865.838 L371.853 844.439 L371.895 844.407 L371.938 844.374 C381.455 837.087 392.182 830.503 405.037 824.075 C416.966 818.111 432.053 815.264 453 815.264 C484.184 815.264 506.875 827.366 526.341 854.557 C544.528 879.961 554.089 911.744 555.541 952.736 L475.928 952.736 C475.181 940.574 473.195 929.846 470.032 921.505 C465.438 909.394 455.114 899.736 444 899.736 C430.246 899.736 416.479 904.235 406.562 912.126 L406.463 912.204 L379.147 933.561 L379.062 933.626 C369.545 940.913 358.818 947.497 345.963 953.925 C334.034 959.889 318.947 962.736 298 962.736 C266.134 962.736 243.323 950.643 224.208 923.512 C206.304 898.1 196.885 866.282 195.456 825.264 L275.072 825.264 L275.072 825.264 Z M276.489 749.051 L277.953 752.955 L280.197 758.939 L286.485 760.082 L291.985 761.082 L292.984 761.264 L294 761.264 L372 761.264 L456 761.264 L463.807 761.264 L466.547 753.954 L746.11 8.1411 L751.513 -6.27244 L736.14 -7.06168 L654.578 -11.2492 L654.289 -11.264 L654 -11.264 L570 -11.264 L562.374 -11.264 L559.542 -4.18334 L557.542 0.816655 L557.477 0.97768 L557.418 1.14061 L512.697 123.761 L234.859 124.709 L189.576 1.12469 L189.52 0.969808 L189.458 0.816655 L187.458 -4.18334 L184.626 -11.264 L177 -11.264 L88 -11.264 L87.9197 -11.264 L87.8393 -11.2629 L0.214332 -10.0129 L-15.9481 -9.78229 L-10.1355 5.30052 L276.453 748.955 L276.489 749.051 L276.489 749.051 Z M296.657 738.736 L16.698 12.282 L88.08 11.264 L169.299 11.264 L216.424 139.875 L219.141 147.291 L227.038 147.264 L504.105 146.318 L495.368 171.279 L476.763 224.437 L497.285 231.77 L516.582 178.859 L577.705 11.264 L653.711 11.264 L719.612 14.647 L448.193 738.736 L372 738.736 L296.657 738.736 L296.657 738.736 Z M373.947 499.5 L289.198 271.264 L457.858 271.264 L373.947 499.5 L373.947 499.5 Z M363.44 535.921 L374.053 564.5 L384.572 535.887 L484.572 263.887 L490.142 248.736 L474 248.736 L273 248.736 L256.802 248.736 L262.44 263.921 L363.44 535.921 L363.44 535.921 Z " />
<glyph glyph-name="Adieresis" unicode="&#xc4;" horiz-adv-x="747" d="M549.264 814 L549.264 802.736 L538 802.736 L388 802.736 L376.736 802.736 L376.736 814 L376.736 964 L376.736 975.264 L388 975.264 L538 975.264 L549.264 975.264 L549.264 964 L549.264 814 L549.264 814 Z M526.736 825.264 L526.736 952.736 L399.264 952.736 L399.264 825.264 L526.736 825.264 L526.736 825.264 Z M374.264 814 L374.264 802.736 L363 802.736 L213 802.736 L201.736 802.736 L201.736 814 L201.736 964 L201.736 975.264 L213 975.264 L363 975.264 L374.264 975.264 L374.264 964 L374.264 814 L374.264 814 Z M351.736 825.264 L351.736 952.736 L224.264 952.736 L224.264 825.264 L351.736 825.264 L351.736 825.264 Z M276.489 749.051 L277.953 752.955 L280.197 758.939 L286.485 760.082 L291.985 761.082 L292.984 761.264 L294 761.264 L372 761.264 L456 761.264 L463.807 761.264 L466.547 753.954 L746.11 8.1411 L751.513 -6.27244 L736.14 -7.06168 L654.578 -11.2492 L654.289 -11.264 L654 -11.264 L570 -11.264 L562.374 -11.264 L559.542 -4.18334 L557.542 0.816655 L557.477 0.97768 L557.418 1.14061 L512.697 123.761 L234.859 124.709 L189.576 1.12469 L189.52 0.969808 L189.458 0.816655 L187.458 -4.18334 L184.626 -11.264 L177 -11.264 L88 -11.264 L87.9197 -11.264 L87.8393 -11.2629 L0.214332 -10.0129 L-15.9481 -9.78229 L-10.1355 5.30052 L276.453 748.955 L276.489 749.051 L276.489 749.051 Z M296.657 738.736 L16.698 12.282 L88.08 11.264 L169.299 11.264 L216.424 139.875 L219.141 147.291 L227.038 147.264 L504.105 146.318 L495.368 171.279 L476.763 224.437 L497.285 231.77 L516.582 178.859 L577.705 11.264 L653.711 11.264 L719.612 14.647 L448.193 738.736 L372 738.736 L296.657 738.736 L296.657 738.736 Z M373.947 499.5 L289.198 271.264 L457.858 271.264 L373.947 499.5 L373.947 499.5 Z M363.44 535.921 L374.053 564.5 L384.572 535.887 L484.572 263.887 L490.142 248.736 L474 248.736 L273 248.736 L256.802 248.736 L262.44 263.921 L363.44 535.921 L363.44 535.921 Z " />
<glyph glyph-name="Aring" unicode="&#xc5;" horiz-adv-x="747" d="M276.736 899 C276.736 928.284 285.767 953.57 302.625 970.054 C319.449 986.504 345.132 995.264 375 995.264 C404.855 995.264 430.646 986.535 447.786 970.14 C465.015 953.66 474.264 928.325 474.264 899 C474.264 837.553 438.218 802.736 375 802.736 C312.411 802.736 276.736 837.591 276.736 899 L276.736 899 Z M299.264 899 C299.264 847.076 321.589 825.264 375 825.264 C429.115 825.264 451.736 847.114 451.736 899 C451.736 924.342 445.652 941.007 432.214 953.86 C418.687 966.799 401.145 972.736 375 972.736 C348.868 972.736 331.551 966.829 318.375 953.946 C305.233 941.097 299.264 924.382 299.264 899 L299.264 899 Z M375 888.264 C383.35 888.264 383.736 888.688 383.736 899 C383.736 908.494 383.506 908.736 375 908.736 C367.332 908.736 367.264 908.661 367.264 899 C367.264 888.524 367.489 888.264 375 888.264 L375 888.264 Z M375 865.736 C357.178 865.736 344.736 880.143 344.736 899 C344.736 917.339 357.334 931.264 375 931.264 C393.161 931.264 406.264 917.506 406.264 899 C406.264 879.979 393.316 865.736 375 865.736 L375 865.736 Z M276.489 749.051 L277.953 752.955 L280.197 758.939 L286.485 760.082 L291.985 761.082 L292.984 761.264 L294 761.264 L372 761.264 L456 761.264 L463.807 761.264 L466.547 753.954 L746.11 8.1411 L751.513 -6.27244 L736.14 -7.06168 L654.578 -11.2492 L654.289 -11.264 L654 -11.264 L570 -11.264 L562.374 -11.264 L559.542 -4.18334 L557.542 0.816655 L557.477 0.97768 L557.418 1.14061 L512.697 123.761 L234.859 124.709 L189.576 1.12469 L189.52 0.969808 L189.458 0.816655 L187.458 -4.18334 L184.626 -11.264 L177 -11.264 L88 -11.264 L87.9197 -11.264 L87.8393 -11.2629 L0.214332 -10.0129 L-15.9481 -9.78229 L-10.1355 5.30052 L276.453 748.955 L276.489 749.051 L276.489 749.051 Z M296.657 738.736 L16.698 12.282 L88.08 11.264 L169.299 11.264 L216.424 139.875 L219.141 147.291 L227.038 147.264 L504.105 146.318 L495.368 171.279 L476.763 224.437 L497.285 231.77 L516.582 178.859 L577.705 11.264 L653.711 11.264 L719.612 14.647 L448.193 738.736 L372 738.736 L296.657 738.736 L296.657 738.736 Z M373.947 499.5 L289.198 271.264 L457.858 271.264 L373.947 499.5 L373.947 499.5 Z M363.44 535.921 L374.053 564.5 L384.572 535.887 L484.572 263.887 L490.142 248.736 L474 248.736 L273 248.736 L256.802 248.736 L262.44 263.921 L363.44 535.921 L363.44 535.921 Z " />
<glyph glyph-name="Ccedilla" unicode="&#xc7;" horiz-adv-x="738" d="M588.752 252.675 L594.902 266.157 L606.247 256.623 L725.247 156.623 L731.736 151.171 L728.293 143.425 C717.173 118.405 700.586 94.9667 679.829 74.9013 C659.168 54.9289 633.898 37.4343 605.489 23.401 C577.203 9.42864 545.464 -1.67126 511.525 -9.47739 C477.549 -17.2919 441.282 -21.264 404 -21.264 L400.281 -21.264 L398.831 -25.905 C400.236 -25.7935 401.629 -25.736 403 -25.736 C436.589 -25.736 466.162 -38.0746 486.853 -60.9428 C507.396 -83.6483 518.264 -115.109 518.264 -151 C518.264 -185.861 505.844 -216.524 482.704 -238.218 C459.645 -259.835 427.263 -271.264 390 -271.264 C364.469 -271.264 339.768 -264.424 319.06 -251.57 C298.23 -238.642 282.493 -220.15 274.468 -198.995 L271.54 -191.275 L278.02 -186.159 L335.02 -141.159 L346.857 -131.814 L352.458 -145.817 C357.418 -158.216 362.872 -166.942 369.965 -174.035 C376.606 -180.677 380.897 -182.736 387 -182.736 C397.614 -182.736 403.586 -180.484 409.535 -174.535 C415.44 -168.63 417.736 -162.342 417.736 -151 C417.736 -139.495 415.57 -132.996 410.182 -127.095 C404.909 -121.32 399.813 -119.264 390 -119.264 C383.063 -119.264 378.386 -120.155 373.575 -122.293 C369.718 -124.007 369.568 -124.171 368.928 -126.732 L365.331 -141.12 L352.435 -133.794 L308.435 -108.794 L300.648 -104.369 L303.205 -95.7844 L327.666 -13.664 C286.614 -4.89302 248.212 10.5065 214.015 31.9579 C176.511 55.4828 143.699 85.1528 117.085 119.615 C90.4813 154.064 69.5889 193.933 55.2974 237.488 C41.013 281.022 33.736 327.456 33.736 375 C33.736 427.982 42.7501 479.293 60.4408 526.922 C78.1316 574.551 103.548 617.202 135.608 653.013 C167.711 688.873 207.202 718.055 252.211 739.195 C297.396 760.418 348.825 771.264 404 771.264 C437.992 771.264 471.976 767.276 504.624 759.454 C537.228 751.643 568.106 740.54 596.037 726.575 C624.006 712.591 649.879 695.284 672.436 675.461 C695.138 655.51 714.028 632.344 727.847 607.47 L732.338 599.386 L725.282 593.407 L666.282 543.407 L666.247 543.377 L666.211 543.347 L606.211 493.347 L595.807 484.677 L589.178 496.486 C568.517 533.288 541.928 561.587 507.458 583.493 C473.059 605.355 439.625 615.736 404 615.736 C376.737 615.736 353.187 609.774 330.47 597.153 C307.548 584.419 288.855 567.854 272.558 545.805 C256.164 523.624 243.845 498.519 234.776 468.72 C225.693 438.875 221.264 408.191 221.264 375 C221.264 341.813 225.689 311.313 234.766 281.813 C243.833 252.343 256.155 227.387 272.558 205.195 C288.871 183.125 307.615 166.362 330.574 153.288 C353.275 140.361 376.771 134.264 404 134.264 C444.383 134.264 479.946 144.688 513.918 166.481 C547.889 188.273 572.094 216.155 588.752 252.675 L588.752 252.675 Z M602.723 230.158 C584.68 196.529 558.617 168.391 526.082 147.519 C489.387 123.979 447.617 111.736 404 111.736 C373.896 111.736 344.725 119.306 319.426 133.712 C294.385 147.972 272.129 167.875 254.442 191.805 C236.845 215.613 222.833 243.99 213.234 275.187 C203.644 306.354 198.736 340.187 198.736 375 C198.736 409.809 203.641 443.792 213.224 475.28 C222.821 506.814 236.836 535.376 254.442 559.195 C272.145 583.146 294.452 602.914 319.53 616.847 C344.813 630.893 373.93 638.264 404 638.264 C443.042 638.264 482.608 625.979 519.542 602.507 C552.703 581.432 580.644 553.122 601.941 519.113 L651.718 560.593 L651.789 560.653 L703.517 604.491 C691.41 624.334 676.382 642.003 657.564 658.539 C636.121 677.383 612.661 693.076 585.963 706.425 C559.227 719.793 530.772 730.024 499.376 737.546 C468.024 745.057 436.675 748.736 404 748.736 C351.175 748.736 304.604 738.915 261.789 718.805 C218.798 698.612 182.956 672.127 152.392 637.987 C121.785 603.798 98.535 564.782 81.5592 519.078 C64.5832 473.373 56.264 426.018 56.264 375 C56.264 329.211 62.987 286.312 76.7026 244.512 C90.4111 202.733 109.519 166.27 134.915 133.385 C160.301 100.514 190.156 73.5172 225.985 51.0421 C261.714 28.6308 300.358 13.9014 343.986 6.08757 L356.394 3.86524 L352.795 -8.21561 L327.352 -93.631 L354.271 -108.926 C357.189 -105.891 360.707 -103.359 364.425 -101.707 C371.614 -98.5117 380.937 -96.736 390 -96.736 C404.187 -96.736 418.091 -102.346 426.818 -111.905 C435.43 -121.337 440.264 -135.839 440.264 -151 C440.264 -166.325 434.893 -181.037 425.465 -190.465 C416.08 -199.849 401.72 -205.264 387 -205.264 C375.77 -205.264 363.394 -199.323 354.035 -189.965 C348.056 -183.985 342.54 -176.338 337.833 -167.641 L298.77 -198.48 C305.559 -212.278 315.742 -222.996 330.94 -232.43 C348.899 -243.576 367.531 -248.736 390 -248.736 C423.404 -248.736 447.688 -240.165 467.296 -221.782 C486.823 -203.476 495.736 -181.472 495.736 -151 C495.736 -118.891 487.604 -95.3517 470.147 -76.0572 C452.838 -56.9254 432.078 -48.264 403 -48.264 C396.989 -48.264 392.541 -49.3231 387.037 -52.0748 L363.349 -63.919 L371.249 -38.6402 L381.249 -6.64023 L383.719 1.264 L392 1.264 L404 1.264 C440.052 1.264 473.785 4.95857 506.475 12.4774 C539.202 20.0046 568.463 30.238 595.511 43.599 C622.436 56.8991 644.832 72.4044 664.171 91.0987 C681.254 107.612 694.268 125.145 704.12 144.951 L602.723 230.158 L602.723 230.158 Z " />
<glyph glyph-name="Egrave" unicode="&#xc8;" horiz-adv-x="684" d="M423.506 818.062 L429.432 802.736 L413 802.736 L287 802.736 L281.323 802.736 L277.946 807.3 L166.946 957.3 L153.652 975.264 L176 975.264 L355 975.264 L362.721 975.264 L365.506 968.062 L423.506 818.062 L423.506 818.062 Z M396.568 825.264 L347.279 952.736 L198.348 952.736 L292.677 825.264 L396.568 825.264 L396.568 825.264 Z M631 144.264 L634 144.264 L645.264 144.264 L645.264 133 L645.264 66 L645.264 0 L645.264 -11.264 L634 -11.264 L233.5 -11.264 L157 -11.264 L81 -11.264 L69.736 -11.264 L69.736 0 L69.736 5 L69.736 745 L69.736 750 L69.736 761.264 L81 761.264 L157 761.264 L233.5 761.264 L619 761.264 L630.264 761.264 L630.264 750 L630.264 684 L630.264 617 L630.264 605.736 L619 605.736 L614 605.736 L245.264 605.736 L245.264 461.264 L594 461.264 L598 461.264 L609.087 461.264 L609.263 450.179 L610.263 387.179 L610.264 387.089 L610.264 387 L610.264 324 L610.264 312.736 L599 312.736 L594 312.736 L245.264 312.736 L245.264 144.264 L631 144.264 L631 144.264 Z M622.736 121.736 L234 121.736 L222.736 121.736 L222.736 133 L222.736 324 L222.736 335.264 L234 335.264 L587.736 335.264 L587.736 386.911 L586.913 438.736 L234 438.736 L222.736 438.736 L222.736 450 L222.736 617 L222.736 628.264 L234 628.264 L607.736 628.264 L607.736 684 L607.736 738.736 L233.5 738.736 L157 738.736 L92.264 738.736 L92.264 11.264 L157 11.264 L233.5 11.264 L622.736 11.264 L622.736 66 L622.736 121.736 L622.736 121.736 Z " />
<glyph glyph-name="Eacute" unicode="&#xc9;" horiz-adv-x="684" d="M422.054 807.3 L418.677 802.736 L413 802.736 L287 802.736 L270.67 802.736 L276.471 818.001 L333.471 968.001 L336.23 975.264 L344 975.264 L524 975.264 L546.348 975.264 L533.054 957.3 L422.054 807.3 L422.054 807.3 Z M407.323 825.264 L501.652 952.736 L351.77 952.736 L303.33 825.264 L407.323 825.264 L407.323 825.264 Z M631 144.264 L634 144.264 L645.264 144.264 L645.264 133 L645.264 66 L645.264 0 L645.264 -11.264 L634 -11.264 L233.5 -11.264 L157 -11.264 L81 -11.264 L69.736 -11.264 L69.736 0 L69.736 5 L69.736 745 L69.736 750 L69.736 761.264 L81 761.264 L157 761.264 L233.5 761.264 L619 761.264 L630.264 761.264 L630.264 750 L630.264 684 L630.264 617 L630.264 605.736 L619 605.736 L614 605.736 L245.264 605.736 L245.264 461.264 L594 461.264 L598 461.264 L609.087 461.264 L609.263 450.179 L610.263 387.179 L610.264 387.089 L610.264 387 L610.264 324 L610.264 312.736 L599 312.736 L594 312.736 L245.264 312.736 L245.264 144.264 L631 144.264 L631 144.264 Z M622.736 121.736 L234 121.736 L222.736 121.736 L222.736 133 L222.736 324 L222.736 335.264 L234 335.264 L587.736 335.264 L587.736 386.911 L586.913 438.736 L234 438.736 L222.736 438.736 L222.736 450 L222.736 617 L222.736 628.264 L234 628.264 L607.736 628.264 L607.736 684 L607.736 738.736 L233.5 738.736 L157 738.736 L92.264 738.736 L92.264 11.264 L157 11.264 L233.5 11.264 L622.736 11.264 L622.736 66 L622.736 121.736 L622.736 121.736 Z " />
<glyph glyph-name="Ecircumflex" unicode="&#xca;" horiz-adv-x="684" d="M402 802.736 L398.019 802.736 L394.922 805.237 L350 841.521 L305.078 805.237 L301.981 802.736 L298 802.736 L172 802.736 L150.01 802.736 L162.859 820.582 L270.859 970.582 L274.23 975.264 L280 975.264 L419 975.264 L424.739 975.264 L428.112 970.622 L537.112 820.622 L550.109 802.736 L528 802.736 L402 802.736 L402 802.736 Z M405.981 825.264 L505.891 825.264 L413.261 952.736 L285.77 952.736 L193.99 825.264 L294.019 825.264 L342.922 864.763 L350 870.479 L357.078 864.763 L405.981 825.264 L405.981 825.264 Z M631 144.264 L634 144.264 L645.264 144.264 L645.264 133 L645.264 66 L645.264 0 L645.264 -11.264 L634 -11.264 L233.5 -11.264 L157 -11.264 L81 -11.264 L69.736 -11.264 L69.736 0 L69.736 5 L69.736 745 L69.736 750 L69.736 761.264 L81 761.264 L157 761.264 L233.5 761.264 L619 761.264 L630.264 761.264 L630.264 750 L630.264 684 L630.264 617 L630.264 605.736 L619 605.736 L614 605.736 L245.264 605.736 L245.264 461.264 L594 461.264 L598 461.264 L609.087 461.264 L609.263 450.179 L610.263 387.179 L610.264 387.089 L610.264 387 L610.264 324 L610.264 312.736 L599 312.736 L594 312.736 L245.264 312.736 L245.264 144.264 L631 144.264 L631 144.264 Z M622.736 121.736 L234 121.736 L222.736 121.736 L222.736 133 L222.736 324 L222.736 335.264 L234 335.264 L587.736 335.264 L587.736 386.911 L586.913 438.736 L234 438.736 L222.736 438.736 L222.736 450 L222.736 617 L222.736 628.264 L234 628.264 L607.736 628.264 L607.736 684 L607.736 738.736 L233.5 738.736 L157 738.736 L92.264 738.736 L92.264 11.264 L157 11.264 L233.5 11.264 L622.736 11.264 L622.736 66 L622.736 121.736 L622.736 121.736 Z " />
<glyph glyph-name="Edieresis" unicode="&#xcb;" horiz-adv-x="684" d="M523.264 814 L523.264 802.736 L512 802.736 L362 802.736 L350.736 802.736 L350.736 814 L350.736 964 L350.736 975.264 L362 975.264 L512 975.264 L523.264 975.264 L523.264 964 L523.264 814 L523.264 814 Z M500.736 825.264 L500.736 952.736 L373.264 952.736 L373.264 825.264 L500.736 825.264 L500.736 825.264 Z M348.264 814 L348.264 802.736 L337 802.736 L188 802.736 L176.736 802.736 L176.736 814 L176.736 964 L176.736 975.264 L188 975.264 L337 975.264 L348.264 975.264 L348.264 964 L348.264 814 L348.264 814 Z M325.736 825.264 L325.736 952.736 L199.264 952.736 L199.264 825.264 L325.736 825.264 L325.736 825.264 Z M631 144.264 L634 144.264 L645.264 144.264 L645.264 133 L645.264 66 L645.264 0 L645.264 -11.264 L634 -11.264 L233.5 -11.264 L157 -11.264 L81 -11.264 L69.736 -11.264 L69.736 0 L69.736 5 L69.736 745 L69.736 750 L69.736 761.264 L81 761.264 L157 761.264 L233.5 761.264 L619 761.264 L630.264 761.264 L630.264 750 L630.264 684 L630.264 617 L630.264 605.736 L619 605.736 L614 605.736 L245.264 605.736 L245.264 461.264 L594 461.264 L598 461.264 L609.087 461.264 L609.263 450.179 L610.263 387.179 L610.264 387.089 L610.264 387 L610.264 324 L610.264 312.736 L599 312.736 L594 312.736 L245.264 312.736 L245.264 144.264 L631 144.264 L631 144.264 Z M622.736 121.736 L234 121.736 L222.736 121.736 L222.736 133 L222.736 324 L222.736 335.264 L234 335.264 L587.736 335.264 L587.736 386.911 L586.913 438.736 L234 438.736 L222.736 438.736 L222.736 450 L222.736 617 L222.736 628.264 L234 628.264 L607.736 628.264 L607.736 684 L607.736 738.736 L233.5 738.736 L157 738.736 L92.264 738.736 L92.264 11.264 L157 11.264 L233.5 11.264 L622.736 11.264 L622.736 66 L622.736 121.736 L622.736 121.736 Z " />
<glyph glyph-name="Igrave" unicode="&#xcc;" horiz-adv-x="327" d="M238.529 818.001 L244.33 802.736 L228 802.736 L102 802.736 L96.3227 802.736 L92.9455 807.3 L-18.0545 957.3 L-31.3481 975.264 L-9 975.264 L171 975.264 L178.77 975.264 L181.529 968.001 L238.529 818.001 L238.529 818.001 Z M211.67 825.264 L163.23 952.736 L13.348 952.736 L107.677 825.264 L211.67 825.264 L211.67 825.264 Z M253.264 0 L253.264 -11.264 L242 -11.264 L165 -11.264 L88 -11.264 L76.736 -11.264 L76.736 0 L76.736 5 L76.736 745 L76.736 750 L76.736 761.264 L88 761.264 L165 761.264 L242 761.264 L253.264 761.264 L253.264 750 L253.264 745 L253.264 5 L253.264 0 L253.264 0 Z M230.736 11.264 L230.736 738.736 L165 738.736 L99.264 738.736 L99.264 11.264 L165 11.264 L230.736 11.264 L230.736 11.264 Z " />
<glyph glyph-name="Iacute" unicode="&#xcd;" horiz-adv-x="327" d="M237.054 807.3 L233.677 802.736 L228 802.736 L102 802.736 L85.5679 802.736 L91.494 818.062 L149.494 968.062 L152.279 975.264 L160 975.264 L339 975.264 L361.348 975.264 L348.054 957.3 L237.054 807.3 L237.054 807.3 Z M222.323 825.264 L316.652 952.736 L167.721 952.736 L118.432 825.264 L222.323 825.264 L222.323 825.264 Z M253.264 0 L253.264 -11.264 L242 -11.264 L165 -11.264 L88 -11.264 L76.736 -11.264 L76.736 0 L76.736 5 L76.736 745 L76.736 750 L76.736 761.264 L88 761.264 L165 761.264 L242 761.264 L253.264 761.264 L253.264 750 L253.264 745 L253.264 5 L253.264 0 L253.264 0 Z M230.736 11.264 L230.736 738.736 L165 738.736 L99.264 738.736 L99.264 11.264 L165 11.264 L230.736 11.264 L230.736 11.264 Z " />
<glyph glyph-name="Icircumflex" unicode="&#xce;" horiz-adv-x="383" d="M246 802.736 L242.078 802.736 L239.004 805.172 L193.067 841.575 L148.078 805.237 L144.981 802.736 L141 802.736 L15 802.736 L-7.10906 802.736 L5.88777 820.622 L114.888 970.622 L118.261 975.264 L124 975.264 L263 975.264 L268.77 975.264 L272.141 970.582 L380.141 820.582 L392.99 802.736 L371 802.736 L246 802.736 L246 802.736 Z M249.922 825.264 L349.01 825.264 L257.23 952.736 L129.739 952.736 L37.109 825.264 L137.019 825.264 L185.922 864.763 L192.933 870.425 L199.996 864.828 L249.922 825.264 L249.922 825.264 Z M281.264 0 L281.264 -11.264 L270 -11.264 L193 -11.264 L116 -11.264 L104.736 -11.264 L104.736 0 L104.736 5 L104.736 745 L104.736 750 L104.736 761.264 L116 761.264 L193 761.264 L270 761.264 L281.264 761.264 L281.264 750 L281.264 745 L281.264 5 L281.264 0 L281.264 0 Z M258.736 11.264 L258.736 738.736 L193 738.736 L127.264 738.736 L127.264 11.264 L193 11.264 L258.736 11.264 L258.736 11.264 Z " />
<glyph glyph-name="Idieresis" unicode="&#xcf;" horiz-adv-x="327" d="M338.264 814 L338.264 802.736 L327 802.736 L178 802.736 L166.736 802.736 L166.736 814 L166.736 964 L166.736 975.264 L178 975.264 L327 975.264 L338.264 975.264 L338.264 964 L338.264 814 L338.264 814 Z M315.736 825.264 L315.736 952.736 L189.264 952.736 L189.264 825.264 L315.736 825.264 L315.736 825.264 Z M164.264 814 L164.264 802.736 L153 802.736 L3 802.736 L-8.264 802.736 L-8.264 814 L-8.264 964 L-8.264 975.264 L3 975.264 L153 975.264 L164.264 975.264 L164.264 964 L164.264 814 L164.264 814 Z M141.736 825.264 L141.736 952.736 L14.264 952.736 L14.264 825.264 L141.736 825.264 L141.736 825.264 Z M253.264 0 L253.264 -11.264 L242 -11.264 L165 -11.264 L88 -11.264 L76.736 -11.264 L76.736 0 L76.736 5 L76.736 745 L76.736 750 L76.736 761.264 L88 761.264 L165 761.264 L242 761.264 L253.264 761.264 L253.264 750 L253.264 745 L253.264 5 L253.264 0 L253.264 0 Z M230.736 11.264 L230.736 738.736 L165 738.736 L99.264 738.736 L99.264 11.264 L165 11.264 L230.736 11.264 L230.736 11.264 Z " />
<glyph glyph-name="Ntilde" unicode="&#xd1;" horiz-adv-x="814" d="M325.264 814 L325.264 802.736 L314 802.736 L212 802.736 L200.736 802.736 L200.736 814 C200.736 863.502 212.161 905.575 234.341 936.557 C256.875 968.032 289.184 985.264 326 985.264 C349.044 985.264 369.402 981.459 384.438 974.124 C398.565 967.233 411.363 959.482 421.853 951.439 L421.896 951.407 L421.938 951.374 L449.438 929.874 L449.487 929.835 L449.537 929.796 C456.324 924.366 462.524 922.264 472 922.264 C474.322 922.264 474.56 922.48 477.592 929.807 C481.077 938.23 482.736 948.872 482.736 964 L482.736 975.264 L494 975.264 L596 975.264 L607.264 975.264 L607.264 964 C607.264 914.498 595.839 872.425 573.659 841.443 C551.125 809.968 518.816 792.736 482 792.736 C458.956 792.736 438.598 796.541 423.562 803.876 C409.435 810.767 396.637 818.518 386.147 826.561 L386.104 826.593 L386.062 826.626 L358.562 848.126 L358.513 848.165 L358.463 848.204 C351.676 853.634 345.476 855.736 336 855.736 C333.678 855.736 333.44 855.52 330.408 848.193 C326.923 839.77 325.264 829.128 325.264 814 L325.264 814 Z M303.102 825.264 C303.922 837.532 306.11 848.393 309.592 856.807 C314.56 868.813 324.989 878.264 336 878.264 C349.167 878.264 362.61 873.716 372.484 865.838 L399.853 844.439 L399.895 844.407 L399.938 844.374 C409.428 837.109 420.27 830.547 433.438 824.124 C445.735 818.125 461.044 815.264 482 815.264 C513.184 815.264 535.875 827.366 555.341 854.557 C573.528 879.961 583.089 911.744 584.541 952.736 L504.898 952.736 C504.078 940.468 501.89 929.607 498.408 921.193 C493.44 909.187 483.011 899.736 472 899.736 C458.853 899.736 445.432 904.271 435.562 912.126 L435.463 912.204 L408.147 933.561 L408.062 933.626 C398.573 940.891 387.73 947.453 374.562 953.876 C362.265 959.875 346.956 962.736 326 962.736 C294.816 962.736 272.125 950.634 252.659 923.443 C234.472 898.039 224.911 866.256 223.459 825.264 L303.102 825.264 L303.102 825.264 Z M555.736 243.149 L555.736 745 L555.736 750 L555.736 761.264 L567 761.264 L648 761.264 L730 761.264 L741.264 761.264 L741.264 750 L741.264 745 L741.264 0 L741.264 -11.264 L730 -11.264 L683 -11.264 L567 -11.264 L510 -11.264 L503.489 -11.264 L500.239 -5.62224 L252.264 424.878 L252.264 5 L252.264 0 L252.264 -11.264 L241 -11.264 L160 -11.264 L78 -11.264 L66.736 -11.264 L66.736 0 L66.736 5 L66.736 745 L66.736 750 L66.736 761.264 L78 761.264 L160 761.264 L241 761.264 L251 761.264 L257.513 761.264 L260.762 755.619 L555.736 243.149 L555.736 243.149 Z M578.264 201 L578.264 158.851 L557.238 195.381 L244.487 738.736 L241 738.736 L160 738.736 L89.264 738.736 L89.264 11.264 L160 11.264 L229.736 11.264 L229.736 467 L229.736 509.122 L250.761 472.622 L516.511 11.264 L567 11.264 L683 11.264 L718.736 11.264 L718.736 738.736 L648 738.736 L578.264 738.736 L578.264 201 L578.264 201 Z " />
</font>
</svg>
