<?xml version="1.0" encoding="UTF-8"?>
<svg xmlns="http://www.w3.org/2000/svg" xmlns:xlink="http://www.w3.org/1999/xlink" version="1.2" >
<font id="Zisel Thin">
<font-face  font-family="Zisel" units-per-em="1024" ascent="975" descent="-358" font-style="normal" font-weight="100" font-stretch="normal" cap-height="750" x-height="520" underline-position="0" underline-thickness="0" />
<missing-glyph  horiz-adv-x="472" d="M0 700 C0 700 432 700 432 700 C432 700 432 0 432 0 C432 0 0 0 0 0 C0 0 0 700 0 700 L0 700 Z M50 50 C50 50 382 50 382 50 C382 50 382 650 382 650 C382 650 50 650 50 650 C50 650 50 50 50 50 L50 50 Z " />
<glyph glyph-name="NULL" d="" />
<glyph glyph-name="CR" unicode="&#xd;" horiz-adv-x="256" d="" />
<glyph glyph-name="space" unicode="&#x20;" horiz-adv-x="281" d="" />
<glyph glyph-name="exclam" unicode="&#x21;" horiz-adv-x="113" d="M27 0 C27 0 87 0 87 0 C87 0 87 60 87 60 C87 60 27 60 27 60 C27 60 27 0 27 0 L27 0 Z M45 750 C45 750 45 440 45 440 C45 440 54 215 54 215 C54 215 60 215 60 215 C60 215 68 440 68 440 C68 440 68 750 68 750 C68 750 45 750 45 750 L45 750 Z " />
<glyph glyph-name="quotedbl" unicode="&#x22;" horiz-adv-x="270" d="M166 750 C166 750 166 695 166 695 C166 695 190 650 190 650 C190 650 200 650 200 650 C200 650 224 695 224 695 C224 695 224 750 224 750 C224 750 166 750 166 750 L166 750 Z M76 750 C76 750 76 695 76 695 C76 695 100 650 100 650 C100 650 110 650 110 650 C110 650 134 695 134 695 C134 695 134 750 134 750 C134 750 76 750 76 750 L76 750 Z " />
<glyph glyph-name="numbersign" unicode="&#x23;" horiz-adv-x="706" d="M510 750 C510 750 482 528 482 528 C482 528 281 528 281 528 C281 528 309 750 309 750 C309 750 289 750 289 750 C289 750 261 528 261 528 C261 528 65 528 65 528 C65 528 63 512 63 512 C63 512 259 512 259 512 C259 512 225 238 225 238 C225 238 23 238 23 238 C23 238 21 222 21 222 C21 222 223 222 223 222 C223 222 195 0 195 0 C195 0 215 0 215 0 C215 0 243 222 243 222 C243 222 444 222 444 222 C444 222 416 0 416 0 C416 0 436 0 436 0 C436 0 464 222 464 222 C464 222 642 222 642 222 C642 222 644 238 644 238 C644 238 466 238 466 238 C466 238 500 512 500 512 C500 512 684 512 684 512 C684 512 686 528 686 528 C686 528 502 528 502 528 C502 528 530 750 530 750 C530 750 510 750 510 750 L510 750 Z M279 512 C279 512 480 512 480 512 C480 512 446 238 446 238 C446 238 245 238 245 238 C245 238 279 512 279 512 L279 512 Z " />
<glyph glyph-name="dollar" unicode="&#x24;" horiz-adv-x="541" d="M311 825 C311 825 311 741 311 741 C287 754 265 760 248 760 C236 760 223 759 212 757 C212 757 212 825 212 825 C212 825 186 825 186 825 C186 825 186 750 186 750 C111 724 64 649 64 548 C64 478 105 427 186 397 C186 397 186 51 186 51 C145 81 108 128 79 191 C79 191 69 184 69 184 C69 184 69 184 69 184 C69 184 59 176 59 176 C92 105 136 54 186 24 C186 24 186 -75 186 -75 C186 -75 212 -75 212 -75 C212 -75 212 10 212 10 C241 -3 271 -10 301 -10 C304 -10 308 -10 311 -10 C311 -10 311 -75 311 -75 C311 -75 337 -75 337 -75 C337 -75 337 -8 337 -8 C449 7 507 90 507 209 C507 295 449 355 337 385 C337 385 337 700 337 700 C370 676 407 642 447 597 C447 597 456 605 456 605 C456 605 456 604 456 604 C456 604 464 612 464 612 C418 663 375 701 337 726 C337 726 337 825 337 825 C337 825 311 825 311 825 L311 825 Z M311 391 C301 393 291 395 280 397 C255 401 232 406 212 413 C212 413 212 735 212 735 C223 738 235 739 248 739 C265 739 286 732 311 717 C311 717 311 391 311 391 L311 391 Z M186 422 C120 450 87 493 87 551 C87 638 125 702 186 727 C186 727 186 422 186 422 L186 422 Z M212 389 C231 383 252 379 274 375 C287 373 299 370 311 368 C311 368 311 11 311 11 C308 11 304 11 301 11 C271 11 241 19 212 35 C212 35 212 389 212 389 L212 389 Z M337 361 C434 333 484 281 484 208 C484 102 434 28 337 14 C337 14 337 361 337 361 L337 361 Z " />
<glyph glyph-name="percent" unicode="&#x25;" horiz-adv-x="761" d="M698 140 C698 57 660 1 586 1 C511 1 473 57 473 140 C473 223 511 279 586 279 C660 279 698 223 698 140 L698 140 Z M586 -10 C668 -10 710 50 710 140 C710 230 668 290 586 290 C504 290 462 230 462 140 C462 50 504 -10 586 -10 L586 -10 Z M63 610 C63 693 101 749 176 749 C250 749 288 693 288 610 C288 527 250 471 176 471 C101 471 63 527 63 610 L63 610 Z M176 760 C94 760 51 700 52 610 C51 520 94 460 176 460 C257 460 299 520 300 610 C299 700 257 760 176 760 L176 760 Z M171 0 C171 0 178 0 178 0 C178 0 590 750 590 750 C590 750 583 750 583 750 C583 750 171 0 171 0 L171 0 Z " />
<glyph glyph-name="ampersand" unicode="&#x26;" horiz-adv-x="731" d="M672 2 C672 2 669 20 669 20 C653 13 632 9 615 9 C584 9 552 32 515 72 C567 137 596 233 594 350 C594 350 574 354 574 354 C576 242 549 149 501 87 C484 106 466 128 447 152 C359 261 295 341 273 368 C419 425 516 490 516 531 C516 629 450 695 351 695 C245 695 175 629 175 530 C175 472 203 409 245 371 C134 327 60 252 60 183 C60 61 166 -20 324 -20 C396 -20 457 8 502 57 C543 15 579 -10 614 -10 C631 -10 654 -5 672 2 L672 2 Z M262 381 C221 418 194 477 194 531 C194 619 257 677 351 677 C440 677 499 618 499 530 C499 495 405 436 263 381 C263 381 262 381 262 381 L262 381 Z M255 360 C275 335 338 256 425 148 C448 120 469 94 488 72 C447 27 392 1 327 1 C179 1 81 75 81 186 C81 249 149 317 250 357 C250 357 255 360 255 360 L255 360 Z " />
<glyph glyph-name="quotesingle" unicode="&#x27;" horiz-adv-x="180" d="M76 750 C76 750 76 695 76 695 C76 695 100 650 100 650 C100 650 110 650 110 650 C110 650 134 695 134 695 C134 695 134 750 134 750 C134 750 76 750 76 750 L76 750 Z " />
<glyph glyph-name="parenleft" unicode="&#x28;" horiz-adv-x="348" d="M322 795 C186 681 116 524 116 335 C116 152 186 -1 322 -115 C322 -115 329 -107 329 -107 C197 4 129 154 129 335 C129 522 197 676 329 787 C329 787 322 795 322 795 L322 795 Z " />
<glyph glyph-name="parenright" unicode="&#x29;" horiz-adv-x="341" d="M27 -115 C163 -1 233 156 233 345 C233 528 163 681 27 795 C27 795 20 787 20 787 C152 676 220 526 220 345 C220 158 152 4 20 -107 C20 -107 27 -115 27 -115 L27 -115 Z " />
<glyph glyph-name="asterisk" unicode="&#x2a;" horiz-adv-x="326" d="M313 657 C313 657 168 607 168 607 C168 607 172 760 172 760 C172 760 155 760 155 760 C155 760 158 607 158 607 C158 607 14 657 14 657 C14 657 9 642 9 642 C9 642 155 597 155 597 C155 597 63 475 63 475 C63 475 76 466 76 466 C76 466 163 591 163 591 C163 591 251 466 251 466 C251 466 264 475 264 475 C264 475 172 597 172 597 C172 597 318 642 318 642 C318 642 313 657 313 657 L313 657 Z " />
<glyph glyph-name="plus" unicode="&#x2b;" horiz-adv-x="590" d="M288 254 C288 254 288 0 288 0 C288 0 302 0 302 0 C302 0 302 254 302 254 C302 254 565 254 565 254 C565 254 565 266 565 266 C565 266 302 266 302 266 C302 266 302 520 302 520 C302 520 288 520 288 520 C288 520 288 266 288 266 C288 266 25 266 25 266 C25 266 25 254 25 254 C25 254 288 254 288 254 L288 254 Z " />
<glyph glyph-name="comma" unicode="&#x2c;" horiz-adv-x="160" d="M50 60 C50 60 50 0 50 0 C50 0 97 0 97 0 C97 -43 84 -60 50 -60 C50 -60 50 -70 50 -70 C93 -70 110 -50 110 0 C110 0 110 60 110 60 C110 60 50 60 50 60 L50 60 Z " />
<glyph glyph-name="hyphen" unicode="&#x2d;" horiz-adv-x="389" d="M50 255 C50 255 340 255 340 255 C340 255 340 271 340 271 C340 271 50 271 50 271 C50 271 50 255 50 255 L50 255 Z " />
<glyph glyph-name="period" unicode="&#x2e;" horiz-adv-x="160" d="M50 0 C50 0 110 0 110 0 C110 0 110 60 110 60 C110 60 50 60 50 60 C50 60 50 0 50 0 L50 0 Z " />
<glyph glyph-name="slash" unicode="&#x2f;" horiz-adv-x="237" d="M0 0 C0 0 9 0 9 0 C9 0 237 750 237 750 C237 750 229 750 229 750 C229 750 0 0 0 0 L0 0 Z " />
<glyph glyph-name="zero" unicode="0" horiz-adv-x="724" d="M375 9 C195 9 102 133 102 375 C102 606 203 741 375 741 C546 741 647 606 647 375 C647 133 554 9 375 9 L375 9 Z M79 375 C79 121 179 -10 375 -10 C570 -10 670 121 670 375 C670 618 561 760 375 760 C188 760 79 618 79 375 L79 375 Z " />
<glyph glyph-name="one" unicode="1" horiz-adv-x="363" d="M252 0 C252 0 263 0 263 0 C263 0 263 5 263 5 C263 5 263 750 263 750 C263 750 246 750 246 750 C246 750 50 546 50 546 C50 546 50 517 50 517 C50 517 241 717 241 717 C241 717 241 5 241 5 C241 5 241 0 241 0 C241 0 252 0 252 0 L252 0 Z " />
<glyph glyph-name="two" unicode="2" horiz-adv-x="596" d="M73 0 C73 0 98 0 98 0 C98 0 561 0 561 0 C561 0 561 11 561 11 C561 11 561 21 561 21 C561 22 560 22 559 21 C557 22 556 22 556 21 C556 21 99 21 99 21 C106 137 177 202 343 301 C465 373 546 461 546 521 C546 665 457 760 324 760 C191 760 102 670 102 535 C102 485 119 430 144 397 C144 397 165 408 165 408 C141 439 125 490 125 535 C125 659 205 742 325 742 C444 742 524 655 524 524 C524 468 440 380 314 305 C140 202 73 136 73 0 L73 0 Z " />
<glyph glyph-name="three" unicode="3" horiz-adv-x="623" d="M73 245 C73 92 174 -10 326 -10 C477 -10 578 78 578 210 C578 318 494 393 363 409 C477 418 551 478 551 563 C551 681 466 760 339 760 C212 760 127 672 127 540 C127 540 149 540 149 540 C149 661 225 741 338 741 C454 741 531 669 531 562 C531 475 447 417 321 417 C321 417 241 417 241 417 C241 417 241 412 241 412 C241 412 241 408 241 408 C241 408 241 400 241 400 C241 400 301 400 301 400 C453 400 554 324 554 211 C554 91 463 11 326 11 C188 11 96 105 96 245 C96 245 73 245 73 245 L73 245 Z " />
<glyph glyph-name="four" unicode="4" horiz-adv-x="619" d="M25 322 C25 322 25 304 25 304 C25 304 429 304 429 304 C429 304 429 5 429 5 C429 5 429 0 429 0 C429 0 440 0 440 0 C440 0 451 0 451 0 C451 0 451 5 451 5 C451 5 451 304 451 304 C451 304 600 304 600 304 C600 304 600 325 600 325 C600 325 451 325 451 325 C451 325 451 744 451 744 C451 744 452 745 452 745 C452 745 451 745 451 745 C451 745 451 750 451 750 C451 750 434 750 434 750 C434 750 25 322 25 322 L25 322 Z M51 325 C51 325 433 726 433 726 C433 726 429 553 429 553 C429 553 429 325 429 325 C429 325 51 325 51 325 L51 325 Z " />
<glyph glyph-name="five" unicode="5" horiz-adv-x="619" d="M127 344 C127 344 149 339 149 339 C208 404 297 448 369 448 C481 448 555 363 555 235 C555 101 464 11 327 11 C189 11 97 105 97 245 C97 245 74 245 74 245 C74 92 175 -10 327 -10 C478 -10 579 88 579 235 C579 374 497 467 374 467 C299 467 210 424 150 358 C150 358 176 730 176 730 C176 730 567 729 567 729 C567 729 567 729 567 729 C567 729 572 729 572 729 C572 729 573 750 573 750 C573 750 153 750 153 750 C153 750 127 344 127 344 L127 344 Z " />
<glyph glyph-name="six" unicode="6" horiz-adv-x="637" d="M587 622 C538 705 447 760 361 760 C177 760 83 606 83 374 C83 121 176 -10 357 -10 C505 -10 604 92 604 245 C604 384 513 477 378 477 C299 477 131 366 108 317 C108 317 127 333 148 350 C224 435 350 458 373 458 C497 458 580 373 580 245 C580 103 491 9 357 9 C191 9 106 134 106 378 C106 596 193 742 361 742 C439 742 523 689 570 610 C570 610 587 622 587 622 L587 622 Z M203 396 C203 396 219 238 219 238 C216 241 110 293 110 293 C120 314 133 333 148 350 C173 370 202 394 203 396 C203 396 203 396 203 396 L203 396 Z M203 396 C203 396 203 396 203 396 C203 396 203 396 203 396 L203 396 Z M219 238 C219 238 219 238 219 238 C219 238 219 238 219 238 L219 238 Z " />
<glyph glyph-name="seven" unicode="7" horiz-adv-x="514" d="M30 750 C30 750 30 739 30 739 C30 739 30 729 30 729 C30 729 35 729 35 729 C35 729 482 729 482 729 C291 630 216 426 216 0 C216 0 240 0 240 0 C240 427 314 631 505 729 C505 729 505 750 505 750 C505 750 30 750 30 750 L30 750 Z " />
<glyph glyph-name="eight" unicode="8" horiz-adv-x="653" d="M342 411 C196 411 131 471 131 561 C131 680 215 741 342 741 C479 741 549 669 549 561 C549 457 466 411 342 411 L342 411 Z M111 562 C111 477 164 416 279 400 C160 385 85 322 85 205 C85 76 165 -10 342 -10 C496 -10 599 56 599 204 C599 309 538 383 405 400 C506 415 570 467 570 562 C570 681 492 760 342 760 C203 760 111 693 111 562 L111 562 Z M342 9 C181 9 109 88 109 206 C109 332 202 389 342 389 C503 389 575 316 575 207 C575 70 482 9 342 9 L342 9 Z " />
<glyph glyph-name="nine" unicode="9" horiz-adv-x="637" d="M67 128 C116 45 207 -10 294 -10 C477 -10 571 144 571 376 C571 629 478 760 297 760 C149 760 50 658 50 505 C50 366 141 273 277 273 C355 273 523 384 546 433 C546 433 528 418 507 401 C431 315 305 292 281 292 C157 292 74 377 74 505 C74 647 163 741 297 741 C463 741 548 616 548 372 C548 154 462 8 294 8 C215 8 131 61 84 140 C84 140 67 128 67 128 L67 128 Z M451 354 C451 354 435 512 435 512 C438 509 544 457 544 457 C534 436 522 417 507 401 C482 380 452 356 451 354 C451 354 451 354 451 354 L451 354 Z M451 354 C451 354 451 354 451 354 C451 354 451 354 451 354 L451 354 Z M435 512 C435 512 435 512 435 512 C435 512 435 512 435 512 L435 512 Z " />
<glyph glyph-name="colon" unicode="&#x3a;" horiz-adv-x="160" d="M50 460 C50 460 110 460 110 460 C110 460 110 520 110 520 C110 520 50 520 50 520 C50 520 50 460 50 460 L50 460 Z M50 0 C50 0 110 0 110 0 C110 0 110 60 110 60 C110 60 50 60 50 60 C50 60 50 0 50 0 L50 0 Z " />
<glyph glyph-name="semicolon" unicode="&#x3b;" horiz-adv-x="160" d="M50 460 C50 460 110 460 110 460 C110 460 110 520 110 520 C110 520 50 520 50 520 C50 520 50 460 50 460 L50 460 Z M50 60 C50 60 50 0 50 0 C50 0 97 0 97 0 C97 -43 84 -60 50 -60 C50 -60 50 -70 50 -70 C93 -70 110 -50 110 0 C110 0 110 60 110 60 C110 60 50 60 50 60 L50 60 Z " />
<glyph glyph-name="less" unicode="&#x3c;" horiz-adv-x="610" d="M551 474 C551 474 45 267 45 267 C45 267 45 253 45 253 C45 253 551 46 551 46 C551 46 551 62 551 62 C551 62 62 260 62 260 C62 260 551 458 551 458 C551 458 551 474 551 474 L551 474 Z " />
<glyph glyph-name="equal" unicode="&#x3d;" horiz-adv-x="628" d="M39 171 C39 171 39 159 39 159 C39 159 579 159 579 159 C579 159 579 171 579 171 C579 171 39 171 39 171 L39 171 Z M39 371 C39 371 39 359 39 359 C39 359 579 359 579 359 C579 359 579 371 579 371 C579 371 39 371 39 371 L39 371 Z " />
<glyph glyph-name="greater" unicode="&#x3e;" horiz-adv-x="610" d="M549 260 C549 260 60 62 60 62 C60 62 60 46 60 46 C60 46 566 253 566 253 C566 253 566 267 566 267 C566 267 60 474 60 474 C60 474 60 458 60 458 C60 458 549 260 549 260 L549 260 Z " />
<glyph glyph-name="question" unicode="&#x3f;" horiz-adv-x="588" d="M276 0 C276 0 336 0 336 0 C336 0 336 60 336 60 C336 60 276 60 276 60 C276 60 276 0 276 0 L276 0 Z M38 556 C38 556 57 552 57 552 C67 667 167 744 308 744 C433 744 517 668 517 555 C517 465 494 419 437 392 C319 337 297 309 297 215 C297 215 316 215 316 215 C316 300 338 326 451 379 C514 409 538 458 538 555 C538 678 446 760 308 760 C157 760 49 678 38 556 L38 556 Z " />
<glyph glyph-name="at" unicode="&#x40;" horiz-adv-x="1159" d="M994 -120 C892 -191 727 -239 582 -239 C275 -239 70 -36 70 269 C70 574 276 777 584 777 C888 777 1090 609 1090 357 C1090 148 1022 9 919 9 C807 9 742 89 756 208 C756 208 791 499 791 499 C791 499 773 499 773 499 C773 499 751 317 751 317 C744 454 679 510 580 510 C448 510 348 414 331 269 C312 117 391 15 527 15 C628 15 707 71 736 160 C742 60 809 -3 912 -3 C1028 -3 1105 141 1105 357 C1105 617 897 790 584 790 C267 790 56 582 56 269 C56 -44 266 -252 582 -252 C729 -252 897 -203 1001 -131 C1001 -131 994 -120 994 -120 L994 -120 Z M738 208 C725 104 642 34 529 34 C405 34 333 128 351 269 C366 402 457 491 578 491 C694 491 762 412 738 208 L738 208 Z " />
<glyph glyph-name="A" unicode="A" horiz-adv-x="749" d="M606 242 C606 242 598 260 598 260 C598 260 180 260 180 260 C180 260 389 724 389 724 C389 724 715 0 715 0 C715 0 727 0 727 0 C727 0 740 0 740 0 C740 0 401 750 401 750 C401 750 389 750 389 750 C389 750 378 750 378 750 C378 750 377 750 377 750 C377 750 376 749 376 748 C376 747 375 746 375 746 C375 746 40 5 40 5 C40 5 40 5 40 5 C40 5 39 4 39 3 C38 1 38 0 38 0 C38 0 50 0 50 0 C50 0 63 0 63 0 C63 0 64 1 64 2 C64 2 65 4 65 4 C65 4 66 5 66 5 C66 5 65 5 65 5 C65 5 179 257 179 257 C179 257 173 242 173 242 C173 242 606 242 606 242 L606 242 Z " />
<glyph glyph-name="B" unicode="B" horiz-adv-x="697" d="M435 416 C552 430 627 479 627 548 C627 693 547 750 340 750 C340 750 136 750 136 750 C136 750 125 750 125 750 C125 750 113 750 113 750 C113 750 113 745 113 745 C113 745 113 5 113 5 C113 5 113 0 113 0 C113 0 125 0 125 0 C125 0 136 0 136 0 C136 0 375 0 375 0 C582 0 663 67 663 239 C663 339 573 408 435 416 L435 416 Z M136 421 C136 421 136 732 136 732 C136 732 341 732 341 732 C530 732 604 680 604 546 C604 471 503 421 352 421 C352 421 136 421 136 421 L136 421 Z M136 18 C136 18 136 403 136 403 C136 403 390 403 390 403 C539 403 639 338 639 241 C639 80 563 18 369 18 C369 18 136 18 136 18 L136 18 Z " />
<glyph glyph-name="C" unicode="C" horiz-adv-x="748" d="M711 184 C664 79 543 9 407 9 C225 9 104 177 104 375 C104 573 225 741 407 741 C529 741 650 671 711 566 C711 566 720 574 720 574 C720 574 720 573 720 573 C720 573 728 581 728 581 C666 688 538 760 407 760 C211 760 80 583 80 375 C80 167 211 -10 407 -10 C552 -10 680 62 728 169 C728 169 711 184 711 184 L711 184 Z " />
<glyph glyph-name="D" unicode="D" horiz-adv-x="788" d="M125 0 C125 0 136 0 136 0 C136 0 361 0 361 0 C613 0 733 121 733 375 C733 623 596 750 331 750 C331 750 136 750 136 750 C136 750 125 750 125 750 C125 750 113 750 113 750 C113 750 113 745 113 745 C113 745 113 5 113 5 C113 5 113 0 113 0 C113 0 125 0 125 0 L125 0 Z M136 18 C136 18 136 732 136 732 C136 732 332 732 332 732 C581 732 709 611 709 375 C709 133 596 18 359 18 C359 18 136 18 136 18 L136 18 Z " />
<glyph glyph-name="E" unicode="E" horiz-adv-x="585" d="M536 10 C536 10 536 19 536 19 C536 19 531 19 531 19 C531 19 136 19 136 19 C136 19 136 378 136 378 C136 378 496 378 496 378 C496 378 501 378 501 378 C501 378 501 387 501 387 C501 387 501 396 501 396 C501 396 496 396 496 396 C496 396 136 396 136 396 C136 396 136 731 136 731 C136 731 516 731 516 731 C516 731 521 731 521 731 C521 731 521 740 521 740 C521 740 521 750 521 750 C521 750 136 750 136 750 C136 750 135 750 135 750 C135 750 125 750 125 750 C125 750 113 750 113 750 C113 750 113 745 113 745 C113 745 113 5 113 5 C113 5 113 0 113 0 C113 0 125 0 125 0 C125 0 135 0 135 0 C135 0 136 0 136 0 C136 0 536 0 536 0 C536 0 536 10 536 10 L536 10 Z " />
<glyph glyph-name="F" unicode="F" horiz-adv-x="550" d="M486 378 C486 378 491 378 491 378 C491 378 491 387 491 387 C491 387 491 396 491 396 C491 396 486 396 486 396 C486 396 136 396 136 396 C136 396 136 731 136 731 C136 731 516 731 516 731 C516 731 521 731 521 731 C521 731 521 740 521 740 C521 740 521 750 521 750 C521 750 136 750 136 750 C136 750 135 750 135 750 C135 750 125 750 125 750 C125 750 113 750 113 750 C113 750 113 745 113 745 C113 745 113 5 113 5 C113 5 113 0 113 0 C113 0 125 0 125 0 C125 0 136 0 136 0 C136 0 136 5 136 5 C136 5 136 378 136 378 C136 378 486 378 486 378 L486 378 Z " />
<glyph glyph-name="G" unicode="G" horiz-adv-x="799" d="M489 393 C489 393 732 393 732 393 C732 393 732 115 732 115 C656 51 550 9 442 9 C239 9 104 155 104 375 C104 595 239 741 442 741 C548 741 658 671 719 566 C719 566 727 573 727 573 C727 573 727 573 727 573 C727 573 736 581 736 581 C674 688 556 760 442 760 C225 760 80 606 80 375 C80 144 225 -10 442 -10 C559 -10 674 35 755 103 C755 103 755 412 755 412 C755 412 489 412 489 412 C489 412 489 393 489 393 L489 393 Z " />
<glyph glyph-name="H" unicode="H" horiz-adv-x="702" d="M607 0 C607 0 618 0 618 0 C618 0 618 5 618 5 C618 5 618 745 618 745 C618 745 618 750 618 750 C618 750 607 750 607 750 C607 750 595 750 595 750 C595 750 595 745 595 745 C595 745 595 405 595 405 C595 405 136 405 136 405 C136 405 136 745 136 745 C136 745 136 750 136 750 C136 750 125 750 125 750 C125 750 113 750 113 750 C113 750 113 745 113 745 C113 745 113 5 113 5 C113 5 113 0 113 0 C113 0 125 0 125 0 C125 0 136 0 136 0 C136 0 136 5 136 5 C136 5 136 385 136 385 C136 385 595 385 595 385 C595 385 595 5 595 5 C595 5 595 0 595 0 C595 0 607 0 607 0 L607 0 Z " />
<glyph glyph-name="I" unicode="I" horiz-adv-x="192" d="M85 745 C85 745 86 745 86 745 C86 745 86 5 86 5 C86 5 85 5 85 5 C85 5 85 0 85 0 C85 0 86 0 86 0 C86 0 97 0 97 0 C97 0 108 0 108 0 C108 0 108 5 108 5 C108 5 108 745 108 745 C108 745 108 750 108 750 C108 750 97 750 97 750 C97 750 86 750 86 750 C86 750 85 750 85 750 C85 750 85 745 85 745 L85 745 Z " />
<glyph glyph-name="J" unicode="J" horiz-adv-x="484" d="M75 284 C75 284 75 223 75 223 C75 62 125 -10 237 -10 C344 -10 399 82 399 220 C399 220 399 745 399 745 C399 745 399 750 399 750 C399 750 388 750 388 750 C388 750 377 750 377 750 C377 750 377 745 377 745 C377 745 377 220 377 220 C377 95 330 12 237 12 C141 12 98 80 98 230 C98 230 98 288 98 288 C98 288 75 284 75 284 L75 284 Z " />
<glyph glyph-name="K" unicode="K" horiz-adv-x="597" d="M584 5 C584 5 584 5 584 5 C584 5 294 463 294 463 C294 463 530 745 530 745 C530 745 530 745 530 745 C530 745 530 745 530 745 C530 745 534 750 534 750 C534 750 519 750 519 750 C519 750 504 750 504 750 C504 750 136 304 136 304 C136 304 136 745 136 745 C136 745 136 750 136 750 C136 750 125 750 125 750 C125 750 113 750 113 750 C113 750 113 745 113 745 C113 745 113 5 113 5 C113 5 113 0 113 0 C113 0 125 0 125 0 C125 0 136 0 136 0 C136 0 136 5 136 5 C136 5 136 274 136 274 C136 274 294 462 294 462 C294 462 279 444 279 444 C279 444 560 0 560 0 C560 0 574 0 574 0 C574 0 587 0 587 0 C587 0 587 1 586 3 C586 3 584 5 584 5 L584 5 Z " />
<glyph glyph-name="L" unicode="L" horiz-adv-x="487" d="M85 745 C85 745 86 745 86 745 C86 745 86 5 86 5 C86 5 85 5 85 5 C85 5 85 0 85 0 C85 0 86 0 86 0 C86 0 97 0 97 0 C97 0 108 0 108 0 C108 0 458 0 458 0 C458 0 458 10 458 10 C458 10 458 19 458 19 C458 19 453 19 453 19 C453 19 108 19 108 19 C108 19 108 745 108 745 C108 745 108 750 108 750 C108 750 97 750 97 750 C97 750 86 750 86 750 C86 750 85 750 85 750 C85 750 85 745 85 745 L85 745 Z " />
<glyph glyph-name="M" unicode="M" horiz-adv-x="827" d="M732 0 C732 0 742 0 742 0 C743 0 743 1 742 3 C743 4 743 5 742 5 C742 5 742 745 742 745 C743 745 743 746 742 748 C743 749 743 750 742 750 C742 750 732 750 732 750 C732 750 729 750 729 750 C729 750 721 750 721 750 C721 750 707 750 707 750 C707 750 428 27 428 27 C428 27 148 750 148 750 C148 750 136 750 136 750 C136 750 127 750 127 750 C127 750 125 750 125 750 C125 750 113 750 113 750 C113 750 113 745 113 745 C113 745 113 5 113 5 C113 5 113 0 113 0 C113 0 125 0 125 0 C125 0 136 0 136 0 C136 0 136 5 136 5 C136 5 136 727 136 727 C136 727 418 3 418 3 C418 3 417 0 417 0 C417 0 419 0 419 0 C419 0 438 0 438 0 C438 0 721 729 721 729 C721 729 721 5 721 5 C721 5 721 0 721 0 C721 0 732 0 732 0 L732 0 Z " />
<glyph glyph-name="N" unicode="N" horiz-adv-x="670" d="M562 745 C562 745 562 29 562 29 C562 29 140 750 140 750 C140 750 137 750 137 750 C137 750 125 750 125 750 C125 750 113 750 113 750 C113 750 113 745 113 745 C113 745 113 5 113 5 C113 5 113 0 113 0 C113 0 125 0 125 0 C125 0 137 0 137 0 C137 0 137 5 137 5 C137 5 137 709 137 709 C137 709 551 0 551 0 C551 0 562 0 562 0 C562 0 579 0 579 0 C579 0 585 0 585 0 C585 0 585 745 585 745 C586 745 586 746 585 748 C586 749 586 750 585 750 C585 750 574 750 574 750 C574 750 562 750 562 750 C562 750 562 745 562 745 L562 745 Z " />
<glyph glyph-name="O" unicode="O" horiz-adv-x="838" d="M434 9 C239 9 109 155 109 375 C109 584 249 741 434 741 C620 741 760 584 760 375 C760 155 630 9 434 9 L434 9 Z M85 375 C85 144 225 -10 434 -10 C644 -10 784 144 784 375 C784 594 634 760 434 760 C235 760 85 594 85 375 L85 375 Z " />
<glyph glyph-name="P" unicode="P" horiz-adv-x="648" d="M125 0 C125 0 136 0 136 0 C136 0 136 5 136 5 C136 5 136 321 136 321 C136 321 457 321 457 321 C560 321 614 390 614 525 C614 674 560 750 457 750 C457 750 136 750 136 750 C136 750 125 750 125 750 C125 750 119 750 119 750 C119 750 113 750 113 750 C113 750 113 745 113 745 C113 745 113 5 113 5 C113 5 113 0 113 0 C113 0 125 0 125 0 L125 0 Z M136 340 C136 340 136 732 136 732 C136 732 456 732 456 732 C546 732 592 662 592 525 C592 403 546 340 458 340 C458 340 136 340 136 340 L136 340 Z " />
<glyph glyph-name="Q" unicode="Q" horiz-adv-x="838" d="M85 375 C85 144 225 -10 434 -10 C467 -10 498 -6 527 1 C527 1 755 -111 755 -111 C755 -111 767 -98 767 -98 C767 -98 553 8 553 8 C695 56 784 191 784 375 C784 594 634 760 434 760 C235 760 85 594 85 375 C85 375 85 375 85 375 L85 375 Z M499 15 C478 11 457 9 434 9 C239 9 109 155 109 375 C109 584 249 741 434 741 C620 741 760 584 760 375 C760 192 670 60 527 21 C527 21 467 51 467 51 C467 51 454 37 454 37 C454 37 499 15 499 15 L499 15 Z " />
<glyph glyph-name="R" unicode="R" horiz-adv-x="648" d="M593 0 C593 0 606 0 606 0 C606 0 619 0 619 0 C619 0 618 3 618 3 C617 4 617 5 617 5 C617 5 617 5 617 5 C617 5 466 340 466 340 C466 340 440 340 440 340 C440 340 593 0 593 0 L593 0 Z M125 0 C125 0 136 0 136 0 C136 0 136 5 136 5 C136 5 136 341 136 341 C136 341 456 341 456 341 C560 341 614 404 614 525 C614 674 560 750 457 750 C457 750 136 750 136 750 C136 750 125 750 125 750 C125 750 119 750 119 750 C119 750 113 750 113 750 C113 750 113 745 113 745 C113 745 113 5 113 5 C113 5 113 0 113 0 C113 0 125 0 125 0 L125 0 Z M136 360 C136 360 136 732 136 732 C136 732 456 732 456 732 C546 732 592 662 592 525 C592 416 546 360 457 360 C457 360 136 360 136 360 L136 360 Z " />
<glyph glyph-name="S" unicode="S" horiz-adv-x="541" d="M456 605 C456 605 456 604 456 604 C456 604 464 612 464 612 C376 710 297 760 248 760 C138 760 64 675 64 548 C64 456 135 397 274 375 C412 352 484 296 484 208 C484 90 422 11 301 11 C218 11 134 72 79 191 C79 191 69 184 69 184 C69 184 69 184 69 184 C69 184 59 176 59 176 C116 53 208 -10 301 -10 C437 -10 507 78 507 209 C507 309 430 373 280 397 C152 418 87 470 87 551 C87 664 151 739 248 739 C291 739 363 691 447 597 C447 597 456 605 456 605 L456 605 Z " />
<glyph glyph-name="T" unicode="T" horiz-adv-x="651" d="M326 0 C326 0 337 0 337 0 C337 0 337 5 337 5 C337 5 337 731 337 731 C337 731 621 731 621 731 C621 731 626 731 626 731 C626 731 626 740 626 740 C626 740 626 750 626 750 C626 750 337 750 337 750 C337 750 315 750 315 750 C315 750 26 750 26 750 C26 750 26 740 26 740 C26 740 26 731 26 731 C26 731 31 731 31 731 C31 731 315 731 315 731 C315 731 315 5 315 5 C315 5 315 0 315 0 C315 0 326 0 326 0 L326 0 Z " />
<glyph glyph-name="U" unicode="U" horiz-adv-x="650" d="M106 745 C106 745 106 294 106 294 C106 93 185 -10 338 -10 C492 -10 571 93 571 294 C571 294 571 745 571 745 C571 745 571 748 571 748 C571 748 571 750 571 750 C571 750 559 750 559 750 C559 750 547 750 547 750 C547 750 547 745 547 745 C547 745 547 298 547 298 C547 109 476 12 338 12 C200 12 129 109 129 298 C129 298 129 745 129 745 C129 745 129 750 129 750 C129 750 118 750 118 750 C118 750 106 750 106 750 C106 750 106 745 106 745 L106 745 Z " />
<glyph glyph-name="V" unicode="V" horiz-adv-x="576" d="M507 745 C507 745 507 745 507 745 C507 745 287 34 287 34 C287 34 66 745 66 745 C66 745 66 745 66 745 C66 745 65 746 65 748 C65 748 65 749 64 749 C64 749 64 750 64 750 C64 750 52 750 52 750 C52 750 40 750 40 750 C40 750 276 2 276 2 C276 2 276 0 276 0 C276 0 277 0 277 0 C277 0 297 0 297 0 C297 0 298 0 298 0 C298 0 532 745 532 745 C532 745 533 745 533 745 C533 745 533 747 533 747 C533 747 534 749 534 749 C534 749 534 750 534 750 C534 750 522 750 522 750 C522 750 509 750 509 750 C509 750 508 749 508 748 C508 746 507 745 507 745 C507 745 507 745 507 745 L507 745 Z " />
<glyph glyph-name="W" unicode="W" horiz-adv-x="787" d="M755 745 C755 745 755 745 755 745 C755 745 756 746 756 748 C756 748 756 750 756 750 C756 750 744 750 744 750 C744 750 731 750 731 750 C731 750 730 749 730 748 C730 748 730 745 730 745 C730 745 581 48 581 48 C581 48 425 748 425 748 C425 748 425 750 425 750 C425 750 424 750 424 750 C424 750 403 750 403 750 C403 750 247 48 247 48 C247 48 97 745 97 745 C97 745 97 748 97 748 C97 748 96 749 96 749 C96 749 96 750 96 750 C96 750 84 750 84 750 C84 750 72 750 72 750 C72 750 72 750 72 749 C72 749 73 745 73 745 C73 745 73 745 73 745 C73 745 73 745 73 745 C73 745 235 0 235 0 C235 0 236 0 236 0 C236 0 257 0 257 0 C257 0 414 701 414 701 C414 701 570 0 570 0 C570 0 571 0 571 0 C571 0 592 0 592 0 C592 0 755 745 755 745 L755 745 Z " />
<glyph glyph-name="X" unicode="X" horiz-adv-x="651" d="M139 745 C139 745 139 745 139 745 C139 745 350 398 350 398 C350 398 81 5 81 5 C81 5 81 5 81 5 C80 4 78 1 78 0 C78 0 91 0 91 0 C91 0 104 0 104 0 C104 0 104 0 104 0 C104 0 362 378 362 378 C362 378 591 1 591 1 C592 0 592 0 592 0 C592 0 604 0 604 0 C604 0 616 0 616 0 C616 0 613 5 613 5 C613 5 613 5 613 5 C613 5 613 5 613 5 C613 5 375 396 375 396 C375 396 614 745 614 745 C614 745 614 745 614 745 C614 745 617 749 617 750 C617 750 604 750 604 750 C604 750 591 750 591 750 C591 750 590 749 590 748 C590 748 363 416 363 416 C363 416 162 746 162 746 C161 747 160 749 159 750 C159 750 147 750 147 750 C147 750 136 750 136 750 C135 750 139 745 139 745 C139 745 139 745 139 745 L139 745 Z " />
<glyph glyph-name="Y" unicode="Y" horiz-adv-x="658" d="M329 5 C329 5 329 0 329 0 C329 0 340 0 340 0 C340 0 352 0 352 0 C352 0 352 3 352 3 C352 3 352 5 352 5 C352 5 352 329 352 329 C352 329 624 745 624 745 C624 745 624 745 624 745 C624 745 627 749 627 750 C627 750 615 750 615 750 C615 750 602 750 602 750 C602 750 600 748 600 748 C600 748 600 747 600 747 C600 747 340 348 340 348 C340 348 78 750 78 750 C78 750 66 750 66 750 C66 750 54 750 54 750 C54 750 57 746 57 746 C57 745 57 745 57 745 C57 745 57 745 57 745 C57 745 329 330 329 330 C329 330 329 5 329 5 L329 5 Z " />
<glyph glyph-name="Z" unicode="Z" horiz-adv-x="679" d="M635 10 C635 10 635 19 635 19 C635 19 630 19 630 19 C630 19 71 19 71 19 C71 19 635 731 635 731 C635 731 635 750 635 750 C635 750 60 750 60 750 C60 750 60 740 60 740 C60 740 60 731 60 731 C60 731 65 731 65 731 C65 731 609 731 609 731 C609 731 45 19 45 19 C45 19 45 0 45 0 C45 0 635 0 635 0 C635 0 635 10 635 10 L635 10 Z " />
<glyph glyph-name="bracketleft" unicode="&#x5b;" horiz-adv-x="329" d="M154 739 C154 739 300 739 300 739 C300 739 300 750 300 750 C300 750 154 750 154 750 C154 750 141 750 141 750 C141 750 141 -115 141 -115 C141 -115 154 -115 154 -115 C154 -115 300 -115 300 -115 C300 -115 300 -104 300 -104 C300 -104 154 -104 154 -104 C154 -104 154 739 154 739 L154 739 Z " />
<glyph glyph-name="backslash" unicode="&#x5c;" horiz-adv-x="298" d="M290 0 C290 0 299 0 299 0 C299 0 9 750 9 750 C9 750 0 750 0 750 C0 750 290 0 290 0 L290 0 Z " />
<glyph glyph-name="bracketright" unicode="&#x5d;" horiz-adv-x="314" d="M176 739 C176 739 176 -104 176 -104 C176 -104 30 -104 30 -104 C30 -104 30 -115 30 -115 C30 -115 176 -115 176 -115 C176 -115 189 -115 189 -115 C189 -115 189 750 189 750 C189 750 176 750 176 750 C176 750 30 750 30 750 C30 750 30 739 30 739 C30 739 176 739 176 739 L176 739 Z " />
<glyph glyph-name="underscore" unicode="&#x5f;" horiz-adv-x="704" d="M50 -106 C50 -106 655 -106 655 -106 C655 -106 655 -94 655 -94 C655 -94 50 -94 50 -94 C50 -94 50 -106 50 -106 L50 -106 Z " />
<glyph glyph-name="a" unicode="a" horiz-adv-x="574" d="M76 384 C76 384 95 377 95 377 C122 458 199 512 288 512 C403 512 480 475 480 379 C480 290 396 256 271 242 C147 228 64 170 64 97 C64 33 124 -10 277 -10 C383 -10 459 16 480 103 C480 103 480 45 480 45 C480 2 483 0 545 0 C545 0 545 15 545 15 C502 15 500 16 500 45 C500 45 500 371 500 371 C500 485 415 530 288 530 C190 530 105 471 76 384 L76 384 Z M480 323 C480 323 480 160 480 160 C480 39 401 5 283 5 C140 5 84 42 84 98 C84 163 164 216 283 229 C382 240 454 265 480 323 L480 323 Z " />
<glyph glyph-name="b" unicode="b" horiz-adv-x="614" d="M331 7 C201 7 114 85 114 260 C114 435 201 513 331 513 C463 513 551 412 551 260 C551 108 463 7 331 7 L331 7 Z M104 0 C104 0 114 0 114 0 C114 0 114 168 114 168 C140 46 224 -10 338 -10 C478 -10 572 98 572 260 C572 422 478 530 338 530 C224 530 140 474 114 352 C114 352 114 740 114 740 C114 740 114 750 114 750 C114 750 104 750 104 750 C104 750 94 750 94 750 C94 750 94 745 94 745 C94 745 94 740 94 740 C94 740 94 5 94 5 C94 5 94 0 94 0 C94 0 104 0 104 0 L104 0 Z " />
<glyph glyph-name="c" unicode="c" horiz-adv-x="583" d="M534 142 C505 62 417 8 316 8 C184 8 97 86 97 260 C97 435 184 513 316 513 C420 513 490 452 535 361 C535 361 553 370 553 370 C551 373 550 377 548 380 C548 380 548 380 548 380 C548 380 548 380 548 380 C501 470 426 530 316 530 C172 530 76 446 76 260 C76 74 172 -10 316 -10 C427 -10 522 47 553 133 C553 133 534 142 534 142 L534 142 Z " />
<glyph glyph-name="d" unicode="d" horiz-adv-x="586" d="M76 260 C76 98 162 -10 291 -10 C396 -10 472 61 497 174 C497 174 497 10 497 10 C497 10 497 0 497 0 C497 0 507 0 507 0 C507 0 517 0 517 0 C517 0 517 3 517 3 C517 3 517 5 517 5 C517 5 517 10 517 10 C517 10 517 740 517 740 C517 740 517 750 517 750 C517 750 507 750 507 750 C507 750 497 750 497 750 C497 750 497 745 497 745 C497 745 497 740 497 740 C497 740 497 346 497 346 C472 459 396 530 291 530 C162 530 76 422 76 260 L76 260 Z M497 260 C497 108 417 7 298 7 C177 7 97 108 97 260 C97 412 177 513 298 513 C417 513 497 412 497 260 L497 260 Z " />
<glyph glyph-name="e" unicode="e" horiz-adv-x="589" d="M540 141 C518 61 429 8 317 8 C188 8 100 83 97 250 C97 250 562 250 562 250 C562 418 494 530 319 530 C173 530 76 446 76 260 C76 74 173 -10 317 -10 C440 -10 536 47 559 133 C559 133 540 141 540 141 L540 141 Z M97 265 C99 436 187 513 319 513 C475 513 538 415 542 265 C542 265 97 265 97 265 L97 265 Z " />
<glyph glyph-name="f" unicode="f" horiz-adv-x="362" d="M154 0 C154 0 164 0 164 0 C164 0 164 5 164 5 C164 5 164 503 164 503 C164 503 293 503 293 503 C293 503 293 520 293 520 C293 520 164 520 164 520 C164 520 164 700 164 700 C164 724 171 733 190 733 C190 733 288 732 288 732 C288 732 288 732 288 732 C288 732 293 732 293 732 C293 732 293 741 293 741 C293 741 293 750 293 750 C293 750 184 750 184 750 C155 750 144 736 144 700 C144 700 144 520 144 520 C144 520 30 520 30 520 C30 520 30 503 30 503 C30 503 144 503 144 503 C144 503 144 5 144 5 C144 5 144 0 144 0 C144 0 154 0 154 0 L154 0 Z " />
<glyph glyph-name="g" unicode="g" horiz-adv-x="576" d="M75 -133 C75 -188 161 -210 290 -210 C446 -210 507 -141 507 -38 C507 -38 507 515 507 515 C507 515 507 518 507 518 C507 518 507 520 507 520 C507 520 497 520 497 520 C497 520 487 520 487 520 C487 520 487 347 487 347 C462 460 388 530 286 530 C160 530 76 454 76 260 C76 73 160 0 286 0 C388 0 462 68 487 176 C487 176 487 -47 487 -47 C487 -134 431 -193 288 -193 C174 -193 98 -176 98 -133 C98 -133 75 -133 75 -133 L75 -133 Z M293 513 C409 513 487 412 487 260 C487 114 409 17 293 17 C175 17 97 85 97 260 C97 442 175 513 293 513 L293 513 Z " />
<glyph glyph-name="h" unicode="h" horiz-adv-x="555" d="M476 0 C476 0 486 0 486 0 C486 0 486 5 486 5 C486 5 486 315 486 315 C486 454 418 525 315 525 C211 525 136 480 114 408 C114 408 114 740 114 740 C114 740 114 750 114 750 C114 750 104 750 104 750 C104 750 99 750 99 750 C99 750 94 750 94 750 C94 750 94 745 94 745 C94 745 94 5 94 5 C94 5 94 0 94 0 C94 0 104 0 104 0 C104 0 114 0 114 0 C114 0 114 5 114 5 C114 5 114 361 114 361 C114 448 191 506 307 506 C402 506 466 441 466 315 C466 315 466 5 466 5 C466 5 466 0 466 0 C466 0 476 0 476 0 L476 0 Z " />
<glyph glyph-name="i" unicode="i" horiz-adv-x="207" d="M97 584 C97 584 157 584 157 584 C157 584 157 644 157 644 C157 644 97 644 97 644 C97 644 97 584 97 584 L97 584 Z M127 0 C127 0 137 0 137 0 C137 0 137 5 137 5 C137 5 137 510 137 510 C137 510 137 520 137 520 C137 520 127 520 127 520 C127 520 117 520 117 520 C117 520 117 515 117 515 C117 515 117 5 117 5 C117 5 117 0 117 0 C117 0 127 0 127 0 L127 0 Z " />
<glyph glyph-name="j" unicode="j" horiz-adv-x="225" d="M116 584 C116 584 176 584 176 584 C176 584 176 644 176 644 C176 644 116 644 116 644 C116 644 116 584 116 584 L116 584 Z M40 -92 C40 -92 40 -110 40 -110 C40 -110 91 -110 91 -110 C142 -110 156 -86 156 0 C156 0 156 510 156 510 C156 510 156 520 156 520 C156 520 146 520 146 520 C146 520 136 520 136 520 C136 520 136 515 136 515 C136 515 136 0 136 0 C136 -72 125 -92 86 -92 C86 -92 40 -92 40 -92 L40 -92 Z " />
<glyph glyph-name="k" unicode="k" horiz-adv-x="539" d="M506 0 C506 0 518 0 518 0 C518 0 530 0 530 0 C530 0 529 1 529 1 C529 2 528 2 528 3 C528 3 527 4 527 4 C527 4 271 334 271 334 C271 334 487 520 487 520 C487 520 473 520 473 520 C473 520 460 520 460 520 C458 520 455 516 454 515 C454 515 454 515 454 515 C454 515 114 223 114 223 C114 223 114 740 114 740 C114 740 114 750 114 750 C114 750 104 750 104 750 C104 750 99 750 99 750 C99 750 94 750 94 750 C94 750 94 745 94 745 C94 745 94 5 94 5 C94 5 94 0 94 0 C94 0 104 0 104 0 C104 0 114 0 114 0 C114 0 114 5 114 5 C114 5 114 198 114 198 C114 198 257 321 257 321 C257 321 254 319 254 319 C254 319 506 0 506 0 L506 0 Z " />
<glyph glyph-name="l" unicode="l" horiz-adv-x="207" d="M127 0 C127 0 137 0 137 0 C137 0 137 5 137 5 C137 5 137 740 137 740 C137 740 137 750 137 750 C137 750 127 750 127 750 C127 750 117 750 117 750 C117 750 117 745 117 745 C117 745 117 5 117 5 C117 5 117 0 117 0 C117 0 127 0 127 0 L127 0 Z " />
<glyph glyph-name="m" unicode="m" horiz-adv-x="828" d="M754 0 C754 0 764 0 764 0 C764 0 764 5 764 5 C764 5 764 315 764 315 C764 454 707 525 622 525 C526 525 460 469 450 383 C433 477 376 525 299 525 C204 525 135 481 114 410 C114 410 114 510 114 510 C114 510 114 520 114 520 C114 520 104 520 104 520 C104 520 99 520 99 520 C99 520 94 520 94 520 C94 520 94 515 94 515 C94 515 94 5 94 5 C94 5 94 0 94 0 C94 0 104 0 104 0 C104 0 114 0 114 0 C114 0 114 5 114 5 C114 5 114 361 114 361 C114 448 185 506 291 506 C378 506 436 441 436 315 C436 315 436 5 436 5 C436 5 436 0 436 0 C436 0 446 0 446 0 C446 0 456 0 456 0 C456 0 456 5 456 5 C456 5 456 315 456 315 C456 331 455 347 453 361 C453 361 456 361 456 361 C456 448 519 506 614 506 C692 506 744 441 744 315 C744 315 744 5 744 5 C744 5 744 0 744 0 C744 0 754 0 754 0 L754 0 Z " />
<glyph glyph-name="n" unicode="n" horiz-adv-x="550" d="M476 0 C476 0 486 0 486 0 C486 0 486 5 486 5 C486 5 486 315 486 315 C486 454 418 525 315 525 C211 525 136 480 114 408 C114 408 114 510 114 510 C114 510 114 520 114 520 C114 520 104 520 104 520 C104 520 99 520 99 520 C99 520 94 520 94 520 C94 520 94 515 94 515 C94 515 94 5 94 5 C94 5 94 0 94 0 C94 0 104 0 104 0 C104 0 114 0 114 0 C114 0 114 5 114 5 C114 5 114 361 114 361 C114 448 191 506 307 506 C402 506 466 441 466 315 C466 315 466 5 466 5 C466 5 466 0 466 0 C466 0 476 0 476 0 L476 0 Z " />
<glyph glyph-name="o" unicode="o" horiz-adv-x="614" d="M320 6 C166 6 97 108 97 260 C97 435 186 514 320 514 C474 514 543 412 543 260 C543 85 454 6 320 6 L320 6 Z M76 260 C76 98 152 -10 320 -10 C467 -10 565 74 565 260 C565 422 489 530 320 530 C174 530 76 446 76 260 L76 260 Z " />
<glyph glyph-name="p" unicode="p" horiz-adv-x="622" d="M331 7 C201 7 114 85 114 260 C114 435 201 513 331 513 C463 513 551 412 551 260 C551 108 463 7 331 7 L331 7 Z M104 -191 C104 -191 114 -191 114 -191 C114 -191 114 -186 114 -186 C114 -186 114 168 114 168 C140 46 224 -10 338 -10 C478 -10 572 98 572 260 C572 422 478 530 338 530 C224 530 140 474 114 352 C114 352 114 510 114 510 C114 510 114 520 114 520 C114 520 104 520 104 520 C104 520 99 520 99 520 C99 520 94 520 94 520 C94 520 94 515 94 515 C94 515 94 -186 94 -186 C94 -186 94 -191 94 -191 C94 -191 104 -191 104 -191 L104 -191 Z " />
<glyph glyph-name="q" unicode="q" horiz-adv-x="586" d="M76 260 C76 98 162 -10 291 -10 C396 -10 472 61 497 174 C497 174 497 -186 497 -186 C497 -186 497 -191 497 -191 C497 -191 507 -191 507 -191 C507 -191 517 -191 517 -191 C517 -191 517 -189 517 -189 C517 -189 517 -186 517 -186 C517 -186 517 515 517 515 C517 515 517 518 517 518 C517 518 517 520 517 520 C517 520 507 520 507 520 C507 520 497 520 497 520 C497 520 497 346 497 346 C472 459 396 530 291 530 C162 530 76 422 76 260 L76 260 Z M497 260 C497 108 417 7 298 7 C177 7 97 108 97 260 C97 412 177 513 298 513 C417 513 497 412 497 260 L497 260 Z " />
<glyph glyph-name="r" unicode="r" horiz-adv-x="396" d="M376 497 C376 497 376 520 376 520 C376 520 365 520 365 520 C212 520 136 453 114 346 C114 346 114 510 114 510 C114 510 114 520 114 520 C114 520 104 520 104 520 C104 520 99 520 99 520 C99 520 94 520 94 520 C94 520 94 515 94 515 C94 515 94 5 94 5 C94 5 94 0 94 0 C94 0 104 0 104 0 C104 0 114 0 114 0 C114 0 114 5 114 5 C114 5 114 271 114 271 C114 407 184 497 363 497 C363 497 376 497 376 497 L376 497 Z " />
<glyph glyph-name="s" unicode="s" horiz-adv-x="524" d="M53 126 C53 126 53 126 53 126 C53 126 53 126 53 126 C90 47 179 -5 280 -5 C408 -5 494 53 494 140 C494 215 422 266 283 269 C162 272 100 317 100 381 C100 458 173 509 282 509 C356 509 429 454 466 371 C466 371 475 375 475 375 C475 375 475 375 475 375 C475 375 483 379 483 379 C444 467 364 525 282 525 C162 525 81 467 81 380 C81 305 148 254 279 251 C408 248 474 203 474 139 C474 63 396 12 280 12 C183 12 98 65 67 146 C67 146 48 138 48 138 C50 134 51 130 53 126 C53 126 53 126 53 126 L53 126 Z " />
<glyph glyph-name="t" unicode="t" horiz-adv-x="385" d="M340 520 C340 520 168 520 168 520 C168 520 168 672 168 672 C168 672 148 655 148 655 C148 655 148 520 148 520 C148 520 10 520 10 520 C10 520 10 503 10 503 C10 503 148 503 148 503 C148 503 148 133 148 133 C148 33 152 0 244 0 C244 0 340 0 340 0 C340 0 340 17 340 17 C340 17 253 17 253 17 C171 17 168 46 168 133 C168 133 168 503 168 503 C168 503 340 503 340 503 C340 503 340 520 340 520 L340 520 Z " />
<glyph glyph-name="u" unicode="u" horiz-adv-x="527" d="M448 520 C448 520 438 520 438 520 C438 520 438 515 438 515 C438 515 438 148 438 148 C438 64 376 9 284 9 C147 9 109 60 109 159 C109 159 109 520 109 520 C109 520 99 520 99 520 C99 520 89 520 89 520 C89 520 89 515 89 515 C89 515 89 159 89 159 C89 47 130 -10 277 -10 C361 -10 421 34 438 105 C438 105 438 10 438 10 C438 10 438 0 438 0 C438 0 448 0 448 0 C448 0 458 0 458 0 C458 0 458 5 458 5 C458 5 458 10 458 10 C458 10 458 520 458 520 C458 520 448 520 448 520 L448 520 Z " />
<glyph glyph-name="v" unicode="v" horiz-adv-x="547" d="M512 518 C512 519 513 520 513 520 C513 520 501 520 501 520 C501 520 489 520 489 520 C489 520 488 518 488 518 C488 518 488 518 488 518 C488 518 488 518 488 518 C488 518 278 17 278 17 C278 17 67 520 67 520 C67 520 56 520 56 520 C56 520 44 520 44 520 C44 520 46 515 46 515 C46 515 46 515 46 515 C46 515 46 515 46 515 C46 515 267 0 267 0 C267 0 271 0 271 0 C271 0 285 0 285 0 C285 0 289 0 289 0 C289 0 511 515 511 515 C511 515 511 515 511 515 C511 515 512 516 512 518 C512 518 512 518 512 518 L512 518 Z " />
<glyph glyph-name="w" unicode="w" horiz-adv-x="783" d="M755 515 C755 515 756 515 756 515 C755 515 756 515 756 516 C756 516 757 519 757 519 C757 519 757 520 757 520 C757 520 746 520 746 520 C746 520 735 520 735 520 C735 520 734 519 734 518 C734 516 733 515 733 515 C733 515 733 515 733 515 C733 515 575 19 575 19 C575 19 412 518 412 518 C412 518 413 520 413 520 C413 520 412 520 412 520 C412 520 395 520 395 520 C395 520 232 19 232 19 C232 19 74 515 74 515 C74 515 74 515 74 515 C74 515 73 516 73 518 C73 518 73 519 72 519 C72 519 72 520 72 520 C72 520 61 520 61 520 C61 520 51 520 51 520 C51 520 51 519 51 519 C51 519 52 517 52 517 C52 517 52 515 52 515 C52 515 53 515 53 515 C53 515 222 0 222 0 C222 0 226 0 226 0 C226 0 238 0 238 0 C238 0 243 0 243 0 C243 0 404 492 404 492 C404 492 565 0 565 0 C565 0 569 0 569 0 C569 0 581 0 581 0 C581 0 586 0 586 0 C586 0 755 515 755 515 L755 515 Z " />
<glyph glyph-name="x" unicode="x" horiz-adv-x="514" d="M56 0 C56 0 56 0 56 0 C56 0 70 0 70 0 C70 0 83 0 83 0 C83 0 83 0 83 0 C83 0 87 5 87 5 C87 5 87 5 87 5 C87 5 87 5 87 5 C87 5 279 247 279 247 C279 247 472 5 472 5 C472 5 472 5 472 5 C472 5 472 5 472 5 C472 5 476 0 476 0 C476 0 476 0 476 0 C476 0 489 0 489 0 C489 0 502 0 502 0 C502 0 501 1 501 1 C501 2 500 2 500 3 C500 3 498 5 498 5 C498 5 292 263 292 263 C292 263 492 515 492 515 C492 515 492 516 493 516 C493 516 496 520 496 520 C496 520 482 520 482 520 C482 520 468 520 468 520 C468 520 467 518 467 518 C466 518 466 518 466 518 C466 518 466 518 466 517 C466 517 464 515 464 515 C464 515 464 515 464 515 C464 515 464 515 464 515 C464 515 278 281 278 281 C278 281 92 515 92 515 C92 515 92 515 92 515 C92 515 89 519 88 520 C88 520 75 520 75 520 C75 520 63 520 63 520 C62 520 66 516 67 515 C67 515 266 265 266 265 C266 265 60 5 60 5 C59 4 57 1 56 0 C56 0 56 0 56 0 L56 0 Z " />
<glyph glyph-name="y" unicode="y" horiz-adv-x="562" d="M95 -247 C95 -247 145 -247 145 -247 C186 -247 220 -194 300 -8 C300 -8 526 515 526 515 C526 515 526 515 526 515 C526 515 527 516 527 518 C527 518 527 518 527 518 C527 519 528 520 528 520 C528 520 516 520 516 520 C516 520 504 520 504 520 C504 520 503 518 503 518 C503 518 503 518 503 518 C503 518 503 518 503 518 C503 518 296 31 296 31 C296 31 83 520 83 520 C83 520 72 520 72 520 C72 520 60 520 60 520 C60 520 62 515 62 515 C62 515 62 515 62 515 C62 515 62 515 62 515 C62 515 284 2 284 2 C284 2 283 0 283 0 C207 -178 176 -228 145 -228 C145 -228 95 -228 95 -228 C95 -228 95 -247 95 -247 L95 -247 Z " />
<glyph glyph-name="z" unicode="z" horiz-adv-x="484" d="M45 520 C45 520 45 512 45 512 C45 512 45 503 45 503 C45 503 50 503 50 503 C50 503 423 503 423 503 C423 503 30 13 30 13 C30 13 30 0 30 0 C30 0 465 0 465 0 C465 0 465 8 465 8 C465 8 465 17 465 17 C465 17 462 17 462 17 C462 17 460 17 460 17 C460 17 55 17 55 17 C55 17 449 507 449 507 C449 507 449 520 449 520 C449 520 45 520 45 520 L45 520 Z " />
<glyph glyph-name="braceleft" unicode="&#x7b;" horiz-adv-x="335" d="M305 750 C305 750 227 750 227 750 C180 750 149 713 149 657 C149 657 149 368 149 368 C149 333 116 309 66 309 C66 309 55 309 55 309 C55 309 55 299 55 299 C55 299 66 299 66 299 C116 299 149 275 149 240 C149 240 149 -48 149 -48 C149 -105 180 -142 227 -142 C227 -142 305 -142 305 -142 C305 -142 305 -130 305 -130 C305 -130 227 -130 227 -130 C188 -130 162 -97 162 -48 C162 -48 162 237 162 237 C162 268 129 295 78 304 C129 313 162 340 162 371 C162 371 162 657 162 657 C162 706 188 739 227 739 C227 739 305 739 305 739 C305 739 305 750 305 750 L305 750 Z " />
<glyph glyph-name="bar" unicode="&#x7c;" horiz-adv-x="103" d="M45 800 C45 800 45 -297 45 -297 C45 -297 58 -297 58 -297 C58 -297 58 800 58 800 C58 800 45 800 45 800 L45 800 Z " />
<glyph glyph-name="braceright" unicode="&#x7d;" horiz-adv-x="335" d="M30 750 C30 750 109 750 109 750 C155 750 186 713 186 657 C186 657 186 368 186 368 C186 333 220 309 269 309 C269 309 280 309 280 309 C280 309 280 299 280 299 C280 299 269 299 269 299 C220 299 186 275 186 240 C186 240 186 -48 186 -48 C186 -105 155 -142 109 -142 C109 -142 30 -142 30 -142 C30 -142 30 -130 30 -130 C30 -130 109 -130 109 -130 C148 -130 173 -97 173 -48 C173 -48 173 237 173 237 C173 268 207 295 257 304 C207 313 173 340 173 371 C173 371 173 657 173 657 C173 706 148 739 109 739 C109 739 30 739 30 739 C30 739 30 750 30 750 L30 750 Z " />
<glyph glyph-name="[namenotfound]" unicode="&#xa0;" horiz-adv-x="247" d="" />
<glyph glyph-name="exclamdown" unicode="&#xa1;" horiz-adv-x="113" d="M87 520 C87 520 27 520 27 520 C27 520 27 460 27 460 C27 460 87 460 87 460 C87 460 87 520 87 520 L87 520 Z M68 -230 C68 -230 68 80 68 80 C68 80 60 305 60 305 C60 305 54 305 54 305 C54 305 45 80 45 80 C45 80 45 -230 45 -230 C45 -230 68 -230 68 -230 L68 -230 Z " />
<glyph glyph-name="cent" unicode="&#xa2;" horiz-adv-x="579" d="M301 595 C301 595 301 530 301 530 C165 525 76 440 76 260 C76 80 165 -5 301 -10 C301 -10 301 -75 301 -75 C301 -75 327 -75 327 -75 C327 -75 327 -10 327 -10 C431 -5 519 50 549 133 C549 133 530 142 530 142 C502 65 421 13 327 8 C327 8 327 513 327 513 C434 509 496 453 525 369 C523 366 521 362 521 356 C521 348 526 342 533 342 C546 342 552 349 549 360 C522 459 454 526 327 530 C327 530 327 595 327 595 C327 595 301 595 301 595 L301 595 Z M301 8 C178 13 97 92 97 260 C97 429 178 508 301 513 C301 513 301 8 301 8 L301 8 Z " />
<glyph glyph-name="guillemotleft" unicode="&#xab;" horiz-adv-x="480" d="M413 470 C413 470 256 260 256 260 C256 260 413 50 413 50 C413 50 431 50 431 50 C431 50 273 260 273 260 C273 260 431 470 431 470 C431 470 413 470 413 470 L413 470 Z M248 470 C248 470 91 260 91 260 C91 260 248 50 248 50 C248 50 265 50 265 50 C265 50 108 260 108 260 C108 260 265 470 265 470 C265 470 248 470 248 470 L248 470 Z " />
<glyph glyph-name="logicalnot" unicode="&#xac;" horiz-adv-x="446" d="M396 104 C396 104 396 254 396 254 C396 254 396 272 396 272 C396 272 375 272 375 272 C375 272 50 272 50 272 C50 272 50 254 50 254 C50 254 375 254 375 254 C375 254 375 104 375 104 C375 104 396 104 396 104 L396 104 Z " />
<glyph glyph-name="periodcentered" unicode="&#xb7;" horiz-adv-x="160" d="M50 230 C50 230 110 230 110 230 C110 230 110 290 110 290 C110 290 50 290 50 290 C50 290 50 230 50 230 L50 230 Z " />
<glyph glyph-name="guillemotright" unicode="&#xbb;" horiz-adv-x="462" d="M279 470 C279 470 437 260 437 260 C437 260 279 50 279 50 C279 50 297 50 297 50 C297 50 454 260 454 260 C454 260 297 470 297 470 C297 470 279 470 279 470 L279 470 Z M114 470 C114 470 271 260 271 260 C271 260 114 50 114 50 C114 50 131 50 131 50 C131 50 289 260 289 260 C289 260 131 470 131 470 C131 470 114 470 114 470 L114 470 Z " />
<glyph glyph-name="questiondown" unicode="&#xbf;" horiz-adv-x="573" d="M297 520 C297 520 237 520 237 520 C237 520 237 460 237 460 C237 460 297 460 297 460 C297 460 297 520 297 520 L297 520 Z M535 -36 C535 -36 516 -32 516 -32 C506 -147 406 -224 266 -224 C140 -224 56 -148 56 -35 C56 55 79 101 137 128 C254 183 276 211 277 305 C277 305 258 305 258 305 C257 220 236 194 123 141 C60 111 35 62 35 -35 C35 -158 127 -240 266 -240 C417 -240 524 -158 535 -36 L535 -36 Z " />
<glyph glyph-name="Agrave" unicode="&#xc0;" horiz-adv-x="749" d="M380 814 C380 814 399 814 399 814 C399 814 318 964 318 964 C318 964 292 964 292 964 C292 964 380 814 380 814 L380 814 Z M606 242 C606 242 598 260 598 260 C598 260 180 260 180 260 C180 260 389 724 389 724 C389 724 715 0 715 0 C715 0 727 0 727 0 C727 0 740 0 740 0 C740 0 401 750 401 750 C401 750 389 750 389 750 C389 750 378 750 378 750 C378 750 377 750 377 750 C377 750 376 749 376 748 C376 747 375 746 375 746 C375 746 40 5 40 5 C40 5 40 5 40 5 C40 5 39 4 39 3 C38 1 38 0 38 0 C38 0 50 0 50 0 C50 0 63 0 63 0 C63 0 64 1 64 2 C64 2 65 4 65 4 C65 4 66 5 66 5 C66 5 65 5 65 5 C65 5 179 257 179 257 C179 257 173 242 173 242 C173 242 606 242 606 242 L606 242 Z " />
<glyph glyph-name="Aacute" unicode="&#xc1;" horiz-adv-x="749" d="M380 814 C380 814 399 814 399 814 C399 814 487 964 487 964 C487 964 461 964 461 964 C461 964 380 814 380 814 L380 814 Z M606 242 C606 242 598 260 598 260 C598 260 180 260 180 260 C180 260 389 724 389 724 C389 724 715 0 715 0 C715 0 727 0 727 0 C727 0 740 0 740 0 C740 0 401 750 401 750 C401 750 389 750 389 750 C389 750 378 750 378 750 C378 750 377 750 377 750 C377 750 376 749 376 748 C376 747 375 746 375 746 C375 746 40 5 40 5 C40 5 40 5 40 5 C40 5 39 4 39 3 C38 1 38 0 38 0 C38 0 50 0 50 0 C50 0 63 0 63 0 C63 0 64 1 64 2 C64 2 65 4 65 4 C65 4 66 5 66 5 C66 5 65 5 65 5 C65 5 179 257 179 257 C179 257 173 242 173 242 C173 242 606 242 606 242 L606 242 Z " />
<glyph glyph-name="Acircumflex" unicode="&#xc2;" horiz-adv-x="749" d="M390 948 C390 948 549 814 549 814 C549 814 568 814 568 814 C568 814 400 964 400 964 C400 964 379 964 379 964 C379 964 211 814 211 814 C211 814 230 814 230 814 C230 814 390 948 390 948 L390 948 Z M606 242 C606 242 598 260 598 260 C598 260 180 260 180 260 C180 260 389 724 389 724 C389 724 715 0 715 0 C715 0 727 0 727 0 C727 0 740 0 740 0 C740 0 401 750 401 750 C401 750 389 750 389 750 C389 750 378 750 378 750 C378 750 377 750 377 750 C377 750 376 749 376 748 C376 747 375 746 375 746 C375 746 40 5 40 5 C40 5 40 5 40 5 C40 5 39 4 39 3 C38 1 38 0 38 0 C38 0 50 0 50 0 C50 0 63 0 63 0 C63 0 64 1 64 2 C64 2 65 4 65 4 C65 4 66 5 66 5 C66 5 65 5 65 5 C65 5 179 257 179 257 C179 257 173 242 173 242 C173 242 606 242 606 242 L606 242 Z " />
<glyph glyph-name="Atilde" unicode="&#xc3;" horiz-adv-x="749" d="M300 814 C300 851 318 876 346 876 C385 876 386 804 435 804 C470 804 494 835 494 881 C494 881 480 881 480 881 C480 845 461 820 433 820 C394 820 393 891 345 891 C309 891 285 860 285 814 C285 814 300 814 300 814 L300 814 Z M606 242 C606 242 598 260 598 260 C598 260 180 260 180 260 C180 260 389 724 389 724 C389 724 715 0 715 0 C715 0 727 0 727 0 C727 0 740 0 740 0 C740 0 401 750 401 750 C401 750 389 750 389 750 C389 750 378 750 378 750 C378 750 377 750 377 750 C377 750 376 749 376 748 C376 747 375 746 375 746 C375 746 40 5 40 5 C40 5 40 5 40 5 C40 5 39 4 39 3 C38 1 38 0 38 0 C38 0 50 0 50 0 C50 0 63 0 63 0 C63 0 64 1 64 2 C64 2 65 4 65 4 C65 4 66 5 66 5 C66 5 65 5 65 5 C65 5 179 257 179 257 C179 257 173 242 173 242 C173 242 606 242 606 242 L606 242 Z " />
<glyph glyph-name="Adieresis" unicode="&#xc4;" horiz-adv-x="749" d="M424 814 C424 814 484 814 484 814 C484 814 484 874 484 874 C484 874 424 874 424 874 C424 874 424 814 424 814 L424 814 Z M296 814 C296 814 356 814 356 814 C356 814 356 874 356 874 C356 874 296 874 296 874 C296 874 296 814 296 814 L296 814 Z M606 242 C606 242 598 260 598 260 C598 260 180 260 180 260 C180 260 389 724 389 724 C389 724 715 0 715 0 C715 0 727 0 727 0 C727 0 740 0 740 0 C740 0 401 750 401 750 C401 750 389 750 389 750 C389 750 378 750 378 750 C378 750 377 750 377 750 C377 750 376 749 376 748 C376 747 375 746 375 746 C375 746 40 5 40 5 C40 5 40 5 40 5 C40 5 39 4 39 3 C38 1 38 0 38 0 C38 0 50 0 50 0 C50 0 63 0 63 0 C63 0 64 1 64 2 C64 2 65 4 65 4 C65 4 66 5 66 5 C66 5 65 5 65 5 C65 5 179 257 179 257 C179 257 173 242 173 242 C173 242 606 242 606 242 L606 242 Z " />
<glyph glyph-name="Aring" unicode="&#xc5;" horiz-adv-x="749" d="M390 823 C344 823 321 849 321 899 C321 947 346 975 390 975 C433 975 458 947 458 899 C458 849 435 823 390 823 L390 823 Z M311 899 C311 843 338 814 390 814 C441 814 468 843 468 899 C468 953 439 984 390 984 C340 984 311 953 311 899 L311 899 Z M606 242 C606 242 598 260 598 260 C598 260 180 260 180 260 C180 260 389 724 389 724 C389 724 715 0 715 0 C715 0 727 0 727 0 C727 0 740 0 740 0 C740 0 401 750 401 750 C401 750 389 750 389 750 C389 750 378 750 378 750 C378 750 377 750 377 750 C377 750 376 749 376 748 C376 747 375 746 375 746 C375 746 40 5 40 5 C40 5 40 5 40 5 C40 5 39 4 39 3 C38 1 38 0 38 0 C38 0 50 0 50 0 C50 0 63 0 63 0 C63 0 64 1 64 2 C64 2 65 4 65 4 C65 4 66 5 66 5 C66 5 65 5 65 5 C65 5 179 257 179 257 C179 257 173 242 173 242 C173 242 606 242 606 242 L606 242 Z " />
<glyph glyph-name="Ccedilla" unicode="&#xc7;" horiz-adv-x="748" d="M711 184 C664 79 543 9 407 9 C225 9 104 177 104 375 C104 573 225 741 407 741 C529 741 650 671 711 566 C711 566 720 574 720 574 C720 574 720 573 720 573 C720 573 728 581 728 581 C666 688 538 760 407 760 C211 760 80 583 80 375 C80 170 207 -4 398 -10 C398 -10 369 -104 369 -104 C369 -104 375 -108 375 -108 C378 -99 399 -93 427 -93 C459 -93 480 -114 480 -146 C480 -178 459 -199 426 -199 C396 -199 374 -187 373 -169 C373 -169 364 -176 364 -176 C365 -196 390 -209 427 -209 C465 -209 491 -184 491 -146 C491 -108 466 -82 429 -82 C402 -82 382 -88 377 -100 C377 -100 405 -10 405 -10 C406 -10 406 -10 407 -10 C552 -10 680 62 728 169 C728 169 711 184 711 184 L711 184 Z " />
<glyph glyph-name="Egrave" unicode="&#xc8;" horiz-adv-x="585" d="M308 814 C308 814 326 814 326 814 C326 814 246 964 246 964 C246 964 220 964 220 964 C220 964 308 814 308 814 L308 814 Z M536 10 C536 10 536 19 536 19 C536 19 531 19 531 19 C531 19 136 19 136 19 C136 19 136 378 136 378 C136 378 496 378 496 378 C496 378 501 378 501 378 C501 378 501 387 501 387 C501 387 501 396 501 396 C501 396 496 396 496 396 C496 396 136 396 136 396 C136 396 136 731 136 731 C136 731 516 731 516 731 C516 731 521 731 521 731 C521 731 521 740 521 740 C521 740 521 750 521 750 C521 750 136 750 136 750 C136 750 135 750 135 750 C135 750 125 750 125 750 C125 750 113 750 113 750 C113 750 113 745 113 745 C113 745 113 5 113 5 C113 5 113 0 113 0 C113 0 125 0 125 0 C125 0 135 0 135 0 C135 0 136 0 136 0 C136 0 536 0 536 0 C536 0 536 10 536 10 L536 10 Z " />
<glyph glyph-name="Eacute" unicode="&#xc9;" horiz-adv-x="585" d="M308 814 C308 814 326 814 326 814 C326 814 414 964 414 964 C414 964 388 964 388 964 C388 964 308 814 308 814 L308 814 Z M536 10 C536 10 536 19 536 19 C536 19 531 19 531 19 C531 19 136 19 136 19 C136 19 136 378 136 378 C136 378 496 378 496 378 C496 378 501 378 501 378 C501 378 501 387 501 387 C501 387 501 396 501 396 C501 396 496 396 496 396 C496 396 136 396 136 396 C136 396 136 731 136 731 C136 731 516 731 516 731 C516 731 521 731 521 731 C521 731 521 740 521 740 C521 740 521 750 521 750 C521 750 136 750 136 750 C136 750 135 750 135 750 C135 750 125 750 125 750 C125 750 113 750 113 750 C113 750 113 745 113 745 C113 745 113 5 113 5 C113 5 113 0 113 0 C113 0 125 0 125 0 C125 0 135 0 135 0 C135 0 136 0 136 0 C136 0 536 0 536 0 C536 0 536 10 536 10 L536 10 Z " />
<glyph glyph-name="Ecircumflex" unicode="&#xca;" horiz-adv-x="585" d="M317 948 C317 948 477 814 477 814 C477 814 495 814 495 814 C495 814 327 964 327 964 C327 964 307 964 307 964 C307 964 139 814 139 814 C139 814 157 814 157 814 C157 814 317 948 317 948 L317 948 Z M536 10 C536 10 536 19 536 19 C536 19 531 19 531 19 C531 19 136 19 136 19 C136 19 136 378 136 378 C136 378 496 378 496 378 C496 378 501 378 501 378 C501 378 501 387 501 387 C501 387 501 396 501 396 C501 396 496 396 496 396 C496 396 136 396 136 396 C136 396 136 731 136 731 C136 731 516 731 516 731 C516 731 521 731 521 731 C521 731 521 740 521 740 C521 740 521 750 521 750 C521 750 136 750 136 750 C136 750 135 750 135 750 C135 750 125 750 125 750 C125 750 113 750 113 750 C113 750 113 745 113 745 C113 745 113 5 113 5 C113 5 113 0 113 0 C113 0 125 0 125 0 C125 0 135 0 135 0 C135 0 136 0 136 0 C136 0 536 0 536 0 C536 0 536 10 536 10 L536 10 Z " />
<glyph glyph-name="Edieresis" unicode="&#xcb;" horiz-adv-x="585" d="M351 814 C351 814 411 814 411 814 C411 814 411 874 411 874 C411 874 351 874 351 874 C351 874 351 814 351 814 L351 814 Z M223 814 C223 814 283 814 283 814 C283 814 283 874 283 874 C283 874 223 874 223 874 C223 874 223 814 223 814 L223 814 Z M536 10 C536 10 536 19 536 19 C536 19 531 19 531 19 C531 19 136 19 136 19 C136 19 136 378 136 378 C136 378 496 378 496 378 C496 378 501 378 501 378 C501 378 501 387 501 387 C501 387 501 396 501 396 C501 396 496 396 496 396 C496 396 136 396 136 396 C136 396 136 731 136 731 C136 731 516 731 516 731 C516 731 521 731 521 731 C521 731 521 740 521 740 C521 740 521 750 521 750 C521 750 136 750 136 750 C136 750 135 750 135 750 C135 750 125 750 125 750 C125 750 113 750 113 750 C113 750 113 745 113 745 C113 745 113 5 113 5 C113 5 113 0 113 0 C113 0 125 0 125 0 C125 0 135 0 135 0 C135 0 136 0 136 0 C136 0 536 0 536 0 C536 0 536 10 536 10 L536 10 Z " />
<glyph glyph-name="Igrave" unicode="&#xcc;" horiz-adv-x="192" d="M88 814 C88 814 106 814 106 814 C106 814 25 964 25 964 C25 964 -1 964 -1 964 C-1 964 88 814 88 814 L88 814 Z M85 745 C85 745 86 745 86 745 C86 745 86 5 86 5 C86 5 85 5 85 5 C85 5 85 0 85 0 C85 0 86 0 86 0 C86 0 97 0 97 0 C97 0 108 0 108 0 C108 0 108 5 108 5 C108 5 108 745 108 745 C108 745 108 750 108 750 C108 750 97 750 97 750 C97 750 86 750 86 750 C86 750 85 750 85 750 C85 750 85 745 85 745 L85 745 Z " />
<glyph glyph-name="Iacute" unicode="&#xcd;" horiz-adv-x="192" d="M88 814 C88 814 106 814 106 814 C106 814 194 964 194 964 C194 964 168 964 168 964 C168 964 88 814 88 814 L88 814 Z M85 745 C85 745 86 745 86 745 C86 745 86 5 86 5 C86 5 85 5 85 5 C85 5 85 0 85 0 C85 0 86 0 86 0 C86 0 97 0 97 0 C97 0 108 0 108 0 C108 0 108 5 108 5 C108 5 108 745 108 745 C108 745 108 750 108 750 C108 750 97 750 97 750 C97 750 86 750 86 750 C86 750 85 750 85 750 C85 750 85 745 85 745 L85 745 Z " />
<glyph glyph-name="Icircumflex" unicode="&#xce;" horiz-adv-x="248" d="M125 948 C125 948 284 814 284 814 C284 814 303 814 303 814 C303 814 135 964 135 964 C135 964 115 964 115 964 C115 964 -53 814 -53 814 C-53 814 -35 814 -35 814 C-35 814 125 948 125 948 L125 948 Z M113 745 C113 745 114 745 114 745 C114 745 114 5 114 5 C114 5 113 5 113 5 C113 5 113 0 113 0 C113 0 114 0 114 0 C114 0 125 0 125 0 C125 0 136 0 136 0 C136 0 136 5 136 5 C136 5 136 745 136 745 C136 745 136 750 136 750 C136 750 125 750 125 750 C125 750 114 750 114 750 C114 750 113 750 113 750 C113 750 113 745 113 745 L113 745 Z " />
<glyph glyph-name="Idieresis" unicode="&#xcf;" horiz-adv-x="192" d="M131 814 C131 814 191 814 191 814 C191 814 191 874 191 874 C191 874 131 874 131 874 C131 874 131 814 131 814 L131 814 Z M3 814 C3 814 63 814 63 814 C63 814 63 874 63 874 C63 874 3 874 3 874 C3 874 3 814 3 814 L3 814 Z M85 745 C85 745 86 745 86 745 C86 745 86 5 86 5 C86 5 85 5 85 5 C85 5 85 0 85 0 C85 0 86 0 86 0 C86 0 97 0 97 0 C97 0 108 0 108 0 C108 0 108 5 108 5 C108 5 108 745 108 745 C108 745 108 750 108 750 C108 750 97 750 97 750 C97 750 86 750 86 750 C86 750 85 750 85 750 C85 750 85 745 85 745 L85 745 Z " />
<glyph glyph-name="Ntilde" unicode="&#xd1;" horiz-adv-x="670" d="M259 814 C259 851 278 876 306 876 C345 876 346 804 394 804 C430 804 454 835 454 881 C454 881 439 881 439 881 C439 845 421 820 393 820 C353 820 353 891 304 891 C269 891 245 860 245 814 C245 814 259 814 259 814 L259 814 Z M562 745 C562 745 562 29 562 29 C562 29 140 750 140 750 C140 750 137 750 137 750 C137 750 125 750 125 750 C125 750 113 750 113 750 C113 750 113 745 113 745 C113 745 113 5 113 5 C113 5 113 0 113 0 C113 0 125 0 125 0 C125 0 137 0 137 0 C137 0 137 5 137 5 C137 5 137 709 137 709 C137 709 551 0 551 0 C551 0 562 0 562 0 C562 0 579 0 579 0 C579 0 585 0 585 0 C585 0 585 745 585 745 C586 745 586 746 585 748 C586 749 586 750 585 750 C585 750 574 750 574 750 C574 750 562 750 562 750 C562 750 562 745 562 745 L562 745 Z " />
<glyph glyph-name="Ograve" unicode="&#xd2;" horiz-adv-x="838" d="M425 814 C425 814 444 814 444 814 C444 814 363 964 363 964 C363 964 337 964 337 964 C337 964 425 814 425 814 L425 814 Z M434 9 C239 9 109 155 109 375 C109 584 249 741 434 741 C620 741 760 584 760 375 C760 155 630 9 434 9 L434 9 Z M85 375 C85 144 225 -10 434 -10 C644 -10 784 144 784 375 C784 594 634 760 434 760 C235 760 85 594 85 375 L85 375 Z " />
<glyph glyph-name="Oacute" unicode="&#xd3;" horiz-adv-x="838" d="M425 814 C425 814 444 814 444 814 C444 814 532 964 532 964 C532 964 506 964 506 964 C506 964 425 814 425 814 L425 814 Z M434 9 C239 9 109 155 109 375 C109 584 249 741 434 741 C620 741 760 584 760 375 C760 155 630 9 434 9 L434 9 Z M85 375 C85 144 225 -10 434 -10 C644 -10 784 144 784 375 C784 594 634 760 434 760 C235 760 85 594 85 375 L85 375 Z " />
<glyph glyph-name="Ocircumflex" unicode="&#xd4;" horiz-adv-x="838" d="M434 948 C434 948 594 814 594 814 C594 814 613 814 613 814 C613 814 445 964 445 964 C445 964 424 964 424 964 C424 964 256 814 256 814 C256 814 275 814 275 814 C275 814 434 948 434 948 L434 948 Z M434 9 C239 9 109 155 109 375 C109 584 249 741 434 741 C620 741 760 584 760 375 C760 155 630 9 434 9 L434 9 Z M85 375 C85 144 225 -10 434 -10 C644 -10 784 144 784 375 C784 594 634 760 434 760 C235 760 85 594 85 375 L85 375 Z " />
<glyph glyph-name="Otilde" unicode="&#xd5;" horiz-adv-x="838" d="M344 814 C344 851 363 876 391 876 C430 876 431 804 479 804 C515 804 539 835 539 881 C539 881 524 881 524 881 C524 845 506 820 478 820 C439 820 438 891 389 891 C354 891 330 860 330 814 C330 814 344 814 344 814 L344 814 Z M434 9 C239 9 109 155 109 375 C109 584 249 741 434 741 C620 741 760 584 760 375 C760 155 630 9 434 9 L434 9 Z M85 375 C85 144 225 -10 434 -10 C644 -10 784 144 784 375 C784 594 634 760 434 760 C235 760 85 594 85 375 L85 375 Z " />
<glyph glyph-name="Odieresis" unicode="&#xd6;" horiz-adv-x="838" d="M468 814 C468 814 528 814 528 814 C528 814 528 874 528 874 C528 874 468 874 468 874 C468 874 468 814 468 814 L468 814 Z M340 814 C340 814 400 814 400 814 C400 814 400 874 400 874 C400 874 340 874 340 874 C340 874 340 814 340 814 L340 814 Z M434 9 C239 9 109 155 109 375 C109 584 249 741 434 741 C620 741 760 584 760 375 C760 155 630 9 434 9 L434 9 Z M85 375 C85 144 225 -10 434 -10 C644 -10 784 144 784 375 C784 594 634 760 434 760 C235 760 85 594 85 375 L85 375 Z " />
<glyph glyph-name="Oslash" unicode="&#xd8;" horiz-adv-x="838" d="M434 9 C338 9 258 44 201 107 C201 107 670 632 670 632 C726 567 760 477 760 375 C760 155 630 9 434 9 C434 9 434 9 434 9 L434 9 Z M85 375 C85 260 120 164 180 97 C180 97 85 -10 85 -10 C85 -10 97 -10 97 -10 C97 -10 186 90 186 90 C247 26 332 -10 434 -10 C644 -10 784 144 784 375 C784 484 747 580 685 649 C685 649 784 760 784 760 C784 760 771 760 771 760 C771 760 678 656 678 656 C616 721 531 760 434 760 C235 760 85 594 85 375 C85 375 85 375 85 375 L85 375 Z M195 113 C140 177 109 267 109 375 C109 584 249 741 434 741 C525 741 606 703 664 640 C664 640 195 113 195 113 L195 113 Z " />
<glyph glyph-name="Ugrave" unicode="&#xd9;" horiz-adv-x="650" d="M329 804 C329 804 348 804 348 804 C348 804 267 954 267 954 C267 954 241 954 241 954 C241 954 329 804 329 804 L329 804 Z M106 745 C106 745 106 294 106 294 C106 93 185 -10 338 -10 C492 -10 571 93 571 294 C571 294 571 745 571 745 C571 745 571 748 571 748 C571 748 571 750 571 750 C571 750 559 750 559 750 C559 750 547 750 547 750 C547 750 547 745 547 745 C547 745 547 298 547 298 C547 109 476 12 338 12 C200 12 129 109 129 298 C129 298 129 745 129 745 C129 745 129 750 129 750 C129 750 118 750 118 750 C118 750 106 750 106 750 C106 750 106 745 106 745 L106 745 Z " />
<glyph glyph-name="Uacute" unicode="&#xda;" horiz-adv-x="650" d="M329 804 C329 804 348 804 348 804 C348 804 436 954 436 954 C436 954 410 954 410 954 C410 954 329 804 329 804 L329 804 Z M106 745 C106 745 106 294 106 294 C106 93 185 -10 338 -10 C492 -10 571 93 571 294 C571 294 571 745 571 745 C571 745 571 748 571 748 C571 748 571 750 571 750 C571 750 559 750 559 750 C559 750 547 750 547 750 C547 750 547 745 547 745 C547 745 547 298 547 298 C547 109 476 12 338 12 C200 12 129 109 129 298 C129 298 129 745 129 745 C129 745 129 750 129 750 C129 750 118 750 118 750 C118 750 106 750 106 750 C106 750 106 745 106 745 L106 745 Z " />
<glyph glyph-name="Ucircumflex" unicode="&#xdb;" horiz-adv-x="650" d="M338 938 C338 938 498 804 498 804 C498 804 517 804 517 804 C517 804 349 954 349 954 C349 954 328 954 328 954 C328 954 160 804 160 804 C160 804 179 804 179 804 C179 804 338 938 338 938 L338 938 Z M106 745 C106 745 106 294 106 294 C106 93 185 -10 338 -10 C492 -10 571 93 571 294 C571 294 571 745 571 745 C571 745 571 748 571 748 C571 748 571 750 571 750 C571 750 559 750 559 750 C559 750 547 750 547 750 C547 750 547 745 547 745 C547 745 547 298 547 298 C547 109 476 12 338 12 C200 12 129 109 129 298 C129 298 129 745 129 745 C129 745 129 750 129 750 C129 750 118 750 118 750 C118 750 106 750 106 750 C106 750 106 745 106 745 L106 745 Z " />
<glyph glyph-name="Udieresis" unicode="&#xdc;" horiz-adv-x="650" d="M372 804 C372 804 432 804 432 804 C432 804 432 864 432 864 C432 864 372 864 372 864 C372 864 372 804 372 804 L372 804 Z M245 804 C245 804 305 804 305 804 C305 804 305 864 305 864 C305 864 245 864 245 864 C245 864 245 804 245 804 L245 804 Z M106 745 C106 745 106 294 106 294 C106 93 185 -10 338 -10 C492 -10 571 93 571 294 C571 294 571 745 571 745 C571 745 571 748 571 748 C571 748 571 750 571 750 C571 750 559 750 559 750 C559 750 547 750 547 750 C547 750 547 745 547 745 C547 745 547 298 547 298 C547 109 476 12 338 12 C200 12 129 109 129 298 C129 298 129 745 129 745 C129 745 129 750 129 750 C129 750 118 750 118 750 C118 750 106 750 106 750 C106 750 106 745 106 745 L106 745 Z " />
<glyph glyph-name="Yacute" unicode="&#xdd;" horiz-adv-x="626" d="M320 814 C320 814 339 814 339 814 C339 814 427 964 427 964 C427 964 401 964 401 964 C401 964 320 814 320 814 L320 814 Z M318 5 C318 5 318 0 318 0 C318 0 329 0 329 0 C329 0 341 0 341 0 C341 0 341 3 341 3 C341 3 341 5 341 5 C341 5 341 329 341 329 C341 329 613 745 613 745 C613 745 613 745 613 745 C613 745 616 749 616 750 C616 750 604 750 604 750 C604 750 591 750 591 750 C591 750 589 748 589 748 C589 748 589 747 589 747 C589 747 329 348 329 348 C329 348 67 750 67 750 C67 750 55 750 55 750 C55 750 43 750 43 750 C43 750 46 746 46 746 C46 745 46 745 46 745 C46 745 46 745 46 745 C46 745 318 330 318 330 C318 330 318 5 318 5 L318 5 Z " />
<glyph glyph-name="Thorn" unicode="&#xde;" horiz-adv-x="648" d="M125 0 C125 0 136 0 136 0 C136 0 136 5 136 5 C136 5 136 150 136 150 C136 150 457 150 457 150 C560 150 614 227 614 375 C614 524 560 600 457 600 C457 600 136 600 136 600 C136 600 136 745 136 745 C136 745 136 750 136 750 C136 750 125 750 125 750 C125 750 113 750 113 750 C113 750 113 745 113 745 C113 745 113 5 113 5 C113 5 113 0 113 0 C113 0 125 0 125 0 L125 0 Z M136 168 C136 168 136 582 136 582 C136 582 456 582 456 582 C546 582 592 512 592 375 C592 238 546 168 458 168 C458 168 136 168 136 168 L136 168 Z " />
<glyph glyph-name="agrave" unicode="&#xe0;" horiz-adv-x="574" d="M279 584 C279 584 297 584 297 584 C297 584 217 734 217 734 C217 734 191 734 191 734 C191 734 279 584 279 584 L279 584 Z M76 384 C76 384 95 377 95 377 C122 458 199 512 288 512 C403 512 480 475 480 379 C480 290 396 256 271 242 C147 228 64 170 64 97 C64 33 124 -10 277 -10 C383 -10 459 16 480 103 C480 103 480 45 480 45 C480 2 483 0 545 0 C545 0 545 15 545 15 C502 15 500 16 500 45 C500 45 500 371 500 371 C500 485 415 530 288 530 C190 530 105 471 76 384 L76 384 Z M480 323 C480 323 480 160 480 160 C480 39 401 5 283 5 C140 5 84 42 84 98 C84 163 164 216 283 229 C382 240 454 265 480 323 L480 323 Z " />
<glyph glyph-name="aacute" unicode="&#xe1;" horiz-adv-x="574" d="M279 584 C279 584 297 584 297 584 C297 584 385 734 385 734 C385 734 359 734 359 734 C359 734 279 584 279 584 L279 584 Z M76 384 C76 384 95 377 95 377 C122 458 199 512 288 512 C403 512 480 475 480 379 C480 290 396 256 271 242 C147 228 64 170 64 97 C64 33 124 -10 277 -10 C383 -10 459 16 480 103 C480 103 480 45 480 45 C480 2 483 0 545 0 C545 0 545 15 545 15 C502 15 500 16 500 45 C500 45 500 371 500 371 C500 485 415 530 288 530 C190 530 105 471 76 384 L76 384 Z M480 323 C480 323 480 160 480 160 C480 39 401 5 283 5 C140 5 84 42 84 98 C84 163 164 216 283 229 C382 240 454 265 480 323 L480 323 Z " />
<glyph glyph-name="acircumflex" unicode="&#xe2;" horiz-adv-x="574" d="M288 718 C288 718 448 584 448 584 C448 584 466 584 466 584 C466 584 298 734 298 734 C298 734 278 734 278 734 C278 734 110 584 110 584 C110 584 128 584 128 584 C128 584 288 718 288 718 L288 718 Z M76 384 C76 384 95 377 95 377 C122 458 199 512 288 512 C403 512 480 475 480 379 C480 290 396 256 271 242 C147 228 64 170 64 97 C64 33 124 -10 277 -10 C383 -10 459 16 480 103 C480 103 480 45 480 45 C480 2 483 0 545 0 C545 0 545 15 545 15 C502 15 500 16 500 45 C500 45 500 371 500 371 C500 485 415 530 288 530 C190 530 105 471 76 384 L76 384 Z M480 323 C480 323 480 160 480 160 C480 39 401 5 283 5 C140 5 84 42 84 98 C84 163 164 216 283 229 C382 240 454 265 480 323 L480 323 Z " />
<glyph glyph-name="atilde" unicode="&#xe3;" horiz-adv-x="636" d="M231 584 C231 621 250 646 277 646 C317 646 318 574 366 574 C402 574 426 605 426 651 C426 651 411 651 411 651 C411 615 392 590 365 590 C325 590 324 661 276 661 C240 661 216 630 216 584 C216 584 231 584 231 584 L231 584 Z M76 260 C76 98 181 -10 340 -10 C445 -10 522 61 547 174 C547 174 547 0 547 0 C547 0 567 0 567 0 C567 0 567 520 567 520 C567 520 547 520 547 520 C547 520 547 346 547 346 C522 459 445 530 340 530 C181 530 76 422 76 260 C76 260 76 260 76 260 L76 260 Z M547 260 C547 108 467 7 347 7 C197 7 97 108 97 260 C97 412 197 513 347 513 C467 513 547 412 547 260 L547 260 Z " />
<glyph glyph-name="adieresis" unicode="&#xe4;" horiz-adv-x="574" d="M336 584 C336 584 396 584 396 584 C396 584 396 644 396 644 C396 644 336 644 336 644 C336 644 336 584 336 584 L336 584 Z M181 584 C181 584 241 584 241 584 C241 584 241 644 241 644 C241 644 181 644 181 644 C181 644 181 584 181 584 L181 584 Z M76 384 C76 384 95 377 95 377 C122 458 199 512 288 512 C403 512 480 475 480 379 C480 290 396 256 271 242 C147 228 64 170 64 97 C64 33 124 -10 277 -10 C383 -10 459 16 480 103 C480 103 480 45 480 45 C480 2 483 0 545 0 C545 0 545 15 545 15 C502 15 500 16 500 45 C500 45 500 371 500 371 C500 485 415 530 288 530 C190 530 105 471 76 384 L76 384 Z M480 323 C480 323 480 160 480 160 C480 39 401 5 283 5 C140 5 84 42 84 98 C84 163 164 216 283 229 C382 240 454 265 480 323 L480 323 Z " />
<glyph glyph-name="aring" unicode="&#xe5;" horiz-adv-x="574" d="M288 593 C242 593 219 619 219 669 C219 717 245 745 288 745 C331 745 357 717 357 669 C357 619 334 593 288 593 L288 593 Z M210 669 C210 613 237 584 288 584 C340 584 367 613 367 669 C367 723 338 754 288 754 C239 754 210 723 210 669 L210 669 Z M76 384 C76 384 95 377 95 377 C122 458 199 512 288 512 C403 512 480 475 480 379 C480 290 396 256 271 242 C147 228 64 170 64 97 C64 33 124 -10 277 -10 C383 -10 459 16 480 103 C480 103 480 45 480 45 C480 2 483 0 545 0 C545 0 545 15 545 15 C502 15 500 16 500 45 C500 45 500 371 500 371 C500 485 415 530 288 530 C190 530 105 471 76 384 L76 384 Z M480 323 C480 323 480 160 480 160 C480 39 401 5 283 5 C140 5 84 42 84 98 C84 163 164 216 283 229 C382 240 454 265 480 323 L480 323 Z " />
<glyph glyph-name="ccedilla" unicode="&#xe7;" horiz-adv-x="583" d="M534 142 C505 62 417 8 316 8 C184 8 97 86 97 260 C97 435 184 513 316 513 C420 513 490 452 535 361 C535 361 553 370 553 370 C506 466 430 530 316 530 C172 530 76 446 76 260 C76 77 169 -7 309 -10 C309 -10 279 -104 279 -104 C279 -104 285 -108 285 -108 C288 -99 309 -93 337 -93 C369 -93 390 -114 390 -146 C390 -178 369 -199 337 -199 C306 -199 284 -187 283 -169 C283 -169 275 -176 275 -176 C276 -196 301 -209 337 -209 C376 -209 401 -184 401 -146 C401 -108 376 -82 339 -82 C311 -82 291 -89 287 -101 C287 -101 316 -10 316 -10 C316 -10 316 -10 316 -10 C427 -10 522 47 553 133 C553 133 534 142 534 142 L534 142 Z " />
<glyph glyph-name="egrave" unicode="&#xe8;" horiz-adv-x="589" d="M310 584 C310 584 328 584 328 584 C328 584 248 734 248 734 C248 734 222 734 222 734 C222 734 310 584 310 584 L310 584 Z M540 141 C518 61 429 8 317 8 C188 8 100 83 97 250 C97 250 562 250 562 250 C562 418 494 530 319 530 C173 530 76 446 76 260 C76 74 173 -10 317 -10 C440 -10 536 47 559 133 C559 133 540 141 540 141 L540 141 Z M97 265 C99 436 187 513 319 513 C475 513 538 415 542 265 C542 265 97 265 97 265 L97 265 Z " />
<glyph glyph-name="eacute" unicode="&#xe9;" horiz-adv-x="589" d="M310 584 C310 584 328 584 328 584 C328 584 416 734 416 734 C416 734 390 734 390 734 C390 734 310 584 310 584 L310 584 Z M540 141 C518 61 429 8 317 8 C188 8 100 83 97 250 C97 250 562 250 562 250 C562 418 494 530 319 530 C173 530 76 446 76 260 C76 74 173 -10 317 -10 C440 -10 536 47 559 133 C559 133 540 141 540 141 L540 141 Z M97 265 C99 436 187 513 319 513 C475 513 538 415 542 265 C542 265 97 265 97 265 L97 265 Z " />
<glyph glyph-name="ecircumflex" unicode="&#xea;" horiz-adv-x="589" d="M319 718 C319 718 479 584 479 584 C479 584 497 584 497 584 C497 584 329 734 329 734 C329 734 309 734 309 734 C309 734 141 584 141 584 C141 584 159 584 159 584 C159 584 319 718 319 718 L319 718 Z M540 141 C518 61 429 8 317 8 C188 8 100 83 97 250 C97 250 562 250 562 250 C562 418 494 530 319 530 C173 530 76 446 76 260 C76 74 173 -10 317 -10 C440 -10 536 47 559 133 C559 133 540 141 540 141 L540 141 Z M97 265 C99 436 187 513 319 513 C475 513 538 415 542 265 C542 265 97 265 97 265 L97 265 Z " />
<glyph glyph-name="edieresis" unicode="&#xeb;" horiz-adv-x="589" d="M353 584 C353 584 413 584 413 584 C413 584 413 644 413 644 C413 644 353 644 353 644 C353 644 353 584 353 584 L353 584 Z M225 584 C225 584 285 584 285 584 C285 584 285 644 285 644 C285 644 225 644 225 644 C225 644 225 584 225 584 L225 584 Z M540 141 C518 61 429 8 317 8 C188 8 100 83 97 250 C97 250 562 250 562 250 C562 418 494 530 319 530 C173 530 76 446 76 260 C76 74 173 -10 317 -10 C440 -10 536 47 559 133 C559 133 540 141 540 141 L540 141 Z M97 265 C99 436 187 513 319 513 C475 513 538 415 542 265 C542 265 97 265 97 265 L97 265 Z " />
<glyph glyph-name="igrave" unicode="&#xec;" horiz-adv-x="150" d="M61 584 C61 584 79 584 79 584 C79 584 -1 734 -1 734 C-1 734 -27 734 -27 734 C-27 734 61 584 61 584 L61 584 Z M70 0 C70 0 80 0 80 0 C80 0 80 5 80 5 C80 5 80 520 80 520 C80 520 70 520 70 520 C70 520 60 520 60 520 C60 520 60 515 60 515 C60 515 60 5 60 5 C60 5 60 0 60 0 C60 0 70 0 70 0 L70 0 Z " />
<glyph glyph-name="iacute" unicode="&#xed;" horiz-adv-x="150" d="M61 584 C61 584 79 584 79 584 C79 584 167 734 167 734 C167 734 141 734 141 734 C141 734 61 584 61 584 L61 584 Z M70 0 C70 0 80 0 80 0 C80 0 80 5 80 5 C80 5 80 520 80 520 C80 520 70 520 70 520 C70 520 60 520 60 520 C60 520 60 515 60 515 C60 515 60 5 60 5 C60 5 60 0 60 0 C60 0 70 0 70 0 L70 0 Z " />
<glyph glyph-name="icircumflex" unicode="&#xee;" horiz-adv-x="150" d="M70 718 C70 718 230 584 230 584 C230 584 248 584 248 584 C248 584 80 734 80 734 C80 734 60 734 60 734 C60 734 -108 584 -108 584 C-108 584 -90 584 -90 584 C-90 584 70 718 70 718 L70 718 Z M70 0 C70 0 80 0 80 0 C80 0 80 5 80 5 C80 5 80 520 80 520 C80 520 70 520 70 520 C70 520 60 520 60 520 C60 520 60 515 60 515 C60 515 60 5 60 5 C60 5 60 0 60 0 C60 0 70 0 70 0 L70 0 Z " />
<glyph glyph-name="idieresis" unicode="&#xef;" horiz-adv-x="150" d="M118 584 C118 584 178 584 178 584 C178 584 178 644 178 644 C178 644 118 644 118 644 C118 644 118 584 118 584 L118 584 Z M-37 584 C-37 584 23 584 23 584 C23 584 23 644 23 644 C23 644 -37 644 -37 644 C-37 644 -37 584 -37 584 L-37 584 Z M70 0 C70 0 80 0 80 0 C80 0 80 5 80 5 C80 5 80 520 80 520 C80 520 70 520 70 520 C70 520 60 520 60 520 C60 520 60 515 60 515 C60 515 60 5 60 5 C60 5 60 0 60 0 C60 0 70 0 70 0 L70 0 Z " />
<glyph glyph-name="ntilde" unicode="&#xf1;" horiz-adv-x="550" d="M200 584 C200 621 219 646 246 646 C286 646 287 574 335 574 C371 574 395 605 395 651 C395 651 380 651 380 651 C380 615 361 590 334 590 C294 590 293 661 245 661 C209 661 185 630 185 584 C185 584 200 584 200 584 L200 584 Z M476 0 C476 0 486 0 486 0 C486 0 486 5 486 5 C486 5 486 315 486 315 C486 454 418 525 315 525 C211 525 136 480 114 408 C114 408 114 510 114 510 C114 510 114 520 114 520 C114 520 104 520 104 520 C104 520 99 520 99 520 C99 520 94 520 94 520 C94 520 94 515 94 515 C94 515 94 5 94 5 C94 5 94 0 94 0 C94 0 104 0 104 0 C104 0 114 0 114 0 C114 0 114 5 114 5 C114 5 114 361 114 361 C114 448 191 506 307 506 C402 506 466 441 466 315 C466 315 466 5 466 5 C466 5 466 0 466 0 C466 0 476 0 476 0 L476 0 Z " />
<glyph glyph-name="ograve" unicode="&#xf2;" horiz-adv-x="614" d="M311 584 C311 584 329 584 329 584 C329 584 249 734 249 734 C249 734 223 734 223 734 C223 734 311 584 311 584 L311 584 Z M320 6 C166 6 97 108 97 260 C97 435 186 514 320 514 C474 514 543 412 543 260 C543 85 454 6 320 6 L320 6 Z M76 260 C76 98 152 -10 320 -10 C467 -10 565 74 565 260 C565 422 489 530 320 530 C174 530 76 446 76 260 L76 260 Z " />
<glyph glyph-name="oacute" unicode="&#xf3;" horiz-adv-x="614" d="M311 584 C311 584 329 584 329 584 C329 584 418 734 418 734 C418 734 392 734 392 734 C392 734 311 584 311 584 L311 584 Z M320 6 C166 6 97 108 97 260 C97 435 186 514 320 514 C474 514 543 412 543 260 C543 85 454 6 320 6 L320 6 Z M76 260 C76 98 152 -10 320 -10 C467 -10 565 74 565 260 C565 422 489 530 320 530 C174 530 76 446 76 260 L76 260 Z " />
<glyph glyph-name="ocircumflex" unicode="&#xf4;" horiz-adv-x="614" d="M320 718 C320 718 480 584 480 584 C480 584 498 584 498 584 C498 584 330 734 330 734 C330 734 310 734 310 734 C310 734 142 584 142 584 C142 584 160 584 160 584 C160 584 320 718 320 718 L320 718 Z M320 6 C166 6 97 108 97 260 C97 435 186 514 320 514 C474 514 543 412 543 260 C543 85 454 6 320 6 L320 6 Z M76 260 C76 98 152 -10 320 -10 C467 -10 565 74 565 260 C565 422 489 530 320 530 C174 530 76 446 76 260 L76 260 Z " />
<glyph glyph-name="otilde" unicode="&#xf5;" horiz-adv-x="614" d="M230 584 C230 621 249 646 277 646 C316 646 317 574 365 574 C401 574 425 605 425 651 C425 651 410 651 410 651 C410 615 392 590 364 590 C324 590 324 661 275 661 C239 661 215 630 215 584 C215 584 230 584 230 584 L230 584 Z M320 6 C166 6 97 108 97 260 C97 435 186 514 320 514 C474 514 543 412 543 260 C543 85 454 6 320 6 L320 6 Z M76 260 C76 98 152 -10 320 -10 C467 -10 565 74 565 260 C565 422 489 530 320 530 C174 530 76 446 76 260 L76 260 Z " />
<glyph glyph-name="odieresis" unicode="&#xf6;" horiz-adv-x="614" d="M354 584 C354 584 414 584 414 584 C414 584 414 644 414 644 C414 644 354 644 354 644 C354 644 354 584 354 584 L354 584 Z M226 584 C226 584 286 584 286 584 C286 584 286 644 286 644 C286 644 226 644 226 644 C226 644 226 584 226 584 L226 584 Z M320 6 C166 6 97 108 97 260 C97 435 186 514 320 514 C474 514 543 412 543 260 C543 85 454 6 320 6 L320 6 Z M76 260 C76 98 152 -10 320 -10 C467 -10 565 74 565 260 C565 422 489 530 320 530 C174 530 76 446 76 260 L76 260 Z " />
<glyph glyph-name="oslash" unicode="&#xf8;" horiz-adv-x="614" d="M320 6 C246 6 192 29 156 70 C156 70 489 444 489 444 C526 400 543 336 543 260 C543 85 454 6 320 6 C320 6 320 6 320 6 L320 6 Z M76 260 C76 177 96 108 138 60 C138 60 76 -10 76 -10 C76 -10 84 -10 84 -10 C84 -10 143 56 143 56 C183 14 241 -10 320 -10 C467 -10 565 74 565 260 C565 343 545 412 502 460 C502 460 565 530 565 530 C565 530 556 530 556 530 C556 530 498 465 498 465 C458 506 399 530 320 530 C174 530 76 446 76 260 L76 260 Z M152 75 C115 120 97 183 97 260 C97 435 186 514 320 514 C394 514 448 491 484 450 C484 450 152 75 152 75 L152 75 Z " />
<glyph glyph-name="ugrave" unicode="&#xf9;" horiz-adv-x="527" d="M264 584 C264 584 283 584 283 584 C283 584 202 734 202 734 C202 734 176 734 176 734 C176 734 264 584 264 584 L264 584 Z M448 520 C448 520 438 520 438 520 C438 520 438 515 438 515 C438 515 438 148 438 148 C438 64 376 9 284 9 C148 9 109 60 109 159 C109 159 109 520 109 520 C109 520 99 520 99 520 C99 520 89 520 89 520 C89 520 89 515 89 515 C89 515 89 159 89 159 C89 47 130 -10 277 -10 C361 -10 421 34 438 105 C438 105 438 10 438 10 C438 10 438 0 438 0 C438 0 448 0 448 0 C448 0 458 0 458 0 C458 0 458 5 458 5 C458 5 458 10 458 10 C458 10 458 520 458 520 C458 520 448 520 448 520 L448 520 Z " />
<glyph glyph-name="uacute" unicode="&#xfa;" horiz-adv-x="527" d="M264 584 C264 584 283 584 283 584 C283 584 371 734 371 734 C371 734 345 734 345 734 C345 734 264 584 264 584 L264 584 Z M448 520 C448 520 438 520 438 520 C438 520 438 515 438 515 C438 515 438 148 438 148 C438 64 376 9 284 9 C148 9 109 60 109 159 C109 159 109 520 109 520 C109 520 99 520 99 520 C99 520 89 520 89 520 C89 520 89 515 89 515 C89 515 89 159 89 159 C89 47 130 -10 277 -10 C361 -10 421 34 438 105 C438 105 438 10 438 10 C438 10 438 0 438 0 C438 0 448 0 448 0 C448 0 458 0 458 0 C458 0 458 5 458 5 C458 5 458 10 458 10 C458 10 458 520 458 520 C458 520 448 520 448 520 L448 520 Z " />
<glyph glyph-name="ucircumflex" unicode="&#xfb;" horiz-adv-x="527" d="M273 718 C273 718 433 584 433 584 C433 584 452 584 452 584 C452 584 284 734 284 734 C284 734 263 734 263 734 C263 734 95 584 95 584 C95 584 114 584 114 584 C114 584 273 718 273 718 L273 718 Z M448 520 C448 520 438 520 438 520 C438 520 438 515 438 515 C438 515 438 148 438 148 C438 64 376 9 284 9 C148 9 109 60 109 159 C109 159 109 520 109 520 C109 520 99 520 99 520 C99 520 89 520 89 520 C89 520 89 515 89 515 C89 515 89 159 89 159 C89 47 130 -10 277 -10 C361 -10 421 34 438 105 C438 105 438 10 438 10 C438 10 438 0 438 0 C438 0 448 0 448 0 C448 0 458 0 458 0 C458 0 458 5 458 5 C458 5 458 10 458 10 C458 10 458 520 458 520 C458 520 448 520 448 520 L448 520 Z " />
<glyph glyph-name="udieresis" unicode="&#xfc;" horiz-adv-x="527" d="M307 584 C307 584 367 584 367 584 C367 584 367 644 367 644 C367 644 307 644 307 644 C307 644 307 584 307 584 L307 584 Z M179 584 C179 584 239 584 239 584 C239 584 239 644 239 644 C239 644 179 644 179 644 C179 644 179 584 179 584 L179 584 Z M448 520 C448 520 438 520 438 520 C438 520 438 515 438 515 C438 515 438 148 438 148 C438 64 376 9 284 9 C148 9 109 60 109 159 C109 159 109 520 109 520 C109 520 99 520 99 520 C99 520 89 520 89 520 C89 520 89 515 89 515 C89 515 89 159 89 159 C89 47 130 -10 277 -10 C361 -10 421 34 438 105 C438 105 438 10 438 10 C438 10 438 0 438 0 C438 0 448 0 448 0 C448 0 458 0 458 0 C458 0 458 5 458 5 C458 5 458 10 458 10 C458 10 458 520 458 520 C458 520 448 520 448 520 L448 520 Z " />
<glyph glyph-name="yacute" unicode="&#xfd;" horiz-adv-x="514" d="M261 584 C261 584 279 584 279 584 C279 584 368 734 368 734 C368 734 342 734 342 734 C342 734 261 584 261 584 L261 584 Z M71 -247 C71 -247 121 -247 121 -247 C162 -247 196 -194 276 -8 C276 -8 502 515 502 515 C502 515 502 515 502 515 C502 515 503 516 503 518 C503 518 503 518 503 518 C503 519 504 520 504 520 C504 520 492 520 492 520 C492 520 480 520 480 520 C480 520 479 518 479 518 C479 518 479 518 479 518 C479 518 479 518 479 518 C479 518 272 31 272 31 C272 31 59 520 59 520 C59 520 48 520 48 520 C48 520 36 520 36 520 C36 520 38 515 38 515 C38 515 38 515 38 515 C38 515 38 515 38 515 C38 515 260 2 260 2 C260 2 259 0 259 0 C183 -178 152 -228 121 -228 C121 -228 71 -228 71 -228 C71 -228 71 -247 71 -247 L71 -247 Z " />
<glyph glyph-name="thorn" unicode="&#xfe;" horiz-adv-x="622" d="M331 7 C201 7 114 85 114 260 C114 435 201 513 331 513 C463 513 551 412 551 260 C551 108 463 7 331 7 L331 7 Z M104 750 C104 750 94 750 94 750 C94 750 94 745 94 745 C94 745 94 -303 94 -303 C94 -303 94 -308 94 -308 C94 -308 104 -308 104 -308 C104 -308 114 -308 114 -308 C114 -308 114 -303 114 -303 C114 -303 114 168 114 168 C140 46 224 -10 338 -10 C478 -10 572 98 572 260 C572 422 478 530 338 530 C224 530 140 474 114 352 C114 352 114 750 114 750 C114 750 104 750 104 750 L104 750 Z " />
<glyph glyph-name="ydieresis" unicode="&#xff;" horiz-adv-x="514" d="M304 584 C304 584 364 584 364 584 C364 584 364 644 364 644 C364 644 304 644 304 644 C304 644 304 584 304 584 L304 584 Z M176 584 C176 584 236 584 236 584 C236 584 236 644 236 644 C236 644 176 644 176 644 C176 644 176 584 176 584 L176 584 Z M71 -247 C71 -247 121 -247 121 -247 C162 -247 196 -194 276 -8 C276 -8 502 515 502 515 C502 515 502 515 502 515 C502 515 503 516 503 518 C503 518 503 518 503 518 C503 519 504 520 504 520 C504 520 492 520 492 520 C492 520 480 520 480 520 C480 520 479 518 479 518 C479 518 479 518 479 518 C479 518 479 518 479 518 C479 518 272 31 272 31 C272 31 59 520 59 520 C59 520 48 520 48 520 C48 520 36 520 36 520 C36 520 38 515 38 515 C38 515 38 515 38 515 C38 515 38 515 38 515 C38 515 260 2 260 2 C260 2 259 0 259 0 C183 -178 152 -228 121 -228 C121 -228 71 -228 71 -228 C71 -228 71 -247 71 -247 L71 -247 Z " />
<glyph glyph-name="Amacron" unicode="&#x100;" horiz-adv-x="749" d="M232 814 C232 814 547 814 547 814 C547 814 547 828 547 828 C547 828 232 828 232 828 C232 828 232 814 232 814 L232 814 Z M606 242 C606 242 598 260 598 260 C598 260 180 260 180 260 C180 260 389 724 389 724 C389 724 715 0 715 0 C715 0 727 0 727 0 C727 0 740 0 740 0 C740 0 401 750 401 750 C401 750 389 750 389 750 C389 750 378 750 378 750 C378 750 377 750 377 750 C377 750 376 749 376 748 C376 747 375 746 375 746 C375 746 40 5 40 5 C40 5 40 5 40 5 C40 5 39 4 39 3 C38 1 38 0 38 0 C38 0 50 0 50 0 C50 0 63 0 63 0 C63 0 64 1 64 2 C64 2 65 4 65 4 C65 4 66 5 66 5 C66 5 65 5 65 5 C65 5 179 257 179 257 C179 257 173 242 173 242 C173 242 606 242 606 242 L606 242 Z " />
<glyph glyph-name="amacron" unicode="&#x101;" horiz-adv-x="574" d="M131 584 C131 584 445 584 445 584 C445 584 445 598 445 598 C445 598 131 598 131 598 C131 598 131 584 131 584 L131 584 Z M76 384 C76 384 95 377 95 377 C122 458 199 512 288 512 C403 512 480 475 480 379 C480 290 396 256 271 242 C147 228 64 170 64 97 C64 33 124 -10 277 -10 C383 -10 459 16 480 103 C480 103 480 45 480 45 C480 2 483 0 545 0 C545 0 545 15 545 15 C502 15 500 16 500 45 C500 45 500 371 500 371 C500 485 415 530 288 530 C190 530 105 471 76 384 L76 384 Z M480 323 C480 323 480 160 480 160 C480 39 401 5 283 5 C140 5 84 42 84 98 C84 163 164 216 283 229 C382 240 454 265 480 323 L480 323 Z " />
<glyph glyph-name="Abreve" unicode="&#x102;" horiz-adv-x="749" d="M240 920 C240 850 300 804 390 804 C479 804 539 850 539 920 C539 920 525 920 525 920 C525 859 471 818 390 818 C308 818 254 859 254 920 C254 920 240 920 240 920 L240 920 Z M606 242 C606 242 598 260 598 260 C598 260 180 260 180 260 C180 260 389 724 389 724 C389 724 715 0 715 0 C715 0 727 0 727 0 C727 0 740 0 740 0 C740 0 401 750 401 750 C401 750 389 750 389 750 C389 750 378 750 378 750 C378 750 377 750 377 750 C377 750 376 749 376 748 C376 747 375 746 375 746 C375 746 40 5 40 5 C40 5 40 5 40 5 C40 5 39 4 39 3 C38 1 38 0 38 0 C38 0 50 0 50 0 C50 0 63 0 63 0 C63 0 64 1 64 2 C64 2 65 4 65 4 C65 4 66 5 66 5 C66 5 65 5 65 5 C65 5 179 257 179 257 C179 257 173 242 173 242 C173 242 606 242 606 242 L606 242 Z " />
<glyph glyph-name="abreve" unicode="&#x103;" horiz-adv-x="574" d="M138 690 C138 620 198 574 288 574 C378 574 438 620 438 690 C438 690 423 690 423 690 C423 629 369 588 288 588 C207 588 153 629 153 690 C153 690 138 690 138 690 L138 690 Z M76 384 C76 384 95 377 95 377 C122 458 199 512 288 512 C403 512 480 475 480 379 C480 290 396 256 271 242 C147 228 64 170 64 97 C64 33 124 -10 277 -10 C383 -10 459 16 480 103 C480 103 480 45 480 45 C480 2 483 0 545 0 C545 0 545 15 545 15 C502 15 500 16 500 45 C500 45 500 371 500 371 C500 485 415 530 288 530 C190 530 105 471 76 384 L76 384 Z M480 323 C480 323 480 160 480 160 C480 39 401 5 283 5 C140 5 84 42 84 98 C84 163 164 216 283 229 C382 240 454 265 480 323 L480 323 Z " />
<glyph glyph-name="Aogonek" unicode="&#x104;" horiz-adv-x="749" d="M606 242 C606 242 598 260 598 260 C598 260 180 260 180 260 C180 260 389 724 389 724 C389 724 715 0 715 0 C715 0 726 0 726 0 C701 -21 661 -70 661 -107 C661 -165 696 -203 747 -203 C786 -203 817 -196 825 -186 C825 -186 823 -174 823 -174 C815 -184 785 -190 748 -190 C703 -190 672 -156 672 -105 C672 -65 719 -12 740 0 C740 0 401 750 401 750 C401 750 389 750 389 750 C389 750 378 750 378 750 C378 750 377 750 377 750 C377 750 376 749 376 748 C376 747 375 746 375 746 C375 746 40 5 40 5 C40 5 40 5 40 5 C40 5 39 4 39 3 C38 1 38 0 38 0 C38 0 50 0 50 0 C50 0 63 0 63 0 C63 0 64 1 64 2 C64 2 65 4 65 4 C65 4 66 5 66 5 C66 5 65 5 65 5 C65 5 179 257 179 257 C179 257 173 242 173 242 C173 242 606 242 606 242 L606 242 Z " />
<glyph glyph-name="aogonek" unicode="&#x105;" horiz-adv-x="626" d="M76 260 C76 98 179 -10 334 -10 C435 -10 510 59 536 169 C536 169 536 0 536 0 C536 0 546 0 546 0 C520 -21 478 -70 478 -107 C478 -164 512 -203 564 -203 C602 -203 633 -196 642 -186 C642 -186 640 -174 640 -174 C632 -184 602 -190 565 -190 C520 -190 489 -156 489 -105 C489 -65 536 -12 556 0 C557 0 557 1 556 3 C557 4 557 5 556 5 C556 5 556 7 556 7 C556 7 556 515 556 515 C557 515 557 516 556 518 C557 519 557 520 556 520 C556 520 546 520 546 520 C546 520 536 520 536 520 C536 520 536 351 536 351 C510 461 435 530 334 530 C179 530 76 422 76 260 L76 260 Z M536 260 C536 108 458 7 341 7 C195 7 97 108 97 260 C97 412 195 513 341 513 C458 513 536 412 536 260 L536 260 Z " />
<glyph glyph-name="Cacute" unicode="&#x106;" horiz-adv-x="748" d="M395 814 C395 814 413 814 413 814 C413 814 501 964 501 964 C501 964 475 964 475 964 C475 964 395 814 395 814 L395 814 Z M711 184 C664 79 543 9 407 9 C225 9 104 177 104 375 C104 573 225 741 407 741 C529 741 650 671 711 566 C711 566 720 574 720 574 C720 574 720 573 720 573 C720 573 728 581 728 581 C666 688 538 760 407 760 C211 760 80 583 80 375 C80 167 211 -10 407 -10 C552 -10 680 62 728 169 C728 169 711 184 711 184 L711 184 Z " />
<glyph glyph-name="cacute" unicode="&#x107;" horiz-adv-x="583" d="M307 584 C307 584 325 584 325 584 C325 584 413 734 413 734 C413 734 387 734 387 734 C387 734 307 584 307 584 L307 584 Z M534 142 C505 62 417 8 316 8 C184 8 97 86 97 260 C97 435 184 513 316 513 C420 513 490 452 535 361 C535 361 553 370 553 370 C506 466 430 530 316 530 C172 530 76 446 76 260 C76 74 172 -10 316 -10 C427 -10 522 47 553 133 C553 133 534 142 534 142 L534 142 Z " />
<glyph glyph-name="Ccircumflex" unicode="&#x108;" horiz-adv-x="748" d="M404 948 C404 948 564 814 564 814 C564 814 582 814 582 814 C582 814 414 964 414 964 C414 964 394 964 394 964 C394 964 226 814 226 814 C226 814 244 814 244 814 C244 814 404 948 404 948 L404 948 Z M711 184 C664 79 543 9 407 9 C225 9 104 177 104 375 C104 573 225 741 407 741 C529 741 650 671 711 566 C711 566 720 574 720 574 C720 574 720 573 720 573 C720 573 728 581 728 581 C666 688 538 760 407 760 C211 760 80 583 80 375 C80 167 211 -10 407 -10 C552 -10 680 62 728 169 C728 169 711 184 711 184 L711 184 Z " />
<glyph glyph-name="Cdotaccent" unicode="&#x10a;" horiz-adv-x="748" d="M374 814 C374 814 434 814 434 814 C434 814 434 874 434 874 C434 874 374 874 374 874 C374 874 374 814 374 814 L374 814 Z M711 184 C664 79 543 9 407 9 C225 9 104 177 104 375 C104 573 225 741 407 741 C529 741 650 671 711 566 C711 566 720 574 720 574 C720 574 720 573 720 573 C720 573 728 581 728 581 C666 688 538 760 407 760 C211 760 80 583 80 375 C80 167 211 -10 407 -10 C552 -10 680 62 728 169 C728 169 711 184 711 184 L711 184 Z " />
<glyph glyph-name="cdotaccent" unicode="&#x10b;" horiz-adv-x="583" d="M286 584 C286 584 346 584 346 584 C346 584 346 644 346 644 C346 644 286 644 286 644 C286 644 286 584 286 584 L286 584 Z M534 142 C505 62 417 8 316 8 C184 8 97 86 97 260 C97 435 184 513 316 513 C420 513 490 452 535 361 C535 361 553 370 553 370 C506 466 430 530 316 530 C172 530 76 446 76 260 C76 74 172 -10 316 -10 C427 -10 522 47 553 133 C553 133 534 142 534 142 L534 142 Z " />
<glyph glyph-name="Ccaron" unicode="&#x10c;" horiz-adv-x="748" d="M404 830 C404 830 564 964 564 964 C564 964 582 964 582 964 C582 964 414 814 414 814 C414 814 394 814 394 814 C394 814 226 964 226 964 C226 964 244 964 244 964 C244 964 404 830 404 830 L404 830 Z M711 184 C664 79 543 9 407 9 C225 9 104 177 104 375 C104 573 225 741 407 741 C529 741 650 671 711 566 C711 566 720 574 720 574 C720 574 720 573 720 573 C720 573 728 581 728 581 C666 688 538 760 407 760 C211 760 80 583 80 375 C80 167 211 -10 407 -10 C552 -10 680 62 728 169 C728 169 711 184 711 184 L711 184 Z " />
<glyph glyph-name="ccaron" unicode="&#x10d;" horiz-adv-x="583" d="M316 600 C316 600 476 734 476 734 C476 734 494 734 494 734 C494 734 326 584 326 584 C326 584 306 584 306 584 C306 584 138 734 138 734 C138 734 156 734 156 734 C156 734 316 600 316 600 L316 600 Z M534 142 C505 62 417 8 316 8 C184 8 97 86 97 260 C97 435 184 513 316 513 C420 513 490 452 535 361 C535 361 553 370 553 370 C506 466 430 530 316 530 C172 530 76 446 76 260 C76 74 172 -10 316 -10 C427 -10 522 47 553 133 C553 133 534 142 534 142 L534 142 Z " />
<glyph glyph-name="Dcaron" unicode="&#x10e;" horiz-adv-x="788" d="M411 830 C411 830 571 964 571 964 C571 964 589 964 589 964 C589 964 421 814 421 814 C421 814 401 814 401 814 C401 814 233 964 233 964 C233 964 252 964 252 964 C252 964 411 830 411 830 L411 830 Z M125 0 C125 0 136 0 136 0 C136 0 361 0 361 0 C613 0 733 121 733 375 C733 623 596 750 331 750 C331 750 136 750 136 750 C136 750 125 750 125 750 C125 750 113 750 113 750 C113 750 113 745 113 745 C113 745 113 5 113 5 C113 5 113 0 113 0 C113 0 125 0 125 0 L125 0 Z M136 18 C136 18 136 732 136 732 C136 732 332 732 332 732 C581 732 709 611 709 375 C709 133 596 18 359 18 C359 18 136 18 136 18 L136 18 Z " />
<glyph glyph-name="dcaron" unicode="&#x10f;" horiz-adv-x="586" d="M567 760 C567 760 548 610 548 610 C548 610 562 610 562 610 C562 610 588 760 588 760 C588 760 567 760 567 760 L567 760 Z M76 260 C76 98 162 -10 291 -10 C396 -10 472 61 497 174 C497 174 497 10 497 10 C497 10 497 0 497 0 C497 0 507 0 507 0 C507 0 517 0 517 0 C517 0 517 3 517 3 C517 3 517 5 517 5 C517 5 517 10 517 10 C517 10 517 740 517 740 C517 740 517 750 517 750 C517 750 507 750 507 750 C507 750 497 750 497 750 C497 750 497 745 497 745 C497 745 497 740 497 740 C497 740 497 346 497 346 C472 459 396 530 291 530 C162 530 76 422 76 260 L76 260 Z M497 260 C497 108 417 7 298 7 C177 7 97 108 97 260 C97 412 177 513 298 513 C417 513 497 412 497 260 L497 260 Z " />
<glyph glyph-name="Dcroat" unicode="&#x110;" horiz-adv-x="788" d="M33 368 C33 368 113 368 113 368 C113 368 113 5 113 5 C113 5 113 0 113 0 C113 0 125 0 125 0 C125 0 136 0 136 0 C136 0 361 0 361 0 C613 0 733 121 733 375 C733 623 596 750 331 750 C331 750 136 750 136 750 C136 750 125 750 125 750 C125 750 113 750 113 750 C113 750 113 745 113 745 C113 745 113 382 113 382 C113 382 33 382 33 382 C33 382 33 368 33 368 L33 368 Z M136 18 C136 18 136 368 136 368 C136 368 411 368 411 368 C411 368 411 382 411 382 C411 382 136 382 136 382 C136 382 136 732 136 732 C136 732 332 732 332 732 C581 732 709 611 709 375 C709 133 596 18 359 18 C359 18 136 18 136 18 L136 18 Z " />
<glyph glyph-name="dcroat" unicode="&#x111;" horiz-adv-x="586" d="M291 633 C291 633 497 633 497 633 C497 633 497 346 497 346 C472 459 396 530 291 530 C162 530 76 422 76 260 C76 98 162 -10 291 -10 C396 -10 472 61 497 174 C497 174 497 10 497 10 C497 10 497 0 497 0 C497 0 507 0 507 0 C507 0 517 0 517 0 C517 0 517 3 517 3 C517 3 517 5 517 5 C517 5 517 10 517 10 C517 10 517 633 517 633 C517 633 577 633 577 633 C577 633 577 647 577 647 C577 647 517 647 517 647 C517 647 517 740 517 740 C517 740 517 750 517 750 C517 750 507 750 507 750 C507 750 497 750 497 750 C497 750 497 745 497 745 C497 745 497 740 497 740 C497 740 497 647 497 647 C497 647 291 647 291 647 C291 647 291 633 291 633 L291 633 Z M497 260 C497 108 417 7 298 7 C177 7 97 108 97 260 C97 412 177 513 298 513 C417 513 497 412 497 260 L497 260 Z " />
<glyph glyph-name="Emacron" unicode="&#x112;" horiz-adv-x="585" d="M160 814 C160 814 474 814 474 814 C474 814 474 828 474 828 C474 828 160 828 160 828 C160 828 160 814 160 814 L160 814 Z M536 10 C536 10 536 19 536 19 C536 19 531 19 531 19 C531 19 136 19 136 19 C136 19 136 378 136 378 C136 378 496 378 496 378 C496 378 501 378 501 378 C501 378 501 387 501 387 C501 387 501 396 501 396 C501 396 496 396 496 396 C496 396 136 396 136 396 C136 396 136 731 136 731 C136 731 516 731 516 731 C516 731 521 731 521 731 C521 731 521 740 521 740 C521 740 521 750 521 750 C521 750 136 750 136 750 C136 750 135 750 135 750 C135 750 125 750 125 750 C125 750 113 750 113 750 C113 750 113 745 113 745 C113 745 113 5 113 5 C113 5 113 0 113 0 C113 0 125 0 125 0 C125 0 135 0 135 0 C135 0 136 0 136 0 C136 0 536 0 536 0 C536 0 536 10 536 10 L536 10 Z " />
<glyph glyph-name="emacron" unicode="&#x113;" horiz-adv-x="589" d="M161 584 C161 584 476 584 476 584 C476 584 476 598 476 598 C476 598 161 598 161 598 C161 598 161 584 161 584 L161 584 Z M540 141 C518 61 429 8 317 8 C188 8 100 83 97 250 C97 250 562 250 562 250 C562 418 494 530 319 530 C173 530 76 446 76 260 C76 74 173 -10 317 -10 C440 -10 536 47 559 133 C559 133 540 141 540 141 L540 141 Z M97 265 C99 436 187 513 319 513 C475 513 538 415 542 265 C542 265 97 265 97 265 L97 265 Z " />
<glyph glyph-name="Ebreve" unicode="&#x114;" horiz-adv-x="585" d="M167 920 C167 850 227 804 317 804 C407 804 467 850 467 920 C467 920 452 920 452 920 C452 859 398 818 317 818 C236 818 182 859 182 920 C182 920 167 920 167 920 L167 920 Z M536 10 C536 10 536 19 536 19 C536 19 531 19 531 19 C531 19 136 19 136 19 C136 19 136 378 136 378 C136 378 496 378 496 378 C496 378 501 378 501 378 C501 378 501 387 501 387 C501 387 501 396 501 396 C501 396 496 396 496 396 C496 396 136 396 136 396 C136 396 136 731 136 731 C136 731 516 731 516 731 C516 731 521 731 521 731 C521 731 521 740 521 740 C521 740 521 750 521 750 C521 750 136 750 136 750 C136 750 135 750 135 750 C135 750 125 750 125 750 C125 750 113 750 113 750 C113 750 113 745 113 745 C113 745 113 5 113 5 C113 5 113 0 113 0 C113 0 125 0 125 0 C125 0 135 0 135 0 C135 0 136 0 136 0 C136 0 536 0 536 0 C536 0 536 10 536 10 L536 10 Z " />
<glyph glyph-name="ebreve" unicode="&#x115;" horiz-adv-x="589" d="M169 690 C169 620 229 574 319 574 C409 574 469 620 469 690 C469 690 454 690 454 690 C454 629 400 588 319 588 C238 588 184 629 184 690 C184 690 169 690 169 690 L169 690 Z M540 141 C518 61 429 8 317 8 C188 8 100 83 97 250 C97 250 562 250 562 250 C562 418 494 530 319 530 C173 530 76 446 76 260 C76 74 173 -10 317 -10 C440 -10 536 47 559 133 C559 133 540 141 540 141 L540 141 Z M97 265 C99 436 187 513 319 513 C475 513 538 415 542 265 C542 265 97 265 97 265 L97 265 Z " />
<glyph glyph-name="Edotaccent" unicode="&#x116;" horiz-adv-x="585" d="M287 814 C287 814 347 814 347 814 C347 814 347 874 347 874 C347 874 287 874 287 874 C287 874 287 814 287 814 L287 814 Z M536 10 C536 10 536 19 536 19 C536 19 531 19 531 19 C531 19 136 19 136 19 C136 19 136 378 136 378 C136 378 496 378 496 378 C496 378 501 378 501 378 C501 378 501 387 501 387 C501 387 501 396 501 396 C501 396 496 396 496 396 C496 396 136 396 136 396 C136 396 136 731 136 731 C136 731 516 731 516 731 C516 731 521 731 521 731 C521 731 521 740 521 740 C521 740 521 750 521 750 C521 750 136 750 136 750 C136 750 135 750 135 750 C135 750 125 750 125 750 C125 750 113 750 113 750 C113 750 113 745 113 745 C113 745 113 5 113 5 C113 5 113 0 113 0 C113 0 125 0 125 0 C125 0 135 0 135 0 C135 0 136 0 136 0 C136 0 536 0 536 0 C536 0 536 10 536 10 L536 10 Z " />
<glyph glyph-name="edotaccent" unicode="&#x117;" horiz-adv-x="589" d="M289 584 C289 584 349 584 349 584 C349 584 349 644 349 644 C349 644 289 644 289 644 C289 644 289 584 289 584 L289 584 Z M540 141 C518 61 429 8 317 8 C188 8 100 83 97 250 C97 250 562 250 562 250 C562 418 494 530 319 530 C173 530 76 446 76 260 C76 74 173 -10 317 -10 C440 -10 536 47 559 133 C559 133 540 141 540 141 L540 141 Z M97 265 C99 436 187 513 319 513 C475 513 538 415 542 265 C542 265 97 265 97 265 L97 265 Z " />
<glyph glyph-name="Eogonek" unicode="&#x118;" horiz-adv-x="585" d="M317 0 C291 -21 249 -70 249 -107 C249 -164 283 -203 335 -203 C373 -203 404 -196 413 -186 C413 -186 411 -174 411 -174 C403 -184 373 -190 336 -190 C290 -190 260 -156 260 -105 C260 -65 307 -12 327 0 C327 0 536 0 536 0 C536 0 536 10 536 10 C536 10 536 19 536 19 C536 19 531 19 531 19 C531 19 136 19 136 19 C136 19 136 378 136 378 C136 378 496 378 496 378 C496 378 501 378 501 378 C501 378 501 387 501 387 C501 387 501 396 501 396 C501 396 496 396 496 396 C496 396 136 396 136 396 C136 396 136 731 136 731 C136 731 516 731 516 731 C516 731 521 731 521 731 C521 731 521 740 521 740 C521 740 521 750 521 750 C521 750 136 750 136 750 C136 750 135 750 135 750 C135 750 125 750 125 750 C125 750 113 750 113 750 C113 750 113 745 113 745 C113 745 113 5 113 5 C113 5 113 0 113 0 C113 0 125 0 125 0 C125 0 135 0 135 0 C135 0 136 0 136 0 C136 0 317 0 317 0 L317 0 Z " />
<glyph glyph-name="eogonek" unicode="&#x119;" horiz-adv-x="589" d="M540 141 C518 61 429 8 317 8 C188 8 100 83 97 250 C97 250 562 250 562 250 C562 418 494 530 319 530 C173 530 76 446 76 260 C76 74 173 -10 317 -10 C375 -10 427 3 468 25 C444 -3 416 -48 416 -86 C416 -156 450 -203 502 -203 C540 -203 571 -196 579 -186 C579 -186 577 -174 577 -174 C569 -184 540 -190 503 -190 C457 -190 427 -148 427 -84 C427 -38 464 16 486 36 C523 60 548 94 559 133 C559 133 540 141 540 141 L540 141 Z M97 265 C99 436 187 513 319 513 C475 513 538 415 542 265 C542 265 97 265 97 265 L97 265 Z " />
<glyph glyph-name="Ecaron" unicode="&#x11a;" horiz-adv-x="585" d="M317 830 C317 830 477 964 477 964 C477 964 495 964 495 964 C495 964 327 814 327 814 C327 814 307 814 307 814 C307 814 139 964 139 964 C139 964 157 964 157 964 C157 964 317 830 317 830 L317 830 Z M536 10 C536 10 536 19 536 19 C536 19 531 19 531 19 C531 19 136 19 136 19 C136 19 136 378 136 378 C136 378 496 378 496 378 C496 378 501 378 501 378 C501 378 501 387 501 387 C501 387 501 396 501 396 C501 396 496 396 496 396 C496 396 136 396 136 396 C136 396 136 731 136 731 C136 731 516 731 516 731 C516 731 521 731 521 731 C521 731 521 740 521 740 C521 740 521 750 521 750 C521 750 136 750 136 750 C136 750 135 750 135 750 C135 750 125 750 125 750 C125 750 113 750 113 750 C113 750 113 745 113 745 C113 745 113 5 113 5 C113 5 113 0 113 0 C113 0 125 0 125 0 C125 0 135 0 135 0 C135 0 136 0 136 0 C136 0 536 0 536 0 C536 0 536 10 536 10 L536 10 Z " />
<glyph glyph-name="ecaron" unicode="&#x11b;" horiz-adv-x="589" d="M319 600 C319 600 479 734 479 734 C479 734 497 734 497 734 C497 734 329 584 329 584 C329 584 309 584 309 584 C309 584 141 734 141 734 C141 734 159 734 159 734 C159 734 319 600 319 600 L319 600 Z M540 141 C518 61 429 8 317 8 C188 8 100 83 97 250 C97 250 562 250 562 250 C562 418 494 530 319 530 C173 530 76 446 76 260 C76 74 173 -10 317 -10 C440 -10 536 47 559 133 C559 133 540 141 540 141 L540 141 Z M97 265 C99 436 187 513 319 513 C475 513 538 415 542 265 C542 265 97 265 97 265 L97 265 Z " />
<glyph glyph-name="Gcircumflex" unicode="&#x11c;" horiz-adv-x="799" d="M442 948 C442 948 602 814 602 814 C602 814 620 814 620 814 C620 814 452 964 452 964 C452 964 432 964 432 964 C432 964 264 814 264 814 C264 814 282 814 282 814 C282 814 442 948 442 948 L442 948 Z M489 393 C489 393 732 393 732 393 C732 393 732 115 732 115 C656 51 550 9 442 9 C239 9 104 155 104 375 C104 595 239 741 442 741 C548 741 658 671 719 566 C719 566 727 573 727 573 C727 573 727 573 727 573 C727 573 736 581 736 581 C674 688 556 760 442 760 C225 760 80 606 80 375 C80 144 225 -10 442 -10 C559 -10 674 35 755 103 C755 103 755 412 755 412 C755 412 489 412 489 412 C489 412 489 393 489 393 L489 393 Z " />
<glyph glyph-name="Gbreve" unicode="&#x11e;" horiz-adv-x="799" d="M292 920 C292 850 352 804 442 804 C532 804 592 850 592 920 C592 920 577 920 577 920 C577 859 523 818 442 818 C361 818 307 859 307 920 C307 920 292 920 292 920 L292 920 Z M489 393 C489 393 732 393 732 393 C732 393 732 115 732 115 C656 51 550 9 442 9 C239 9 104 155 104 375 C104 595 239 741 442 741 C548 741 658 671 719 566 C719 566 727 573 727 573 C727 573 727 573 727 573 C727 573 736 581 736 581 C674 688 556 760 442 760 C225 760 80 606 80 375 C80 144 225 -10 442 -10 C559 -10 674 35 755 103 C755 103 755 412 755 412 C755 412 489 412 489 412 C489 412 489 393 489 393 L489 393 Z " />
<glyph glyph-name="gbreve" unicode="&#x11f;" horiz-adv-x="576" d="M141 690 C141 620 201 574 291 574 C381 574 441 620 441 690 C441 690 426 690 426 690 C426 629 372 588 291 588 C210 588 156 629 156 690 C156 690 141 690 141 690 L141 690 Z M75 -133 C75 -188 161 -210 290 -210 C446 -210 507 -141 507 -38 C507 -38 507 515 507 515 C507 515 507 518 507 518 C507 518 507 520 507 520 C507 520 497 520 497 520 C497 520 487 520 487 520 C487 520 487 347 487 347 C462 460 388 530 286 530 C160 530 76 454 76 260 C76 73 160 0 286 0 C388 0 462 68 487 176 C487 176 487 -47 487 -47 C487 -134 431 -193 288 -193 C174 -193 98 -176 98 -133 C98 -133 75 -133 75 -133 L75 -133 Z M293 513 C409 513 487 412 487 260 C487 114 409 17 293 17 C175 17 97 85 97 260 C97 442 175 513 293 513 L293 513 Z " />
<glyph glyph-name="Gdotaccent" unicode="&#x120;" horiz-adv-x="799" d="M412 814 C412 814 472 814 472 814 C472 814 472 874 472 874 C472 874 412 874 412 874 C412 874 412 814 412 814 L412 814 Z M489 393 C489 393 732 393 732 393 C732 393 732 115 732 115 C656 51 550 9 442 9 C239 9 104 155 104 375 C104 595 239 741 442 741 C548 741 658 671 719 566 C719 566 727 573 727 573 C727 573 727 573 727 573 C727 573 736 581 736 581 C674 688 556 760 442 760 C225 760 80 606 80 375 C80 144 225 -10 442 -10 C559 -10 674 35 755 103 C755 103 755 412 755 412 C755 412 489 412 489 412 C489 412 489 393 489 393 L489 393 Z " />
<glyph glyph-name="gdotaccent" unicode="&#x121;" horiz-adv-x="576" d="M261 584 C261 584 321 584 321 584 C321 584 321 644 321 644 C321 644 261 644 261 644 C261 644 261 584 261 584 L261 584 Z M75 -133 C75 -188 161 -210 290 -210 C446 -210 507 -141 507 -38 C507 -38 507 515 507 515 C507 515 507 518 507 518 C507 518 507 520 507 520 C507 520 497 520 497 520 C497 520 487 520 487 520 C487 520 487 347 487 347 C462 460 388 530 286 530 C160 530 76 454 76 260 C76 73 160 0 286 0 C388 0 462 68 487 176 C487 176 487 -47 487 -47 C487 -134 431 -193 288 -193 C174 -193 98 -176 98 -133 C98 -133 75 -133 75 -133 L75 -133 Z M293 513 C409 513 487 412 487 260 C487 114 409 17 293 17 C175 17 97 85 97 260 C97 442 175 513 293 513 L293 513 Z " />
<glyph glyph-name="Hcircumflex" unicode="&#x124;" horiz-adv-x="702" d="M366 948 C366 948 525 814 525 814 C525 814 544 814 544 814 C544 814 376 964 376 964 C376 964 356 964 356 964 C356 964 188 814 188 814 C188 814 206 814 206 814 C206 814 366 948 366 948 L366 948 Z M607 0 C607 0 618 0 618 0 C618 0 618 5 618 5 C618 5 618 745 618 745 C618 745 618 750 618 750 C618 750 607 750 607 750 C607 750 595 750 595 750 C595 750 595 745 595 745 C595 745 595 405 595 405 C595 405 136 405 136 405 C136 405 136 745 136 745 C136 745 136 750 136 750 C136 750 125 750 125 750 C125 750 113 750 113 750 C113 750 113 745 113 745 C113 745 113 5 113 5 C113 5 113 0 113 0 C113 0 125 0 125 0 C125 0 136 0 136 0 C136 0 136 5 136 5 C136 5 136 385 136 385 C136 385 595 385 595 385 C595 385 595 5 595 5 C595 5 595 0 595 0 C595 0 607 0 607 0 L607 0 Z " />
<glyph glyph-name="Itilde" unicode="&#x128;" horiz-adv-x="192" d="M7 814 C7 851 25 876 53 876 C92 876 93 804 142 804 C177 804 201 835 201 881 C201 881 187 881 187 881 C187 845 168 820 140 820 C101 820 100 891 52 891 C16 891 -8 860 -8 814 C-8 814 7 814 7 814 L7 814 Z M85 745 C85 745 86 745 86 745 C86 745 86 5 86 5 C86 5 85 5 85 5 C85 5 85 0 85 0 C85 0 86 0 86 0 C86 0 97 0 97 0 C97 0 108 0 108 0 C108 0 108 5 108 5 C108 5 108 745 108 745 C108 745 108 750 108 750 C108 750 97 750 97 750 C97 750 86 750 86 750 C86 750 85 750 85 750 C85 750 85 745 85 745 L85 745 Z " />
<glyph glyph-name="itilde" unicode="&#x129;" horiz-adv-x="150" d="M-20 584 C-20 621 -1 646 26 646 C66 646 67 574 115 574 C151 574 175 605 175 651 C175 651 160 651 160 651 C160 615 141 590 114 590 C74 590 73 661 25 661 C-11 661 -35 630 -35 584 C-35 584 -20 584 -20 584 L-20 584 Z M60 515 C60 515 60 0 60 0 C60 0 80 0 80 0 C80 0 80 520 80 520 C80 520 70 520 70 520 C70 520 60 520 60 520 C60 520 60 515 60 515 L60 515 Z " />
<glyph glyph-name="Imacron" unicode="&#x12a;" horiz-adv-x="192" d="M-61 814 C-61 814 254 814 254 814 C254 814 254 828 254 828 C254 828 -61 828 -61 828 C-61 828 -61 814 -61 814 L-61 814 Z M85 745 C85 745 86 745 86 745 C86 745 86 5 86 5 C86 5 85 5 85 5 C85 5 85 0 85 0 C85 0 86 0 86 0 C86 0 97 0 97 0 C97 0 108 0 108 0 C108 0 108 5 108 5 C108 5 108 745 108 745 C108 745 108 750 108 750 C108 750 97 750 97 750 C97 750 86 750 86 750 C86 750 85 750 85 750 C85 750 85 745 85 745 L85 745 Z " />
<glyph glyph-name="imacron" unicode="&#x12b;" horiz-adv-x="150" d="M-87 584 C-87 584 227 584 227 584 C227 584 227 598 227 598 C227 598 -87 598 -87 598 C-87 598 -87 584 -87 584 L-87 584 Z M70 0 C70 0 80 0 80 0 C80 0 80 5 80 5 C80 5 80 520 80 520 C80 520 70 520 70 520 C70 520 60 520 60 520 C60 520 60 515 60 515 C60 515 60 5 60 5 C60 5 60 0 60 0 C60 0 70 0 70 0 L70 0 Z " />
<glyph glyph-name="Ibreve" unicode="&#x12c;" horiz-adv-x="192" d="M-53 920 C-53 850 7 804 97 804 C187 804 247 850 247 920 C247 920 232 920 232 920 C232 859 178 818 97 818 C16 818 -38 859 -38 920 C-38 920 -53 920 -53 920 L-53 920 Z M85 745 C85 745 86 745 86 745 C86 745 86 5 86 5 C86 5 85 5 85 5 C85 5 85 0 85 0 C85 0 86 0 86 0 C86 0 97 0 97 0 C97 0 108 0 108 0 C108 0 108 5 108 5 C108 5 108 745 108 745 C108 745 108 750 108 750 C108 750 97 750 97 750 C97 750 86 750 86 750 C86 750 85 750 85 750 C85 750 85 745 85 745 L85 745 Z " />
<glyph glyph-name="ibreve" unicode="&#x12d;" horiz-adv-x="150" d="M-80 690 C-80 620 -20 574 70 574 C160 574 220 620 220 690 C220 690 205 690 205 690 C205 629 151 588 70 588 C-11 588 -65 629 -65 690 C-65 690 -80 690 -80 690 L-80 690 Z M70 0 C70 0 80 0 80 0 C80 0 80 5 80 5 C80 5 80 520 80 520 C80 520 70 520 70 520 C70 520 60 520 60 520 C60 520 60 515 60 515 C60 515 60 5 60 5 C60 5 60 0 60 0 C60 0 70 0 70 0 L70 0 Z " />
<glyph glyph-name="Idotaccent" unicode="&#x130;" horiz-adv-x="192" d="M67 814 C67 814 127 814 127 814 C127 814 127 874 127 874 C127 874 67 874 67 874 C67 874 67 814 67 814 L67 814 Z M85 745 C85 745 86 745 86 745 C86 745 86 5 86 5 C86 5 85 5 85 5 C85 5 85 0 85 0 C85 0 86 0 86 0 C86 0 97 0 97 0 C97 0 108 0 108 0 C108 0 108 5 108 5 C108 5 108 745 108 745 C108 745 108 750 108 750 C108 750 97 750 97 750 C97 750 86 750 86 750 C86 750 85 750 85 750 C85 750 85 745 85 745 L85 745 Z " />
<glyph glyph-name="dotlessi" unicode="&#x131;" horiz-adv-x="247" d="M157 0 C157 0 177 0 177 0 C177 0 177 520 177 520 C177 520 157 520 157 520 C157 520 157 0 157 0 L157 0 Z " />
<glyph glyph-name="Jcircumflex" unicode="&#x134;" horiz-adv-x="484" d="M388 948 C388 948 548 814 548 814 C548 814 566 814 566 814 C566 814 398 964 398 964 C398 964 378 964 378 964 C378 964 210 814 210 814 C210 814 228 814 228 814 C228 814 388 948 388 948 L388 948 Z M75 284 C75 284 75 223 75 223 C75 62 125 -10 237 -10 C344 -10 399 82 399 220 C399 220 399 745 399 745 C399 745 399 750 399 750 C399 750 388 750 388 750 C388 750 377 750 377 750 C377 750 377 745 377 745 C377 745 377 220 377 220 C377 95 330 12 237 12 C141 12 98 80 98 230 C98 230 98 288 98 288 C98 288 75 284 75 284 L75 284 Z " />
<glyph glyph-name="Lacute" unicode="&#x139;" horiz-adv-x="487" d="M88 814 C88 814 106 814 106 814 C106 814 194 964 194 964 C194 964 168 964 168 964 C168 964 88 814 88 814 L88 814 Z M85 745 C85 745 86 745 86 745 C86 745 86 5 86 5 C86 5 85 5 85 5 C85 5 85 0 85 0 C85 0 86 0 86 0 C86 0 97 0 97 0 C97 0 108 0 108 0 C108 0 458 0 458 0 C458 0 458 10 458 10 C458 10 458 19 458 19 C458 19 453 19 453 19 C453 19 108 19 108 19 C108 19 108 745 108 745 C108 745 108 750 108 750 C108 750 97 750 97 750 C97 750 86 750 86 750 C86 750 85 750 85 750 C85 750 85 745 85 745 L85 745 Z " />
<glyph glyph-name="lacute" unicode="&#x13a;" horiz-adv-x="207" d="M113 782 C113 782 131 782 131 782 C131 782 219 932 219 932 C219 932 193 932 193 932 C193 932 113 782 113 782 L113 782 Z M127 0 C127 0 137 0 137 0 C137 0 137 5 137 5 C137 5 137 740 137 740 C137 740 137 750 137 750 C137 750 127 750 127 750 C127 750 117 750 117 750 C117 750 117 745 117 745 C117 745 117 5 117 5 C117 5 117 0 117 0 C117 0 127 0 127 0 L127 0 Z " />
<glyph glyph-name="Lcaron" unicode="&#x13d;" horiz-adv-x="487" d="M272 760 C272 760 253 610 253 610 C253 610 268 610 268 610 C268 610 294 760 294 760 C294 760 272 760 272 760 L272 760 Z M85 745 C85 745 86 745 86 745 C86 745 86 5 86 5 C86 5 85 5 85 5 C85 5 85 0 85 0 C85 0 86 0 86 0 C86 0 97 0 97 0 C97 0 108 0 108 0 C108 0 458 0 458 0 C458 0 458 10 458 10 C458 10 458 19 458 19 C458 19 453 19 453 19 C453 19 108 19 108 19 C108 19 108 745 108 745 C108 745 108 750 108 750 C108 750 97 750 97 750 C97 750 86 750 86 750 C86 750 85 750 85 750 C85 750 85 745 85 745 L85 745 Z " />
<glyph glyph-name="lcaron" unicode="&#x13e;" horiz-adv-x="207" d="M187 760 C187 760 168 610 168 610 C168 610 183 610 183 610 C183 610 209 760 209 760 C209 760 187 760 187 760 L187 760 Z M127 0 C127 0 137 0 137 0 C137 0 137 5 137 5 C137 5 137 740 137 740 C137 740 137 750 137 750 C137 750 127 750 127 750 C127 750 117 750 117 750 C117 750 117 745 117 745 C117 745 117 5 117 5 C117 5 117 0 117 0 C117 0 127 0 127 0 L127 0 Z " />
<glyph glyph-name="Lslash" unicode="&#x141;" horiz-adv-x="487" d="M6 317 C6 317 86 346 86 346 C86 346 86 5 86 5 C86 5 85 5 85 5 C85 5 85 0 85 0 C85 0 86 0 86 0 C86 0 97 0 97 0 C97 0 108 0 108 0 C108 0 458 0 458 0 C458 0 458 10 458 10 C458 10 458 19 458 19 C458 19 453 19 453 19 C453 19 108 19 108 19 C108 19 108 354 108 354 C108 354 283 417 283 417 C283 417 283 433 283 433 C283 433 108 370 108 370 C108 370 108 745 108 745 C108 745 108 750 108 750 C108 750 97 750 97 750 C97 750 86 750 86 750 C86 750 85 750 85 750 C85 750 85 745 85 745 C85 745 86 745 86 745 C86 745 86 362 86 362 C86 362 6 333 6 333 C6 333 6 317 6 317 L6 317 Z " />
<glyph glyph-name="lslash" unicode="&#x142;" horiz-adv-x="207" d="M37 317 C37 317 117 361 117 361 C117 361 117 5 117 5 C117 5 117 0 117 0 C117 0 127 0 127 0 C127 0 137 0 137 0 C137 0 137 5 137 5 C137 5 137 373 137 373 C137 373 217 417 217 417 C217 417 217 433 217 433 C217 433 137 389 137 389 C137 389 137 740 137 740 C137 740 137 750 137 750 C137 750 127 750 127 750 C127 750 117 750 117 750 C117 750 117 745 117 745 C117 745 117 377 117 377 C117 377 37 333 37 333 C37 333 37 317 37 317 L37 317 Z " />
<glyph glyph-name="Nacute" unicode="&#x143;" horiz-adv-x="670" d="M240 814 C240 814 258 814 258 814 C258 814 347 964 347 964 C347 964 321 964 321 964 C321 964 240 814 240 814 L240 814 Z M562 745 C562 745 562 29 562 29 C562 29 140 750 140 750 C140 750 137 750 137 750 C137 750 125 750 125 750 C125 750 113 750 113 750 C113 750 113 745 113 745 C113 745 113 5 113 5 C113 5 113 0 113 0 C113 0 125 0 125 0 C125 0 137 0 137 0 C137 0 137 5 137 5 C137 5 137 709 137 709 C137 709 551 0 551 0 C551 0 562 0 562 0 C562 0 579 0 579 0 C579 0 585 0 585 0 C585 0 585 745 585 745 C586 745 586 746 585 748 C586 749 586 750 585 750 C585 750 574 750 574 750 C574 750 562 750 562 750 C562 750 562 745 562 745 L562 745 Z " />
<glyph glyph-name="nacute" unicode="&#x144;" horiz-adv-x="550" d="M281 584 C281 584 299 584 299 584 C299 584 387 734 387 734 C387 734 361 734 361 734 C361 734 281 584 281 584 L281 584 Z M476 0 C476 0 486 0 486 0 C486 0 486 5 486 5 C486 5 486 315 486 315 C486 454 418 525 315 525 C211 525 136 480 114 408 C114 408 114 510 114 510 C114 510 114 520 114 520 C114 520 104 520 104 520 C104 520 99 520 99 520 C99 520 94 520 94 520 C94 520 94 515 94 515 C94 515 94 5 94 5 C94 5 94 0 94 0 C94 0 104 0 104 0 C104 0 114 0 114 0 C114 0 114 5 114 5 C114 5 114 361 114 361 C114 448 191 506 307 506 C402 506 466 441 466 315 C466 315 466 5 466 5 C466 5 466 0 466 0 C466 0 476 0 476 0 L476 0 Z " />
<glyph glyph-name="Ncaron" unicode="&#x147;" horiz-adv-x="670" d="M349 830 C349 830 509 964 509 964 C509 964 527 964 527 964 C527 964 359 814 359 814 C359 814 339 814 339 814 C339 814 171 964 171 964 C171 964 189 964 189 964 C189 964 349 830 349 830 L349 830 Z M562 745 C562 745 562 29 562 29 C562 29 140 750 140 750 C140 750 137 750 137 750 C137 750 125 750 125 750 C125 750 113 750 113 750 C113 750 113 745 113 745 C113 745 113 5 113 5 C113 5 113 0 113 0 C113 0 125 0 125 0 C125 0 137 0 137 0 C137 0 137 5 137 5 C137 5 137 709 137 709 C137 709 551 0 551 0 C551 0 562 0 562 0 C562 0 579 0 579 0 C579 0 585 0 585 0 C585 0 585 745 585 745 C586 745 586 746 585 748 C586 749 586 750 585 750 C585 750 574 750 574 750 C574 750 562 750 562 750 C562 750 562 745 562 745 L562 745 Z " />
<glyph glyph-name="ncaron" unicode="&#x148;" horiz-adv-x="550" d="M290 600 C290 600 450 734 450 734 C450 734 468 734 468 734 C468 734 300 584 300 584 C300 584 280 584 280 584 C280 584 112 734 112 734 C112 734 130 734 130 734 C130 734 290 600 290 600 L290 600 Z M476 0 C476 0 486 0 486 0 C486 0 486 5 486 5 C486 5 486 315 486 315 C486 454 418 525 315 525 C211 525 136 480 114 408 C114 408 114 510 114 510 C114 510 114 520 114 520 C114 520 104 520 104 520 C104 520 99 520 99 520 C99 520 94 520 94 520 C94 520 94 515 94 515 C94 515 94 5 94 5 C94 5 94 0 94 0 C94 0 104 0 104 0 C104 0 114 0 114 0 C114 0 114 5 114 5 C114 5 114 361 114 361 C114 448 191 506 307 506 C402 506 466 441 466 315 C466 315 466 5 466 5 C466 5 466 0 466 0 C466 0 476 0 476 0 L476 0 Z " />
<glyph glyph-name="Omacron" unicode="&#x14c;" horiz-adv-x="838" d="M277 814 C277 814 592 814 592 814 C592 814 592 828 592 828 C592 828 277 828 277 828 C277 828 277 814 277 814 L277 814 Z M434 9 C239 9 109 155 109 375 C109 584 249 741 434 741 C620 741 760 584 760 375 C760 155 630 9 434 9 L434 9 Z M85 375 C85 144 225 -10 434 -10 C644 -10 784 144 784 375 C784 594 634 760 434 760 C235 760 85 594 85 375 L85 375 Z " />
<glyph glyph-name="omacron" unicode="&#x14d;" horiz-adv-x="614" d="M163 584 C163 584 478 584 478 584 C478 584 478 598 478 598 C478 598 163 598 163 598 C163 598 163 584 163 584 L163 584 Z M320 6 C166 6 97 108 97 260 C97 435 186 514 320 514 C474 514 543 412 543 260 C543 85 454 6 320 6 L320 6 Z M76 260 C76 98 152 -10 320 -10 C467 -10 565 74 565 260 C565 422 489 530 320 530 C174 530 76 446 76 260 L76 260 Z " />
<glyph glyph-name="Obreve" unicode="&#x14e;" horiz-adv-x="838" d="M285 920 C285 850 345 804 434 804 C524 804 584 850 584 920 C584 920 570 920 570 920 C570 859 516 818 434 818 C353 818 299 859 299 920 C299 920 285 920 285 920 L285 920 Z M434 9 C239 9 109 155 109 375 C109 584 249 741 434 741 C620 741 760 584 760 375 C760 155 630 9 434 9 L434 9 Z M85 375 C85 144 225 -10 434 -10 C644 -10 784 144 784 375 C784 594 634 760 434 760 C235 760 85 594 85 375 L85 375 Z " />
<glyph glyph-name="obreve" unicode="&#x14f;" horiz-adv-x="614" d="M170 690 C170 620 230 574 320 574 C410 574 470 620 470 690 C470 690 455 690 455 690 C455 629 401 588 320 588 C239 588 185 629 185 690 C185 690 170 690 170 690 L170 690 Z M320 6 C166 6 97 108 97 260 C97 435 186 514 320 514 C474 514 543 412 543 260 C543 85 454 6 320 6 L320 6 Z M76 260 C76 98 152 -10 320 -10 C467 -10 565 74 565 260 C565 422 489 530 320 530 C174 530 76 446 76 260 L76 260 Z " />
<glyph glyph-name="Racute" unicode="&#x154;" horiz-adv-x="648" d="M355 814 C355 814 373 814 373 814 C373 814 461 964 461 964 C461 964 435 964 435 964 C435 964 355 814 355 814 L355 814 Z M593 0 C593 0 606 0 606 0 C606 0 619 0 619 0 C619 0 618 3 618 3 C617 4 617 5 617 5 C617 5 617 5 617 5 C617 5 466 340 466 340 C466 340 440 340 440 340 C440 340 593 0 593 0 L593 0 Z M125 0 C125 0 136 0 136 0 C136 0 136 5 136 5 C136 5 136 341 136 341 C136 341 456 341 456 341 C560 341 614 404 614 525 C614 674 560 750 457 750 C457 750 136 750 136 750 C136 750 125 750 125 750 C125 750 119 750 119 750 C119 750 113 750 113 750 C113 750 113 745 113 745 C113 745 113 5 113 5 C113 5 113 0 113 0 C113 0 125 0 125 0 L125 0 Z M136 360 C136 360 136 732 136 732 C136 732 456 732 456 732 C546 732 592 662 592 525 C592 416 546 360 457 360 C457 360 136 360 136 360 L136 360 Z " />
<glyph glyph-name="racute" unicode="&#x155;" horiz-adv-x="396" d="M226 584 C226 584 244 584 244 584 C244 584 332 734 332 734 C332 734 306 734 306 734 C306 734 226 584 226 584 L226 584 Z M376 497 C376 497 376 520 376 520 C376 520 365 520 365 520 C212 520 136 453 114 346 C114 346 114 510 114 510 C114 510 114 520 114 520 C114 520 104 520 104 520 C104 520 99 520 99 520 C99 520 94 520 94 520 C94 520 94 515 94 515 C94 515 94 5 94 5 C94 5 94 0 94 0 C94 0 104 0 104 0 C104 0 114 0 114 0 C114 0 114 5 114 5 C114 5 114 271 114 271 C114 407 184 497 363 497 C363 497 376 497 376 497 L376 497 Z " />
<glyph glyph-name="Rcaron" unicode="&#x158;" horiz-adv-x="648" d="M364 830 C364 830 523 964 523 964 C523 964 542 964 542 964 C542 964 374 814 374 814 C374 814 354 814 354 814 C354 814 186 964 186 964 C186 964 204 964 204 964 C204 964 364 830 364 830 L364 830 Z M593 0 C593 0 606 0 606 0 C606 0 619 0 619 0 C619 0 618 3 618 3 C617 4 617 5 617 5 C617 5 617 5 617 5 C617 5 466 340 466 340 C466 340 440 340 440 340 C440 340 593 0 593 0 L593 0 Z M125 0 C125 0 136 0 136 0 C136 0 136 5 136 5 C136 5 136 341 136 341 C136 341 456 341 456 341 C560 341 614 404 614 525 C614 674 560 750 457 750 C457 750 136 750 136 750 C136 750 125 750 125 750 C125 750 119 750 119 750 C119 750 113 750 113 750 C113 750 113 745 113 745 C113 745 113 5 113 5 C113 5 113 0 113 0 C113 0 125 0 125 0 L125 0 Z M136 360 C136 360 136 732 136 732 C136 732 456 732 456 732 C546 732 592 662 592 525 C592 416 546 360 457 360 C457 360 136 360 136 360 L136 360 Z " />
<glyph glyph-name="rcaron" unicode="&#x159;" horiz-adv-x="396" d="M235 600 C235 600 395 734 395 734 C395 734 413 734 413 734 C413 734 245 584 245 584 C245 584 225 584 225 584 C225 584 57 734 57 734 C57 734 75 734 75 734 C75 734 235 600 235 600 L235 600 Z M376 497 C376 497 376 520 376 520 C376 520 365 520 365 520 C212 520 136 453 114 346 C114 346 114 510 114 510 C114 510 114 520 114 520 C114 520 104 520 104 520 C104 520 99 520 99 520 C99 520 94 520 94 520 C94 520 94 515 94 515 C94 515 94 5 94 5 C94 5 94 0 94 0 C94 0 104 0 104 0 C104 0 114 0 114 0 C114 0 114 5 114 5 C114 5 114 271 114 271 C114 407 184 497 363 497 C363 497 376 497 376 497 L376 497 Z " />
<glyph glyph-name="Sacute" unicode="&#x15a;" horiz-adv-x="541" d="M252 814 C252 814 271 814 271 814 C271 814 359 964 359 964 C359 964 333 964 333 964 C333 964 252 814 252 814 L252 814 Z M456 605 C456 605 456 604 456 604 C456 604 464 612 464 612 C376 710 297 760 248 760 C138 760 64 675 64 548 C64 456 135 397 274 375 C412 352 484 296 484 208 C484 90 422 11 301 11 C218 11 134 72 79 191 C79 191 69 184 69 184 C69 184 69 184 69 184 C69 184 59 176 59 176 C116 53 208 -10 301 -10 C437 -10 507 78 507 209 C507 309 430 373 280 397 C152 418 87 470 87 551 C87 664 151 739 248 739 C291 739 363 691 447 597 C447 597 456 605 456 605 L456 605 Z " />
<glyph glyph-name="sacute" unicode="&#x15b;" horiz-adv-x="524" d="M273 584 C273 584 291 584 291 584 C291 584 380 734 380 734 C380 734 354 734 354 734 C354 734 273 584 273 584 L273 584 Z M53 126 C53 126 53 126 53 126 C53 126 53 126 53 126 C90 47 179 -5 280 -5 C408 -5 494 53 494 140 C494 215 422 266 283 269 C162 272 100 317 100 381 C100 458 173 509 282 509 C356 509 429 454 466 371 C466 371 475 375 475 375 C475 375 475 375 475 375 C475 375 483 379 483 379 C444 467 364 525 282 525 C162 525 81 467 81 380 C81 305 148 254 279 251 C408 248 474 203 474 139 C474 63 396 12 280 12 C183 12 98 65 67 146 C67 146 48 138 48 138 C50 134 51 130 53 126 C53 126 53 126 53 126 L53 126 Z " />
<glyph glyph-name="Scircumflex" unicode="&#x15c;" horiz-adv-x="541" d="M261 948 C261 948 421 814 421 814 C421 814 440 814 440 814 C440 814 272 964 272 964 C272 964 251 964 251 964 C251 964 83 814 83 814 C83 814 102 814 102 814 C102 814 261 948 261 948 L261 948 Z M456 605 C456 605 456 604 456 604 C456 604 464 612 464 612 C376 710 297 760 248 760 C138 760 64 675 64 548 C64 456 135 397 274 375 C412 352 484 296 484 208 C484 90 422 11 301 11 C218 11 134 72 79 191 C79 191 69 184 69 184 C69 184 69 184 69 184 C69 184 59 176 59 176 C116 53 208 -10 301 -10 C437 -10 507 78 507 209 C507 309 430 373 280 397 C152 418 87 470 87 551 C87 664 151 739 248 739 C291 739 363 691 447 597 C447 597 456 605 456 605 L456 605 Z " />
<glyph glyph-name="Scedilla" unicode="&#x15e;" horiz-adv-x="541" d="M272 -107 C275 -99 296 -93 324 -93 C356 -93 377 -114 377 -146 C377 -178 355 -199 323 -199 C292 -199 270 -187 269 -169 C269 -169 261 -176 261 -176 C262 -196 287 -209 324 -209 C362 -209 388 -184 388 -146 C388 -108 363 -82 325 -82 C298 -82 281 -87 274 -100 C274 -100 301 -10 301 -10 C301 -10 301 -10 301 -10 C437 -10 507 78 507 209 C507 309 430 373 280 397 C152 418 87 470 87 551 C87 664 151 739 248 739 C291 739 363 691 447 597 C447 597 456 605 456 605 C456 605 456 604 456 604 C456 604 464 612 464 612 C376 710 297 760 248 760 C138 760 64 675 64 548 C64 456 135 397 274 375 C412 352 484 296 484 208 C484 90 422 11 301 11 C218 11 134 72 79 191 C79 191 69 184 69 184 C69 184 69 184 69 184 C69 184 59 176 59 176 C114 56 203 -7 293 -10 C293 -10 265 -104 265 -104 C265 -104 272 -108 272 -108 C272 -108 272 -107 272 -107 L272 -107 Z " />
<glyph glyph-name="scedilla" unicode="&#x15f;" horiz-adv-x="524" d="M253 -100 C253 -100 281 -5 281 -5 C408 -5 494 53 494 140 C494 215 422 266 283 269 C162 272 100 317 100 381 C100 458 173 509 282 509 C356 509 429 454 466 371 C466 371 475 375 475 375 C475 375 475 375 475 375 C475 375 483 379 483 379 C444 467 364 525 282 525 C162 525 81 467 81 380 C81 305 148 254 279 251 C408 248 474 203 474 139 C474 63 396 12 280 12 C183 12 98 65 67 146 C67 146 48 138 48 138 C50 134 51 130 53 126 C53 126 53 126 53 126 C53 126 53 126 53 126 C89 49 175 -3 273 -5 C273 -5 245 -104 245 -104 C245 -104 251 -108 251 -108 C253 -99 274 -93 303 -93 C335 -93 356 -114 356 -146 C356 -178 335 -199 302 -199 C271 -199 249 -187 249 -169 C249 -169 240 -176 240 -176 C241 -196 266 -209 303 -209 C341 -209 367 -184 367 -146 C367 -108 342 -82 305 -82 C278 -82 257 -89 253 -100 C253 -100 253 -100 253 -100 L253 -100 Z " />
<glyph glyph-name="Scaron" unicode="&#x160;" horiz-adv-x="541" d="M261 830 C261 830 421 964 421 964 C421 964 440 964 440 964 C440 964 272 814 272 814 C272 814 251 814 251 814 C251 814 83 964 83 964 C83 964 102 964 102 964 C102 964 261 830 261 830 L261 830 Z M456 605 C456 605 456 604 456 604 C456 604 464 612 464 612 C376 710 297 760 248 760 C138 760 64 675 64 548 C64 456 135 397 274 375 C412 352 484 296 484 208 C484 90 422 11 301 11 C218 11 134 72 79 191 C79 191 69 184 69 184 C69 184 69 184 69 184 C69 184 59 176 59 176 C116 53 208 -10 301 -10 C437 -10 507 78 507 209 C507 309 430 373 280 397 C152 418 87 470 87 551 C87 664 151 739 248 739 C291 739 363 691 447 597 C447 597 456 605 456 605 L456 605 Z " />
<glyph glyph-name="scaron" unicode="&#x161;" horiz-adv-x="524" d="M282 600 C282 600 442 734 442 734 C442 734 460 734 460 734 C460 734 292 584 292 584 C292 584 272 584 272 584 C272 584 104 734 104 734 C104 734 122 734 122 734 C122 734 282 600 282 600 L282 600 Z M53 126 C53 126 53 126 53 126 C53 126 53 126 53 126 C90 47 179 -5 280 -5 C408 -5 494 53 494 140 C494 215 422 266 283 269 C162 272 100 317 100 381 C100 458 173 509 282 509 C356 509 429 454 466 371 C466 371 475 375 475 375 C475 375 475 375 475 375 C475 375 483 379 483 379 C444 467 364 525 282 525 C162 525 81 467 81 380 C81 305 148 254 279 251 C408 248 474 203 474 139 C474 63 396 12 280 12 C183 12 98 65 67 146 C67 146 48 138 48 138 C50 134 51 130 53 126 C53 126 53 126 53 126 L53 126 Z " />
<glyph glyph-name="Tcaron" unicode="&#x164;" horiz-adv-x="619" d="M310 830 C310 830 470 964 470 964 C470 964 488 964 488 964 C488 964 320 814 320 814 C320 814 300 814 300 814 C300 814 132 964 132 964 C132 964 150 964 150 964 C150 964 310 830 310 830 L310 830 Z M310 0 C310 0 321 0 321 0 C321 0 321 5 321 5 C321 5 321 731 321 731 C321 731 605 731 605 731 C605 731 610 731 610 731 C610 731 610 740 610 740 C610 740 610 750 610 750 C610 750 321 750 321 750 C321 750 299 750 299 750 C299 750 10 750 10 750 C10 750 10 740 10 740 C10 740 10 731 10 731 C10 731 15 731 15 731 C15 731 299 731 299 731 C299 731 299 5 299 5 C299 5 299 0 299 0 C299 0 310 0 310 0 L310 0 Z " />
<glyph glyph-name="tcaron" unicode="&#x165;" horiz-adv-x="369" d="M218 760 C218 760 199 610 199 610 C199 610 214 610 214 610 C214 610 240 760 240 760 C240 760 218 760 218 760 L218 760 Z M340 520 C340 520 168 520 168 520 C168 520 168 672 168 672 C168 672 148 655 148 655 C148 655 148 520 148 520 C148 520 10 520 10 520 C10 520 10 503 10 503 C10 503 148 503 148 503 C148 503 148 133 148 133 C148 33 152 0 244 0 C244 0 340 0 340 0 C340 0 340 17 340 17 C340 17 253 17 253 17 C171 17 168 46 168 133 C168 133 168 503 168 503 C168 503 340 503 340 503 C340 503 340 520 340 520 L340 520 Z " />
<glyph glyph-name="Utilde" unicode="&#x168;" horiz-adv-x="650" d="M249 804 C249 841 267 866 295 866 C334 866 335 794 383 794 C419 794 443 825 443 871 C443 871 428 871 428 871 C428 835 410 810 382 810 C343 810 342 881 294 881 C258 881 234 850 234 804 C234 804 249 804 249 804 L249 804 Z M106 745 C106 745 106 294 106 294 C106 93 185 -10 338 -10 C492 -10 571 93 571 294 C571 294 571 745 571 745 C571 745 571 748 571 748 C571 748 571 750 571 750 C571 750 559 750 559 750 C559 750 547 750 547 750 C547 750 547 745 547 745 C547 745 547 298 547 298 C547 109 476 12 338 12 C200 12 129 109 129 298 C129 298 129 745 129 745 C129 745 129 750 129 750 C129 750 118 750 118 750 C118 750 106 750 106 750 C106 750 106 745 106 745 L106 745 Z " />
<glyph glyph-name="utilde" unicode="&#x169;" horiz-adv-x="527" d="M183 584 C183 621 202 646 230 646 C269 646 270 574 318 574 C354 574 378 605 378 651 C378 651 363 651 363 651 C363 615 345 590 317 590 C278 590 277 661 228 661 C193 661 169 630 169 584 C169 584 183 584 183 584 L183 584 Z M448 520 C448 520 438 520 438 520 C438 520 438 515 438 515 C438 515 438 148 438 148 C438 64 376 9 284 9 C148 9 109 60 109 159 C109 159 109 520 109 520 C109 520 99 520 99 520 C99 520 89 520 89 520 C89 520 89 515 89 515 C89 515 89 159 89 159 C89 47 130 -10 277 -10 C361 -10 421 34 438 105 C438 105 438 10 438 10 C438 10 438 0 438 0 C438 0 448 0 448 0 C448 0 458 0 458 0 C458 0 458 5 458 5 C458 5 458 10 458 10 C458 10 458 520 458 520 C458 520 448 520 448 520 L448 520 Z " />
<glyph glyph-name="Umacron" unicode="&#x16a;" horiz-adv-x="650" d="M181 804 C181 804 496 804 496 804 C496 804 496 818 496 818 C496 818 181 818 181 818 C181 818 181 804 181 804 L181 804 Z M106 745 C106 745 106 294 106 294 C106 93 185 -10 338 -10 C492 -10 571 93 571 294 C571 294 571 745 571 745 C571 745 571 748 571 748 C571 748 571 750 571 750 C571 750 559 750 559 750 C559 750 547 750 547 750 C547 750 547 745 547 745 C547 745 547 298 547 298 C547 109 476 12 338 12 C200 12 129 109 129 298 C129 298 129 745 129 745 C129 745 129 750 129 750 C129 750 118 750 118 750 C118 750 106 750 106 750 C106 750 106 745 106 745 L106 745 Z " />
<glyph glyph-name="umacron" unicode="&#x16b;" horiz-adv-x="527" d="M116 584 C116 584 431 584 431 584 C431 584 431 598 431 598 C431 598 116 598 116 598 C116 598 116 584 116 584 L116 584 Z M448 520 C448 520 438 520 438 520 C438 520 438 515 438 515 C438 515 438 148 438 148 C438 64 376 9 284 9 C148 9 109 60 109 159 C109 159 109 520 109 520 C109 520 99 520 99 520 C99 520 89 520 89 520 C89 520 89 515 89 515 C89 515 89 159 89 159 C89 47 130 -10 277 -10 C361 -10 421 34 438 105 C438 105 438 10 438 10 C438 10 438 0 438 0 C438 0 448 0 448 0 C448 0 458 0 458 0 C458 0 458 5 458 5 C458 5 458 10 458 10 C458 10 458 520 458 520 C458 520 448 520 448 520 L448 520 Z " />
<glyph glyph-name="Ubreve" unicode="&#x16c;" horiz-adv-x="650" d="M189 910 C189 840 249 794 338 794 C428 794 488 840 488 910 C488 910 474 910 474 910 C474 849 420 808 338 808 C257 808 203 849 203 910 C203 910 189 910 189 910 L189 910 Z M106 745 C106 745 106 294 106 294 C106 93 185 -10 338 -10 C492 -10 571 93 571 294 C571 294 571 745 571 745 C571 745 571 748 571 748 C571 748 571 750 571 750 C571 750 559 750 559 750 C559 750 547 750 547 750 C547 750 547 745 547 745 C547 745 547 298 547 298 C547 109 476 12 338 12 C200 12 129 109 129 298 C129 298 129 745 129 745 C129 745 129 750 129 750 C129 750 118 750 118 750 C118 750 106 750 106 750 C106 750 106 745 106 745 L106 745 Z " />
<glyph glyph-name="ubreve" unicode="&#x16d;" horiz-adv-x="527" d="M124 690 C124 620 184 574 273 574 C363 574 423 620 423 690 C423 690 409 690 409 690 C409 629 355 588 273 588 C192 588 138 629 138 690 C138 690 124 690 124 690 L124 690 Z M448 520 C448 520 438 520 438 520 C438 520 438 515 438 515 C438 515 438 148 438 148 C438 64 376 9 284 9 C148 9 109 60 109 159 C109 159 109 520 109 520 C109 520 99 520 99 520 C99 520 89 520 89 520 C89 520 89 515 89 515 C89 515 89 159 89 159 C89 47 130 -10 277 -10 C361 -10 421 34 438 105 C438 105 438 10 438 10 C438 10 438 0 438 0 C438 0 448 0 448 0 C448 0 458 0 458 0 C458 0 458 5 458 5 C458 5 458 10 458 10 C458 10 458 520 458 520 C458 520 448 520 448 520 L448 520 Z " />
<glyph glyph-name="Uring" unicode="&#x16e;" horiz-adv-x="650" d="M338 813 C293 813 270 839 270 889 C270 937 295 965 338 965 C382 965 407 937 407 889 C407 839 384 813 338 813 L338 813 Z M260 889 C260 833 287 804 338 804 C390 804 417 833 417 889 C417 943 388 974 338 974 C289 974 260 943 260 889 L260 889 Z M106 745 C106 745 106 294 106 294 C106 93 185 -10 338 -10 C492 -10 571 93 571 294 C571 294 571 745 571 745 C571 745 571 748 571 748 C571 748 571 750 571 750 C571 750 559 750 559 750 C559 750 547 750 547 750 C547 750 547 745 547 745 C547 745 547 298 547 298 C547 109 476 12 338 12 C200 12 129 109 129 298 C129 298 129 745 129 745 C129 745 129 750 129 750 C129 750 118 750 118 750 C118 750 106 750 106 750 C106 750 106 745 106 745 L106 745 Z " />
<glyph glyph-name="uring" unicode="&#x16f;" horiz-adv-x="527" d="M273 593 C228 593 205 619 205 669 C205 717 230 745 273 745 C317 745 342 717 342 669 C342 619 319 593 273 593 L273 593 Z M195 669 C195 613 222 584 273 584 C325 584 352 613 352 669 C352 723 323 754 273 754 C224 754 195 723 195 669 L195 669 Z M448 520 C448 520 438 520 438 520 C438 520 438 515 438 515 C438 515 438 148 438 148 C438 64 376 9 284 9 C148 9 109 60 109 159 C109 159 109 520 109 520 C109 520 99 520 99 520 C99 520 89 520 89 520 C89 520 89 515 89 515 C89 515 89 159 89 159 C89 47 130 -10 277 -10 C361 -10 421 34 438 105 C438 105 438 10 438 10 C438 10 438 0 438 0 C438 0 448 0 448 0 C448 0 458 0 458 0 C458 0 458 5 458 5 C458 5 458 10 458 10 C458 10 458 520 458 520 C458 520 448 520 448 520 L448 520 Z " />
<glyph glyph-name="Wcircumflex" unicode="&#x174;" horiz-adv-x="734" d="M382 948 C382 948 542 814 542 814 C542 814 560 814 560 814 C560 814 392 964 392 964 C392 964 372 964 372 964 C372 964 204 814 204 814 C204 814 222 814 222 814 C222 814 382 948 382 948 L382 948 Z M723 745 C723 745 723 745 723 745 C723 745 724 746 724 748 C724 748 724 750 724 750 C724 750 712 750 712 750 C712 750 699 750 699 750 C699 750 698 749 698 748 C698 748 698 745 698 745 C698 745 549 48 549 48 C549 48 393 748 393 748 C393 748 393 750 393 750 C393 750 392 750 392 750 C392 750 371 750 371 750 C371 750 215 48 215 48 C215 48 65 745 65 745 C65 745 65 748 65 748 C65 748 64 749 64 749 C64 749 64 750 64 750 C64 750 52 750 52 750 C52 750 40 750 40 750 C40 750 40 750 40 749 C40 749 41 745 41 745 C41 745 41 745 41 745 C41 745 41 745 41 745 C41 745 203 0 203 0 C203 0 204 0 204 0 C204 0 225 0 225 0 C225 0 382 701 382 701 C382 701 538 0 538 0 C538 0 539 0 539 0 C539 0 560 0 560 0 C560 0 723 745 723 745 L723 745 Z " />
<glyph glyph-name="Ycircumflex" unicode="&#x176;" horiz-adv-x="626" d="M330 948 C330 948 489 814 489 814 C489 814 508 814 508 814 C508 814 340 964 340 964 C340 964 320 964 320 964 C320 964 152 814 152 814 C152 814 170 814 170 814 C170 814 330 948 330 948 L330 948 Z M318 5 C318 5 318 0 318 0 C318 0 329 0 329 0 C329 0 341 0 341 0 C341 0 341 3 341 3 C341 3 341 5 341 5 C341 5 341 329 341 329 C341 329 613 745 613 745 C613 745 613 745 613 745 C613 745 616 749 616 750 C616 750 604 750 604 750 C604 750 591 750 591 750 C591 750 589 748 589 748 C589 748 589 747 589 747 C589 747 329 348 329 348 C329 348 67 750 67 750 C67 750 55 750 55 750 C55 750 43 750 43 750 C43 750 46 746 46 746 C46 745 46 745 46 745 C46 745 46 745 46 745 C46 745 318 330 318 330 C318 330 318 5 318 5 L318 5 Z " />
<glyph glyph-name="Ydieresis" unicode="&#x178;" horiz-adv-x="626" d="M364 814 C364 814 424 814 424 814 C424 814 424 874 424 874 C424 874 364 874 364 874 C364 874 364 814 364 814 L364 814 Z M236 814 C236 814 296 814 296 814 C296 814 296 874 296 874 C296 874 236 874 236 874 C236 874 236 814 236 814 L236 814 Z M318 5 C318 5 318 0 318 0 C318 0 329 0 329 0 C329 0 341 0 341 0 C341 0 341 3 341 3 C341 3 341 5 341 5 C341 5 341 329 341 329 C341 329 613 745 613 745 C613 745 613 745 613 745 C613 745 616 749 616 750 C616 750 604 750 604 750 C604 750 591 750 591 750 C591 750 589 748 589 748 C589 748 589 747 589 747 C589 747 329 348 329 348 C329 348 67 750 67 750 C67 750 55 750 55 750 C55 750 43 750 43 750 C43 750 46 746 46 746 C46 745 46 745 46 745 C46 745 46 745 46 745 C46 745 318 330 318 330 C318 330 318 5 318 5 L318 5 Z " />
<glyph glyph-name="Zacute" unicode="&#x179;" horiz-adv-x="679" d="M338 814 C338 814 357 814 357 814 C357 814 445 964 445 964 C445 964 419 964 419 964 C419 964 338 814 338 814 L338 814 Z M635 10 C635 10 635 19 635 19 C635 19 630 19 630 19 C630 19 71 19 71 19 C71 19 635 731 635 731 C635 731 635 750 635 750 C635 750 60 750 60 750 C60 750 60 740 60 740 C60 740 60 731 60 731 C60 731 65 731 65 731 C65 731 609 731 609 731 C609 731 45 19 45 19 C45 19 45 0 45 0 C45 0 635 0 635 0 C635 0 635 10 635 10 L635 10 Z " />
<glyph glyph-name="zacute" unicode="&#x17a;" horiz-adv-x="484" d="M246 584 C246 584 264 584 264 584 C264 584 352 734 352 734 C352 734 326 734 326 734 C326 734 246 584 246 584 L246 584 Z M45 520 C45 520 45 512 45 512 C45 512 45 503 45 503 C45 503 50 503 50 503 C50 503 423 503 423 503 C423 503 30 13 30 13 C30 13 30 0 30 0 C30 0 465 0 465 0 C465 0 465 8 465 8 C465 8 465 17 465 17 C465 17 462 17 462 17 C462 17 460 17 460 17 C460 17 55 17 55 17 C55 17 449 507 449 507 C449 507 449 520 449 520 C449 520 45 520 45 520 L45 520 Z " />
<glyph glyph-name="Zdotaccent" unicode="&#x17b;" horiz-adv-x="679" d="M317 814 C317 814 377 814 377 814 C377 814 377 874 377 874 C377 874 317 874 317 874 C317 874 317 814 317 814 L317 814 Z M635 10 C635 10 635 19 635 19 C635 19 630 19 630 19 C630 19 71 19 71 19 C71 19 635 731 635 731 C635 731 635 750 635 750 C635 750 60 750 60 750 C60 750 60 740 60 740 C60 740 60 731 60 731 C60 731 65 731 65 731 C65 731 609 731 609 731 C609 731 45 19 45 19 C45 19 45 0 45 0 C45 0 635 0 635 0 C635 0 635 10 635 10 L635 10 Z " />
<glyph glyph-name="zdotaccent" unicode="&#x17c;" horiz-adv-x="484" d="M225 584 C225 584 285 584 285 584 C285 584 285 644 285 644 C285 644 225 644 225 644 C225 644 225 584 225 584 L225 584 Z M45 520 C45 520 45 512 45 512 C45 512 45 503 45 503 C45 503 50 503 50 503 C50 503 423 503 423 503 C423 503 30 13 30 13 C30 13 30 0 30 0 C30 0 465 0 465 0 C465 0 465 8 465 8 C465 8 465 17 465 17 C465 17 462 17 462 17 C462 17 460 17 460 17 C460 17 55 17 55 17 C55 17 449 507 449 507 C449 507 449 520 449 520 C449 520 45 520 45 520 L45 520 Z " />
<glyph glyph-name="Zcaron" unicode="&#x17d;" horiz-adv-x="679" d="M347 830 C347 830 507 964 507 964 C507 964 526 964 526 964 C526 964 358 814 358 814 C358 814 337 814 337 814 C337 814 169 964 169 964 C169 964 188 964 188 964 C188 964 347 830 347 830 L347 830 Z M635 10 C635 10 635 19 635 19 C635 19 630 19 630 19 C630 19 71 19 71 19 C71 19 635 731 635 731 C635 731 635 750 635 750 C635 750 60 750 60 750 C60 750 60 740 60 740 C60 740 60 731 60 731 C60 731 65 731 65 731 C65 731 609 731 609 731 C609 731 45 19 45 19 C45 19 45 0 45 0 C45 0 635 0 635 0 C635 0 635 10 635 10 L635 10 Z " />
<glyph glyph-name="zcaron" unicode="&#x17e;" horiz-adv-x="484" d="M255 600 C255 600 415 734 415 734 C415 734 433 734 433 734 C433 734 265 584 265 584 C265 584 245 584 245 584 C245 584 77 734 77 734 C77 734 95 734 95 734 C95 734 255 600 255 600 L255 600 Z M45 520 C45 520 45 512 45 512 C45 512 45 503 45 503 C45 503 50 503 50 503 C50 503 423 503 423 503 C423 503 30 13 30 13 C30 13 30 0 30 0 C30 0 465 0 465 0 C465 0 465 8 465 8 C465 8 465 17 465 17 C465 17 462 17 462 17 C462 17 460 17 460 17 C460 17 55 17 55 17 C55 17 449 507 449 507 C449 507 449 520 449 520 C449 520 45 520 45 520 L45 520 Z " />
<glyph glyph-name="SmallLetterOwithogon" unicode="&#x1eb;" horiz-adv-x="771" d="M86 298 C86 113 212 -10 401 -10 C431 -10 459 -7 486 -1 C486 -1 690 -111 690 -111 C690 -111 702 -100 702 -100 C702 -100 509 5 509 5 C636 43 716 151 716 298 C716 474 581 607 401 607 C221 607 86 474 86 298 C86 298 86 298 86 298 L86 298 Z M462 12 C442 9 422 7 401 7 C225 7 107 124 107 298 C107 464 233 589 401 589 C569 589 695 464 695 298 C695 154 614 49 486 17 C486 17 433 46 433 46 C433 46 421 34 421 34 C421 34 462 12 462 12 L462 12 Z " />
<glyph glyph-name="CapitalLetterAwithdo" unicode="&#x226;" horiz-adv-x="749" d="M360 814 C360 814 420 814 420 814 C420 814 420 874 420 874 C420 874 360 874 360 874 C360 874 360 814 360 814 L360 814 Z M606 242 C606 242 598 260 598 260 C598 260 180 260 180 260 C180 260 389 724 389 724 C389 724 715 0 715 0 C715 0 727 0 727 0 C727 0 740 0 740 0 C740 0 401 750 401 750 C401 750 389 750 389 750 C389 750 378 750 378 750 C378 750 377 750 377 750 C377 750 376 749 376 748 C376 747 375 746 375 746 C375 746 40 5 40 5 C40 5 40 5 40 5 C40 5 39 4 39 3 C38 1 38 0 38 0 C38 0 50 0 50 0 C50 0 63 0 63 0 C63 0 64 1 64 2 C64 2 65 4 65 4 C65 4 66 5 66 5 C66 5 65 5 65 5 C65 5 179 257 179 257 C179 257 173 242 173 242 C173 242 606 242 606 242 L606 242 Z " />
<glyph glyph-name="LETTERSMALLCAPITALG" unicode="&#x262;" horiz-adv-x="732" d="M458 328 C458 328 667 328 667 328 C667 328 667 114 667 114 C591 50 494 7 405 7 C223 7 102 124 102 298 C102 473 223 589 405 589 C493 589 592 519 653 414 C653 414 661 421 661 421 C661 421 661 420 661 420 C661 420 668 427 668 427 C606 535 501 607 405 607 C211 607 81 484 81 298 C81 113 211 -10 405 -10 C502 -10 606 35 687 103 C687 103 687 345 687 345 C687 345 458 345 458 345 C458 345 458 328 458 328 L458 328 Z " />
<glyph glyph-name="LETTERSMALLCAPITALI" unicode="&#x26a;" horiz-adv-x="191" d="M97 0 C97 0 107 0 107 0 C107 0 107 5 107 5 C107 5 107 592 107 592 C107 592 107 597 107 597 C107 597 97 597 97 597 C97 597 87 597 87 597 C87 597 87 592 87 592 C87 592 87 5 87 5 C87 5 87 0 87 0 C87 0 97 0 97 0 L97 0 Z " />
<glyph glyph-name="LETTERSMALLCAPITALN" unicode="&#x274;" horiz-adv-x="578" d="M493 592 C493 592 494 592 494 592 C493 591 493 592 493 592 L493 592 Z M472 592 C472 592 472 27 472 27 C472 27 135 592 135 592 C135 592 135 597 135 597 C135 597 132 597 132 597 C132 597 124 597 124 597 C124 597 114 597 114 597 C114 597 114 592 114 592 C114 592 114 5 114 5 C114 5 114 0 114 0 C114 0 124 0 124 0 C124 0 135 0 135 0 C135 0 135 5 135 5 C135 5 135 562 135 562 C135 562 469 0 469 0 C469 0 472 0 472 0 C472 0 488 0 488 0 C488 0 494 0 494 0 C494 0 494 592 494 592 C494 592 494 594 494 594 C494 594 494 597 494 597 C494 597 483 597 483 597 C483 597 472 597 472 597 C472 597 472 592 472 592 L472 592 Z " />
<glyph glyph-name="LETTERSMALLCAPITALR" unicode="&#x280;" horiz-adv-x="581" d="M528 0 C528 0 540 0 540 0 C540 0 551 0 551 0 C551 0 550 1 550 1 C550 2 550 2 550 3 C550 3 549 4 549 4 C549 4 399 275 399 275 C399 275 376 275 376 275 C376 275 528 0 528 0 L528 0 Z M124 0 C124 0 134 0 134 0 C134 0 134 5 134 5 C134 5 134 276 134 276 C134 276 391 276 391 276 C493 276 546 324 546 418 C546 536 493 597 391 597 C391 597 134 597 134 597 C134 597 124 597 124 597 C124 597 119 597 119 597 C119 597 114 597 114 597 C114 597 114 592 114 592 C114 592 114 5 114 5 C114 5 114 0 114 0 C114 0 124 0 124 0 L124 0 Z M134 293 C134 293 134 580 134 580 C134 580 390 580 390 580 C480 580 526 525 526 418 C526 335 480 293 392 293 C392 293 134 293 134 293 L134 293 Z " />
<glyph glyph-name="LETTERSMALLCAPITALY" unicode="&#x28f;" horiz-adv-x="558" d="M520 592 C519 592 519 592 519 592 C519 592 520 592 520 592 L520 592 Z M71 592 C71 592 72 592 72 592 C72 592 67 597 67 597 C67 597 55 597 55 597 C55 597 43 597 43 597 C43 596 47 591 48 592 C48 592 286 330 286 330 C286 330 286 5 286 5 C286 5 286 0 286 0 C286 0 296 0 296 0 C296 0 306 0 306 0 C306 0 306 5 306 5 C306 5 306 329 306 329 C306 329 544 592 544 592 C545 591 549 596 549 597 C549 597 536 597 536 597 C536 597 523 597 523 597 C523 597 295 344 295 344 C295 344 72 592 72 592 C71 592 71 592 71 592 C71 592 71 592 71 592 L71 592 Z M72 592 C72 592 72 592 72 592 C72 592 72 592 72 592 C72 592 72 592 72 592 L72 592 Z " />
<glyph glyph-name="LETTERSMALLCAPITALB" unicode="&#x299;" horiz-adv-x="680" d="M415 334 C514 346 577 385 577 438 C577 552 506 597 323 597 C323 597 134 597 134 597 C134 597 124 597 124 597 C124 597 114 597 114 597 C114 597 114 592 114 592 C114 592 114 5 114 5 C114 5 114 0 114 0 C114 0 124 0 124 0 C124 0 134 0 134 0 C134 0 392 0 392 0 C575 0 646 49 646 174 C646 270 556 334 422 334 C422 334 415 334 415 334 L415 334 Z M134 339 C134 339 134 580 134 580 C134 580 324 580 324 580 C491 580 556 540 556 436 C556 378 468 339 336 339 C336 339 134 339 134 339 L134 339 Z M134 17 C134 17 134 323 134 323 C134 323 408 323 408 323 C538 323 624 264 624 177 C624 62 557 17 386 17 C386 17 134 17 134 17 L134 17 Z " />
<glyph glyph-name="LETTERSMALLCAPITALH" unicode="&#x29c;" horiz-adv-x="617" d="M523 0 C523 0 533 0 533 0 C533 0 533 5 533 5 C533 5 533 592 533 592 C533 592 533 597 533 597 C533 597 523 597 523 597 C523 597 513 597 513 597 C513 597 513 592 513 592 C513 592 513 312 513 312 C513 312 134 312 134 312 C134 312 134 592 134 592 C134 592 134 597 134 597 C134 597 124 597 124 597 C124 597 114 597 114 597 C114 597 114 592 114 592 C114 592 114 5 114 5 C114 5 114 0 114 0 C114 0 124 0 124 0 C124 0 134 0 134 0 C134 0 134 5 134 5 C134 5 134 294 134 294 C134 294 513 294 513 294 C513 294 513 5 513 5 C513 5 513 0 513 0 C513 0 523 0 523 0 L523 0 Z " />
<glyph glyph-name="LETTERSMALLCAPITALL" unicode="&#x29f;" horiz-adv-x="419" d="M389 9 C389 9 389 17 389 17 C389 18 388 18 387 17 C385 18 384 18 384 17 C384 17 107 17 107 17 C107 17 107 592 107 592 C107 592 107 597 107 597 C107 597 97 597 97 597 C97 597 87 597 87 597 C87 597 87 592 87 592 C87 592 87 5 87 5 C87 5 87 0 87 0 C87 0 97 0 97 0 C97 0 107 0 107 0 C107 0 389 0 389 0 C389 0 389 9 389 9 L389 9 Z " />
<glyph glyph-name="LETTERSMALLCAPITALA" unicode="&#x1d00;" horiz-adv-x="682" d="M553 191 C553 191 545 207 545 207 C545 207 167 207 167 207 C167 207 159 191 159 191 C159 191 553 191 553 191 L553 191 Z M50 0 C50 0 61 0 61 0 C61 0 61 1 62 1 C62 1 356 577 356 577 C356 577 648 5 648 5 C648 5 648 5 648 5 C648 5 649 4 649 4 C649 4 651 0 651 0 C651 0 662 0 662 0 C662 0 672 0 672 0 C672 0 670 5 670 5 C670 5 669 5 669 5 C669 5 366 597 366 597 C366 597 355 597 355 597 C355 597 346 597 346 597 C346 597 345 597 345 597 C345 597 344 595 344 595 C344 595 343 594 343 594 C343 593 343 593 343 593 C343 593 343 592 343 592 C342 592 342 592 342 592 C342 592 342 592 342 592 C342 592 38 0 38 0 C38 0 50 0 50 0 L50 0 Z " />
<glyph glyph-name="LETTERSMALLCAPITALC" unicode="&#x1d04;" horiz-adv-x="680" d="M645 183 C598 77 490 7 374 7 C211 7 102 141 102 298 C102 455 211 589 374 589 C476 589 585 519 645 414 C645 414 653 420 653 420 C653 420 653 420 653 420 C653 420 661 427 661 427 C599 535 484 607 374 607 C198 607 81 465 81 298 C81 132 198 -10 374 -10 C498 -10 613 62 661 170 C661 170 645 183 645 183 L645 183 Z " />
<glyph glyph-name="LETTERSMALLCAPITALD" unicode="&#x1d05;" horiz-adv-x="720" d="M124 0 C124 0 134 0 134 0 C134 0 327 0 327 0 C557 0 666 96 666 298 C666 495 541 597 297 597 C297 597 134 597 134 597 C134 597 124 597 124 597 C124 597 114 597 114 597 C114 597 114 592 114 592 C114 592 114 5 114 5 C114 5 114 0 114 0 C114 0 124 0 124 0 L124 0 Z M134 17 C134 17 134 580 134 580 C134 580 298 580 298 580 C526 580 644 484 644 298 C644 107 541 16 326 16 C268 16 192 17 134 17 L134 17 Z " />
<glyph glyph-name="LETTERSMALLCAPITALE" unicode="&#x1d07;" horiz-adv-x="516" d="M466 9 C466 9 466 17 466 17 C466 18 465 18 464 17 C462 18 461 18 461 17 C461 17 134 17 134 17 C134 17 134 300 134 300 C134 300 426 300 426 300 C426 300 431 300 431 300 C431 300 431 308 431 308 C431 308 431 316 431 316 C431 316 426 316 426 316 C426 316 134 316 134 316 C134 316 134 579 134 579 C134 579 446 579 446 579 C446 579 451 579 451 579 C451 579 451 588 451 588 C451 588 451 597 451 597 C451 597 134 597 134 597 C134 597 133 597 133 597 C133 597 124 597 124 597 C124 597 114 597 114 597 C114 597 114 592 114 592 C114 592 114 5 114 5 C114 5 114 0 114 0 C114 0 124 0 124 0 C124 0 133 0 133 0 C133 0 134 0 134 0 C134 0 466 0 466 0 C466 0 466 9 466 9 L466 9 Z " />
<glyph glyph-name="LETTERSMALLCAPITALJ" unicode="&#x1d0a;" horiz-adv-x="414" d="M76 284 C76 284 76 224 76 224 C76 62 115 -10 203 -10 C286 -10 329 64 329 175 C329 175 329 592 329 592 C330 591 330 592 329 594 C330 595 330 596 329 597 C329 597 319 597 319 597 C319 597 309 597 309 597 C309 597 309 592 309 592 C309 592 309 175 309 175 C309 76 273 10 203 10 C129 10 96 78 96 229 C96 229 96 288 96 288 C96 288 76 284 76 284 L76 284 Z " />
<glyph glyph-name="LETTERSMALLCAPITALK" unicode="&#x1d0b;" horiz-adv-x="527" d="M433 592 C433 592 433 592 433 592 C433 592 433 592 433 592 L433 592 Z M506 0 C506 0 517 0 517 0 C517 0 515 2 515 2 C515 2 515 3 515 3 C515 4 514 5 514 5 C514 5 513 5 513 5 C513 5 259 362 259 362 C259 362 245 346 245 346 C245 346 492 2 492 2 C493 1 494 0 494 0 C494 0 506 0 506 0 L506 0 Z M463 597 C463 597 450 597 450 597 C450 597 437 597 437 597 C437 597 134 244 134 244 C134 244 134 592 134 592 C134 592 134 597 134 597 C134 597 124 597 124 597 C124 597 114 597 114 597 C114 597 114 592 114 592 C114 592 114 5 114 5 C114 5 114 0 114 0 C114 0 124 0 124 0 C124 0 134 0 134 0 C134 0 134 5 134 5 C134 5 134 219 134 219 C134 219 463 597 463 597 L463 597 Z " />
<glyph glyph-name="LETTERSMALLCAPITALM" unicode="&#x1d0d;" horiz-adv-x="757" d="M672 592 C672 592 673 592 673 592 C672 591 672 592 672 592 L672 592 Z M663 0 C663 0 673 0 673 0 C673 0 673 3 673 3 C673 3 673 5 673 5 C673 5 673 592 673 592 C673 592 673 594 673 594 C673 594 673 597 673 597 C673 597 663 597 663 597 C663 597 660 597 660 597 C660 597 653 597 653 597 C653 597 640 597 640 597 C640 597 393 22 393 22 C393 22 145 597 145 597 C145 597 134 597 134 597 C134 597 126 597 126 597 C126 597 124 597 124 597 C124 597 114 597 114 597 C114 597 114 592 114 592 C114 592 114 5 114 5 C114 5 114 0 114 0 C114 0 124 0 124 0 C124 0 134 0 134 0 C135 0 135 1 134 3 C135 4 135 5 134 5 C134 5 134 579 134 579 C134 579 384 1 384 1 C384 1 384 0 384 0 C384 0 385 0 385 0 C385 0 403 0 403 0 C403 0 653 581 653 581 C653 581 653 5 653 5 C653 5 653 0 653 0 C653 0 663 0 663 0 L663 0 Z " />
<glyph glyph-name="LETTERSMALLCAPITALO" unicode="&#x1d0f;" horiz-adv-x="771" d="M401 7 C225 7 107 124 107 298 C107 464 233 589 401 589 C569 589 695 464 695 298 C695 124 577 7 401 7 L401 7 Z M86 298 C86 113 212 -10 401 -10 C590 -10 716 113 716 298 C716 474 581 607 401 607 C221 607 86 474 86 298 L86 298 Z " />
<glyph glyph-name="LETTERSMALLCAPITALP" unicode="&#x1d18;" horiz-adv-x="581" d="M124 0 C124 0 134 0 134 0 C134 0 134 5 134 5 C134 5 134 261 134 261 C134 261 391 261 391 261 C493 261 546 314 546 418 C546 536 493 597 391 597 C391 597 134 597 134 597 C134 597 124 597 124 597 C124 597 119 597 119 597 C119 597 114 597 114 597 C114 597 114 592 114 592 C114 592 114 5 114 5 C114 5 114 0 114 0 C114 0 124 0 124 0 L124 0 Z M134 277 C134 277 134 580 134 580 C134 580 390 580 390 580 C480 580 526 525 526 418 C526 325 481 277 392 277 C392 277 134 277 134 277 L134 277 Z " />
<glyph glyph-name="LETTERSMALLCAPITALT" unicode="&#x1d1b;" horiz-adv-x="552" d="M276 0 C276 0 286 0 286 0 C286 0 286 5 286 5 C286 5 286 579 286 579 C286 579 537 579 537 579 C537 579 542 579 542 579 C542 579 542 588 542 588 C542 588 542 597 542 597 C542 597 286 597 286 597 C286 597 266 597 266 597 C266 597 10 597 10 597 C10 597 10 588 10 588 C10 588 10 579 10 579 C10 579 15 579 15 579 C15 579 266 579 266 579 C266 579 266 5 266 5 C266 5 266 0 266 0 C266 0 276 0 276 0 L276 0 Z " />
<glyph glyph-name="LETTERSMALLCAPITALU" unicode="&#x1d1c;" horiz-adv-x="580" d="M107 592 C107 592 107 234 107 234 C107 73 174 -10 304 -10 C434 -10 501 73 501 234 C501 234 501 592 501 592 C501 592 501 597 501 597 C501 597 490 597 490 597 C490 597 480 597 480 597 C480 597 480 592 480 592 C480 592 480 238 480 238 C480 87 420 10 304 10 C187 10 127 87 127 237 C127 237 127 592 127 592 C127 592 127 597 127 597 C127 597 117 597 117 597 C117 597 107 597 107 597 C107 597 107 592 107 592 L107 592 Z " />
<glyph glyph-name="LETTERSMALLCAPITALV" unicode="&#x1d20;" horiz-adv-x="474" d="M463 594 C464 595 464 596 464 597 C464 597 453 597 453 597 C453 597 441 597 441 597 C441 597 252 29 252 29 C252 29 64 592 64 592 C64 592 64 592 64 592 C64 592 64 592 64 592 C64 592 63 594 63 594 C63 595 63 595 63 595 C63 595 62 597 62 597 C62 597 51 597 51 597 C51 597 41 597 41 597 C40 596 41 595 41 594 C41 594 42 592 42 592 C42 592 43 592 43 592 C43 592 243 0 243 0 C243 0 262 0 262 0 C262 0 263 0 263 0 C263 0 462 592 462 592 C462 592 463 592 463 592 C463 592 463 594 463 594 L463 594 Z " />
<glyph glyph-name="LETTERSMALLCAPITALW" unicode="&#x1d21;" horiz-adv-x="664" d="M653 592 C653 592 653 592 653 592 C653 592 654 594 654 594 C654 594 654 597 654 597 C654 597 643 597 643 597 C643 597 631 597 631 597 C631 597 497 39 497 39 C497 39 357 595 357 595 C357 595 358 597 358 597 C358 597 357 597 357 597 C357 597 337 597 337 597 C337 597 197 37 197 37 C197 37 63 593 63 593 C63 593 63 594 63 594 C63 595 63 595 62 596 C62 596 62 597 62 597 C62 597 51 597 51 597 C51 597 41 597 41 597 C40 596 41 595 41 594 C41 594 42 592 42 592 C42 592 42 592 42 592 C42 592 187 0 187 0 C187 0 188 0 188 0 C188 0 206 0 206 0 C206 0 347 556 347 556 C347 556 488 0 488 0 C488 0 507 0 507 0 C507 0 653 592 653 592 L653 592 Z " />
<glyph glyph-name="LETTERSMALLCAPITALZ" unicode="&#x1d22;" horiz-adv-x="612" d="M567 9 C567 9 567 17 567 17 C567 18 566 18 565 17 C563 18 562 18 562 17 C562 17 66 17 66 17 C66 17 567 579 567 579 C567 579 567 597 567 597 C567 597 60 597 60 597 C60 597 60 588 60 588 C60 588 60 579 60 579 C60 579 65 579 65 579 C65 579 545 579 545 579 C545 579 45 17 45 17 C45 17 45 0 45 0 C45 0 567 0 567 0 C567 0 567 9 567 9 L567 9 Z " />
<glyph glyph-name="Wgrave" unicode="&#x1e80;" horiz-adv-x="734" d="M373 814 C373 814 391 814 391 814 C391 814 311 964 311 964 C311 964 285 964 285 964 C285 964 373 814 373 814 L373 814 Z M723 745 C723 745 723 745 723 745 C723 745 724 746 724 748 C724 748 724 750 724 750 C724 750 712 750 712 750 C712 750 699 750 699 750 C699 750 698 749 698 748 C698 748 698 745 698 745 C698 745 549 48 549 48 C549 48 393 748 393 748 C393 748 393 750 393 750 C393 750 392 750 392 750 C392 750 371 750 371 750 C371 750 215 48 215 48 C215 48 65 745 65 745 C65 745 65 748 65 748 C65 748 64 749 64 749 C64 749 64 750 64 750 C64 750 52 750 52 750 C52 750 40 750 40 750 C40 750 40 750 40 749 C40 749 41 745 41 745 C41 745 41 745 41 745 C41 745 41 745 41 745 C41 745 203 0 203 0 C203 0 204 0 204 0 C204 0 225 0 225 0 C225 0 382 701 382 701 C382 701 538 0 538 0 C538 0 539 0 539 0 C539 0 560 0 560 0 C560 0 723 745 723 745 L723 745 Z " />
<glyph glyph-name="Wacute" unicode="&#x1e82;" horiz-adv-x="734" d="M373 814 C373 814 391 814 391 814 C391 814 479 964 479 964 C479 964 453 964 453 964 C453 964 373 814 373 814 L373 814 Z M723 745 C723 745 723 745 723 745 C723 745 724 746 724 748 C724 748 724 750 724 750 C724 750 712 750 712 750 C712 750 699 750 699 750 C699 750 698 749 698 748 C698 748 698 745 698 745 C698 745 549 48 549 48 C549 48 393 748 393 748 C393 748 393 750 393 750 C393 750 392 750 392 750 C392 750 371 750 371 750 C371 750 215 48 215 48 C215 48 65 745 65 745 C65 745 65 748 65 748 C65 748 64 749 64 749 C64 749 64 750 64 750 C64 750 52 750 52 750 C52 750 40 750 40 750 C40 750 40 750 40 749 C40 749 41 745 41 745 C41 745 41 745 41 745 C41 745 41 745 41 745 C41 745 203 0 203 0 C203 0 204 0 204 0 C204 0 225 0 225 0 C225 0 382 701 382 701 C382 701 538 0 538 0 C538 0 539 0 539 0 C539 0 560 0 560 0 C560 0 723 745 723 745 L723 745 Z " />
<glyph glyph-name="Wdieresis" unicode="&#x1e84;" horiz-adv-x="734" d="M416 814 C416 814 476 814 476 814 C476 814 476 874 476 874 C476 874 416 874 416 874 C416 874 416 814 416 814 L416 814 Z M288 814 C288 814 348 814 348 814 C348 814 348 874 348 874 C348 874 288 874 288 874 C288 874 288 814 288 814 L288 814 Z M723 745 C723 745 723 745 723 745 C723 745 724 746 724 748 C724 748 724 750 724 750 C724 750 712 750 712 750 C712 750 699 750 699 750 C699 750 698 749 698 748 C698 748 698 745 698 745 C698 745 549 48 549 48 C549 48 393 748 393 748 C393 748 393 750 393 750 C393 750 392 750 392 750 C392 750 371 750 371 750 C371 750 215 48 215 48 C215 48 65 745 65 745 C65 745 65 748 65 748 C65 748 64 749 64 749 C64 749 64 750 64 750 C64 750 52 750 52 750 C52 750 40 750 40 750 C40 750 40 750 40 749 C40 749 41 745 41 745 C41 745 41 745 41 745 C41 745 41 745 41 745 C41 745 203 0 203 0 C203 0 204 0 204 0 C204 0 225 0 225 0 C225 0 382 701 382 701 C382 701 538 0 538 0 C538 0 539 0 539 0 C539 0 560 0 560 0 C560 0 723 745 723 745 L723 745 Z " />
<glyph glyph-name="CapitalLetterEWITHTI" unicode="&#x1ebc;" horiz-adv-x="585" d="M227 814 C227 851 246 876 273 876 C313 876 314 804 362 804 C398 804 422 835 422 881 C422 881 407 881 407 881 C407 845 388 820 361 820 C321 820 320 891 272 891 C236 891 212 860 212 814 C212 814 227 814 227 814 L227 814 Z M536 10 C536 10 536 19 536 19 C536 19 531 19 531 19 C531 19 136 19 136 19 C136 19 136 378 136 378 C136 378 496 378 496 378 C496 378 501 378 501 378 C501 378 501 387 501 387 C501 387 501 396 501 396 C501 396 496 396 496 396 C496 396 136 396 136 396 C136 396 136 731 136 731 C136 731 516 731 516 731 C516 731 521 731 521 731 C521 731 521 740 521 740 C521 740 521 750 521 750 C521 750 136 750 136 750 C136 750 135 750 135 750 C135 750 125 750 125 750 C125 750 113 750 113 750 C113 750 113 745 113 745 C113 745 113 5 113 5 C113 5 113 0 113 0 C113 0 125 0 125 0 C125 0 135 0 135 0 C135 0 136 0 136 0 C136 0 536 0 536 0 C536 0 536 10 536 10 L536 10 Z " />
<glyph glyph-name="Ygrave" unicode="&#x1ef2;" horiz-adv-x="626" d="M320 814 C320 814 339 814 339 814 C339 814 258 964 258 964 C258 964 232 964 232 964 C232 964 320 814 320 814 L320 814 Z M318 5 C318 5 318 0 318 0 C318 0 329 0 329 0 C329 0 341 0 341 0 C341 0 341 3 341 3 C341 3 341 5 341 5 C341 5 341 329 341 329 C341 329 613 745 613 745 C613 745 613 745 613 745 C613 745 616 749 616 750 C616 750 604 750 604 750 C604 750 591 750 591 750 C591 750 589 748 589 748 C589 748 589 747 589 747 C589 747 329 348 329 348 C329 348 67 750 67 750 C67 750 55 750 55 750 C55 750 43 750 43 750 C43 750 46 746 46 746 C46 745 46 745 46 745 C46 745 46 745 46 745 C46 745 318 330 318 330 C318 330 318 5 318 5 L318 5 Z " />
<glyph glyph-name="endash" unicode="&#x2013;" horiz-adv-x="434" d="M5 255 C5 255 430 255 430 255 C430 255 430 271 430 271 C430 271 5 271 5 271 C5 271 5 255 5 255 L5 255 Z " />
<glyph glyph-name="emdash" unicode="&#x2014;" horiz-adv-x="724" d="M50 255 C50 255 675 255 675 255 C675 255 675 271 675 271 C675 271 50 271 50 271 C50 271 50 255 50 255 L50 255 Z " />
<glyph glyph-name="quoteleft" unicode="&#x2018;" horiz-adv-x="160" d="M110 760 C67 760 50 732 50 690 C50 690 50 630 50 630 C50 630 110 630 110 630 C110 630 110 690 110 690 C110 690 63 690 63 690 C63 726 76 750 110 750 C110 750 110 760 110 760 L110 760 Z " />
<glyph glyph-name="quoteright" unicode="&#x2019;" horiz-adv-x="160" d="M80 760 C80 760 80 700 80 700 C80 700 127 700 127 700 C127 657 114 640 80 640 C80 640 80 630 80 630 C123 630 140 650 140 700 C140 700 140 760 140 760 C140 760 80 760 80 760 L80 760 Z " />
<glyph glyph-name="quotedblleft" unicode="&#x201c;" horiz-adv-x="280" d="M230 760 C187 760 170 732 170 690 C170 690 170 630 170 630 C170 630 230 630 230 630 C230 630 230 690 230 690 C230 690 183 690 183 690 C183 726 196 750 230 750 C230 750 230 760 230 760 L230 760 Z M140 760 C97 760 80 732 80 690 C80 690 80 630 80 630 C80 630 140 630 140 630 C140 630 140 690 140 690 C140 690 93 690 93 690 C93 726 106 750 140 750 C140 750 140 760 140 760 L140 760 Z " />
<glyph glyph-name="quotedblright" unicode="&#x201d;" horiz-adv-x="280" d="M170 760 C170 760 170 700 170 700 C170 700 217 700 217 700 C217 657 204 640 170 640 C170 640 170 630 170 630 C213 630 230 650 230 700 C230 700 230 760 230 760 C230 760 170 760 170 760 L170 760 Z M80 760 C80 760 80 700 80 700 C80 700 127 700 127 700 C127 657 114 640 80 640 C80 640 80 630 80 630 C123 630 140 650 140 700 C140 700 140 760 140 760 C140 760 80 760 80 760 L80 760 Z " />
<glyph glyph-name="dagger" unicode="&#x2020;" horiz-adv-x="480" d="M420 580 C420 580 250 580 250 580 C250 580 250 750 250 750 C250 750 230 750 230 750 C230 750 230 580 230 580 C230 580 60 580 60 580 C60 580 60 563 60 563 C60 563 230 563 230 563 C230 563 230 -62 230 -62 C230 -62 250 -62 250 -62 C250 -62 250 563 250 563 C250 563 420 563 420 563 C420 563 420 580 420 580 L420 580 Z " />
<glyph glyph-name="daggerdbl" unicode="&#x2021;" horiz-adv-x="480" d="M60 108 C60 108 230 108 230 108 C230 108 230 -62 230 -62 C230 -62 250 -62 250 -62 C250 -62 250 108 250 108 C250 108 420 108 420 108 C420 108 420 126 420 126 C420 126 250 126 250 126 C250 126 250 563 250 563 C250 563 420 563 420 563 C420 563 420 580 420 580 C420 580 250 580 250 580 C250 580 250 750 250 750 C250 750 230 750 230 750 C230 750 230 580 230 580 C230 580 60 580 60 580 C60 580 60 563 60 563 C60 563 230 563 230 563 C230 563 230 126 230 126 C230 126 60 126 60 126 C60 126 60 108 60 108 L60 108 Z " />
<glyph glyph-name="bullet" unicode="&#x2022;" horiz-adv-x="160" d="M43 230 C43 230 118 230 118 230 C118 230 118 305 118 305 C118 305 43 305 43 305 C43 305 43 230 43 230 L43 230 Z " />
<glyph glyph-name="ellipsis" unicode="&#x2026;" horiz-adv-x="430" d="M320 0 C320 0 380 0 380 0 C380 0 380 60 380 60 C380 60 320 60 320 60 C320 60 320 0 320 0 L320 0 Z M185 0 C185 0 245 0 245 0 C245 0 245 60 245 60 C245 60 185 60 185 60 C185 60 185 0 185 0 L185 0 Z M50 0 C50 0 110 0 110 0 C110 0 110 60 110 60 C110 60 50 60 50 60 C50 60 50 0 50 0 L50 0 Z " />
<glyph glyph-name="perthousand" unicode="&#x2030;" horiz-adv-x="761" d="M954 140 C954 57 916 1 842 1 C767 1 729 57 729 140 C729 223 767 279 842 279 C916 279 954 223 954 140 L954 140 Z M842 -10 C924 -10 966 50 966 140 C966 230 924 290 842 290 C760 290 718 230 718 140 C718 50 760 -10 842 -10 L842 -10 Z M698 140 C698 57 660 1 586 1 C511 1 473 57 473 140 C473 223 511 279 586 279 C660 279 698 223 698 140 L698 140 Z M586 -10 C668 -10 710 50 710 140 C710 230 668 290 586 290 C504 290 462 230 462 140 C462 50 504 -10 586 -10 L586 -10 Z M63 610 C63 693 101 749 176 749 C250 749 288 693 288 610 C288 527 250 471 176 471 C101 471 63 527 63 610 L63 610 Z M176 760 C94 760 51 700 52 610 C51 520 94 460 176 460 C257 460 299 520 300 610 C299 700 257 760 176 760 L176 760 Z M171 0 C171 0 178 0 178 0 C178 0 590 750 590 750 C590 750 583 750 583 750 C583 750 171 0 171 0 L171 0 Z " />
<glyph glyph-name="guilsinglleft" unicode="&#x2039;" horiz-adv-x="282" d="M228 470 C228 470 71 260 71 260 C71 260 228 50 228 50 C228 50 245 50 245 50 C245 50 88 260 88 260 C88 260 245 470 245 470 C245 470 228 470 228 470 L228 470 Z " />
<glyph glyph-name="guilsinglright" unicode="&#x203a;" horiz-adv-x="282" d="M112 470 C112 470 269 260 269 260 C269 260 112 50 112 50 C112 50 129 50 129 50 C129 50 287 260 287 260 C287 260 129 470 129 470 C129 470 112 470 112 470 L112 470 Z " />
<glyph glyph-name="fraction" unicode="&#x2044;" horiz-adv-x="513" d="M60 0 C60 0 67 0 67 0 C67 0 454 750 454 750 C454 750 447 750 447 750 C447 750 60 0 60 0 L60 0 Z " />
<glyph glyph-name="Euro" unicode="&#x20ac;" horiz-adv-x="748" d="M28 334 C28 334 82 334 82 334 C98 144 224 -10 407 -10 C552 -10 680 62 728 169 C728 169 711 184 711 184 C664 79 543 9 407 9 C238 9 121 154 106 334 C106 334 467 334 467 334 C467 334 468 345 468 345 C468 345 105 345 105 345 C104 355 104 365 104 375 C104 385 104 395 105 405 C105 405 468 405 468 405 C468 405 470 416 470 416 C470 416 106 416 106 416 C121 596 238 741 407 741 C529 741 650 671 711 566 C711 566 728 581 728 581 C666 688 538 760 407 760 C224 760 98 606 82 416 C82 416 32 416 32 416 C32 416 30 405 30 405 C30 405 81 405 81 405 C80 395 80 385 80 375 C80 365 80 355 81 345 C81 345 30 345 30 345 C30 345 28 334 28 334 L28 334 Z " />
<glyph glyph-name="minus" unicode="&#x2212;" horiz-adv-x="639" d="M50 257 C50 257 590 257 590 257 C590 257 590 269 590 269 C590 269 50 269 50 269 C50 269 50 257 50 257 L50 257 Z " />
<glyph glyph-name="DIVISIONSLASH" unicode="&#x2215;" horiz-adv-x="393" d="M0 0 C0 0 7 0 7 0 C7 0 394 750 394 750 C394 750 387 750 387 750 C387 750 0 0 0 0 L0 0 Z " />
<glyph glyph-name="BULLETOPERATOR" unicode="&#x2219;" horiz-adv-x="160" d="M50 230 C50 230 110 230 110 230 C110 230 110 290 110 290 C110 290 50 290 50 290 C50 290 50 230 50 230 L50 230 Z " />
<glyph glyph-name="LETTERSMALLCAPITALF" unicode="&#xa730;" horiz-adv-x="481" d="M416 300 C416 300 421 300 421 300 C421 300 421 308 421 308 C421 308 421 316 421 316 C421 316 416 316 416 316 C416 316 134 316 134 316 C134 316 134 579 134 579 C134 579 446 579 446 579 C446 579 451 579 451 579 C451 579 451 588 451 588 C451 588 451 597 451 597 C451 597 134 597 134 597 C134 597 133 597 133 597 C133 597 124 597 124 597 C124 597 114 597 114 597 C114 597 114 592 114 592 C114 592 114 5 114 5 C114 5 114 0 114 0 C114 0 124 0 124 0 C124 0 134 0 134 0 C134 0 134 5 134 5 C134 5 134 300 134 300 C134 300 416 300 416 300 L416 300 Z " />
<glyph glyph-name="LETTERSMALLCAPITALS" unicode="&#xa731;" horiz-adv-x="471" d="M64 167 C64 167 64 166 64 166 C64 166 64 166 64 166 C122 50 196 -10 263 -10 C378 -10 437 60 437 166 C437 249 371 300 244 317 C140 332 86 373 86 439 C86 528 138 588 216 588 C236 588 294 539 379 444 C379 444 394 458 394 458 C392 460 391 462 389 463 C389 463 389 464 389 464 C389 464 389 464 389 464 C303 558 241 607 216 607 C125 607 65 539 65 437 C65 360 124 313 239 297 C356 280 417 236 417 166 C417 72 365 9 263 9 C203 9 133 70 78 189 C78 189 59 177 59 177 C61 173 62 170 64 167 C64 167 64 167 64 167 L64 167 Z " />
<glyph glyph-name="[namenotfound]001" unicode="&#xf078;" horiz-adv-x="530" d="M512 5 C512 5 512 5 512 5 C512 5 308 318 308 318 C308 318 513 592 513 592 C513 591 516 595 517 596 C517 596 517 597 517 597 C517 597 505 597 505 597 C505 597 492 597 492 597 C492 597 297 335 297 335 C297 335 126 597 126 597 C126 597 115 597 115 597 C115 597 105 597 105 597 C104 596 108 591 108 592 C108 592 108 592 108 592 C108 592 285 320 285 320 C285 320 46 0 46 0 C46 0 58 0 58 0 C58 0 70 0 70 0 C70 0 73 4 74 5 C74 5 74 5 74 5 C74 5 297 303 297 303 C297 303 492 3 492 3 C492 3 492 3 492 3 C493 1 494 0 494 0 C494 0 505 0 505 0 C505 0 515 0 515 0 C515 0 515 1 514 3 C514 3 512 5 512 5 L512 5 Z M489 592 C489 592 489 592 489 592 C489 592 489 592 489 592 L489 592 Z " />
</font>
</svg>
